<svg width="20" height="20" viewBox="0 0 20 20" fill="none" xmlns="http://www.w3.org/2000/svg">
<path d="M16.6666 16.6667V10.8333M9.99992 16.6667V8.33333M3.33325 16.6667L3.33325 13.3333M11.1722 4.18959L15.4792 5.80473M8.99889 4.50077L4.33344 7.99986M17.5505 5.36612C18.0386 5.85427 18.0386 6.64573 17.5505 7.13388C17.0623 7.62204 16.2709 7.62204 15.7827 7.13388C15.2945 6.64573 15.2945 5.85427 15.7827 5.36612C16.2709 4.87796 17.0623 4.87796 17.5505 5.36612ZM4.21714 7.86612C4.70529 8.35427 4.70529 9.14573 4.21714 9.63388C3.72898 10.122 2.93752 10.122 2.44937 9.63388C1.96121 9.14573 1.96121 8.35427 2.44937 7.86612C2.93752 7.37796 3.72898 7.37796 4.21714 7.86612ZM10.8838 2.86612C11.372 3.35427 11.372 4.14573 10.8838 4.63388C10.3956 5.12204 9.60419 5.12204 9.11604 4.63388C8.62788 4.14573 8.62788 3.35427 9.11604 2.86612C9.60419 2.37796 10.3956 2.37796 10.8838 2.86612Z" stroke="#7B7B7B" stroke-linecap="round" stroke-linejoin="round"/>
</svg>
