<svg width="16" height="16" viewBox="0 0 16 16" fill="none" xmlns="http://www.w3.org/2000/svg">
<g clip-path="url(#clip0_1_6737)">
<path d="M13.875 6.08332H1.125M10.3333 0.416656V3.24999M4.66667 0.416656V3.24999M4.525 14.5833H10.475C11.6651 14.5833 12.2602 14.5833 12.7147 14.3517C13.1146 14.148 13.4397 13.8229 13.6434 13.4231C13.875 12.9685 13.875 12.3734 13.875 11.1833V5.23332C13.875 4.04321 13.875 3.44816 13.6434 2.99359C13.4397 2.59375 13.1146 2.26867 12.7147 2.06493C12.2602 1.83332 11.6651 1.83332 10.475 1.83332H4.525C3.33489 1.83332 2.73983 1.83332 2.28527 2.06493C1.88543 2.26867 1.56034 2.59375 1.35661 2.99359C1.125 3.44816 1.125 4.04321 1.125 5.23332V11.1833C1.125 12.3734 1.125 12.9685 1.35661 13.4231C1.56034 13.8229 1.88543 14.148 2.28527 14.3517C2.73983 14.5833 3.33489 14.5833 4.525 14.5833Z" stroke="#7B7B7B" stroke-linecap="round" stroke-linejoin="round"/>
</g>
<defs>
<clipPath id="clip0_1_6737">
<rect width="16" height="16" fill="white"/>
</clipPath>
</defs>
</svg>
