<svg width="14" height="14" viewBox="0 0 14 14" fill="none" xmlns="http://www.w3.org/2000/svg">
<path d="M3.49984 3.49996L4.6665 2.33329M4.6665 2.33329L3.49984 1.16663M4.6665 2.33329H3.49984C2.21117 2.33329 1.1665 3.37796 1.1665 4.66663M10.4998 10.5L9.33317 11.6666M9.33317 11.6666L10.4998 12.8333M9.33317 11.6666H10.4998C11.7885 11.6666 12.8332 10.622 12.8332 9.33329M7.82652 7.82664C8.28284 8.0446 8.79375 8.16663 9.33317 8.16663C11.2662 8.16663 12.8332 6.59962 12.8332 4.66663C12.8332 2.73363 11.2662 1.16663 9.33317 1.16663C7.40017 1.16663 5.83317 2.73363 5.83317 4.66663C5.83317 5.20604 5.9552 5.71696 6.17315 6.17328M8.1665 9.33329C8.1665 11.2663 6.5995 12.8333 4.6665 12.8333C2.73351 12.8333 1.1665 11.2663 1.1665 9.33329C1.1665 7.4003 2.73351 5.83329 4.6665 5.83329C6.5995 5.83329 8.1665 7.4003 8.1665 9.33329Z" stroke="#7B7B7B" stroke-width="0.8" stroke-linecap="round" stroke-linejoin="round"/>
</svg>
