<svg width="33" height="33" viewBox="0 0 33 33" fill="none" xmlns="http://www.w3.org/2000/svg">
<circle cx="16.5001" cy="16.5001" r="16.5" fill="white" fill-opacity="0.1"/>
<path d="M11.0017 16.0786L16.536 13.1823L21.999 16.0576L16.5408 18.9565L11.0017 16.0786Z" fill="#D1D1D1"/>
<path d="M11.0017 16.0786L16.536 13.1823L21.999 16.0576L16.5408 18.9565L11.0017 16.0786Z" fill="#EAEAEA"/>
<path d="M16.5369 13.1823L21.9998 16.0576L16.5416 18.9565L16.5369 13.1823Z" fill="#D1D1D1"/>
<path d="M16.5369 16.5235L21.9999 16.0582L16.5416 18.9571L16.5369 16.5235H16.5369Z" fill="#C4C4C4"/>
<path d="M16.536 16.5228L11.0017 16.0786L16.5313 18.9565L16.536 16.5228H16.536Z" fill="#D1D1D1"/>
<path d="M11.0006 16.8494C12.9392 17.8578 14.9592 18.9148 16.5232 19.732L22.0006 16.8502C20.0174 19.7403 18.3654 22.1443 16.5232 24.8052C14.6786 22.1499 12.6404 19.219 11.0006 16.8494Z" fill="#D1D1D1"/>
<path d="M11.0006 16.8494C12.9392 17.8578 14.9592 18.9148 16.5232 19.732L22.0006 16.8502C20.0174 19.7403 18.3654 22.1443 16.5232 24.8052C14.6786 22.1499 12.6404 19.219 11.0006 16.8494Z" fill="#EAEAEA"/>
<path d="M16.5233 19.7323L22.0008 16.8505C20.0176 19.7406 16.5233 24.8055 16.5233 24.8055L16.5233 19.7323Z" fill="#D1D1D1"/>
<path d="M16.5233 19.7323L22.0008 16.8505C20.0176 19.7406 18.3656 22.1446 16.5233 24.8055L16.5233 19.7323Z" fill="#D1D1D1"/>
<path d="M16.5212 12.3767L11.0004 15.2277L16.4972 7.33398L21.9976 15.245L16.5212 12.3767Z" fill="#EAEAEA"/>
<path d="M16.5224 12.3768L16.4984 7.33411L21.9988 15.2451L16.5224 12.3768Z" fill="#D1D1D1"/>
</svg>
