<svg width="16" height="16" viewBox="0 0 16 16" fill="none" xmlns="http://www.w3.org/2000/svg">
<g clip-path="url(#clip0_1_6746)">
<path d="M13.3332 7.00001V4.53334C13.3332 3.41324 13.3332 2.85319 13.1152 2.42536C12.9234 2.04904 12.6175 1.74308 12.2412 1.55133C11.8133 1.33334 11.2533 1.33334 10.1332 1.33334H5.8665C4.7464 1.33334 4.18635 1.33334 3.75852 1.55133C3.3822 1.74308 3.07624 2.04904 2.88449 2.42536C2.6665 2.85319 2.6665 3.41324 2.6665 4.53334V11.4667C2.6665 12.5868 2.6665 13.1468 2.88449 13.5747C3.07624 13.951 3.3822 14.2569 3.75852 14.4487C4.18635 14.6667 4.7464 14.6667 5.8665 14.6667H7.99984M9.33317 7.33334H5.33317M6.6665 10H5.33317M10.6665 4.66668H5.33317M11.9998 14V10M9.99984 12H13.9998" stroke="#7B7B7B" stroke-linecap="round" stroke-linejoin="round"/>
</g>
<defs>
<clipPath id="clip0_1_6746">
<rect width="16" height="16" fill="white"/>
</clipPath>
</defs>
</svg>
