<svg width="16" height="16" viewBox="0 0 16 16" fill="none" xmlns="http://www.w3.org/2000/svg">
<path d="M1.33325 3.06667C1.33325 2.6933 1.33325 2.50661 1.40591 2.36401C1.46983 2.23856 1.57182 2.13658 1.69726 2.07266C1.83987 2 2.02655 2 2.39992 2H13.5999C13.9733 2 14.16 2 14.3026 2.07266C14.428 2.13658 14.53 2.23856 14.5939 2.36401C14.6666 2.50661 14.6666 2.6933 14.6666 3.06667V3.51293C14.6666 3.69213 14.6666 3.78173 14.6447 3.86504C14.6253 3.93887 14.5933 4.00882 14.5503 4.07184C14.5016 4.14295 14.4339 4.20164 14.2985 4.319L10.0347 8.01434C9.89924 8.1317 9.83153 8.19038 9.78291 8.26149C9.73983 8.32451 9.70789 8.39446 9.68848 8.46829C9.66659 8.55161 9.66659 8.64121 9.66659 8.8204V12.3056C9.66659 12.436 9.66659 12.5011 9.64556 12.5575C9.62698 12.6073 9.59676 12.6519 9.55742 12.6877C9.5129 12.7281 9.45238 12.7524 9.33133 12.8008L7.06466 13.7074C6.81963 13.8054 6.69712 13.8545 6.59877 13.834C6.51276 13.8161 6.43729 13.765 6.38875 13.6918C6.33325 13.6081 6.33325 13.4762 6.33325 13.2122V8.8204C6.33325 8.64121 6.33325 8.55161 6.31135 8.46829C6.29195 8.39446 6.26001 8.32451 6.21692 8.26149C6.1683 8.19038 6.1006 8.1317 5.96518 8.01434L1.70133 4.319C1.56591 4.20164 1.4982 4.14295 1.44958 4.07184C1.4065 4.00882 1.37455 3.93887 1.35515 3.86504C1.33325 3.78173 1.33325 3.69213 1.33325 3.51293V3.06667Z" stroke="#7B7B7B" stroke-linecap="round" stroke-linejoin="round"/>
</svg>
