<svg width="16" height="16" viewBox="0 0 16 16" fill="none" xmlns="http://www.w3.org/2000/svg">
<path d="M7.99984 8.00004L5.15125 5.62621C4.72801 5.27352 4.5164 5.09717 4.36426 4.881C4.22947 4.68946 4.12936 4.47573 4.06851 4.24956C3.99984 3.9943 3.99984 3.71883 3.99984 3.16791V1.33337M7.99984 8.00004L10.8484 5.62622C11.2717 5.27352 11.4833 5.09717 11.6354 4.881C11.7702 4.68946 11.8703 4.47573 11.9312 4.24956C11.9998 3.9943 11.9998 3.71883 11.9998 3.16791V1.33337M7.99984 8.00004L5.15125 10.3739C4.72801 10.7266 4.5164 10.9029 4.36426 11.1191C4.22947 11.3106 4.12936 11.5243 4.06851 11.7505C3.99984 12.0058 3.99984 12.2812 3.99984 12.8322V14.6667M7.99984 8.00004L10.8484 10.3739C11.2717 10.7266 11.4833 10.9029 11.6354 11.1191C11.7702 11.3106 11.8703 11.5243 11.9312 11.7505C11.9998 12.0058 11.9998 12.2812 11.9998 12.8322V14.6667M2.6665 1.33337H13.3332M2.6665 14.6667H13.3332" stroke="#ACAA00" stroke-linecap="round" stroke-linejoin="round"/>
</svg>
