<svg width="16" height="16" viewBox="0 0 16 16" fill="none" xmlns="http://www.w3.org/2000/svg">
<g clip-path="url(#clip0_1_6507)">
<path d="M8.00016 5.33329V7.99996M8.00016 10.6666H8.00683M1.3335 10.3181V5.68179C1.3335 5.51873 1.3335 5.4372 1.35192 5.36047C1.36825 5.29245 1.39518 5.22742 1.43174 5.16777C1.47296 5.10049 1.53061 5.04284 1.64592 4.92754L4.92774 1.64571C5.04304 1.53041 5.1007 1.47276 5.16797 1.43153C5.22762 1.39498 5.29265 1.36804 5.36067 1.35171C5.4374 1.33329 5.51893 1.33329 5.68199 1.33329H10.3183C10.4814 1.33329 10.5629 1.33329 10.6397 1.35171C10.7077 1.36804 10.7727 1.39498 10.8324 1.43153C10.8996 1.47276 10.9573 1.53041 11.0726 1.64571L14.3544 4.92754C14.4697 5.04284 14.5274 5.10049 14.5686 5.16777C14.6051 5.22742 14.6321 5.29245 14.6484 5.36047C14.6668 5.4372 14.6668 5.51873 14.6668 5.68179V10.3181C14.6668 10.4812 14.6668 10.5627 14.6484 10.6394C14.6321 10.7075 14.6051 10.7725 14.5686 10.8321C14.5274 10.8994 14.4697 10.9571 14.3544 11.0724L11.0726 14.3542C10.9573 14.4695 10.8996 14.5272 10.8324 14.5684C10.7727 14.6049 10.7077 14.6319 10.6397 14.6482C10.5629 14.6666 10.4814 14.6666 10.3183 14.6666H5.68199C5.51893 14.6666 5.4374 14.6666 5.36067 14.6482C5.29265 14.6319 5.22762 14.6049 5.16797 14.5684C5.1007 14.5272 5.04304 14.4695 4.92774 14.3542L1.64592 11.0724C1.53061 10.9571 1.47296 10.8994 1.43174 10.8321C1.39518 10.7725 1.36825 10.7075 1.35192 10.6394C1.3335 10.5627 1.3335 10.4812 1.3335 10.3181Z" stroke="#7B7B7B" stroke-linecap="round" stroke-linejoin="round"/>
</g>
<defs>
<clipPath id="clip0_1_6507">
<rect width="16" height="16" fill="white" transform="matrix(1 0 0 -1 0 16)"/>
</clipPath>
</defs>
</svg>
