<svg width="37" height="23" viewBox="0 0 37 23" fill="none" xmlns="http://www.w3.org/2000/svg">
<path d="M25.7783 0C31.9757 0 37 5.08226 37 11.3516C37 17.6209 31.9757 22.7031 25.7783 22.7031C23.0001 22.703 20.4597 21.6792 18.5 19.9873C16.5403 21.6792 13.9999 22.703 11.2217 22.7031C5.02432 22.7031 0 17.6209 0 11.3516C7.13287e-06 5.08227 5.02432 0 11.2217 0C13.9997 9.02152e-05 16.5404 1.02318 18.5 2.71484C20.4596 1.02318 23.0003 8.88151e-05 25.7783 0Z" fill="#ED0006"/>
<path d="M25.7783 0C31.9757 0 37 5.08226 37 11.3516C37 17.6209 31.9757 22.7031 25.7783 22.7031C23.0001 22.703 20.4597 21.6792 18.5 19.9873C20.9116 17.9052 22.4424 14.8102 22.4424 11.3516C22.4424 7.89269 20.9118 4.79692 18.5 2.71484C20.4596 1.02318 23.0003 8.86982e-05 25.7783 0Z" fill="#F9A000"/>
<path d="M18.4999 2.7146C20.9118 4.79665 22.4422 7.89243 22.4423 11.3513C22.4423 14.81 20.9114 17.905 18.4999 19.9871C16.0884 17.905 14.5575 14.8099 14.5575 11.3513C14.5575 7.89253 16.0881 4.79665 18.4999 2.7146Z" fill="#FF5E00"/>
</svg>
