<svg width="14" height="14" viewBox="0 0 14 14" fill="none" xmlns="http://www.w3.org/2000/svg">
<path d="M4.08333 4.95833H7M4.08333 7H8.75M4.08333 10.5V11.8624C4.08333 12.1732 4.08333 12.3286 4.14705 12.4084C4.20246 12.4779 4.28649 12.5182 4.37532 12.5182C4.47745 12.518 4.59881 12.421 4.84152 12.2268L6.23304 11.1136C6.5173 10.8862 6.65943 10.7725 6.8177 10.6916C6.95812 10.6199 7.10758 10.5674 7.26204 10.5357C7.43614 10.5 7.61816 10.5 7.98219 10.5H9.45C10.4301 10.5 10.9201 10.5 11.2945 10.3093C11.6238 10.1415 11.8915 9.87377 12.0593 9.54448C12.25 9.17014 12.25 8.68009 12.25 7.7V4.55C12.25 3.56991 12.25 3.07986 12.0593 2.70552C11.8915 2.37623 11.6238 2.10852 11.2945 1.94074C10.9201 1.75 10.4301 1.75 9.45 1.75H4.55C3.56991 1.75 3.07986 1.75 2.70552 1.94074C2.37623 2.10852 2.10852 2.37623 1.94074 2.70552C1.75 3.07986 1.75 3.56991 1.75 4.55V8.16667C1.75 8.70915 1.75 8.98039 1.80963 9.20293C1.97145 9.80684 2.44316 10.2786 3.04707 10.4404C3.26961 10.5 3.54085 10.5 4.08333 10.5Z" stroke="#7B7B7B" stroke-width="0.7" stroke-linecap="round" stroke-linejoin="round"/>
</svg>
