<svg width="16" height="16" viewBox="0 0 16 16" fill="none" xmlns="http://www.w3.org/2000/svg">
<g clip-path="url(#clip0_1_7995)">
<path d="M4.92726 14.3542C5.04256 14.4695 5.10021 14.5272 5.16748 14.5684C5.22713 14.6049 5.29216 14.6319 5.36019 14.6482C5.43691 14.6666 5.51844 14.6666 5.6815 14.6666H10.3178C10.4809 14.6666 10.5624 14.6666 10.6392 14.6482C10.7072 14.6319 10.7722 14.6049 10.8319 14.5684C10.8991 14.5272 10.9568 14.4695 11.0721 14.3542L14.3539 11.0724C14.4692 10.9571 14.5269 10.8994 14.5681 10.8321C14.6047 10.7725 14.6316 10.7075 14.6479 10.6394C14.6663 10.5627 14.6663 10.4812 14.6663 10.3181V5.68179C14.6663 5.51873 14.6663 5.4372 14.6479 5.36047C14.6316 5.29245 14.6047 5.22742 14.5681 5.16777C14.5269 5.10049 14.4692 5.04284 14.3539 4.92754L11.0721 1.64571C10.9568 1.53041 10.8991 1.47276 10.8319 1.43153C10.7722 1.39498 10.7072 1.36804 10.6392 1.35171C10.5624 1.33329 10.4809 1.33329 10.3178 1.33329H5.6815C5.51844 1.33329 5.43691 1.33329 5.36019 1.35171C5.29216 1.36804 5.22713 1.39498 5.16748 1.43153C5.10021 1.47276 5.04256 1.53041 4.92726 1.64571L1.64543 4.92754C1.53013 5.04284 1.47248 5.10049 1.43125 5.16777C1.3947 5.22742 1.36776 5.29245 1.35143 5.36047C1.33301 5.4372 1.33301 5.51873 1.33301 5.68179V10.3181C1.33301 10.4812 1.33301 10.5627 1.35143 10.6394C1.36776 10.7075 1.3947 10.7725 1.43125 10.8321C1.47248 10.8994 1.53013 10.9571 1.64543 11.0724L4.92726 14.3542Z" stroke="#7B7B7B" stroke-linecap="round" stroke-linejoin="round"/>
<path d="M5 8V9" stroke="#7B7B7B" stroke-linecap="round" stroke-linejoin="round"/>
<path d="M8 8V9" stroke="#7B7B7B" stroke-linecap="round" stroke-linejoin="round"/>
<path d="M11 8V9" stroke="#7B7B7B" stroke-linecap="round" stroke-linejoin="round"/>
</g>
<defs>
<clipPath id="clip0_1_7995">
<rect width="16" height="16" fill="white" transform="matrix(1 0 0 -1 0 16)"/>
</clipPath>
</defs>
</svg>
