<svg width="28" height="28" viewBox="0 0 28 28" fill="none" xmlns="http://www.w3.org/2000/svg">
<path d="M3.12041 5.87624C2.82027 5.19411 2.6702 4.85304 2.73611 4.64374C2.79325 4.4623 2.93527 4.32012 3.11664 4.26277C3.32586 4.19661 3.6671 4.34628 4.34959 4.64562L23.718 13.1405C24.3341 13.4108 24.6422 13.5459 24.7364 13.7348C24.8183 13.8988 24.8183 14.0918 24.7364 14.2558C24.6422 14.4447 24.3341 14.5798 23.718 14.85L4.34959 23.3449C3.6671 23.6443 3.32586 23.7939 3.11664 23.7278C2.93527 23.6704 2.79325 23.5283 2.73611 23.3468C2.6702 23.1375 2.82027 22.7965 3.12041 22.1143L6.5274 14.3712C6.58832 14.2327 6.61878 14.1635 6.63082 14.0916C6.64148 14.0278 6.64148 13.9627 6.63082 13.899C6.61878 13.8271 6.58832 13.7579 6.5274 13.6194L3.12041 5.87624Z" fill="#7B7B7B" stroke="#7B7B7B" stroke-width="1.16667" stroke-linecap="round" stroke-linejoin="round"/>
</svg>
