<svg width="16" height="16" viewBox="0 0 16 16" fill="none" xmlns="http://www.w3.org/2000/svg">
<path d="M7.52169 2.30229C7.67534 1.991 7.75217 1.83535 7.85647 1.78562C7.94722 1.74236 8.05264 1.74236 8.14339 1.78562C8.24769 1.83535 8.32452 1.991 8.47817 2.30229L9.93596 5.2556C9.98132 5.3475 10.004 5.39345 10.0372 5.42913C10.0665 5.46072 10.1017 5.48631 10.1408 5.5045C10.185 5.52503 10.2357 5.53244 10.3371 5.54726L13.5979 6.02389C13.9413 6.07408 14.113 6.09917 14.1924 6.18304C14.2616 6.25601 14.2941 6.35628 14.2809 6.45593C14.2658 6.57047 14.1415 6.69153 13.8929 6.93367L11.5342 9.23103C11.4607 9.30264 11.4239 9.33845 11.4002 9.38106C11.3792 9.41878 11.3657 9.46022 11.3605 9.50309C11.3547 9.5515 11.3633 9.60208 11.3807 9.70324L11.9372 12.9482C11.9959 13.2904 12.0253 13.4615 11.9701 13.5631C11.9221 13.6514 11.8368 13.7134 11.738 13.7317C11.6243 13.7528 11.4707 13.672 11.1633 13.5104L8.24817 11.9773C8.15734 11.9295 8.11193 11.9057 8.06408 11.8963C8.02172 11.888 7.97814 11.888 7.93578 11.8963C7.88793 11.9057 7.84252 11.9295 7.75169 11.9773L4.83653 13.5104C4.5292 13.672 4.37553 13.7528 4.2619 13.7317C4.16304 13.7134 4.07773 13.6514 4.02974 13.5631C3.97459 13.4615 4.00394 13.2904 4.06263 12.9482L4.61918 9.70324C4.63653 9.60208 4.6452 9.5515 4.63933 9.50309C4.63413 9.46022 4.62066 9.41878 4.59966 9.38106C4.57593 9.33845 4.53917 9.30264 4.46564 9.23103L2.10696 6.93367C1.85836 6.69153 1.73406 6.57047 1.71894 6.45593C1.70578 6.35628 1.73829 6.25601 1.80742 6.18304C1.88688 6.09917 2.05857 6.07408 2.40195 6.02389L5.66279 5.54726C5.7642 5.53244 5.81491 5.52503 5.85906 5.5045C5.89816 5.48631 5.93336 5.46072 5.96271 5.42913C5.99586 5.39345 6.01854 5.3475 6.0639 5.2556L7.52169 2.30229Z" fill="#C5C300"/>
</svg>
