<svg width="33" height="33" viewBox="0 0 33 33" fill="none" xmlns="http://www.w3.org/2000/svg">
<circle cx="16.5001" cy="16.4939" r="16.5" fill="white" fill-opacity="0.1"/>
<path fill-rule="evenodd" clip-rule="evenodd" d="M24.1843 12.0465V9.4248H9.7464V12.0465H15.166V13.8642C11.3596 14.0585 8.50398 14.8563 8.48282 15.8125L8.48267 17.806C8.50386 18.7623 11.3596 19.5601 15.166 19.7543V24.2152H18.7647V19.7543C22.5711 19.5601 25.4267 18.7623 25.4479 17.806L25.448 15.8125C25.4269 14.8563 22.5711 14.0585 18.7647 13.8642V12.0465H24.1843ZM25.2535 16.8093C24.4226 17.7102 21.0274 18.3848 16.9654 18.3848C12.9033 18.3848 9.50809 17.7102 8.67718 16.8093C9.38179 16.0453 11.9304 15.4441 15.166 15.2789V17.1821C15.7459 17.2117 16.3479 17.2273 16.9654 17.2273C17.5828 17.2273 18.1848 17.2117 18.7647 17.1821V15.2789C22.0003 15.4441 24.5489 16.0453 25.2535 16.8093Z" fill="#EAEAEA"/>
</svg>
