<svg width="16" height="16" viewBox="0 0 16 16" fill="none" xmlns="http://www.w3.org/2000/svg">
<g clip-path="url(#clip0_1_7992)">
<path d="M10.6663 12L12.6663 14M12.6663 14L14.6663 12M12.6663 14V10M10.333 2.19384C11.3103 2.58943 11.9997 3.54754 11.9997 4.66667C11.9997 5.78579 11.3103 6.7439 10.333 7.13949M7.99967 10H5.33301C4.0905 10 3.46924 10 2.97919 10.203C2.32578 10.4736 1.80665 10.9928 1.536 11.6462C1.33301 12.1362 1.33301 12.7575 1.33301 14M8.99967 4.66667C8.99967 6.13943 7.80577 7.33333 6.33301 7.33333C4.86025 7.33333 3.66634 6.13943 3.66634 4.66667C3.66634 3.19391 4.86025 2 6.33301 2C7.80577 2 8.99967 3.19391 8.99967 4.66667Z" stroke="#7B7B7B" stroke-linecap="round" stroke-linejoin="round"/>
</g>
<defs>
<clipPath id="clip0_1_7992">
<rect width="16" height="16" fill="white"/>
</clipPath>
</defs>
</svg>
