<svg width="65" height="55" viewBox="0 0 65 55" fill="none" xmlns="http://www.w3.org/2000/svg">
<path d="M58.4787 0.546661H65L65 40.4533C65 40.9724 64.9676 41.9782 64.9027 43.4707C64.7729 44.8982 64.6107 46.4556 64.416 48.1427C64.1564 49.7649 63.832 51.16 63.4427 52.328C62.9884 53.496 62.4044 54.08 61.6907 54.08H45.144C44.7547 54.08 44.4302 53.8853 44.1707 53.496C43.9111 53.0418 43.7164 52.6849 43.5867 52.4253C41.8347 48.6618 40.18 44.7036 38.6227 40.5507C37.0004 36.3978 35.4107 32.4071 33.8533 28.5787L6.79466 28.5787L6.79466 52.912H0.27333L0.27333 14.952C0.27333 14.4329 0.338218 13.4596 0.467994 12.032C0.532882 10.5396 0.66266 8.98222 0.857328 7.35999C1.052 5.67289 1.37644 4.24533 1.83066 3.07733C2.22 1.90933 2.77155 1.32533 3.48533 1.32533L34.7293 1.32533C35.1187 1.32533 35.4431 1.52 35.7027 1.90933C35.9622 2.29866 36.1569 2.65555 36.2867 2.98C38.0387 6.74355 39.7258 10.7018 41.348 14.8547C42.9053 19.0076 44.4627 22.9982 46.02 26.8267H58.4787V0.546661Z" fill="url(#paint0_linear_3012_16942)"/>
<defs>
<linearGradient id="paint0_linear_3012_16942" x1="32.5" y1="-3" x2="32.5" y2="57" gradientUnits="userSpaceOnUse">
<stop stop-color="#E7E652"/>
<stop offset="0.48" stop-color="#B6B541"/>
<stop offset="1" stop-color="#81802E"/>
</linearGradient>
</defs>
</svg>
