<svg width="94" height="94" viewBox="0 0 94 94" fill="none" xmlns="http://www.w3.org/2000/svg">
<g clip-path="url(#clip0_342_4620)">
<path d="M46.5834 93.3363C72.3105 93.3363 93.1664 72.4804 93.1664 46.7533C93.1664 21.0263 72.3105 0.17041 46.5834 0.17041C20.8564 0.17041 0.000488281 21.0263 0.000488281 46.7533C0.000488281 72.4804 20.8564 93.3363 46.5834 93.3363Z" fill="#F5EB16"/>
<path d="M46.3944 11.8164C27.1994 11.8193 11.6465 27.3838 11.6465 46.5789C11.6494 65.7711 27.2139 81.3298 46.409 81.3269C65.6012 81.3211 81.1599 65.7594 81.157 46.5644C81.1562 42.0002 80.2564 37.4809 78.509 33.2644C76.7615 29.048 74.2007 25.2171 70.9727 21.9904C67.7446 18.7637 63.9126 16.2045 59.6955 14.4588C55.4783 12.7132 50.9586 11.8153 46.3944 11.8164ZM32.2827 27.0432C32.285 26.9487 32.3246 26.859 32.3927 26.7936C32.4609 26.7281 32.5522 26.6923 32.6467 26.6938H47.1252C50.1626 26.6369 53.1741 27.2617 55.9381 28.5222C56.4622 28.7784 56.9775 29.0637 57.4754 29.3724L48.051 34.7672H43.1336C43.0866 34.7684 43.0403 34.7788 42.9972 34.7978C42.9542 34.8169 42.9154 34.8442 42.8829 34.8783C42.8505 34.9123 42.8251 34.9525 42.8082 34.9964C42.7912 35.0402 42.7831 35.087 42.7843 35.1341V37.8475L32.2827 43.9208V27.0432ZM28.3843 57.5492L22.0898 51.1906L42.8192 39.2305V46.9807C42.8215 47.0752 42.861 47.1649 42.9292 47.2303C42.9974 47.2958 43.0886 47.3316 43.1831 47.3301H46.1441L28.4047 57.5492H28.3843ZM59.426 51.639C56.3865 54.1778 52.2144 55.4471 46.9098 55.4471H43.1336C43.0387 55.4471 42.9476 55.4849 42.8804 55.552C42.8133 55.6192 42.7755 55.7103 42.7755 55.8053V63.6312L37.5058 66.6649L32.5855 69.5094L32.274 69.6841V56.7136L48.5868 47.3272C49.981 47.2845 51.3167 46.7562 52.3629 45.8336C52.7347 45.4647 53.047 45.0404 53.2887 44.5759L63.7058 38.5463C63.8805 39.5012 63.9679 40.4678 63.9649 41.4402C63.9766 45.6997 62.4626 49.0973 59.4231 51.639H59.426ZM53.8361 42.8494C53.9059 42.4039 53.9409 41.9497 53.9438 41.4985C54.0318 39.7253 53.4463 37.9844 52.3047 36.6247C51.6647 35.9147 50.8449 35.3906 49.9318 35.1079L64.4104 26.7491L70.7631 33.1048L53.8361 42.8494Z" fill="white"/>
</g>
<defs>
<clipPath id="clip0_342_4620">
<rect width="93.1659" height="93.1659" fill="white" transform="translate(0.00146484 0.17041)"/>
</clipPath>
</defs>
</svg>
