<svg width="94" height="94" viewBox="0 0 94 94" fill="none" xmlns="http://www.w3.org/2000/svg">
<g clip-path="url(#clip0_342_4588)">
<path d="M47.0414 93.3363C72.7685 93.3363 93.6244 72.4804 93.6244 46.7533C93.6244 21.0263 72.7685 0.17041 47.0414 0.17041C21.3144 0.17041 0.458496 21.0263 0.458496 46.7533C0.458496 72.4804 21.3144 93.3363 47.0414 93.3363Z" fill="#FF914D"/>
<path fill-rule="evenodd" clip-rule="evenodd" d="M47.0416 79.5304C28.9383 79.5304 14.2646 64.8568 14.2646 46.7535C14.2646 28.6502 28.9383 13.9766 47.0416 13.9766C65.1449 13.9766 79.8185 28.6502 79.8185 46.7535C79.8185 64.8568 65.1449 79.5304 47.0416 79.5304ZM47.0416 77.603C64.0793 77.603 77.8911 63.7912 77.8911 46.7535C77.8911 29.7158 64.0793 15.9039 47.0416 15.9039C30.0039 15.9039 16.192 29.7158 16.192 46.7535C16.192 63.7912 30.0039 77.603 47.0416 77.603Z" fill="white"/>
<path d="M41.481 70.4292C42.203 70.1322 45.0271 67.9545 47.7551 65.6108C51.1363 62.7349 54.3887 59.7109 57.5026 56.5475C60.4897 53.5603 61.599 52.2764 61.7824 51.6126C62.4287 49.2805 55.3627 23.6454 53.9244 23.0951C53.0481 22.7574 45.2105 29.2761 38.2696 36.1005C34.1995 40.1008 33.0727 41.4313 32.9854 42.3018C32.9272 42.9744 33.1601 44.6601 33.5939 46.6573C35.3204 54.5822 38.4618 65.5321 40.0514 69.1278C40.7182 70.6534 40.7939 70.7203 41.478 70.4292H41.481Z" fill="white"/>
</g>
<defs>
<clipPath id="clip0_342_4588">
<rect width="93.1659" height="93.1659" fill="white" transform="translate(0.459473 0.17041)"/>
</clipPath>
</defs>
</svg>
