<svg width="95" height="94" viewBox="0 0 95 94" fill="none" xmlns="http://www.w3.org/2000/svg">
<g clip-path="url(#clip0_342_4594)">
<circle cx="47.5566" cy="46.7533" r="46.5829" fill="white"/>
<path d="M29.7959 52.8571L31.7437 38.2224L14.8486 26.4937L30.2854 31.7227L33.9311 26.1292L47.243 17.8691L76.5854 34.0351L78.1061 58.7006L65.0338 76.8664L54.701 78.4497L60.0445 68.6689V59.2526L56.1592 51.8988L52.2115 49.2844L46.1389 55.5445V62.1692L41.3995 66.6065L35.3789 67.3356L32.7124 68.846L28.3376 67.4502L26.5148 60.888L29.7959 56.2736V52.8571Z" fill="white"/>
<path d="M56.7732 26.3688C53.5546 25.7021 50.034 25.8792 50.034 25.8792C50.034 25.8792 48.8778 31.2227 41.7114 32.6289C41.7635 32.6289 51.1797 35.8475 56.7732 26.3688Z" fill="#94A6C3"/>
<path d="M59.6893 74.8563C63.5745 71.8148 66.491 67.6274 67.8347 62.8881C67.8972 62.711 68.4389 62.3985 68.8034 62.1589C69.4076 61.7944 70.0221 61.4923 70.1367 61.0028C70.3763 59.607 70.5013 58.1487 70.5013 56.6904C70.5013 56.1488 69.9492 55.5967 69.4076 55.0551C68.9805 54.6905 68.5534 54.2635 68.5534 53.9614C67.9493 48.4304 65.3973 43.264 61.3246 39.5037L60.8975 39.9308C64.8453 43.639 67.3972 48.6804 67.9493 54.0239C68.0118 54.5135 68.4909 54.9926 68.9805 55.4822C69.4076 55.8467 69.8971 56.3988 69.8971 56.6384C69.8971 58.0341 69.7721 59.4299 69.5326 60.8257C69.4701 61.0652 68.9284 61.3152 68.5014 61.5548C67.8972 61.8569 67.3452 62.1589 67.2306 62.6485C65.7723 67.8149 62.4287 72.3147 57.9914 75.2313C58.7831 73.5334 61.2725 68.0024 62.6058 65.2005L62.3662 56.2113L54.6478 48.7429L50.273 49.347L45.4712 57.1279C45.4712 57.1279 47.7211 59.982 44.5545 63.3256C41.4609 66.6067 39.0235 67.3358 39.0235 67.3358L36.7736 66.1171C37.4403 65.263 38.784 63.9922 39.8152 63.1381C41.5755 61.6798 43.3358 61.5548 43.3358 59.982C43.4088 56.6904 39.8777 57.5967 39.8777 57.5967L38.5965 58.8153L38.0548 63.3151L35.3883 66.6587L35.0862 66.5962L30.7114 65.6275C30.7114 65.6275 33.3884 64.2318 33.8155 62.6485C34.2425 61.1277 32.9613 56.0863 32.8988 55.7842C32.9613 55.8467 34.18 56.8779 34.7217 58.5758C35.6904 55.8988 36.9716 53.3468 37.3361 53.1073C37.7007 52.8677 42.6171 50.2532 42.6171 50.2532L40.9818 54.5655L42.2005 53.8989L45.117 46.7326C45.117 46.7326 47.9711 45.3368 50.096 45.3368C53.9187 45.2743 59.5747 40.5974 57.0227 32.2124C57.7519 32.5145 70.3867 38.8371 72.5741 51.2324C74.2094 60.7632 68.8034 69.6899 59.6893 74.8563Z" fill="#94A6C3"/>
<path d="M45.2322 27.7021C46.628 26.0564 46.0863 23.6294 46.0863 23.6294L42.0136 29.65C41.9511 29.65 43.4614 29.7124 45.2322 27.7021Z" fill="#1B314F"/>
<path d="M31.5559 60.5754L32.0455 58.1484C32.0455 58.1484 30.0352 61.6691 29.8581 62.1587C29.6706 62.7107 29.9831 63.6794 30.7643 63.6169C31.5559 63.5544 32.5246 62.3982 32.5246 61.5545C32.5246 60.4608 31.5559 60.5754 31.5559 60.5754Z" fill="#1B314F"/>
<path d="M68.5331 20.9045C68.5331 20.9045 71.6226 21.0315 74.8286 21.402C67.602 15.7177 60.7562 14.0559 55.2013 14.0559C47.5514 14.0559 42.3669 17.2102 42.0495 17.3902L44.4619 13.5584C44.4619 13.5584 34.8334 12.6269 31.437 22.8204C30.5693 20.661 29.7758 17.5066 29.7758 17.5066C29.7758 17.5066 24.7711 21.8995 27.12 29.182C21.3747 27.0862 13.1746 24.1753 12.8572 24.1223C12.4234 24.0588 12.2964 24.2494 12.2964 24.2494C12.2964 24.2494 12.1694 24.4293 12.5398 24.7469C13.2275 25.2867 26.1889 34.8663 29.0351 36.7187C28.4215 38.9415 28.4215 39.9895 29.0351 41.0374C29.9028 42.4558 29.9557 43.1968 29.8393 44.2447C29.7123 45.2926 28.6013 54.3747 28.358 55.4861C28.1146 56.5975 25.5223 60.5458 25.6387 61.7208C25.7657 62.8957 27.3634 67.8919 28.7918 68.4529C29.8393 68.8234 32.4316 69.6279 34.1562 69.6279C34.7699 69.6279 35.3307 69.5008 35.574 69.2574C36.6215 68.3365 36.9284 68.1459 37.669 68.1459C37.7325 68.1459 37.796 68.1459 37.8489 68.1459C38.1557 68.1459 38.5261 68.2094 38.9599 68.2094C39.9439 68.2094 41.2453 68.0189 42.1658 67.1615C43.5202 65.8066 45.8691 63.9542 46.6098 63.0862C47.5409 61.9113 48.0276 60.3129 47.7842 58.704C47.5938 57.2221 48.3979 55.9201 49.329 54.6287C50.5035 53.0833 52.6619 50.31 52.6619 50.31C56.926 53.5067 59.5817 58.3864 59.5817 63.8166C59.5817 73.4491 51.1912 81.2292 40.8221 81.2292C39.2138 81.2292 37.6796 81.0492 36.1348 80.6787C40.8856 82.3406 44.8957 82.9016 48.1757 82.9016C55.1484 82.9016 58.8517 80.3718 58.8517 80.3718C58.8517 80.3718 57.5608 82.0442 55.4553 83.9495C55.5187 83.9495 55.5187 83.9495 55.5187 83.9495C67.0623 82.3406 72.6807 72.8352 72.6807 72.8352C72.6807 72.8352 72.2469 75.926 71.6967 78.0219C87.0494 66.4735 84.4571 52.0248 84.3936 51.5379C84.5206 51.7178 86.0654 53.5702 86.8589 54.5652C89.3348 29.1185 68.5331 20.9045 68.5331 20.9045ZM44.8957 61.5408C44.6523 61.8478 43.6048 62.7793 42.8642 63.4567C42.1235 64.1342 41.3194 64.8116 40.7057 65.4361C40.4623 65.6796 39.965 65.8066 39.2244 65.8066C38.981 65.8066 38.7271 65.8066 38.5472 65.8066C38.4203 65.8066 38.3039 65.8066 38.1769 65.8066C38.0499 65.8066 37.9864 65.8066 37.9335 65.8066C37.7431 65.8066 37.5632 65.8066 37.3728 65.8066C38.3039 64.5682 41.0125 61.7313 41.9436 61.1174C43.0546 60.3764 43.6154 59.6355 42.9277 58.3441C42.2505 57.0421 40.4623 57.3597 40.4623 57.3597C40.4623 57.3597 41.5098 56.9257 42.4409 56.9257C41.2665 56.6187 39.7852 56.9257 39.108 57.6031C38.3674 58.2806 38.4943 60.694 38.1875 62.2288C37.8806 63.8378 36.8331 64.6423 35.2249 66.1242C34.3573 66.9286 33.7436 67.1721 33.2463 67.1721C32.1988 66.9922 30.9608 66.6746 30.0932 66.3676C29.4795 65.5632 28.5484 62.9063 28.3051 61.7948C28.4849 61.1809 29.2256 59.8789 29.5959 59.138C30.3366 57.7196 30.7704 56.9151 30.8973 56.1741C31.1407 55.1262 31.9448 48.6375 32.2517 45.9277C33.0558 46.9757 34.1668 48.7116 33.9129 49.8231C35.701 47.2932 34.4102 44.8163 33.7859 43.8319C33.2357 42.8475 32.495 40.868 33.1087 38.7722C33.7224 36.6763 35.9444 30.8651 35.9444 30.8651C35.9444 30.8651 36.685 32.167 37.7325 31.913C38.78 31.6695 47.234 18.9462 47.234 18.9462C47.234 18.9462 49.5195 23.9424 47.1071 27.5943C44.6417 31.2356 42.2293 31.913 42.2293 31.913C42.2293 31.913 45.6257 32.5269 48.7682 30.2406C50.0591 33.2679 51.297 36.4117 51.3605 36.8457C51.1701 37.2797 48.7047 43.2073 48.4614 43.5778C48.3344 43.7048 47.4774 43.9483 46.8531 44.0753C45.8056 44.3823 45.1919 44.5728 44.938 44.7528C44.5042 45.1233 42.5256 50.5534 41.6051 53.2103C40.4941 53.5173 39.3831 54.1418 38.579 55.3697C39.0128 55.0627 40.3671 54.8722 41.3617 54.7557C42.2293 54.6922 44.8745 56.1106 45.5623 58.7675C45.5623 58.831 45.5623 58.831 45.5623 58.8945C45.6998 59.8684 45.393 60.7998 44.8957 61.5408ZM39.0974 62.2818C39.6582 61.4773 39.5947 60.1224 39.6582 59.6884C39.7217 59.2544 39.8381 58.4499 40.3354 58.3335C40.8327 58.2065 42.0071 58.397 42.0071 59.2544C42.0071 60.0589 41.1395 60.2388 40.5258 60.7998C40.0814 61.2233 39.2138 62.1547 39.0974 62.2818ZM63.7188 50.4793C64.3325 47.3356 64.396 44.6152 64.2161 42.3923C66.6179 45.5996 68.0992 49.4949 68.5331 53.5067C68.5965 54.0042 69.0833 54.4911 69.5806 54.9886C70.0144 55.3591 70.5117 55.8566 70.5117 56.1636C70.5117 57.582 70.3847 59.0004 70.1413 60.4294C70.0778 60.6093 69.5277 60.9269 69.0938 61.1703C68.4802 61.4773 67.9194 61.7843 67.803 62.2818C66.4487 67.0345 63.5389 71.2368 59.6558 74.2006C65.3906 68.2094 68.1627 58.3229 63.7188 50.4793ZM59.8357 74.7511C63.8458 71.6602 66.9354 67.3415 68.2897 62.4617C68.3532 62.2818 68.9034 61.9642 69.2737 61.7208C69.8874 61.4138 70.5117 61.0433 70.628 60.5458C70.8714 59.1274 70.9984 57.6455 70.9984 56.1636C70.9984 55.6131 70.4376 55.0521 69.8874 54.5017C69.5806 54.1312 69.0833 53.6972 69.0833 53.3903C68.586 48.881 66.7978 44.6258 64.0257 41.1009C62.7877 33.6913 57.8571 31.4049 57.7301 31.3414C57.8571 31.5319 61.0631 36.1576 58.8411 41.5878C56.5557 47.0815 50.6939 46.2241 50.1966 46.277C49.6993 46.277 47.7948 48.7434 45.3824 53.3162C45.0755 53.1891 43.7741 52.8822 42.2928 53.1362C43.4038 50.0453 45.0755 45.6631 45.3824 45.2926C45.5094 45.1656 46.4299 44.9221 47.0541 44.7422C48.2286 44.4352 48.7788 44.2447 48.9693 44.0012C49.0962 43.8107 49.7099 42.3923 50.3236 40.9104C50.8844 40.9104 52.3022 40.7833 52.4186 40.7198C52.5456 40.5928 53.72 37.5761 53.72 37.2056C53.72 36.8986 51.3076 30.9074 50.3871 28.621C50.8209 28.1235 51.2547 27.5096 51.6779 26.8321C64.3325 28.1976 74.2149 38.9415 74.2149 51.9613C74.2149 61.9642 68.3532 70.6758 59.8357 74.7511Z" fill="#1B314F"/>
<path d="M42.9197 42.1077C44.0759 40.7744 43.4717 38.285 41.3364 37.8579C41.8885 36.5871 42.6697 34.0352 42.6697 34.0352C42.6697 34.0352 36.4721 43.7535 35.9304 43.9409C35.3784 44.1284 34.8367 41.9931 34.8367 41.9931C33.6805 46.4304 36.7846 47.0346 37.1491 45.6388C38.847 45.2013 41.7635 43.3785 42.9197 42.1077Z" fill="#1B314F"/>
<path d="M37.6279 44.4719L40.784 39.0659C40.784 39.0659 42.6069 39.9825 41.6902 41.4408C40.5445 43.1386 37.6279 44.4719 37.6279 44.4719Z" fill="#FFD923"/>
<path d="M76.6996 69.5127C75.7829 70.7313 74.7517 72.0021 73.5435 73.2208C81.3764 58.1486 73.908 44.3576 73.606 43.8159C74.158 44.368 74.6996 44.9721 75.1892 45.5138C81.1993 52.1905 81.9285 62.2213 76.6996 69.5127Z" fill="#D82122"/>
<path d="M83.9907 50.1278C81.2512 42.7739 77.366 36.5138 68.8039 30.8682C60.5438 25.3997 51.6692 25.8268 51.1797 25.8893C51.1172 25.8893 51.0547 25.8893 51.0547 25.8893C51.3568 25.7643 51.6588 25.7018 51.9609 25.6497C53.8462 25.0456 56.2732 24.556 58.7106 24.254C65.1582 23.3269 71.6579 25.5143 76.0952 30.2016C76.1577 30.2641 76.1577 30.2641 76.2202 30.3266C81.2616 35.6701 83.8761 42.3469 83.9907 50.1278Z" fill="#D82122"/>
<path d="M66.8563 20.0462C57.8047 18.3484 51.9716 19.1921 47.7739 20.7754C47.6489 20.2858 47.2218 19.3171 46.8573 18.5255C45.5969 20.0462 44.2532 21.8691 43.4095 23.0253C41.0971 24.6085 40.1284 26.1293 40.1284 26.1293C41.4617 21.567 45.3573 18.1713 50.0967 17.3172C51.43 17.0776 52.8882 16.9526 54.4715 16.9526C58.6588 17.0151 62.8461 18.0463 66.8563 20.0462Z" fill="#D82122"/>
<path d="M33.3787 31.7123C26.2748 31.4727 28.6393 23.2023 28.7643 22.7231C28.7643 22.7856 29.2434 29.2228 33.3787 31.7123Z" fill="#D82122"/>
<path d="M40.368 16.8276C34.8995 20.1087 35.9932 27.9417 35.9932 27.9417C30.7642 19.9942 39.9409 17.0151 40.368 16.8276Z" fill="#D82122"/>
<path d="M31.3785 33.8999C31.743 34.202 32.1076 34.754 31.6805 35.5457C31.441 35.9727 31.0764 35.9102 30.5243 35.6706C29.7952 35.3061 25.4204 32.7541 21.4727 30.1396C25.9725 31.7229 30.5243 33.4207 31.2535 33.7853C31.2535 33.7853 31.316 33.8478 31.3785 33.8999Z" fill="white"/>
</g>
<defs>
<clipPath id="clip0_342_4594">
<rect width="93.1659" height="93.1659" fill="white" transform="translate(0.973633 0.17041)"/>
</clipPath>
</defs>
</svg>
