<svg width="94" height="94" viewBox="0 0 94 94" fill="none" xmlns="http://www.w3.org/2000/svg">
<g clip-path="url(#clip0_342_4611)">
<path d="M47.0717 93.3363C72.7988 93.3363 93.6546 72.4804 93.6546 46.7533C93.6546 21.0263 72.7988 0.17041 47.0717 0.17041C21.3447 0.17041 0.48877 21.0263 0.48877 46.7533C0.48877 72.4804 21.3447 93.3363 47.0717 93.3363Z" fill="#F1CB60"/>
<path d="M44.9258 72.5371V76.7966H47.0715V70.4234H42.8121V72.5371H44.9258ZM23.5646 49.1583H21.4509V59.7909H23.5646V55.5314H25.7103V51.272H23.5646V49.1583ZM49.2172 61.9046H51.3309V68.2777H49.2172V61.9046ZM47.0715 68.2777H49.2172V70.4234H47.0715V68.2777ZM25.7103 66.164H32.1155V72.5371H25.7103V66.164ZM21.4509 44.8989H23.5966V47.0126H21.4509V44.8989ZM34.2612 40.6395H36.4069V42.7852H34.2612V40.6395ZM47.0715 38.4937H49.2172V42.7532H47.0715V38.4937ZM19.3052 32.1206H25.7103V38.4937H19.3052V32.1206ZM38.5206 72.5371H40.6664V76.7966H38.5206V72.5371ZM40.6664 38.4937H38.5527V42.7532H40.6664V40.6395H42.8121V36.38H40.6664V38.4937ZM42.8121 34.2663H44.9258V36.38H42.8121V34.2663ZM42.8121 40.6395H44.9258V42.7532H42.8121V40.6395ZM32.1155 44.8989H38.5206V47.0126H32.1155V44.8989Z" fill="white"/>
<path d="M40.6665 36.3799V34.2662H42.7802V32.1205H40.6665V27.8931H34.2614V30.0068H38.5208V32.1205H36.3751V34.2342H34.2614V36.3479H32.1477V34.2662H29.9699V32.1525H32.1156V34.2342H34.2614V32.1205H32.1477V27.8931H15.0459V42.785H32.1477V40.6393H34.2614V36.3799H36.4071V38.4936H38.5528V36.3799H40.6665ZM27.8562 40.6393H17.1916V30.0068H27.8562V40.6393ZM29.9699 40.6393V36.3799H32.1156V40.6393H29.9699ZM38.5208 34.2342V32.1525H40.6665V34.2342H38.5208ZM55.6225 57.645V55.5313H51.3311V51.2719H49.2174V53.3856H47.1037V51.2719H49.2174V44.8667H44.958V47.0125H42.7802V51.2719H40.6665V53.3856H42.8122V51.2719H44.9259V57.645H40.6665V55.5313H38.5208V51.2719H36.4071V49.1582H32.1156V47.0445H29.9699V44.9308H25.7105V47.0445H23.5648V49.1582H25.7105V51.2719H27.8562V49.1582H30.0019V51.2719H27.8562V53.3856H30.0019V55.4993H32.1156V53.3856H34.2614V51.2719H36.3751V53.3856H34.2614V55.4993H32.1477V59.7587H36.4071V61.9044H32.1156V59.7907H29.9699V61.9044H25.7105V59.7907H23.5968V61.9044H21.4511V76.7964H36.4071V64.0181H38.5208V70.4233H42.8122V68.3096H44.958V64.0181H42.8122V61.9044H40.6665V64.0181H38.5528V59.7587H44.958V61.8724H47.1037V57.645H51.3311V59.7907H53.4768V57.645H55.6225ZM34.2614 74.6507H23.5968V64.0181H34.2614V74.6507ZM36.4071 57.645H34.2614V55.5313H36.4071V57.645ZM40.6665 66.1639H42.8122V68.2776H40.6665V66.1639ZM55.6225 27.8931H57.7362V32.1205H55.6225V27.8931ZM51.3311 27.8931H49.2174V34.2662H47.0717V36.3799H49.2174V38.4936H51.3311V42.753H53.4768V38.4936H55.6225V42.785H57.7362V40.6393H59.882V36.3799H55.6225V32.1205H51.3311V27.8931Z" fill="white"/>
<path fill-rule="evenodd" clip-rule="evenodd" d="M70.5463 51.2721H66.2869V53.3858H64.1411V55.5315H62.0274V49.1584H64.1411V47.0126H62.0274V49.1263H59.8817V51.2721H57.736V47.0126H55.6223V51.2721H53.4766V53.4178L55.6223 53.3858H57.736V57.6452H64.1411V59.7909H57.736V61.9046H55.6223V64.0183H53.4766V66.164H55.6223V68.2777H53.4766V70.4235H55.6223V72.5372H57.736V74.6509H55.6223V76.7966H72.692V64.0183H70.5463V74.6509H59.8817V64.0183H66.2869V55.5315H68.4326V57.6452H72.692V53.4178H70.5783V51.2721H72.692V44.8989H70.5463V51.2721Z" fill="white"/>
<path d="M53.4772 59.7909H55.6229V61.9046H53.4772V59.7909ZM64.1417 49.1583H66.2875V51.272H64.1417V49.1583ZM68.4332 59.7909H72.6926V61.9366H68.4332V59.7909ZM68.4332 32.1526H74.8383V38.5258H68.4332V32.1526ZM59.8823 40.6395H62.028V42.7852H59.8823V40.6395ZM51.3314 44.8989H53.4772V47.0126H51.3314V44.8989ZM66.2875 44.8989H68.4332V47.0126H66.2875V44.8989ZM62.028 66.164H68.4332V72.5371H62.028V66.164ZM59.8823 44.8989H62.028V47.0126H59.8823V44.8989ZM44.9263 32.1206H47.072V34.2663H44.9263V32.1206Z" fill="white"/>
<path d="M59.8823 27.8932V30.0069H64.1417V32.1206H61.996V34.2343H59.8823V32.1206H57.7366V34.2664H59.8823V36.348H62.028V38.4617H64.1737V42.7212H79.0977V27.8932H59.8823ZM76.952 40.6395H66.2874V30.0069H76.952V40.6395ZM29.1696 24.1462C30.6428 25.139 32.3081 25.3312 33.6212 25.3952C34.7421 25.4593 36.6316 25.4593 38.6172 25.4593C42.3001 25.4593 46.6236 25.5233 47.072 25.5233C48.2569 25.5554 51.8758 25.5554 55.0784 25.5554C57.064 25.5554 58.9215 25.5233 60.0744 25.4913C61.3875 25.4272 63.0528 25.2031 64.526 24.2423C66.3835 22.9933 67.3123 20.9436 67.3123 18.1574C67.3123 15.9156 66.3835 14.5705 65.6149 13.8019C63.5332 11.7843 60.3306 11.9124 59.2738 11.9444H59.1457C58.5052 11.9444 56.1993 12.2967 53.4771 13.8339C51.0752 15.179 48.9935 17.1005 47.2962 19.5025L47.104 19.9829L46.9439 19.7267C45.1504 17.0365 42.8125 15.211 40.2185 13.7378C37.5283 12.2006 35.2224 11.8803 34.5819 11.8803H34.4538C33.397 11.8483 30.1944 11.7202 28.1127 13.7378C26.7036 15.0829 26.4154 16.8443 26.4154 18.0933C26.3833 20.8476 27.3121 22.8972 29.1696 24.1462ZM55.0464 16.9724C57.3202 15.6594 59.0496 15.4672 59.1777 15.4672H59.4019C61.2274 15.4032 62.5084 15.6914 63.1809 16.3319C63.5973 16.7483 63.8214 17.3247 63.8214 18.1574C63.8214 21.1998 62.3803 21.8724 59.9143 22.0005C57.8326 22.0966 52.9967 22.0645 49.8582 22.0325C51.1495 19.9483 52.9306 18.2112 55.0464 16.9724ZM30.5146 16.2359C31.1231 15.6594 32.212 15.3712 33.7813 15.3712H34.5499C34.678 15.3712 36.4074 15.5633 38.6812 16.8764C40.7309 18.0613 42.4923 19.7587 43.9014 21.9364C40.7309 21.9685 35.895 22.0005 33.8133 21.9044C31.3473 21.7763 29.9062 21.1038 29.9062 18.0613C29.9062 17.2287 30.0983 16.6522 30.5146 16.2359ZM51.3314 72.5372H49.2177V76.7966H51.3634V72.5372H53.4771V70.4235H51.3314V72.5372Z" fill="white"/>
</g>
<defs>
<clipPath id="clip0_342_4611">
<rect width="93.1659" height="93.1659" fill="white" transform="translate(0.487793 0.17041)"/>
</clipPath>
</defs>
</svg>
