<svg width="94" height="94" viewBox="0 0 94 94" fill="none" xmlns="http://www.w3.org/2000/svg">
<path d="M46.6122 91.9388C71.5674 91.9388 91.7977 71.7086 91.7977 46.7533C91.7977 21.7981 71.5674 1.56787 46.6122 1.56787C21.657 1.56787 1.42676 21.7981 1.42676 46.7533C1.42676 71.7086 21.657 91.9388 46.6122 91.9388Z" fill="url(#paint0_linear_342_4697)"/>
<path d="M66.3871 64.7574L51.1079 27.8171C50.2462 25.9072 48.9651 24.9756 47.2765 24.9756H45.9256C44.237 24.9756 42.9559 25.9072 42.0941 27.8171L35.4444 43.9116H30.4135C28.9112 43.9232 27.6884 45.1344 27.6767 46.6483V46.6832C27.6884 48.1855 28.9112 49.4083 30.4135 49.42H33.1153L26.7684 64.7574C26.6519 65.0951 26.582 65.4445 26.582 65.8055C26.582 66.6673 26.8499 67.3428 27.3274 67.8668C27.8048 68.3909 28.4919 68.6471 29.3537 68.6471C29.9244 68.6354 30.4717 68.4608 30.9259 68.123C31.415 67.7853 31.7527 67.2962 32.0206 66.7372L39.008 49.4083H43.8527C45.355 49.3967 46.5778 48.1855 46.5894 46.6716V46.6017C46.5778 45.0994 45.355 43.8766 43.8527 43.865H41.2673L46.601 30.5772L61.1349 66.7255C61.4028 67.2845 61.7405 67.7737 62.2296 68.1114C62.6838 68.4491 63.2428 68.6238 63.8018 68.6354C64.6636 68.6354 65.339 68.3792 65.8282 67.8552C66.3173 67.3311 66.5735 66.6557 66.5735 65.7939C66.5851 65.4445 66.5269 65.0835 66.3871 64.7574Z" fill="white"/>
<defs>
<linearGradient id="paint0_linear_342_4697" x1="80.3018" y1="18.406" x2="13.0659" y2="74.9782" gradientUnits="userSpaceOnUse">
<stop stop-color="#B6509E"/>
<stop offset="1" stop-color="#2EBAC6"/>
</linearGradient>
</defs>
</svg>
