<svg width="94" height="94" viewBox="0 0 94 94" fill="none" xmlns="http://www.w3.org/2000/svg">
<g clip-path="url(#clip0_342_4702)">
<path d="M47.1254 93.3363C72.8525 93.3363 93.7084 72.4804 93.7084 46.7533C93.7084 21.0263 72.8525 0.17041 47.1254 0.17041C21.3984 0.17041 0.54248 21.0263 0.54248 46.7533C0.54248 72.4804 21.3984 93.3363 47.1254 93.3363Z" fill="#3EFFFF"/>
<path d="M19.4668 30.7026L47.1254 14.7275L74.784 30.7026V62.804L47.1254 78.7791L19.4668 62.804V30.7026ZM22.122 59.7296L33.2146 53.3099L38.8424 43.4547L22.122 33.78V59.7296ZM23.4525 62.0325L45.8764 74.9855V62.5915L34.12 55.8574L23.4525 62.0296V62.0325ZM72.1288 33.8702L55.5569 43.4576L61.1818 53.304L72.1288 59.6393V33.8702ZM70.8769 31.5178L48.5316 18.6114V31.1568L54.238 41.1459L70.8769 31.5178ZM53.2715 44.7794L49.8592 46.7533L56.6283 50.6692L53.2715 44.7794ZM51.9526 42.4677L48.5316 36.4701V44.4475L51.9526 42.4677ZM37.7914 50.6634L44.5459 46.7533L41.1424 44.7852L37.7943 50.6634H37.7914ZM36.784 54.3201L45.8764 59.5258V49.0592L36.784 54.3201ZM23.4496 31.4741L40.1613 41.1401L45.8764 31.1393V18.5211L23.4496 31.4741ZM70.8769 61.9888L60.2909 55.8632L48.5316 62.6788V74.8952L70.8769 61.9888ZM57.6357 54.3259L48.5316 49.0592V59.6044L57.6357 54.323V54.3259ZM42.4613 42.4735L45.8764 44.4475V36.4847L42.4613 42.4735Z" fill="white"/>
</g>
<defs>
<clipPath id="clip0_342_4702">
<rect width="93.1659" height="93.1659" fill="white" transform="translate(0.543457 0.17041)"/>
</clipPath>
</defs>
</svg>
