<svg width="94" height="94" viewBox="0 0 94 94" fill="none" xmlns="http://www.w3.org/2000/svg">
<g clip-path="url(#clip0_342_4706)">
<path d="M46.6406 93.3363C72.3676 93.3363 93.2235 72.4804 93.2235 46.7533C93.2235 21.0263 72.3676 0.17041 46.6406 0.17041C20.9135 0.17041 0.0576172 21.0263 0.0576172 46.7533C0.0576172 72.4804 20.9135 93.3363 46.6406 93.3363Z" fill="#767DFF"/>
<path fill-rule="evenodd" clip-rule="evenodd" d="M40.1477 19.0947H53.1327C53.5827 19.0945 54.0246 19.2141 54.4129 19.4413C54.8013 19.6685 55.1222 19.9951 55.3425 20.3874L75.4489 56.2534C75.6605 56.6314 75.7717 57.0574 75.7717 57.4907C75.7717 57.924 75.6605 58.35 75.4489 58.7281L69.0146 70.2049C68.7949 70.5974 68.4747 70.9242 68.0868 71.1519C67.699 71.3796 67.2575 71.4999 66.8077 71.5005H26.4727C26.0225 71.5005 25.5804 71.3804 25.192 71.1527C24.8036 70.9249 24.4829 70.5978 24.2629 70.2049L17.8316 58.7281C17.6199 58.35 17.5088 57.924 17.5088 57.4907C17.5088 57.0574 17.6199 56.6314 17.8316 56.2534L37.9379 20.3874C38.1583 19.9951 38.4791 19.6685 38.8675 19.4413C39.2559 19.2141 39.6978 19.0945 40.1477 19.0947ZM46.6402 33.3637L33.0933 57.4907H60.1871L46.6402 33.3637Z" fill="white"/>
</g>
<defs>
<clipPath id="clip0_342_4706">
<rect width="93.1659" height="93.1659" fill="white" transform="translate(0.0576172 0.17041)"/>
</clipPath>
</defs>
</svg>
