<svg width="94" height="94" viewBox="0 0 94 94" fill="none" xmlns="http://www.w3.org/2000/svg">
<g clip-path="url(#clip0_342_4710)">
<path d="M47.1557 93.3363C72.8827 93.3363 93.7386 72.4804 93.7386 46.7533C93.7386 21.0263 72.8827 0.17041 47.1557 0.17041C21.4286 0.17041 0.572754 21.0263 0.572754 46.7533C0.572754 72.4804 21.4286 93.3363 47.1557 93.3363Z" fill="#FF0000"/>
<path d="M13.4003 63.3805L28.9386 35.0901C29.5821 33.9081 30.6505 33.5878 31.7336 34.2283H31.8471C32.0899 34.3743 32.3603 34.4683 32.6412 34.5043C32.9222 34.5404 33.2075 34.5178 33.4793 34.4379C33.751 34.358 34.0032 34.2225 34.2199 34.0401C34.4366 33.8577 34.6131 33.6323 34.7382 33.3782L45.6532 16.6549C46.0229 15.9503 46.4946 15.3011 47.0507 14.7275C47.5398 15.3273 47.9037 16.0173 48.1191 16.7597L52.8357 28.4433C53.9042 31.1276 56.475 33.055 59.1593 33.055H60.0124C61.3895 33.1074 62.6938 33.681 63.6604 34.6621L67.0842 38.3014C68.1003 39.3786 69.0349 40.5228 69.8792 41.734L80.9194 57.5955C81.3328 58.2244 81.7258 58.8678 82.0927 59.5229V59.6277C81.498 59.1653 80.9587 58.6358 80.4855 58.0497L65.5877 42.5929C64.6676 41.6646 63.8737 40.6191 63.2266 39.4835C62.0387 36.9127 60.5422 35.8354 58.1898 35.949H55.191C53.3743 35.949 52.9405 35.6287 52.396 33.8032L48.1191 20.4107C47.3709 17.7263 47.2603 17.7263 46.512 20.4107L43.621 29.4943C42.9776 31.3081 42.7592 34.3128 43.0824 34.3128C43.193 34.3128 43.9412 32.9153 45.1204 30.4551C45.3446 29.9543 45.6299 29.4856 45.9734 29.0576C46.2471 30.0824 46.3927 31.1364 46.4101 32.1961C46.0957 32.9356 45.7376 33.6519 45.3329 34.3419L45.2281 34.6621C43.9412 37.0175 43.9412 37.1281 45.3329 39.3786L46.6168 41.5185C47.106 42.1765 47.5019 42.8986 47.7989 43.6614C47.1915 44.175 46.5462 44.6422 45.8686 45.0589L39.2247 49.3445C38.0389 49.9945 36.7183 50.3602 35.3671 50.413C33.0059 50.3082 30.9708 51.4902 29.1482 53.9475L26.5775 57.5955C25.6516 58.7368 24.6093 59.7791 23.468 60.7049L21.1127 62.6323C19.9007 63.473 18.6086 64.1917 17.255 64.778L15.9711 65.0982C15.0394 65.436 14.0641 65.6514 13.0771 65.7359C12.6375 65.7359 12.2183 65.7358 12.2183 65.631C12.5531 64.8508 12.9461 64.0996 13.4003 63.3805Z" fill="white"/>
</g>
<defs>
<clipPath id="clip0_342_4710">
<rect width="93.1659" height="93.1659" fill="white" transform="translate(0.571777 0.17041)"/>
</clipPath>
</defs>
</svg>
