<svg width="94" height="94" viewBox="0 0 94 94" fill="none" xmlns="http://www.w3.org/2000/svg">
<g clip-path="url(#clip0_342_4714)">
<path d="M46.6674 93.3363C72.3945 93.3363 93.2503 72.4804 93.2503 46.7533C93.2503 21.0263 72.3945 0.17041 46.6674 0.17041C20.9404 0.17041 0.0844727 21.0263 0.0844727 46.7533C0.0844727 72.4804 20.9404 93.3363 46.6674 93.3363Z" fill="#0D1E30"/>
<g filter="url(#filter0_d_342_4714)">
<path d="M45.8674 17.8136C47.262 17.0945 48.9651 18.7569 48.2256 20.1282C47.7918 21.2462 46.1585 21.5432 45.3259 20.6901C44.4437 19.8749 44.7319 18.2561 45.8674 17.8107V17.8136ZM30.8589 19.4033C31.7062 19.0597 32.7805 19.8225 32.6931 20.7338C32.7805 21.7178 31.5577 22.4457 30.693 21.977C29.5488 21.5402 29.6798 19.7119 30.8589 19.4033ZM61.5979 22.0032C60.2732 21.8459 60.0635 19.7963 61.3358 19.3829C62.3257 18.9112 63.2341 19.7992 63.3797 20.7221C63.17 21.5082 62.5004 22.2303 61.5979 22.0032ZM34.2741 25.6861C35.6919 24.804 37.7125 26.117 37.4941 27.7387C37.4213 29.372 35.2144 30.3211 33.9684 29.2148C32.763 28.3472 32.9464 26.3558 34.2741 25.6861ZM55.906 26.6236C56.5378 25.0223 59.0998 24.9699 59.819 26.5304C60.5323 27.7445 59.6559 29.2497 58.3895 29.6631C56.7096 29.9718 55.117 28.1841 55.906 26.6236ZM44.0594 29.5729C44.0448 28.1929 45.32 27.168 46.6506 27.072C47.5356 27.2467 48.4964 27.6164 48.8749 28.4927C49.5824 29.7039 48.9535 31.3663 47.6812 31.9224C47.0989 32.2427 46.406 32.1233 45.7713 32.0855C44.8018 31.6196 43.9837 30.6967 44.0594 29.5729ZM21.7403 31.5818C23.0359 30.7957 24.7828 32.2223 24.2908 33.6081C24.0229 34.8047 22.3867 35.2909 21.4521 34.5281C20.4535 33.8119 20.6107 32.0913 21.7432 31.5789L21.7403 31.5818ZM69.6683 31.576C70.766 30.7375 72.5798 31.7011 72.4459 33.0637C72.5216 34.3069 70.9523 35.2473 69.8634 34.6068C68.6639 34.074 68.5387 32.2572 69.6683 31.5789V31.576ZM50.3364 34.0536C52.1473 33.4131 54.3018 34.1788 55.3325 35.7713C56.695 37.7133 55.973 40.6713 53.8564 41.7864C51.667 43.1052 48.4673 41.9902 47.655 39.5795C46.7379 37.425 48.0772 34.729 50.3335 34.0536H50.3364ZM39.701 34.2661C41.7099 33.3345 44.4146 34.1147 45.3841 36.1353C46.5254 38.1034 45.6432 40.843 43.6023 41.8591C41.5585 43.0033 38.6732 42.1357 37.6863 40.0249C36.577 37.9811 37.5611 35.2065 39.701 34.2661ZM29.0539 37.8443C29.2082 36.572 30.4281 35.7422 31.6596 35.6549C32.3019 35.7227 32.9021 36.0064 33.3622 36.4597C33.8223 36.9129 34.115 37.5088 34.1925 38.15C34.1052 39.4601 33.0775 40.7353 31.6683 40.7295C30.1165 40.8605 28.7569 39.3407 29.0539 37.8443ZM60.5032 35.9344C62.0957 35.0231 64.3055 36.3478 64.2356 38.1471C64.3433 40.054 61.8977 41.3962 60.3139 40.2782C58.666 39.3466 58.7941 36.7263 60.5032 35.9344ZM35.3775 42.651C37.235 42.1474 39.3662 43.0092 40.2774 44.692C41.2761 46.3864 40.8685 48.7389 39.3167 49.985C37.3223 51.8075 33.651 51.0738 32.5912 48.5875C31.3714 46.3078 32.8533 43.2508 35.3746 42.6481L35.3775 42.651ZM55.545 42.6423C57.353 42.1328 59.4783 42.817 60.4507 44.4387C61.7376 46.2933 61.1233 49.062 59.2105 50.2557C57.2016 51.6445 54.098 50.9166 52.9917 48.7447C51.6524 46.5 53.0004 43.3265 55.545 42.6423ZM23.4028 44.756C25.0099 44.1592 26.7917 45.9031 26.1395 47.4724C25.7436 48.899 23.6968 49.4289 22.64 48.3749C21.4026 47.385 21.8597 45.1869 23.4028 44.756ZM66.984 47.0328C66.9538 46.3919 67.1779 45.765 67.6076 45.2884C68.0372 44.8119 68.6376 44.5243 69.2782 44.4882C70.3787 44.6628 71.4501 45.5363 71.3628 46.7154C71.4647 48.273 69.5577 49.3299 68.2068 48.5991C67.575 48.2818 67.2519 47.6442 66.984 47.0328ZM15.4982 45.5305C16.4648 45.1141 17.6614 45.9381 17.4401 46.9949C17.3877 48.1915 15.5914 48.6544 14.9334 47.6529C14.3511 46.9571 14.7005 45.8886 15.4982 45.5275V45.5305ZM76.4898 45.5043C77.1711 45.0297 78.2658 45.3703 78.5337 46.1535C78.9908 47.0095 78.1523 48.1799 77.174 48.0372C75.7998 48.1595 75.3573 46.1011 76.4898 45.5043ZM40.6297 51.2485C43.1743 50.5993 45.9111 52.6868 45.9285 55.2663C46.0916 57.872 43.3956 60.1808 40.7928 59.581C38.778 59.2608 37.1971 57.3509 37.2641 55.3507C37.2583 53.435 38.7256 51.6532 40.6297 51.2485ZM50.7091 51.2456C53.2915 50.5352 56.1098 52.6606 56.069 55.2983C56.2059 57.8546 53.5943 60.0876 51.0439 59.5781C48.642 59.2753 46.8718 56.6812 47.5415 54.387C47.8792 52.8614 49.1777 51.6212 50.7091 51.2427V51.2456ZM31.2724 52.8323C33.06 52.5325 34.737 54.4918 34.012 56.163C33.4821 57.9448 30.8502 58.4252 29.6856 56.9724C28.3231 55.5749 29.3421 53.0245 31.2724 52.8323ZM60.8351 52.9109C62.4305 52.253 64.387 53.6097 64.2647 55.3129C64.3288 57.1849 61.9123 58.4776 60.3547 57.3829C58.5874 56.4017 58.9106 53.5107 60.8351 52.9109ZM69.0977 61.063C68.4747 59.9188 69.6072 58.4019 70.9028 58.6144C71.5433 58.6028 71.9946 59.1006 72.4051 59.5199C72.4895 60.1983 72.6322 61.0076 72.0586 61.5288C71.2813 62.4983 69.5199 62.2217 69.0977 61.063ZM21.7345 58.9318C22.9428 58.1428 24.6809 59.3219 24.4072 60.7078C24.2616 61.9393 22.6895 62.6409 21.6559 61.9422C20.5437 61.3104 20.5845 59.5083 21.7345 58.9318ZM45.5879 61.5026C47.1688 60.8184 49.1835 62.1722 49.0321 63.8841C49.1486 65.7766 46.6593 67.0867 45.1133 65.9513C43.3956 64.9759 43.6838 62.1052 45.5879 61.5026ZM34.5419 64.0384C35.887 63.3426 37.6921 64.545 37.5698 66.0299C37.6106 67.2468 36.4052 68.2833 35.1824 68.1028C34.1722 68.0824 33.5142 67.1886 33.1881 66.3414C33.2056 65.4185 33.5928 64.3907 34.5419 64.0413V64.0384ZM56.9192 64.0617C58.305 63.2174 60.2732 64.4286 60.1421 66.0124C60.1771 67.6719 57.9527 68.7317 56.663 67.6428C55.4169 66.7897 55.5683 64.7401 56.9192 64.0617ZM60.8118 73.5239C60.1945 72.6097 60.9195 71.5063 61.9181 71.2966C62.7246 71.4568 63.5776 72.0536 63.4059 72.9678C63.2894 74.211 61.4436 74.5895 60.8118 73.5268V73.5239ZM29.9186 72.7291C30.1631 72.0012 30.757 71.2821 31.6276 71.4713C32.894 71.5587 33.2696 73.4395 32.1604 74.0188C31.1646 74.6797 30.0059 73.7743 29.9186 72.7291ZM44.8251 73.5647C45.0667 72.4874 46.4788 71.9663 47.4104 72.5369C48.0277 72.7989 48.2082 73.4744 48.3654 74.0509C48.2823 74.3503 48.2047 74.6512 48.1325 74.9534C47.7511 75.3959 47.259 75.8414 46.6244 75.8268C45.4452 75.9637 44.3796 74.6506 44.8222 73.5647H44.8251Z" fill="black"/>
</g>
<path d="M45.8674 17.8136C47.262 17.0945 48.9651 18.7569 48.2256 20.1282C47.7918 21.2462 46.1585 21.5432 45.3259 20.6901C44.4437 19.8749 44.7319 18.2561 45.8674 17.8107V17.8136ZM30.8589 19.4033C31.7062 19.0597 32.7805 19.8225 32.6931 20.7338C32.7805 21.7178 31.5577 22.4457 30.693 21.977C29.5488 21.5402 29.6798 19.7119 30.8589 19.4033ZM61.5979 22.0032C60.2732 21.8459 60.0635 19.7963 61.3358 19.3829C62.3257 18.9112 63.2341 19.7992 63.3797 20.7221C63.17 21.5082 62.5004 22.2303 61.5979 22.0032ZM34.2741 25.6861C35.6919 24.804 37.7125 26.117 37.4941 27.7387C37.4213 29.372 35.2144 30.3211 33.9684 29.2148C32.763 28.3472 32.9464 26.3558 34.2741 25.6861ZM55.906 26.6236C56.5378 25.0223 59.0998 24.9699 59.819 26.5304C60.5323 27.7445 59.6559 29.2497 58.3895 29.6631C56.7096 29.9718 55.117 28.1841 55.906 26.6236ZM44.0594 29.5729C44.0448 28.1929 45.32 27.168 46.6506 27.072C47.5356 27.2467 48.4964 27.6164 48.8749 28.4927C49.5824 29.7039 48.9535 31.3663 47.6812 31.9224C47.0989 32.2427 46.406 32.1233 45.7713 32.0855C44.8018 31.6196 43.9837 30.6967 44.0594 29.5729ZM21.7403 31.5818C23.0359 30.7957 24.7828 32.2223 24.2908 33.6081C24.0229 34.8047 22.3867 35.2909 21.4521 34.5281C20.4535 33.8119 20.6107 32.0913 21.7432 31.5789L21.7403 31.5818ZM69.6683 31.576C70.766 30.7375 72.5798 31.7011 72.4459 33.0637C72.5216 34.3069 70.9523 35.2473 69.8634 34.6068C68.6639 34.074 68.5387 32.2572 69.6683 31.5789V31.576ZM50.3364 34.0536C52.1473 33.4131 54.3018 34.1788 55.3325 35.7713C56.695 37.7133 55.973 40.6713 53.8564 41.7864C51.667 43.1052 48.4673 41.9902 47.655 39.5795C46.7379 37.425 48.0772 34.729 50.3335 34.0536H50.3364ZM39.701 34.2661C41.7099 33.3345 44.4146 34.1147 45.3841 36.1353C46.5254 38.1034 45.6432 40.843 43.6023 41.8591C41.5585 43.0033 38.6732 42.1357 37.6863 40.0249C36.577 37.9811 37.5611 35.2065 39.701 34.2661ZM29.0539 37.8443C29.2082 36.572 30.4281 35.7422 31.6596 35.6549C32.3019 35.7227 32.9021 36.0064 33.3622 36.4597C33.8223 36.9129 34.115 37.5088 34.1925 38.15C34.1052 39.4601 33.0775 40.7353 31.6683 40.7295C30.1165 40.8605 28.7569 39.3407 29.0539 37.8443ZM60.5032 35.9344C62.0957 35.0231 64.3055 36.3478 64.2356 38.1471C64.3433 40.054 61.8977 41.3962 60.3139 40.2782C58.666 39.3466 58.7941 36.7263 60.5032 35.9344ZM35.3775 42.651C37.235 42.1474 39.3662 43.0092 40.2774 44.692C41.2761 46.3864 40.8685 48.7389 39.3167 49.985C37.3223 51.8075 33.651 51.0738 32.5912 48.5875C31.3714 46.3078 32.8533 43.2508 35.3746 42.6481L35.3775 42.651ZM55.545 42.6423C57.353 42.1328 59.4783 42.817 60.4507 44.4387C61.7376 46.2933 61.1233 49.062 59.2105 50.2557C57.2016 51.6445 54.098 50.9166 52.9917 48.7447C51.6524 46.5 53.0004 43.3265 55.545 42.6423ZM23.4028 44.756C25.0099 44.1592 26.7917 45.9031 26.1395 47.4724C25.7436 48.899 23.6968 49.4289 22.64 48.3749C21.4026 47.385 21.8597 45.1869 23.4028 44.756ZM66.984 47.0328C66.9538 46.3919 67.1779 45.765 67.6076 45.2884C68.0372 44.8119 68.6376 44.5243 69.2782 44.4882C70.3787 44.6628 71.4501 45.5363 71.3628 46.7154C71.4647 48.273 69.5577 49.3299 68.2068 48.5991C67.575 48.2818 67.2519 47.6442 66.984 47.0328ZM15.4982 45.5305C16.4648 45.1141 17.6614 45.9381 17.4401 46.9949C17.3877 48.1915 15.5914 48.6544 14.9334 47.6529C14.3511 46.9571 14.7005 45.8886 15.4982 45.5275V45.5305ZM76.4898 45.5043C77.1711 45.0297 78.2658 45.3703 78.5337 46.1535C78.9908 47.0095 78.1523 48.1799 77.174 48.0372C75.7998 48.1595 75.3573 46.1011 76.4898 45.5043ZM40.6297 51.2485C43.1743 50.5993 45.9111 52.6868 45.9285 55.2663C46.0916 57.872 43.3956 60.1808 40.7928 59.581C38.778 59.2608 37.1971 57.3509 37.2641 55.3507C37.2583 53.435 38.7256 51.6532 40.6297 51.2485ZM50.7091 51.2456C53.2915 50.5352 56.1098 52.6606 56.069 55.2983C56.2059 57.8546 53.5943 60.0876 51.0439 59.5781C48.642 59.2753 46.8718 56.6812 47.5415 54.387C47.8792 52.8614 49.1777 51.6212 50.7091 51.2427V51.2456ZM31.2724 52.8323C33.06 52.5325 34.737 54.4918 34.012 56.163C33.4821 57.9448 30.8502 58.4252 29.6856 56.9724C28.3231 55.5749 29.3421 53.0245 31.2724 52.8323ZM60.8351 52.9109C62.4305 52.253 64.387 53.6097 64.2647 55.3129C64.3288 57.1849 61.9123 58.4776 60.3547 57.3829C58.5874 56.4017 58.9106 53.5107 60.8351 52.9109ZM69.0977 61.063C68.4747 59.9188 69.6072 58.4019 70.9028 58.6144C71.5433 58.6028 71.9946 59.1006 72.4051 59.5199C72.4895 60.1983 72.6322 61.0076 72.0586 61.5288C71.2813 62.4983 69.5199 62.2217 69.0977 61.063ZM21.7345 58.9318C22.9428 58.1428 24.6809 59.3219 24.4072 60.7078C24.2616 61.9393 22.6895 62.6409 21.6559 61.9422C20.5437 61.3104 20.5845 59.5083 21.7345 58.9318ZM45.5879 61.5026C47.1688 60.8184 49.1835 62.1722 49.0321 63.8841C49.1486 65.7766 46.6593 67.0867 45.1133 65.9513C43.3956 64.9759 43.6838 62.1052 45.5879 61.5026ZM34.5419 64.0384C35.887 63.3426 37.6921 64.545 37.5698 66.0299C37.6106 67.2468 36.4052 68.2833 35.1824 68.1028C34.1722 68.0824 33.5142 67.1886 33.1881 66.3414C33.2056 65.4185 33.5928 64.3907 34.5419 64.0413V64.0384ZM56.9192 64.0617C58.305 63.2174 60.2732 64.4286 60.1421 66.0124C60.1771 67.6719 57.9527 68.7317 56.663 67.6428C55.4169 66.7897 55.5683 64.7401 56.9192 64.0617ZM60.8118 73.5239C60.1945 72.6097 60.9195 71.5063 61.9181 71.2966C62.7246 71.4568 63.5776 72.0536 63.4059 72.9678C63.2894 74.211 61.4436 74.5895 60.8118 73.5268V73.5239ZM29.9186 72.7291C30.1631 72.0012 30.757 71.2821 31.6276 71.4713C32.894 71.5587 33.2696 73.4395 32.1604 74.0188C31.1646 74.6797 30.0059 73.7743 29.9186 72.7291ZM44.8251 73.5647C45.0667 72.4874 46.4788 71.9663 47.4104 72.5369C48.0277 72.7989 48.2082 73.4744 48.3654 74.0509C48.2823 74.3503 48.2047 74.6512 48.1325 74.9534C47.7511 75.3959 47.259 75.8414 46.6244 75.8268C45.4452 75.9637 44.3796 74.6506 44.8222 73.5647H44.8251Z" fill="white"/>
</g>
<defs>
<filter id="filter0_d_342_4714" x="14.2201" y="17.4284" width="64.865" height="59.0437" filterUnits="userSpaceOnUse" color-interpolation-filters="sRGB">
<feFlood flood-opacity="0" result="BackgroundImageFix"/>
<feColorMatrix in="SourceAlpha" type="matrix" values="0 0 0 0 0 0 0 0 0 0 0 0 0 0 0 0 0 0 127 0" result="hardAlpha"/>
<feOffset dy="0.211741"/>
<feGaussianBlur stdDeviation="0.211741"/>
<feColorMatrix type="matrix" values="0 0 0 0 0 0 0 0 0 0 0 0 0 0 0 0 0 0 0.204257 0"/>
<feBlend mode="normal" in2="BackgroundImageFix" result="effect1_dropShadow_342_4714"/>
<feBlend mode="normal" in="SourceGraphic" in2="effect1_dropShadow_342_4714" result="shape"/>
</filter>
<clipPath id="clip0_342_4714">
<rect width="93.1659" height="93.1659" fill="white" transform="translate(0.0854492 0.17041)"/>
</clipPath>
</defs>
</svg>
