<svg width="94" height="94" viewBox="0 0 94 94" fill="none" xmlns="http://www.w3.org/2000/svg">
<g clip-path="url(#clip0_342_4719)">
<path d="M47.1825 93.3363C72.9096 93.3363 93.7655 72.4804 93.7655 46.7533C93.7655 21.0263 72.9096 0.17041 47.1825 0.17041C21.4555 0.17041 0.599609 21.0263 0.599609 46.7533C0.599609 72.4804 21.4555 93.3363 47.1825 93.3363Z" fill="#FEC807"/>
<path fill-rule="evenodd" clip-rule="evenodd" d="M73.339 51.5021H58.9914L56.4294 43.8159H73.3157C73.8933 43.8159 74.4472 43.5865 74.8556 43.1781C75.264 42.7697 75.4934 42.2158 75.4934 41.6382C75.4934 41.0606 75.264 40.5067 74.8556 40.0983C74.4472 39.6899 73.8933 39.4604 73.3157 39.4604H55.0435L47.7155 17.121C47.6225 16.383 47.2695 15.7022 46.7198 15.201C46.1701 14.6998 45.4597 14.411 44.7163 14.3865C43.9728 14.3619 43.2449 14.6032 42.6633 15.0671C42.0818 15.5309 41.6846 16.1869 41.5432 16.9172L24.0164 70.2052C23.9698 70.4963 23.9698 70.7875 24.0164 71.0786C24.0285 71.7886 24.2967 72.4704 24.7715 72.9984C25.2464 73.5264 25.8959 73.8652 26.6007 73.9523C27.3054 74.0395 28.0179 73.8692 28.6071 73.4728C29.1963 73.0764 29.6225 72.4805 29.8072 71.7948L44.5129 26.9587L48.7141 39.4604H45.0748C44.4972 39.4604 43.9433 39.6899 43.5349 40.0983C43.1265 40.5067 42.897 41.0606 42.897 41.6382C42.897 42.2158 43.1265 42.7697 43.5349 43.1781C43.9433 43.5865 44.4972 43.8159 45.0748 43.8159H50.1989L52.761 51.5021H45.0748C44.7888 51.5021 44.5056 51.5585 44.2414 51.6679C43.9772 51.7773 43.7371 51.9378 43.5349 52.14C43.3327 52.3422 43.1722 52.5823 43.0628 52.8465C42.9534 53.1107 42.897 53.3939 42.897 53.6799C42.897 53.9659 42.9534 54.2491 43.0628 54.5133C43.1722 54.7775 43.3327 55.0176 43.5349 55.2198C43.7371 55.422 43.9772 55.5824 44.2414 55.6919C44.5056 55.8013 44.7888 55.8576 45.0748 55.8576H54.2749L58.4237 68.1555H36.4162C35.6008 68.1555 34.8188 68.4794 34.2422 69.056C33.6656 69.6326 33.3417 70.4146 33.3417 71.23C33.3417 72.0454 33.6656 72.8274 34.2422 73.404C34.8188 73.9806 35.6008 74.3045 36.4162 74.3045H62.4473C64.0602 74.3045 65.3675 72.9972 65.3675 71.3843C65.369 70.9417 65.2726 70.5042 65.0851 70.1033L60.3977 55.8576H73.208C73.4939 55.8576 73.7771 55.8013 74.0413 55.6919C74.3056 55.5824 74.5456 55.422 74.7479 55.2198C74.9501 55.0176 75.1105 54.7775 75.2199 54.5133C75.3294 54.2491 75.3857 53.9659 75.3857 53.6799C75.3857 53.3939 75.3294 53.1107 75.2199 52.8465C75.1105 52.5823 74.9501 52.3422 74.7479 52.14C74.5456 51.9378 74.3056 51.7773 74.0413 51.6679C73.7771 51.5585 73.4939 51.5021 73.208 51.5021H73.3361H73.339Z" fill="white"/>
</g>
<defs>
<clipPath id="clip0_342_4719">
<rect width="93.1659" height="93.1659" fill="white" transform="translate(0.599609 0.17041)"/>
</clipPath>
</defs>
</svg>
