<svg width="94" height="94" viewBox="0 0 94 94" fill="none" xmlns="http://www.w3.org/2000/svg">
<g clip-path="url(#clip0_342_4723)">
<path d="M46.6962 93.3363C72.4233 93.3363 93.2792 72.4804 93.2792 46.7533C93.2792 21.0263 72.4233 0.17041 46.6962 0.17041C20.9692 0.17041 0.113281 21.0263 0.113281 46.7533C0.113281 72.4804 20.9692 93.3363 46.6962 93.3363Z" fill="#1B75BC"/>
<path fill-rule="evenodd" clip-rule="evenodd" d="M33.8483 25.2148L46.6964 38.6249L59.2302 25.2148L67.0765 33.2446L54.2778 46.7536L67.0765 60.1549L59.2302 68.2866L46.6964 54.8823L33.8483 68.2866L26.3164 60.3791L39.0103 46.6779L26.3164 33.2446L33.8483 25.2177V25.2148ZM34.8818 24.1201L46.644 11.8164L58.4062 24.1201L52.2165 30.7145L46.644 24.5597L41.0716 30.7145L34.8818 24.1201ZM34.8818 69.3871L41.0716 62.7927L46.644 68.9475L52.2165 62.7927L58.4062 69.3871L46.644 81.6908L34.8818 69.3871Z" fill="white"/>
</g>
<defs>
<clipPath id="clip0_342_4723">
<rect width="93.1659" height="93.1659" fill="white" transform="translate(0.113281 0.17041)"/>
</clipPath>
</defs>
</svg>
