<svg width="94" height="94" viewBox="0 0 94 94" fill="none" xmlns="http://www.w3.org/2000/svg">
<g clip-path="url(#clip0_342_4727)">
<path d="M47.2094 93.3363C72.9364 93.3363 93.7923 72.4804 93.7923 46.7533C93.7923 21.0263 72.9364 0.17041 47.2094 0.17041C21.4824 0.17041 0.626465 21.0263 0.626465 46.7533C0.626465 72.4804 21.4824 93.3363 47.2094 93.3363Z" fill="#DE3F6B"/>
<path d="M29.0187 32.1963H31.6507C35.7645 32.5864 39.5698 34.5866 42.3851 37.466C48.2342 43.4024 51.4484 51.7786 58.8929 56.1952C64.2733 59.3891 71.7993 56.7775 74.4429 51.3797C75.788 51.3564 77.1418 51.3564 78.4869 51.3623C76.6352 56.8445 71.2403 60.7837 65.3418 61.3106H63.1698C59.5393 61.0195 56.0077 59.6686 53.2622 57.3336C49.2736 54.0641 46.7115 49.5775 43.6108 45.5831C40.944 42.0515 38.2247 38.0803 33.8109 36.4761C28.3578 34.4992 21.6994 37.5912 19.7109 42.8434C17.964 47.1698 19.3848 52.5327 23.2919 55.3043C26.2208 57.4937 30.2998 58.3118 33.8168 57.0366C37.7239 55.6741 40.6237 52.5763 42.848 49.2922C43.7244 50.5063 44.5774 51.7378 45.4217 52.9781C41.963 57.1909 37.1649 60.8099 31.4585 61.3106H29.1206C21.9294 60.8273 15.6785 54.9171 15.1836 47.9355V45.65C15.6494 38.683 21.8217 32.7029 29.0187 32.1963ZM63.0243 32.1963H65.2078C72.466 32.6534 78.6383 38.683 79.2351 45.6646V49.2456C73.2463 49.2981 67.2517 49.2631 61.2629 49.2689C61.2687 48.2208 61.2687 47.1814 61.2629 46.1333C65.9968 46.1217 70.725 46.1537 75.4503 46.1217C75.1155 44.27 74.6816 42.3747 73.5462 40.8054C70.7803 36.7177 64.9313 35.0466 60.2555 36.8167C56.5289 38.156 53.7222 41.0849 51.559 44.2118C50.7264 43.0559 49.8995 41.8826 49.0989 40.7006C52.514 36.4266 57.28 32.7291 63.0243 32.1963Z" fill="white"/>
</g>
<defs>
<clipPath id="clip0_342_4727">
<rect width="93.1659" height="93.1659" fill="white" transform="translate(0.627441 0.17041)"/>
</clipPath>
</defs>
</svg>
