<svg width="94" height="94" viewBox="0 0 94 94" fill="none" xmlns="http://www.w3.org/2000/svg">
<g clip-path="url(#clip0_342_4731)">
<path d="M46.7245 93.3363C72.4516 93.3363 93.3075 72.4804 93.3075 46.7533C93.3075 21.0263 72.4516 0.17041 46.7245 0.17041C20.9975 0.17041 0.141602 21.0263 0.141602 46.7533C0.141602 72.4804 20.9975 93.3363 46.7245 93.3363Z" fill="#134451"/>
<path d="M40.8987 47.6907C39.4517 47.6907 38.357 47.9352 37.6001 48.3982C36.8722 48.8494 36.5054 49.5336 36.5054 50.4303C36.5054 51.1 36.7325 51.6415 37.1604 52.0258C37.6001 52.413 38.2173 52.6052 38.9859 52.6052C40.1796 52.6052 41.1753 52.2325 41.9672 51.4988C42.762 50.7535 43.3007 49.7112 43.5685 48.3749L43.6908 47.6907H40.8958H40.8987ZM56.2245 41.3758C55.7849 40.9915 55.1677 40.7993 54.402 40.7993C53.2054 40.7993 52.2096 41.172 51.4177 41.9057C50.6258 42.651 50.0843 43.6933 49.8194 45.0296L49.6942 45.7109L52.4891 45.6993C53.9361 45.6993 55.0308 45.4547 55.7849 44.9918C56.5127 44.5405 56.8796 43.8592 56.8796 42.9596C56.8796 42.29 56.6671 41.763 56.2245 41.3758Z" fill="white"/>
<path d="M78.6479 42.9974C77.693 34.368 62.6059 29.0284 44.9627 31.0751C27.3194 33.1189 13.7929 41.7746 14.7478 50.407C15.7057 59.0365 30.7811 64.3732 48.4331 62.3294C66.0909 60.2826 79.6058 51.6269 78.6479 42.9974ZM60.1895 47.318C58.4018 48.5932 55.7961 49.2221 52.3752 49.2366L49.0532 49.2483L48.9513 49.7229C48.9211 49.827 48.9045 49.9347 48.9018 50.0431C48.8873 50.1101 48.8873 50.1741 48.8873 50.2265C48.8873 50.9602 49.2279 51.4988 49.8946 51.8569C50.5643 52.2325 51.5541 52.4101 52.8526 52.4101C54.0842 52.4101 55.2691 52.2704 56.3871 52.0142C57.4935 51.755 58.5649 51.3707 59.5839 50.8554L58.7396 55.3827C57.4702 55.6913 56.2503 55.9359 55.042 56.0902C53.879 56.2569 52.7058 56.3435 51.5308 56.3493C49.9208 56.3493 48.5874 56.1542 47.516 55.7437C46.4096 55.3186 45.1752 54.3928 44.5609 53.0681C43.4216 54.1544 42.1013 55.0333 40.6596 55.6651C39.3224 56.2361 37.8832 56.5293 36.4292 56.5269C34.595 56.5414 33.1451 56.0902 32.1145 55.2022C31.0693 54.3171 30.554 53.0797 30.5423 51.525C30.5278 49.1318 31.4216 47.318 33.1976 46.0574C34.9823 44.7851 37.588 44.1562 41.0118 44.1416L44.3309 44.13L44.4328 43.6525C44.4639 43.5485 44.4816 43.4408 44.4852 43.3323C44.4968 43.2682 44.4968 43.2042 44.4968 43.1517C44.4968 42.4181 44.1562 41.8795 43.4895 41.5184C42.8228 41.1458 41.83 40.9653 40.5315 40.9653C39.2999 40.9653 38.115 41.1079 36.997 41.3641C35.8906 41.6203 34.8192 42.0046 33.8002 42.5229L34.6445 37.9956C35.9139 37.687 37.1338 37.4424 38.3421 37.2881C39.5051 37.1214 40.6783 37.0348 41.8532 37.029C43.4662 37.029 44.7996 37.2241 45.871 37.6346C46.9774 38.0597 48.2089 38.9855 48.8261 40.3102C49.9651 39.2228 51.2854 38.343 52.7274 37.7103C54.0637 37.1397 55.5019 36.8465 56.9548 36.8485C58.792 36.8368 60.2389 37.2852 61.2696 38.1732C62.3177 39.0612 62.8301 40.2985 62.8418 41.8533C62.8563 44.2319 61.9771 46.0574 60.1895 47.318Z" fill="white"/>
<path d="M48.2471 63.3575C45.6938 63.6544 43.1638 63.7942 40.7094 63.7942C34.8691 63.7942 29.4102 62.9731 24.8654 61.3631C22.9862 60.7166 21.1884 59.8539 19.5084 58.7923C18.8882 62.0473 19.3046 64.9151 20.903 67.0492C25.4943 73.1835 38.3424 71.23 51.0538 62.9731C50.1221 63.1129 49.1905 63.241 48.2471 63.3575ZM45.2658 30.1758C53.8837 29.1714 62.19 29.8789 68.6446 32.1673C70.526 32.8143 72.3258 33.678 74.0075 34.741C74.6218 31.486 74.2084 28.6182 72.61 26.4842C68.0158 20.3498 55.1705 22.3033 42.4592 30.5602C43.3909 30.4059 44.3342 30.2777 45.2658 30.1758Z" fill="white"/>
<path d="M35.8912 70.8165C34.2104 71.219 32.4941 71.456 30.7671 71.524C32.0656 74.9595 34.0919 77.3643 36.7705 78.264C43.2397 80.4388 51.6071 73.3145 57.5348 61.5174C56.1373 61.9046 54.6903 62.2511 53.2317 62.5481C47.4409 66.6386 41.4026 69.5326 35.8912 70.8165ZM58.0123 22.6236C59.6938 22.229 61.4102 22.0008 63.1364 21.9423C61.8495 18.5068 59.8378 16.0903 57.1563 15.179C50.7017 12.978 42.2964 20.0644 36.3308 31.8208C37.7283 31.4365 39.1753 31.1017 40.6456 30.8193C46.4364 26.7433 52.4893 23.8842 58.0123 22.6236Z" fill="white"/>
</g>
<defs>
<clipPath id="clip0_342_4731">
<rect width="93.1659" height="93.1659" fill="white" transform="translate(0.141602 0.17041)"/>
</clipPath>
</defs>
</svg>
