<svg width="94" height="94" viewBox="0 0 94 94" fill="none" xmlns="http://www.w3.org/2000/svg">
<g clip-path="url(#clip0_342_4739)">
<path d="M47.2392 93.3363C72.9662 93.3363 93.8221 72.4804 93.8221 46.7533C93.8221 21.0263 72.9662 0.17041 47.2392 0.17041C21.5121 0.17041 0.65625 21.0263 0.65625 46.7533C0.65625 72.4804 21.5121 93.3363 47.2392 93.3363Z" fill="#15073A"/>
<path d="M50.569 18.8736C50.4071 18.7568 50.2937 18.5847 50.2502 18.3899C50.2068 18.1952 50.2363 17.9912 50.3331 17.8167C50.4687 17.7298 50.6263 17.6836 50.7873 17.6836C50.9483 17.6836 51.106 17.7298 51.2415 17.8167C53.2933 18.6685 55.1506 19.9284 56.7004 21.52C57.5826 22.3382 58.3221 23.2931 58.884 24.3441C59.4779 25.4155 59.9642 26.5364 60.3397 27.6981C60.6978 28.9005 60.8842 30.1495 60.8871 31.4015C60.7037 32.6388 60.5231 38.6364 57.0644 41.4605C56.6241 41.7252 56.1015 41.8175 55.5972 41.7196C55.0929 41.6218 54.6427 41.3407 54.3334 40.9306C54.0863 40.6407 53.936 40.2808 53.9036 39.9012C53.8712 39.5217 53.9584 39.1415 54.1529 38.814C55.6234 36.5375 56.4357 33.8987 56.4999 31.1893C56.5642 28.4799 55.8778 25.8056 54.5169 23.462C53.3523 21.8141 52.0305 20.2798 50.569 18.8736ZM45.2003 72.9738C45.5642 73.3261 45.5642 73.6784 45.3837 73.856C45.2032 74.0336 44.8363 74.2083 44.6558 74.0307C42.604 73.1789 40.7468 71.9189 39.1969 70.3273C38.3174 69.5136 37.5795 68.5592 37.0133 67.5032C36.4205 66.4361 35.933 65.3138 35.5576 64.1522C35.1978 62.9495 35.0135 61.7012 35.0103 60.4459C35.1937 59.2115 35.3742 53.211 38.833 50.3869C39.2729 50.123 39.7949 50.0312 40.2985 50.129C40.8021 50.2268 41.2518 50.5074 41.561 50.9168C41.8259 51.2061 41.9729 51.5842 41.9729 51.9766C41.9729 52.3689 41.8259 52.747 41.561 53.0363C40.091 55.3125 39.2791 57.9508 39.2149 60.6595C39.1506 63.3683 39.8366 66.0421 41.1971 68.3854C42.3762 70.0362 43.7184 71.5734 45.2003 72.9738Z" fill="white"/>
<path d="M60.9047 58.4168C60.6411 55.0295 59.3016 51.8151 57.0819 49.2429C54.8348 46.9844 52.258 45.08 49.4394 43.5947C46.9809 42.2358 44.6645 40.6343 42.5248 38.8141C40.7651 37.1602 39.5583 35.0039 39.0689 32.639C38.6344 30.1973 38.9448 27.6814 39.9598 25.4186C41.1759 22.9012 42.9195 20.675 45.0723 18.8912C45.1933 18.7832 45.2765 18.6392 45.3095 18.4804C45.3426 18.3216 45.3237 18.1563 45.2557 18.009C45.2038 17.9162 45.1315 17.8363 45.0443 17.7754C44.957 17.7145 44.8572 17.6741 44.7521 17.6573C44.6471 17.6405 44.5396 17.6477 44.4377 17.6783C44.3358 17.709 44.2422 17.7623 44.1639 17.8344C41.2641 19.0993 38.797 21.1839 37.0658 23.8319C35.1297 26.6138 34.2228 29.9831 34.5009 33.361C34.6461 35.0677 35.0772 36.7379 35.7761 38.3017C36.5324 39.8496 37.5134 41.2771 38.6875 42.5379C41.0012 44.7486 43.6394 46.5925 46.5105 48.0055C48.9794 49.2866 51.2998 50.8267 53.4252 52.594C55.2948 54.2345 56.5207 56.486 56.884 58.9467C57.3964 61.5059 57.0761 64.1582 55.9727 66.5339C54.7342 69.0351 52.9263 71.2109 50.6943 72.8866C50.6204 72.9291 50.5565 72.9866 50.5065 73.0555C50.4565 73.1245 50.4217 73.2032 50.4044 73.2865C50.3871 73.3699 50.3876 73.456 50.406 73.5391C50.4243 73.6222 50.46 73.7005 50.5108 73.7688C50.6127 73.9551 50.802 74.0891 51.0145 74.1211C51.2271 74.1531 51.4483 74.092 51.6055 73.9464C54.3108 72.3845 56.6647 70.2813 58.5202 67.7683C60.3253 64.9792 61.158 61.7009 60.9047 58.4168Z" fill="white"/>
</g>
<defs>
<clipPath id="clip0_342_4739">
<rect width="93.1659" height="93.1659" fill="white" transform="translate(0.655273 0.17041)"/>
</clipPath>
</defs>
</svg>
