<svg width="94" height="94" viewBox="0 0 94 94" fill="none" xmlns="http://www.w3.org/2000/svg">
<g clip-path="url(#clip0_342_4745)">
<path d="M46.7519 93.3363C72.4789 93.3363 93.3348 72.4804 93.3348 46.7533C93.3348 21.0263 72.4789 0.17041 46.7519 0.17041C21.0248 0.17041 0.168945 21.0263 0.168945 46.7533C0.168945 72.4804 21.0248 93.3363 46.7519 93.3363Z" fill="#F49E00"/>
<path d="M57.6846 50.6372C64.2237 40.3919 69.3158 23.4619 69.3158 23.4619L58.4124 25.9337L54.4209 40.0542C54.0453 29.4682 46.7871 25.5931 46.7871 25.5931C40.973 22.7603 35.7906 24.0064 32.0552 25.9541C27.4319 28.3589 24.0692 32.5514 22.4591 37.3786C20.1708 44.2466 20.4503 51.9532 20.753 55.4411C20.8753 57.0773 21.2363 58.6873 21.8303 60.2246C25.8422 70.6271 36.9552 70.0361 36.9552 70.0361C47.1365 69.6751 53.3233 57.6858 53.3233 57.6858L56.2405 66.5016C58.855 70.9241 64.6458 69.2675 65.8366 69.02C66.0462 68.9734 66.2326 68.9501 66.4451 68.9036L72.9551 67.9108V65.0779C58.7822 65.4622 57.6846 50.6401 57.6846 50.6401V50.6372ZM43.8873 61.2931C43.0106 62.1916 41.9053 62.8339 40.6905 63.1506C38.0499 63.8086 36.0206 62.6993 34.6202 61.3397C33.0557 59.7597 31.9844 57.7589 31.537 55.5808C28.9691 41.0528 32.5181 34.6855 34.8764 31.7595C35.5188 30.9393 36.3468 30.2834 37.2924 29.8461C38.238 29.4087 39.274 29.2024 40.315 29.244C49.4685 29.7215 51.524 48.8729 51.524 48.8729C48.9328 55.6711 45.5934 59.6161 43.8873 61.2931Z" fill="white"/>
</g>
<defs>
<clipPath id="clip0_342_4745">
<rect width="93.1659" height="93.1659" fill="white" transform="translate(0.169922 0.17041)"/>
</clipPath>
</defs>
</svg>
