<svg width="94" height="94" viewBox="0 0 94 94" fill="none" xmlns="http://www.w3.org/2000/svg">
<g clip-path="url(#clip0_342_4749)">
<path d="M47.2665 93.3363C72.9936 93.3363 93.8495 72.4804 93.8495 46.7533C93.8495 21.0263 72.9936 0.17041 47.2665 0.17041C21.5395 0.17041 0.683594 21.0263 0.683594 46.7533C0.683594 72.4804 21.5395 93.3363 47.2665 93.3363Z" fill="#00BFEC"/>
<path d="M47.183 67.5703C35.6624 67.5703 26.2905 58.2566 26.2905 46.8118C26.2905 35.364 35.6653 26.0533 47.183 26.0533C58.7035 26.0533 68.0754 35.364 68.0754 46.8118C68.0754 58.2566 58.7035 67.5703 47.183 67.5703ZM47.183 30.1176C37.9217 30.1176 30.384 37.6058 30.384 46.8118C30.384 56.0148 37.9217 63.503 47.183 63.503C56.4472 63.503 63.9819 56.0148 63.9819 46.8118C63.9819 37.6058 56.4472 30.1176 47.183 30.1176ZM61.8129 23.0865C57.4054 20.4028 52.3432 18.9864 47.183 18.993C42.433 18.9911 37.7597 20.1909 33.5982 22.4809L31.6068 18.929C36.3775 16.3003 41.736 14.9221 47.183 14.9229C53.1223 14.9229 58.9219 16.5474 63.9557 19.6219L61.8129 23.0865ZM67.9124 71.1543L65.2659 68.0478C68.3692 65.4472 70.8651 62.1981 72.5778 58.5292C74.2905 54.8604 75.1785 50.8607 75.1793 46.8118H79.2728C79.2728 56.2041 75.1327 65.0752 67.9124 71.1514V71.1543ZM47.183 78.6949C39.7384 78.6949 32.4831 76.1037 26.7564 71.4017L29.365 68.269C34.3923 72.3821 40.6875 74.6296 47.183 74.6305C51.7248 74.6305 56.057 73.5824 60.0573 71.5211L61.941 75.1313C57.3744 77.4745 52.3157 78.697 47.183 78.6978V78.6949Z" fill="white"/>
<path opacity="0.5" d="M74.4892 39.2563C73.4188 35.4171 71.5364 31.8527 68.9691 28.8042L71.5894 26.6323C74.4674 30.0501 76.5773 34.0465 77.7762 38.3508L74.4921 39.2563H74.4892ZM20.6568 64.1519C17.2447 59.0131 15.4285 52.9799 15.4366 46.8114C15.4366 38.1878 18.872 30.1347 25.1112 24.1343L27.4812 26.5711C24.7422 29.1812 22.5639 32.3221 21.0792 35.8021C19.5946 39.282 18.8346 43.028 18.8458 46.8114C18.8458 52.3402 20.4588 57.6915 23.5041 62.2886L20.6568 64.1519Z" fill="white"/>
</g>
<defs>
<clipPath id="clip0_342_4749">
<rect width="93.1659" height="93.1659" fill="white" transform="translate(0.683594 0.17041)"/>
</clipPath>
</defs>
</svg>
