<svg width="94" height="94" viewBox="0 0 94 94" fill="none" xmlns="http://www.w3.org/2000/svg">
<g clip-path="url(#clip0_342_4755)">
<path d="M46.7812 93.3363C72.5082 93.3363 93.3641 72.4804 93.3641 46.7533C93.3641 21.0263 72.5082 0.17041 46.7812 0.17041C21.0541 0.17041 0.198242 21.0263 0.198242 46.7533C0.198242 72.4804 21.0541 93.3363 46.7812 93.3363Z" fill="#005B9A"/>
<path d="M43.7725 14.1455L31.4904 35.333C31.2397 35.1668 30.9055 35.1668 30.5713 35.1668H30.4042C30.07 35.1668 29.6522 35.2499 29.318 35.4161C28.9838 35.5822 28.6496 35.8315 28.399 36.0808L16.6182 29.5999L43.7725 14.1455ZM49.8718 14.1455L76.9425 29.5999L65.0782 36.0808C64.8275 35.7484 64.5769 35.4991 64.1591 35.333C63.8249 35.1668 63.4071 35.0837 63.0729 35.0837H62.9058C62.7387 35.0837 62.4881 35.0837 62.321 35.1668L49.8718 14.1455ZM45.1093 14.9764V45.2205L33.245 38.7396C33.4121 37.9087 33.1614 37.0778 32.7437 36.4131L45.1093 14.9764ZM48.4514 14.8933L60.9841 35.9977C60.6499 36.33 60.3993 36.7455 60.3157 37.244C60.2322 37.7425 60.2322 38.2411 60.3157 38.6565L48.4514 45.1374V14.8933ZM48.4514 46.9653L61.1512 39.9859C61.4854 40.2352 61.8196 40.4013 62.2374 40.5675V53.28C61.8196 53.4462 61.4854 53.6124 61.1512 53.9447L48.4514 46.9653ZM45.1093 46.9653L32.2423 54.0278C31.9917 53.7785 31.6575 53.5293 31.2397 53.4462V40.7337C31.6575 40.6506 32.0752 40.4013 32.4094 40.1521L45.1093 46.9653ZM29.6522 53.3631V41.5646L17.955 61.755L27.647 56.5204C27.5634 55.8557 27.7306 55.191 28.1483 54.6094C28.4825 54.0278 29.0674 53.6124 29.6522 53.3631ZM65.8301 56.5204L75.6057 61.8381L63.9084 40.983V53.3631C64.5769 53.6124 65.0782 54.0278 65.4124 54.6094C65.7466 55.191 65.9137 55.8557 65.8301 56.5204ZM77.6945 31.0124V62.2535L65.1617 39.9028C65.4959 39.5705 65.663 39.2381 65.8301 38.7396C65.9137 38.3241 65.9972 37.9087 65.8301 37.4102L77.6945 31.0124ZM15.8662 31.0124L27.647 37.4933C27.5634 37.9087 27.5634 38.3241 27.647 38.7396C27.8141 39.3212 28.1483 39.8197 28.6496 40.1521L15.8662 62.2535V31.0124ZM45.1093 48.7932V77.791L32.6601 58.016C32.9943 57.6837 33.1614 57.1851 33.245 56.7697C33.3285 56.2712 33.245 55.8557 33.0779 55.4403L45.1093 48.7932ZM48.4514 48.7932L60.3157 55.2741C60.1486 55.7726 60.1486 56.1881 60.2322 56.6866C60.3157 57.1851 60.5664 57.6006 60.9006 57.9329L48.4514 78.6219V48.7932ZM76.5247 64.1645L49.8718 79.3697L62.321 58.7638C62.8223 58.93 63.24 58.93 63.7413 58.8469C64.2426 58.7638 64.6604 58.5145 64.9946 58.1822C65.0782 58.0991 65.0782 58.0991 65.1617 58.016L76.5247 64.1645ZM17.0359 64.1645L28.3154 58.016C28.7332 58.4315 29.1509 58.6807 29.7358 58.8469C30.2371 59.0131 30.822 59.0131 31.3233 58.8469L44.4409 79.7851L17.0359 64.1645Z" fill="white"/>
</g>
<defs>
<clipPath id="clip0_342_4755">
<rect width="93.1659" height="93.1659" fill="white" transform="translate(0.197266 0.17041)"/>
</clipPath>
</defs>
</svg>
