<svg width="94" height="94" viewBox="0 0 94 94" fill="none" xmlns="http://www.w3.org/2000/svg">
<g clip-path="url(#clip0_342_4759)">
<path d="M47.2944 93.3363C73.0214 93.3363 93.8773 72.4804 93.8773 46.7533C93.8773 21.0263 73.0214 0.17041 47.2944 0.17041C21.5673 0.17041 0.711426 21.0263 0.711426 46.7533C0.711426 72.4804 21.5673 93.3363 47.2944 93.3363Z" fill="black"/>
<path d="M30.5538 66.8892L37.2588 55.2842L43.958 43.72L50.6194 32.115L51.7257 30.275L52.212 32.115L54.2558 39.7546L51.9674 43.72L45.2682 55.2842L38.6068 66.8892H46.6133L53.3154 55.2842L56.7887 49.2779L58.425 55.2842L61.5285 66.8892H68.7198L65.6162 55.2842L62.5097 43.72L61.6945 40.7357L66.6789 32.115H59.4061L59.1586 31.2561L56.6257 21.7765L56.2996 20.5508H49.3122L49.1491 20.7953L42.6101 32.115L35.9079 43.72L29.2495 55.2842L22.5474 66.8892H30.5538Z" fill="white"/>
</g>
<defs>
<clipPath id="clip0_342_4759">
<rect width="93.1659" height="93.1659" fill="white" transform="translate(0.711426 0.17041)"/>
</clipPath>
</defs>
</svg>
