<svg width="94" height="94" viewBox="0 0 94 94" fill="none" xmlns="http://www.w3.org/2000/svg">
<g clip-path="url(#clip0_342_4763)">
<path d="M46.8085 93.3363C72.5356 93.3363 93.3915 72.4804 93.3915 46.7533C93.3915 21.0263 72.5356 0.17041 46.8085 0.17041C21.0815 0.17041 0.225586 21.0263 0.225586 46.7533C0.225586 72.4804 21.0815 93.3363 46.8085 93.3363Z" fill="#3C5BE0"/>
<path d="M78.8343 46.7971V46.8204C78.8247 47.0528 78.762 47.2799 78.6508 47.4842C78.2432 48.2266 68.487 65.6777 46.8114 65.6777C25.1358 65.6777 15.3737 48.2266 14.969 47.4842C14.8569 47.2801 14.7932 47.053 14.7827 46.8204V46.6894L14.7856 46.6224C14.8026 46.4307 14.8559 46.2439 14.9428 46.0721L14.9487 46.0605L14.9661 46.0256C15.3737 45.2802 25.1329 27.8291 46.8085 27.8291C68.4841 27.8291 78.2432 45.2831 78.6479 46.0256L78.6654 46.0605L78.6741 46.0751C78.7597 46.2461 78.812 46.4318 78.8284 46.6224V46.7563L78.8343 46.7971ZM75.6026 46.7534C73.9634 44.2088 67.8028 35.7104 56.6346 32.2923C60.2303 34.8115 62.7596 38.579 63.7297 42.8608C64.4954 43.0355 65.0457 43.7226 65.0603 44.5203C65.0748 45.3181 64.5508 46.0227 63.788 46.2265C63.0252 46.4303 62.2303 46.0809 61.8519 45.3821C61.6687 45.0418 61.6034 44.6505 61.6661 44.2692C61.7288 43.8879 61.9159 43.538 62.1983 43.2743C60.7601 36.8021 55.438 31.8032 48.8814 30.9327C48.832 30.9267 48.7832 30.916 48.7359 30.9007C47.4509 30.8317 46.1632 30.8317 44.8782 30.9007C44.8308 30.916 44.7821 30.9267 44.7326 30.9327C42.1777 31.2766 39.7473 32.2467 37.6578 33.7568C37.5561 33.8291 37.4386 33.8764 37.3151 33.8946C37.1915 33.9129 37.0654 33.9017 36.9471 33.862C36.8287 33.8223 36.7214 33.7551 36.6339 33.666C36.5464 33.5768 36.4813 33.4683 36.4438 33.3492C36.3929 33.1877 36.3938 33.0144 36.4466 32.8535C36.4993 32.6927 36.6012 32.5524 36.7378 32.4525C36.8082 32.4014 36.8791 32.3509 36.9504 32.3011C25.7996 35.7278 19.6506 44.2088 18.0144 46.7534C19.6361 49.2776 25.7006 57.6422 36.6767 61.1213C33.0565 58.4782 30.583 54.5518 29.762 50.1452C29.0225 49.8687 28.5684 49.1175 28.6557 48.3227C28.743 47.5279 29.3544 46.8961 30.1347 46.7942C30.915 46.6923 31.6661 47.1436 31.9514 47.8918C32.0892 48.2532 32.1034 48.6501 31.9917 49.0204C31.8801 49.3907 31.6488 49.7136 31.3342 49.9385C32.5861 56.3728 37.588 61.3717 43.9465 62.545C45.8532 62.7019 47.7696 62.7019 49.6762 62.545C52.0486 62.0993 54.2856 61.1108 56.2124 59.6569C56.3233 59.5707 56.4552 59.5158 56.5945 59.4979C56.7337 59.48 56.8753 59.4997 57.0043 59.555C57.1339 59.6125 57.2461 59.703 57.3296 59.8175C57.4132 59.9319 57.4653 60.0663 57.4806 60.2073C57.4959 60.3482 57.474 60.4906 57.417 60.6204C57.36 60.7501 57.2699 60.8626 57.1557 60.9467L56.9024 61.1359C67.9018 57.6626 73.978 49.2805 75.6026 46.7534ZM60.8416 46.8029C60.8416 54.6551 54.5471 61.0457 46.8085 61.0457C39.0699 61.0457 32.7754 54.6551 32.7754 46.8029C32.7754 38.9508 39.0699 32.5631 46.8085 32.5631C54.5471 32.5631 60.8416 38.9479 60.8416 46.8029ZM59.2578 46.8029C59.2578 39.8388 53.6736 34.1702 46.8085 34.1702C39.9433 34.1702 34.3563 39.8359 34.3563 46.8058C34.3563 53.7758 39.9433 59.4356 46.8085 59.4356C53.6736 59.4356 59.2578 53.77 59.2578 46.8029ZM51.3969 42.8929C51.3969 44.4184 50.6428 45.8392 49.388 46.6777L50.6399 54.3261C50.6687 54.4616 50.6662 54.6019 50.6328 54.7364C50.5994 54.8709 50.5358 54.996 50.4469 55.1023C50.358 55.2086 50.2461 55.2933 50.1196 55.3499C49.9932 55.4066 49.8555 55.4338 49.717 55.4295H44.1271C43.9885 55.4337 43.8507 55.4065 43.7242 55.3498C43.5977 55.2931 43.4857 55.2085 43.3965 55.1023C43.3074 54.9961 43.2436 54.8711 43.2097 54.7366C43.1759 54.6022 43.173 54.4618 43.2012 54.3261L44.4473 46.6777C42.6655 45.4811 41.9668 43.1694 42.7791 41.1635C43.5913 39.1575 45.6905 38.0162 47.7867 38.4355C49.8859 38.8576 51.3969 40.7238 51.3969 42.8929ZM64.0529 48.8409C63.6464 52.4881 62.1092 55.9167 59.6566 58.6466C59.5642 58.7525 59.4451 58.8316 59.3117 58.8758C59.1783 58.92 59.0355 58.9276 58.8982 58.8979C58.7609 58.8682 58.634 58.8022 58.5308 58.7068C58.4276 58.6114 58.3519 58.4901 58.3116 58.3555C58.269 58.2197 58.2628 58.0752 58.2934 57.9363C58.3241 57.7973 58.3906 57.6689 58.4862 57.5636C60.7143 55.0832 62.111 51.9682 62.4807 48.6546C62.5042 48.4452 62.6095 48.2536 62.7737 48.1216C62.9378 47.9896 63.1476 47.9279 63.3571 47.95C63.7938 48.0024 64.1024 48.4013 64.0529 48.8409ZM35.3171 34.6681C35.47 34.8156 35.5588 35.0174 35.5642 35.2298C35.5697 35.4423 35.4914 35.6483 35.3462 35.8035C33.1128 38.194 31.6668 41.2121 31.2032 44.4505C31.1722 44.6591 31.0599 44.847 30.8908 44.9731C30.7216 45.0991 30.5094 45.153 30.3007 45.123C30.092 45.0893 29.9051 44.9748 29.7803 44.8042C29.6555 44.6337 29.6029 44.4208 29.6339 44.2117C30.1454 40.649 31.7378 37.329 34.1962 34.7001C34.2674 34.6238 34.3531 34.5624 34.4482 34.5196C34.5434 34.4767 34.6462 34.4532 34.7505 34.4505C34.8548 34.4478 34.9587 34.4659 35.0559 34.5038C35.1532 34.5416 35.242 34.5985 35.3171 34.671V34.6681Z" fill="white"/>
</g>
<defs>
<clipPath id="clip0_342_4763">
<rect width="93.1659" height="93.1659" fill="white" transform="translate(0.225586 0.17041)"/>
</clipPath>
</defs>
</svg>
