<svg width="94" height="94" viewBox="0 0 94 94" fill="none" xmlns="http://www.w3.org/2000/svg">
<g clip-path="url(#clip0_342_4767)">
<path d="M47.3229 93.3363C73.05 93.3363 93.9059 72.4804 93.9059 46.7533C93.9059 21.0263 73.05 0.17041 47.3229 0.17041C21.5959 0.17041 0.73999 21.0263 0.73999 46.7533C0.73999 72.4804 21.5959 93.3363 47.3229 93.3363Z" fill="#2DAEE4"/>
<path fill-rule="evenodd" clip-rule="evenodd" d="M24.9141 34.9824H25.2344C28.0381 34.9299 30.475 33.8702 32.5421 31.806C34.551 29.6341 35.5583 27.1448 35.5583 24.3382C35.5583 22.9086 36.0737 21.6771 37.1072 20.6435C37.597 20.1414 38.1845 19.7449 38.8335 19.4785C39.4824 19.2121 40.1791 19.0815 40.8804 19.0947C42.307 19.0947 43.5415 19.61 44.5721 20.6435C45.6057 21.6771 46.121 22.9086 46.121 24.3382C46.121 25.7648 45.6319 26.9992 44.6536 28.0328C44.204 28.5274 43.6592 28.9265 43.052 29.2061C42.4447 29.4857 41.7874 29.6402 41.1192 29.6603C38.1 29.5525 35.5059 30.5861 33.334 32.758C31.1621 34.9299 30.1314 37.4716 30.2362 40.386C30.341 43.4022 31.4299 45.9177 33.4941 47.9295C35.7709 49.9413 38.3125 50.9224 41.1192 50.87C41.7876 50.8905 42.4451 51.0454 43.0523 51.3255C43.6596 51.6056 44.2042 52.0052 44.6536 52.5005C45.6319 53.5311 46.121 54.7364 46.121 56.1106C46.121 57.5955 45.6057 58.8532 44.5721 59.8868C44.0951 60.3833 43.5215 60.7769 42.8866 61.0433C42.2517 61.3096 41.5689 61.4432 40.8804 61.4356C39.3956 61.4356 38.1408 60.9174 37.1072 59.8868C36.605 59.3969 36.2085 58.8094 35.9421 58.1605C35.6757 57.5116 35.5451 56.8149 35.5583 56.1135C35.5808 54.7539 35.3245 53.404 34.8052 52.1472C34.286 50.8903 33.5148 49.7532 32.5392 48.8058C31.597 47.8064 30.466 47.0037 29.2117 46.444C27.9574 45.8843 26.6046 45.5787 25.2315 45.545C24.227 45.6004 23.3682 45.4402 22.6519 45.0705C21.9483 44.7098 21.3474 44.1769 20.9051 43.5216C20.4489 42.8472 20.1249 42.0924 19.9501 41.2973C19.767 40.5032 19.7276 39.6829 19.8337 38.8749C20.5208 36.2809 22.2152 34.9824 24.9141 34.9824ZM24.9869 50.87C26.364 50.87 27.5694 51.3737 28.6 52.3811C29.6336 53.3855 30.1751 54.5792 30.2304 55.9563C30.1751 58.8678 31.1824 61.4094 33.2466 63.5814C35.3138 65.698 37.8001 66.7577 40.7145 66.7577H40.9532C43.8122 66.7577 46.2724 65.698 48.3395 63.5814C50.4561 61.4618 51.4897 58.9231 51.4373 55.9534C51.4333 54.5641 51.1418 53.1906 50.5811 51.9194C50.0204 50.6482 49.2027 49.5068 48.1794 48.5671C46.089 46.5786 43.6579 45.5712 40.8804 45.5479H40.5543C39.8861 45.5279 39.2288 45.3734 38.6215 45.0938C38.0143 44.8142 37.4696 44.4151 37.0199 43.9205C36.5436 43.4317 36.1686 42.8538 35.9163 42.2198C35.664 41.5858 35.5394 40.9081 35.5496 40.2258C35.5496 38.7992 36.0678 37.5648 37.0985 36.5312C37.9748 35.6578 39.0142 35.1512 40.2137 35.0173L40.5631 34.9824L40.697 34.9853C40.8358 34.9816 40.9746 34.9826 41.1133 34.9882C43.8501 34.9532 46.2316 33.9197 48.2667 31.8846C50.4387 29.7127 51.4984 27.1448 51.4431 24.178C51.4431 23.0135 51.842 21.9537 52.6368 21.0016L52.7154 20.923L52.794 20.8415C52.794 20.7891 52.8231 20.7629 52.8726 20.7629L52.9541 20.6843V20.6057H53.0328V20.5213C53.0852 20.5213 53.1114 20.4951 53.1114 20.4427L53.19 20.364H53.3501C53.3501 20.3087 53.3792 20.2825 53.4287 20.2825L53.5102 20.2039V20.1253H53.6674C53.6674 20.07 53.6966 20.0438 53.7461 20.0438L53.8276 19.9652L53.9062 19.8866H53.9848C53.9848 19.8342 54.0139 19.808 54.0663 19.808C54.1187 19.808 54.1449 19.7788 54.1449 19.7264H54.2235L54.3021 19.6478H54.4623V19.5692H54.5409L54.6224 19.4877H54.7796V19.4149H54.9397L55.0183 19.3363H55.1785L55.2571 19.2577H55.4958L55.5744 19.1762H55.8132C55.8656 19.1762 55.8918 19.15 55.8918 19.0976H57.56L57.6008 19.1383C57.627 19.1645 57.6648 19.1762 57.7172 19.1762H57.8774L57.9181 19.2169C57.9443 19.2431 57.9822 19.2577 58.0346 19.2577H58.1947L58.2733 19.3363H58.4335L58.5121 19.4149H58.6722C58.7246 19.4673 58.777 19.4935 58.8294 19.4935L58.9109 19.575H59.0682V19.6537H59.1497L59.2283 19.7323L59.2661 19.773C59.2952 19.8021 59.3331 19.8138 59.3855 19.8138L59.467 19.8924H59.5456C59.5456 19.9448 59.598 19.971 59.7028 19.971L59.7844 20.0496V20.1311H59.863C59.863 20.1835 59.9154 20.2097 60.0231 20.2097C60.0231 20.2621 60.0493 20.2883 60.1017 20.2883V20.3699H60.1803L60.2618 20.4485C60.3142 20.5009 60.3666 20.5271 60.4191 20.5271L60.4977 20.6086C60.4977 20.661 60.5268 20.6872 60.5792 20.6872V20.7658H60.6578C60.6578 20.8182 60.6724 20.859 60.6986 20.8823L60.7364 20.926C60.7364 20.9784 60.7655 21.0046 60.8179 21.0046L60.8965 21.0832C60.8965 21.1356 60.9082 21.1763 60.9344 21.2025L60.9751 21.2433L61.0537 21.3219L61.1353 21.4005V21.5606L61.2139 21.6393V21.715H61.2925C61.2925 21.7703 61.307 21.8081 61.3332 21.8343L61.3711 21.8751C61.3711 21.9275 61.4002 21.9537 61.4526 21.9537V22.0352C61.4526 22.0876 61.4643 22.1255 61.4905 22.1517L61.5312 22.1924L61.6098 22.271C61.6098 22.3788 61.6389 22.4312 61.6914 22.4312V22.5098C61.6914 22.5651 61.703 22.6029 61.7292 22.6291L61.77 22.6699V22.8271L61.8486 22.9086V23.1474C61.901 23.1998 61.9272 23.2522 61.9272 23.3046V23.5433C61.9825 23.5957 62.0087 23.6481 62.0087 23.7035V24.3352C62.0087 27.1419 63.0131 29.6311 65.0249 31.8031C67.0921 33.8673 69.5551 34.927 72.4142 34.9794C73.8408 34.927 75.1131 35.4162 76.2281 36.4497C77.3374 37.4804 77.8935 38.7381 77.8935 40.2229C77.8935 41.7049 77.3782 42.9597 76.3446 43.9962C75.8673 44.493 75.2932 44.8868 74.6577 45.1532C74.0223 45.4196 73.339 45.553 72.65 45.545C71.9682 45.5549 71.2911 45.4301 70.6576 45.1778C70.0241 44.9255 69.4467 44.5507 68.9583 44.0748C68.4571 43.6128 68.0544 43.0544 67.7742 42.4331C67.4941 41.8117 67.3423 41.1402 67.3279 40.4588C67.3832 37.5473 66.3234 34.9794 64.1544 32.7551C62.0349 30.6356 59.467 29.6049 56.4479 29.6573C55.075 29.6907 53.7223 29.9958 52.468 30.5549C51.2137 31.1141 50.0826 31.9164 49.1402 32.9152C48.1644 33.8625 47.3932 34.9996 46.8739 36.2565C46.3546 37.5133 46.0984 38.8632 46.121 40.2229L46.1181 40.4675C46.1763 43.1751 47.1808 45.5829 49.1343 47.6878C51.1985 49.755 53.6616 50.8147 56.5206 50.8671C58.4247 50.7623 59.8834 51.4494 60.8878 52.9342C61.8952 54.3609 62.2125 55.8748 61.8427 57.4615C61.1003 60.1109 59.4059 61.4327 56.7594 61.4327H56.5206C53.5539 61.5375 51.0908 62.6264 49.1343 64.6906C47.1196 66.7024 46.1152 69.1655 46.1152 72.0769C46.1152 73.5064 45.5999 74.738 44.5663 75.7715C44.089 76.2684 43.5149 76.6622 42.8794 76.9286C42.244 77.195 41.5607 77.3284 40.8717 77.3204H40.7145C39.285 77.3204 38.0651 76.8051 37.0606 75.7715C36.5737 75.2886 36.189 74.7126 35.9294 74.0779C35.6698 73.4431 35.5406 72.7626 35.5496 72.0769C35.5496 69.1655 34.5451 66.7024 32.5333 64.6906C31.5909 63.6917 30.4599 62.8895 29.2055 62.3303C27.9512 61.7711 26.5986 61.4661 25.2257 61.4327C24.5044 61.4729 23.7827 61.363 23.1062 61.1099C22.4296 60.8568 21.813 60.4661 21.2952 59.9625C20.7667 59.4721 20.3481 58.8753 20.0671 58.2113C19.786 57.5474 19.6489 56.8314 19.6648 56.1106C19.6648 54.6811 20.1801 53.4496 21.2137 52.416C21.7035 51.9138 22.291 51.5173 22.9399 51.2509C23.5889 50.9845 24.2855 50.8539 24.9869 50.8671V50.87Z" fill="white"/>
</g>
<defs>
<clipPath id="clip0_342_4767">
<rect width="93.1659" height="93.1659" fill="white" transform="translate(0.739502 0.17041)"/>
</clipPath>
</defs>
</svg>
