<svg width="94" height="94" viewBox="0 0 94 94" fill="none" xmlns="http://www.w3.org/2000/svg">
<g clip-path="url(#clip0_342_4771)">
<path d="M46.8354 93.3363C72.5624 93.3363 93.4183 72.4804 93.4183 46.7533C93.4183 21.0263 72.5624 0.17041 46.8354 0.17041C21.1083 0.17041 0.252441 21.0263 0.252441 46.7533C0.252441 72.4804 21.1083 93.3363 46.8354 93.3363Z" fill="black"/>
<path d="M22.1205 67.8616C22.0797 67.1741 22.0778 66.485 22.1147 65.7974C22.3476 65.7275 22.5864 65.6809 22.8309 65.6518C23.5355 65.5324 24.2313 65.3694 24.9184 65.1656C25.1047 65.1073 25.2911 65.0433 25.4716 64.9734C26.3741 64.627 27.1719 64.0563 27.7774 63.3168C28.1967 62.8015 28.5635 62.2454 28.878 61.6573C29.3205 60.8537 29.7135 60.024 30.06 59.1738C30.7617 57.4619 31.4604 55.7442 32.1562 54.0235L39.3155 36.2841C41.5776 30.6622 43.7991 25.0256 45.9739 19.3716C46.0176 19.2552 46.0671 19.1445 46.1166 19.0281C46.9201 18.8068 47.712 18.5797 48.5331 18.3672C48.5796 18.4836 48.6262 18.5826 48.6641 18.6874L51.4299 26.2601C54.5622 34.8689 57.7386 43.4617 60.9591 52.0379C61.8441 54.3816 62.735 56.7253 63.6347 59.0603C63.9899 60.0152 64.4062 60.9469 64.8837 61.8494C65.0936 62.2351 65.321 62.6111 65.5649 62.9762C66.3132 64.1175 67.4748 64.9414 68.817 65.2791C69.539 65.4684 70.2727 65.611 71.0122 65.7071L71.5392 65.7828C71.6149 66.0128 71.5683 66.2341 71.5741 66.4524C71.5829 66.6737 71.5741 66.9183 71.5741 67.1541C71.5829 67.3812 71.577 67.6054 71.5625 67.8324C71.4868 67.8441 71.4286 67.8557 71.3703 67.8616H52.8449C52.8254 67.822 52.8117 67.7798 52.8041 67.7364V65.876C52.8089 65.848 52.8167 65.8207 52.8274 65.7944C52.9809 65.752 53.1377 65.7227 53.2962 65.7071C54.059 65.611 54.8101 65.4654 55.5554 65.2762C55.8524 65.1947 56.1465 65.0899 56.4376 64.9851C56.5832 64.9268 56.7229 64.8599 56.8568 64.7813C57.5876 64.3795 57.8817 63.7506 57.8176 62.9471C57.7852 62.5828 57.7199 62.2223 57.6226 61.8698C57.477 61.3167 57.2732 60.7839 57.081 60.2482C53.2438 49.7627 49.4482 39.262 45.6944 28.7464C45.6536 28.63 45.642 28.5048 45.5226 28.4029C45.4848 28.4262 45.4353 28.4437 45.4062 28.4757C45.3758 28.5288 45.3523 28.5855 45.3363 28.6445C43.5021 33.8153 41.5485 38.9452 39.6008 44.0751C38.1654 47.8775 36.7272 51.674 35.3879 55.5083C34.8533 57.0462 34.3341 58.5893 33.8303 60.1375C33.633 60.7285 33.4868 61.3353 33.3936 61.9513C33.3223 62.3619 33.3105 62.7806 33.3587 63.1945C33.3903 63.4643 33.4781 63.7244 33.6165 63.9581C33.7549 64.1918 33.9408 64.3939 34.1622 64.5513C34.4592 64.758 34.7853 64.9239 35.1288 65.0375C35.6762 65.2267 36.241 65.3694 36.8145 65.4625C37.4463 65.5761 38.0839 65.6634 38.7186 65.7624L38.8554 65.7857C38.8707 65.831 38.8805 65.8779 38.8846 65.9254V67.7247C38.8802 67.7603 38.8724 67.7954 38.8613 67.8295C38.8046 67.8423 38.7472 67.852 38.6895 67.8586H22.1205V67.8616Z" fill="white"/>
</g>
<defs>
<clipPath id="clip0_342_4771">
<rect width="93.1659" height="93.1659" fill="white" transform="translate(0.253418 0.17041)"/>
</clipPath>
</defs>
</svg>
