<svg width="94" height="94" viewBox="0 0 94 94" fill="none" xmlns="http://www.w3.org/2000/svg">
<g clip-path="url(#clip0_342_4775)">
<path d="M47.3505 93.3363C73.0776 93.3363 93.9334 72.4804 93.9334 46.7533C93.9334 21.0263 73.0776 0.17041 47.3505 0.17041C21.6235 0.17041 0.767578 21.0263 0.767578 46.7533C0.767578 72.4804 21.6235 93.3363 47.3505 93.3363Z" fill="#2CD3E1"/>
<path d="M23.9571 51.406C23.9382 51.0987 23.9285 50.7909 23.928 50.483C23.928 40.2435 31.9111 31.9197 41.8974 31.5645C42.1361 31.5645 42.3923 31.5645 42.631 31.5849L40.2495 29.2179C40.2495 29.2179 49.8368 27.6166 62.1464 35.0175C62.1464 35.0175 62.3269 35.3931 62.1464 36.4965C62.1464 36.4965 67.946 38.9829 68.4409 43.8159C68.9358 48.6488 65.8614 51.4118 63.3779 51.8048C63.3779 51.8048 64.6677 49.8134 62.685 48.7478C62.2526 48.5141 61.7637 48.4052 61.2729 48.4334C57.4823 48.4334 57.0455 52.7336 57.0455 52.7336C57.0048 52.949 57.0048 53.1674 57.0048 53.3828C57.0048 53.3828 56.4516 58.8534 65.512 59.4968C67.5826 56.8261 69.3967 53.9661 70.9302 50.9547C73.3506 46.207 75.1632 41.1733 76.3251 35.9725C71.0466 31.6461 64.822 27.9369 58.1286 24.8304C55.6189 23.6658 53.1879 22.6556 50.885 21.788C49.711 21.3427 48.5267 20.9253 47.333 20.536C46.3955 20.8388 45.2077 21.2522 43.7811 21.788C41.481 22.6526 39.0471 23.6658 36.5403 24.8304C29.8528 27.934 23.6252 31.6432 18.3468 35.9754C18.6321 37.3496 19.0659 39.0644 19.6889 41.0558C20.8001 44.6263 22.2285 48.0901 23.9571 51.406ZM79.3762 34.8224L79.2307 35.6376C79.155 36.2694 78.6396 38.5345 78.005 40.7035C76.8457 44.6715 75.3163 48.5218 73.4369 52.2037C70.7992 57.3453 67.5966 61.8289 63.9224 65.5206C59.3893 70.0653 54.1429 73.4222 48.2967 75.5126L47.9706 75.6291L47.3505 75.8678L46.7362 75.6524L46.3926 75.533C40.5004 73.4171 35.1606 70.0009 30.7699 65.5381C27.0782 61.8114 23.8785 57.3366 21.2553 52.2212C18.8101 47.4151 16.9622 42.3279 15.7527 37.073C15.6071 36.4208 15.447 35.6056 15.4761 35.7221L15.3247 34.8836L15.6741 34.5924L15.9303 34.3741C21.299 29.8555 27.6488 25.9804 34.5052 22.7225C38.3643 20.8698 42.3389 19.2681 46.4043 17.9274L47.3301 17.6392L47.9619 17.8284L48.2763 17.9303C51.4207 18.9406 55.5986 20.5506 60.1666 22.7225C67.0143 25.9746 73.3554 29.8439 78.7183 34.3537L79.3762 34.8195V34.8224ZM57.2435 36.9303C57.4037 36.8517 57.919 36.5955 58.5158 35.9841C59.7066 36.1413 60.877 36.5169 60.877 36.5169C58.7138 35.2155 55.7529 34.444 52.4775 34.4643C52.4775 34.4643 53.7294 36.2403 57.2028 36.9682L57.2435 36.9303Z" fill="white"/>
</g>
<defs>
<clipPath id="clip0_342_4775">
<rect width="93.1659" height="93.1659" fill="white" transform="translate(0.767578 0.17041)"/>
</clipPath>
</defs>
</svg>
