<svg width="94" height="94" viewBox="0 0 94 94" fill="none" xmlns="http://www.w3.org/2000/svg">
<g clip-path="url(#clip0_342_4779)">
<path d="M46.8649 93.3363C72.592 93.3363 93.4479 72.4804 93.4479 46.7533C93.4479 21.0263 72.592 0.17041 46.8649 0.17041C21.1379 0.17041 0.281982 21.0263 0.281982 46.7533C0.281982 72.4804 21.1379 93.3363 46.8649 93.3363Z" fill="#1F4C9F"/>
<path fill-rule="evenodd" clip-rule="evenodd" d="M17.7505 56.2155L46.8648 19.0947L75.9792 56.2155V68.5891L46.8648 31.4683L17.7505 68.5891V56.2155ZM48.3205 59.8548C46.3901 59.8548 44.5388 59.0879 43.1738 57.7229C41.8088 56.3579 41.042 54.5066 41.042 52.5762C41.042 50.6458 41.8088 48.7945 43.1738 47.4295C44.5388 46.0645 46.3901 45.2976 48.3205 45.2976C50.2509 45.2976 52.1023 46.0645 53.4673 47.4295C54.8323 48.7945 55.5991 50.6458 55.5991 52.5762C55.5991 54.5066 54.8323 56.3579 53.4673 57.7229C52.1023 59.0879 50.2509 59.8548 48.3205 59.8548Z" fill="white"/>
</g>
<defs>
<clipPath id="clip0_342_4779">
<rect width="93.1659" height="93.1659" fill="white" transform="translate(0.281494 0.17041)"/>
</clipPath>
</defs>
</svg>
