<svg width="94" height="94" viewBox="0 0 94 94" fill="none" xmlns="http://www.w3.org/2000/svg">
<g clip-path="url(#clip0_342_4783)">
<path d="M47.0414 93.8504C72.7685 93.8504 93.6244 72.9946 93.6244 47.2675C93.6244 21.5405 72.7685 0.68457 47.0414 0.68457C21.3144 0.68457 0.458496 21.5405 0.458496 47.2675C0.458496 72.9946 21.3144 93.8504 47.0414 93.8504Z" fill="#FD875E"/>
<path d="M40.2287 51.3026L47.1754 30.5965L54.2502 51.3026H40.2287ZM69.6691 64.3953L63.9249 48.9385H67.3545C68.0041 48.9394 68.6279 48.6845 69.091 48.229C69.5541 47.7735 69.8193 47.1541 69.8293 46.5046C69.8293 45.8932 69.5789 45.3022 69.1392 44.8713C68.6996 44.4404 68.097 44.1929 67.471 44.1929H62.114L61.2551 41.7881H67.3545C67.9901 41.7938 68.6028 41.5517 69.0627 41.113C69.5226 40.6743 69.7934 40.0736 69.8176 39.4385C69.8205 38.7922 69.5614 38.175 69.0956 37.7208C68.6297 37.2666 68.0009 37.0104 67.3429 37.0133H59.4238L55.1353 25.4607C54.4897 23.8033 53.4302 22.3388 52.0579 21.2071C50.6892 20.1088 48.9697 19.5422 47.2162 19.6117C45.4573 19.5549 43.7347 20.1198 42.3511 21.2071C40.9792 22.3399 39.9173 23.8025 39.265 25.4578L34.7727 37.1152H26.9002C26.2777 37.1097 25.6783 37.3506 25.2327 37.7853C24.7871 38.22 24.5315 38.8132 24.5215 39.4356C24.5215 40.7691 25.625 41.8492 26.9875 41.8492H32.9647L32.0447 44.19H26.6876C26.3783 44.1865 26.0714 44.244 25.7843 44.3592C25.4972 44.4744 25.2356 44.645 25.0144 44.8613C24.7933 45.0776 24.6169 45.3353 24.4954 45.6198C24.3738 45.9042 24.3095 46.2098 24.3061 46.5191C24.3061 47.8409 25.395 48.9094 26.74 48.9152H30.1784L24.3381 64.3924C23.98 65.2659 23.782 66.1917 23.75 67.1321C23.8082 68.451 24.3963 69.6941 25.3804 70.5967C26.4696 71.519 27.8546 72.0182 29.2817 72.0029C30.474 72.0749 31.655 71.7374 32.6292 71.0465C33.6035 70.3555 34.3125 69.3525 34.6388 68.2035L36.898 61.5975H57.6973L59.9595 68.3607C60.3265 69.4708 61.0517 70.4276 62.0213 71.081C62.9908 71.7344 64.1499 72.0474 65.3165 71.9709C66.2191 71.9913 67.1071 71.7671 67.8902 71.3304C68.5686 70.8354 69.1713 70.2531 69.6779 69.5893C70.1199 68.8469 70.3467 67.9961 70.3329 67.1321C70.1911 66.2148 69.969 65.3117 69.6691 64.4332V64.3953Z" fill="#FEFEFE"/>
</g>
<defs>
<clipPath id="clip0_342_4783">
<rect width="93.1659" height="93.1659" fill="white" transform="translate(0.459473 0.68457)"/>
</clipPath>
</defs>
</svg>
