<svg width="94" height="94" viewBox="0 0 94 94" fill="none" xmlns="http://www.w3.org/2000/svg">
<g clip-path="url(#clip0_342_4791)">
<path d="M47.0717 93.8504C72.7988 93.8504 93.6546 72.9946 93.6546 47.2675C93.6546 21.5405 72.7988 0.68457 47.0717 0.68457C21.3447 0.68457 0.48877 21.5405 0.48877 47.2675C0.48877 72.9946 21.3447 93.8504 47.0717 93.8504Z" fill="#A71435"/>
<path d="M31.8019 15.9583C38.9978 12.3892 47.2078 11.4232 55.0356 13.2244C62.8634 15.0257 69.8255 19.4829 74.7377 25.8381C79.6499 32.1933 82.2089 40.054 81.9795 48.083C81.75 56.1121 78.7462 63.8138 73.4791 69.878C71.7467 66.1048 70.4191 62.1482 68.9343 58.2527L59.9671 34.7574C59.1024 32.3758 57.6496 30.0875 55.3932 28.8501C52.2339 27.327 48.693 26.7777 45.2207 27.2721C42.4373 27.5836 39.5317 28.5415 37.6451 30.7367C35.8517 32.8067 35.0481 35.4678 34.0291 37.9716L27.5657 54.3572C25.4026 59.5512 23.5771 64.9315 21.2276 70.0935C17.8433 66.4383 15.3563 62.0455 13.9635 57.2628C11.5568 49.3726 12.0326 40.8839 15.306 33.3121C18.5794 25.7403 24.4373 19.5783 31.8339 15.9262L31.8019 15.9554V15.9583Z" fill="white"/>
<path d="M44.7253 39.6396C45.3425 37.785 47.8173 37.1649 49.4244 38.2188C50.2891 38.8681 50.6006 39.9802 51.0024 40.9701C55.0201 51.4804 58.9797 62.0547 62.9683 72.5999C63.4924 74.1139 64.2639 75.5667 64.5755 77.1418C64.3224 77.4114 64.0298 77.6412 63.7079 77.8231C59.3457 80.1569 54.5366 81.535 49.6004 81.8659C44.6643 82.1967 39.7143 81.4726 35.0797 79.7417C33.3474 79.0284 31.5569 78.4112 30.04 77.3281C30.1943 75.9073 30.9047 74.638 31.4317 73.3395C35.8833 62.1188 40.2417 50.8632 44.7253 39.6396Z" fill="white"/>
</g>
<defs>
<clipPath id="clip0_342_4791">
<rect width="93.1659" height="93.1659" fill="white" transform="translate(0.487793 0.68457)"/>
</clipPath>
</defs>
</svg>
