<svg width="94" height="94" viewBox="0 0 94 94" fill="none" xmlns="http://www.w3.org/2000/svg">
<g clip-path="url(#clip0_342_4797)">
<path d="M46.5834 93.8504C72.3105 93.8504 93.1664 72.9946 93.1664 47.2675C93.1664 21.5405 72.3105 0.68457 46.5834 0.68457C20.8564 0.68457 0.000488281 21.5405 0.000488281 47.2675C0.000488281 72.9946 20.8564 93.8504 46.5834 93.8504Z" fill="#F70000"/>
<path d="M46.4291 39.5433L14.5576 73.15L46.5717 21.0645L78.6092 73.4703L46.4291 39.5433ZM51.0524 52.8922H41.0895L46.2136 47.2557L51.0524 52.9417V52.8922ZM31.837 62.1419V62.072L37.4881 56.287V56.2608L54.7238 56.188L60.5408 62.1419H31.8399H31.837Z" fill="white"/>
</g>
<defs>
<clipPath id="clip0_342_4797">
<rect width="93.1659" height="93.1659" fill="white" transform="translate(0.00146484 0.68457)"/>
</clipPath>
</defs>
</svg>
