<svg width="94" height="94" viewBox="0 0 94 94" fill="none" xmlns="http://www.w3.org/2000/svg">
<g clip-path="url(#clip0_342_4801)">
<path d="M47.0986 93.8504C72.8256 93.8504 93.6815 72.9946 93.6815 47.2675C93.6815 21.5405 72.8256 0.68457 47.0986 0.68457C21.3715 0.68457 0.515625 21.5405 0.515625 47.2675C0.515625 72.9946 21.3715 93.8504 47.0986 93.8504Z" fill="#0092B5"/>
<path d="M34.7538 41.7416L47.2206 19.7952C47.2439 19.7545 47.2905 19.7283 47.4535 19.7952L59.3147 41.3427C58.9821 41.6142 58.7153 41.9574 58.5344 42.3468C58.3535 42.7361 58.2632 43.1613 58.2702 43.5905C58.2772 44.0198 58.3814 44.4418 58.5749 44.825C58.7684 45.2082 59.0462 45.5426 59.3875 45.8031L48.4317 65.5659C48.0415 65.3785 47.6147 65.2797 47.1818 65.2767C46.7489 65.2737 46.3207 65.3665 45.9279 65.5484L34.6519 45.4624C35.1161 44.9593 35.382 44.3049 35.4002 43.6206C35.4184 42.9363 35.1877 42.2687 34.7509 41.7416H34.7538ZM33.5601 46.2077L44.8798 66.3694C44.6355 66.6751 44.457 67.0279 44.3557 67.4059C35.2168 65.2165 29.5395 63.8627 27.318 63.3415C26.3785 62.0202 25.5563 60.6194 24.8608 59.1549L32.1161 46.3853C32.6045 46.4472 33.1006 46.3872 33.5601 46.2107V46.2077ZM31.9909 40.7255L23.0033 24.7126C29.1289 21.4606 36.7307 19.7545 45.8144 19.6089L33.697 40.938C33.1623 40.6985 32.568 40.6245 31.9909 40.7255ZM30.7681 41.2379C30.3946 41.5075 30.0921 41.8637 29.8866 42.2759C29.6812 42.6882 29.579 43.1442 29.5887 43.6047C29.5984 44.0652 29.7199 44.5165 29.9425 44.9197C30.1652 45.3229 30.4825 45.666 30.8671 45.9195L24.1999 57.6526C23.0921 54.9091 22.4335 52.0051 22.2492 49.0522L20.9012 27.56C20.8761 27.1461 20.9508 26.7323 21.119 26.3533C21.2873 25.9743 21.5441 25.6413 21.8678 25.3823L30.7681 41.2379ZM49.9835 67.435C49.8862 67.0592 49.7128 66.7075 49.474 66.4014L60.5899 46.3504C61.0696 46.4467 61.5658 46.4227 62.034 46.2805L69.2368 59.3645C68.6254 60.6223 67.9209 61.8334 67.129 62.9892L49.9835 67.435ZM47.8262 70.9287C48.3536 70.8094 48.837 70.5445 49.2215 70.1642C49.6059 69.7839 49.876 69.3033 50.001 68.7772L65.8858 64.6575C63.9656 67.0446 61.6683 69.1019 59.0847 70.7482L48.5366 77.4853C48.3168 77.6263 48.0774 77.7342 47.8262 77.8055V70.9287ZM46.5044 70.9287V77.8376C46.2047 77.7697 45.9191 77.6505 45.6601 77.4853L35.1119 70.7482C32.6456 69.1763 30.4394 67.2294 28.5729 64.9778C31.4552 65.6619 36.7045 66.9139 44.3208 68.7364C44.5537 69.8224 45.4097 70.6813 46.5044 70.9316V70.9287ZM62.1388 40.842C61.6103 40.6594 61.0407 40.6311 60.4967 40.7605L48.8597 19.6176C57.6872 19.8127 65.1055 21.4984 71.106 24.669L62.1388 40.842ZM63.2539 41.5436L72.2502 25.3211C72.5976 25.5774 72.8754 25.9165 73.0584 26.3075C73.2415 26.6985 73.3239 27.1291 73.2983 27.56L71.9503 49.0551C71.7604 52.083 71.0718 55.0587 69.9123 57.8622L63.1752 45.6255C63.4546 45.3663 63.6789 45.0534 63.8346 44.7057C63.9904 44.3579 64.0744 43.9822 64.0817 43.6012C64.0891 43.2202 64.0196 42.8417 63.8773 42.4881C63.7351 42.1346 63.523 41.8134 63.2539 41.5436ZM47.0983 33.3916C46.6861 33.3982 46.2923 33.5635 45.999 33.8531C45.7056 34.1427 45.5352 34.5342 45.5232 34.9463V40.6353L37.1208 45.8118L38.0205 47.7537L45.5232 45.2965V50.9854L43.4212 52.5372V54.089L47.0983 53.0525L50.7755 54.0861V52.5343L48.6734 50.9825V45.2936L56.0481 47.8847L57.0758 45.8118L48.6734 40.6353V34.9463C48.6608 34.5353 48.4904 34.1448 48.1977 33.8559C47.905 33.567 47.5124 33.4018 47.1012 33.3945L47.0983 33.3916Z" fill="white"/>
</g>
<defs>
<clipPath id="clip0_342_4801">
<rect width="93.1659" height="93.1659" fill="white" transform="translate(0.515625 0.68457)"/>
</clipPath>
</defs>
</svg>
