<svg width="94" height="94" viewBox="0 0 94 94" fill="none" xmlns="http://www.w3.org/2000/svg">
<g clip-path="url(#clip0_342_4805)">
<path d="M46.6137 93.8504C72.3407 93.8504 93.1966 72.9946 93.1966 47.2675C93.1966 21.5405 72.3407 0.68457 46.6137 0.68457C20.8867 0.68457 0.0307617 21.5405 0.0307617 47.2675C0.0307617 72.9946 20.8867 93.8504 46.6137 93.8504Z" fill="#436697"/>
<path d="M55.5665 60.9978C55.4245 60.9912 55.2873 60.9448 55.1705 60.8639C55.0644 60.7975 54.9748 60.7079 54.9085 60.6018H54.8823L48.4247 71.9419C54.9871 70.5007 61.5262 69.0304 68.0857 67.5864C67.9357 67.4008 67.7958 67.2074 67.6664 67.007C67.483 66.745 67.3258 66.4305 67.1423 66.0899C66.9746 65.7798 66.8173 65.4642 66.6707 65.1437V65.1175C66.6707 65.0913 66.6416 65.0651 66.6416 65.0651C66.3297 64.4019 66.0413 63.728 65.7769 63.0445C65.6983 62.8611 65.6459 62.7039 65.5673 62.5467C65.1676 61.5579 64.791 60.56 64.4376 59.5537C63.3342 59.7633 62.4171 59.9468 61.7882 60.0778C61.7591 60.0778 61.7329 60.0778 61.7067 60.104C60.7372 60.3136 59.8172 60.497 58.9263 60.6571C58.4255 60.759 57.9539 60.8115 57.5084 60.8901C57.4036 60.9192 57.2726 60.9192 57.1154 60.9454C57.1154 60.9454 56.798 60.9978 56.3788 61.024C56.1068 61.0446 55.8334 61.0349 55.5636 60.9949L55.5665 60.9978ZM61.6019 50.9679C61.462 50.4666 61.3483 49.9583 61.2613 49.4452L56.3264 58.1096L56.3555 58.0805C56.5622 58.0048 56.798 57.9262 57.0892 57.8476C57.7704 57.6351 58.6089 57.4255 59.6338 57.1634C60.6586 56.9014 61.8668 56.6103 63.2818 56.2463C62.9936 55.3787 62.6791 54.4878 62.3909 53.5678C62.0954 52.7116 61.8332 51.8444 61.6048 50.9679H61.6019ZM69.2153 35.613H69.1105L62.7344 46.822C62.7577 46.822 62.8101 46.8482 62.8887 46.8482C62.9179 46.8482 62.9179 46.8482 62.9411 46.8744C62.9703 46.8744 62.9703 46.8744 62.9936 46.9006C63.0227 46.9006 63.0227 46.9268 63.046 46.9268C63.0751 46.9268 63.0751 46.9268 63.0984 46.953C63.1758 46.9944 63.2465 47.0475 63.308 47.1103C63.4128 47.2151 63.4943 47.3199 63.5205 47.3461C63.5467 47.3752 63.5467 47.3985 63.5729 47.4247C63.6311 47.5085 63.6836 47.596 63.7301 47.6867C63.8612 47.9225 63.9398 48.0536 63.9398 48.0536C64.2542 48.6591 64.5686 49.3666 64.8831 50.208C65.2004 51.0465 65.5411 51.9403 65.8555 52.8865C65.9341 53.0962 65.9865 53.2796 66.0651 53.4892C66.2485 54.0424 66.4844 54.7236 66.7493 55.5097C67.8498 55.3001 68.9009 55.0905 69.9228 54.9071C70.9476 54.7236 71.8676 54.5926 72.7061 54.514C73.5475 54.4325 74.255 54.3801 74.8606 54.4063C75.2012 54.4063 75.4632 54.4354 75.6991 54.4878C75.7515 54.4878 75.8301 54.514 75.8825 54.514C75.3846 53.1224 74.8606 51.5735 74.255 49.9198L69.2182 35.613H69.2153ZM75.2274 56.849C74.502 57.1155 73.7657 57.3515 73.0205 57.5565C72.8633 57.6089 72.7061 57.6351 72.5751 57.6904C72.4441 57.7166 72.3131 57.769 72.182 57.7952C71.8174 57.8952 71.4493 57.9826 71.0786 58.0572C70.8706 58.1158 70.6609 58.1682 70.4497 58.2145H70.4206C69.7918 58.3717 68.9533 58.5551 67.9808 58.7676C68.1905 59.5013 68.4554 60.3136 68.7669 61.2336C69.0581 62.1507 69.3492 63.0445 69.5821 63.883C69.6607 64.145 69.7131 64.3838 69.7918 64.6458C69.9257 65.0389 70.0305 65.4319 70.1091 65.9065C70.1353 65.9851 70.1353 66.0637 70.1615 66.1394C70.2663 66.5615 70.2925 66.876 70.2663 67.1118C70.2663 67.1118 71.3668 66.9022 71.92 66.7712C74.0975 63.966 75.792 60.8172 76.9335 57.4546C76.7763 56.98 76.6191 56.5346 76.4618 56.06C76.2231 56.3773 75.8301 56.6132 75.2274 56.849ZM40.7065 16.1617H40.8113C40.9162 16.1617 41.0501 16.2141 41.2073 16.3189C41.2859 16.3713 41.3907 16.4237 41.4693 16.5024C41.5804 16.5818 41.6855 16.6694 41.7838 16.7644C42.2554 17.1836 42.7824 17.6844 43.385 18.2871C43.9615 18.8635 44.5671 19.4953 45.196 20.1795C45.7986 20.8317 46.3518 21.4372 46.8497 21.9351C47.0855 21.6993 47.3213 21.4372 47.56 21.149C47.8483 20.8317 48.1365 20.5172 48.4247 20.1766C48.7159 19.8621 49.0012 19.5215 49.3186 19.2304C49.6068 18.9159 49.895 18.6277 50.1832 18.3395L50.6025 17.9202C50.7626 17.763 50.9198 17.6291 51.0509 17.4981C51.3129 17.2652 51.5487 17.0526 51.7845 16.8692C52.2853 16.4499 52.6521 16.2665 52.9404 16.2665C53.0452 16.2665 53.15 16.2927 53.2548 16.3189L52.9666 15.9754L52.2038 15.8182C52.1776 15.8182 52.1514 15.8182 52.1252 15.792C51.8923 15.7396 51.6535 15.7134 51.4177 15.6872H51.3653C51.1295 15.6609 50.8674 15.6085 50.6316 15.5823H50.6025C49.2924 15.4251 47.9531 15.3203 46.5876 15.3203H45.851C45.6181 15.3203 45.4056 15.3494 45.196 15.3494H45.1174C44.8815 15.3494 44.6719 15.3727 44.4361 15.3989H44.407C43.2016 15.4775 42.0196 15.6347 40.8637 15.8444C40.7589 15.9492 40.6803 16.0569 40.5755 16.1879C40.6279 16.1879 40.6541 16.1588 40.7065 16.1588V16.1617ZM22.6993 31.0974C22.8303 30.9926 22.9905 30.8353 23.2525 30.7305C23.5575 30.5904 23.8867 30.5103 24.222 30.4947C24.6674 30.4656 25.0081 30.5995 25.1944 30.6519C29.3665 25.9529 33.5415 21.2771 37.7136 16.581L36.6917 16.8954C34.3538 17.6815 31.256 18.9945 28.0272 21.3062C25.2069 23.3545 22.727 25.8344 20.6788 28.6547C20.4692 28.972 20.2333 29.2603 20.0208 29.5747C20.9146 30.0725 21.8084 30.5995 22.6993 31.0974ZM22.018 34.2213C21.8266 33.8662 21.7265 33.469 21.7269 33.0655V32.8821C21.7269 32.8821 21.756 32.7511 21.756 32.6987L19.0484 31.176C16.3927 35.693 14.8963 40.7971 14.6929 46.033V48.2399C14.7715 50.7059 15.1121 53.0962 15.7177 55.3787C18.0527 48.6067 20.4167 41.8609 22.7517 35.086C22.4474 34.8544 22.197 34.5594 22.018 34.2213ZM53.8866 17.8154C53.826 18.0023 53.7377 18.1789 53.6246 18.3395C53.4475 18.6644 53.2541 18.9802 53.0452 19.2857C52.9142 19.4691 52.7832 19.6787 52.6521 19.8884C52.3093 20.3901 51.95 20.8805 51.5749 21.3586C51.3915 21.5682 51.2343 21.8041 51.0509 22.0399C51.0217 22.069 50.9984 22.1185 50.9722 22.1447C50.6316 22.5669 50.2619 23.0123 49.8688 23.4578C49.5777 23.7984 49.3156 24.1158 49.0012 24.4564C49.3972 24.9018 49.8426 25.3735 50.2881 25.9005C50.4453 26.0577 50.6025 26.2411 50.7364 26.4245C51.0509 26.7652 51.3391 27.1058 51.6273 27.4493L52.4687 28.4451C52.9928 29.103 53.4382 29.6795 53.808 30.2036C54.1224 30.6781 54.2796 31.0188 54.332 31.2808V31.3856C54.332 31.6476 54.201 31.9097 53.9652 32.1484H66.5135C66.5919 31.9421 66.6977 31.7472 66.8279 31.569L53.9885 17.1574V17.2098C53.9963 17.4165 53.9616 17.6226 53.8866 17.8154ZM61.4185 18.9683C61.3661 18.9421 61.3399 18.9159 61.2875 18.9159C60.9362 18.7255 60.5768 18.5507 60.2102 18.3919C60.1412 18.373 60.0781 18.337 60.0268 18.2871C59.6797 18.125 59.3302 17.9677 58.9787 17.8154C58.9001 17.7863 58.8477 17.763 58.7691 17.7368C58.3901 17.5715 58.0045 17.422 57.6132 17.2884C57.5608 17.2622 57.5084 17.2622 57.456 17.236C57.063 17.0788 56.6408 16.9478 56.2216 16.8168C60.2917 21.3848 64.359 25.9791 68.4554 30.5471C68.5078 30.5471 68.5864 30.518 68.6388 30.518H69.1891C69.3201 30.5471 69.5559 30.5733 69.8471 30.6781C69.8733 30.6781 69.8995 30.7043 69.9257 30.7305C69.9519 30.7567 70.0043 30.7567 70.0305 30.7829C70.2274 30.8837 70.412 31.0067 70.5807 31.1498C70.607 31.1498 70.607 31.176 70.6332 31.176C70.7118 31.2284 70.7642 31.307 70.8166 31.3594C71.6842 30.8615 72.5489 30.387 73.3903 29.8891C70.6328 25.6731 66.9292 22.1589 62.5743 19.6263H62.5481C62.1813 19.3905 61.7853 19.178 61.4185 18.9683ZM51.5749 31.7786C51.4439 31.6738 51.3391 31.569 51.2081 31.4642L50.3929 30.7305L49.9736 30.3084C49.5078 29.8555 49.061 29.3834 48.6344 28.8934C48.3199 28.5499 48.0317 28.2092 47.7435 27.8948C47.4523 27.5542 47.1379 27.2368 46.8497 26.9224C45.8801 27.921 45.0649 28.7857 44.3837 29.5223C44.2265 29.6795 44.0663 29.8629 43.9091 30.0201L43.8567 30.0725C43.5423 30.387 43.2802 30.6781 43.0182 30.9402L42.6514 31.307C42.3354 31.6151 42.002 31.9048 41.6527 32.1746H52.0204C51.9942 32.1455 51.9417 32.1222 51.9155 32.096C51.8107 31.9621 51.6826 31.8835 51.5749 31.7786ZM26.6909 32.1484H39.6584C39.606 32.096 39.5536 32.0145 39.5012 31.9621C39.4488 31.9097 39.4226 31.8311 39.3935 31.7786C39.3411 31.6476 39.2887 31.5166 39.2887 31.3856C39.2887 31.307 39.3178 31.2022 39.3411 31.0712C39.3411 31.0421 39.3702 31.0188 39.3702 30.9926C39.3935 30.9402 39.4226 30.8615 39.475 30.7829C39.5536 30.6257 39.6584 30.4394 39.7894 30.2589C39.8156 30.2298 39.8156 30.2036 39.8418 30.2036C40.6285 29.0978 41.4781 28.0382 42.3864 27.0301C42.5538 26.8305 42.7286 26.6372 42.9105 26.4507C43.0968 26.2673 43.254 26.0577 43.4375 25.8743C43.8305 25.4259 44.2235 24.9804 44.5671 24.5612C44.5933 24.5321 44.6195 24.5088 44.6195 24.4826C43.6614 23.372 42.7247 22.2431 41.81 21.0966C41.5479 20.753 41.3121 20.4124 41.0763 20.098C40.687 19.5489 40.3274 18.9794 39.999 18.3919L39.8418 18.0774C39.7894 17.9726 39.7632 17.8678 39.7108 17.7863C39.6584 17.6029 39.606 17.4457 39.606 17.3146L26.5832 31.9097C26.6123 31.9883 26.6647 32.0698 26.6909 32.1484ZM47.7959 79.1622C56.1807 78.8577 64.106 75.2539 69.8471 69.1352C62.4957 70.7627 55.1443 72.3902 47.7959 73.9915V79.1622ZM78.1941 51.9665C78.2204 51.8617 78.2204 51.7831 78.2466 51.6754C78.2728 51.4133 78.3252 51.1804 78.3514 50.9184V50.8893L78.43 50.0741C78.43 49.9984 78.4562 49.9198 78.4562 49.8412C78.4562 49.684 78.4824 49.55 78.4824 49.3928C78.5348 48.5776 78.561 47.8206 78.561 47.1103C78.5376 42.3343 77.4432 37.6245 75.3584 33.3275L75.2798 33.1703C75.175 32.9345 75.044 32.7249 74.9392 32.489L74.7819 32.1746C74.6509 31.9359 74.5199 31.6738 74.386 31.438C73.4165 31.9912 72.4703 32.5152 71.5008 33.0684C71.5008 33.1441 71.5008 33.2227 71.4716 33.3013C71.4484 33.4585 71.4192 33.5925 71.393 33.7235C71.3668 33.8021 71.3406 33.8545 71.3144 33.9331C71.2397 34.1269 71.143 34.3116 71.0262 34.4834C70.9738 34.5358 70.9476 34.5882 70.8952 34.6406C73.1807 41.2292 75.4632 47.7915 77.7458 54.3801C77.8797 53.8298 77.9845 53.2534 78.0893 52.7002C78.0893 52.6478 78.1155 52.5954 78.1155 52.5168C78.1475 52.3332 78.1737 52.1488 78.1941 51.9636V51.9665Z" fill="white"/>
<path d="M66.5364 33.9854C66.6951 34.3952 66.958 34.7565 67.2992 35.0335L46.7445 71.1818L26.1112 34.8763C26.3575 34.6175 26.5539 34.3154 26.6905 33.9854H66.5364ZM45.7721 57.6902C45.4111 57.6902 45.117 57.9814 45.117 58.3453V58.357C45.117 58.6772 45.3179 58.9305 45.5974 59.0033L45.7721 59.0266C45.8598 59.0278 45.9469 59.0112 46.028 58.9779C46.1092 58.9445 46.1827 58.895 46.2442 58.8324C46.3057 58.7699 46.3539 58.6955 46.3858 58.6137C46.4178 58.532 46.4328 58.4447 46.4301 58.357V58.3453C46.4301 58.259 46.413 58.1736 46.3799 58.094C46.3468 58.0143 46.2983 57.9419 46.2372 57.8811C46.176 57.8202 46.1035 57.772 46.0236 57.7393C45.9438 57.7065 45.8583 57.6899 45.7721 57.6902ZM40.2374 51.2269C40.1066 51.2267 39.9787 51.2657 39.8703 51.3389C39.7618 51.4121 39.6778 51.516 39.6289 51.6374L39.6057 51.7072L39.5824 51.8819C39.5824 52.2517 39.8706 52.5399 40.2374 52.5399C40.6043 52.5399 40.8925 52.2517 40.8925 51.8848C40.8925 51.518 40.6043 51.2269 40.2374 51.2269ZM50.7652 38.3117C49.4521 37.8255 48.6748 38.3554 48.337 38.7077L48.3108 38.7368C48.2326 38.8131 48.1659 38.9004 48.1129 38.9959C48.1129 39.0221 48.0837 39.0483 48.1129 39.0483C48.1129 39.0745 48.1391 39.0745 48.1653 39.1007C50.5002 40.2566 52.2617 41.1475 53.0215 41.5405L53.1001 41.5929C53.1788 41.6453 53.4146 41.7531 53.4408 41.9365C53.4728 42.0908 53.3738 42.248 53.2428 42.3878L53.1293 42.4984L52.9953 42.6178L52.8789 42.7167C52.579 42.9671 52.1772 43.2932 49.9762 45.008C49.8866 45.0984 49.7796 45.1697 49.6617 45.2177C49.5489 45.2798 49.4235 45.3157 49.2949 45.3225H49.2163C49.0853 45.3225 48.9776 45.3225 48.5321 45.1391C48.3403 45.0652 48.1337 45.0383 47.9294 45.0604L47.6674 45.1391C47.615 45.1653 47.5888 45.1915 47.5364 45.2177C47.5123 45.2403 47.487 45.2617 47.4607 45.2817L47.5102 45.2439C47.4428 45.2896 47.3803 45.3423 47.3239 45.4011C47.2977 45.4273 47.2977 45.4535 47.2977 45.4797C47.3384 45.4797 47.3646 45.4797 47.385 45.4913L47.3937 45.5146L47.4316 45.5321C47.484 45.5321 47.5102 45.5321 47.5626 45.5583C47.6272 45.5598 47.6904 45.5779 47.746 45.6107C47.9623 45.699 48.1675 45.8124 48.3574 45.9484L48.2177 45.8465C48.3288 45.926 48.4339 46.0136 48.5321 46.1086C48.6271 46.2068 48.7146 46.3119 48.7941 46.423L49.0329 46.7665L49.2425 47.0548C49.3018 47.1709 49.3458 47.2942 49.3735 47.4216C49.4255 47.6014 49.452 47.7876 49.4521 47.9748V48.2892C49.4521 48.3154 49.4521 48.3416 49.4783 48.3678L49.49 48.3737L49.5045 48.394H49.5831C49.6617 48.3416 49.7403 48.3154 49.7928 48.263C49.819 48.2106 49.8714 48.1844 49.8976 48.1582C49.9721 48.1068 50.0274 48.032 50.0548 47.9457C50.1596 47.7128 50.1596 47.474 50.1596 47.343C50.1072 46.8452 50.1596 46.7403 50.212 46.6355C50.212 46.6064 50.2411 46.5831 50.2411 46.5569C50.2879 46.4383 50.3582 46.3303 50.4478 46.2396C50.547 46.1445 50.6531 46.0569 50.7652 45.9775C51.7452 45.2713 52.7442 44.5917 53.761 43.9395L53.9416 43.8231C54.1745 43.695 54.518 43.4592 54.7568 43.5902C54.7884 43.6089 54.8169 43.6325 54.8412 43.66C54.9111 43.7736 54.946 43.9337 54.9635 44.0094L54.9926 44.1404C55.1469 45.0604 55.4642 46.95 55.8573 49.4684C55.8573 49.4975 55.8835 49.5208 55.8835 49.5208C55.8864 49.5382 55.8922 49.5499 55.9097 49.5499C55.9359 49.5732 55.9359 49.5732 55.9621 49.5732C55.9883 49.5732 57.4848 49.2325 57.38 47.2644L57.1703 42.5653V42.4489C57.1754 42.2042 57.2372 41.964 57.3509 41.7473C57.4645 41.5306 57.627 41.3432 57.8254 41.1999L59.2433 40.0732C59.2433 40.0732 60.108 39.4676 59.9507 38.5243C59.9245 38.4952 59.9245 38.4719 59.8983 38.4719L59.9187 38.4835C59.8983 38.4515 59.8867 38.4428 59.8721 38.4428C59.0074 37.9973 58.1922 38.6553 58.1922 38.6553L56.6696 39.6772C56.4614 39.8423 56.213 39.9488 55.9499 39.9857C55.6867 40.0225 55.4186 39.9884 55.1731 39.8868L53.7552 39.3919L50.7652 38.3117ZM38.9506 39.8868C38.7766 39.8876 38.61 39.9573 38.4872 40.0806C38.3644 40.2039 38.2955 40.3708 38.2955 40.5448V40.5565C38.2955 40.8767 38.4964 41.1271 38.7759 41.2028L38.9506 41.2261C39.0383 41.2273 39.1254 41.2107 39.2065 41.1774C39.2877 41.144 39.3612 41.0945 39.4227 41.0319C39.4842 40.9694 39.5324 40.895 39.5643 40.8132C39.5963 40.7315 39.6113 40.6442 39.6086 40.5565V40.5448C39.6086 40.3703 39.5392 40.2029 39.4158 40.0795C39.2924 39.9562 39.1251 39.8868 38.9506 39.8868ZM43.9117 36.6056C43.7377 36.6064 43.571 36.6761 43.4483 36.7994C43.3255 36.9227 43.2566 37.0896 43.2566 37.2636V37.2753C43.2566 37.5955 43.4575 37.8459 43.737 37.9216L43.9117 37.9449C43.9994 37.9461 44.0865 37.9296 44.1676 37.8962C44.2488 37.8628 44.3223 37.8133 44.3838 37.7508C44.4453 37.6882 44.4935 37.6138 44.5254 37.532C44.5574 37.4503 44.5724 37.363 44.5696 37.2753V37.2636C44.5696 37.0891 44.5003 36.9218 44.3769 36.7984C44.2535 36.675 44.0862 36.6056 43.9117 36.6056ZM31.9166 36.6056C31.8301 36.6056 31.7446 36.6227 31.6648 36.6557C31.5849 36.6888 31.5124 36.7373 31.4513 36.7984C31.3902 36.8595 31.3417 36.932 31.3087 37.0118C31.2756 37.0917 31.2586 37.1772 31.2586 37.2636L31.2615 37.2753C31.2615 37.5955 31.4595 37.8459 31.739 37.9216L31.9136 37.9449C32.0014 37.9461 32.0885 37.9296 32.1696 37.8962C32.2508 37.8628 32.3243 37.8133 32.3858 37.7508C32.4473 37.6882 32.4955 37.6138 32.5274 37.532C32.5593 37.4503 32.5744 37.363 32.5716 37.2753V37.2636C32.5716 36.8997 32.2805 36.6056 31.9166 36.6056ZM23.4093 66.1683C23.5142 65.6676 23.6423 65.1435 23.8024 64.5379L23.9596 63.9091C24.1954 63.0706 24.4575 62.1768 24.7748 61.2597C24.8505 61.0238 24.9291 60.8113 24.9815 60.6017C25.1154 60.1824 25.2436 59.7632 25.3775 59.3701C25.4263 59.1819 25.4876 58.9971 25.5609 58.817C24.8505 58.6597 24.012 58.4501 23.1182 58.2638C22.2385 58.0671 21.3639 57.8486 20.495 57.6087C19.8632 57.4253 19.2868 57.2681 18.7889 57.0847C18.6055 57.0323 18.4454 56.9537 18.2881 56.9012C18.1008 56.8322 17.9171 56.7535 17.7379 56.6654C17.6002 56.5986 17.4686 56.5197 17.3448 56.4296C17.109 57.0847 16.8965 57.7397 16.6606 58.3977C17.7903 61.4169 19.3392 64.2002 21.2811 66.7186C21.9653 66.8758 22.6203 67.0097 23.3016 67.164C23.2933 66.8288 23.3295 66.494 23.4093 66.1683ZM17.9999 54.4877C18.2095 54.4586 18.4192 54.4324 18.6841 54.4324C19.2868 54.4324 19.9942 54.4615 20.8094 54.5401C21.6479 54.6187 22.5679 54.7497 23.5666 54.9331C24.5885 55.1165 25.6395 55.3 26.7167 55.5358C27.005 54.7206 27.2932 53.8559 27.6076 52.9126C28.0449 51.6269 28.5265 50.3568 29.0517 49.1044C29.1987 48.7678 29.356 48.4357 29.5234 48.1087C29.6282 47.87 29.733 47.6866 29.8407 47.5293C29.9254 47.3986 30.0219 47.2758 30.1289 47.1625C30.1836 47.1104 30.2453 47.0663 30.3124 47.0315C30.431 46.9605 30.5672 46.9242 30.7054 46.9267L24.4866 35.8225L18.0028 54.4848L17.9999 54.4877ZM34.5106 60.6803C34.301 60.6279 34.0652 60.6017 33.8556 60.5493C33.3897 60.4632 32.9257 60.3671 32.4639 60.261L31.7564 60.1038C30.784 59.8942 29.8931 59.7108 29.0517 59.5506C28.8683 60.0776 28.6849 60.5755 28.4752 61.1024C28.298 61.5987 28.1048 62.089 27.8959 62.5727C27.7124 63.0444 27.529 63.4898 27.3456 63.9353C27.1712 64.3425 26.9867 64.7454 26.7924 65.1435C26.4871 65.7927 26.1459 66.4245 25.7705 67.0359C25.6651 67.2364 25.5329 67.4215 25.3775 67.5862L45.0122 71.9155L38.476 60.7065L38.3712 60.8113C38.3255 60.8561 38.2723 60.8925 38.214 60.919C37.9782 61.05 37.5298 61.0762 36.8456 61.0238C36.2841 60.9628 35.7248 60.8831 35.1686 60.7851C34.9328 60.7589 34.7232 60.7065 34.5106 60.6803ZM32.0447 50.1555C31.9923 50.4175 31.9136 50.7086 31.835 51.0201L31.6778 51.6519C31.4944 52.2808 31.3081 52.9388 31.0722 53.6201C30.9119 54.0713 30.7634 54.5266 30.6268 54.9855C30.4696 55.431 30.3356 55.8764 30.1813 56.2957C30.8888 56.482 31.573 56.6392 32.1757 56.7964C32.4901 56.875 32.7783 56.9536 33.0695 57.0061C33.3577 57.0847 33.6197 57.1371 33.8818 57.2157C34.0128 57.2448 34.1438 57.2681 34.2486 57.3205L34.6184 57.3991C34.8513 57.4515 35.0638 57.5039 35.2734 57.5825C35.6927 57.6902 36.0886 57.7951 36.4031 57.8999C36.7175 57.9785 36.9795 58.0833 37.2183 58.1619L32.2281 49.3927C32.1485 49.6421 32.0872 49.8971 32.0447 50.1555ZM28.8683 73.8079C29.3923 74.1486 29.9455 74.4892 30.5482 74.8298C32.1757 75.7761 33.7246 76.4835 35.1162 77.0367C35.5093 77.1939 35.9023 77.3512 36.3507 77.5084C39.432 78.5503 42.6541 79.1168 45.906 79.1883V74.0176C38.345 72.3639 30.8102 70.684 23.2492 69.0303C24.9483 70.8159 26.8319 72.4164 28.8683 73.805V73.8079Z" fill="white"/>
</g>
<defs>
<clipPath id="clip0_342_4805">
<rect width="93.1659" height="93.1659" fill="white" transform="translate(0.0297852 0.68457)"/>
</clipPath>
</defs>
</svg>
