<svg width="94" height="94" viewBox="0 0 94 94" fill="none" xmlns="http://www.w3.org/2000/svg">
<g clip-path="url(#clip0_342_4811)">
<path d="M47.1254 93.8504C72.8525 93.8504 93.7084 72.9946 93.7084 47.2675C93.7084 21.5405 72.8525 0.68457 47.1254 0.68457C21.3984 0.68457 0.54248 21.5405 0.54248 47.2675C0.54248 72.9946 21.3984 93.8504 47.1254 93.8504Z" fill="#343434"/>
<path d="M70.1757 62.145C70.6892 61.9683 71.1301 61.6272 71.4301 61.1745C71.7301 60.7219 71.8725 60.1829 71.8352 59.6412V62.8438C71.839 63.3886 71.6746 63.9213 71.3647 64.3694C71.0547 64.8174 70.6141 65.159 70.1029 65.3476L48.011 73.3045C47.4538 73.5263 46.8329 73.5263 46.2757 73.3045L24.1838 65.3505C23.6702 65.1656 23.2272 64.8249 22.9167 64.376C22.6061 63.9271 22.4435 63.3925 22.4515 62.8467V59.6441C22.4515 60.7475 23.1357 61.7782 24.1838 62.1479L46.3485 70.102C46.9048 70.3229 47.5245 70.3229 48.0808 70.102L70.1757 62.145ZM70.1757 56.4735C70.684 56.289 71.1197 55.9461 71.4184 55.4953C71.7172 55.0446 71.8633 54.5098 71.8352 53.9697V57.1723C71.839 57.7171 71.6746 58.2498 71.3647 58.6979C71.0547 59.1459 70.6141 59.4875 70.1029 59.6761L48.011 67.6331C47.4538 67.8548 46.8329 67.8548 46.2757 67.6331L24.1838 59.679C23.6702 59.4941 23.2272 59.1534 22.9167 58.7045C22.6061 58.2556 22.4435 57.721 22.4515 57.1752V53.9348C22.4515 55.0761 23.1357 56.0689 24.1838 56.4735L46.3485 64.4305C46.9048 64.6514 47.5245 64.6514 48.0808 64.4305L70.1757 56.4735ZM70.1757 50.7671C70.6819 50.5858 71.1183 50.2498 71.4229 49.8067C71.7275 49.3636 71.885 48.8358 71.8731 48.2982V51.5008C71.8766 52.046 71.7119 52.579 71.4013 53.0271C71.0908 53.4752 70.6496 53.8165 70.1379 54.0046L48.0459 61.9616C47.4896 62.1825 46.8699 62.1825 46.3136 61.9616L24.1838 53.9697C23.6702 53.7848 23.2272 53.4441 22.9167 52.9952C22.6061 52.5463 22.4435 52.0117 22.4515 51.4659V48.2633C22.4515 49.3667 23.1357 50.3974 24.1838 50.7671L46.3485 58.7212C46.9048 58.9421 47.5245 58.9421 48.0808 58.7212L70.1757 50.7671ZM22.3787 31.7264C22.3707 31.1806 22.5333 30.6459 22.8439 30.197C23.1544 29.7481 23.5974 29.4074 24.111 29.2225L46.2408 21.2306C46.7971 21.0097 47.4168 21.0097 47.9731 21.2306L70.1029 29.2225C70.6165 29.4074 71.0595 29.7481 71.37 30.197C71.6806 30.6459 71.8432 31.1806 71.8352 31.7264V45.7944C71.839 46.3392 71.6746 46.872 71.3647 47.32C71.0547 47.7681 70.6141 48.1097 70.1029 48.2982L47.9382 56.2523C47.3819 56.4732 46.7622 56.4732 46.2059 56.2523L24.111 48.2982C23.5974 48.1133 23.1544 47.7726 22.8439 47.3237C22.5333 46.8749 22.3707 46.3402 22.3787 45.7944V31.7264Z" fill="white"/>
</g>
<defs>
<clipPath id="clip0_342_4811">
<rect width="93.1659" height="93.1659" fill="white" transform="translate(0.543457 0.68457)"/>
</clipPath>
</defs>
</svg>
