<svg width="94" height="94" viewBox="0 0 94 94" fill="none" xmlns="http://www.w3.org/2000/svg">
<g clip-path="url(#clip0_342_4815)">
<path d="M46.6406 93.8504C72.3676 93.8504 93.2235 72.9946 93.2235 47.2675C93.2235 21.5405 72.3676 0.68457 46.6406 0.68457C20.9135 0.68457 0.0576172 21.5405 0.0576172 47.2675C0.0576172 72.9946 20.9135 93.8504 46.6406 93.8504Z" fill="#0061FF"/>
<path d="M46.6698 18.1533L75.755 47.6753L74.6632 48.6651C74.1669 49.1341 73.6501 49.5809 73.1144 50.0044C72.1652 50.7643 71.1637 51.5213 70.1563 52.1938C66.083 54.9518 61.5524 56.9647 56.7754 58.1389C53.468 58.9541 50.0733 59.3617 46.6698 59.3617C42.3609 59.3617 38.0811 58.7212 33.976 57.4111C29.7763 56.0919 25.8129 54.1137 22.2342 51.5504C20.9967 50.6428 19.7999 49.6811 18.6473 48.6681L17.5264 47.6753L20.7144 44.4377L46.6698 18.1533ZM72.1099 48.636C72.5408 48.2867 72.9688 47.9373 73.3444 47.5588L46.6407 20.5116L19.9399 47.5588L20.4844 48.0246C21.3753 48.7525 22.2633 49.4803 23.1833 50.1209C30.0254 55.0372 38.2446 57.6689 46.6698 57.6411C49.9504 57.6374 53.2185 57.2366 56.4027 56.4474C60.9925 55.3135 65.3466 53.3798 69.2654 50.7352C70.2495 50.0888 71.1986 49.3872 72.1099 48.6389V48.636ZM28.3511 47.2385C33.9734 44.7335 40.0548 43.4239 46.2098 43.3925C53.4476 43.3925 60.5661 45.3141 66.7966 48.9883L67.2012 49.2212L66.7966 49.4833C62.6797 52.1261 58.0855 53.938 53.2729 54.817L53.1594 54.8461L53.0721 54.7879C45.74 50.2197 37.2751 47.7961 28.6364 47.7917H27.0584L28.3511 47.2385ZM53.503 53.0672C57.1481 52.3685 60.6243 51.1166 63.8385 49.3086C58.3704 46.5211 52.3183 45.0723 46.1807 45.0812C42.4832 45.0812 38.806 45.5761 35.2424 46.566C41.7058 47.4394 47.9188 49.6521 53.503 53.0672ZM63.1223 58.8086C61.8253 60.573 60.4457 62.2752 58.9881 63.9094L46.6698 76.382L37.9996 67.6098L39.8338 67.4934C45.9672 67.1136 51.9311 65.3285 57.2645 62.2761C58.8716 61.49 63.1223 58.8086 63.1223 58.8086ZM41.732 69.0102L46.6698 74.0208L55.3983 65.1613C51.0978 67.2199 46.4747 68.5219 41.732 69.0102Z" fill="white"/>
</g>
<defs>
<clipPath id="clip0_342_4815">
<rect width="93.1659" height="93.1659" fill="white" transform="translate(0.0576172 0.68457)"/>
</clipPath>
</defs>
</svg>
