<svg width="94" height="94" viewBox="0 0 94 94" fill="none" xmlns="http://www.w3.org/2000/svg">
<g clip-path="url(#clip0_342_4819)">
<path d="M47.1557 93.8504C72.8827 93.8504 93.7386 72.9946 93.7386 47.2675C93.7386 21.5405 72.8827 0.68457 47.1557 0.68457C21.4286 0.68457 0.572754 21.5405 0.572754 47.2675C0.572754 72.9946 21.4286 93.8504 47.1557 93.8504Z" fill="#346FCE"/>
<path fill-rule="evenodd" clip-rule="evenodd" d="M59.2676 55.1458L62.0509 60.3777C63.6342 63.356 63.9696 66.8412 62.9836 70.0668C61.9976 73.2925 59.7708 75.9944 56.7929 77.5784L56.4319 77.7706C54.957 78.555 53.3421 79.0412 51.6793 79.2015C50.0166 79.3617 48.3385 79.1929 46.741 78.7047C45.1435 78.2164 43.6578 77.4183 42.3687 76.3558C41.0797 75.2934 40.0125 73.9874 39.2282 72.5126L29.8446 54.8634C28.319 51.9944 27.9492 48.6504 28.8111 45.5173C29.673 42.3843 31.7012 39.6999 34.4796 38.015L31.6963 32.7831C30.1133 29.8045 29.7782 26.319 30.7648 23.0933C31.7514 19.8676 33.9789 17.1659 36.9573 15.5824L37.3183 15.3902C40.2966 13.807 43.7818 13.4715 47.0074 14.4575C50.2331 15.4436 52.935 17.6704 54.519 20.6483L63.9026 38.2974C65.4285 41.166 65.7987 44.5099 64.9374 47.6429C64.076 50.7758 62.0484 53.4604 59.2705 55.1458H59.2676ZM59.2676 55.1458L52.6674 42.7286C51.0833 39.7507 48.3814 37.5239 45.1558 36.5378C41.9301 35.5518 38.4449 35.8873 35.4666 37.4705L35.1056 37.6598C34.8931 37.7762 34.6834 37.8927 34.4796 38.015L41.0828 50.4322C42.6668 53.4101 45.3687 55.6369 48.5944 56.623C51.82 57.609 55.3052 57.2735 58.2835 55.6903L58.6445 55.501C58.8571 55.3846 59.0667 55.2681 59.2705 55.1458H59.2676Z" fill="white"/>
</g>
<defs>
<clipPath id="clip0_342_4819">
<rect width="93.1659" height="93.1659" fill="white" transform="translate(0.571777 0.68457)"/>
</clipPath>
</defs>
</svg>
