<svg width="94" height="94" viewBox="0 0 94 94" fill="none" xmlns="http://www.w3.org/2000/svg">
<g clip-path="url(#clip0_342_4823)">
<path d="M46.6674 93.8504C72.3945 93.8504 93.2503 72.9946 93.2503 47.2675C93.2503 21.5405 72.3945 0.68457 46.6674 0.68457C20.9404 0.68457 0.0844727 21.5405 0.0844727 47.2675C0.0844727 72.9946 20.9404 93.8504 46.6674 93.8504Z" fill="#2E3148"/>
<path d="M46.7257 16.7847C42.9554 16.7847 39.8984 30.4597 39.8984 47.3256C39.8984 64.1915 42.9554 77.8665 46.7257 77.8665C50.4931 77.8665 53.5501 64.1915 53.5501 47.3256C53.5501 30.4597 50.4931 16.7847 46.7257 16.7847ZM47.1974 76.1401C46.7665 76.7165 46.3327 76.2856 46.3327 76.2856C44.5975 74.2709 43.7299 70.5356 43.7299 70.5356C40.6933 60.7619 41.4153 39.7792 41.4153 39.7792C42.8419 23.1229 45.4389 19.1866 46.3211 18.3132C46.4114 18.2236 46.5306 18.1689 46.6574 18.1588C46.7842 18.1486 46.9106 18.1837 47.014 18.2579C48.295 19.1691 49.3722 22.9656 49.3722 22.9656C52.5457 34.7511 52.2575 45.8146 52.2575 45.8146C52.5457 55.4456 50.6678 66.2237 50.6678 66.2237C49.2208 74.4165 47.1974 76.1401 47.1974 76.1401Z" fill="white"/>
<path d="M73.2142 32.1284C71.3363 28.856 57.9583 33.0106 43.3225 41.4043C28.6867 49.7979 18.3628 59.2513 20.2348 62.5238C22.1127 65.7962 35.4937 61.6416 50.1294 53.248C64.7652 44.8543 75.0921 35.398 73.2171 32.1284H73.2142ZM21.9642 62.0725C21.248 61.9852 21.4111 61.3912 21.4111 61.3912C22.2903 58.8874 25.0969 56.2729 25.0969 56.2729C32.064 48.776 50.6273 38.9616 50.6273 38.9616C65.7842 31.9101 70.492 32.207 71.6857 32.5331C71.809 32.5669 71.9162 32.6435 71.9882 32.7491C72.0602 32.8547 72.0923 32.9825 72.0787 33.1096C71.9332 34.673 69.1673 37.4971 69.1673 37.4971C60.532 46.1179 50.7903 51.3788 50.7903 51.3788C42.5801 56.4214 32.294 60.151 32.294 60.151C24.4681 62.9692 21.9642 62.0725 21.9642 62.0725Z" fill="white"/>
<path d="M73.1472 62.631C75.0396 59.3702 64.7419 49.8701 50.1527 41.4124C35.5664 32.9576 22.1913 28.7535 20.3018 32.0201C18.4093 35.2897 28.71 44.781 43.3021 53.2387C57.8971 61.6935 71.2577 65.8976 73.1472 62.631ZM21.5566 33.2808C21.2742 32.617 21.8652 32.4569 21.8652 32.4569C24.4768 31.9619 28.1452 33.0886 28.1452 33.0886C38.1226 35.3596 55.9144 46.5045 55.9144 46.5045C69.6127 56.089 71.7148 60.3135 72.0292 61.5101C72.061 61.633 72.0484 61.7632 71.9935 61.8778C71.9387 61.9923 71.8451 62.0838 71.7293 62.136C70.3027 62.7911 66.4742 61.8158 66.4742 61.8158C54.6829 58.6539 45.2527 52.8631 45.2527 52.8631C36.7805 48.2921 28.4014 41.261 28.4014 41.261C22.0341 35.8982 21.5595 33.2837 21.5595 33.2837L21.5537 33.2808H21.5566Z" fill="white"/>
<path d="M46.6533 50.8456C48.6375 50.8456 50.246 49.2371 50.246 47.2529C50.246 45.2687 48.6375 43.6602 46.6533 43.6602C44.6691 43.6602 43.0605 45.2687 43.0605 47.2529C43.0605 49.2371 44.6691 50.8456 46.6533 50.8456Z" fill="white"/>
<path d="M61.3851 36.3673C62.993 36.3673 64.2965 35.0638 64.2965 33.4559C64.2965 31.8479 62.993 30.5444 61.3851 30.5444C59.7771 30.5444 58.4736 31.8479 58.4736 33.4559C58.4736 35.0638 59.7771 36.3673 61.3851 36.3673Z" fill="white"/>
<path d="M27.1785 43.6979C28.7865 43.6979 30.09 42.3944 30.09 40.7864C30.09 39.1785 28.7865 37.875 27.1785 37.875C25.5706 37.875 24.2671 39.1785 24.2671 40.7864C24.2671 42.3944 25.5706 43.6979 27.1785 43.6979Z" fill="white"/>
<path d="M42.4139 70.1398C44.0218 70.1398 45.3253 68.8363 45.3253 67.2283C45.3253 65.6204 44.0218 64.3169 42.4139 64.3169C40.8059 64.3169 39.5024 65.6204 39.5024 67.2283C39.5024 68.8363 40.8059 70.1398 42.4139 70.1398Z" fill="white"/>
</g>
<defs>
<clipPath id="clip0_342_4823">
<rect width="93.1659" height="93.1659" fill="white" transform="translate(0.0854492 0.68457)"/>
</clipPath>
</defs>
</svg>
