<svg width="94" height="94" viewBox="0 0 94 94" fill="none" xmlns="http://www.w3.org/2000/svg">
<g clip-path="url(#clip0_342_4834)">
<path d="M93.7655 47.2675C93.7655 56.4807 91.0335 65.4871 85.9149 73.1476C80.7963 80.8081 73.521 86.7788 65.0091 90.3045C56.4972 93.8303 47.1309 94.7528 38.0947 92.9554C29.0585 91.158 20.7582 86.7214 14.2435 80.2066C7.72872 73.6919 3.29212 65.3916 1.49471 56.3554C-0.302704 47.3192 0.619793 37.9529 4.14555 29.441C7.6713 20.9291 13.6419 13.6538 21.3025 8.53521C28.963 3.41661 37.9693 0.68457 47.1826 0.68457C59.5371 0.68457 71.3857 5.5924 80.1217 14.3284C88.8577 23.0644 93.7655 34.9129 93.7655 47.2675Z" fill="#001B69"/>
<path d="M45.2389 65.2483L41.292 53.8947H27.8592L23.8658 65.2483H19.2329L32.4709 28.4604H36.6592L49.9184 65.2483H45.2389ZM39.8395 49.7616L36.1722 39.1364C36.0733 38.8372 35.9505 38.4687 35.8037 38.0311C35.6725 37.6076 35.5327 37.1291 35.3802 36.6294C35.2278 36.1297 35.0838 35.6088 34.9356 35.0752C34.7874 34.5416 34.6519 33.9911 34.5121 33.4702C34.3935 33.9911 34.2623 34.5247 34.114 35.0752C33.9658 35.6258 33.8218 36.1636 33.6906 36.6802C33.5593 37.1969 33.3941 37.65 33.2671 38.0819C33.14 38.5139 33.0215 38.8527 32.9198 39.1364L29.3456 49.7616H39.8395Z" fill="white"/>
<path d="M75.1319 54.0728C75.1464 55.1642 74.9359 56.2468 74.5137 57.2532C74.1087 58.199 73.5033 59.0457 72.7393 59.7348C71.922 60.478 70.9802 61.0715 69.957 61.488C68.7708 61.9685 67.5286 62.2972 66.26 62.4662V68.2298H62.8722V62.6907C62.0506 62.6907 61.222 62.6582 60.3863 62.5933C59.5507 62.5284 58.7362 62.4112 57.9428 62.2418C57.193 62.1004 56.452 61.9152 55.7238 61.687C55.0945 61.4952 54.4848 61.2442 53.9028 60.9375V56.6264C54.4449 56.8918 55.0688 57.1741 55.7746 57.4734C56.4988 57.7444 57.2526 57.9858 58.0445 58.2018C58.8364 58.4178 59.6368 58.6041 60.4583 58.7523C61.2562 58.8844 62.0634 58.9524 62.8722 58.9556V48.0552C61.5668 47.6188 60.2933 47.0924 59.0608 46.4798C58.0852 45.9897 57.1887 45.3559 56.4014 44.5996C55.702 43.9025 55.1579 43.0655 54.8048 42.1434C54.4417 41.1057 54.2667 40.0114 54.2882 38.9122C54.2733 37.8631 54.4751 36.8222 54.8811 35.8547C55.2798 34.9331 55.8669 34.1051 56.6046 33.4239C57.4001 32.7026 58.3179 32.1289 59.3149 31.73C60.4451 31.2614 61.6354 30.9535 62.851 30.8153V26.3052H66.2388V30.7136C67.7685 30.7811 69.2877 30.9995 70.7743 31.3658C72.0609 31.6803 73.3144 32.1171 74.5179 32.6701L72.8917 36.3036C71.8853 35.8544 70.8479 35.4779 69.7876 35.1771C68.6322 34.8254 67.4425 34.5982 66.2388 34.4995V45.0866C67.5393 45.5473 68.8119 46.0832 70.0502 46.6916C71.0683 47.1746 72.0077 47.8085 72.8367 48.5718C73.5701 49.2303 74.1486 50.0431 74.5306 50.9518C74.9388 51.9411 75.1433 53.0026 75.1319 54.0728ZM70.7955 54.0728C70.8019 53.5609 70.7173 53.0519 70.5456 52.5695C70.3857 52.0904 70.116 51.6553 69.758 51.299C69.3605 50.8722 68.8938 50.5157 68.3774 50.2446C67.6967 49.881 66.9888 49.5709 66.26 49.3171V58.7015C67.7888 58.4686 68.9195 57.9435 69.6479 57.1261C70.4151 56.2977 70.8272 55.2016 70.7955 54.0728ZM58.6162 38.9588C58.6103 39.5087 58.6772 40.0569 58.8152 40.5892C58.9682 41.0657 59.2111 41.5085 59.5309 41.8935C59.9046 42.3133 60.3454 42.6682 60.8352 42.9438C61.4788 43.3071 62.1551 43.6091 62.8552 43.8458V34.6012C61.3956 34.8666 60.32 35.3761 59.6283 36.1299C58.9379 36.9066 58.5751 37.9205 58.6162 38.9588Z" fill="white"/>
</g>
<defs>
<clipPath id="clip0_342_4834">
<rect width="93.1659" height="93.1659" fill="white" transform="translate(0.599609 0.68457)"/>
</clipPath>
</defs>
</svg>
