<svg width="94" height="94" viewBox="0 0 94 94" fill="none" xmlns="http://www.w3.org/2000/svg">
<g clip-path="url(#clip0_342_4838)">
<path d="M46.6962 93.8504C72.4233 93.8504 93.2792 72.9946 93.2792 47.2675C93.2792 21.5405 72.4233 0.68457 46.6962 0.68457C20.9692 0.68457 0.113281 21.5405 0.113281 47.2675C0.113281 72.9946 20.9692 93.8504 46.6962 93.8504Z" fill="#34318A"/>
<path d="M31.7144 39.3019L42.2247 44.8918L47.8146 42.0968L34.4541 34.859V22.1128L60.1416 35.4471L65.7316 32.6522L32.8324 15.4048C32.4572 15.2077 32.0375 15.1109 31.614 15.1237C31.1904 15.1365 30.7773 15.2585 30.4147 15.4778C30.0521 15.6972 29.7524 16.0065 29.5445 16.3757C29.3366 16.745 29.2276 17.1617 29.228 17.5855V35.2492C29.2368 36.9582 30.1946 38.5216 31.7144 39.3019ZM71.767 36.338C71.4036 35.9851 70.9402 35.7529 70.44 35.6731C69.9397 35.5934 69.4271 35.6701 68.972 35.8926L31.7144 55.2332C30.1859 56.0193 29.2251 57.5944 29.228 59.3151V76.9496C29.2276 77.3734 29.3366 77.7901 29.5445 78.1594C29.7524 78.5286 30.0521 78.8379 30.4147 79.0573C30.7773 79.2767 31.1904 79.3986 31.614 79.4114C32.0375 79.4242 32.4572 79.3274 32.8324 79.1303L70.0056 59.8449C71.5574 59.0414 72.521 57.4285 72.4948 55.6816V38.0732C72.4949 37.7502 72.4306 37.4303 72.3056 37.1324C72.1806 36.8344 71.9975 36.5644 71.767 36.338ZM67.295 55.373L34.4541 72.4223V59.6761L67.295 42.6267V55.373Z" fill="white"/>
</g>
<defs>
<clipPath id="clip0_342_4838">
<rect width="93.1659" height="93.1659" fill="white" transform="translate(0.113281 0.68457)"/>
</clipPath>
</defs>
</svg>
