<svg width="94" height="94" viewBox="0 0 94 94" fill="none" xmlns="http://www.w3.org/2000/svg">
<g clip-path="url(#clip0_342_4842)">
<path d="M47.2094 93.8504C72.9364 93.8504 93.7923 72.9946 93.7923 47.2675C93.7923 21.5405 72.9364 0.68457 47.2094 0.68457C21.4824 0.68457 0.626465 21.5405 0.626465 47.2675C0.626465 72.9946 21.4824 93.8504 47.2094 93.8504Z" fill="#FAB431"/>
<path fill-rule="evenodd" clip-rule="evenodd" d="M71.9568 56.7793L59.7724 49.4687L61.1699 43.6779L66.3726 46.7494V36.1751L49.661 26.2122V49.2125L45.6869 51.4106L67.6333 64.4247L47.2096 76.382L22.4624 61.8889V32.9056L47.2096 18.1533L71.9568 32.9056V56.7793ZM28.0465 36.1751V55.0354L44.1118 45.7188V26.5965L28.0465 36.1722V36.1751ZM39.9747 54.6452L30.8386 60.2323L47.2096 69.8167L56.4534 64.4014L39.9747 54.6423V54.6452Z" fill="white"/>
</g>
<defs>
<clipPath id="clip0_342_4842">
<rect width="93.1659" height="93.1659" fill="white" transform="translate(0.627441 0.68457)"/>
</clipPath>
</defs>
</svg>
