<svg width="94" height="94" viewBox="0 0 94 94" fill="none" xmlns="http://www.w3.org/2000/svg">
<g clip-path="url(#clip0_342_4846)">
<path d="M46.7245 93.8504C72.4516 93.8504 93.3075 72.9946 93.3075 47.2675C93.3075 21.5405 72.4516 0.68457 46.7245 0.68457C20.9975 0.68457 0.141602 21.5405 0.141602 47.2675C0.141602 72.9946 20.9975 93.8504 46.7245 93.8504Z" fill="#3355B5"/>
<path d="M46.7243 12.3301C27.4302 12.3301 11.7871 27.9732 11.7871 47.2673C11.7871 66.5613 27.4302 82.2045 46.7243 82.2045C66.0184 82.2045 81.6615 66.5613 81.6615 47.2673C81.6615 38.0014 77.9806 29.1149 71.4286 22.5629C64.8766 16.011 55.9902 12.3301 46.7243 12.3301ZM46.7243 81.5349C27.8 81.5349 12.4567 66.1916 12.4567 47.2673C12.4567 28.343 27.8 12.9997 46.7243 12.9997C65.6486 12.9997 80.9919 28.343 80.9919 47.2673C80.9919 56.3556 77.3816 65.0717 70.9551 71.4981C64.5287 77.9245 55.8126 81.5349 46.7243 81.5349Z" fill="white"/>
<path fill-rule="evenodd" clip-rule="evenodd" d="M56.303 39.9887L56.2157 39.6684L56.1283 39.3481L56.041 38.9988L55.9245 38.7076L55.8372 38.3874L55.7207 38.0962L55.5752 37.776L55.4587 37.4848L55.3131 37.2228L55.1676 36.9316L55.022 36.6696L54.8473 36.4076L54.7017 36.1747L54.527 35.9126L54.3524 35.7088L54.1486 35.4759L53.9739 35.2721L53.7992 35.0683L53.5954 34.8936L53.3916 34.719L53.1878 34.5443L52.984 34.3987L52.7511 34.2531L52.5473 34.1367L52.3144 33.9911L52.1106 33.9038L51.8776 33.7873L51.6447 33.7L51.4118 33.6126L51.1498 33.5544L50.9169 33.4962L50.684 33.4379L50.4219 33.4088L50.1599 33.3797L49.927 33.3506H49.1409L48.8789 33.3797L48.6168 33.4088L48.3257 33.4379L48.0637 33.4962L47.8016 33.5544L47.5396 33.6126L47.2485 33.7L46.9864 33.7873L46.6953 33.8746L46.4041 33.9911L46.1421 34.1076L45.851 34.2531L45.5889 34.3696L45.2978 34.5152L45.0067 34.6898L44.7446 34.8354L44.4535 35.0101L44.1623 35.2139L43.9003 35.3886L43.6092 35.5924L43.318 35.8253L43.0269 36.0291L42.7649 36.262L42.4737 36.4949L42.2117 36.757L41.9205 37.019L41.6294 37.281L41.3674 37.5722L41.0762 37.8633L40.8142 38.1545L40.5522 38.4456L40.261 38.7659L39.999 39.0861L39.737 39.4064L39.4749 39.7557L39.2129 40.1051L38.9509 40.4836L38.6015 40.9785L38.2521 41.5026L37.9028 42.0558L37.5825 42.5798L37.2622 43.1621L36.942 43.7153L36.6508 44.2685L36.3597 44.8507L36.0977 45.433L35.8356 46.0153L35.6027 46.5976L35.3989 47.0634L56.3321 40.2216L56.303 39.9887ZM37.4078 50.2078L55.9536 50.0622L56.041 49.6546L56.1283 49.247L56.2157 48.8394L56.303 48.4027L56.3612 47.9951L56.4486 47.5875L56.5068 47.1799L56.5359 46.7723L56.5942 46.3647L56.6233 45.9571L56.6524 45.5786L56.6815 45.171L56.7106 44.7634V43.9191L37.4078 50.2078Z" fill="white"/>
<path d="M46.7243 13.9609C28.3298 13.9609 13.4175 28.8733 13.4175 47.2677C13.4175 65.6622 28.3298 80.5745 46.7243 80.5745C65.1187 80.5745 80.0311 65.6622 80.0311 47.2677C80.0311 42.8938 79.1696 38.5627 77.4958 34.5218C75.8219 30.4808 73.3686 26.8091 70.2757 23.7163C67.1829 20.6235 63.5112 18.1701 59.4702 16.4963C55.4293 14.8224 51.0982 13.9609 46.7243 13.9609ZM65.5904 49.9463L65.0081 53.3817H59.7966L59.6219 53.964L59.3017 54.8375L58.9814 55.7109L58.632 56.5843L58.37 57.4578L57.9915 58.3021L57.5839 59.1464L57.1763 59.9907L56.7396 60.8059L56.3029 61.6211L55.8371 62.4072L55.3712 63.1933L54.8763 63.9794L54.294 64.7363L54.032 65.1148L53.77 65.4933L51.0623 60.9515L51.3243 60.573L51.5864 60.1945L51.8193 59.816L52.0522 59.4375L52.2851 59.059L52.518 58.6806L52.7509 58.3021L52.9547 57.9236L53.1585 57.516L53.3624 57.1084L53.5662 56.7008L53.77 56.2932L53.9446 55.8856L54.1193 55.478L54.294 55.0704L54.4687 54.6628L54.6434 54.2552L54.789 53.8476V53.4982L33.6228 53.6729V59.059L28.2076 62.8148V53.6729H26.6354L26.0531 53.8767L25.0632 50.4121L29.9544 48.8108V48.4323L30.1582 47.8209L30.4494 47.2677L30.6532 46.6854L30.8861 46.1032L31.119 45.5209L31.3519 44.9386L31.5848 44.3563L31.8469 43.774L32.1089 43.1917L32.3709 42.6094L32.6329 42.0563L32.9241 41.5031L33.2152 40.9499L33.5064 40.3968L33.7975 39.8436L34.1178 39.2904L34.438 38.7664L34.7583 38.2423L35.0785 37.6891L35.3988 37.1651L35.7482 36.6701L36.0975 36.1752L36.4178 35.622L36.7672 35.1271L37.1165 34.6612L37.495 34.1954L37.99 33.7878L38.3685 33.3511L38.747 32.9144L39.1254 32.4777L39.533 32.0701L39.9406 31.6625L40.3482 31.2549L40.7558 30.8764L41.1634 30.4979L41.571 30.1194L41.8913 29.7991L42.328 29.4498L42.7647 29.1295L43.2014 28.8092L43.6382 28.489L44.0749 28.1978L44.5116 27.9358L44.9483 27.6738L45.385 27.4409L45.8217 27.208L46.2002 26.8877L46.7243 26.7421L47.1319 26.5674L47.5395 26.3928L47.9471 26.2472H54.9636L55.2839 26.3928L55.6041 26.5383L55.9244 26.713L56.2447 26.8877L56.5358 27.0915L56.827 27.2953L57.1181 27.5282L57.4092 27.7611L57.6713 28.0232L57.9333 28.2852L58.1953 28.5763L58.4574 28.8675L58.6903 29.1877L58.9232 29.508L59.1561 29.8283L59.389 30.1776L59.5928 30.527L59.7966 30.9055L60.0004 31.284L60.1751 31.6916L60.3498 32.0992L60.5245 32.5068L60.6992 32.9435L60.8447 33.3802V38.5334L63.7562 37.6018L64.7461 41.0664L61.0194 42.2892V47.0348L60.8738 47.9083L60.6992 48.7817L60.4954 49.6551V50.0336L65.5904 49.9463Z" fill="white"/>
</g>
<defs>
<clipPath id="clip0_342_4846">
<rect width="93.1659" height="93.1659" fill="white" transform="translate(0.141602 0.68457)"/>
</clipPath>
</defs>
</svg>
