<svg width="94" height="94" viewBox="0 0 94 94" fill="none" xmlns="http://www.w3.org/2000/svg">
<g clip-path="url(#clip0_342_4853)">
<path d="M47.2392 93.8504C72.9662 93.8504 93.8221 72.9946 93.8221 47.2675C93.8221 21.5405 72.9662 0.68457 47.2392 0.68457C21.5121 0.68457 0.65625 21.5405 0.65625 47.2675C0.65625 72.9946 21.5121 93.8504 47.2392 93.8504Z" fill="#F19F13"/>
<path d="M66.9494 41.2986H81.128L82.1762 35.4757H68.4633C65.7599 35.5598 63.1395 36.4299 60.9227 37.9795C60.1075 35.0681 52.1884 35.4757 52.1884 35.4757L53.2365 29.6528H50.1504L49.1023 35.4757H45.8706L46.7731 29.6528H43.425L42.2022 35.4757H38.7376L36.9616 44.5594L34.6033 35.6504H26.8589L12.3018 57.0494H24.2969L25.5197 51.3721H23.0741L30.0615 41.153L32.6818 51.4304H30.0615L28.926 57.0494H37.835L37.1072 60.9507H40.6009L41.4161 57.0494H44.3275L43.5997 60.9507H47.239L47.9668 57.0494H52.5087C54.5971 56.8126 56.5302 55.8306 57.953 54.2836C59.6493 56.0003 61.9455 56.9919 64.3582 57.0494H78.071L78.9736 51.3721H66.6582C58.1859 51.2266 61.7961 41.2403 66.9494 41.2986ZM51.5479 51.2266H42.4642L43.1921 48.4607H51.9264C54.1391 48.6063 53.4112 51.2266 51.5479 51.2266ZM52.9163 43.7733H43.8326L44.5604 41.0074H53.2947C55.5074 41.153 54.6922 43.8897 52.9163 43.8897V43.7733Z" fill="white"/>
</g>
<defs>
<clipPath id="clip0_342_4853">
<rect width="93.1659" height="93.1659" fill="white" transform="translate(0.655273 0.68457)"/>
</clipPath>
</defs>
</svg>
