<svg width="94" height="94" viewBox="0 0 94 94" fill="none" xmlns="http://www.w3.org/2000/svg">
<g clip-path="url(#clip0_342_4857)">
<path d="M46.7519 93.8504C72.4789 93.8504 93.3348 72.9946 93.3348 47.2675C93.3348 21.5405 72.4789 0.68457 46.7519 0.68457C21.0248 0.68457 0.168945 21.5405 0.168945 47.2675C0.168945 72.9946 21.0248 93.8504 46.7519 93.8504Z" fill="#1E1E1E"/>
<path d="M47.0204 68.2177C30.792 68.2177 17.6382 63.5303 17.6382 57.2474C17.6382 53.9691 21.2192 51.0169 26.9548 48.9323C31.4326 51.8059 38.9411 53.2791 47.4571 53.2791C55.7721 53.2791 63.1206 51.4828 67.6333 48.7314C73.0457 50.7898 76.4055 53.6634 76.4055 56.8311C76.4055 63.1227 63.2516 68.2177 47.0204 68.2177Z" fill="white"/>
<path d="M47.1948 51.8676C34.8911 51.8676 24.9165 48.01 24.9165 43.2498C24.9165 40.612 27.991 38.2479 32.8123 36.6729C36.2536 38.4692 41.4098 39.6163 47.1948 39.6163C52.9798 39.6163 58.136 38.4692 61.5773 36.6758C66.4073 38.2567 69.4731 40.612 69.4731 43.2498C69.4818 48.01 59.5043 51.8676 47.1948 51.8676Z" fill="white"/>
<path d="M47.1132 38.1839C37.6015 38.1839 29.8892 34.9988 29.8892 31.08C29.8892 27.1641 37.6045 23.9761 47.1132 23.9761C56.6219 23.9761 64.3372 27.1641 64.3372 31.08C64.3372 34.9988 56.6219 38.1839 47.1132 38.1839Z" fill="white"/>
</g>
<defs>
<clipPath id="clip0_342_4857">
<rect width="93.1659" height="93.1659" fill="white" transform="translate(0.169922 0.68457)"/>
</clipPath>
</defs>
</svg>
