<svg width="94" height="94" viewBox="0 0 94 94" fill="none" xmlns="http://www.w3.org/2000/svg">
<g clip-path="url(#clip0_342_4864)">
<path d="M47.2665 93.8504C72.9936 93.8504 93.8495 72.9946 93.8495 47.2675C93.8495 21.5405 72.9936 0.68457 47.2665 0.68457C21.5395 0.68457 0.683594 21.5405 0.683594 47.2675C0.683594 72.9946 21.5395 93.8504 47.2665 93.8504Z" fill="#516AFF"/>
<path d="M53.922 37.0165L60.3271 40.6762V22.3749L47.5168 15.9697L27.6143 27.1787V66.981L47.5168 78.42L67.1894 66.7539V47.0813L48.201 35.6423L41.7959 38.8449L60.7842 50.0539L61.0113 63.5513L47.5168 71.1006L33.7894 63.3213V30.3813L47.5168 22.832L53.922 26.2646V37.0165Z" fill="white"/>
<path d="M46.8298 47.9957L51.1765 45.7073L55.9804 48.6828L41.7959 56.6892V40.2192L46.8298 43.1918" fill="white"/>
</g>
<defs>
<clipPath id="clip0_342_4864">
<rect width="93.1659" height="93.1659" fill="white" transform="translate(0.683594 0.68457)"/>
</clipPath>
</defs>
</svg>
