<svg width="94" height="94" viewBox="0 0 94 94" fill="none" xmlns="http://www.w3.org/2000/svg">
<g clip-path="url(#clip0_342_4870)">
<path d="M46.7807 93.8504C72.5077 93.8504 93.3636 72.9946 93.3636 47.2675C93.3636 21.5405 72.5077 0.68457 46.7807 0.68457C21.0536 0.68457 0.197754 21.5405 0.197754 47.2675C0.197754 72.9946 21.0536 93.8504 46.7807 93.8504Z" fill="white"/>
<path d="M75.0557 66.2151L46.9403 50.1372L18.5049 66.3242L75.0557 66.2151Z" fill="#662D91"/>
<path d="M46.9399 17.6577V50.1372L75.0554 66.2151L46.9399 17.6577Z" fill="#9E1F63"/>
<path d="M18.5049 66.3242L46.9403 50.1372V17.6577L18.5049 66.3242Z" fill="#FF5000"/>
<path d="M46.8349 37.3579L35.2266 56.7379H58.5488L46.8349 37.3579Z" fill="white" stroke="#FF5000" stroke-width="0.224445" stroke-miterlimit="10"/>
</g>
<defs>
<clipPath id="clip0_342_4870">
<rect width="93.1659" height="93.1659" fill="white" transform="translate(0.197266 0.68457)"/>
</clipPath>
</defs>
</svg>
