<svg width="94" height="94" viewBox="0 0 94 94" fill="none" xmlns="http://www.w3.org/2000/svg">
<g clip-path="url(#clip0_342_4881)">
<path d="M46.8085 93.8504C72.5356 93.8504 93.3915 72.9946 93.3915 47.2675C93.3915 21.5405 72.5356 0.68457 46.8085 0.68457C21.0815 0.68457 0.225586 21.5405 0.225586 47.2675C0.225586 72.9946 21.0815 93.8504 46.8085 93.8504Z" fill="#6356AB"/>
<path d="M66.5595 47.192C66.7284 47.0027 66.9176 46.8135 67.1069 46.6213C67.7183 45.9633 68.3879 45.2617 69.0197 44.5833C71.5509 41.9447 72.9662 38.4311 72.9705 34.7747C72.9705 34.5214 73.0113 33.4791 73.0113 33.3306C72.7172 24.969 65.6774 18.1533 57.3565 18.1533H31.1536V28.7247H20.6055V76.382H57.7757C66.0355 76.382 73.0113 69.0364 73.0113 60.3342C73.0317 54.1124 69.1856 49.7191 66.5595 47.192ZM36.4058 34.0323L57.2721 34.0527L44.1619 47.3433L57.1265 60.503H36.4058V34.0323ZM57.7757 71.0541H25.8577V34.0119H31.1565V65.7902H57.1265C59.2693 65.7902 61.1821 64.4946 62.0002 62.5003C62.4031 61.5297 62.5102 60.4617 62.3082 59.4304C62.1062 58.3991 61.604 57.4505 60.8648 56.7036L51.6006 47.3201L61.0133 37.788C62.5272 36.2595 62.9668 33.9886 62.1487 31.9943C61.7557 31.0227 61.0816 30.1906 60.2128 29.6045C59.3441 29.0184 58.3201 28.705 57.2721 28.7044H36.4262V23.4405H57.3769C62.9261 23.4405 67.5902 27.9619 67.7794 33.4587C67.7794 33.6916 67.7358 34.6058 67.7358 34.6262V34.731C67.7355 37.0363 66.8398 39.2514 65.2377 40.9091C64.5856 41.5904 63.913 42.3095 63.3046 42.9471C62.2739 44.0301 61.3917 44.9647 60.9696 45.3898L59.0772 47.256L60.9492 49.1484C61.2025 49.4017 61.5169 49.6987 61.8954 50.0597C64.079 52.0977 67.759 55.4925 67.759 60.2905C67.7794 66.0231 63.1153 71.0541 57.7757 71.0541Z" fill="white"/>
</g>
<defs>
<clipPath id="clip0_342_4881">
<rect width="93.1659" height="93.1659" fill="white" transform="translate(0.225586 0.68457)"/>
</clipPath>
</defs>
</svg>
