<svg width="94" height="94" viewBox="0 0 94 94" fill="none" xmlns="http://www.w3.org/2000/svg">
<g clip-path="url(#clip0_342_4885)">
<path d="M47.3229 93.8504C73.05 93.8504 93.9059 72.9946 93.9059 47.2675C93.9059 21.5405 73.05 0.68457 47.3229 0.68457C21.5959 0.68457 0.73999 21.5405 0.73999 47.2675C0.73999 72.9946 21.5959 93.8504 47.3229 93.8504Z" fill="#004AB5"/>
<path d="M37.0834 23.3736C33.2413 24.8214 29.8058 27.1758 27.0692 30.2366C24.3325 33.2974 22.3758 36.974 21.3654 40.9535C20.3551 44.9331 20.321 49.0978 21.2661 53.0934C22.2111 57.0889 24.1074 60.797 26.7936 63.9022C29.4797 67.0074 32.8763 69.4178 36.6941 70.9282C40.512 72.4386 44.6383 73.0045 48.7218 72.5775C52.8054 72.1505 56.7253 70.7435 60.1482 68.476C63.5711 66.2085 66.3956 63.1477 68.3813 59.554L46.0739 47.2241L55.1256 23.394C49.316 21.1886 42.9009 21.1813 37.0863 23.3736H37.0834ZM38.6731 27.9533C43.3822 26.1777 48.5778 26.1839 53.2826 27.9708L45.9546 47.2649L64.0171 57.2511C62.4088 60.1603 60.1216 62.6379 57.3501 64.4733C54.5785 66.3087 51.4047 67.4476 48.0985 67.7929C44.7924 68.1382 41.4517 67.6799 38.3607 66.4568C35.2697 65.2338 32.5199 63.2823 30.3451 60.7682C28.1704 58.2542 26.635 55.252 25.8697 52.0172C25.1044 48.7823 25.1317 45.4105 25.9494 42.1885C26.7671 38.9664 28.351 35.9896 30.5662 33.5112C32.7815 31.0327 35.5626 29.1261 38.6731 27.9533ZM47.221 15.1838C50.6885 15.3206 54.1095 16.0194 57.3528 17.2509L45.9546 47.2649L74.0528 62.7974C71.2881 67.7994 67.2384 71.9729 62.3218 74.8868C57.4051 77.8007 51.7998 79.3494 46.0846 79.373C40.3694 79.3966 34.7514 77.8942 29.8109 75.021C24.8704 72.1478 20.7863 68.0079 17.9804 63.0289C15.1746 58.0498 13.7486 52.412 13.8498 46.6976C13.9509 40.9833 15.5756 35.3995 18.5559 30.5228C21.5363 25.6462 25.7644 21.6535 30.8035 18.957C35.8427 16.2605 41.5102 14.9579 47.221 15.1838ZM69.1412 26.2822C69.9098 26.2822 70.626 26.3724 71.284 26.5588C73.223 27.0915 74.5332 28.2969 75.2145 30.1718C75.6308 31.3102 75.721 32.4282 75.4881 33.5258C75.2785 34.6147 74.7748 35.5929 73.9771 36.4664C75.4736 36.3994 76.7808 36.7342 77.9075 37.4621C79.0226 38.1666 79.8465 39.2468 80.3735 40.6967C81.1217 42.7521 80.8976 44.63 79.6952 46.3303C78.5073 48.0015 76.3849 49.396 73.3249 50.5082L61.2017 54.9219L52.6683 31.4762L64.1219 27.307C65.9969 26.6257 67.6709 26.2822 69.1412 26.2822ZM67.3652 31.1326C66.6665 31.1326 65.86 31.3015 64.94 31.6363L59.548 33.5986L61.5569 39.1274L66.9518 37.1622C68.2911 36.676 69.2227 36.0733 69.741 35.3513C70.265 34.6292 70.3582 33.8111 70.0234 32.8969C69.6915 31.9828 69.0975 31.4267 68.2416 31.2316C67.9547 31.1624 67.6603 31.1291 67.3652 31.1326ZM71.9129 40.2221C71.1792 40.2308 70.3174 40.4143 69.3275 40.7753L62.9981 43.0782L65.106 48.872L71.4354 46.569C72.862 46.0479 73.8519 45.4248 74.3934 44.6941C74.9612 43.9575 75.0631 43.0986 74.7079 42.1145C74.242 40.8422 73.3104 40.2105 71.9129 40.2221Z" fill="white"/>
</g>
<defs>
<clipPath id="clip0_342_4885">
<rect width="93.1659" height="93.1659" fill="white" transform="translate(0.739502 0.68457)"/>
</clipPath>
</defs>
</svg>
