<svg width="94" height="94" viewBox="0 0 94 94" fill="none" xmlns="http://www.w3.org/2000/svg">
<g clip-path="url(#clip0_342_4889)">
<path d="M46.8354 93.8504C72.5624 93.8504 93.4183 72.9946 93.4183 47.2675C93.4183 21.5405 72.5624 0.68457 46.8354 0.68457C21.1083 0.68457 0.252441 21.5405 0.252441 47.2675C0.252441 72.9946 21.1083 93.8504 46.8354 93.8504Z" fill="#F7931C"/>
<path d="M21.6541 56.9333C21.6308 48.1641 27.806 40.804 36.6393 39.1474C37.3962 39.0076 37.6117 38.7543 37.5913 38.0148C37.5433 36.046 37.5433 34.0763 37.5913 32.1075C37.6059 31.4001 37.3817 30.9779 36.7732 30.5819C34.6508 29.199 33.7832 26.6835 34.5605 24.4214C34.9343 23.2768 35.676 22.2879 36.6701 21.6086C37.6643 20.9293 38.8551 20.5978 40.0573 20.6656C42.2991 20.7704 44.3517 22.4387 44.9572 24.6543C45.5686 26.8786 44.7185 29.298 42.7445 30.5528C42.0458 30.9954 41.8274 31.4408 41.8507 32.2327C41.909 34.2009 41.8886 36.169 41.8624 38.14C41.8536 38.7107 41.9381 39.0164 42.6164 39.1037C43.9062 39.2755 45.1669 39.622 46.3605 40.1344C46.8089 40.3265 47.0506 40.2101 47.3504 39.8782C51.5283 35.2752 55.7208 30.6809 59.922 26.0983C60.3558 25.6267 60.2306 25.3035 60.0326 24.8173C59.0078 22.2902 59.6076 19.5622 61.5408 17.7571C63.3051 16.1121 66.2223 15.6434 68.3302 16.6653C70.8108 17.8677 72.1733 20.1736 72.0045 22.8812C71.7774 26.503 68.2545 29.231 64.6793 28.4886C63.9543 28.3372 63.5351 28.5119 63.0664 29.0302C59.1774 33.3286 55.2722 37.6124 51.3507 41.8812C50.8762 42.3965 50.8092 42.6731 51.4002 43.1855C57.817 48.7813 59.5639 57.2128 55.9071 64.8932C55.6306 65.4755 55.6917 65.8074 56.14 66.2324C57.2085 67.2485 58.2421 68.2996 59.2669 69.3622C59.6745 69.7844 60.0559 69.895 60.6615 69.7407C63.0198 69.1468 65.4654 70.2066 66.6416 72.2533C67.2244 73.2662 67.4652 74.44 67.3283 75.6006C67.1914 76.7612 66.6841 77.8467 65.8817 78.6963C64.2688 80.4111 61.6339 80.909 59.5872 79.8842C57.3512 78.7662 56.1168 76.3759 56.6466 73.9215C56.8009 73.217 56.6379 72.8152 56.1663 72.3698C55.2979 71.5487 54.4561 70.7001 53.642 69.8252C53.1675 69.3127 52.8734 69.304 52.3319 69.8135C46.8031 74.9667 40.3921 76.3002 33.3173 73.7847C26.2833 71.2896 21.6745 64.4507 21.6541 56.9362" fill="#FEFDFC"/>
</g>
<defs>
<clipPath id="clip0_342_4889">
<rect width="93.1659" height="93.1659" fill="white" transform="translate(0.253418 0.68457)"/>
</clipPath>
</defs>
</svg>
