<svg width="94" height="94" viewBox="0 0 94 94" fill="none" xmlns="http://www.w3.org/2000/svg">
<g clip-path="url(#clip0_342_4893)">
<path d="M47.3505 93.8504C73.0776 93.8504 93.9334 72.9946 93.9334 47.2675C93.9334 21.5405 73.0776 0.68457 47.3505 0.68457C21.6235 0.68457 0.767578 21.5405 0.767578 47.2675C0.767578 72.9946 21.6235 93.8504 47.3505 93.8504Z" fill="#FCC339"/>
<path d="M66.5222 28.908L66.7464 29.4059L57.8549 33.4877L61.8552 46.7348L75.0178 40.0879L75.1925 40.4344L75.2449 40.3704L66.7173 28.9983L66.5222 28.908ZM66.0418 28.6839L57.9684 24.9281H37.0905L28.4669 28.8877L37.4341 32.6609H57.3774L66.0418 28.6839ZM27.7448 29.6155L19.6714 40.0996L32.8136 46.7377L36.8314 33.4382L27.7448 29.6155ZM37.7602 33.6129L33.6114 47.3549L47.333 71.6129L61.0574 47.3549L56.9057 33.6129H37.7602ZM74.188 41.5699L61.9076 47.7741L49.665 69.4148L74.188 41.5699ZM44.9368 69.2984L32.7612 47.7741L20.5449 41.6048L44.9368 69.2984ZM19.4909 40.4053L19.587 40.2102L19.4618 40.3733L19.4909 40.4053ZM27.6167 28.2326L36.8838 23.9761H58.1722L67.3258 28.2326L76.4648 40.4198L47.3504 73.4704L18.2361 40.414L27.6167 28.2326ZM54.4048 43.8728C54.5766 45.64 53.8458 46.7027 52.6754 47.3054C54.5999 47.7712 55.8052 48.93 55.5665 51.527C55.2753 54.747 52.9025 55.6088 49.5136 55.8068V59.1928H47.4989V55.8534C46.9748 55.8534 46.4421 55.8475 45.8889 55.8359V59.1928H43.8771V55.798C43.4054 55.7951 42.925 55.7864 42.4359 55.7864H39.8156L40.2145 53.3495C40.2145 53.3495 41.7051 53.3728 41.6789 53.3495C42.2496 53.3495 42.401 52.9332 42.4359 52.6741V47.3258H42.6514C42.58 47.3161 42.508 47.3112 42.4359 47.3112V43.4943C42.3602 43.078 42.0953 42.6005 41.2772 42.5976C41.3034 42.5685 39.8156 42.5976 39.8156 42.5976V40.4198H42.5931V40.4315C43.0124 40.4315 43.4375 40.4228 43.8742 40.414V37.063H45.8918V40.35C46.4275 40.3383 46.969 40.3267 47.4989 40.3267V37.0659L49.5136 37.063V40.414C52.1164 40.6469 54.1748 41.4563 54.4048 43.8728ZM51.5866 51.1223C51.5866 48.4787 47.3038 48.8776 45.9384 48.8776V53.3699C47.3038 53.3699 51.5866 53.6552 51.5866 51.1223ZM50.6491 44.7841C50.6491 42.3792 47.0738 42.7461 45.9384 42.7461V46.8221C47.0738 46.8221 50.6491 47.0899 50.6491 44.7841Z" fill="white"/>
</g>
<defs>
<clipPath id="clip0_342_4893">
<rect width="93.1659" height="93.1659" fill="white" transform="translate(0.767578 0.68457)"/>
</clipPath>
</defs>
</svg>
