<svg width="94" height="94" viewBox="0 0 94 94" fill="none" xmlns="http://www.w3.org/2000/svg">
<g clip-path="url(#clip0_342_4900)">
<path d="M47.0414 93.3646C72.7685 93.3646 93.6244 72.5087 93.6244 46.7817C93.6244 21.0546 72.7685 0.19873 47.0414 0.19873C21.3144 0.19873 0.458496 21.0546 0.458496 46.7817C0.458496 72.5087 21.3144 93.3646 47.0414 93.3646Z" fill="#8DC351"/>
<path d="M62.2014 30.8671C59.9421 25.1258 54.2765 24.6076 47.6791 25.8886L45.3296 17.6987L40.3452 19.1282L42.6336 27.1056C41.3235 27.4782 39.99 27.8917 38.6653 28.2993L36.3653 20.2695L31.3838 21.6961L33.7276 29.886C32.6561 30.2179 31.6022 30.544 30.5686 30.8409L30.5599 30.8118L23.6831 32.7829L25.2116 38.1108C25.2116 38.1108 28.8742 36.9812 28.8305 37.0685C30.8511 36.4891 31.8439 37.4732 32.3242 38.431L35.0028 47.7593C35.1396 47.7214 35.323 47.6748 35.5385 47.6428L35.0115 47.7942L38.7585 60.8666C38.8517 61.5275 38.7702 62.6484 37.361 63.056C37.4396 63.0938 33.7334 64.0924 33.7334 64.0924L34.4525 70.3316L40.9392 68.4683C42.1474 68.1277 43.3411 67.8074 44.5086 67.4784L46.8872 75.7615L51.8658 74.3349L49.5163 66.1392C50.8517 65.7848 52.1833 65.416 53.5107 65.0328L55.8457 73.1936L60.833 71.764L58.4631 63.4956C66.7054 60.6103 71.9663 56.8167 70.4378 48.7346C69.2092 42.2305 65.4185 40.2565 60.3322 40.4778C62.8011 38.1778 63.8638 35.0683 62.2014 30.8701V30.8671ZM60.3089 50.5776C62.0849 56.7702 51.2835 59.1051 47.9062 60.0776L44.759 49.1015C48.1362 48.1319 58.4544 44.1229 60.306 50.5805L60.3089 50.5776ZM53.5486 35.7584C55.1615 41.392 46.1332 43.2698 43.3178 44.0763L40.4646 34.1221C43.2771 33.3157 51.8629 29.886 53.5486 35.7613V35.7584Z" fill="white"/>
</g>
<defs>
<clipPath id="clip0_342_4900">
<rect width="93.1659" height="93.1659" fill="white" transform="translate(0.459473 0.198242)"/>
</clipPath>
</defs>
</svg>
