<svg width="94" height="94" viewBox="0 0 94 94" fill="none" xmlns="http://www.w3.org/2000/svg">
<g clip-path="url(#clip0_342_4897)">
<path d="M93.6471 47.2675C93.6471 56.4807 90.915 65.4871 85.7964 73.1476C80.6778 80.8081 73.4026 86.7788 64.8907 90.3045C56.3787 93.8303 47.0125 94.7528 37.9763 92.9554C28.9401 91.158 20.6398 86.7214 14.125 80.2066C7.61031 73.6919 3.17371 65.3916 1.3763 56.3554C-0.421113 47.3192 0.501385 37.9529 4.02714 29.441C7.55289 20.9291 13.5235 13.6538 21.1841 8.53521C28.8446 3.41661 37.8509 0.68457 47.0642 0.68457C59.4187 0.68457 71.2673 5.5924 80.0033 14.3284C88.7393 23.0644 93.6471 34.9129 93.6471 47.2675Z" fill="#43A047"/>
<path fill-rule="evenodd" clip-rule="evenodd" d="M33.5503 21.9562L44.2559 24.8231L46.6528 15.9004L52.0056 17.3529L49.7018 25.903L54.0637 27.0761L56.3632 18.437L61.8092 19.8896L59.4631 28.5794C59.4631 28.5794 68.3562 30.5486 70.4524 37.7817C72.5487 45.0147 65.8577 48.8176 63.8038 48.9616C63.8038 48.9616 71.6001 53.2345 68.9237 61.6406C66.2473 70.0467 58.0275 71.5501 49.3885 69.6232L47.0382 78.6391L41.5922 77.1866L43.9891 68.2935L39.6653 67.1332L37.26 76.0644L31.8606 74.6118L34.2533 65.7187L23.2639 62.7544L26.0377 56.6054C26.0377 56.6054 29.1334 57.4524 30.3106 57.7319C31.4879 58.0114 32.2332 56.7917 32.5636 55.5721C32.8939 54.3525 37.8698 34.1397 38.3398 32.4754C38.8099 30.8112 38.6193 29.5111 36.6459 28.9987C34.6725 28.4863 31.9876 27.6859 31.9876 27.6859L33.5503 21.9562ZM44.349 48.7244L41.3847 60.5099C41.3847 60.5099 56.0795 65.8161 57.9597 58.3501C59.84 50.8842 44.349 48.7244 44.349 48.7244ZM45.7127 43.1345L48.622 32.3357C48.622 32.3357 61.2078 34.5886 59.6579 40.5978C58.108 46.607 50.6759 44.3033 45.7127 43.1345Z" fill="white"/>
</g>
<defs>
<clipPath id="clip0_342_4897">
<rect width="93.1659" height="93.1659" fill="white" transform="translate(0.281494 0.68457)"/>
</clipPath>
</defs>
</svg>
