<svg width="95" height="94" viewBox="0 0 95 94" fill="none" xmlns="http://www.w3.org/2000/svg">
<g clip-path="url(#clip0_342_4904)">
<path d="M47.5566 93.3646C73.2836 93.3646 94.1395 72.5087 94.1395 46.7817C94.1395 21.0546 73.2836 0.19873 47.5566 0.19873C21.8295 0.19873 0.973633 21.0546 0.973633 46.7817C0.973633 72.5087 21.8295 93.3646 47.5566 93.3646Z" fill="#3F43AD"/>
<path d="M35.7363 21.8482C35.086 21.8863 34.4749 22.1714 34.028 22.6453C33.5811 23.1191 33.3322 23.7458 33.3322 24.3972C33.3322 25.0485 33.5811 25.6752 34.028 26.1491C34.4749 26.6229 35.086 26.9081 35.7363 26.9461C36.3865 26.9081 36.9976 26.6229 37.4445 26.1491C37.8914 25.6752 38.1403 25.0485 38.1403 24.3972C38.1403 23.7458 37.8914 23.1191 37.4445 22.6453C36.9976 22.1714 36.3865 21.8863 35.7363 21.8482ZM47.5276 14.7734C46.8722 14.8048 46.2541 15.0871 45.8014 15.562C45.3487 16.0369 45.0961 16.6678 45.0961 17.3239C45.0961 17.9799 45.3487 18.6108 45.8014 19.0857C46.2541 19.5606 46.8722 19.8429 47.5276 19.8743C48.1829 19.8429 48.801 19.5606 49.2537 19.0857C49.7064 18.6108 49.959 17.9799 49.959 17.3239C49.959 16.6678 49.7064 16.0369 49.2537 15.562C48.801 15.0871 48.1829 14.8048 47.5276 14.7734ZM47.5276 43.0697C46.8773 43.1077 46.2662 43.3929 45.8193 43.8667C45.3724 44.3406 45.1235 44.9673 45.1235 45.6186C45.1235 46.27 45.3724 46.8967 45.8193 47.3705C46.2662 47.8444 46.8773 48.1295 47.5276 48.1676C48.1778 48.1295 48.7889 47.8444 49.2358 47.3705C49.6827 46.8967 49.9316 46.27 49.9316 45.6186C49.9316 44.9673 49.6827 44.3406 49.2358 43.8667C48.7889 43.3929 48.1778 43.1077 47.5276 43.0697ZM59.316 35.9949C58.9808 35.9953 58.6491 36.0616 58.3396 36.1902C58.0302 36.3188 57.7491 36.5071 57.5124 36.7444C57.2757 36.9816 57.088 37.2631 56.9601 37.5729C56.8323 37.8826 56.7666 38.2145 56.767 38.5497C56.7674 38.8848 56.8338 39.2165 56.9624 39.526C57.091 39.8355 57.2793 40.1166 57.5165 40.3532C57.7537 40.5899 58.0353 40.7776 58.345 40.9055C58.6548 41.0334 58.9867 41.099 59.3218 41.0986C59.9986 41.0978 60.6474 40.8282 61.1254 40.3491C61.6034 39.87 61.8715 39.2206 61.8708 38.5438C61.87 37.867 61.6004 37.2183 61.1213 36.7402C60.6422 36.2622 59.9928 35.9941 59.316 35.9949ZM71.1044 28.923C70.762 28.9118 70.4209 28.9697 70.1013 29.0931C69.7817 29.2165 69.4903 29.4029 69.2443 29.6413C68.9983 29.8797 68.8027 30.1652 68.6693 30.4807C68.5359 30.7962 68.4674 31.1353 68.4678 31.4779C68.4682 31.8204 68.5375 32.1594 68.6716 32.4746C68.8057 32.7899 69.0019 33.0749 69.2485 33.3127C69.495 33.5505 69.7869 33.7363 70.1067 33.859C70.4266 33.9816 70.7678 34.0387 71.1102 34.0267C71.772 34.0036 72.399 33.7243 72.8588 33.2476C73.3186 32.771 73.5752 32.1343 73.5744 31.4721C73.5737 30.8098 73.3156 30.1737 72.8548 29.6981C72.3939 29.2225 71.7663 28.9446 71.1044 28.923ZM35.7363 50.1444C35.086 50.1825 34.4749 50.4677 34.028 50.9415C33.5811 51.4153 33.3322 52.0421 33.3322 52.6934C33.3322 53.3447 33.5811 53.9715 34.028 54.4453C34.4749 54.9191 35.086 55.2043 35.7363 55.2424C36.3865 55.2043 36.9976 54.9191 37.4445 54.4453C37.8914 53.9715 38.1403 53.3447 38.1403 52.6934C38.1403 52.0421 37.8914 51.4153 37.4445 50.9415C36.9976 50.4677 36.3865 50.1825 35.7363 50.1444ZM23.945 28.923C23.61 28.9234 23.2785 28.9897 22.9692 29.1183C22.6599 29.2468 22.379 29.435 22.1424 29.6721C21.9058 29.9092 21.7183 30.1905 21.5905 30.5001C21.4627 30.8097 21.3971 31.1414 21.3975 31.4763C21.3978 31.8113 21.4642 32.1428 21.5927 32.4521C21.7212 32.7614 21.9094 33.0423 22.1465 33.2789C22.3836 33.5155 22.665 33.703 22.9746 33.8308C23.2841 33.9586 23.6159 34.0242 23.9508 34.0238C24.6272 34.0231 25.2756 33.7536 25.7533 33.2748C26.2311 32.7959 26.4991 32.1469 26.4983 31.4705C26.4975 30.7941 26.2281 30.1457 25.7492 29.6679C25.2704 29.1902 24.6214 28.9222 23.945 28.923ZM23.945 57.2163C23.6098 57.2167 23.2781 57.2831 22.9686 57.4117C22.6592 57.5403 22.3781 57.7286 22.1414 57.9658C21.6633 58.4449 21.3952 59.0943 21.396 59.7711C21.3968 60.4479 21.6664 61.0967 22.1455 61.5747C22.6246 62.0527 23.274 62.3208 23.9508 62.3201C24.6276 62.3193 25.2764 62.0497 25.7544 61.5706C26.2324 61.0915 26.5005 60.4421 26.4997 59.7653C26.499 59.0885 26.2294 58.4397 25.7503 57.9617C25.2711 57.4837 24.6218 57.2155 23.945 57.2163ZM23.945 43.0697C23.2947 43.1077 22.6836 43.3929 22.2367 43.8667C21.7898 44.3406 21.5409 44.9673 21.5409 45.6186C21.5409 46.27 21.7898 46.8967 22.2367 47.3705C22.6836 47.8444 23.2947 48.1295 23.945 48.1676C24.5952 48.1295 25.2063 47.8444 25.6532 47.3705C26.1001 46.8967 26.349 46.27 26.349 45.6186C26.349 44.9673 26.1001 44.3406 25.6532 43.8667C25.2063 43.3929 24.5952 43.1077 23.945 43.0697ZM47.5276 28.923C47.1852 28.9114 46.844 28.9689 46.5243 29.0919C46.2046 29.215 45.9129 29.4011 45.6666 29.6392C45.4203 29.8773 45.2245 30.1625 45.0907 30.4779C44.957 30.7932 44.888 31.1323 44.888 31.4749C44.888 31.8174 44.957 32.1565 45.0907 32.4719C45.2245 32.7872 45.4203 33.0725 45.6666 33.3106C45.9129 33.5487 46.2046 33.7348 46.5243 33.8578C46.844 33.9809 47.1852 34.0383 47.5276 34.0267C48.1894 34.0044 48.8167 33.7257 49.2771 33.2496C49.7374 32.7735 49.9947 32.1371 49.9947 31.4749C49.9947 30.8126 49.7374 30.1763 49.2771 29.7001C48.8167 29.224 48.1894 28.9454 47.5276 28.923ZM59.316 21.8482C58.9736 21.8371 58.6325 21.8949 58.3129 22.0183C57.9933 22.1417 57.7019 22.3281 57.4559 22.5665C57.2099 22.8049 57.0143 23.0904 56.8809 23.4059C56.7475 23.7214 56.679 24.0605 56.6794 24.4031C56.6798 24.7457 56.7491 25.0846 56.8832 25.3999C57.0173 25.7151 57.2135 26.0001 57.4601 26.2379C57.7066 26.4757 57.9985 26.6615 58.3183 26.7842C58.6382 26.9069 58.9794 26.9639 59.3218 26.952C59.9837 26.9289 60.6106 26.6495 61.0704 26.1728C61.5302 25.6962 61.7868 25.0595 61.786 24.3973C61.7853 23.735 61.5272 23.0989 61.0664 22.6233C60.6055 22.1477 59.9779 21.8698 59.316 21.8482ZM59.316 50.1444C58.981 50.1446 58.6494 50.2108 58.3401 50.3391C58.0307 50.4675 57.7497 50.6555 57.513 50.8925C57.2763 51.1294 57.0886 51.4107 56.9606 51.7202C56.8326 52.0297 56.7668 52.3614 56.767 52.6963C56.7672 53.0312 56.8334 53.3628 56.9617 53.6722C57.09 53.9816 57.2781 54.2626 57.515 54.4993C57.752 54.736 58.0333 54.9237 58.3428 55.0517C58.6523 55.1797 58.984 55.2455 59.3189 55.2453C59.9953 55.2449 60.6438 54.9758 61.1219 54.4972C61.5999 54.0187 61.8682 53.3698 61.8678 52.6934C61.8675 52.017 61.5984 51.3684 61.1198 50.8904C60.6412 50.4124 59.9924 50.1441 59.316 50.1444ZM71.1044 43.0697C70.4541 43.1077 69.843 43.3929 69.3961 43.8667C68.9492 44.3406 68.7003 44.9673 68.7003 45.6186C68.7003 46.27 68.9492 46.8967 69.3961 47.3705C69.843 47.8444 70.4541 48.1295 71.1044 48.1676C71.7546 48.1295 72.3657 47.8444 72.8126 47.3705C73.2595 46.8967 73.5084 46.27 73.5084 45.6186C73.5084 44.9673 73.2595 44.3406 72.8126 43.8667C72.3657 43.3929 71.7546 43.1077 71.1044 43.0697ZM59.316 64.2911C58.9808 64.2913 58.649 64.3575 58.3395 64.4859C58.03 64.6143 57.7488 64.8024 57.5119 65.0395C57.2751 65.2766 57.0873 65.5581 56.9592 65.8677C56.8312 66.1774 56.7654 66.5093 56.7655 66.8444C56.7657 67.1795 56.8319 67.5113 56.9604 67.8209C57.0888 68.1304 57.2769 68.4116 57.514 68.6484C57.7511 68.8853 58.0325 69.0731 58.3422 69.2011C58.6519 69.3292 58.9838 69.395 59.3189 69.3948C59.9957 69.3944 60.6446 69.1252 61.1229 68.6464C61.6012 68.1675 61.8697 67.5183 61.8693 66.8415C61.8689 66.1647 61.5997 65.5158 61.1208 65.0375C60.642 64.5592 59.9928 64.2907 59.316 64.2911ZM71.1044 57.2163C70.449 57.2476 69.8309 57.53 69.3782 58.0049C68.9255 58.4797 68.6729 59.1106 68.6729 59.7667C68.6729 60.4228 68.9255 61.0537 69.3782 61.5286C69.8309 62.0034 70.449 62.2858 71.1044 62.3171C71.7597 62.2858 72.3778 62.0034 72.8305 61.5286C73.2832 61.0537 73.5358 60.4228 73.5358 59.7667C73.5358 59.1106 73.2832 58.4797 72.8305 58.0049C72.3778 57.53 71.7597 57.2476 71.1044 57.2163ZM47.5276 71.3659C46.8773 71.404 46.2662 71.6891 45.8193 72.1629C45.3724 72.6368 45.1235 73.2635 45.1235 73.9148C45.1235 74.5662 45.3724 75.1929 45.8193 75.6667C46.2662 76.1406 46.8773 76.4257 47.5276 76.4638C48.2032 76.463 48.8511 76.1945 49.3291 75.717C49.8072 75.2395 50.0764 74.592 50.078 73.9163C50.0772 73.2401 49.8083 72.5919 49.3301 72.1137C48.852 71.6356 48.2037 71.3666 47.5276 71.3659ZM47.5276 57.2163C47.1923 57.2165 46.8603 57.2827 46.5506 57.4112C46.2409 57.5397 45.9595 57.728 45.7225 57.9652C45.4856 58.2024 45.2976 58.484 45.1695 58.7939C45.0414 59.1037 44.9755 59.4358 44.9757 59.7711C44.9759 60.1064 45.0421 60.4384 45.1706 60.7481C45.2991 61.0578 45.4873 61.3392 45.7246 61.5761C45.9618 61.8131 46.2434 62.001 46.5533 62.1292C46.8631 62.2573 47.1952 62.3232 47.5305 62.323C48.2077 62.3226 48.857 62.0532 49.3355 61.5741C49.8141 61.095 50.0827 60.4454 50.0824 59.7682C50.082 59.091 49.8126 58.4417 49.3335 57.9631C48.8544 57.4846 48.2048 57.2159 47.5276 57.2163ZM35.7363 35.9949C35.086 36.033 34.4749 36.3181 34.028 36.7919C33.5811 37.2658 33.3322 37.8925 33.3322 38.5438C33.3322 39.1952 33.5811 39.8219 34.028 40.2957C34.4749 40.7696 35.086 41.0547 35.7363 41.0928C36.3821 41.0491 36.9873 40.7617 37.4293 40.2888C37.8714 39.8158 38.1173 39.1926 38.1173 38.5453C38.1173 37.8979 37.8714 37.2748 37.4293 36.8018C36.9873 36.3289 36.3821 36.0415 35.7363 35.9978V35.9949ZM35.7363 64.2911C35.086 64.3292 34.4749 64.6143 34.028 65.0881C33.5811 65.562 33.3322 66.1887 33.3322 66.84C33.3322 67.4914 33.5811 68.1181 34.028 68.592C34.4749 69.0658 35.086 69.3509 35.7363 69.389C36.3865 69.3509 36.9976 69.0658 37.4445 68.592C37.8914 68.1181 38.1403 67.4914 38.1403 66.84C38.1403 66.1887 37.8914 65.562 37.4445 65.0881C36.9976 64.6143 36.3865 64.3292 35.7363 64.2911Z" fill="white"/>
</g>
<defs>
<clipPath id="clip0_342_4904">
<rect width="93.1659" height="93.1659" fill="white" transform="translate(0.973633 0.198242)"/>
</clipPath>
</defs>
</svg>
