<svg width="94" height="94" viewBox="0 0 94 94" fill="none" xmlns="http://www.w3.org/2000/svg">
<g clip-path="url(#clip0_342_4908)">
<path d="M47.0688 93.3588C72.7942 93.3588 93.6488 72.5042 93.6488 46.7788C93.6488 21.0533 72.7942 0.19873 47.0688 0.19873C21.3434 0.19873 0.48877 21.0533 0.48877 46.7788C0.48877 72.5042 21.3434 93.3588 47.0688 93.3588Z" fill="#F04086"/>
<path d="M68.7237 48.9763C66.8895 46.9499 64.2517 45.6922 60.8046 45.2031V45.1303C63.8237 44.6412 66.1966 43.4038 67.8095 41.424C69.4464 39.4606 70.3355 36.9812 70.3191 34.4249C70.3191 30.1713 68.9508 27.2803 66.115 25.0065C63.2793 22.7355 59.0228 21.9873 53.2552 21.9873H31.4748V42.2596H18.9673V50.0244H53.1097C55.7969 50.0244 57.8145 50.2136 59.148 51.288C60.4814 52.3623 61.1627 53.751 61.1627 55.8036C61.1627 57.8562 60.4902 59.6088 59.148 60.7094C57.8087 61.807 55.7882 62.5319 53.1097 62.5319H41.3941V56.4936H31.4748V70.2967H53.9715C59.6924 70.2967 64.0654 68.8032 67.0991 66.4827C70.1299 64.1623 71.5536 60.7356 71.5536 56.5285C71.5913 53.7452 70.5812 51.0495 68.7237 48.9763ZM51.8577 42.2392H41.3941V29.7317H51.8577C57.2381 29.7317 59.9224 31.8309 59.9224 35.9855C59.9224 40.1401 57.2381 42.2392 51.8577 42.2392Z" fill="white"/>
</g>
<defs>
<clipPath id="clip0_342_4908">
<rect width="93.1659" height="93.1659" fill="white" transform="translate(0.487793 0.198242)"/>
</clipPath>
</defs>
</svg>
