<svg width="94" height="94" viewBox="0 0 94 94" fill="none" xmlns="http://www.w3.org/2000/svg">
<g clip-path="url(#clip0_342_4912)">
<path d="M46.5834 93.3646C72.3105 93.3646 93.1664 72.5087 93.1664 46.7817C93.1664 21.0546 72.3105 0.19873 46.5834 0.19873C20.8564 0.19873 0.000488281 21.0546 0.000488281 46.7817C0.000488281 72.5087 20.8564 93.3646 46.5834 93.3646Z" fill="#2C76B7"/>
<path d="M41.1161 60.8319L36.7315 58.363C35.6251 59.8624 33.8259 60.8377 31.7879 60.8377C29.7499 60.8377 27.9448 59.8595 26.8413 58.3543L25.4176 59.1607C25.5446 59.4651 25.6099 59.7917 25.6098 60.1215C25.6056 60.4607 25.5347 60.7957 25.401 61.1074C25.2674 61.4191 25.0736 61.7014 24.8308 61.9383C24.588 62.1751 24.301 62.3618 23.9861 62.4877C23.6711 62.6135 23.3345 62.6762 22.9953 62.6719C21.5513 62.6719 20.3809 61.5307 20.3809 60.1215C20.3809 58.7124 21.5513 57.5682 22.9953 57.5682C23.8367 57.5682 24.5821 57.9554 25.0624 58.5581L26.4599 57.7662C25.9648 56.8926 25.705 55.9054 25.7059 54.9013C25.7059 51.6987 28.3029 49.0901 31.552 48.9678V44.4434C28.3873 44.3212 25.8631 41.7795 25.8631 38.6613C25.8631 37.6715 26.1193 36.734 26.5706 35.9188L25.0857 35.0919C24.8386 35.4105 24.5216 35.6681 24.1592 35.8448C23.7967 36.0215 23.3985 36.1125 22.9953 36.1109C21.5513 36.1109 20.3809 34.9667 20.3809 33.5576C20.3809 32.1485 21.5513 31.0072 22.9953 31.0072C24.4394 31.0072 25.6098 32.1485 25.6098 33.5576C25.6098 33.8837 25.5457 34.1981 25.4322 34.4834L26.9461 35.3277C28.0175 33.8429 29.7877 32.8763 31.7879 32.8763C33.8317 32.8763 35.6309 33.8837 36.6965 35.418L41.1598 32.9462C40.7522 32.1543 40.5192 31.2576 40.5192 30.3113C40.5192 27.1903 43.0173 24.6399 46.1674 24.4594V22.7474C45.5487 22.6706 44.9789 22.3717 44.5639 21.9064C44.1489 21.4411 43.9169 20.8409 43.9111 20.2174C43.9111 18.8083 45.0815 17.667 46.5255 17.667C47.9696 17.667 49.14 18.8083 49.14 20.2174C49.14 21.5101 48.1559 22.5757 46.8807 22.7474V24.4594C50.0309 24.6399 52.5289 27.1903 52.5289 30.3113C52.5289 31.2605 52.296 32.1601 51.8855 32.9549L56.34 35.4617C56.8872 34.6444 57.6283 33.9753 58.4969 33.5141C59.3656 33.0528 60.335 32.8137 61.3185 32.8181C63.3827 32.8181 65.1966 33.8458 66.2592 35.4064L67.7295 34.4718C67.6154 34.1805 67.5571 33.8704 67.5577 33.5576C67.5577 32.1485 68.7281 31.0072 70.1722 31.0072C71.6163 31.0072 72.7867 32.1485 72.7867 33.5576C72.7867 34.9667 71.6163 36.1109 70.1722 36.1109C69.7673 36.1124 69.3675 36.0205 69.0039 35.8422C68.6403 35.6639 68.3228 35.4042 68.076 35.0832L66.6202 36.009C67.0191 36.7893 67.2462 37.6685 67.2462 38.6031C67.2462 41.7795 64.6259 44.359 61.3797 44.3881V49.0988C64.6696 49.1279 67.3248 51.7424 67.3248 54.9595C67.3248 55.9349 67.0803 56.8549 66.6465 57.6672L68.1429 58.5115C68.3912 58.215 68.7017 57.9767 69.0524 57.8137C69.4031 57.6507 69.7854 57.5669 70.1722 57.5682C71.6163 57.5682 72.7867 58.7124 72.7867 60.1215C72.7867 61.5307 71.6163 62.6719 70.1722 62.6719C69.8331 62.6762 69.4964 62.6135 69.1815 62.4877C68.8665 62.3618 68.5795 62.1751 68.3367 61.9383C68.0939 61.7014 67.9002 61.4191 67.7665 61.1074C67.6329 60.7957 67.5619 60.4607 67.5577 60.1215C67.5569 59.7714 67.6303 59.4251 67.7732 59.1054L66.2796 58.2611C65.1995 59.8042 63.3798 60.8203 61.3185 60.8203C59.2776 60.8203 57.4754 59.8246 56.3895 58.3048L51.9233 60.8173C52.4095 61.6762 52.6861 62.6661 52.6861 63.7171C52.6861 66.8819 50.1823 69.476 47.0001 69.7147V70.8327C47.5949 70.9338 48.1352 71.2409 48.5265 71.7002C48.9177 72.1596 49.1349 72.7419 49.14 73.3452C49.1358 73.6844 49.0649 74.0194 48.9312 74.3311C48.7976 74.6428 48.6038 74.9252 48.361 75.162C48.1182 75.3988 47.8312 75.5855 47.5163 75.7114C47.2013 75.8373 46.8647 75.8999 46.5255 75.8957C46.1864 75.8999 45.8497 75.8373 45.5348 75.7114C45.2199 75.5855 44.9328 75.3988 44.69 75.162C44.4473 74.9252 44.2535 74.6428 44.1198 74.3311C43.9862 74.0194 43.9152 73.6844 43.9111 73.3452C43.9111 72.0118 44.9534 70.92 46.2868 70.8036V69.7263C42.9969 69.6041 40.3649 66.9605 40.3649 63.7171C40.3649 62.669 40.6357 61.6879 41.1161 60.8319ZM41.4946 60.2409C42.0731 59.4505 42.8306 58.8083 43.705 58.367C44.5795 57.9258 45.546 57.6979 46.5255 57.7021C48.5926 57.7021 50.4269 58.7007 51.5448 60.2292L56.0168 57.7108C55.5556 56.8672 55.3142 55.921 55.3152 54.9595C55.3152 51.9375 57.6559 49.4511 60.6664 49.1309V44.3561C57.6996 44.0358 55.3938 41.5844 55.3938 38.6031C55.3938 37.6947 55.6063 36.833 55.9906 36.0702L51.5245 33.5547C50.4472 35.1327 48.613 36.1721 46.5255 36.1721C44.4351 36.1721 42.5951 35.1298 41.5179 33.5518L37.0634 36.0178C37.4797 36.8097 37.7155 37.7064 37.7155 38.6613C37.7155 41.7009 35.3165 44.1931 32.2653 44.426V48.9824C35.4009 49.2153 37.8728 51.7773 37.8728 54.9013C37.8728 55.9436 37.5962 56.9218 37.1129 57.7749L41.4946 60.2409ZM31.7879 58.0107C33.5493 58.0107 34.9759 56.6191 34.9759 54.9013C34.9759 53.1836 33.5493 51.7919 31.7879 51.7919C30.0294 51.7919 28.6027 53.1836 28.6027 54.9013C28.6027 56.6191 30.0294 58.0107 31.7879 58.0107ZM31.7879 41.6921C33.5056 41.6921 34.8944 40.3354 34.8944 38.6642C34.8944 36.9931 33.5027 35.6305 31.7879 35.6305C30.073 35.6305 28.6843 36.9873 28.6843 38.6613C28.6843 40.3354 30.073 41.6921 31.7879 41.6921ZM46.5255 33.38C48.2607 33.38 49.6699 32.0058 49.6699 30.3113C49.6699 28.614 48.2607 27.2398 46.5255 27.2398C44.7874 27.2398 43.3812 28.614 43.3812 30.3113C43.3812 32.0058 44.7874 33.38 46.5255 33.38ZM61.3185 41.6339C63.0363 41.6339 64.425 40.2772 64.425 38.606C64.425 36.929 63.0334 35.5723 61.3185 35.5723C59.6037 35.5723 58.2149 36.929 58.2149 38.6031C58.2149 40.2772 59.6037 41.6339 61.3185 41.6339ZM61.3185 58.0282C63.0567 58.0282 64.4629 56.654 64.4629 54.9595C64.4629 53.2622 63.0567 51.888 61.3185 51.888C59.5833 51.888 58.1742 53.2622 58.1742 54.9595C58.1742 56.654 59.5833 58.0282 61.3185 58.0282ZM46.5255 66.8702C48.3073 66.8702 49.7514 65.4582 49.7514 63.7201C49.7514 61.9819 48.3073 60.5699 46.5255 60.5699C44.7408 60.5699 43.2968 61.979 43.2968 63.7201C43.2968 65.4611 44.7408 66.8702 46.5255 66.8702ZM46.5255 55.2827C41.7158 55.2827 37.8174 51.4775 37.8174 46.7842C37.8174 42.091 41.7158 38.2829 46.5226 38.2829C51.3352 38.2829 55.2336 42.091 55.2336 46.7842C55.2336 51.4775 51.3323 55.2856 46.5255 55.2856V55.2827ZM46.5255 50.1149C48.4092 50.1149 49.9377 48.6243 49.9377 46.7842C49.9377 44.9442 48.4092 43.4536 46.5255 43.4536C44.6389 43.4536 43.1104 44.9442 43.1104 46.7842C43.1104 48.6243 44.6389 50.1149 46.5255 50.1149Z" fill="white"/>
</g>
<defs>
<clipPath id="clip0_342_4912">
<rect width="93.1659" height="93.1659" fill="white" transform="translate(0.00146484 0.198242)"/>
</clipPath>
</defs>
</svg>
