<svg width="94" height="94" viewBox="0 0 94 94" fill="none" xmlns="http://www.w3.org/2000/svg">
<g clip-path="url(#clip0_342_4916)">
<path d="M47.0986 93.3646C72.8256 93.3646 93.6815 72.5087 93.6815 46.7817C93.6815 21.0546 72.8256 0.19873 47.0986 0.19873C21.3715 0.19873 0.515625 21.0546 0.515625 46.7817C0.515625 72.5087 21.3715 93.3646 47.0986 93.3646Z" fill="#404040"/>
<path d="M47.0985 78.8074C29.4116 78.8074 15.0728 64.4686 15.0728 46.7816C15.0728 29.0947 29.4116 14.7559 47.0985 14.7559C64.7855 14.7559 79.1243 29.0947 79.1243 46.7816C79.1243 64.4686 64.7855 78.8074 47.0985 78.8074ZM47.0985 75.599C63.0124 75.599 75.9159 62.6955 75.9159 46.7816C75.9159 30.8677 63.0124 17.9643 47.0985 17.9643C31.1846 17.9643 18.2812 30.8677 18.2812 46.7816C18.2812 62.6955 31.1846 75.599 47.0985 75.599ZM64.6923 35.4853C65.1727 44.0391 57.2682 46.2983 57.2682 46.2983C66.3023 47.5881 65.819 55.3354 65.819 55.3354C65.819 67.9186 51.7801 68.4107 51.7801 68.4107H32.0901V25.1555H49.844C64.6923 25.8018 64.6923 35.4853 64.6923 35.4853ZM42.2568 32.9028V43.3898H49.3607C49.3607 43.3898 54.3625 43.2297 54.6828 39.1944V36.612C54.6828 36.612 54.6828 33.226 49.8411 32.9028H42.2568ZM55.6494 56.631V54.0457C55.6494 54.0457 55.6494 50.6538 50.8106 50.3307H42.2539V60.8264H50.3273C50.3273 60.8264 55.3291 60.6663 55.6523 56.6281L55.6494 56.631Z" fill="white"/>
</g>
<defs>
<clipPath id="clip0_342_4916">
<rect width="93.1659" height="93.1659" fill="white" transform="translate(0.515625 0.198242)"/>
</clipPath>
</defs>
</svg>
