<svg width="94" height="94" viewBox="0 0 94 94" fill="none" xmlns="http://www.w3.org/2000/svg">
<g clip-path="url(#clip0_342_4920)">
<path d="M46.6137 93.3646C72.3407 93.3646 93.1966 72.5087 93.1966 46.7817C93.1966 21.0546 72.3407 0.19873 46.6137 0.19873C20.8867 0.19873 0.0307617 21.0546 0.0307617 46.7817C0.0307617 72.5087 20.8867 93.3646 46.6137 93.3646Z" fill="#E54C40"/>
<path d="M27.1889 25.2868C27.1307 24.8588 27.5325 24.6026 27.7625 24.3115C30.6566 21.4479 33.5371 18.5704 36.4036 15.6791C36.3628 23.5865 36.4269 31.494 36.3716 39.4014C42.3371 36.1115 49.8515 35.9659 55.983 38.9123C55.9772 39.4218 55.9772 39.9284 55.9772 40.4408C51.083 37.8089 45.0651 37.4712 39.8449 39.3054C33.8386 41.3725 29.0522 46.4588 27.1802 52.5116C27.1889 43.4338 27.1773 34.3617 27.1889 25.2868ZM66.173 59.2399C65.9908 64.0529 64.0217 68.6254 60.65 72.0648C57.4797 75.3233 53.2704 77.3715 48.75 77.8553C44.2295 78.3391 39.6821 77.228 35.8941 74.7142C31.5852 71.8785 28.4699 67.2784 27.515 62.2067C26.6852 58.1889 27.2471 53.9237 28.9736 50.2116C30.9354 46.0366 34.3036 42.6849 38.4882 40.7436C43.9733 38.1583 50.658 38.3766 55.9684 41.3026C55.9364 45.6523 55.9393 50.002 55.9713 54.3517C55.1037 52.5553 53.8169 50.9482 52.1137 49.8826C48.7452 47.7078 44.0636 47.8097 40.8115 50.1679C37.2304 52.631 35.6146 57.5164 37.0383 61.6244C38.3106 65.6742 42.3371 68.6468 46.5936 68.6002C50.6871 68.7021 54.6379 66.0265 56.1024 62.2096C57.034 60.0464 56.8011 57.6561 56.8215 55.3677C56.8389 43.5619 56.7924 31.756 56.7982 19.9531C56.8011 18.4682 56.8273 16.9834 56.74 15.5044C59.9134 18.6313 63.0578 21.796 66.2021 24.9549C66.1381 36.3823 66.2021 47.8097 66.173 59.2429V59.2399Z" fill="white"/>
</g>
<defs>
<clipPath id="clip0_342_4920">
<rect width="93.1659" height="93.1659" fill="white" transform="translate(0.0297852 0.198242)"/>
</clipPath>
</defs>
</svg>
