<svg width="94" height="94" viewBox="0 0 94 94" fill="none" xmlns="http://www.w3.org/2000/svg">
<g clip-path="url(#clip0_342_4924)">
<path d="M47.1254 93.3646C72.8525 93.3646 93.7084 72.5087 93.7084 46.7817C93.7084 21.0546 72.8525 0.19873 47.1254 0.19873C21.3984 0.19873 0.54248 21.0546 0.54248 46.7817C0.54248 72.5087 21.3984 93.3646 47.1254 93.3646Z" fill="#0B76FF"/>
<path d="M79.6173 37.057V30.6519L58.7714 42.7925L45.9029 20.6074V35.1646L52.4536 46.5192L49.8042 48.0914L45.9029 41.2204L41.7104 48.6736L38.799 47.4799L45.9029 35.1646V20.6074L31.8115 44.5976L12.1885 36.4747V43.8989L29.6571 48.2078L18.5936 67.1904H45.9029V59.3586H31.9571L37.1686 50.2167L40.3129 51.0028L37.1686 56.5345H54.6372L52.0169 51.9053L55.4815 51.6433L59.936 59.3586H45.9029V67.1904H73.3286L63.8955 51.0901L79.7337 49.9256V43.4913L61.9158 47.8875L79.7046 43.3166V37.4937L60.4018 45.3255L79.6173 37.057ZM54.2878 49.7218L51.1435 50.5078L54.2296 49.7218H54.2878ZM53.2979 47.9749L50.3865 49.1395L53.2979 47.9458V47.9749Z" fill="white"/>
</g>
<defs>
<clipPath id="clip0_342_4924">
<rect width="93.1659" height="93.1659" fill="white" transform="translate(0.543457 0.198242)"/>
</clipPath>
</defs>
</svg>
