<svg width="94" height="94" viewBox="0 0 94 94" fill="none" xmlns="http://www.w3.org/2000/svg">
<g clip-path="url(#clip0_342_4928)">
<path d="M46.6406 93.3646C72.3676 93.3646 93.2235 72.5087 93.2235 46.7817C93.2235 21.0546 72.3676 0.19873 46.6406 0.19873C20.9135 0.19873 0.0576172 21.0546 0.0576172 46.7817C0.0576172 72.5087 20.9135 93.3646 46.6406 93.3646Z" fill="#13A0F6"/>
<path fill-rule="evenodd" clip-rule="evenodd" d="M24.2139 33.8782C23.0743 33.2805 22.12 32.3823 21.4543 31.281C20.7887 30.1796 20.4371 28.9172 20.4378 27.6303C19.9401 26.6868 19.6636 25.6424 19.6292 24.5763C19.5947 23.5101 19.8032 22.4501 20.2388 21.4764C20.6744 20.5027 21.3258 19.6408 22.1437 18.956C22.9615 18.2711 23.9244 17.7813 24.9595 17.5235C25.9946 17.2657 27.0748 17.2466 28.1183 17.4679C29.1618 17.6891 30.1414 18.1448 30.9828 18.8004C31.8242 19.456 32.5056 20.2944 32.9752 21.2522C33.4448 22.21 33.6904 23.262 33.6935 24.3287C37.6689 22.0039 42.1926 20.7818 46.7979 20.7884C61.1804 20.7884 72.8436 32.4749 72.8436 46.8865C72.8436 61.2981 61.1833 72.9846 46.7979 72.9846C32.4125 72.9846 20.7522 61.301 20.7522 46.8865C20.7455 42.3219 21.9393 37.8358 24.2139 33.8782ZM46.7979 59.7259C53.8727 59.7259 59.6082 53.9788 59.6082 46.8865C59.6082 39.7943 53.8727 34.0471 46.7979 34.0471C39.7231 34.0471 33.9876 39.7972 33.9876 46.8865C33.9876 53.9759 39.7231 59.7259 46.7979 59.7259Z" fill="white"/>
</g>
<defs>
<clipPath id="clip0_342_4928">
<rect width="93.1659" height="93.1659" fill="white" transform="translate(0.0576172 0.198242)"/>
</clipPath>
</defs>
</svg>
