<svg width="94" height="94" viewBox="0 0 94 94" fill="none" xmlns="http://www.w3.org/2000/svg">
<g clip-path="url(#clip0_342_4932)">
<path d="M47.1557 93.3646C72.8827 93.3646 93.7386 72.5087 93.7386 46.7817C93.7386 21.0546 72.8827 0.19873 47.1557 0.19873C21.4286 0.19873 0.572754 21.0546 0.572754 46.7817C0.572754 72.5087 21.4286 93.3646 47.1557 93.3646Z" fill="black"/>
<path d="M49.8952 71.7527C50.0466 72.1079 50.1281 72.4951 50.1281 72.9027C50.1281 74.5564 48.7656 75.8957 47.0857 75.8957C45.4058 75.8957 44.0432 74.5564 44.0432 72.9027C44.0432 72.5068 44.1218 72.1283 44.2645 71.7818L26.1845 61.5132C25.8989 61.8038 25.5581 62.0344 25.1821 62.1914C24.8061 62.3484 24.4025 62.4286 23.9951 62.4274C22.3152 62.4274 20.9526 61.0882 20.9526 59.4345C20.9526 58.037 21.9221 56.8666 23.2352 56.5347V36.076C22.5864 35.9154 22.0097 35.5431 21.5963 35.0179C21.1829 34.4927 20.9564 33.8446 20.9526 33.1762C20.9526 31.5225 22.3152 30.1833 23.9951 30.1833C25.0024 30.1833 25.8963 30.6666 26.4523 31.4119L44.1306 21.3675C44.0718 21.1362 44.0425 20.8985 44.0432 20.66C44.0432 19.0063 45.4087 17.667 47.0857 17.667C47.5399 17.6647 47.9887 17.7648 48.3988 17.96C48.809 18.1552 49.1698 18.4404 49.4543 18.7944C49.7389 19.1484 49.94 19.5621 50.0425 20.0045C50.1451 20.447 50.1465 20.9069 50.0466 21.35L67.8296 31.4527C68.3828 30.6841 69.2883 30.1833 70.316 30.1833C71.9959 30.1833 73.3584 31.5225 73.3584 33.1762C73.3584 34.5737 72.3831 35.7499 71.0671 36.0789L71.0147 56.5172C72.3569 56.8287 73.3584 58.0166 73.3584 59.4345C73.3584 61.0882 71.9959 62.4274 70.316 62.4274C69.8913 62.4284 69.4711 62.3409 69.0821 62.1704C68.6931 62 68.3439 61.7504 68.0567 61.4375L49.8952 71.7527ZM49.0829 70.6464L67.3871 60.2467C67.216 59.652 67.2364 59.0184 67.4453 58.4358L49.7875 47.0812C49.449 47.4391 49.041 47.724 48.5883 47.9182C48.1357 48.1125 47.6481 48.2121 47.1555 48.2109C46.6066 48.2123 46.0645 48.0884 45.5706 47.8488C45.0767 47.6091 44.6439 47.26 44.3052 46.828L26.9036 58.5523C27.086 59.1368 27.0819 59.7636 26.892 60.3457L45.0651 70.6668C45.6242 70.1772 46.3425 69.9081 47.0857 69.9098C47.8514 69.9098 48.5501 70.1864 49.0829 70.6435V70.6464ZM49.4294 22.5699C49.0153 23.0585 48.4583 23.4048 47.8368 23.5598L47.7902 41.1914C48.6144 41.3311 49.363 41.7567 49.9045 42.3935C50.446 43.0303 50.7458 43.8376 50.7512 44.6735C50.7512 45.1131 50.6696 45.5382 50.5182 45.9254L68.1906 57.2916C68.5837 56.9132 69.0786 56.6424 69.6318 56.5172L69.6842 36.1051C68.932 35.9518 68.2669 35.5165 67.8252 34.8886C67.3835 34.2607 67.1986 33.4877 67.3085 32.7279L49.4294 22.5699ZM44.7565 22.5844L26.9939 32.6726C27.12 33.4414 26.9428 34.2292 26.4997 34.87C26.0565 35.5108 25.382 35.9547 24.6181 36.1081V56.5026C25.2354 56.6307 25.7827 56.9394 26.202 57.3761L43.6851 45.5993C43.562 45.1322 43.5356 44.6449 43.6073 44.1671C43.679 43.6894 43.8474 43.2313 44.1022 42.8209C44.357 42.4105 44.6928 42.0564 45.0892 41.7802C45.4855 41.504 45.934 41.3116 46.4073 41.2147L46.4539 23.5889C45.7924 23.4514 45.1954 23.0981 44.7565 22.5844Z" fill="white"/>
</g>
<defs>
<clipPath id="clip0_342_4932">
<rect width="93.1659" height="93.1659" fill="white" transform="translate(0.571777 0.198242)"/>
</clipPath>
</defs>
</svg>
