<svg width="94" height="94" viewBox="0 0 94 94" fill="none" xmlns="http://www.w3.org/2000/svg">
<g clip-path="url(#clip0_342_4936)">
<path d="M46.6674 93.3646C72.3945 93.3646 93.2503 72.5087 93.2503 46.7817C93.2503 21.0546 72.3945 0.19873 46.6674 0.19873C20.9404 0.19873 0.0844727 21.0546 0.0844727 46.7817C0.0844727 72.5087 20.9404 93.3646 46.6674 93.3646Z" fill="#2AABE4"/>
<path fill-rule="evenodd" clip-rule="evenodd" d="M23.0851 20.5786H41.136C41.831 20.5786 42.4974 20.8547 42.9888 21.3461C43.4802 21.8375 43.7563 22.504 43.7563 23.1989V41.2498C43.7563 41.9447 43.4802 42.6112 42.9888 43.1026C42.4974 43.594 41.831 43.8701 41.136 43.8701H23.0851C22.3902 43.8701 21.7237 43.594 21.2323 43.1026C20.7409 42.6112 20.4648 41.9447 20.4648 41.2498V23.1989C20.4648 22.504 20.7409 21.8375 21.2323 21.3461C21.7237 20.8547 22.3902 20.5786 23.0851 20.5786ZM52.1995 20.5786H70.2504C70.9453 20.5786 71.6118 20.8547 72.1032 21.3461C72.5946 21.8375 72.8706 22.504 72.8706 23.1989V41.2498C72.8706 41.9447 72.5946 42.6112 72.1032 43.1026C71.6118 43.594 70.9453 43.8701 70.2504 43.8701H52.1995C51.5045 43.8701 50.838 43.594 50.3466 43.1026C49.8552 42.6112 49.5792 41.9447 49.5792 41.2498V23.1989C49.5792 22.504 49.8552 21.8375 50.3466 21.3461C50.838 20.8547 51.5045 20.5786 52.1995 20.5786ZM52.1995 49.6929H70.2504C70.9453 49.6929 71.6118 49.969 72.1032 50.4604C72.5946 50.9518 72.8706 51.6183 72.8706 52.3132V70.3641C72.8706 71.0591 72.5946 71.7256 72.1032 72.217C71.6118 72.7084 70.9453 72.9844 70.2504 72.9844H52.1995C51.5045 72.9844 50.838 72.7084 50.3466 72.217C49.8552 71.7256 49.5792 71.0591 49.5792 70.3641V52.3132C49.5792 51.6183 49.8552 50.9518 50.3466 50.4604C50.838 49.969 51.5045 49.6929 52.1995 49.6929ZM23.0851 49.6929H41.136C41.831 49.6929 42.4974 49.969 42.9888 50.4604C43.4802 50.9518 43.7563 51.6183 43.7563 52.3132V70.3641C43.7563 71.0591 43.4802 71.7256 42.9888 72.217C42.4974 72.7084 41.831 72.9844 41.136 72.9844H23.0851C22.3902 72.9844 21.7237 72.7084 21.2323 72.217C20.7409 71.7256 20.4648 71.0591 20.4648 70.3641V52.3132C20.4648 51.6183 20.7409 50.9518 21.2323 50.4604C21.7237 49.969 22.3902 49.6929 23.0851 49.6929Z" fill="white"/>
</g>
<defs>
<clipPath id="clip0_342_4936">
<rect width="93.1659" height="93.1659" fill="white" transform="translate(0.0854492 0.198242)"/>
</clipPath>
</defs>
</svg>
