<svg width="94" height="94" viewBox="0 0 94 94" fill="none" xmlns="http://www.w3.org/2000/svg">
<g clip-path="url(#clip0_342_4940)">
<path d="M47.1825 93.3646C72.9096 93.3646 93.7655 72.5087 93.7655 46.7817C93.7655 21.0546 72.9096 0.19873 47.1825 0.19873C21.4555 0.19873 0.599609 21.0546 0.599609 46.7817C0.599609 72.5087 21.4555 93.3646 47.1825 93.3646Z" fill="#181818"/>
<path d="M67.8536 32.6028C67.9648 34.9298 67.3392 37.2325 66.0659 39.1833C64.7925 41.1341 62.9363 42.6336 60.7614 43.4683C60.7614 43.4683 63.7077 40.5569 63.5709 33.0949C63.4311 25.6329 57.9518 21.9441 57.9518 21.9441C57.9518 21.9441 67.7168 24.1189 67.8507 32.5999L67.8536 32.6028ZM35.3504 72.4574L25.3467 72.9495V72.0149C25.3467 72.0149 31.4694 71.3831 31.4694 60.3983V32.3321C31.4694 23.033 25.3467 21.4229 25.3467 21.4229V20.5786L35.3504 21.0677V72.4574ZM51.34 72.9815C46.9874 73.0194 38.914 72.4109 38.914 72.4109V21.1405C44.2361 21.0677 46.0965 20.3341 50.4811 20.9658C54.8686 21.5947 58.636 25.9764 59.6637 30.3581C60.6915 34.7398 59.5968 38.9119 58.1906 41.1887C56.7843 43.4654 53.704 45.0463 53.704 45.0463C53.704 45.0463 58.3623 46.6592 60.0073 48.0596C61.6523 49.4629 64.8403 53.2827 63.6058 61.592C62.3714 69.9012 55.6896 72.9466 51.34 72.9815ZM62.9013 71.0891C62.9013 71.0891 67.6469 66.9548 67.4373 58.567C67.2277 50.1792 62.9013 46.2371 62.9013 46.2371C62.9013 46.2371 71.8277 48.4789 71.9267 58.4709C72.0315 68.46 62.9013 71.092 62.9013 71.092V71.0891ZM53.8758 41.0023C57.0726 36.7487 56.0681 28.7452 52.1959 26.0084C48.3237 23.2717 44.2477 24.6401 43.4616 25.4116C42.6697 26.1831 42.7046 44.1321 42.7046 44.1321C42.7046 44.1321 50.6762 45.2559 53.8729 41.0023H53.8758ZM54.4668 48.6448C51.4739 47.3114 42.7046 47.6608 42.7046 47.6608C42.7046 47.6608 42.5678 52.1939 42.8881 60.6778C43.2083 69.1617 46.0412 69.1151 48.9875 69.2316C51.9339 69.348 57.553 69.1384 59.4017 61.822C61.2534 54.5085 57.4598 49.9754 54.4668 48.6448Z" fill="white"/>
</g>
<defs>
<clipPath id="clip0_342_4940">
<rect width="93.1659" height="93.1659" fill="white" transform="translate(0.599609 0.198242)"/>
</clipPath>
</defs>
</svg>
