<svg width="94" height="94" viewBox="0 0 94 94" fill="none" xmlns="http://www.w3.org/2000/svg">
<g clip-path="url(#clip0_342_4944)">
<path d="M46.6967 93.3646C72.4238 93.3646 93.2796 72.5087 93.2796 46.7817C93.2796 21.0546 72.4238 0.19873 46.6967 0.19873C20.9697 0.19873 0.11377 21.0546 0.11377 46.7817C0.11377 72.5087 20.9697 93.3646 46.6967 93.3646Z" fill="#101341"/>
<path fill-rule="evenodd" clip-rule="evenodd" d="M32.2034 20.5786H61.9816L77.2666 46.7815L61.9816 72.9844H31.9385L46.9615 46.7815L32.2005 20.5786H32.2034ZM48.0125 29.7962L57.7687 46.7815L48.0154 63.7668H56.7148L66.4623 46.7815L56.709 29.7962H48.0154H48.0125Z" fill="white"/>
<path opacity="0.5" fill-rule="evenodd" clip-rule="evenodd" d="M35.3798 32.3003L26.9308 46.7818L35.3041 61.1351L29.95 70.4779L16.1265 46.7818L30.0693 22.876L35.3798 32.3003Z" fill="white"/>
</g>
<defs>
<clipPath id="clip0_342_4944">
<rect width="93.1659" height="93.1659" fill="white" transform="translate(0.113281 0.198242)"/>
</clipPath>
</defs>
</svg>
