<svg width="94" height="94" viewBox="0 0 94 94" fill="none" xmlns="http://www.w3.org/2000/svg">
<g clip-path="url(#clip0_342_4950)">
<path d="M47.2094 93.3646C72.9364 93.3646 93.7923 72.5087 93.7923 46.7817C93.7923 21.0546 72.9364 0.19873 47.2094 0.19873C21.4824 0.19873 0.626465 21.0546 0.626465 46.7817C0.626465 72.5087 21.4824 93.3646 47.2094 93.3646Z" fill="#18578C"/>
<path d="M34.4952 59.4053C36.4225 61.3705 36.4225 64.5556 34.4952 66.5208C32.5678 68.4861 29.4409 68.4919 27.5077 66.5296C26.5761 65.5863 26.052 64.3023 26.052 62.9631C26.052 61.6238 26.5761 60.3428 27.5077 59.3966C27.9629 58.9309 28.5067 58.561 29.107 58.3088C29.7074 58.0566 30.3521 57.927 31.0033 57.9278C31.6545 57.9287 32.2989 58.0598 32.8986 58.3135C33.4983 58.5673 34.0412 58.9385 34.4952 59.4053ZM66.7044 25.6036C67.6142 25.9938 68.3888 26.6435 68.9314 27.4715C69.4741 28.2995 69.7607 29.269 69.7555 30.2589C69.7555 32.2969 68.5502 34.1311 66.7044 34.9114C64.8585 35.6917 62.7303 35.2608 61.3182 33.8196C60.3871 32.8685 59.8665 31.5899 59.8683 30.2589C59.8683 28.9197 60.3895 27.6387 61.3182 26.6983C62.0022 25.996 62.882 25.5162 63.8428 25.3214C64.8037 25.1266 65.8009 25.226 66.7044 25.6065V25.6036ZM33.8459 55.5244L38.6119 50.6448C39.0786 51.84 39.7825 52.9282 40.6811 53.8439C41.5798 54.7596 42.6547 55.4838 43.8409 55.9727L39.0632 60.8377L33.8459 55.5244ZM62.0781 37.6569L57.3004 42.5248C56.8368 41.3293 56.1333 40.2414 55.2333 39.3281C54.339 38.4159 53.2681 37.6957 52.086 37.2114L56.8608 32.3435L62.0781 37.6569ZM60.0779 60.7795C60.4437 59.8658 61.0738 59.0821 61.8876 58.5287C62.7014 57.9752 63.6618 57.6773 64.646 57.673C66.6461 57.673 68.4483 58.8987 69.214 60.7795C69.9768 62.6632 69.5547 64.8264 68.1426 66.2676C67.6878 66.7347 67.1441 67.1062 66.5436 67.3602C65.9432 67.6141 65.298 67.7455 64.646 67.7466C63.9945 67.7451 63.3498 67.6136 62.7499 67.3596C62.1499 67.1056 61.6068 66.7343 61.1523 66.2676C60.4585 65.5566 59.9874 64.6586 59.7965 63.6838C59.6057 62.7089 59.7035 61.6996 60.0779 60.7795ZM26.9313 27.8861C27.2965 26.9719 27.9264 26.1875 28.7403 25.6336C29.5541 25.0796 30.5148 24.7812 31.4993 24.7767C33.4995 24.7767 35.3016 26.0024 36.0673 27.8861C36.8301 29.7669 36.408 31.933 34.9959 33.3742C34.5409 33.8408 33.9971 34.2117 33.3966 34.4652C32.7962 34.7187 32.1511 34.8496 31.4993 34.8503C30.848 34.8492 30.2035 34.7181 29.6035 34.4646C29.0036 34.2112 28.4603 33.8404 28.0056 33.3742C27.3119 32.6632 26.8407 31.7652 26.6499 30.7904C26.459 29.8155 26.5568 28.8062 26.9313 27.8861ZM56.4678 60.6223L51.6784 55.7689C52.8646 55.28 53.9395 54.5558 54.8382 53.6401C55.7369 52.7244 56.4408 51.6362 56.9074 50.441L61.6821 55.3089L56.4678 60.6223ZM39.4621 32.0611L44.2368 36.9319C43.0577 37.41 41.9902 38.1266 41.1012 39.0369C40.2045 39.9511 39.497 41.0458 39.0224 42.2453L34.2477 37.3774L39.4621 32.0611ZM48.0275 27.7493C45.2937 27.7493 43.0781 25.4929 43.0781 22.7067C43.0781 19.9204 45.2937 17.667 48.0275 17.667C49.3377 17.667 50.5983 18.1969 51.5271 19.1431C52.4558 20.0893 52.9769 21.3703 52.974 22.7067C52.974 25.4929 50.7614 27.7493 48.0246 27.7493H48.0275ZM52.977 70.856C52.977 73.6393 50.7584 75.8957 48.0275 75.8957C45.2966 75.8957 43.0781 73.6393 43.0781 70.856C43.0781 68.0726 45.2937 65.8134 48.0275 65.8134C49.3377 65.8134 50.5983 66.3433 51.5271 67.2895C52.4558 68.2357 52.9769 69.5167 52.974 70.856H52.977ZM49.8239 30.387V36.6292C48.7934 36.4471 47.7391 36.4471 46.7086 36.6292V30.387H49.8239ZM49.8239 57.2072V63.4522H46.7086V57.2043C47.7393 57.3877 48.7932 57.3877 49.8239 57.2043V57.2072ZM65.3476 47.3316C64.9727 46.4106 64.8747 45.4003 65.0655 44.4244C65.2563 43.4486 65.7277 42.5496 66.422 41.8377C67.1066 41.1344 67.9872 40.6538 68.9491 40.4585C69.9109 40.2633 70.9093 40.3624 71.8139 40.743C73.6627 41.5233 74.868 43.3633 74.868 45.4013C74.868 46.7406 74.3469 48.0216 73.421 48.9678C72.8491 49.5548 72.139 49.989 71.3559 50.2306C70.5727 50.4721 69.7415 50.5134 68.9383 50.3506C68.135 50.1878 67.3855 49.8262 66.7582 49.2987C66.1309 48.7713 65.6459 48.0949 65.3476 47.3316ZM19.5508 46.2573C19.5508 43.4739 21.7635 41.2176 24.5002 41.2176C27.2311 41.2176 29.4467 43.471 29.4497 46.2544C29.4497 47.5936 28.9256 48.8746 27.9998 49.8209C27.544 50.2874 26.9998 50.6583 26.3988 50.9118C25.7979 51.1652 25.1524 51.2962 24.5002 51.297C21.7664 51.297 19.5508 49.0406 19.5508 46.2602V46.2573ZM63.4639 47.844L57.3383 47.8382C57.5169 46.7879 57.5169 45.715 57.3383 44.6647H63.4639V47.844ZM38.3004 47.844H32.1718V44.6705H38.3004C38.1218 45.7208 38.1218 46.7937 38.3004 47.844ZM47.879 53.7746C44.0039 53.7746 40.8625 50.5749 40.8625 46.6299C40.8625 42.6849 44.0039 39.4824 47.879 39.4824C51.7512 39.4824 54.8927 42.6849 54.8956 46.6299C54.8956 50.5749 51.7512 53.7746 47.879 53.7746Z" fill="white"/>
</g>
<defs>
<clipPath id="clip0_342_4950">
<rect width="93.1659" height="93.1659" fill="white" transform="translate(0.627441 0.198242)"/>
</clipPath>
</defs>
</svg>
