<svg width="94" height="94" viewBox="0 0 94 94" fill="none" xmlns="http://www.w3.org/2000/svg">
<g clip-path="url(#clip0_342_4954)">
<path d="M46.7245 93.3646C72.4516 93.3646 93.3075 72.5087 93.3075 46.7817C93.3075 21.0546 72.4516 0.19873 46.7245 0.19873C20.9975 0.19873 0.141602 21.0546 0.141602 46.7817C0.141602 72.5087 20.9975 93.3646 46.7245 93.3646Z" fill="#F3BA2F"/>
<path d="M35.4167 42.1347L46.7247 30.8267L58.0385 42.1405L64.6184 35.5607L46.7247 17.667L28.8368 35.5548L35.4167 42.1347ZM17.6104 46.7813L24.1902 40.2015L30.77 46.7813L24.1902 53.3612L17.6104 46.7813ZM35.4167 51.428L46.7247 62.736L58.0385 51.4221L64.6184 57.9991L46.7247 75.8957L28.8368 58.0078L28.8281 57.9991L35.4167 51.428ZM62.6793 46.7813L69.2592 40.2015L75.839 46.7813L69.2592 53.3612L62.6793 46.7813ZM53.3977 46.7755H53.4035V46.7813L46.7247 53.4602L40.0546 46.793L40.0429 46.7813L40.0546 46.7726L41.2221 45.6022L41.7898 45.0345L46.7247 40.1025L53.4006 46.7784L53.3977 46.7755Z" fill="white"/>
</g>
<defs>
<clipPath id="clip0_342_4954">
<rect width="93.1659" height="93.1659" fill="white" transform="translate(0.141602 0.198242)"/>
</clipPath>
</defs>
</svg>
