<svg width="94" height="94" viewBox="0 0 94 94" fill="none" xmlns="http://www.w3.org/2000/svg">
<g clip-path="url(#clip0_342_4958)">
<path d="M47.2392 93.3646C72.9662 93.3646 93.8221 72.5087 93.8221 46.7817C93.8221 21.0546 72.9662 0.19873 47.2392 0.19873C21.5121 0.19873 0.65625 21.0546 0.65625 46.7817C0.65625 72.5087 21.5121 93.3646 47.2392 93.3646Z" fill="#000D2B"/>
<path d="M47.0061 17.3174L33.8523 25.0239L47.0061 32.7334L60.4075 25.0239L47.0061 17.3174ZM49.1693 58.4676V73.8836L67.0368 63.6907V48.2717L49.1693 58.4676ZM62.5707 29.8715V45.2904L49.1664 52.9999V37.581L62.5707 29.8715ZM30.3062 45.2904L43.7104 52.9999V37.581L30.3062 29.8715V45.2904ZM30.3062 66.1771L43.7104 73.8836V58.4676L30.3062 50.761V66.1741V66.1771Z" fill="white"/>
</g>
<defs>
<clipPath id="clip0_342_4958">
<rect width="93.1659" height="93.1659" fill="white" transform="translate(0.655273 0.198242)"/>
</clipPath>
</defs>
</svg>
