<svg width="94" height="94" viewBox="0 0 94 94" fill="none" xmlns="http://www.w3.org/2000/svg">
<g clip-path="url(#clip0_342_4962)">
<path d="M46.7519 93.3646C72.4789 93.3646 93.3348 72.5087 93.3348 46.7817C93.3348 21.0546 72.4789 0.19873 46.7519 0.19873C21.0248 0.19873 0.168945 21.0546 0.168945 46.7817C0.168945 72.5087 21.0248 93.3646 46.7519 93.3646Z" fill="#FD7A3D"/>
<path d="M73.5231 56.6805C75.7649 57.9033 76.5131 60.7157 75.0167 62.9168C73.7735 65.1178 70.9115 65.8515 68.6697 64.6287C67.9946 64.2394 67.4255 63.6901 67.0127 63.029C66.6 62.368 66.3561 61.6155 66.3027 60.838H54.8462L49.3669 70.1284C49.3669 70.2507 49.2417 70.373 49.1194 70.4953C50.3626 71.2289 51.2361 72.6963 51.2361 74.2859C51.2361 76.7315 49.1194 78.8074 46.6273 78.8074C44.138 78.8074 42.0214 76.8509 42.0214 74.2859C42.0214 72.6963 42.8948 71.3512 44.138 70.4953C44.138 70.373 44.0128 70.2507 43.8876 70.1284L38.4112 60.8409H26.9547C26.8295 62.4277 25.959 63.7728 24.5877 64.6258C22.3459 65.8486 19.484 65.1178 18.2379 62.9168C16.9918 60.7157 17.74 57.9062 19.9818 56.6834C21.4754 55.8274 23.0941 55.8274 24.4654 56.5611C24.5877 56.4389 24.5877 56.1943 24.7129 56.072L30.3174 46.7816L24.8381 37.4942C24.7062 37.3596 24.6188 37.1879 24.5877 37.0021C23.2193 37.6135 21.4754 37.7358 20.1041 36.8798C19.5765 36.5888 19.1123 36.1956 18.7383 35.7232C18.3644 35.2508 18.0883 34.7086 17.9263 34.1283C17.7642 33.548 17.7193 32.9412 17.7943 32.3434C17.8693 31.7456 18.0627 31.1687 18.3631 30.6465C19.6063 28.4454 22.4711 27.7117 24.7129 28.9345C26.2065 29.7905 26.9547 31.2579 27.0799 32.7252H38.6587L44.138 23.4348C44.138 23.3126 44.2632 23.1903 44.3855 23.068C43.7386 22.6692 43.2045 22.1115 42.8341 21.448C42.4636 20.7845 42.269 20.0372 42.2688 19.2773C42.2688 16.8317 44.3855 14.7559 46.8776 14.7559C49.3669 14.7559 51.4835 16.7123 51.4835 19.2773C51.4835 20.867 50.6101 22.212 49.3669 23.068C49.3669 23.1903 49.4921 23.3126 49.6173 23.4348L55.0937 32.7223H66.5502C66.6754 31.1356 67.5459 29.7905 68.9172 28.9375C71.159 27.7147 74.0209 28.4454 75.267 30.6465C75.5673 31.1689 75.7605 31.746 75.8353 32.3439C75.9101 32.9418 75.865 33.5487 75.7026 34.129C75.5402 34.7093 75.2639 35.2514 74.8897 35.7237C74.5155 36.1961 74.0509 36.5891 73.5231 36.8798C72.0295 37.7358 70.4108 37.7358 69.0395 37.0021C68.9172 37.1244 68.9172 37.369 68.792 37.4912L63.3127 46.7816L68.792 56.0691C68.9239 56.2036 69.0113 56.3754 69.0424 56.5611C70.4108 55.9497 72.1547 55.8274 73.526 56.6834L73.5231 56.6805ZM52.7296 43.7246C52.7296 41.1596 50.613 39.0809 47.9985 39.0809H42.0214C41.8754 39.079 41.7304 39.106 41.5949 39.1603C41.4593 39.2147 41.3359 39.2954 41.2317 39.3977C41.1275 39.5 41.0446 39.6219 40.9877 39.7564C40.9309 39.8909 40.9012 40.0354 40.9005 40.1814V53.3818C40.9005 53.9932 41.3983 54.4824 42.0214 54.4824H47.9985C50.613 54.4824 52.7296 52.4036 52.7296 49.8386C52.7296 48.7381 52.357 47.6376 51.6087 46.9039C52.2318 45.9257 52.7296 44.9474 52.7296 43.7246Z" fill="white"/>
</g>
<defs>
<clipPath id="clip0_342_4962">
<rect width="93.1659" height="93.1659" fill="white" transform="translate(0.169922 0.198242)"/>
</clipPath>
</defs>
</svg>
