<svg width="94" height="94" viewBox="0 0 94 94" fill="none" xmlns="http://www.w3.org/2000/svg">
<g clip-path="url(#clip0_342_4966)">
<path d="M47.2665 93.3646C72.9936 93.3646 93.8495 72.5087 93.8495 46.7817C93.8495 21.0546 72.9936 0.19873 47.2665 0.19873C21.5395 0.19873 0.683594 21.0546 0.683594 46.7817C0.683594 72.5087 21.5395 93.3646 47.2665 93.3646Z" fill="#00B4F4"/>
<path d="M23.3139 67.1032V67.5574H18.6265V58.96L18.481 59.4345L13.9974 58.0662L16.5303 49.7802L16.2159 50.2431L12.3291 47.6228L17.1854 40.42L16.7225 40.7955L13.7732 37.1504L20.7606 31.4906L19.8697 31.8341L18.1898 27.4553L26.5369 24.2528L25.5616 24.3197L25.2355 19.644L33.9756 19.0326L33.1895 18.8491L34.2435 14.2782L42.5935 16.2085L42.0665 15.9057L44.4102 11.8442L51.6946 16.0483L51.4093 15.7456L54.8389 12.5459L60.5104 18.6308L60.391 18.3804L64.6039 16.3249L68.2432 23.784L68.2112 23.5744L72.8403 22.8407L74.2058 31.4586L74.3019 30.8443L78.934 31.5779L77.5481 40.321L77.8917 39.6193L82.1074 41.6748L78.2061 49.6725L78.7738 49.0611L82.2035 52.2608L76.1419 58.7591L76.8756 58.3369L79.2193 62.3984L71.6001 66.7946L72.3658 66.6199L73.4197 71.188L64.9998 73.1328L65.6491 73.1765L65.3201 77.8552L56.8915 77.2641L57.3224 77.4301L55.6425 81.806L47.572 78.7111L48.0815 79.1216L45.1322 82.7668L38.4709 77.3748L38.7999 77.861L34.9131 80.4813L30.1529 73.4269L30.2956 73.8898L25.809 75.2582L23.3139 67.1032ZM23.3139 61.5308L26.2428 60.637L28.5196 68.0815L31.0525 66.3725L35.3789 72.7893L37.3121 70.4019L43.3097 75.2582L44.384 72.4632L51.6102 75.2378L51.8227 72.2099L59.5555 72.7514L58.8596 69.7381L66.4439 67.9854L64.8717 65.2661L71.6408 61.359L69.3204 59.1987L74.6687 53.4632L71.8155 52.0744L75.2539 45.0258L72.1358 44.5309L73.3586 36.7923L70.3773 37.264L69.1545 29.5254L66.4672 30.8355L63.0521 23.8393L60.8627 25.8803L55.5814 20.2175L54.0674 22.8349L47.3828 18.9743L46.6928 21.9673L39.1696 20.2292L39.388 23.3531L31.6668 23.8917L32.8081 26.8672L25.5383 29.6564L27.4948 32.0729L21.3895 37.0165L23.9661 38.7517L19.5669 45.2733L22.5308 46.1817L20.2307 53.699H23.3139V61.5308ZM33.6786 32.8561H43.1321C44.2326 32.8561 45.3244 32.9347 46.4103 33.089C47.4963 33.2433 48.4513 33.5548 49.2752 34.0206C50.0991 34.4865 50.728 35.1357 51.156 35.9713C51.5869 36.8069 51.7062 37.919 51.5141 39.302C51.3248 40.7373 50.7571 41.9223 49.8138 42.8656C48.8705 43.8089 47.7176 44.4843 46.3579 44.889V44.9618C47.1673 45.0812 47.8923 45.3141 48.524 45.6605C49.1558 46.007 49.677 46.4466 50.0817 46.9852C50.4893 47.5239 50.7746 48.1498 50.9405 48.866C51.1094 49.5822 51.1327 50.345 51.0133 51.1573C50.8212 52.4966 50.3815 53.6117 49.6886 54.5055C49.0088 55.391 48.1559 56.129 47.1819 56.6745C46.1747 57.2341 45.0863 57.6329 43.956 57.8565C42.8258 58.0911 41.6748 58.211 40.5205 58.2146H30.1325L33.6757 32.8561H33.6786ZM37.8333 42.9966H41.8801C42.3081 42.9966 42.739 42.9471 43.1699 42.851C43.5913 42.7584 43.9959 42.6013 44.3694 42.3852C44.7393 42.1708 45.0574 41.8775 45.3011 41.5263C45.5515 41.1682 45.7116 40.7402 45.7844 40.2365C45.8667 39.7944 45.8097 39.3377 45.6213 38.9293C45.4501 38.5907 45.1827 38.3101 44.8527 38.1228C44.4901 37.9222 44.0965 37.7834 43.6882 37.7123C43.2573 37.6299 42.8196 37.5879 42.3809 37.5871H38.5844L37.8333 42.9966ZM36.363 53.4894H41.3794C41.8074 53.4894 42.2557 53.4399 42.7186 53.3438C43.6292 53.1679 44.4406 52.6567 44.9925 51.9114C45.2918 51.5008 45.4785 51.019 45.534 50.5139C45.6039 49.92 45.5224 49.4367 45.2836 49.0669C45.0404 48.6917 44.6906 48.3977 44.2792 48.2226C43.8282 48.026 43.3519 47.8937 42.8642 47.8296C42.384 47.7603 41.8995 47.7243 41.4143 47.7218H37.1869L36.363 53.4865V53.4894ZM63.3229 33.2607L57.3923 54.9218L52.4952 54.5783L56.1869 32.2476L63.3199 33.2607H63.3229ZM58.1522 57.1811L56.612 64.8323L50.0991 62.9341L51.5898 55.5943L58.1522 57.1782V57.1811Z" fill="#FEFFFF"/>
</g>
<defs>
<clipPath id="clip0_342_4966">
<rect width="93.1659" height="93.1659" fill="white" transform="translate(0.683594 0.198242)"/>
</clipPath>
</defs>
</svg>
