<svg width="94" height="94" viewBox="0 0 94 94" fill="none" xmlns="http://www.w3.org/2000/svg">
<g clip-path="url(#clip0_342_4970)">
<path d="M46.7812 93.3646C72.5082 93.3646 93.3641 72.5087 93.3641 46.7817C93.3641 21.0546 72.5082 0.19873 46.7812 0.19873C21.0541 0.19873 0.198242 21.0546 0.198242 46.7817C0.198242 72.5087 21.0541 93.3646 46.7812 93.3646Z" fill="#00A8D6"/>
<path fill-rule="evenodd" clip-rule="evenodd" d="M42.216 55.3702V49.789H50.8163C56.5519 49.789 59.4196 48.3566 59.4196 45.4918V30.4571C59.4196 27.5952 56.5519 26.1627 50.8163 26.1627H37.0569V35.1824H29.3125V20.5786H49.9546C61.4256 20.5786 67.1611 23.7288 67.1611 30.0291V45.9226C67.1611 52.223 61.4256 55.3732 49.9546 55.3732H42.216V55.3702ZM59.4196 58.8086H67.1611V63.5339C67.1611 69.8342 61.4256 72.9844 49.9546 72.9844H29.3125V39.4796H49.9546C51.1686 39.4796 52.3128 39.5146 53.3988 39.5844V45.1773C52.5404 45.0969 51.6785 45.058 50.8163 45.0609H37.0569V67.4003H50.8193C56.5548 67.4003 59.4225 65.9679 59.4225 63.1059V58.8057L59.4196 58.8086Z" fill="white"/>
</g>
<defs>
<clipPath id="clip0_342_4970">
<rect width="93.1659" height="93.1659" fill="white" transform="translate(0.197266 0.198242)"/>
</clipPath>
</defs>
</svg>
