<svg width="94" height="94" viewBox="0 0 94 94" fill="none" xmlns="http://www.w3.org/2000/svg">
<g clip-path="url(#clip0_342_4974)">
<path d="M47.2944 93.3646C73.0214 93.3646 93.8773 72.5087 93.8773 46.7817C93.8773 21.0546 73.0214 0.19873 47.2944 0.19873C21.5673 0.19873 0.711426 21.0546 0.711426 46.7817C0.711426 72.5087 21.5673 93.3646 47.2944 93.3646Z" fill="#0F63D8"/>
<path d="M76.0709 60.5729C75.7906 61.1502 75.4826 61.7137 75.148 62.2615C74.9238 62.6633 74.7084 63.065 74.4726 63.4464C74.3648 63.624 74.2775 63.8075 74.1698 63.9792H74.1348C71.8744 67.5709 68.9163 70.6726 65.4358 73.1007C61.9552 75.5288 58.0229 77.2339 53.8716 78.1151C49.7203 78.9962 45.4343 79.0356 41.2676 78.2308C37.1008 77.426 33.1378 75.7935 29.6132 73.4297C29.4676 73.3308 29.3424 73.223 29.1998 73.127C28.6488 72.7705 28.1154 72.3877 27.6014 71.9799C26.7882 71.3603 26.0106 70.6955 25.2722 69.9884C24.9192 69.6615 24.5745 69.3256 24.2387 68.9811C23.8777 68.6113 23.5632 68.2532 23.1964 67.8369C22.8276 67.4221 22.4684 66.9988 22.1192 66.5675C21.846 66.2185 21.581 65.8632 21.3243 65.5019C20.9671 65.0116 20.6234 64.5117 20.2937 64.0025C20.0812 63.6706 19.8832 63.3329 19.6823 62.9893C19.3533 62.4413 19.0436 61.882 18.7535 61.3124C18.5818 60.9746 18.4216 60.6311 18.2615 60.2875C17.993 59.7082 17.7377 59.1229 17.4958 58.5319C17.3502 58.1651 17.2192 57.7924 17.0882 57.4198C16.8873 56.8375 16.6893 56.229 16.5176 55.6584C16.4011 55.2449 16.3283 54.8519 16.2002 54.4268C16.0545 53.8581 15.9254 53.2853 15.813 52.7091C15.7548 52.2724 15.6587 51.8124 15.6179 51.3989C15.533 50.8282 15.4621 50.2554 15.4054 49.6812C15.3646 49.2299 15.3151 48.7786 15.3151 48.3245C15.2686 47.7538 15.2686 47.1803 15.2686 46.6067C15.2686 46.17 15.3035 45.7333 15.3035 45.2936C15.3498 44.2806 15.4431 43.2702 15.583 42.2658C15.8698 40.218 16.3534 38.2027 17.0271 36.2478C17.2745 35.5316 17.5511 34.8212 17.8568 34.1137C17.9238 33.9536 18.0024 33.7585 18.0432 33.6275C18.0903 33.4833 18.17 33.3518 18.2761 33.2432C18.5759 32.5969 18.9078 31.9564 19.2572 31.3217C19.4232 30.9665 19.6241 30.6171 19.8308 30.2736C19.9763 30.0232 20.0753 29.7874 20.2675 29.5137C20.4538 29.2371 20.6722 28.9518 20.8672 28.6664C21.1169 28.2747 21.3821 27.893 21.6621 27.5223C22.0289 27.0273 22.4103 26.5469 22.8063 26.0782C23.4997 25.2583 24.2333 24.4732 25.0044 23.7257C25.2897 23.4579 25.5721 23.1871 25.8633 22.9309C26.6483 22.2574 27.4552 21.6098 28.2827 20.989C28.83 20.6105 29.389 20.2262 29.9538 19.8448C30.2548 19.6471 30.5606 19.4569 30.8709 19.2742C31.4445 18.9423 32.0151 18.622 32.5887 18.3221C33.8835 17.6516 35.2241 17.0737 36.6006 16.5927C38.0359 16.0794 39.5073 15.6736 41.0027 15.3787C41.9819 15.1875 42.9688 15.0379 43.9607 14.9303C44.6071 14.8604 45.2592 14.8138 45.9172 14.7847C46.2724 14.7556 46.6334 14.7556 46.9944 14.7556C48.0294 14.7431 49.0643 14.7839 50.0951 14.8779C51.772 15.0228 53.4342 15.3052 55.0649 15.7222C55.4813 15.8328 55.9005 15.9493 56.3169 16.0716C56.9283 16.2463 57.5018 16.4355 58.0754 16.6451C58.5033 16.7994 58.9342 16.9654 59.3564 17.143C59.6766 17.2769 60.0027 17.3788 60.323 17.5215V17.5681C64.2135 19.2716 67.7222 21.7391 70.6411 24.8241C73.5601 27.9092 75.8298 31.549 77.3156 35.5277C78.8014 39.5064 79.473 43.743 79.2908 47.9861C79.1085 52.2293 78.0759 56.3927 76.2544 60.2293C76.1961 60.3516 76.1263 60.4535 76.0709 60.5729ZM35.1478 73.6743V73.6685C41.6854 76.5975 49.0646 77.051 55.9117 74.9445C62.7587 72.838 68.607 68.3151 72.3676 62.2178C72.5772 61.8684 72.7752 61.5074 72.9732 61.1522C73.2468 60.6282 73.5555 60.1216 73.8204 59.5509C75.5807 55.9311 76.5781 51.9881 76.7507 47.9667C76.9233 43.9453 76.2673 39.9313 74.8236 36.174C73.3799 32.4167 71.1792 28.9963 68.3582 26.1252C65.5371 23.254 62.156 20.9935 58.4247 19.4838C58.0475 19.323 57.666 19.1726 57.2805 19.0325C56.3639 18.7072 55.4332 18.4226 54.4914 18.1795C52.9686 17.7903 51.4164 17.5264 49.8506 17.3905L48.8723 17.3206C48.2405 17.2915 47.6146 17.2769 46.9886 17.2769H46.0046C45.3961 17.3031 44.7934 17.3468 44.1907 17.4079C43.8268 17.4487 43.4658 17.4953 43.1077 17.5448C42.1384 17.6759 41.1771 17.8606 40.2283 18.0979C39.2723 18.328 38.3295 18.6098 37.4042 18.9423C36.9937 19.082 36.5977 19.2334 36.2163 19.3877C35.3666 19.7351 34.5313 20.1168 33.7125 20.5319C32.8813 20.9623 32.0692 21.4286 31.2785 21.9294C30.7454 22.2609 30.2276 22.6164 29.7267 22.995C29.4647 23.1726 29.2027 23.3647 28.9465 23.5656C28.1826 24.1697 27.4481 24.81 26.7454 25.4843C26.3174 25.9151 25.8982 26.3519 25.4848 26.7944C24.8341 27.5075 24.2171 28.2508 23.636 29.0216C23.032 29.8341 22.4666 30.6745 21.9416 31.54C21.7523 31.8545 21.5805 32.1689 21.4029 32.4833C21.0536 33.0714 20.7683 33.6683 20.4829 34.2884C19.9414 35.4574 19.4765 36.6605 19.0913 37.8899C18.7701 38.8338 18.5104 39.7976 18.3139 40.7751C18.1887 41.3865 18.0839 42.0066 17.9995 42.6239C17.9529 42.9791 17.9005 43.3401 17.8685 43.6953C17.8102 44.2688 17.7462 44.8395 17.7462 45.413C17.7112 45.8031 17.7112 46.1991 17.7112 46.5921C17.7112 47.1366 17.7578 47.6781 17.7578 48.2226C17.8081 49.1679 17.9034 50.1103 18.0432 51.0466C18.1188 51.4397 18.1829 51.8123 18.2557 52.2345C18.3605 52.7731 18.4857 53.3117 18.6167 53.8503C18.7099 54.2143 18.8001 54.5811 18.9078 54.9538C19.068 55.507 19.2514 56.0514 19.4465 56.5958C19.5658 56.9277 19.6794 57.2655 19.8133 57.5974C20.0317 58.1476 20.2704 58.6804 20.4946 59.2452C20.6431 59.5597 20.7857 59.877 20.9458 60.1856C21.2312 60.7068 21.5078 61.2221 21.8047 61.7287C21.9998 62.046 22.1832 62.3546 22.3783 62.6633C22.6752 63.132 23.0013 63.5891 23.3274 64.0491C23.5691 64.381 23.7437 64.6547 24.0611 65.0332C24.3755 65.4117 24.7307 65.8222 25.0393 66.1774C25.3479 66.5326 25.6915 66.9169 26.0001 67.2371C26.3087 67.5574 26.5504 67.7845 26.9492 68.163C27.6254 68.8161 28.339 69.4295 29.0862 70.0001C30.9517 71.4641 32.9869 72.6977 35.1478 73.6743ZM47.2361 71.2724C42.3885 71.2758 37.6488 69.8417 33.6164 67.1513C29.5839 64.4608 26.4399 60.635 24.5819 56.1577C22.7239 51.6804 22.2354 46.7526 23.1781 41.9976C24.1209 37.2426 26.4525 32.8739 29.8782 29.4441C33.304 26.0144 37.6698 23.6775 42.4237 22.7291C47.1776 21.7807 52.1059 22.2634 56.5855 24.1161C61.065 25.9687 64.8946 29.1082 67.5898 33.1375C70.285 37.1667 71.7248 41.9047 71.7271 46.7523C71.7225 53.249 69.1416 59.4786 64.5505 64.0752C59.9594 68.6718 53.7328 71.26 47.2361 71.2724ZM47.2361 30.2852C43.9756 30.2812 40.7871 31.2445 38.0743 33.0533C35.3614 34.862 33.2461 37.4349 31.9961 40.4463C30.7461 43.4578 30.4175 46.7723 31.052 49.9705C31.6865 53.1688 33.2555 56.1069 35.5604 58.413C37.8654 60.7192 40.8026 62.2897 44.0005 62.9259C47.1984 63.5621 50.5131 63.2353 53.5252 61.9869C56.5373 60.7384 59.1113 58.6245 60.9215 55.9126C62.7317 53.2008 63.6967 50.0128 63.6944 46.7523C63.6898 42.3868 61.955 38.2011 58.87 35.1124C55.7851 32.0236 51.6016 30.2836 47.2361 30.2736V30.2852Z" fill="white"/>
</g>
<defs>
<clipPath id="clip0_342_4974">
<rect width="93.1659" height="93.1659" fill="white" transform="translate(0.711426 0.198242)"/>
</clipPath>
</defs>
</svg>
