<svg width="94" height="94" viewBox="0 0 94 94" fill="none" xmlns="http://www.w3.org/2000/svg">
<g clip-path="url(#clip0_342_4978)">
<path d="M46.8085 93.3646C72.5356 93.3646 93.3915 72.5087 93.3915 46.7817C93.3915 21.0546 72.5356 0.19873 46.8085 0.19873C21.0815 0.19873 0.225586 21.0546 0.225586 46.7817C0.225586 72.5087 21.0815 93.3646 46.8085 93.3646Z" fill="#1D1D1D"/>
<path fill-rule="evenodd" clip-rule="evenodd" d="M29.2293 49.5587C29.2297 51.035 29.5217 52.4966 30.0887 53.8597C30.6557 55.2228 31.4864 56.4604 32.5331 57.5014C33.5798 58.5424 34.8219 59.3664 36.1881 59.9259C37.5542 60.4855 39.0174 60.7696 40.4937 60.7619C46.6717 60.7241 51.691 55.7659 51.6939 49.6985C51.7075 48.2181 51.4264 46.7499 50.8672 45.3792C50.3079 44.0086 49.4815 42.7628 48.4362 41.7146C47.3909 40.6663 46.1476 39.8364 44.7785 39.2732C43.4094 38.71 41.942 38.4248 40.4616 38.4341C34.2545 38.4429 29.2293 43.4185 29.2293 49.5587ZM29.241 61.6121V65.3183H23.5171V23.4897C25.1446 23.5189 26.5188 24.1011 27.6222 25.2512C28.6791 26.3575 29.206 27.6822 29.2002 29.2194C29.1856 31.9766 29.1944 34.7337 29.1944 37.6218C33.1918 34.2824 37.6434 32.6375 42.8286 33.4294C47.9673 34.2155 51.9123 36.8008 54.6025 41.2233C58.6639 47.905 57.3479 56.4384 51.4639 61.7489C45.7255 66.9312 36.1906 67.7348 29.241 61.6121ZM47.7548 65.2426C47.9819 65.1058 48.1012 65.0243 48.2264 64.9602C50.0294 64.0741 51.657 62.8687 53.0303 61.4024C53.1692 61.2445 53.3391 61.1167 53.5294 61.0271C53.7197 60.9375 53.9264 60.8878 54.1366 60.8813C58.9987 60.6018 63.3804 56.6888 64.2044 51.9024C65.2874 45.6137 61.4676 40.0645 55.1498 38.8592C54.282 38.7279 53.4883 38.2949 52.908 37.6364C51.7434 36.3495 50.3285 35.3451 48.8233 34.4804C48.6952 34.4076 48.5729 34.329 48.3633 34.2009C51.2281 33.4148 54.0202 33.2285 56.8501 33.8719C59.6654 34.5095 62.0907 35.8895 64.3616 37.7732V34.0612H70.1V75.8955C69.3375 75.8909 68.5836 75.7334 67.883 75.4324C67.1824 75.1313 66.5493 74.6928 66.0211 74.1429C65.4987 73.6167 65.0872 72.991 64.8111 72.3028C64.5351 71.6147 64.4 70.8781 64.414 70.1367V61.7809C59.4704 65.9239 54.0027 67.1642 47.7548 65.2426Z" fill="white"/>
</g>
<defs>
<clipPath id="clip0_342_4978">
<rect width="93.1659" height="93.1659" fill="white" transform="translate(0.225586 0.198242)"/>
</clipPath>
</defs>
</svg>
