<svg width="94" height="94" viewBox="0 0 94 94" fill="none" xmlns="http://www.w3.org/2000/svg">
<g clip-path="url(#clip0_342_4982)">
<path d="M47.3229 93.3646C73.05 93.3646 93.9059 72.5087 93.9059 46.7817C93.9059 21.0546 73.05 0.19873 47.3229 0.19873C21.5959 0.19873 0.73999 21.0546 0.73999 46.7817C0.73999 72.5087 21.5959 93.3646 47.3229 93.3646Z" fill="#FE5D86"/>
<path d="M24.0315 26.5147C24.0315 24.8436 25.4057 23.4897 27.1001 23.4897H49.1921C62.2237 23.4897 66.8208 25.027 69.9885 28.151C70.968 29.1459 71.7281 30.3352 72.2195 31.642C72.711 32.9489 72.9229 34.3443 72.8417 35.7381C72.8417 41.1272 69.939 44.7811 62.1072 46.3853C69.6711 47.7071 73.5113 50.7815 73.5113 56.9654C73.5831 58.4077 73.3564 59.8492 72.8454 61.1998C72.3344 62.5505 71.5501 63.7811 70.5416 64.8146C67.441 67.8716 62.3751 70.0727 48.7408 70.0727H27.1001C26.2922 70.0781 25.5151 69.7625 24.9397 69.1953C24.3643 68.6281 24.0376 67.8557 24.0315 67.0477V26.5147ZM40.8043 43.8727C40.8043 42.7576 41.7214 41.8551 42.851 41.8551H49.9636C54.0222 41.8551 57.0588 41.6571 58.465 40.2014C58.7926 39.8575 59.0452 39.4494 59.2071 39.0029C59.3689 38.5564 59.4365 38.0812 59.4054 37.6073C59.4928 36.6756 59.1783 35.7498 58.532 35.0598C57.1054 33.6565 54.0717 33.409 49.9636 33.409H36.7253V60.2874H49.8268C54.2871 60.2874 57.5916 59.9554 59.1346 58.4182C59.845 57.6904 60.2119 56.7005 60.142 55.6902C60.2061 54.6625 59.8421 53.6522 59.1346 52.8952C57.5741 51.3609 54.2726 51.2444 49.8268 51.2444H42.8976C42.6199 51.2513 42.3436 51.202 42.0855 51.0994C41.8273 50.9969 41.5926 50.8432 41.3953 50.6476C41.1995 50.4543 41.0457 50.2226 40.9435 49.9671C40.8413 49.7116 40.7929 49.4378 40.8014 49.1628L40.8043 43.8727Z" fill="white"/>
</g>
<defs>
<clipPath id="clip0_342_4982">
<rect width="93.1659" height="93.1659" fill="white" transform="translate(0.739502 0.198242)"/>
</clipPath>
</defs>
</svg>
