<svg width="94" height="94" viewBox="0 0 94 94" fill="none" xmlns="http://www.w3.org/2000/svg">
<g clip-path="url(#clip0_342_4990)">
<path d="M47.3505 93.3646C73.0776 93.3646 93.9334 72.5087 93.9334 46.7817C93.9334 21.0546 73.0776 0.19873 47.3505 0.19873C21.6235 0.19873 0.767578 21.0546 0.767578 46.7817C0.767578 72.5087 21.6235 93.3646 47.3505 93.3646Z" fill="#EAB304"/>
<path d="M65.2558 42.6174L65.4596 42.2098C65.4596 42.006 65.4596 41.8022 65.8672 41.9478C65.8987 41.7647 65.8987 41.5776 65.8672 41.3946C65.9654 41.1317 65.9654 40.8422 65.8672 40.5794C65.4541 39.5723 65.3826 38.4576 65.6634 37.4059C65.6955 37.272 65.6955 37.1323 65.6634 36.9983L65.8672 36.7945C65.9498 36.8694 66.0188 36.958 66.071 37.0566C66.1031 37.1905 66.1031 37.3302 66.071 37.4642V37.668C66.071 37.8718 66.4203 37.4642 66.5659 37.3186C66.7457 37.1798 66.9411 37.0626 67.1482 36.9692C67.1869 36.4368 67.1176 35.902 66.9444 35.397C66.6201 34.3011 66.6923 33.126 67.1482 32.078C67.1482 32.2818 67.4102 32.4274 67.4102 32.6312C67.4597 33.3881 67.78 34.1014 68.3128 34.6401C68.9038 35.3184 69.3492 36.1103 69.6229 36.9692C69.6229 36.9692 69.6229 37.2312 69.8267 37.2312C70.6652 37.4729 71.428 37.9212 72.0394 38.5414C72.744 39.1761 73.4136 39.8457 74.0483 40.5503C74.1582 40.6702 74.2469 40.8081 74.3103 40.9579H74.5141C74.5481 40.3178 74.5481 39.6764 74.5141 39.0363C74.5141 38.4832 74.7762 37.93 75.3293 38.0173H75.5914C75.6037 37.7716 75.6956 37.5365 75.8531 37.3475C76.0106 37.1584 76.2253 37.0257 76.4648 36.9692C76.567 37.1462 76.6208 37.3471 76.6208 37.5515C76.6208 37.7559 76.567 37.9567 76.4648 38.1338C76.8724 38.6287 76.9597 38.8908 76.4648 39.4439C75.9698 39.9971 76.2028 40.0553 76.4648 40.6085C76.5214 40.2878 76.6401 39.9812 76.8142 39.706C76.9597 39.4148 77.018 38.949 77.3673 38.8034C77.4804 38.7635 77.6037 38.7635 77.7167 38.8034C78.0531 38.8701 78.3993 38.8701 78.7357 38.8034C78.9482 38.7859 79.1608 38.8355 79.3436 38.9452C79.5264 39.0549 79.6702 39.2191 79.7547 39.4148L78.7939 39.8806C78.9977 40.2882 78.7939 40.4338 78.3863 40.6958C78.1834 40.8821 77.9983 41.0868 77.8332 41.3072C78.2066 41.241 78.576 41.1536 78.9395 41.0452C79.1868 40.9824 79.4483 41.0093 79.6776 41.1213C79.9069 41.2332 80.089 41.423 80.1914 41.6566C80.2694 41.8213 80.39 41.962 80.5408 42.0642C80.823 42.3091 81.0002 42.6531 81.0357 43.025C81.0579 43.1109 81.0579 43.2011 81.0357 43.287L80.4826 42.8794C80.4121 42.8118 80.3182 42.774 80.2205 42.774C80.1229 42.774 80.029 42.8118 79.9585 42.8794C79.8608 42.9737 79.7304 43.0264 79.5946 43.0264C79.4588 43.0264 79.3283 42.9737 79.2307 42.8794C79.0325 42.7615 78.8062 42.6993 78.5756 42.6993C78.345 42.6993 78.1187 42.7615 77.9205 42.8794C77.6114 43.0826 77.2906 43.2673 76.9597 43.4326C77.3419 43.484 77.7067 43.6239 78.0251 43.8413C78.3436 44.0586 78.6069 44.3474 78.7939 44.6845C78.9977 45.0921 79.2889 45.4997 79.4927 45.9364C79.5724 46.1103 79.5805 46.3087 79.5151 46.4885C79.4497 46.6683 79.3161 46.8151 79.1433 46.8972H78.9977V46.7516C78.9977 46.4023 78.7939 46.344 78.4446 46.4023C78.349 46.4338 78.2481 46.4461 78.1478 46.4382C78.0475 46.4303 77.9497 46.4026 77.8603 46.3565C77.7708 46.3104 77.6914 46.2469 77.6268 46.1698C77.5622 46.0927 77.5135 46.0034 77.4838 45.9073C77.1459 45.2291 76.5785 44.6927 75.8825 44.3934L75.2711 44.1313C75.2254 44.3962 75.1369 44.6519 75.0091 44.8883C74.9132 45.0406 74.7955 45.1779 74.6597 45.2959C74.2521 45.6453 74.2521 45.7035 74.6597 46.1985C75.0673 46.6934 74.8635 46.4605 75.0091 46.6934C74.79 46.706 74.5709 46.668 74.3689 46.5821C74.1669 46.4963 73.9875 46.365 73.8445 46.1985C73.4829 45.7913 73.1881 45.3295 72.9711 44.8301C72.8868 44.5971 72.881 44.343 72.9546 44.1065C73.0282 43.8699 73.1771 43.664 73.3787 43.5199C73.583 43.3175 73.7505 43.0811 73.8736 42.8212L71.8065 42.268C71.8396 42.5874 71.8396 42.9094 71.8065 43.2288C71.8764 44.4021 71.8764 45.5783 71.8065 46.7516C71.7363 48.4952 71.4627 50.2247 70.9913 51.9049C70.6504 53.1987 70.1619 54.4491 69.5356 55.6315C69.0102 56.6971 68.417 57.728 67.7596 58.7176C67.198 59.5397 66.5751 60.3183 65.8963 61.0468C65.2092 61.8528 64.4489 62.5935 63.6254 63.2595C62.7228 64.0164 61.7621 64.6278 60.7139 65.2683C59.3028 66.164 57.7743 66.8597 56.1721 67.3355C55.0913 67.6524 53.9928 67.9052 52.8822 68.0924C52.2663 68.2135 51.6443 68.301 51.0189 68.3545C50.8276 68.4151 50.6537 68.5208 50.5118 68.6626C50.37 68.8045 50.2643 68.9784 50.2037 69.1697C50.1182 69.631 49.94 70.0701 49.6797 70.4605C49.4195 70.8508 49.0827 71.1843 48.6897 71.4406C48.3403 71.7026 47.9327 71.9355 47.5251 72.1976L47.7289 71.5862C47.7642 71.4532 47.7639 71.3133 47.7281 71.1804C47.6924 71.0476 47.6224 70.9265 47.5251 70.8292C47.3213 70.6254 47.0302 70.8292 46.7682 70.8292C46.5061 70.8292 46.2732 71.1786 46.215 71.5862C46.159 71.9597 46.0095 72.313 45.7805 72.6133C45.5514 72.9136 45.2502 73.1511 44.9049 73.3039H44.5555C44.6467 73.0584 44.715 72.805 44.7593 72.5469C44.7593 72.3431 44.5555 72.1393 44.4099 71.9355C44.2643 71.7317 44.1479 71.9355 44.0023 71.9355L42.7504 72.5469L42.3428 72.7507L43.4491 73.2457C44.0479 73.5324 44.5308 74.0152 44.8175 74.614C44.9357 74.7742 44.9995 74.9681 44.9995 75.1672C44.9995 75.3663 44.9357 75.5602 44.8175 75.7204C44.7837 75.7724 44.7657 75.8331 44.7657 75.8951C44.7657 75.9571 44.7837 76.0178 44.8175 76.0698C44.9125 76.4145 44.9383 76.7747 44.8933 77.1295C44.8483 77.4843 44.7335 77.8267 44.5555 78.1369C44.5555 78.3407 44.2061 78.5445 44.0605 78.7483L43.8567 77.3508C43.8567 77.2813 43.8291 77.2146 43.78 77.1655C43.7309 77.1164 43.6642 77.0888 43.5947 77.0888C43.1836 77.1068 42.7759 77.0066 42.4199 76.8003C42.0639 76.5939 41.7745 76.2899 41.5858 75.9242L41.382 75.6622C41.0215 76.1781 40.4818 76.5414 39.8681 76.6812C39.452 76.8696 39.0824 77.1472 38.7856 77.4944C38.4887 77.8416 38.2719 78.2497 38.1503 78.69C38.0504 79.195 37.884 79.6845 37.6554 80.1458C37.5314 80.4628 37.2888 80.7192 36.979 80.8605C36.6692 81.0018 36.3166 81.0169 35.9959 80.9027V82.0091C35.8382 81.9686 35.6902 81.897 35.5605 81.7986C35.4309 81.7001 35.3222 81.5768 35.2408 81.4358C35.1595 81.2948 35.1071 81.1389 35.0868 80.9774C35.0664 80.8159 35.0786 80.6519 35.1224 80.4951C35.1579 80.3321 35.1579 80.1633 35.1224 80.0002C34.9198 79.6048 34.8702 79.1485 34.983 78.7188C35.0958 78.289 35.3631 77.916 35.7338 77.671C36.304 77.2555 36.7967 76.7431 37.1896 76.1571C37.2098 76.0907 37.2098 76.0197 37.1896 75.9533L35.1224 75.6913C34.8694 75.6216 34.6048 75.6038 34.3447 75.6388C34.0845 75.6738 33.8342 75.761 33.6085 75.8951L33.2009 76.4191C32.5895 77.1179 32.2983 77.1761 31.4831 76.7685C31.1621 77.3332 31.0391 77.9891 31.1338 78.6318C30.8254 78.3314 30.6126 77.9465 30.5224 77.5255C30.4868 77.2939 30.4868 77.0583 30.5224 76.8267V76.4191C30.4558 76.2208 30.4558 76.0061 30.5224 75.8077C30.7663 75.2471 31.2136 74.7997 31.7743 74.5558C32.3925 74.1506 33.1041 73.9101 33.8414 73.8571C34.3946 73.8221 34.9478 73.8221 35.5009 73.8571H35.9085C35.785 73.555 35.5993 73.2823 35.3636 73.0566C35.1278 72.8309 34.8473 72.6572 34.5402 72.5469L32.968 71.9355C32.7945 71.9607 32.6181 71.9169 32.4765 71.8135C32.335 71.7101 32.2397 71.5553 32.211 71.3824C32.211 71.3129 32.1834 71.2462 32.1343 71.1971C32.0851 71.1479 32.0185 71.1203 31.949 71.1203C31.4627 71.1188 30.9868 71.2606 30.5806 71.5279C30.7844 70.9165 31.0755 70.276 31.7452 70.1595C32.045 70.1246 32.3479 70.1246 32.6477 70.1595H32.9097C33.3174 69.5481 33.9288 69.6646 34.4819 69.9557C35.2884 70.3401 35.958 70.9573 36.4035 71.7317C36.505 71.9326 36.6486 72.1094 36.8244 72.25C37.0002 72.3907 37.2042 72.4919 37.4225 72.5469C37.4612 72.0145 37.3919 71.4797 37.2187 70.9748C37.2084 70.7404 37.1238 70.5154 36.9773 70.3323C36.8308 70.1491 36.6298 70.0172 36.4035 69.9557C35.7047 69.7519 35.5009 69.257 35.8503 68.5C35.6201 68.2956 35.3401 68.1556 35.0384 68.0943C34.7368 68.0329 34.4243 68.0524 34.1326 68.1507C34.3364 67.5975 35.1516 67.3937 35.7047 67.4519C36.2047 67.7507 36.7828 67.8927 37.3642 67.8595C37.5593 67.8961 37.7429 67.9786 37.8998 68.1C38.0567 68.2215 38.1825 68.3786 38.2668 68.5583L38.6744 69.3735C39.0238 69.9849 39.2858 70.6836 39.5769 71.295C39.9845 70.1304 40.4795 68.8785 40.9453 67.5684L40.2466 67.3063L38.2377 66.4911C36.7051 65.8282 35.2503 64.9983 33.8996 64.0164C33.6632 63.8886 33.4075 63.8001 33.1427 63.7544C32.9389 63.7544 32.6477 64.0164 32.7933 64.2493C32.9389 64.4823 33.1427 64.5114 33.2882 64.7443C33.4338 64.9772 33.2882 64.9481 33.5503 65.0937H33.2009C32.7279 65.1045 32.2628 64.971 31.8675 64.7109C31.4722 64.4509 31.1655 64.0766 30.9882 63.6379C30.5592 62.7737 30.3021 61.8343 30.2312 60.8721C30.2448 60.8398 30.2519 60.8052 30.2519 60.7702C30.2519 60.7352 30.2448 60.7005 30.2312 60.6683L28.3679 58.6012C28.2283 58.9567 28.2283 59.3519 28.3679 59.7075L28.5717 60.1151V60.61H28.0185C27.7041 60.266 27.4483 59.8725 27.2616 59.4455C26.9995 58.4265 26.854 57.3784 26.6502 56.3594C26.6001 55.849 26.5125 55.3429 26.3881 54.8454C26.2373 54.2626 26.0526 53.689 25.835 53.1277V54.729C25.835 54.8745 25.4856 54.729 25.4274 54.4669C25.1114 53.9242 24.9223 53.3171 24.8742 52.691C24.8401 51.2213 25.0466 49.7559 25.4856 48.3529C25.6191 47.8385 25.7844 47.3329 25.9805 46.839C25.9137 47.0049 25.8256 47.1615 25.7185 47.3048L25.4565 47.5668V47.2175C25.448 46.5628 25.6192 45.9183 25.9514 45.3541C26.4464 44.2478 27.0578 43.1414 27.6109 42.0642C27.8395 41.6797 28.0923 41.3102 28.3679 40.9579L27.873 41.4819L27.5236 41.6857V41.4819C27.711 41.1703 27.9151 40.869 28.135 40.5794C28.7899 39.786 29.5546 39.09 30.4059 38.5123C30.6039 38.4435 30.8193 38.4435 31.0173 38.5123L33.9288 39.1237L34.9478 39.3857C34.6704 39.6712 34.4351 39.9947 34.249 40.3465C34.1595 40.5223 34.1129 40.7169 34.1129 40.9142C34.1129 41.1115 34.1595 41.3061 34.249 41.4819C34.2991 41.5547 34.3259 41.641 34.3259 41.7294C34.3259 41.8178 34.2991 41.9041 34.249 41.9769C33.5863 42.548 33.0252 43.2272 32.5895 43.9858V44.2478C32.5895 44.2478 33.5503 45.2086 34.0452 45.7617C34.0743 45.8491 34.0743 45.9364 34.0452 46.0238C33.8251 46.399 33.7091 46.8261 33.7091 47.2611C33.7091 47.6961 33.8251 48.1233 34.0452 48.4985C34.0786 48.6283 34.1381 48.75 34.2199 48.8562C34.3018 48.9624 34.4044 49.0508 34.5214 49.1161C34.6385 49.1815 34.7676 49.2224 34.901 49.2363C35.0343 49.2502 35.1691 49.2369 35.2971 49.1972C35.2728 49.7631 35.4479 50.3195 35.7921 50.7694C35.9959 50.9732 36.287 51.1188 36.4908 51.3226C36.6132 51.408 36.7051 51.5305 36.7528 51.6719C36.9148 52.1908 37.2188 52.654 37.6305 53.0091C38.0421 53.3641 38.5449 53.5968 39.082 53.6808C39.9205 53.7973 40.7706 53.6226 41.4985 53.1859C41.7605 53.1859 41.8479 52.9821 41.9061 53.1859C42.0691 54.202 42.3952 55.1831 42.8669 56.0973C43.4695 57.1629 44.2148 58.1412 45.0795 59.0088C45.8569 59.7512 46.8089 60.2898 47.8454 60.5809C49.1264 60.8692 50.4657 60.5081 51.4265 59.6202C52.03 59.0093 52.5401 58.3128 52.9404 57.553L54.1923 55.5442C54.7433 54.7851 55.4475 54.1503 56.2594 53.6808C56.3941 53.5771 56.5504 53.505 56.7167 53.4697C56.8829 53.4344 57.055 53.4369 57.2202 53.477L57.0164 53.8846C56.8616 54.1337 56.7796 54.4211 56.7796 54.7144C56.7796 55.0077 56.8616 55.2951 57.0164 55.5442C57.2202 55.8062 57.3658 55.8062 57.5114 55.5442C57.6569 55.2821 57.919 54.7872 58.4721 54.8454C59.0253 54.9036 59.0253 54.496 59.0835 54.1467C59.1411 52.6305 59.5926 51.1554 60.3937 49.8669C60.5431 49.7132 60.7091 49.5765 60.8886 49.4593V50.5656C60.9439 50.8742 61.0342 51.177 61.1507 51.4681L61.3253 51.0897C61.375 50.985 61.4533 50.8966 61.5513 50.8348C61.6492 50.7729 61.7627 50.7401 61.8785 50.7403C62.0156 50.7163 62.1395 50.644 62.2279 50.5365C62.4199 50.311 62.5524 50.041 62.6134 49.7511C62.6745 49.4613 62.662 49.1608 62.5773 48.877C62.5081 48.443 62.5081 48.0008 62.5773 47.5668C62.5758 47.0165 62.7162 46.475 62.9849 45.9947C63.0483 45.8448 63.1369 45.707 63.2469 45.5871H63.4507V46.5478C63.4285 46.6338 63.4285 46.7239 63.4507 46.8099H63.7127L64.2368 46.4605C64.4351 46.1059 64.5262 45.7013 64.4988 45.2959C64.4586 45.0647 64.4586 44.8283 64.4988 44.5972V42.2098C64.4988 41.8895 64.4988 41.8604 64.7026 41.6566L65.0229 41.4819V42.763C65.0444 42.7195 65.0776 42.6829 65.1187 42.6572C65.1598 42.6315 65.2073 42.6177 65.2558 42.6174ZM29.4743 29.3413L31.192 27.6235C31.2914 27.5154 31.4098 27.4266 31.5414 27.3615C31.7452 27.1577 31.5414 26.9539 31.5414 26.7501C31.5414 26.5463 31.2793 26.7501 31.0464 26.7501H30.7844V26.4007C30.8568 26.1622 30.9802 25.9423 31.1461 25.7563C31.3121 25.5703 31.5165 25.4226 31.7452 25.3235C32.4979 25.0523 33.3216 25.0523 34.0743 25.3235C34.1378 25.3544 34.2075 25.3704 34.2781 25.3704C34.3487 25.3704 34.4184 25.3544 34.4819 25.3235L36.1414 24.4209C36.4035 24.4209 36.3452 24.1589 36.1414 24.0133C35.9376 23.8678 35.6465 23.664 35.3845 24.0133C35.2985 24.0355 35.2084 24.0355 35.1224 24.0133C35.1224 23.5184 35.6174 23.1108 36.0832 22.907C36.8693 22.6653 37.7136 22.6653 38.4997 22.907H38.6162C38.82 22.907 39.4314 23.169 39.9263 22.907L40.9453 22.5576C41.2073 22.5576 41.2073 22.3538 40.9453 22.2082C40.6833 22.0627 40.5959 21.8006 40.3339 22.0044C40.0719 22.2082 40.3339 22.0044 40.0719 22.0044C40.0166 21.9452 39.9859 21.8671 39.9859 21.7861C39.9859 21.705 40.0166 21.627 40.0719 21.5677C40.5795 21.1848 41.2176 21.0175 41.8478 21.1019C42.4208 21.1461 42.9678 21.3588 43.42 21.7133H43.6238C43.722 21.8283 43.8503 21.9137 43.9943 21.96C44.1382 22.0062 44.2922 22.0116 44.439 21.9753C44.6062 21.8753 44.7974 21.8224 44.9922 21.8224C45.187 21.8224 45.3782 21.8753 45.5454 21.9753H45.7492V21.7133C45.703 21.5339 45.597 21.3757 45.4489 21.2645C45.3007 21.1534 45.1191 21.096 44.934 21.1019H44.7302C45.0759 20.832 45.4865 20.6577 45.9208 20.5964C46.3551 20.535 46.7979 20.5889 47.2049 20.7525C47.8046 20.9971 48.3287 21.3989 48.7188 21.9171C48.8717 22.0114 49.0389 22.0802 49.2138 22.1209C49.6118 22.1085 50.0082 22.1778 50.3784 22.3247C50.7277 22.5285 50.5821 22.3247 50.6404 22.5867C50.6846 22.4931 50.7099 22.3917 50.7148 22.2882C50.7197 22.1848 50.7041 22.0814 50.6689 21.984C50.6338 21.8866 50.5797 21.7971 50.5099 21.7207C50.44 21.6443 50.3557 21.5824 50.2619 21.5386H49.6796V21.1019C49.9969 21.0399 50.3231 21.0399 50.6404 21.1019C51.5604 21.2096 52.3872 21.7075 52.9113 22.4703C53.1151 22.8196 53.284 23.1894 53.4062 23.5766C53.6539 23.5462 53.9053 23.5812 54.1352 23.6783C54.3651 23.7754 54.5655 23.9311 54.7164 24.1298H54.9202C55.0409 24.1053 55.1583 24.0662 55.2696 24.0133C55.2632 23.7863 55.1872 23.5668 55.0518 23.3845C54.9163 23.2022 54.7281 23.066 54.5126 22.9943H54.3088C54.5708 22.9943 54.8037 22.7905 55.0658 22.9943C55.5025 23.0351 55.9246 23.1545 56.3177 23.3437C57.3541 23.7659 58.1286 24.6509 58.4139 25.7311C58.9088 25.9931 59.2291 26.2842 59.5785 26.488H59.9861V25.8766C59.9431 25.6688 59.8523 25.4737 59.7209 25.307C59.5895 25.1402 59.4212 25.0063 59.2291 24.9159L58.9671 24.7121C59.2856 24.6406 59.6173 24.6541 59.929 24.7512C60.2407 24.8483 60.5214 25.0255 60.7431 25.2652C61.2817 25.7194 61.6834 26.3134 61.9076 26.983C61.9311 27.092 61.9804 27.1939 62.0513 27.28C62.1222 27.3661 62.2127 27.434 62.3152 27.4779C62.5365 27.6439 62.7403 27.8273 62.9266 28.0311C63.1887 27.2741 62.5773 26.8665 62.3735 26.3134C62.5956 26.318 62.8143 26.3697 63.015 26.4651C63.2158 26.5604 63.394 26.6973 63.538 26.8665C63.9456 27.2916 64.3125 27.7487 64.6444 28.2349C64.854 28.5901 65.0869 28.9307 65.3431 29.2539C65.5527 29.644 65.6896 30.0691 65.7507 30.5058C65.7918 31.493 65.6537 32.4794 65.3431 33.4173C65.3079 34.0573 65.3079 34.6988 65.3431 35.3388C65.3722 35.4262 65.3722 35.5135 65.3431 35.6008C65.0859 35.8127 64.8737 36.0738 64.7187 36.3687C64.5637 36.6637 64.4692 36.9866 64.4406 37.3186C64.3023 38.1865 64.3023 39.0709 64.4406 39.9389V40.1427C64.0401 40.4064 63.7109 40.765 63.4824 41.1866C63.2538 41.6081 63.1329 42.0796 63.1304 42.5592V44.0731C62.711 44.1582 62.3222 44.3544 62.0047 44.6412C61.6871 44.928 61.4525 45.2949 61.3253 45.7035C61.1215 46.1111 61.0633 46.6061 60.8304 47.0137C60.5975 47.4213 60.5684 47.2757 60.4228 47.4213V46.8681C60.5967 45.957 60.665 45.0289 60.6266 44.1022C60.6551 42.7344 60.3973 41.3758 59.8696 40.1136V39.6186C60.3259 39.1534 60.613 38.5485 60.6848 37.9009C60.7579 36.9318 60.7579 35.9585 60.6848 34.9894C60.6969 34.3022 60.4471 33.636 59.9861 33.1261C59.7494 32.8832 59.4451 32.7172 59.1128 32.6497C58.7804 32.5822 58.4354 32.6163 58.1228 32.7476C57.7167 32.9194 57.3703 33.2072 57.1269 33.5748C56.8835 33.9425 56.7539 34.3738 56.7544 34.8148V35.8338C55.7252 34.8018 54.4832 34.0069 53.1151 33.5046C52.3298 33.228 51.521 33.0234 50.6986 32.8932H48.9226C47.7747 32.8974 46.6347 33.0842 45.5454 33.4464C44.934 33.6502 44.3808 33.9413 43.7694 34.1451C43.7066 34.1783 43.6366 34.1956 43.5656 34.1956C43.4946 34.1956 43.4246 34.1783 43.3618 34.1451C42.0557 33.3572 40.644 32.7592 39.1693 32.3691C38.4745 32.181 37.7624 32.0639 37.044 32.0198C35.5883 31.7286 34.1326 31.5248 32.9097 31.1463C31.8151 30.8851 30.7719 30.4422 29.8236 29.8362C29.7584 29.6404 29.6369 29.4682 29.4743 29.3413ZM56.9873 43.025C56.9873 43.5199 56.0848 43.6364 55.124 43.3744V44.3934C55.1386 44.5094 55.1386 44.6267 55.124 44.7427H54.7164C54.4279 44.5091 54.1556 44.2562 53.9012 43.9858C53.7304 44.0595 53.5786 44.1713 53.4576 44.3126C53.3365 44.4538 53.2492 44.6209 53.2024 44.801C52.9986 45.3541 52.7075 45.4124 52.2999 44.801C52.1495 44.6483 51.9836 44.5117 51.805 44.3934C51.6182 44.659 51.4139 44.9119 51.1936 45.1503C51.1428 45.21 51.0805 45.2588 51.0105 45.2938C50.9405 45.3288 50.8641 45.3493 50.7859 45.3541C50.6815 45.2515 50.5932 45.1337 50.5239 45.0048C50.494 44.8021 50.494 44.5961 50.5239 44.3934C50.1745 45.2959 49.7669 46.0529 48.7479 46.2567C48.7107 45.8761 48.7814 45.4927 48.9517 45.1503C49.1555 44.801 48.9517 45.1503 48.9517 44.9465C48.4973 45.3832 48.2266 45.9767 48.1948 46.6061C48.2414 47.8667 48.5674 49.1012 49.1555 50.2162C49.5632 51.2352 50.0581 52.2251 50.4657 53.1277C50.8384 54.0506 51.0072 55.0434 50.9606 56.0391C51.0075 56.5453 50.906 57.0542 50.6687 57.5037C50.4314 57.9533 50.0684 58.3241 49.624 58.571C49.1796 58.8178 48.673 58.9301 48.166 58.8941C47.6589 58.8581 47.1732 58.6754 46.7682 58.3682C46.1027 57.9557 45.5201 57.4225 45.0504 56.7961C44.6428 56.2429 44.2352 55.6897 43.8859 55.1366C43.6905 54.7319 43.5251 54.3135 43.3909 53.8846V53.477C43.5535 53.4671 43.7151 53.5099 43.8514 53.599C43.9878 53.6882 44.0918 53.819 44.1479 53.972C44.2935 54.2049 44.9049 55.1366 45.3125 55.6897C45.6473 56.3594 46.1509 56.93 46.7682 57.3492C46.9727 57.4354 47.1922 57.4804 47.4142 57.4817C47.6361 57.483 47.8561 57.4405 48.0616 57.3567C48.2671 57.2728 48.4541 57.1493 48.6118 56.9932C48.7696 56.837 48.895 56.6513 48.9809 56.4467V56.2429C49.1035 55.8803 49.1487 55.4961 49.1136 55.1149C49.0785 54.7338 48.9639 54.3643 48.7771 54.0302C48.2821 52.9239 47.6707 51.8175 47.1175 50.7403C46.4774 49.5792 46.0346 48.3199 45.8074 47.0137C45.773 46.6943 45.773 46.3722 45.8074 46.0529C45.3707 46.0878 44.934 46.0878 44.4973 46.0529L43.1871 45.7035L42.5757 46.1111C42.6032 45.9766 42.6032 45.838 42.5757 45.7035C42.5817 45.4367 42.5143 45.1734 42.3808 44.9424C42.2473 44.7113 42.0529 44.5214 41.8187 44.3934C41.672 44.3934 41.5313 44.4516 41.4276 44.5554C41.3238 44.6591 41.2656 44.7998 41.2656 44.9465C41.2443 45.2436 41.3033 45.5409 41.4365 45.8073C41.5697 46.0736 41.7721 46.2993 42.0225 46.4605L43.1871 47.2757C43.5947 47.5377 43.5365 47.5377 43.7403 47.2757C43.7686 47.1413 43.7686 47.0025 43.7403 46.8681C44.2935 46.8681 44.4973 47.2175 44.5555 47.7706C44.6894 48.4694 44.8757 49.1623 45.1087 49.8377C45.1213 49.9842 45.1047 50.1318 45.0597 50.2717C45.0147 50.4117 44.9423 50.5413 44.8466 50.6529C44.4871 51.106 44.0154 51.4573 43.4783 51.6719C43.0381 51.8426 42.55 51.8426 42.1099 51.6719C42.364 51.4193 42.6365 51.1857 42.9251 50.9732C43.0473 50.8489 43.1356 50.6952 43.1815 50.527C43.2273 50.3588 43.2293 50.1816 43.1871 50.0124C43.1662 49.9578 43.1308 49.9099 43.0846 49.8739C43.0384 49.838 42.9832 49.8154 42.9251 49.8086C42.6544 49.7751 42.3806 49.7751 42.1099 49.8086C41.8992 49.8237 41.7018 49.9172 41.5567 50.0707C41.0795 50.4494 40.5733 50.7901 40.0428 51.0897C39.6106 51.314 39.1185 51.3954 38.6371 51.3221C38.1558 51.2489 37.7101 51.0248 37.3642 50.6821C37.1156 50.4034 36.9272 50.0763 36.8111 49.7213L36.6073 49.3137C36.5047 49.4181 36.3869 49.5064 36.2579 49.5757C36.1123 49.5757 36.0541 49.2263 36.2579 49.1681C36.3423 48.7896 36.4617 48.4199 36.6073 48.0618C36.6404 47.999 36.6577 47.929 36.6577 47.858C36.6577 47.7869 36.6404 47.717 36.6073 47.6542C36.3744 47.3304 36.0641 47.0702 35.7047 46.8972C35.4427 46.6934 35.2098 46.8972 35.006 46.8972H34.6566C34.6636 46.7808 34.6636 46.6642 34.6566 46.5478C34.7058 46.2412 34.8415 45.955 35.0478 45.7229C35.2542 45.4908 35.5225 45.3225 35.8212 45.2377H36.1706C35.3359 44.9191 34.5808 44.4223 33.9579 43.782C33.7541 43.5782 33.6958 43.4326 33.9579 43.2288C34.2199 43.025 34.7148 42.5592 35.1224 42.268C35.904 41.9904 36.7573 41.9904 37.5389 42.268C38.2581 42.5068 38.916 42.9027 39.4605 43.4326L39.6643 43.6364C39.5 43.1378 39.2227 42.6839 38.854 42.3102C38.4853 41.9364 38.0353 41.653 37.5389 41.4819C36.6522 41.1518 35.7185 40.9651 34.7731 40.9288C34.8199 40.7524 34.9159 40.5931 35.05 40.4694C35.184 40.3456 35.3505 40.2626 35.53 40.23L37.1022 39.9389C37.6613 39.8145 38.1812 39.5545 38.6162 39.1819C38.3351 38.9503 38.0329 38.7456 37.7136 38.5705C36.8984 38.2211 36.0541 37.8135 35.2389 37.5515C34.4982 37.2247 33.7134 37.0089 32.9097 36.911C31.7878 36.7543 30.6852 36.4811 29.6198 36.0958C28.3343 35.7448 27.1078 35.2052 25.9805 34.4945C24.816 33.7375 23.8261 32.7476 23.0691 31.5831C22.8926 31.2816 22.7556 30.9587 22.6615 30.6223V30.2729H23.0109L23.4767 30.5349C24.2337 31.1463 24.9324 31.9033 25.6894 32.4565C26.618 33.1305 27.6648 33.6243 28.7755 33.9122C29.6781 34.116 30.5515 34.3198 31.454 34.4654C32.3566 34.611 32.968 34.4654 33.725 34.6692L35.3845 34.873C36.0163 34.9166 36.6422 35.0331 37.2478 35.2224C38.2086 35.5717 39.1111 35.9793 40.0136 36.3287C40.0656 36.3625 40.1263 36.3805 40.1883 36.3805C40.2504 36.3805 40.311 36.3625 40.363 36.3287C40.7415 36.2443 41.1113 36.1249 41.4694 35.9793V35.6591C40.7981 35.2845 40.1082 34.9444 39.4022 34.6401C38.0785 34.1195 36.6856 33.7958 35.268 33.6793L33.3465 33.4755C32.2933 33.3012 31.2526 33.0581 30.2312 32.7476C29.174 32.3629 28.1895 31.8018 27.3198 31.0881C26.5877 30.523 26.0404 29.7527 25.7476 28.8754V28.264C25.826 28.2312 25.9101 28.2143 25.9951 28.2143C26.0801 28.2143 26.1642 28.2312 26.2426 28.264L26.9995 29.0792C27.4071 29.4868 27.8147 29.8944 28.3097 30.3311C29.4626 31.2337 30.7902 31.8888 32.211 32.2527C33.0262 32.4565 33.8705 32.6021 34.6857 32.7476C35.9959 32.9514 37.3642 33.1552 38.6744 33.4464C40.2277 33.725 41.6765 34.4192 42.8669 35.4553C43.3618 35.8629 43.7694 35.6591 44.2352 35.4553C44.4819 35.4086 44.7371 35.4429 44.9627 35.5531C45.1883 35.6633 45.3723 35.8434 45.4871 36.0667C45.8365 37.0071 45.8365 38.0377 45.4871 38.9781C45.4557 39.1521 45.4779 39.3316 45.5507 39.4927C45.6234 39.6539 45.7434 39.7891 45.8947 39.8806H46.2441C46.6505 39.714 47.0939 39.6586 47.5288 39.72C47.9637 39.7814 48.3744 39.9574 48.7188 40.23C48.8267 40.315 48.96 40.3612 49.0973 40.3612C49.2346 40.3612 49.368 40.315 49.4758 40.23C50.0468 39.9631 50.601 39.6617 51.1353 39.3275C51.6885 38.9781 51.3974 38.8325 51.5429 38.5705C51.7413 38.1674 52.0623 37.8376 52.4599 37.6284C52.8574 37.4192 53.3111 37.3413 53.7556 37.4059C54.3816 37.4059 55.0075 37.4729 55.6189 37.6097C56.1147 37.7432 56.6371 37.7432 57.1329 37.6097C57.4454 37.5722 57.7378 37.4364 57.9681 37.2218C58.1983 37.0072 58.3544 36.7251 58.4139 36.416V34.5527C58.4139 34.3489 58.4139 34.1451 58.7633 34.1451C59.1126 34.1451 59.0253 34.4071 59.0253 34.6401C59.2349 35.6008 59.2349 36.5907 59.0253 37.5515C58.9673 37.9667 58.7488 38.3425 58.4168 38.5984C58.0847 38.8542 57.6656 38.9696 57.2493 38.9199H54.7746C54.4395 38.8987 54.108 38.9988 53.8407 39.2019C53.5734 39.4051 53.3882 39.6977 53.3189 40.0262C53.2867 40.1602 53.2867 40.2999 53.3189 40.4338C53.5227 40.8414 53.6683 41.1908 54.2797 41.1326C54.6057 41.1617 54.862 41.4179 54.8911 41.744C54.9545 42.0926 55.1319 42.4104 55.3953 42.6475C55.6587 42.8846 55.9934 43.0276 56.3468 43.0541L56.9873 43.025ZM40.7706 41.0161C41.12 41.3742 41.4897 41.7148 41.877 42.0351C42.074 42.1839 42.3142 42.2644 42.5611 42.2644C42.8081 42.2644 43.0483 42.1839 43.2453 42.0351C43.6299 41.8066 43.9994 41.5537 44.3517 41.2781V41.0743C44.3188 40.9425 44.2574 40.8195 44.1719 40.7138C44.0864 40.6082 43.9788 40.5226 43.8567 40.4629C43.6087 40.3975 43.3479 40.3975 43.0998 40.4629L42.6048 40.6667C42.109 40.8002 41.5867 40.8002 41.0909 40.6667L40.7706 41.0161ZM50.2619 41.9769C50.3806 42.0747 50.52 42.1444 50.6695 42.1807C51.1791 42.278 51.6408 42.5448 51.9796 42.9376C52.3174 42.9697 52.6609 42.9697 52.9986 42.9376C53.2024 42.9376 53.348 42.7338 53.5518 42.6756C53.3852 42.4743 53.2 42.2891 52.9986 42.1224C52.1311 41.7571 51.1633 41.7056 50.2619 41.9769ZM13.9854 50.9441C14.3496 51.3335 14.8136 51.6155 15.327 51.7592C15.8404 51.903 16.3835 51.903 16.8969 51.7593C17.0682 51.7087 17.2256 51.6193 17.3568 51.4982C17.4881 51.377 17.5897 51.2273 17.6538 51.0605C16.5624 51.3128 15.4168 51.1683 14.4221 50.6529C13.9517 50.3845 13.5428 50.0204 13.2218 49.5841C12.9008 49.1478 12.675 48.649 12.5588 48.12C12.3408 47.3448 12.3757 46.5203 12.6585 45.7663C12.9412 45.0124 13.457 44.3682 14.131 43.9275C13.8303 44.8927 13.9252 45.9378 14.3946 46.8332C14.8641 47.7285 15.6699 48.4008 16.6348 48.7023H17.0424C17.9104 48.8828 18.8139 48.7691 19.61 48.3789C20.4061 47.9887 21.0496 47.3445 21.4387 46.5478C21.1336 46.7836 20.842 47.0363 20.5653 47.3048C19.293 48.1782 17.616 48.1782 16.3437 47.3048C15.9986 47.077 15.7131 46.77 15.5109 46.4093C15.3087 46.0486 15.1958 45.6448 15.1815 45.2316C15.1673 44.8183 15.2521 44.4077 15.429 44.034C15.6058 43.6602 15.8696 43.3342 16.1981 43.0832C16.2373 43.3263 16.3309 43.5573 16.4721 43.759C16.6133 43.9607 16.7983 44.1278 17.0133 44.2478C17.4407 44.4834 17.9025 44.6505 18.3817 44.7427C18.9037 44.8265 19.438 44.7886 19.943 44.632C20.448 44.4755 20.91 44.2045 21.2931 43.8402C21.7147 43.4074 22.0418 42.8919 22.2539 42.3262C22.8071 41.0161 23.2147 39.6477 23.8261 38.3376C24.2219 37.5389 24.6592 36.7615 25.1362 36.0084C25.1362 35.8046 25.3983 36.0084 25.5438 36.0084L27.0578 36.8236L28.0185 37.2312L27.6109 37.5806C26.6987 38.5531 25.9158 39.6393 25.2818 40.8123C24.7869 41.7148 24.321 42.53 23.9134 43.4326C23.5058 44.3351 23.0982 45.4997 22.7488 46.5187L21.9336 48.8479C21.7298 49.4593 21.4387 50.0124 21.1767 50.6238C20.7864 51.509 20.1095 52.2372 19.2551 52.691C18.7532 52.9349 18.2101 53.083 17.6538 53.1277C17.1028 53.1971 16.5453 53.1971 15.9943 53.1277C15.5484 53.0935 15.1233 52.9249 14.775 52.6442C14.4268 52.3636 14.1718 51.984 14.0437 51.5555C14.084 51.3504 14.0638 51.1379 13.9854 50.9441ZM54.9493 48.6149C54.9842 48.9352 54.9842 49.2555 54.9493 49.5757C54.9493 49.9833 54.6873 49.9833 54.3379 49.7795L53.5227 49.3719H53.1733C53.2911 49.6069 53.3525 49.8661 53.3525 50.1289C53.3525 50.3917 53.2911 50.6509 53.1733 50.8859C53.1256 51.0273 53.0337 51.1498 52.9113 51.2352H52.591L52.3872 50.6238C52.3168 50.4625 52.1857 50.3353 52.0222 50.2699C51.8587 50.2046 51.6761 50.2062 51.5138 50.2745C51.2439 50.3483 50.9881 50.4664 50.7568 50.6238H50.3492C49.8465 49.6611 49.521 48.6157 49.3885 47.5377L49.6796 47.8871C49.918 48.0689 50.2095 48.1674 50.5094 48.1674C50.8092 48.1674 51.1007 48.0689 51.3391 47.8871C51.4094 47.7367 51.4458 47.5727 51.4458 47.4067C51.4458 47.2407 51.4094 47.0767 51.3391 46.9263C51.3391 46.7225 51.1353 46.5769 51.0771 46.3731C51.4847 46.3731 51.4847 46.0238 52.5328 47.2757L53.2898 46.8681C53.5518 46.8681 53.2898 46.4605 53.2898 46.3149V45.7035L53.7847 45.9073C53.9262 45.9551 54.0486 46.0469 54.1341 46.1693C54.5687 46.6592 55.057 47.0987 55.5898 47.4795C55.7517 47.6135 55.8806 47.783 55.9665 47.9749C56.0523 48.1667 56.0928 48.3758 56.0848 48.5858V48.8479H55.881C55.1531 48.6149 55.1531 48.6149 54.9493 48.6149ZM20.5653 43.9858C20.0035 43.6546 19.3506 43.5118 18.702 43.5782C18.4313 43.6117 18.1575 43.6117 17.8868 43.5782C17.7172 43.55 17.5566 43.4827 17.4175 43.3817C17.2785 43.2807 17.1649 43.1486 17.0858 42.996C17.0067 42.8435 16.9642 42.6745 16.9617 42.5027C16.9593 42.3308 16.9969 42.1608 17.0716 42.006C17.3336 42.006 17.5665 42.3554 17.8285 42.5009C18.0906 42.6465 18.1779 42.5009 18.1779 42.2971C18.1686 42.1272 18.2109 41.9584 18.2992 41.813C18.3876 41.6675 18.5178 41.5521 18.6728 41.4819C18.8946 41.4041 19.1333 41.3873 19.3638 41.4334C19.5943 41.4795 19.8082 41.5868 19.983 41.744C20.5711 42.3262 20.7982 43.188 20.5653 43.9858Z" fill="white"/>
</g>
<defs>
<clipPath id="clip0_342_4990">
<rect width="93.1659" height="93.1659" fill="white" transform="translate(0.767578 0.198242)"/>
</clipPath>
</defs>
</svg>
