<svg width="94" height="94" viewBox="0 0 94 94" fill="none" xmlns="http://www.w3.org/2000/svg">
<g clip-path="url(#clip0_342_4997)">
<path d="M47.0414 93.8783C72.7685 93.8783 93.6244 73.0224 93.6244 47.2953C93.6244 21.5683 72.7685 0.712402 47.0414 0.712402C21.3144 0.712402 0.458496 21.5683 0.458496 47.2953C0.458496 73.0224 21.3144 93.8783 47.0414 93.8783Z" fill="#F7931A"/>
<path d="M67.9722 41.5308C68.8864 35.4285 64.2368 32.1473 57.8841 29.9579L59.9454 21.6894L54.9144 20.4375L52.9055 28.4876C51.5837 28.1557 50.227 27.8471 48.8732 27.5385L50.8966 19.436L45.8657 18.1812L43.8044 26.4467C42.7097 26.1963 41.6325 25.9518 40.5902 25.6897L40.596 25.6635L33.6551 23.9312L32.3159 29.3057C32.3159 29.3057 36.0512 30.1617 35.9726 30.2141C38.0106 30.7236 38.3775 32.0716 38.3163 33.143L35.9697 42.5615C36.1095 42.5964 36.29 42.6488 36.4938 42.7274L35.961 42.5964L32.6711 55.791C32.4207 56.4083 31.7889 57.337 30.3623 56.9847C30.4147 57.0575 26.7055 56.0735 26.7055 56.0735L24.2075 61.8323L30.7582 63.4656C31.9752 63.7713 33.1689 64.0915 34.3422 64.3914L32.2605 72.7531L37.2886 74.005L39.3499 65.7365C40.7241 66.1063 42.0575 66.4498 43.3618 66.7759L41.3064 75.0094L46.3373 76.2613L48.419 67.9172C57.0019 69.5417 63.4536 68.8867 66.17 61.1248C68.3594 54.8769 66.0623 51.2696 61.5467 48.9201C64.8366 48.1631 67.3113 45.9999 67.9722 41.5308ZM56.472 57.6544C54.9202 63.9052 44.3954 60.525 40.9832 59.6778L43.7491 48.5998C47.1613 49.4529 58.0995 51.1386 56.472 57.6544ZM58.0296 41.4406C56.6118 47.1266 47.8542 44.2356 45.0155 43.5281L47.5194 33.4836C50.358 34.1911 59.5087 35.51 58.0296 41.4406Z" fill="white"/>
</g>
<defs>
<clipPath id="clip0_342_4997">
<rect width="93.1659" height="93.1659" fill="white" transform="translate(0.459473 0.712402)"/>
</clipPath>
</defs>
</svg>
