<svg width="94" height="94" viewBox="0 0 94 94" fill="none" xmlns="http://www.w3.org/2000/svg">
<g clip-path="url(#clip0_342_4994)">
<path d="M93.4476 46.7817C93.4476 55.9949 90.7156 65.0012 85.597 72.6618C80.4784 80.3223 73.2031 86.2929 64.6912 89.8187C56.1793 93.3444 46.813 94.2669 37.7768 92.4695C28.7406 90.6721 20.4403 86.2355 13.9256 79.7208C7.41084 73.206 2.97425 64.9057 1.17684 55.8695C-0.620576 46.8333 0.301922 37.4671 3.82767 28.9551C7.35343 20.4432 13.3241 13.168 20.9846 8.04937C28.6451 2.93077 37.6515 0.19873 46.8647 0.19873C59.2193 0.19873 71.0678 5.10656 79.8038 13.8426C88.5398 22.5786 93.4476 34.4271 93.4476 46.7817Z" fill="#F7931A"/>
<path fill-rule="evenodd" clip-rule="evenodd" d="M33.3899 21.4695L44.0955 24.3365L46.4881 15.418L51.841 16.8705L49.5414 25.4206L53.9075 26.5936L56.2113 17.9504L61.6572 19.4072L59.3112 28.097C59.3112 28.097 68.2043 30.0662 70.2963 37.2992C72.3883 44.5323 65.6973 48.3309 63.6307 48.4749C63.6307 48.4749 71.4227 52.7478 68.7463 61.1539C66.0699 69.56 57.8544 71.0634 49.2111 69.1366L46.865 78.1482L41.4191 76.6915L43.8117 67.8195L39.4922 66.6423L37.0996 75.5777L31.696 74.1252L34.0929 65.2321L23.1035 62.2677L25.8731 56.1188C25.8731 56.1188 28.973 56.9657 30.146 57.2452C31.319 57.5247 32.0728 56.3051 32.4032 55.0855C32.7335 53.8658 37.7094 33.6531 38.1794 31.9888C38.6495 30.3245 38.4589 29.0244 36.4855 28.512C34.5121 27.9996 31.8272 27.1992 31.8272 27.1992L33.3899 21.4695ZM44.1886 48.2378L41.2243 60.0232C41.2243 60.0232 55.9233 65.3295 57.8036 57.8635C59.6838 50.3975 44.1886 48.2378 44.1886 48.2378ZM45.5523 42.6478L48.4616 31.849C48.4616 31.849 61.0474 34.102 59.4975 40.1112C57.9476 46.1204 50.5282 43.8166 45.5523 42.6478Z" fill="white"/>
</g>
<defs>
<clipPath id="clip0_342_4994">
<rect width="93.1659" height="93.1659" fill="white" transform="translate(0.281494 0.198242)"/>
</clipPath>
</defs>
</svg>
