<svg width="95" height="94" viewBox="0 0 95 94" fill="none" xmlns="http://www.w3.org/2000/svg">
<g clip-path="url(#clip0_342_5001)">
<path d="M47.5566 93.8783C73.2836 93.8783 94.1395 73.0224 94.1395 47.2953C94.1395 21.5683 73.2836 0.712402 47.5566 0.712402C21.8295 0.712402 0.973633 21.5683 0.973633 47.2953C0.973633 73.0224 21.8295 93.8783 47.5566 93.8783Z" fill="#FF6600"/>
<path d="M50.6952 57.066C65.4853 52.5037 60.2069 37.1692 50.6952 36.5869C53.1117 36.5869 55.0857 29.6665 55.0857 21.0923C78.3073 22.7431 89.2164 61.0109 54.3869 72.9828C54.6111 69.8763 53.3388 61.206 50.6982 57.066H50.6952ZM18.4424 52.5358V36.619H18.4715C26.871 36.5869 33.6459 29.6315 33.6168 21.1243H49.8043C49.8073 38.4939 35.78 52.5358 18.4424 52.5358ZM39.658 49.6534C49.2657 57.5493 49.8073 70.8458 49.8073 73.4981H33.6168C33.6168 64.6997 27.89 57.5813 20.7977 57.5813C32.822 55.6423 35.2705 53.6043 39.658 49.6564V49.6534Z" fill="white"/>
</g>
<defs>
<clipPath id="clip0_342_5001">
<rect width="93.1659" height="93.1659" fill="white" transform="translate(0.973633 0.712402)"/>
</clipPath>
</defs>
</svg>
