<svg width="94" height="94" viewBox="0 0 94 94" fill="none" xmlns="http://www.w3.org/2000/svg">
<g clip-path="url(#clip0_342_5005)">
<path d="M47.0717 93.8783C72.7988 93.8783 93.6546 73.0224 93.6546 47.2953C93.6546 21.5683 72.7988 0.712402 47.0717 0.712402C21.3447 0.712402 0.48877 21.5683 0.48877 47.2953C0.48877 73.0224 21.3447 93.8783 47.0717 93.8783Z" fill="#4700C2"/>
<path fill-rule="evenodd" clip-rule="evenodd" d="M40.3221 42.9574C39.4196 43.5455 38.386 44.1685 37.3146 44.8207V50.7047C38.287 50.2127 39.2886 49.7148 40.3221 49.2228V42.9544V42.9574ZM25.2788 53.8374C25.5521 54.3672 26.023 54.7682 26.5896 54.9534C27.1563 55.1387 27.7731 55.0934 28.3066 54.8273L31.1191 53.4094C31.1366 51.0453 31.1482 49.249 31.1482 48.5357V48.3464C28.7608 49.5343 26.9499 50.4456 26.2541 50.792C25.7211 51.0667 25.319 51.5418 25.1361 52.1128C24.9532 52.6839 25.0045 53.3042 25.2788 53.8374ZM41.1723 53.2405C41.1711 53.5357 41.2283 53.8281 41.3404 54.1011C41.4525 54.3741 41.6175 54.6223 41.8258 54.8314C42.0341 55.0405 42.2816 55.2064 42.5541 55.3196C42.8267 55.4328 43.1189 55.4911 43.4141 55.4911H43.4403C44.0366 55.4903 44.6083 55.2529 45.0298 54.8309C45.4512 54.4089 45.6879 53.8369 45.6879 53.2405V34.5986C45.6877 34.2782 45.6192 33.9616 45.4869 33.6698C45.3546 33.378 45.1616 33.1177 44.9208 32.9064C44.68 32.6951 44.3969 32.5375 44.0904 32.4443C43.7839 32.351 43.461 32.3242 43.1433 32.3656C42.6009 32.4325 42.1018 32.6957 41.7402 33.1055C41.3787 33.5153 41.1797 34.0434 41.181 34.5899V43.9007C41.1723 47.0275 41.1723 50.1311 41.1723 53.2405Z" fill="white"/>
<path fill-rule="evenodd" clip-rule="evenodd" d="M73.2304 38.8029C73.0877 37.7141 72.3657 37.1085 71.2681 36.8232C70.3946 36.599 69.4921 36.5553 68.5721 36.5466C66.4293 36.5379 64.3039 36.8843 62.196 37.2948C59.1507 37.8858 56.1402 38.6428 53.1793 39.5657C52.2855 39.8394 51.4033 40.1247 50.5095 40.4101L50.5008 40.3751L50.6609 40.2412C52.3845 38.768 54.0964 37.2948 55.8316 35.8391C59.634 32.6249 63.0636 29.0991 66.2487 25.3783C67.1164 24.3681 67.8646 23.2879 68.2489 22.0564C68.8312 20.2076 68.179 19.0576 66.3041 18.5394C65.5094 18.3471 64.6934 18.2571 63.8759 18.2715C62.0883 18.2628 60.324 18.5568 58.58 18.912C56.7604 19.2905 54.1255 19.9602 52.3408 20.5017C49.4847 21.3751 45.9561 22.8774 42.8059 24.1526C41.1988 24.7786 39.4869 25.5821 37.8856 26.2081L31.8327 28.6712C23.7971 32.127 21.4593 29.6436 21.4593 29.6436C21.4593 29.6552 21.4622 29.664 21.468 29.6727C21.4527 29.6503 21.441 29.6258 21.433 29.5999C19.8696 32.6802 21.171 38.276 30.2081 34.2786C31.6289 33.7254 33.073 33.1257 34.485 32.5812C37.2072 31.5185 39.9032 30.2055 42.637 29.1545C44.5174 28.3809 46.4132 27.6451 48.3231 26.9476L50.0466 26.278C51.8139 25.6957 53.5811 25.1192 55.3833 24.6709C57.3485 24.1643 59.0633 23.8586 60.0998 23.9925C60.2046 24.0012 60.3123 24.01 60.4113 24.0303C60.883 24.0915 61.1334 24.3419 61.0897 24.6709C61.0722 25.1804 60.2512 26.869 52.7775 33.0907C52.2331 33.5565 51.6887 34.0282 51.1442 34.4911C50.3057 35.2161 49.4934 35.9294 48.6695 36.6456L47.9824 37.2512L47.9737 37.2599L47.6534 37.5452C47.6283 37.5717 47.6011 37.5961 47.5719 37.618L47.4933 37.6879L46.8673 38.1624C46.8246 38.2034 46.7799 38.2423 46.7334 38.2789V46.1776C49.377 45.2751 62.2397 40.9836 63.6255 42.2414C63.7333 42.3869 65.3666 43.403 50.4105 53.6338C49.8224 54.0792 49.2518 54.5247 48.6637 54.973L46.5005 56.6238C43.7958 58.5803 41.1085 60.5426 38.4067 62.4991L37.2334 63.3463C37.2159 65.4804 37.2072 67.5242 37.1985 69.4021L65.7305 48.3466C67.4707 46.8803 69.1197 45.3091 70.6683 43.6418C71.5417 42.7072 72.3278 41.7144 72.8461 40.5818C73.1139 39.9908 73.3119 39.4202 73.2304 38.8059V38.8029ZM26.7435 71.1839C26.3758 71.6424 26.1882 72.2195 26.2161 72.8066C26.2439 73.3937 26.4854 73.9503 26.8949 74.3719C27.2686 74.7681 27.7665 75.0248 28.306 75.0995C28.8455 75.1741 29.3944 75.0623 29.8616 74.7824L31.0029 73.9439C31.0117 72.2291 31.032 70.1416 31.0466 67.8882L27.1919 70.7472C27.0253 70.8741 26.8748 71.0208 26.7435 71.1839Z" fill="white"/>
<path fill-rule="evenodd" clip-rule="evenodd" d="M36.4854 38.4015C36.3438 37.8727 36.0146 37.4136 35.5592 37.1098C35.1038 36.806 34.5534 36.6784 34.0107 36.7507C33.4683 36.8176 32.9692 37.0809 32.6076 37.4907C32.2461 37.9005 32.0472 38.4286 32.0484 38.9751V48.2858C32.0484 50.1695 31.9669 59.5182 31.897 67.2742C31.8796 69.4986 31.8592 71.586 31.8504 73.33C31.833 75.5427 31.8242 77.2022 31.8242 77.8806C31.8231 78.1757 31.8802 78.4682 31.9924 78.7411C32.1045 79.0141 32.2695 79.2623 32.4777 79.4714C32.686 79.6805 32.9336 79.8464 33.2061 79.9596C33.4787 80.0728 33.7709 80.1311 34.066 80.1311H34.0922C34.6891 80.1311 35.2616 79.894 35.6836 79.4719C36.1057 79.0499 36.3428 78.4774 36.3428 77.8806C36.3428 76.32 36.3603 73.4697 36.3777 69.9789C36.3865 68.1156 36.4068 66.0601 36.4127 63.9261C36.4767 54.2223 36.5641 42.7891 36.5582 38.9751C36.5562 38.7817 36.5318 38.5893 36.4854 38.4015Z" fill="white"/>
</g>
<defs>
<clipPath id="clip0_342_5005">
<rect width="93.1659" height="93.1659" fill="white" transform="translate(0.487793 0.712402)"/>
</clipPath>
</defs>
</svg>
