<svg width="94" height="94" viewBox="0 0 94 94" fill="none" xmlns="http://www.w3.org/2000/svg">
<g clip-path="url(#clip0_342_5012)">
<path d="M46.5834 93.8783C72.3105 93.8783 93.1664 73.0224 93.1664 47.2953C93.1664 21.5683 72.3105 0.712402 46.5834 0.712402C20.8564 0.712402 0.000488281 21.5683 0.000488281 47.2953C0.000488281 73.0224 20.8564 93.8783 46.5834 93.8783Z" fill="#272D63"/>
<path d="M58.8552 21.6749L56.8171 29.9492C63.1175 32.1502 67.7554 35.4518 66.8499 41.5658C66.5879 43.4233 65.9474 45.2837 64.6256 46.6899C63.4931 47.904 61.7229 48.5474 60.2119 49.0423C58.4 49.6552 56.5051 49.988 54.5928 50.0293C53.3118 50.0293 52.0657 49.9915 50.7847 49.8779C48.7117 49.7236 46.598 49.5344 44.5629 49.0802C43.9224 48.9288 43.3168 48.8153 42.752 48.6609L39.9978 59.7826L38.3761 65.8559L36.3381 74.1709L31.3246 72.919L33.4005 64.5283C32.2301 64.2255 31.0218 63.8848 29.8165 63.5791L23.292 61.9487L25.7813 56.2132C25.7813 56.2132 29.4788 57.2031 29.438 57.1274C30.8734 57.468 31.476 56.5189 31.7381 55.9133L34.568 44.5238L35.8869 39.2483L37.3979 33.175C37.4707 32.1124 37.0951 30.7469 35.0571 30.252C35.1328 30.2141 31.4003 29.3407 31.4003 29.3407L32.7192 23.9516L39.6193 25.6985C40.6791 25.9605 41.733 26.1905 42.8277 26.4554L44.8657 18.1812L49.8792 19.4331L47.882 27.556C49.2008 27.8617 50.5605 28.1645 51.8794 28.5051L53.8388 20.42L58.8552 21.6749ZM58.4417 51.6626C59.8363 51.4326 61.5337 50.8649 62.739 50.37C62.7769 50.3321 62.8555 50.3321 62.8904 50.2943C65.4932 52.6089 66.7364 56.3675 65.039 61.1888C62.3605 69.009 55.9146 69.6524 47.3899 68.022L45.317 76.4098L40.3384 75.1579L42.26 67.1486L42.3357 66.8836L43.8467 60.7318C48.2954 61.7216 54.2929 62.3651 55.4226 57.733C56.0281 55.267 54.8578 53.4823 52.9711 52.1925L54.9335 52.0761C56.3309 52.0033 57.0442 51.8897 58.4417 51.6597V51.6626ZM56.9685 41.4872C58.4417 35.5275 49.3115 34.2377 46.4874 33.4807L43.9952 43.5747C46.8251 44.2967 55.574 47.1819 56.9685 41.4872Z" fill="#FEFEFE"/>
</g>
<defs>
<clipPath id="clip0_342_5012">
<rect width="93.1659" height="93.1659" fill="white" transform="translate(0.00146484 0.712402)"/>
</clipPath>
</defs>
</svg>
