<svg width="94" height="94" viewBox="0 0 94 94" fill="none" xmlns="http://www.w3.org/2000/svg">
<g clip-path="url(#clip0_342_5016)">
<path d="M47.0986 93.8783C72.8256 93.8783 93.6815 73.0224 93.6815 47.2953C93.6815 21.5683 72.8256 0.712402 47.0986 0.712402C21.3715 0.712402 0.515625 21.5683 0.515625 47.2953C0.515625 73.0224 21.3715 93.8783 47.0986 93.8783Z" fill="#F8C24A"/>
<path d="M47.0985 79.3211C29.4378 79.3211 15.0728 64.9561 15.0728 47.2953C15.0728 29.6345 29.4465 15.2695 47.0985 15.2695C64.7505 15.2695 79.1243 29.6433 79.1243 47.2953C79.1243 50.2126 78.7283 53.1182 77.9452 55.9306C77.7487 56.577 77.307 57.1209 76.7146 57.4457C76.1222 57.7706 75.4262 57.8506 74.7755 57.6687C74.1248 57.4869 73.5712 57.0575 73.2331 56.4725C72.8951 55.8876 72.7994 55.1936 72.9666 54.539C73.6217 52.1807 73.9565 49.7438 73.9536 47.2953C73.9536 32.4878 61.9061 20.4402 47.0985 20.4402C32.291 20.4402 20.2435 32.4878 20.2435 47.2953C20.2435 62.1029 32.291 74.1504 47.0985 74.1504C49.8702 74.1504 52.6273 73.7253 55.268 72.8839C55.594 72.7714 55.9391 72.7253 56.2832 72.7483C56.6272 72.7712 56.9632 72.8628 57.2713 73.0175C57.5795 73.1722 57.8535 73.387 58.0774 73.6493C58.3013 73.9115 58.4705 74.2159 58.5749 74.5445C58.6794 74.8731 58.7171 75.2193 58.6858 75.5627C58.6545 75.906 58.5548 76.2397 58.3926 76.544C58.2304 76.8483 58.009 77.117 57.7414 77.3344C57.4738 77.5519 57.1654 77.7136 56.8344 77.81C53.6868 78.8143 50.4024 79.324 47.0985 79.3211ZM56.9246 47.2196C58.031 48.1454 58.7763 49.4847 59.1606 51.2345C59.411 52.2418 59.3935 53.2987 59.114 54.2973C58.8346 55.2233 58.342 56.0709 57.6758 56.772C56.9464 57.5311 56.0915 58.1585 55.1486 58.6266C54.1529 59.1419 53.9171 59.3079 52.7292 59.5699L51.9897 59.7475C51.7704 59.8008 51.5808 59.938 51.4616 60.1297C51.3423 60.3213 51.303 60.552 51.3521 60.7723L51.7888 62.7288C51.8133 62.8395 51.8156 62.9539 51.7958 63.0655C51.7759 63.1771 51.7342 63.2837 51.6731 63.3792C51.612 63.4747 51.5326 63.5571 51.4396 63.6219C51.3465 63.6866 51.2416 63.7324 51.1309 63.7565L49.1598 64.1933C49.0493 64.2177 48.9351 64.2202 48.8236 64.2005C48.7122 64.1808 48.6057 64.1394 48.5103 64.0786C48.4148 64.0177 48.3323 63.9387 48.2674 63.846C48.2025 63.7533 48.1565 63.6487 48.1321 63.5382L47.7012 61.5963C47.6767 61.4858 47.6307 61.3812 47.5658 61.2885C47.5009 61.1957 47.4184 61.1167 47.323 61.0559C47.2276 60.995 47.1211 60.9536 47.0096 60.9339C46.8982 60.9143 46.7839 60.9167 46.6735 60.9412L41.3368 62.1232C40.7924 62.2428 40.2229 62.1413 39.7533 61.841C39.2838 61.5407 38.9528 61.0662 38.833 60.5219L34.0291 38.8056C33.9095 38.2612 34.0111 37.6916 34.3113 37.2221C34.6116 36.7526 35.0861 36.4215 35.6304 36.3017L40.967 35.1197C41.0775 35.0952 41.1821 35.0492 41.2749 34.9843C41.3676 34.9194 41.4466 34.8369 41.5074 34.7415C41.5683 34.6461 41.6097 34.5396 41.6294 34.4281C41.6491 34.3167 41.6466 34.2024 41.6221 34.092L41.1854 32.1355C41.1614 32.0248 41.1595 31.9104 41.1798 31.799C41.2 31.6876 41.2421 31.5812 41.3034 31.4861C41.3648 31.3909 41.4443 31.3087 41.5375 31.2443C41.6306 31.1799 41.7356 31.1345 41.8463 31.1106L43.8173 30.6739C43.9278 30.6495 44.0421 30.647 44.1535 30.6667C44.265 30.6863 44.3714 30.7278 44.4669 30.7886C44.5623 30.8494 44.6448 30.9285 44.7097 31.0212C44.7746 31.1139 44.8206 31.2185 44.8451 31.329L45.276 33.2738C45.326 33.4965 45.4623 33.6901 45.655 33.8124C45.8477 33.9346 46.081 33.9755 46.3037 33.926L47.9341 33.5708C48.7784 33.3728 49.6606 33.3874 50.4962 33.6145C51.2939 33.8328 52.0392 34.2055 52.6885 34.7121C54.0077 35.7654 54.9263 37.2389 55.2913 38.8871C55.565 40.1099 55.5097 41.3851 55.1341 42.5846C54.7449 43.8286 53.961 44.912 52.901 45.6707C54.3742 45.7406 55.7833 46.2821 56.9246 47.2196ZM41.1155 42.57L41.4008 43.8103C41.5206 44.3546 41.8517 44.8291 42.3212 45.1294C42.7908 45.4296 43.3603 45.5312 43.9047 45.4116L47.7099 44.5673C48.3536 44.4303 48.924 44.0601 49.3112 43.5279C49.7217 42.9806 49.8265 42.2469 49.6227 41.324C49.4335 40.4738 49.0637 39.8682 48.5164 39.5072C48.2591 39.3304 47.9676 39.2095 47.6607 39.1524C47.3538 39.0952 47.0383 39.103 46.7346 39.1753L42.7168 40.0633C42.447 40.1226 42.1915 40.2345 41.965 40.3926C41.7384 40.5507 41.5453 40.7519 41.3966 40.9848C41.2478 41.2176 41.1465 41.4774 41.0983 41.7494C41.05 42.0214 41.0559 42.3003 41.1155 42.57ZM52.4963 53.5374H52.5021C52.7004 53.2167 52.831 52.8589 52.8861 52.486C52.9412 52.113 52.9195 51.7327 52.8224 51.3684C52.6785 50.6239 52.2726 49.9556 51.6782 49.4847C51.4135 49.2649 51.1014 49.1094 50.7665 49.0306C50.4315 48.9518 50.0829 48.9518 49.7479 49.0305L44.9266 50.099C44.3823 50.2188 43.9078 50.5499 43.6076 51.0194C43.3073 51.4889 43.2058 52.0585 43.3253 52.6028L43.663 54.1372C43.7223 54.407 43.8342 54.6625 43.9923 54.889C44.1505 55.1156 44.3517 55.3087 44.5845 55.4574C44.8173 55.6061 45.0771 55.7075 45.3492 55.7557C45.6212 55.804 45.9 55.7981 46.1698 55.7385L50.7378 54.7282C51.0969 54.6607 51.4382 54.5202 51.7407 54.3154C52.0432 54.1106 52.3004 53.8458 52.4963 53.5374ZM62.0982 69.2097L66.5615 63.8759C66.6602 63.7582 66.7233 63.6146 66.7432 63.4622C66.7631 63.3099 66.7391 63.1549 66.6739 63.0158C66.6088 62.8766 66.5052 62.7589 66.3754 62.6766C66.2456 62.5943 66.095 62.5508 65.9413 62.5512H62.9367C62.8306 62.5516 62.7254 62.531 62.6272 62.4907C62.529 62.4503 62.4398 62.391 62.3646 62.316C62.2894 62.2411 62.2297 62.1521 62.189 62.054C62.1483 61.956 62.1273 61.8509 62.1273 61.7447V61.1159C62.1273 60.6704 62.4884 60.3094 62.9367 60.3094H69.8019C70.0158 60.3094 70.2209 60.3944 70.3721 60.5456C70.5234 60.6969 70.6083 60.902 70.6083 61.1159V61.9427C70.6082 62.1246 70.5467 62.301 70.4337 62.4435L66.1626 67.8064C66.0676 67.9251 66.0082 68.0683 65.9911 68.2194C65.974 68.3705 66 68.5234 66.066 68.6603C66.1321 68.7973 66.2355 68.9128 66.3644 68.9935C66.4932 69.0742 66.6423 69.1169 66.7944 69.1165H69.8543C70.2997 69.1165 70.6637 69.4775 70.6637 69.923V70.5489C70.6637 70.6551 70.6427 70.7602 70.602 70.8582C70.5613 70.9563 70.5016 71.0453 70.4264 71.1202C70.3512 71.1951 70.262 71.2545 70.1638 71.2948C70.0656 71.3352 69.9604 71.3558 69.8543 71.3554H62.7155C62.5016 71.3554 62.2964 71.2704 62.1452 71.1192C61.9939 70.9679 61.909 70.7628 61.909 70.5489V69.7337C61.9086 69.5422 61.9756 69.3567 62.0982 69.2097Z" fill="white"/>
</g>
<defs>
<clipPath id="clip0_342_5016">
<rect width="93.1659" height="93.1659" fill="white" transform="translate(0.515625 0.712402)"/>
</clipPath>
</defs>
</svg>
