<svg width="94" height="94" viewBox="0 0 94 94" fill="none" xmlns="http://www.w3.org/2000/svg">
<g clip-path="url(#clip0_342_5020)">
<path d="M46.6137 93.8783C72.3407 93.8783 93.1966 73.0224 93.1966 47.2953C93.1966 21.5683 72.3407 0.712402 46.6137 0.712402C20.8867 0.712402 0.0307617 21.5683 0.0307617 47.2953C0.0307617 73.0224 20.8867 93.8783 46.6137 93.8783Z" fill="#00AAFF"/>
<path d="M46.5034 15.0947C28.7786 15.0947 14.4136 29.4597 14.4136 47.1845C14.4136 64.9064 28.7786 79.2773 46.5034 79.2773C64.2253 79.2773 78.5961 64.9064 78.5961 47.1845C78.5961 29.4597 64.2253 15.0947 46.5034 15.0947ZM46.6053 20.1781C49.1731 20.1773 51.703 20.7966 53.9801 21.9834C56.2572 23.1701 58.2139 24.8893 59.6841 26.9945C61.1542 29.0998 62.0941 31.529 62.424 34.0754C62.7539 36.6219 62.4639 39.2104 61.5788 41.6208C60.2001 41.3787 58.7868 41.4169 57.4232 41.733C56.0596 42.0491 54.7737 42.6368 53.6422 43.4608C54.632 42.5144 55.4195 41.3769 55.9569 40.1173C56.4944 38.8578 56.7707 37.5022 56.7691 36.1327C56.7683 33.435 55.6969 30.8479 53.7902 28.9395C51.8834 27.0311 49.2972 25.9575 46.5995 25.9544C44.0816 25.9564 41.654 26.8919 39.7858 28.5799C37.9176 30.2679 36.7416 32.5886 36.4852 35.0934C34.5726 34.7517 32.6163 34.732 30.6972 35.0351C30.9738 31.0043 32.7699 27.2286 35.7227 24.4709C38.6756 21.7132 42.565 20.1789 46.6053 20.1781ZM52.4718 50.1426L46.8295 46.7653C46.6455 46.6544 46.4345 46.5965 46.2198 46.5981C46.005 46.5996 45.7948 46.6605 45.6125 46.774L40.6631 49.831C40.4695 49.9491 40.3146 50.121 40.2174 50.3258C40.1202 50.5306 40.0848 50.7594 40.1157 50.984C40.2459 51.9253 40.177 52.8835 39.9135 53.7965C39.65 54.7095 39.1978 55.557 38.5861 56.2843C37.9744 57.0115 37.2168 57.6022 36.3624 58.0182C35.508 58.4342 34.5758 58.6662 33.6261 58.6993C32.7195 58.7278 31.8164 58.5736 30.9706 58.246C30.1248 57.9183 29.3535 57.4239 28.7026 56.792C28.0518 56.1602 27.5347 55.404 27.1821 54.5682C26.8296 53.7325 26.6487 52.8343 26.6503 51.9273C26.6605 50.1555 27.3618 48.4577 28.6048 47.1951C29.8478 45.9325 31.5345 45.2048 33.3059 45.1669C34.2787 45.1504 35.2435 45.3443 36.1344 45.7352C37.0254 46.1262 37.8213 46.705 38.4678 47.432C38.8289 47.8396 39.4286 47.927 39.9003 47.6649L44.6692 44.9893C44.8503 44.8868 45.0011 44.7384 45.1064 44.5589C45.2117 44.3795 45.2678 44.1755 45.2689 43.9674V43.6763C45.2674 43.4303 45.1888 43.1909 45.0441 42.9919C44.8994 42.793 44.696 42.6443 44.4625 42.567C42.9115 42.0497 41.6 40.9888 40.7702 39.58C39.9403 38.1713 39.6482 36.5099 39.9476 34.9025C40.2471 33.2952 41.118 31.8505 42.3995 30.8351C43.6809 29.8197 45.2865 29.3022 46.9197 29.3782C48.569 29.4633 50.1307 30.1463 51.3128 31.2995C52.4949 32.4527 53.2164 33.997 53.3424 35.6436C53.4594 37.2218 53.0192 38.791 52.0983 40.0779C51.1774 41.3649 49.8342 42.2879 48.3027 42.6864C48.0483 42.7491 47.8221 42.8948 47.6597 43.1004C47.4973 43.306 47.408 43.5599 47.4059 43.8218V43.8713C47.4059 44.2789 47.6214 44.6545 47.9649 44.87L52.9755 47.9503C53.2165 48.1001 53.504 48.1567 53.7838 48.1095C54.0637 48.0623 54.3167 47.9146 54.4953 47.694C55.1466 46.8813 55.9768 46.2299 56.9211 45.7905C57.8654 45.3512 58.8984 45.1358 59.9397 45.1611C61.7349 45.2302 63.4292 46.0097 64.6498 47.328C65.8704 48.6463 66.5173 50.3955 66.4482 52.1908C66.3791 53.986 65.5996 55.6803 64.2813 56.9009C62.963 58.1215 61.2138 58.7684 59.4185 58.6993C58.5041 58.6494 57.6092 58.415 56.7877 58.0102C55.9662 57.6055 55.2351 57.0387 54.6384 56.3441C54.0416 55.6494 53.5916 54.8412 53.3153 53.9681C53.0391 53.0949 52.9423 52.175 53.0308 51.2635C53.0541 51.0428 53.0139 50.82 52.9149 50.6215C52.8158 50.4229 52.6621 50.2567 52.4718 50.1426ZM33.4107 67.7072C31.3373 67.708 29.2841 67.3002 27.3684 66.5072C25.4526 65.7142 23.7119 64.5515 22.2457 63.0856C20.7795 61.6196 19.6165 59.8791 18.8231 57.9635C18.0297 56.0479 17.6216 53.9948 17.622 51.9214C17.6205 49.5915 18.1348 47.2902 19.1281 45.1826C20.1215 43.075 21.5691 41.2135 23.3671 39.7317C25.1651 38.2499 27.2688 37.1845 29.5273 36.6121C31.7859 36.0397 34.1431 35.9744 36.4298 36.421C36.5055 39.0901 37.6288 41.6222 39.5567 43.4696C37.7755 42.168 35.6255 41.4683 33.4194 41.4723C30.678 41.5181 28.0642 42.6392 26.1417 44.5941C24.2192 46.549 23.1418 49.1811 23.1418 51.9229C23.1418 54.6647 24.2192 57.2968 26.1417 59.2517C28.0642 61.2066 30.678 62.3277 33.4194 62.3735C35.5084 62.3732 37.5492 61.7459 39.2777 60.5728C41.0062 59.3998 42.3428 57.7349 43.1145 55.7937C43.6123 57.9656 44.5324 59.9716 45.7726 61.7417C44.2961 63.605 42.417 65.1098 40.2761 66.1435C38.1352 67.1771 35.788 67.7127 33.4107 67.7101V67.7072ZM59.7766 67.7072C55.7751 67.707 51.9229 66.1876 48.9985 63.4562C46.0742 60.7248 44.2958 56.9851 44.0229 52.9929C45.8001 53.2634 47.6089 53.2526 49.3828 52.9608C49.5712 54.8504 50.2708 56.653 51.4065 58.1749C52.5422 59.6969 54.071 60.8807 55.8289 61.5991C57.5867 62.3176 59.507 62.5436 61.3836 62.2528C63.2602 61.9621 65.0221 61.1656 66.4801 59.9489C67.9381 58.7322 69.037 57.1413 69.6589 55.347C70.2808 53.5528 70.4022 51.623 70.0099 49.765C69.6177 47.907 68.7266 46.1909 67.4325 44.8012C66.1384 43.4114 64.4901 42.4005 62.6648 41.877C63.2708 40.1859 63.603 38.4089 63.6488 36.6131C67.3752 37.5628 70.627 39.8395 72.7942 43.0162C74.9613 46.1928 75.8949 50.0511 75.4197 53.8671C74.9444 57.6831 73.0931 61.1946 70.2131 63.7427C67.333 66.2909 63.6221 67.7005 59.7766 67.7072Z" fill="white"/>
<path d="M46.6143 9.44678C25.7131 9.44678 8.76562 26.3942 8.76562 47.2954C8.76562 68.1966 25.7131 85.1441 46.6143 85.1441C67.5154 85.1441 84.4629 68.1966 84.4629 47.2954C84.4629 26.3942 67.5154 9.44678 46.6143 9.44678ZM46.5036 82.2967C27.1135 82.2967 11.3976 66.5807 11.3976 47.1906C11.3976 27.8005 27.1135 12.0874 46.5036 12.0874C65.8909 12.0874 81.6068 27.8034 81.6068 47.1906C81.6068 66.5807 65.8909 82.2967 46.5036 82.2967Z" fill="white"/>
</g>
<defs>
<clipPath id="clip0_342_5020">
<rect width="93.1659" height="93.1659" fill="white" transform="translate(0.0297852 0.712402)"/>
</clipPath>
</defs>
</svg>
