<svg width="94" height="94" viewBox="0 0 94 94" fill="none" xmlns="http://www.w3.org/2000/svg">
<g clip-path="url(#clip0_342_5026)">
<path d="M47.1254 93.8783C72.8525 93.8783 93.7084 73.0224 93.7084 47.2953C93.7084 21.5683 72.8525 0.712402 47.1254 0.712402C21.3984 0.712402 0.54248 21.5683 0.54248 47.2953C0.54248 73.0224 21.3984 93.8783 47.1254 93.8783Z" fill="#EBA809"/>
<path fill-rule="evenodd" clip-rule="evenodd" d="M47.1254 79.3211C29.4384 79.3211 15.0996 64.9823 15.0996 47.2953C15.0996 29.6083 29.4384 15.2695 47.1254 15.2695C64.8123 15.2695 79.1511 29.6083 79.1511 47.2953C79.1511 64.9823 64.8123 79.3211 47.1254 79.3211ZM44.2489 20.3354C44.2547 22.8829 44.2547 25.4304 44.2547 27.9779L48.0687 27.9838C48.0774 25.3722 48.0832 22.7577 48.0687 20.1462C46.7964 20.1899 45.5183 20.251 44.2489 20.3354ZM53.4257 28.1002C56.7797 28.5515 60.384 29.0639 63.0538 31.3261C67.1328 34.9858 66.6058 42.669 61.6127 45.3213C64.6027 46.0201 67.5636 48.0086 68.3002 51.15C69.261 55.2668 68.4982 60.2046 65.1879 63.1044C61.9096 65.7975 57.4726 66.1527 53.417 66.5399C53.4345 68.9214 53.4286 71.303 53.4228 73.6904C61.9533 71.6087 69.3192 65.2618 72.449 57.0515C75.4187 49.476 74.7199 40.5641 70.5217 33.5854C66.8154 27.2967 60.5151 22.6675 53.4403 20.8973C53.4228 23.2993 53.4228 25.7012 53.4286 28.1002H53.4257ZM27.9623 27.9983C31.6598 28.173 35.3574 28.1381 39.0549 28.1322C39.0549 25.8846 39.0636 23.637 39.0432 21.3894C34.9032 22.7315 31.2173 25.1393 27.9594 27.9983H27.9623ZM23.6476 33.7921C19.3008 41.1871 18.8117 50.6755 22.4364 58.4577C25.5662 65.4335 31.7763 70.8604 39.0462 73.1983C39.0607 70.9565 39.0549 68.7089 39.0549 66.4671C35.3428 66.4292 31.622 66.5661 27.9187 66.3652C27.9594 64.2981 28.4427 62.2775 29.1502 60.3356C30.9669 60.2978 32.8623 60.6151 34.6179 60.0241C35.6427 59.1623 35.3515 57.7386 35.4039 56.5595C35.3515 49.8224 35.4331 43.0825 35.369 36.3454C35.436 35.2594 34.7547 34.0861 33.6222 33.8707C31.7588 33.5009 29.846 33.6465 27.9623 33.6349C27.7411 32.1209 27.7178 30.5866 27.6916 29.0523C27.722 28.8967 27.7193 28.7364 27.6837 28.5819C27.648 28.4274 27.5803 28.2821 27.4848 28.1555C26.4193 30.1761 24.7248 31.7744 23.6476 33.7892V33.7921ZM44.4061 34.0861V44.0199C47.728 43.9617 51.411 44.3285 54.3166 42.4012C56.7273 40.8261 56.573 36.8287 54.0837 35.4137C51.1781 33.6902 47.632 34.1793 44.409 34.0861H44.4061ZM44.4061 49.3653V60.3851C48.5054 60.0532 53.1055 60.7432 56.672 58.2714C59.2224 56.5799 58.9167 52.3932 56.2877 50.9288C52.7153 48.7947 48.3744 49.4731 44.409 49.3653H44.4061ZM44.2576 66.6156C44.2576 69.1631 44.2518 71.7106 44.2431 74.2639C45.5707 74.3513 46.8983 74.4037 48.2259 74.4386C48.2375 71.8329 48.2317 69.2242 48.2317 66.6156H44.2576Z" fill="white"/>
</g>
<defs>
<clipPath id="clip0_342_5026">
<rect width="93.1659" height="93.1659" fill="white" transform="translate(0.543457 0.712402)"/>
</clipPath>
</defs>
</svg>
