<svg width="94" height="94" viewBox="0 0 94 94" fill="none" xmlns="http://www.w3.org/2000/svg">
<g clip-path="url(#clip0_342_5030)">
<path d="M46.6406 93.8783C72.3676 93.8783 93.2235 73.0224 93.2235 47.2953C93.2235 21.5683 72.3676 0.712402 46.6406 0.712402C20.9135 0.712402 0.0576172 21.5683 0.0576172 47.2953C0.0576172 73.0224 20.9135 93.8783 46.6406 93.8783Z" fill="#504C4C"/>
<path d="M31.5799 45.4788L26.4994 56.2452L28.8635 65.0727L34.8785 66.6798L42.3434 74.1535L40.0958 76.4098L22.3011 71.6351L17.5264 53.8404L21.1074 50.2652L36.6603 34.7094L31.5799 45.4788L26.4994 56.2452L42.3434 40.4012L36.6603 34.7094L31.5799 45.4788ZM39.7464 51.5928L55.5904 67.4368L64.4179 65.0727L66.0308 59.0577L73.4987 51.5928L75.755 53.8404L70.9861 71.6409L53.1856 76.4098L34.0604 57.2759L39.7464 51.5928ZM53.535 42.9982L37.691 27.1542L28.8577 29.5183L27.2506 35.5246L19.7827 42.9982L17.5264 40.7506L22.3011 22.9501L40.0958 18.1812L43.671 21.7622L59.2181 37.3093L53.535 42.9982ZM58.4029 27.9053L50.938 20.4375L53.1856 18.1812L70.9861 22.9501L75.755 40.7506L56.6211 59.8758L50.938 54.1898L66.7878 38.3399L64.4179 29.5125L58.4029 27.9053Z" fill="white"/>
</g>
<defs>
<clipPath id="clip0_342_5030">
<rect width="93.1659" height="93.1659" fill="white" transform="translate(0.0576172 0.712402)"/>
</clipPath>
</defs>
</svg>
