<svg width="94" height="94" viewBox="0 0 94 94" fill="none" xmlns="http://www.w3.org/2000/svg">
<g clip-path="url(#clip0_342_5034)">
<path d="M47.1557 93.8783C72.8827 93.8783 93.7386 73.0224 93.7386 47.2953C93.7386 21.5683 72.8827 0.712402 47.1557 0.712402C21.4286 0.712402 0.572754 21.5683 0.572754 47.2953C0.572754 73.0224 21.4286 93.8783 47.1557 93.8783Z" fill="#35BAEB"/>
<path d="M26.8628 15.2695L45.1291 31.4717C45.3417 31.6667 45.5717 31.8298 45.7493 32.0394C45.7696 32.1635 45.7784 32.2892 45.7755 32.415C45.7667 39.3937 45.7929 46.3666 45.7667 53.3365C44.8531 53.5247 43.9773 53.8642 43.1756 54.341L27.0375 38.2058C26.9753 38.1552 26.9269 38.0897 26.8969 38.0154C26.8668 37.9411 26.8561 37.8603 26.8657 37.7807C26.8832 30.2751 26.8657 22.7752 26.8832 15.2754L26.8628 15.2695ZM48.5443 40.3282C52.9677 40.6241 57.1726 42.3605 60.5161 45.2719C59.564 46.2909 58.5363 47.2516 57.5522 48.2502C55.4735 50.3232 53.4093 52.4136 51.3218 54.4662C50.4785 53.916 49.5376 53.5326 48.5501 53.3365C48.5268 49.0072 48.5501 44.6692 48.5501 40.3282H48.5443ZM26.8715 42.2731C31.6114 46.9692 36.3221 51.6974 41.0531 56.4023C40.5 57.2611 40.104 58.2074 39.8827 59.206H26.8628V42.2643L26.8715 42.2731ZM60.6616 49.0654C61.2818 48.4715 61.8495 47.8339 62.5046 47.2604C65.4162 50.5905 67.1549 54.7839 67.454 59.1972C63.1829 59.2147 58.9031 59.1972 54.6321 59.206C54.3759 59.2642 54.3759 58.9672 54.3264 58.8071C54.1216 57.964 53.7677 57.1643 53.2812 56.4459C55.7268 53.9829 58.1986 51.5285 60.6616 49.0742V49.0654ZM26.8628 61.9747H37.9874C38.625 61.9747 39.2626 61.9456 39.9089 61.9893C40.1069 62.9734 40.4912 63.9109 41.0357 64.7493L32.0102 73.7515C31.9433 73.8039 31.8326 73.964 31.754 73.8388C28.8737 70.5232 27.1561 66.357 26.8628 61.9747ZM54.4108 61.9893C56.245 61.9485 58.0617 61.9893 59.8959 61.9747H67.454C67.1683 66.3202 65.4748 70.4544 62.6298 73.7515L57.3659 68.5051C56.0499 67.1804 54.7078 65.879 53.4063 64.5368C53.8926 63.7565 54.2332 62.8918 54.4108 61.9893ZM50.7599 67.0261C50.9637 66.9096 51.1675 66.7873 51.3713 66.6854L60.5597 75.8565C57.2121 78.7925 52.9878 80.5397 48.5443 80.8263V67.8326C49.3177 67.677 50.0623 67.402 50.7511 67.0173L50.7599 67.0261ZM37.3935 72.2492C39.2626 70.3975 41.1114 68.5226 42.998 66.6884C43.8423 67.2299 44.7827 67.62 45.7638 67.8326V80.8263C41.3387 80.5376 37.1316 78.8004 33.792 75.8827C34.9653 74.6511 36.1969 73.472 37.3935 72.2579V72.2492Z" fill="white"/>
</g>
<defs>
<clipPath id="clip0_342_5034">
<rect width="93.1659" height="93.1659" fill="white" transform="translate(0.571777 0.712402)"/>
</clipPath>
</defs>
</svg>
