<svg width="94" height="94" viewBox="0 0 94 94" fill="none" xmlns="http://www.w3.org/2000/svg">
<g clip-path="url(#clip0_342_5038)">
<path d="M46.6674 93.8783C72.3945 93.8783 93.2503 73.0224 93.2503 47.2953C93.2503 21.5683 72.3945 0.712402 46.6674 0.712402C20.9404 0.712402 0.0844727 21.5683 0.0844727 47.2953C0.0844727 73.0224 20.9404 93.8783 46.6674 93.8783Z" fill="black"/>
<path d="M80.8562 40.1301C80.3957 37.8935 79.715 35.708 78.824 33.6056C77.9459 31.5347 76.8716 29.5527 75.6156 27.6866C74.3703 25.8431 72.9497 24.1241 71.3737 22.5538C69.8024 20.9776 68.0825 19.557 66.2379 18.3118C64.3691 17.0622 62.3886 15.9881 60.3219 15.1034C56.0478 13.2906 51.4526 12.3564 46.8099 12.3564C42.1673 12.3564 37.5721 13.2906 33.2979 15.1034C29.165 16.8467 25.4112 19.3782 22.2461 22.5567C20.6703 24.1261 19.2497 25.8441 18.0042 27.6866C16.7544 29.5564 15.6803 31.5378 14.7958 33.6056C12.983 37.8797 12.0488 42.4749 12.0488 47.1175C12.0488 51.7602 12.983 56.3554 14.7958 60.6295C15.6518 62.6966 16.7581 64.656 18.0042 66.5455C19.2497 68.3899 20.6702 70.1098 22.2461 71.6813C23.8174 73.2574 25.5373 74.678 27.3819 75.9233C29.2336 77.1694 31.2308 78.2408 33.2979 79.1317C37.5721 80.9444 42.1673 81.8786 46.8099 81.8786C51.4526 81.8786 56.0478 80.9444 60.3219 79.1317C62.389 78.2757 64.3484 77.1694 66.2379 75.9233C68.0825 74.678 69.8024 73.2574 71.3737 71.6813C72.9498 70.11 74.3704 68.3901 75.6156 66.5455C76.8617 64.6939 77.9331 62.6966 78.824 60.6295C81.5667 54.1611 82.2755 47.0111 80.8562 40.1301ZM46.8419 77.5275C30.0517 77.5275 16.4699 63.9078 16.4699 47.1525C16.4699 30.3972 30.0895 16.7775 46.8419 16.7775C63.5972 16.7775 77.2169 30.3972 77.2169 47.1525C77.2169 63.9078 63.6001 77.5275 46.8419 77.5275Z" fill="white"/>
<path d="M47.3807 74.8895H48.2017C48.3444 74.8895 48.4841 74.8895 48.6268 74.8517H48.6646C48.8073 74.8517 48.9121 74.8517 49.0548 74.8167H49.1625C49.2702 74.8167 49.3779 74.8167 49.4827 74.7818H49.5905C49.6982 74.7818 49.8059 74.7469 49.9486 74.7469H50.0184C50.1611 74.7469 50.3038 74.709 50.4464 74.709C50.5891 74.709 50.6968 74.6741 50.8395 74.6391H50.9093C51.0171 74.6391 51.1248 74.6042 51.2296 74.6042H51.3024C51.445 74.5663 51.5528 74.5663 51.6954 74.5314C51.9778 74.4965 52.2632 74.4237 52.5135 74.3538H52.5863C52.6911 74.3189 52.8338 74.3189 52.9415 74.281H52.9765C53.2618 74.2111 53.5122 74.1384 53.7975 74.0685C51.1272 74.1532 48.4568 73.9018 45.8493 73.3203C41.9247 72.4643 38.1835 70.9329 35.01 68.2922C32.5082 66.2102 30.5004 63.5981 29.1318 60.6449C27.7632 57.6918 27.0681 54.4714 27.0967 51.2166C27.1224 46.361 28.8502 41.6681 31.9792 37.9551C36.0436 33.1425 41.8198 30.6095 47.7359 30.4669H48.5569V25.7271H47.6311C45.8313 25.76 44.0394 25.9746 42.2828 26.3676C40.515 26.7673 38.7945 27.3528 37.1499 28.1144C35.4729 28.9005 33.9037 29.8613 32.4421 30.9676C30.9318 32.1157 29.5566 33.4313 28.3428 34.8893C27.2 36.2387 26.2081 37.709 25.3848 39.2739C24.5703 40.7826 23.9128 42.3709 23.4225 44.0138C22.9416 45.6313 22.6198 47.2919 22.4617 48.9719L22.354 50.5383V51.4641C22.3889 53.2838 22.6044 55.0656 22.9945 56.8124C23.3876 58.5971 23.9931 60.3061 24.7414 61.9482C25.6352 63.9076 27.2394 66.7957 29.6268 68.9706C34.5014 72.8134 40.5301 74.8988 46.7373 74.8895H47.3807Z" fill="white"/>
<path d="M55.1509 70.3248C53.3925 70.262 51.641 70.0712 49.9103 69.7541C42.5677 68.4352 36.2557 63.9429 33.9411 57.1709C31.1228 48.9345 35.4376 40.0226 43.6362 37.3149C45.1986 36.7913 46.8359 36.5258 48.4837 36.5288C50.5887 36.5288 52.6907 36.9568 54.6181 37.74L56.6124 33.498C56.0127 33.2576 55.4069 33.0324 54.7957 32.8226C52.7531 32.1815 50.6245 31.8565 48.4837 31.8589C46.3389 31.8629 44.2087 32.2119 42.1746 32.8925C39.5787 33.7487 37.1879 35.1324 35.1523 36.9568C34.1705 37.8313 33.2755 38.7985 32.4796 39.845C31.6928 40.8794 31.0119 41.9904 30.4474 43.1611C29.2978 45.5147 28.6194 48.0703 28.4501 50.6842C28.2726 53.3919 28.6277 56.0995 29.5186 58.6674C30.4264 61.309 31.8852 63.7275 33.7985 65.7625C35.5453 67.6521 37.5775 69.0787 40.0347 70.3975C42.6026 71.7514 45.7761 72.4647 49.0893 72.9305C51.2292 73.2129 54.0824 73.2857 55.7565 73.2857C57.218 72.75 57.8236 72.4996 58.6097 72.1793C59.288 71.8591 59.9635 71.5388 60.6419 71.1458C61.3202 70.7527 61.428 70.68 62.5663 69.9346C62.6677 69.8716 62.7632 69.7995 62.8516 69.7192C58.9299 70.3975 57.9313 70.3597 55.1509 70.3248Z" fill="white"/>
<path d="M63.9233 65.0143C62.817 65.0842 61.2477 65.189 59.4659 65.189C56.2924 65.189 52.4057 64.9066 49.0925 63.8003C43.9567 62.0913 39.1092 57.7066 39.1092 52.2856C39.108 51.0025 39.3599 49.7318 39.8504 48.5462C40.3408 47.3606 41.0603 46.2833 41.9675 45.3761C42.8748 44.4688 43.952 43.7494 45.1377 43.2589C46.3233 42.7684 47.594 42.5165 48.877 42.5177C52.5483 42.5177 55.7218 44.5499 57.3988 47.5079L61.6407 45.4058C60.9756 44.1536 60.1213 43.0115 59.1078 42.0198C57.7649 40.6746 56.1699 39.6074 54.4142 38.8793C52.6584 38.1512 50.7763 37.7764 48.8756 37.7764C46.9748 37.7764 45.0927 38.1512 43.3369 38.8793C41.5812 39.6074 39.9862 40.6746 38.6433 42.0198C37.2986 43.3627 36.2318 44.9574 35.5039 46.7129C34.776 48.4684 34.4014 50.3502 34.4014 52.2506C34.4109 54.2423 34.8373 56.21 35.6533 58.0269C36.3986 59.666 37.4351 61.2004 38.754 62.627C41.0715 65.1191 44.242 67.1164 47.6309 68.2577C50.8743 69.3262 55.6519 69.7192 60.2869 69.399C61.5679 69.2912 62.5316 69.1835 64.1708 68.8283C65.7526 67.58 67.1883 66.157 68.4506 64.5864C67.3442 64.6941 65.3121 64.9066 63.9233 65.0143Z" fill="white"/>
</g>
<defs>
<clipPath id="clip0_342_5038">
<rect width="93.1659" height="93.1659" fill="white" transform="translate(0.0854492 0.712402)"/>
</clipPath>
</defs>
</svg>
