<svg width="94" height="94" viewBox="0 0 94 94" fill="none" xmlns="http://www.w3.org/2000/svg">
<g clip-path="url(#clip0_342_5046)">
<path d="M47.1825 93.8783C72.9096 93.8783 93.7655 73.0224 93.7655 47.2953C93.7655 21.5683 72.9096 0.712402 47.1825 0.712402C21.4555 0.712402 0.599609 21.5683 0.599609 47.2953C0.599609 73.0224 21.4555 93.8783 47.1825 93.8783Z" fill="#FB2EA3"/>
<path d="M66.4907 41.5308C65.8298 45.9999 63.3522 48.1631 60.0652 48.9201C64.5779 51.2696 66.8779 54.8769 64.6885 61.1248C61.9722 68.8867 55.5204 69.5388 46.9404 67.9172L44.8529 76.2642L39.822 75.0094L41.8775 66.7759C40.5364 66.4429 39.199 66.0955 37.8655 65.7336L35.8042 74.0079L30.7762 72.756L32.8608 64.3914C31.6845 64.0915 30.4908 63.7713 29.271 63.4656L22.7231 61.8352L25.2212 56.0705C25.2212 56.0705 28.9303 57.0604 28.8779 56.9847C30.3045 57.337 30.9363 56.4083 31.1867 55.791L34.4766 42.5964L35.0094 42.7274C34.8385 42.6607 34.6635 42.6052 34.4853 42.5615L36.8319 33.143C36.8931 32.0716 36.5263 30.7265 34.4882 30.2141C34.5669 30.1617 30.8315 29.3057 30.8315 29.3057L32.1707 23.9312L39.1116 25.6635L39.1058 25.6926C40.1481 25.9489 41.2253 26.1963 42.32 26.4467L44.3842 18.1812L49.4152 19.4331L47.3946 27.5385C48.7426 27.8471 50.1023 28.1557 51.4241 28.4876L53.4329 20.4375L58.4639 21.6894L56.4026 29.9579C62.7583 32.1473 67.4049 35.4285 66.4907 41.5308ZM54.9906 57.6544C56.621 51.1386 45.6798 49.4529 42.2676 48.5998L39.5046 59.6778C42.9168 60.525 53.4388 63.9052 54.9935 57.6544H54.9906ZM56.5482 41.4406C58.0272 35.51 48.8795 34.1911 46.0379 33.4807L43.5341 43.5281C46.3727 44.2385 55.1303 47.1266 56.5482 41.4406ZM71.1927 63.6519C70.9487 63.6193 70.7007 63.6351 70.4629 63.6986C70.2251 63.762 70.0021 63.8718 69.8068 64.0217C69.4285 64.3461 69.1718 64.7897 69.079 65.2794C69.0193 65.5517 68.9997 65.8312 69.0208 66.1092C69.0457 66.4259 69.1477 66.7317 69.3177 67.0001C69.4924 67.2912 69.7719 67.5649 70.1504 67.8211C70.5289 68.0744 71.0529 68.2782 71.7226 68.4325C72.0836 68.5198 72.4562 68.5606 72.8376 68.5577C73.222 68.5577 73.5771 68.4965 73.9032 68.3743C74.2481 68.2525 74.5555 68.0434 74.7953 67.7673C75.0352 67.4912 75.1993 67.1577 75.2716 66.7992C75.3403 66.5436 75.3577 66.2769 75.3227 66.0145C75.2877 65.7522 75.2011 65.4993 75.0678 65.2707C74.7999 64.8223 74.3603 64.4788 73.746 64.24L74.1944 62.301C75.3007 62.7465 76.0752 63.3841 76.5235 64.208C76.9719 65.0348 77.065 66.016 76.803 67.1515C76.6704 67.7811 76.4076 68.3762 76.0315 68.8983C75.6936 69.3589 75.2605 69.7413 74.7616 70.0196C74.2628 70.298 73.7099 70.4656 73.1404 70.5113C72.5141 70.5679 71.8827 70.5217 71.2713 70.3744C70.6423 70.2341 70.0385 69.9984 69.4808 69.6757C68.9666 69.3811 68.5178 68.9849 68.1619 68.5111C67.8157 68.0404 67.5789 67.4983 67.469 66.9244C67.3515 66.2659 67.3763 65.5898 67.5417 64.9417C67.6532 64.4496 67.8325 63.9753 68.0745 63.5325C68.3104 63.1017 68.5986 62.7377 68.9451 62.4408C69.2886 62.1438 69.6846 61.9283 70.1329 61.7944C70.5842 61.6576 71.085 61.6314 71.641 61.71L71.1927 63.6519ZM79.0303 57.5001C78.893 58.1473 78.6267 58.7603 78.2471 59.3022C77.889 59.7972 77.461 60.1873 76.9661 60.4755C76.454 60.7664 75.8867 60.9469 75.3007 61.0054C74.6505 61.0704 73.9939 61.0252 73.3588 60.8715C72.726 60.7318 72.1216 60.4856 71.5712 60.1436C71.0706 59.8343 70.6402 59.4238 70.3076 58.9383C69.9812 58.4506 69.7628 57.8986 69.6671 57.3195C69.5644 56.6672 69.5941 56.0008 69.7544 55.3602C69.8917 54.7129 70.158 54.0999 70.5376 53.558C70.8986 53.063 71.3237 52.67 71.8215 52.3847C72.3336 52.0938 72.9009 51.9133 73.4869 51.8548C74.0983 51.7878 74.7388 51.8315 75.4084 51.9858C76.0467 52.1254 76.6569 52.3715 77.2135 52.7137C77.7376 53.0456 78.1568 53.4473 78.4771 53.9219C78.7974 54.3965 79.0099 54.9351 79.1176 55.5378C79.2207 56.1911 79.191 56.8585 79.0303 57.5001ZM71.3907 49.3539L71.8128 47.5342L73.5131 47.9273L73.5218 47.8923C73.2844 47.7701 73.0736 47.6018 72.9017 47.3974C72.5066 46.938 72.2448 46.3792 72.1447 45.7815C72.096 45.4797 72.1058 45.1713 72.1738 44.8732C72.2265 44.6275 72.3006 44.3869 72.3951 44.154L74.2672 44.5849C74.2126 44.7186 74.1612 44.8536 74.1129 44.9896C74.064 45.1239 74.0231 45.261 73.9906 45.4001C73.9101 45.7196 73.9029 46.0531 73.9694 46.3758C74.036 46.6984 74.1746 47.0019 74.3749 47.2635C74.6017 47.5565 74.8823 47.8035 75.2017 47.9913C75.5482 48.2039 75.9645 48.3669 76.4537 48.4804L80.6403 49.447L80.1919 51.3861L71.3907 49.3539ZM78.0287 42.9778C78.3665 43.0593 78.7071 43.0856 79.0477 43.0652C79.3712 43.0449 79.6876 42.9618 79.9794 42.8206C80.2687 42.679 80.5225 42.474 80.7218 42.2209C80.9467 41.9244 81.1019 41.5811 81.176 41.2164C81.3111 40.7378 81.2938 40.229 81.1265 39.7607C80.9374 39.3296 80.6163 38.9697 80.2094 38.733L80.6315 36.8958C81.2631 37.1829 81.8028 37.6393 82.1908 38.2143C82.5788 38.7894 82.7999 39.4607 82.8297 40.1537C82.8588 40.6196 82.818 41.0912 82.7103 41.5687C82.5502 42.2616 82.294 42.8497 81.9446 43.3301C81.6089 43.8017 81.1724 44.1927 80.6668 44.4747C80.1612 44.7567 79.5992 44.9227 79.0215 44.9605C77.7462 45.0625 76.4711 44.761 75.3764 44.0987C74.8759 43.7857 74.4393 43.3807 74.0896 42.905C73.7491 42.4354 73.5101 41.9 73.3879 41.3329C73.2569 40.7564 73.2714 40.1392 73.4199 39.4783C73.5588 38.8281 73.8558 38.2221 74.2846 37.714C74.6864 37.2429 75.1862 36.8654 75.7491 36.6076C76.3247 36.3527 76.9451 36.2142 77.5745 36.2C78.2325 36.1767 78.8789 36.2815 79.5194 36.5115L78.0258 42.9807L78.0287 42.9778ZM77.4988 57.1478C77.5948 56.7748 77.595 56.3835 77.4993 56.0104C77.4036 55.6373 77.2152 55.2945 76.9515 55.0137C76.6969 54.736 76.3953 54.5053 76.0606 54.3324C75.366 53.9669 74.5889 53.7864 73.8042 53.8084C73.4278 53.8156 73.0558 53.8915 72.7066 54.0325C72.3481 54.1708 72.0303 54.3972 71.7825 54.6908C71.5346 54.9844 71.3648 55.3358 71.2888 55.7124C71.1918 56.0841 71.19 56.4741 71.2837 56.8466C71.3773 57.2191 71.5633 57.562 71.8245 57.8436C72.0661 58.1173 72.3631 58.3415 72.7154 58.5249C73.4106 58.8889 74.1872 59.0693 74.9717 59.0489C75.3489 59.0396 75.7215 58.9637 76.0723 58.8248C76.432 58.688 76.7514 58.4625 77.0008 58.1694C77.2502 57.8762 77.4215 57.5248 77.4988 57.1478ZM77.7958 38.1565C77.4873 38.1083 77.1735 38.1054 76.8642 38.1478C76.5697 38.1807 76.2846 38.2715 76.0253 38.4149C75.766 38.5583 75.5376 38.7515 75.3531 38.9833C75.1622 39.2414 75.0252 39.5352 74.9501 39.8473C74.8751 40.1594 74.8636 40.4834 74.9164 40.8001C74.9746 41.1058 75.0824 41.3824 75.2454 41.6298C75.6048 42.1506 76.1388 42.5254 76.7506 42.6867L77.7958 38.1565Z" fill="white"/>
</g>
<defs>
<clipPath id="clip0_342_5046">
<rect width="93.1659" height="93.1659" fill="white" transform="translate(0.599609 0.712402)"/>
</clipPath>
</defs>
</svg>
