<svg width="94" height="94" viewBox="0 0 94 94" fill="none" xmlns="http://www.w3.org/2000/svg">
<g clip-path="url(#clip0_342_5050)">
<path d="M46.6962 93.8783C72.4233 93.8783 93.2792 73.0224 93.2792 47.2953C93.2792 21.5683 72.4233 0.712402 46.6962 0.712402C20.9692 0.712402 0.113281 21.5683 0.113281 47.2953C0.113281 73.0224 20.9692 93.8783 46.6962 93.8783Z" fill="#2D2D2D"/>
<path d="M34.1948 56.8915L11.7593 49.5372H26.7677L28.2525 42.4245L41.5811 42.4333L44.906 24.0039H58.316C67.3939 24.0039 71.0739 27.6578 69.7143 35.1984L69.4231 36.8142C68.6283 41.2076 66.6223 44.1277 63.1752 45.8135C66.5903 47.5603 67.7374 50.8648 66.8785 55.625L66.2147 59.3109C64.8871 66.6651 59.4777 70.5868 50.691 70.5868H36.4977L40.1749 50.2272H35.7204L34.1948 56.8915ZM48.9441 48.8938L46.1957 64.1205H51.8585C55.2183 64.1205 57.0845 62.6299 57.7192 59.1129L58.4325 55.1737C59.2418 50.6814 57.6871 48.8938 53.2821 48.8938H48.9441ZM52.2719 30.4673L49.8729 43.7551H53.9838C57.7337 43.7551 59.926 42.1538 60.5986 38.4271L61.0557 35.9058C61.7107 32.2753 60.354 30.4673 56.9156 30.4673H52.8105H52.2719Z" fill="white"/>
</g>
<defs>
<clipPath id="clip0_342_5050">
<rect width="93.1659" height="93.1659" fill="white" transform="translate(0.113281 0.712402)"/>
</clipPath>
</defs>
</svg>
