<svg width="94" height="94" viewBox="0 0 94 94" fill="none" xmlns="http://www.w3.org/2000/svg">
<g clip-path="url(#clip0_342_5054)">
<path d="M47.2094 93.8783C72.9364 93.8783 93.7923 73.0224 93.7923 47.2953C93.7923 21.5683 72.9364 0.712402 47.2094 0.712402C21.4824 0.712402 0.626465 21.5683 0.626465 47.2953C0.626465 73.0224 21.4824 93.8783 47.2094 93.8783Z" fill="#00AEEF"/>
<path d="M41.2468 71.929H24.6866L27.9357 53.5433L45.1278 38.0573H30.5065L42.3299 30.8108H61.5541L36.6904 55.3542L35.0193 64.729C35.0193 64.729 40.5714 65.1366 44.9473 64.729C49.326 64.2777 54.2435 62.4668 54.2435 62.4668L41.2468 71.929ZM67.2867 32.578L59.8858 39.8246C59.8858 39.8246 66.1134 46.7538 60.3808 56.2625C54.7413 65.5908 36.0121 63.8701 36.0121 63.8701L37.4561 55.6744L63.8104 29.9519H41.9689L44.1815 17.4531H33.6218L29.8311 38.826H43.279L27.304 53.2288L23.918 72.6102C23.918 72.6102 36.6904 72.9712 47.521 72.6102C58.3952 72.2463 71.0745 62.9181 72.9261 52.367C75.4533 38.101 67.2867 32.578 67.2867 32.578Z" fill="white"/>
</g>
<defs>
<clipPath id="clip0_342_5054">
<rect width="93.1659" height="93.1659" fill="white" transform="translate(0.627441 0.712402)"/>
</clipPath>
</defs>
</svg>
