<svg width="94" height="94" viewBox="0 0 94 94" fill="none" xmlns="http://www.w3.org/2000/svg">
<g clip-path="url(#clip0_342_5058)">
<path d="M46.7245 93.8783C72.4516 93.8783 93.3075 73.0224 93.3075 47.2953C93.3075 21.5683 72.4516 0.712402 46.7245 0.712402C20.9975 0.712402 0.141602 21.5683 0.141602 47.2953C0.141602 73.0224 20.9975 93.8783 46.7245 93.8783Z" fill="#FBB413"/>
<path d="M46.7746 64.1934C48.707 64.2817 50.6354 63.9479 52.4256 63.2152C53.136 62.9619 53.8144 62.627 54.4491 62.2194C54.5052 62.1697 54.5713 62.1325 54.6429 62.1103C54.7146 62.0881 54.7901 62.0815 54.8646 62.0909C54.939 62.1003 55.0105 62.1254 55.0744 62.1646C55.1384 62.2039 55.1932 62.2563 55.2352 62.3184L59.8323 67.0495C60.1613 67.3931 60.1497 67.5037 59.7566 67.7745C58.1599 68.8691 56.4251 69.7473 54.5976 70.386C52.3358 71.1594 49.9727 71.5969 47.5839 71.6845C44.5426 71.8413 41.4988 71.4255 38.6109 70.4588C36.1245 69.597 33.8123 68.2975 31.7836 66.6215C29.9515 65.106 28.3421 63.3399 27.003 61.3751C26.2467 60.3038 25.5936 59.1632 25.0523 57.9687C24.6436 57.0241 24.2755 56.0625 23.9489 55.0864C23.4066 53.2952 23.0619 51.45 22.9212 49.5838C22.7694 48.2135 22.789 46.8296 22.9794 45.4641C23.125 44.1132 23.3637 42.774 23.6927 41.4551C24.2426 39.4393 25.0417 37.4999 26.0714 35.6817C28.2836 31.8532 31.5296 28.7252 35.4374 26.6563C36.9203 25.8524 38.4862 25.212 40.1074 24.7464C41.4224 24.3526 42.7731 24.0893 44.1397 23.9603C45.1923 23.8281 46.2556 23.8038 47.3132 23.8875C47.5024 23.8992 47.6917 23.8992 47.878 23.8875C49.6103 23.9318 51.3292 24.204 52.9905 24.6969C54.4083 25.0754 55.7796 25.6111 57.0723 26.304C58.4378 26.9794 59.7217 27.8005 60.9096 28.7554C61.1425 28.9621 61.3259 28.8661 61.5093 28.6681L64.3421 25.678L68.424 21.34C68.9014 20.8247 69.0237 20.8101 69.5391 21.276C71.1112 22.6938 72.5669 24.2398 73.8771 25.8993C75.5422 27.9671 76.9618 30.221 78.1074 32.616C79.0245 34.5958 79.7786 36.6454 80.3638 38.7445C80.8558 40.4739 81.013 42.2383 81.3944 43.9677C81.3984 44.0005 81.3984 44.0338 81.3944 44.0667C81.3944 45.6708 81.7496 47.278 81.5778 48.8822C81.3828 50.7105 81.2838 52.5622 80.9024 54.3644C80.5792 55.8783 80.1687 57.369 79.6796 58.8364C78.4764 62.4773 76.6736 65.8918 74.3458 68.939C73.9906 69.4049 73.88 69.4165 73.4724 68.939C72.1273 67.5765 70.7793 66.1935 69.4168 64.8456C69.1344 64.5631 69.1722 64.3419 69.4168 64.0362C70.852 62.0242 72.015 59.8313 72.8756 57.5146C73.6471 55.3397 74.177 53.0863 74.4565 50.795C74.6253 49.0394 74.6603 47.2721 74.5671 45.5136C74.5259 44.512 74.4061 43.5152 74.209 42.5323C73.4662 38.4967 71.833 34.6774 69.4284 31.3524C69.1722 30.9856 68.852 30.6537 68.619 30.2635C68.3861 29.8705 68.3628 29.9811 68.1416 30.2024C66.8431 31.5125 65.5067 32.7878 64.2432 34.1241C63.8035 34.5899 63.2999 34.9568 62.8835 35.4342C62.4672 35.9146 61.9635 36.3659 61.4977 36.8317L60.0769 38.2554C59.8556 38.4767 59.6838 38.3894 59.5354 38.1826C58.3323 36.42 56.7855 34.9188 54.9877 33.7689C53.2505 32.6501 51.3025 31.899 49.2638 31.562C47.6732 31.3175 46.0563 31.2969 44.46 31.5009C42.4977 31.7106 40.5971 32.3105 38.87 33.2652C37.016 34.2835 35.3885 35.6683 34.0865 37.3354C32.9533 38.7708 32.0784 40.3923 31.5012 42.1276C30.8512 44.1842 30.5568 46.3365 30.6307 48.492C30.6046 52.3593 32.0407 56.0937 34.6513 58.947C36.2196 60.6814 38.143 62.0577 40.2908 62.9822C42.3288 63.879 44.5502 64.2953 46.7746 64.1934Z" fill="white"/>
<path d="M73.0354 69.745L60.6327 57.1182C60.3619 56.8358 60.1377 56.827 59.9194 57.1182C59.0431 58.396 57.9814 59.5362 56.7692 60.5012C56.4752 60.7342 56.4752 60.9176 56.7692 61.1883C57.8843 62.3034 58.9877 63.4447 60.0912 64.5598C61.5265 66.0184 62.9589 67.477 64.4059 68.9357C64.6621 69.1919 64.6505 69.3142 64.4059 69.5354C63.8294 69.9663 63.2646 70.4089 62.6649 70.7611C59.5209 72.9314 55.9526 74.4109 52.1954 75.1021C50.7353 75.4332 49.2438 75.6059 47.7467 75.6174H47.1469C46.0872 75.6902 45.0216 75.6582 43.9735 75.5184C42.7448 75.335 41.5919 75.1865 40.4273 74.9303C38.9517 74.5941 37.508 74.1304 36.1126 73.5445C33.7421 72.5574 31.5184 71.2496 29.5036 69.6577C27.5139 68.0914 25.7383 66.2708 24.2223 64.2424C22.6242 62.1176 21.3515 59.7665 20.4462 57.2666C19.4542 54.819 18.89 52.2191 18.7779 49.5805C18.757 49.3023 18.757 49.023 18.7779 48.7449V45.8538C18.711 45.542 18.711 45.2195 18.7779 44.9076C18.7779 44.6747 18.8769 44.4563 18.9148 44.2234C19.037 43.1375 19.2292 42.0602 19.4912 40.9976C19.826 39.571 20.2715 38.1735 20.8276 36.8167C23.2954 30.7732 27.7839 25.7732 33.5272 22.6701C36.9244 20.7843 40.6878 19.6522 44.5616 19.351H45.2691C49.3021 19.0951 53.3419 19.7313 57.1011 21.2144L58.1551 21.654C59.7621 22.3665 61.3009 23.2241 62.7522 24.2161C62.8043 24.2637 62.8659 24.2999 62.9329 24.3222C62.9999 24.3445 63.0708 24.3525 63.1411 24.3457C63.2114 24.3388 63.2794 24.3172 63.3408 24.2824C63.4022 24.2475 63.4556 24.2001 63.4975 24.1433C64.799 22.6584 66.1702 21.2493 67.5328 19.8285C67.789 19.5578 67.8006 19.3132 67.5328 19.0919C63.0393 15.8245 57.833 13.6729 52.3438 12.8149C50.7691 12.5646 49.1802 12.4129 47.5866 12.3607C45.1174 12.3216 42.6514 12.552 40.2323 13.0478C38.687 13.3549 37.1639 13.7644 35.673 14.2735C33.0177 15.1615 30.4848 16.3785 28.1324 17.8895C25.3083 19.6946 22.7549 21.884 20.5452 24.3995C17.5937 27.749 15.317 31.6371 13.8401 35.8501C13.2229 37.6319 12.7338 39.4545 12.3815 41.3062C12.1107 42.9278 11.9273 44.567 11.8283 46.209C11.7284 47.9732 11.8103 49.743 12.0729 51.4904C12.265 53.2285 12.5969 54.9462 13.0657 56.629C13.3976 57.7674 13.7295 58.9087 14.1575 60.0121C15.0134 62.2248 16.0878 64.3502 17.3688 66.3503C18.9623 68.811 20.8427 71.0735 22.9704 73.0903C24.3475 74.3597 25.8236 75.5155 27.3841 76.5491C29.4745 77.9786 31.7222 79.1694 34.0804 80.0923C36.427 81.0239 38.8755 81.6878 41.3706 82.0779C43.2427 82.3574 45.1322 82.5204 47.0246 82.567C48.2475 82.567 49.4761 82.3719 50.6261 82.3457C51.4995 82.2817 52.3642 82.1507 53.2144 81.9556C54.1577 81.7955 55.0893 81.548 56.021 81.3034C59.5052 80.3919 62.8173 78.9178 65.8267 76.9392C68.5547 75.1923 71.0294 73.0816 73.1839 70.6651C73.5391 70.2575 73.5274 70.1876 73.0383 69.745H73.0354Z" fill="white"/>
</g>
<defs>
<clipPath id="clip0_342_5058">
<rect width="93.1659" height="93.1659" fill="white" transform="translate(0.141602 0.712402)"/>
</clipPath>
</defs>
</svg>
