<svg width="94" height="94" viewBox="0 0 94 94" fill="none" xmlns="http://www.w3.org/2000/svg">
<g clip-path="url(#clip0_342_5064)">
<path d="M47.2392 93.8783C72.9662 93.8783 93.8221 73.0224 93.8221 47.2953C93.8221 21.5683 72.9662 0.712402 47.2392 0.712402C21.5121 0.712402 0.65625 21.5683 0.65625 47.2953C0.65625 73.0224 21.5121 93.8783 47.2392 93.8783Z" fill="#36B0F3"/>
<path fill-rule="evenodd" clip-rule="evenodd" d="M41.6782 13.1187C44.0073 12.6528 46.3801 12.4519 48.753 12.5189C50.232 12.5189 51.711 12.6528 53.1696 12.9178C56.0083 13.3079 58.745 14.2105 61.4148 15.2236C63.3567 16.0912 65.3918 16.9064 66.9698 18.3796C67.4094 18.6999 67.1736 19.3404 66.7835 19.5937C65.8809 20.1731 64.795 20.339 63.7643 20.5661C59.1177 21.3638 54.3895 21.7219 49.8244 22.9593C47.7776 23.4193 45.8095 24.1705 43.8618 24.9478C40.2428 26.5666 36.9151 28.9452 34.5073 32.1245C34.0472 32.7972 33.6046 33.4816 33.1797 34.1771C32.7983 34.9195 32.414 35.6619 32.1025 36.4392C31.8696 36.9953 31.6541 37.5572 31.4503 38.1221C31.0398 39.3245 30.8389 40.5793 30.5332 41.8138C30.4371 42.6231 30.3818 43.4383 30.213 44.239C30.1052 46.0732 30.1576 47.9074 30.1722 49.7416C30.1722 50.353 30.3381 50.9527 30.3469 51.5671C30.3556 52.1319 30.4342 52.6938 30.5856 53.2382C30.8768 54.7667 31.232 56.3156 31.8812 57.7451C32.7226 59.7744 34.0328 61.6755 35.8961 62.8838C37.442 64.0309 39.3549 64.52 41.2298 64.8112C43.7337 65.1372 46.2753 64.8403 48.7413 64.3919C50.0311 64.159 51.3121 63.8679 52.5844 63.5272C53.3909 63.3001 54.2206 63.1487 55.0184 62.878C55.3243 62.8252 55.6338 62.796 55.9442 62.7906C54.9456 63.6815 53.9411 64.5666 52.8115 65.2857C48.9626 67.7663 44.4877 69.0589 40.0245 69.8916C38.0069 70.305 35.9543 70.5496 33.9221 70.899C31.6075 71.2338 29.2085 71.5104 27.121 72.6458C26.498 73.0825 26.0147 73.6765 25.5809 74.2937C25.4499 74.5616 25.2024 74.2937 25.0568 74.1976C24.5822 73.6532 23.9738 73.2543 23.4584 72.7506C22.9087 72.2213 22.369 71.6816 21.8397 71.1319C20.9924 70.1449 20.1219 69.1725 19.3737 68.1098C17.883 66.0893 16.5642 63.9261 15.5976 61.6086L15.4287 61.5329C15.3064 60.8662 14.9687 60.2781 14.7445 59.6463C14.2159 58.262 13.7877 56.8414 13.4635 55.3956C13.3354 54.9539 13.2353 54.5047 13.1636 54.0505C13.0072 53.5397 12.9133 53.0118 12.8841 52.4783C12.5988 51.2264 12.6512 49.9337 12.4707 48.6702C12.4707 47.6162 12.4008 46.5536 12.5289 45.5025C12.6687 44.6291 12.6104 43.7353 12.7909 42.8648C12.9685 42.1573 12.9336 41.4178 13.1578 40.722C13.4375 39.165 13.8465 37.6341 14.3806 36.1452C14.5902 35.5978 14.7794 35.0447 14.9745 34.4944C15.091 34.2411 15.187 33.982 15.2657 33.7171L15.42 33.5336C15.6065 32.9869 15.8475 32.4602 16.1391 31.9615C16.429 31.3543 16.7447 30.7599 17.0853 30.1797C17.1843 29.973 17.2949 29.7721 17.4114 29.5683C19.2456 26.6947 21.3884 23.9725 23.9679 21.7249C27.1679 18.8764 30.8424 16.611 34.8247 15.0315C37.0387 14.1611 39.3362 13.5202 41.6811 13.1187H41.6782Z" fill="white"/>
<path fill-rule="evenodd" clip-rule="evenodd" d="M68.3208 22.2286C68.9613 21.8559 69.4009 21.2532 69.8435 20.6797C73.3381 23.6676 76.2088 27.3157 78.291 31.415C80.3733 35.5143 81.6261 39.9842 81.9777 44.5686C82.3293 49.1529 81.7728 53.7616 80.34 58.1305C78.9073 62.4994 76.6265 66.5426 73.6283 70.0285C68.28 76.3114 60.5997 80.5795 52.4156 81.7121C48.6512 82.2652 44.8168 82.1197 41.0552 81.6043C38.1729 81.1967 35.3546 80.4107 32.679 79.2606C31.2233 78.6201 29.7763 77.869 28.638 76.7335C28.3439 76.4773 28.1576 76.0522 28.3526 75.6825C28.6438 75.2312 29.1678 75.007 29.6628 74.8469C31.0748 74.4393 32.5276 74.2006 33.9804 73.9764C36.6066 73.5193 39.2589 73.2252 41.8646 72.6517C46.1939 71.7171 50.5232 70.3924 54.2673 67.9643C56.8119 66.3397 59.0537 64.226 60.7045 61.6931C63.0744 58.1178 64.1691 53.8351 64.4311 49.5902C64.5621 46.4313 64.4894 43.2433 63.8285 40.1397C63.2258 37.4612 62.1689 34.7623 60.1688 32.8116C58.6403 31.2424 56.5586 30.267 54.41 29.8944C50.8435 29.2277 47.2013 29.8711 43.7075 30.6572C42.0713 31.0444 40.4584 31.5306 38.8047 31.8509C41.1571 29.6353 44.0365 28.0514 47.0615 26.9684C48.7996 26.325 50.6047 25.897 52.4011 25.4748C56.3373 24.5897 60.3668 24.252 64.338 23.5707C65.7238 23.2796 67.1329 23.0001 68.3208 22.2286Z" fill="white"/>
</g>
<defs>
<clipPath id="clip0_342_5064">
<rect width="93.1659" height="93.1659" fill="white" transform="translate(0.655273 0.712402)"/>
</clipPath>
</defs>
</svg>
