<svg width="94" height="94" viewBox="0 0 94 94" fill="none" xmlns="http://www.w3.org/2000/svg">
<g clip-path="url(#clip0_342_5070)">
<path d="M46.7519 93.8783C72.4789 93.8783 93.3348 73.0224 93.3348 47.2953C93.3348 21.5683 72.4789 0.712402 46.7519 0.712402C21.0248 0.712402 0.168945 21.5683 0.168945 47.2953C0.168945 73.0224 21.0248 93.8783 46.7519 93.8783Z" fill="#F70808"/>
<path d="M46.7514 18.1812L41.9184 26.962C41.371 27.917 40.3899 27.8296 39.4058 27.2968L35.9121 25.5296L38.5149 39.0183C39.0652 41.4843 37.3067 41.4843 36.4391 40.4158L30.3309 33.7573L29.341 37.1404C29.2245 37.5859 28.7238 38.0517 27.9697 37.941L20.2544 36.3572L22.2779 43.5427C22.7146 45.141 23.0523 45.8019 21.8411 46.2212L19.0898 47.4847L32.3747 58.0008C32.6388 58.2014 32.8373 58.4759 32.9451 58.7895C33.0529 59.1031 33.0652 59.4417 32.9803 59.7622L31.8157 63.4831C36.3925 62.9677 40.4918 62.1962 45.0686 61.7187C45.4733 61.678 46.1487 62.3272 46.1458 62.7843L45.5431 76.4098H47.7675L47.4181 62.8134C47.4152 62.3563 48.0295 61.678 48.4313 61.7187C53.008 62.1962 57.1073 62.9706 61.6812 63.4831L60.5195 59.7622C60.4343 59.4417 60.4463 59.103 60.5542 58.7893C60.662 58.4757 60.8608 58.2012 61.1251 58.0008L74.41 47.4847L71.6587 46.2241C70.4475 45.8019 70.7853 45.141 71.222 43.5427L73.2483 36.3572L65.5301 37.941C64.7761 38.0517 64.2724 37.5859 64.1617 37.1404L63.1689 33.7573L57.0637 40.4187C56.1961 41.4843 54.4376 41.4843 54.9878 39.0212L57.5936 25.5296L54.0969 27.2968C53.1129 27.8296 52.1317 27.917 51.5844 26.962L46.7514 18.1812Z" fill="white"/>
</g>
<defs>
<clipPath id="clip0_342_5070">
<rect width="93.1659" height="93.1659" fill="white" transform="translate(0.169922 0.712402)"/>
</clipPath>
</defs>
</svg>
