<svg width="94" height="94" viewBox="0 0 94 94" fill="none" xmlns="http://www.w3.org/2000/svg">
<g clip-path="url(#clip0_342_5074)">
<path d="M47.2665 93.8783C72.9936 93.8783 93.8495 73.0224 93.8495 47.2953C93.8495 21.5683 72.9936 0.712402 47.2665 0.712402C21.5395 0.712402 0.683594 21.5683 0.683594 47.2953C0.683594 73.0224 21.5395 93.8783 47.2665 93.8783Z" fill="#272731"/>
<path d="M79.292 47.3826C79.292 55.8549 75.9584 63.9778 70.0162 69.9695C67.0852 72.9307 63.5966 75.2818 59.7517 76.8869C55.9069 78.492 51.7821 79.3193 47.6156 79.3211V71.1632C59.11 71.1982 68.9419 62.8453 70.8605 51.4179H59.535C59.9834 50.0903 60.2134 48.6986 60.2163 47.2953C60.198 45.8946 59.9683 44.5048 59.535 43.1727H70.8605C68.9157 31.7599 59.0983 23.4215 47.6156 23.4274V15.2695C65.1075 15.4384 79.2192 29.7452 79.292 47.3826ZM58.1725 54.2507H67.1164C63.809 63.873 54.0965 69.6813 44.1365 67.9927C34.1794 66.2982 26.8862 57.6047 26.8862 47.4205C26.8862 37.2363 34.1794 28.5457 44.1365 26.8541C54.0965 25.1655 63.809 30.9738 67.1164 40.5961H58.1725C57.1656 39.0658 55.8629 37.7522 54.341 36.7326C52.9496 35.8375 51.3945 35.2272 49.7657 34.9369C48.1369 34.6467 46.4667 34.6822 44.8517 35.0415C43.2367 35.4007 41.709 36.0766 40.3569 37.0301C39.0048 37.9835 37.8551 39.1955 36.9743 40.5961C33.2361 46.4976 34.9509 54.3381 40.8058 58.1084C42.1971 59.0036 43.752 59.6141 45.3807 59.9046C47.0094 60.1951 48.6795 60.1598 50.2945 59.8008C51.9094 59.4418 53.4372 58.7662 54.7894 57.813C56.1417 56.8599 57.2915 55.6481 58.1725 54.2478V54.2507Z" fill="white"/>
</g>
<defs>
<clipPath id="clip0_342_5074">
<rect width="93.1659" height="93.1659" fill="white" transform="translate(0.683594 0.712402)"/>
</clipPath>
</defs>
</svg>
