<svg width="94" height="94" viewBox="0 0 94 94" fill="none" xmlns="http://www.w3.org/2000/svg">
<g clip-path="url(#clip0_342_5078)">
<path d="M46.7812 93.8783C72.5082 93.8783 93.3641 73.0224 93.3641 47.2953C93.3641 21.5683 72.5082 0.712402 46.7812 0.712402C21.0541 0.712402 0.198242 21.5683 0.198242 47.2953C0.198242 73.0224 21.0541 93.8783 46.7812 93.8783Z" fill="#3089F2"/>
<path d="M63.1633 52.7634C61.9347 53.8202 60.8342 54.7606 59.7453 55.7127C59.623 55.8204 59.5007 56.0126 59.5007 56.1669C59.4832 58.0244 59.4891 59.8789 59.4891 61.8005C62.287 60.6184 63.7485 57.0257 63.1633 52.7634ZM59.7919 41.4175C62.91 39.56 63.2798 38.9166 63.2914 35.2307C63.2914 34.9396 63.3001 34.6514 63.2885 34.3631C63.1546 30.9771 60.8371 27.9871 57.6287 27.2709C54.7463 26.6304 51.8407 26.0976 48.9293 25.6055C47.4474 25.3522 45.9305 25.1368 44.437 25.1863C42.629 25.2445 41.1529 26.1937 39.7932 27.7425C43.089 28.3568 46.1489 28.9886 49.2292 29.4894C53.4595 30.1765 56.6883 32.2989 58.4526 36.3429C59.1368 37.9122 59.3551 39.6911 59.7919 41.4175ZM34.1043 32.6599C31.6005 34.2146 30.366 36.3225 30.3282 38.9428C30.2428 46.0173 30.236 53.0925 30.3078 60.1672C30.3369 63.5939 32.5991 66.5316 35.8657 67.3293C38.6607 68.0106 41.5197 68.4298 44.3496 68.9772C46.1431 69.3265 47.919 69.8564 49.7707 69.3964C51.2847 69.0179 52.6356 68.3803 53.7011 66.8838C50.3064 66.2462 47.1184 65.5446 43.8983 65.0671C38.387 64.249 34.113 59.3665 34.1072 53.6834C34.0985 47.1851 34.1043 40.6897 34.1043 34.1914V32.6599ZM37.9998 31.638C37.9648 32.3572 37.9124 32.8929 37.9124 33.4286C37.9037 39.9676 37.9037 46.5067 37.9124 53.0458C37.9212 57.3431 40.5182 60.4292 44.6437 61.1512C47.625 61.6753 50.5946 62.2576 53.5701 62.8108C53.7768 62.8486 53.9865 62.869 54.1961 62.8923C55.6081 63.0495 55.6576 63.0233 55.6664 61.6083C55.6809 59.4393 55.6081 57.2703 55.71 55.1071C55.7391 54.4666 56.0623 53.6601 56.5252 53.2496C58.8864 51.1446 61.3378 49.1445 63.7572 47.1065C64.4152 46.5533 65.0907 46.1748 65.9757 46.6028C66.9103 47.0541 67.1549 47.8343 67.1403 48.8155C67.1054 51.2727 67.1578 53.7329 67.0821 56.1843C66.9394 60.6155 63.7252 64.9769 59.5997 66.3743C59.2502 66.4817 58.9258 66.6581 58.6457 66.8932C58.3656 67.1282 58.1356 67.4171 57.9693 67.7427C55.4276 72.2554 51.0721 73.9965 46.4051 73.3792C42.5795 72.8697 38.783 72.0633 35.0039 71.2539C30.136 70.2116 26.5404 65.6814 26.4618 60.2603C26.357 52.9643 26.3919 45.6653 26.5171 38.3722C26.5928 33.8129 29.9817 29.5796 34.279 28.1822C34.7572 28.0052 35.1614 27.6718 35.4261 27.2359C38.3084 22.2341 42.99 20.2048 48.5537 21.4509C51.6398 22.1409 54.7813 22.5951 57.8849 23.2269C63.3933 24.3507 67.0734 28.8984 67.1461 34.6223C67.1665 36.2497 67.1782 37.8772 67.0879 39.4989C67.0617 40.0142 66.8346 40.6722 66.4678 40.9954C63.8271 43.3245 61.1544 45.6187 58.4148 47.8256C57.9926 48.1662 57.0464 48.2449 56.5747 47.9916C56.1118 47.7412 55.7217 46.9289 55.6897 46.3408C55.5761 44.3988 55.7916 42.4278 55.6023 40.4975C55.2238 36.6282 52.589 34.072 48.6178 33.4111C45.4618 32.887 42.3116 32.3193 39.1585 31.7778C38.8208 31.7196 38.4773 31.6933 37.9998 31.638Z" fill="white"/>
</g>
<defs>
<clipPath id="clip0_342_5078">
<rect width="93.1659" height="93.1659" fill="white" transform="translate(0.197266 0.712402)"/>
</clipPath>
</defs>
</svg>
