<svg width="94" height="94" viewBox="0 0 94 94" fill="none" xmlns="http://www.w3.org/2000/svg">
<g clip-path="url(#clip0_342_5082)">
<path d="M47.2944 93.8783C73.0214 93.8783 93.8773 73.0224 93.8773 47.2953C93.8773 21.5683 73.0214 0.712402 47.2944 0.712402C21.5673 0.712402 0.711426 21.5683 0.711426 47.2953C0.711426 73.0224 21.5673 93.8783 47.2944 93.8783Z" fill="#00ACED"/>
<path fill-rule="evenodd" clip-rule="evenodd" d="M18.1807 28.9941V40.8611L46.9893 57.5L65.6807 46.684V56.3354L75.7426 62.2689V28.9941L46.9631 45.633L18.1807 28.9941Z" fill="white"/>
<path opacity="0.7" fill-rule="evenodd" clip-rule="evenodd" d="M46.9631 12.3584L18.1807 28.9943V62.2691L46.9631 78.905L75.6611 62.2691L65.4856 56.3356L46.9631 67.038L28.359 56.3356V34.9278L46.9631 24.2254L65.4856 34.9278L75.6611 28.9943L46.9631 12.3584Z" fill="white"/>
</g>
<defs>
<clipPath id="clip0_342_5082">
<rect width="93.1659" height="93.1659" fill="white" transform="translate(0.711426 0.712402)"/>
</clipPath>
</defs>
</svg>
