<svg width="94" height="94" viewBox="0 0 94 94" fill="none" xmlns="http://www.w3.org/2000/svg">
<g clip-path="url(#clip0_342_5088)">
<path d="M46.8085 93.8783C72.5356 93.8783 93.3915 73.0224 93.3915 47.2953C93.3915 21.5683 72.5356 0.712402 46.8085 0.712402C21.0815 0.712402 0.225586 21.5683 0.225586 47.2953C0.225586 73.0224 21.0815 93.8783 46.8085 93.8783Z" fill="#1C98F7"/>
<path fill-rule="evenodd" clip-rule="evenodd" d="M47.6239 68.6216C49.6725 68.4792 51.7036 68.1479 53.6913 67.6317C56.1442 68.3802 58.7374 68.5497 61.2668 68.1266C61.367 68.1105 61.4682 68.1027 61.5696 68.1034C62.4722 68.1034 63.6571 68.6274 65.3836 69.7338V67.9141C65.384 67.5993 65.468 67.2902 65.6271 67.0186C65.7862 66.7469 66.0147 66.5225 66.2891 66.3681C67.0402 65.9431 67.739 65.454 68.3766 64.9153C70.8921 62.7842 72.3128 59.9426 72.3128 56.9322C72.3128 55.9219 72.1527 54.9408 71.8499 54.0033C72.6098 52.5854 73.2241 51.0948 73.6754 49.5488C75.1344 51.7353 75.9163 54.3036 75.923 56.9322C75.923 61.0227 74.0189 64.8367 70.7261 67.6259C70.1765 68.0911 69.5979 68.5209 68.9938 68.9127V73.1663C68.9938 74.6308 67.3052 75.4722 66.1144 74.6017C64.9884 73.7599 63.8224 72.9729 62.6207 72.2434C62.2765 72.0374 61.9185 71.8555 61.5493 71.699C60.5594 71.8475 59.5462 71.9232 58.5243 71.9232C54.4133 71.9232 50.6168 70.6916 47.6268 68.6216H47.6239ZM25.8871 60.1144C20.6931 55.7094 17.6943 49.7089 17.6943 43.2776C17.6943 30.1383 30.0912 19.6367 45.2278 19.6367C60.3672 19.6367 72.7641 30.1383 72.7641 43.2776C72.7641 56.4198 60.3643 66.9213 45.2278 66.9213C43.5275 66.9213 41.8447 66.7903 40.1968 66.5283C39.4835 66.6971 36.6332 68.3916 32.5252 71.3904C31.0374 72.4792 28.9266 71.4282 28.9266 69.5969V62.3416C27.8628 61.6709 26.8472 60.9267 25.8871 60.1144ZM40.2958 62.0534C40.421 62.0534 40.5491 62.0621 40.6743 62.0825C42.1591 62.3329 43.6847 62.461 45.2278 62.461C58.0148 62.461 68.2485 53.7907 68.2485 43.2776C68.2485 32.7673 58.0148 24.097 45.2278 24.097C32.4466 24.097 22.2071 32.7673 22.2071 43.2776C22.2071 48.3609 24.5973 53.1473 28.8247 56.7284C29.8874 57.6251 31.0549 58.4403 32.3068 59.1507C33.0085 59.5467 33.4423 60.2862 33.4423 61.0839V65.2676C36.6914 63.087 38.8284 62.0534 40.2958 62.0534ZM33.4918 47.7408C31.4974 47.7408 29.8816 46.1395 29.8816 44.1714C29.8816 42.2003 31.4974 40.602 33.4918 40.602C35.4861 40.602 37.102 42.2003 37.102 44.1714C37.102 46.1424 35.4861 47.7408 33.4918 47.7408ZM45.2278 47.7408C43.2334 47.7408 41.6176 46.1395 41.6176 44.1714C41.6176 42.2003 43.2334 40.602 45.2278 40.602C47.2221 40.602 48.8379 42.2003 48.8379 44.1714C48.8379 46.1424 47.2221 47.7408 45.2278 47.7408ZM56.9638 47.7408C54.9694 47.7408 53.3536 46.1395 53.3536 44.1714C53.3536 42.2003 54.9694 40.602 56.9638 40.602C58.9581 40.602 60.5739 42.2003 60.5739 44.1714C60.5739 46.1424 58.9581 47.7408 56.9638 47.7408Z" fill="white"/>
</g>
<defs>
<clipPath id="clip0_342_5088">
<rect width="93.1659" height="93.1659" fill="white" transform="translate(0.225586 0.712402)"/>
</clipPath>
</defs>
</svg>
