<svg width="94" height="94" viewBox="0 0 94 94" fill="none" xmlns="http://www.w3.org/2000/svg">
<g clip-path="url(#clip0_342_5092)">
<path d="M47.3229 93.8783C73.05 93.8783 93.9059 73.0224 93.9059 47.2953C93.9059 21.5683 73.05 0.712402 47.3229 0.712402C21.5959 0.712402 0.73999 21.5683 0.73999 47.2953C0.73999 73.0224 21.5959 93.8783 47.3229 93.8783Z" fill="#598182"/>
<path fill-rule="evenodd" clip-rule="evenodd" d="M40.1843 74.6867C42.6454 71.5064 45.1066 68.3262 47.5677 65.1459C50.3306 65.5768 53.0528 65.3322 55.6556 64.2026C56.596 63.795 57.4374 63.1603 58.3225 62.6246C58.4477 62.5489 58.5642 62.4499 58.6602 62.3771L67.6042 71.2221C66.8617 71.717 66.1251 72.2527 65.342 72.7127C62.3119 74.4693 58.9718 75.6258 55.5042 76.1191C53.4581 76.4059 51.3881 76.4839 49.3262 76.352C46.218 76.2092 43.1431 75.6491 40.1843 74.6867ZM37.3718 73.592C36.378 73.1478 35.4099 72.6482 34.472 72.0955C29.6792 69.3181 25.8958 65.0859 23.6706 60.013C22.4961 57.3672 21.7238 54.5606 21.3793 51.6863C21.109 49.4571 21.0486 47.2073 21.1988 44.9668C21.5569 39.2167 23.3067 33.9324 26.8324 29.2829C30.0874 24.9914 34.3614 22.0538 39.4186 20.1701C41.8178 19.2595 44.3304 18.6816 46.8864 18.4523C48.8167 18.2864 50.7673 18.1204 52.6976 18.2049C53.8913 18.2544 55.0646 18.3708 56.2205 18.5542C53.7244 22.178 51.2283 25.8018 48.7322 29.4255C46.2349 29.6348 43.8264 30.4503 41.7157 31.8013C37.8435 34.2585 35.526 37.7988 34.4371 42.166C33.9751 44.006 33.7636 45.9 33.8082 47.7967C33.8344 48.7924 33.9189 49.7677 34.0674 50.7197L33.1706 52.0212C32.4486 53.0693 33.3366 54.4551 34.6205 54.2863L34.9466 54.2455C35.6978 56.3679 36.8361 58.3506 38.4112 60.1703C39.3895 61.2941 40.4812 62.2374 41.6837 62.9944L37.4766 73.1582C37.4189 73.2973 37.3835 73.4447 37.3718 73.5949V73.592ZM59.0416 19.154C61.6336 19.8446 64.0904 20.9677 66.3086 22.4759C66.7104 22.7496 67.0772 23.0728 67.4615 23.3727C67.5343 23.428 67.61 23.4775 67.7031 23.5415C67.5809 23.6813 67.511 23.7744 67.4266 23.856C64.7743 26.4704 62.1161 29.0762 59.4725 31.6994C59.1814 31.9905 58.998 32.0371 58.6457 31.7867C57.5785 31.0282 56.3985 30.4426 55.149 30.0515L58.8844 20.2254L58.9834 19.9721C59.0828 19.7111 59.1031 19.4265 59.0416 19.154ZM48.2577 51.0284L34.4196 52.8364L57.4433 19.4044L57.5714 19.4626L48.6769 42.8443L64.9082 40.2823L38.9993 73.7929L38.8741 73.7055L48.2577 51.0284Z" fill="white"/>
</g>
<defs>
<clipPath id="clip0_342_5092">
<rect width="93.1659" height="93.1659" fill="white" transform="translate(0.739502 0.712402)"/>
</clipPath>
</defs>
</svg>
