<svg width="94" height="94" viewBox="0 0 94 94" fill="none" xmlns="http://www.w3.org/2000/svg">
<g clip-path="url(#clip0_342_5096)">
<path d="M46.8354 93.8783C72.5624 93.8783 93.4183 73.0224 93.4183 47.2953C93.4183 21.5683 72.5624 0.712402 46.8354 0.712402C21.1083 0.712402 0.252441 21.5683 0.252441 47.2953C0.252441 73.0224 21.1083 93.8783 46.8354 93.8783Z" fill="#0576B4"/>
<path d="M72.0712 55.6308L68.988 53.7006L75.7134 53.622L75.8532 53.5463V53.619L78.6307 53.5899L73.9171 61.2586L73.4949 57.5611L52.0551 69.3903L43.9235 58.5335L21.127 70.5461V67.8094L44.631 55.427L52.7597 66.2838L72.0741 55.6308H72.0712ZM42.6308 52.996L33.7218 57.6863V25.8789H42.6308V52.996ZM67.8234 54.3964L58.9144 59.3458V25.8789H67.8234V54.3964Z" fill="white"/>
<path opacity="0.5" d="M55.229 61.3958L53.3162 62.4556L46.3172 53.1099V29.5186H55.2261V61.3958H55.229ZM30.0335 59.6286L21.1245 64.3218V33.647H30.0335V59.6286Z" fill="white"/>
</g>
<defs>
<clipPath id="clip0_342_5096">
<rect width="93.1659" height="93.1659" fill="white" transform="translate(0.253418 0.712402)"/>
</clipPath>
</defs>
</svg>
