<svg width="94" height="94" viewBox="0 0 94 94" fill="none" xmlns="http://www.w3.org/2000/svg">
<g clip-path="url(#clip0_342_5102)">
<path d="M47.3505 93.8783C73.0776 93.8783 93.9334 73.0224 93.9334 47.2953C93.9334 21.5683 73.0776 0.712402 47.3505 0.712402C21.6235 0.712402 0.767578 21.5683 0.767578 47.2953C0.767578 73.0224 21.6235 93.8783 47.3505 93.8783Z" fill="#20C5D3"/>
<path d="M52.6199 23.6252V23.3661C53.1353 23.1478 54.1572 22.941 55.9157 23.4127C57.9275 23.9542 59.4822 25.9748 60.1955 27.0636L60.1897 27.7624C60.1547 31.6608 58.9145 41.2918 56.7658 48.5122C54.888 54.8212 50.7916 63.2149 49.9589 64.8919C49.5498 64.8019 49.1356 64.7367 48.7186 64.6968C49.0651 62.5686 50.5761 53.0889 51.5282 44.4507C52.5384 35.2855 52.617 26.196 52.617 23.6281L52.6199 23.6252ZM61.0602 27.7711V27.7391C61.8172 27.7216 63.4942 27.8585 65.407 29.09C67.2586 30.2808 68.2136 32.5459 68.6095 33.7628L68.4261 34.482C67.9749 36.2347 64.6325 45.2688 61.0369 52.0787C57.9857 57.8491 53.1149 64.2339 52.0522 65.6023C51.6516 65.4116 51.2381 65.2491 50.8149 65.1161C51.8047 63.1159 55.7556 54.9523 57.5985 48.7538C59.7704 41.4578 61.0223 31.7161 61.0602 27.7711ZM61.8084 52.4717C65.2323 45.988 68.6911 36.8897 69.2617 34.7207C70.0158 34.9944 71.6345 35.7193 72.6885 37.1576C73.591 38.3862 73.8851 40.0486 73.9811 41.0938L73.6289 41.9149C72.9476 43.4958 68.7959 50.7802 64.6121 55.9713C60.9903 60.4665 55.5489 65.8003 54.2445 67.0638C53.8056 66.6698 53.3298 66.3188 52.8237 66.0157C54.0495 64.4319 58.8009 58.1636 61.8084 52.4717ZM32.8076 28.4466L32.7057 27.6488C33.1803 26.6153 34.2284 24.8917 36.2344 23.9746C38.418 22.9789 40.1153 23.2497 40.8752 23.4709L40.8811 23.6427C40.9393 25.375 41.3964 33.9026 42.5115 43.9674C43.5363 53.1763 45.1871 62.9703 45.5044 64.8308C45.0677 64.9094 44.6397 65.0171 44.2205 65.151C43.4111 63.4333 39.8067 55.6306 37.3844 47.8134C34.6826 39.0937 33.1337 30.9999 32.8076 28.4466ZM41.7487 23.6136L41.737 23.2147C42.5347 22.4985 44.3922 21.0923 46.7156 21.0923C49.0331 21.0923 50.9313 22.4985 51.7494 23.2176V23.6252C51.7494 26.1844 51.6708 35.236 50.6635 44.3546C49.6998 53.1006 48.1596 62.7171 47.8452 64.6502L47.6181 64.6444C47.1989 64.6444 46.7825 64.6677 46.3662 64.7085C46.0576 62.9179 44.401 53.1006 43.3761 43.8743C42.264 33.8356 41.8098 25.3372 41.7487 23.6107V23.6136ZM47.6181 65.5004C52.3259 65.5004 54.4949 68.3565 55.15 69.4454C51.5835 71.9492 48.6808 73.4981 47.656 73.4981C46.6311 73.4981 44.0836 72.2171 40.0775 69.3202C40.718 68.2866 42.8783 65.5004 47.6181 65.5004ZM74.4062 42.3021C75.1224 42.7679 76.5927 44.0227 76.4559 46.4363C76.2753 49.6156 70.8222 55.9159 63.9745 62.2891C61.4069 64.674 58.6941 66.8978 55.8516 68.9475C55.5598 68.4925 55.2275 68.0647 54.8588 67.6694C56.1865 66.3855 61.6483 61.0313 65.2934 56.5041C69.4859 51.3042 73.658 43.9994 74.4062 42.3021ZM20.6233 41.6849C20.4113 41.1583 20.2103 40.6273 20.0206 40.0923C20.0169 39.1492 20.247 38.22 20.6903 37.3876C21.686 35.5825 24.2131 34.7556 25.2146 34.4907L25.2205 34.5082L25.3282 34.8867C26.056 37.4225 27.7563 43.3648 32.2341 51.9535C36.2315 59.6193 40.5753 64.9181 41.7923 66.336C41.4662 66.559 41.1549 66.8031 40.8607 67.0667C36.7524 63.5095 32.9458 59.6182 29.4799 55.4326C25.1651 50.2154 22.1867 45.592 20.6233 41.6849ZM40.2464 67.6781C39.9261 68.0275 39.635 68.406 39.3729 68.8078C36.8487 66.9252 34.3918 64.9539 32.007 62.8976C23.2378 55.4006 18.4397 50.1862 18.2476 46.8934C18.102 44.3808 19.3772 42.963 19.9944 42.4302C21.6307 46.3228 24.5887 50.8733 28.8044 55.9742C32.2909 60.1818 36.1178 64.0954 40.2464 67.6752V67.6781ZM26.0589 34.2723C25.9642 33.9488 25.8749 33.6236 25.7911 33.297C26.0153 32.2314 26.5684 30.636 27.9223 29.6519C29.0846 28.8084 30.4997 28.3864 31.9342 28.4553L31.9488 28.5543C32.2778 31.1309 33.8354 39.2917 36.5547 48.0609C38.9653 55.8373 42.5318 63.5992 43.4053 65.4567C43.109 65.5813 42.8194 65.7212 42.5377 65.876C41.475 64.6473 37.0671 59.3456 33.0114 51.5633C28.5715 43.0503 26.8887 37.1663 26.1696 34.6537L26.0589 34.2723Z" fill="white"/>
</g>
<defs>
<clipPath id="clip0_342_5102">
<rect width="93.1659" height="93.1659" fill="white" transform="translate(0.767578 0.712402)"/>
</clipPath>
</defs>
</svg>
