<svg width="94" height="94" viewBox="0 0 94 94" fill="none" xmlns="http://www.w3.org/2000/svg">
<g clip-path="url(#clip0_342_5106)">
<path d="M46.8649 93.8783C72.592 93.8783 93.4479 73.0224 93.4479 47.2953C93.4479 21.5683 72.592 0.712402 46.8649 0.712402C21.1379 0.712402 0.281982 21.5683 0.281982 47.2953C0.281982 73.0224 21.1379 93.8783 46.8649 93.8783Z" fill="#FF3A00"/>
<path d="M46.8736 15.2695C64.5373 15.2986 78.8965 29.6695 78.8907 47.304C78.8848 64.959 64.514 79.3211 46.8532 79.3211H46.8241C29.1808 79.3036 14.8304 64.9182 14.8391 47.2545C14.8478 29.6229 29.2216 15.2695 46.8736 15.2695ZM46.8649 19.3979C31.5012 19.3979 18.9966 31.9113 18.9908 47.2895C18.9879 62.6502 31.475 75.1577 46.8299 75.1694C62.211 75.1694 74.736 62.6618 74.7477 47.2895C74.7586 43.6271 74.0424 39.999 72.6405 36.6155C71.2386 33.232 69.179 30.1605 66.5811 27.5791C64.0001 24.9796 60.929 22.918 57.5456 21.5136C54.1623 20.1093 50.5339 19.3902 46.8707 19.3979H46.8649ZM60.6301 44.4334C61.6171 49.4381 60.3477 53.6422 56.7521 57.2932L56.2572 57.791L55.6283 57.4824C55.2802 57.3121 54.9267 57.1529 54.5685 57.0049L53.1448 56.411L54.292 55.3804C56.5308 53.3715 57.7216 50.7483 57.8352 47.5864C57.9516 44.4246 56.8307 41.6675 54.5074 39.3937C52.471 37.3957 49.7293 36.2807 46.8765 36.2901C45.3173 36.2889 43.7758 36.6204 42.3549 37.2626C40.934 37.9047 39.6666 38.8427 38.6372 40.0138C36.3138 42.6632 35.4259 45.8891 36.0751 49.3391C36.4765 51.6216 37.6159 53.7091 39.3184 55.2814L40.4452 56.3266L39.0215 56.9001C38.6663 57.0428 38.2936 57.1971 37.8948 57.3659L37.2834 57.6222L36.8175 57.1476C34.4214 54.6787 33.1229 51.8371 32.8522 48.4599C32.2786 41.3414 36.8932 35.0702 43.8283 33.5504C44.8513 33.324 45.8957 33.2089 46.9435 33.2069C50.17 33.21 53.2959 34.3299 55.7903 36.3764C58.2847 38.4228 59.9938 41.2697 60.6272 44.4334H60.6301ZM29.3177 62.7463C25.0204 57.9541 21.5354 49.4527 24.6506 39.9672C26.1901 35.294 29.1643 31.2254 33.1501 28.3404C37.1359 25.4555 41.9301 23.9013 46.8503 23.899C51.7289 23.8933 56.487 25.4144 60.4576 28.2489C64.4282 31.0834 67.4124 35.0894 68.9918 39.7052C71.746 47.7757 69.8303 56.9525 64.1151 63.084L63.3873 63.8614L60.7757 60.9441L61.3522 60.2948C64.9274 56.2683 66.5869 51.4936 66.2871 46.1074C66.0076 41.1871 64.0511 36.9015 60.47 33.3728C56.854 29.7962 51.9683 27.7978 46.8824 27.8149C42.2107 27.8169 37.6949 29.4957 34.1565 32.546C31.4148 34.8853 29.3877 37.9497 28.3074 41.388C27.2098 44.8057 27.0888 48.4621 27.958 51.9449C28.6811 54.9273 30.1088 57.6928 32.1214 60.0095L32.692 60.6704L30.0252 63.5411L29.3177 62.7463Z" fill="white"/>
</g>
<defs>
<clipPath id="clip0_342_5106">
<rect width="93.1659" height="93.1659" fill="white" transform="translate(0.281494 0.712402)"/>
</clipPath>
</defs>
</svg>
