<svg width="94" height="94" viewBox="0 0 94 94" fill="none" xmlns="http://www.w3.org/2000/svg">
<g clip-path="url(#clip0_342_5110)">
<path d="M47.0414 93.3924C72.7685 93.3924 93.6244 72.5365 93.6244 46.8095C93.6244 21.0825 72.7685 0.226562 47.0414 0.226562C21.3144 0.226562 0.458496 21.0825 0.458496 46.8095C0.458496 72.5365 21.3144 93.3924 47.0414 93.3924Z" fill="#2FD2E5"/>
<path d="M48.7013 11.8928C40.8345 11.6195 33.1128 14.0587 26.8306 18.8016C26.2215 19.2594 25.7218 19.8469 25.3678 20.5216C25.0137 21.1963 24.8142 21.9413 24.7835 22.7027C24.7528 23.464 24.8919 24.2226 25.1905 24.9236C25.4892 25.6246 25.94 26.2504 26.5103 26.7556C28.3212 28.4676 31.1104 28.6015 33.0785 27.073C37.8978 23.3224 43.9475 21.514 50.0345 22.0045C56.1215 22.4949 61.8037 25.2486 65.9602 29.7224C67.678 31.4984 67.7304 34.2963 66.0825 36.1363C65.6684 36.5805 65.1707 36.9388 64.618 37.1906C64.0654 37.4424 63.4685 37.5829 62.8615 37.604C62.2545 37.6251 61.6493 37.5264 61.0805 37.3135C60.5117 37.1006 59.9904 36.7778 59.5464 36.3634L59.3222 36.1363C57.2495 33.8635 54.538 32.2706 51.5436 31.5667C48.5492 30.8629 45.412 31.081 42.5438 32.1924C39.6757 33.3038 37.2106 35.2566 35.4724 37.7944C33.7341 40.3321 32.804 43.3362 32.804 46.4122C32.804 49.4882 33.7341 52.4923 35.4724 55.03C37.2106 57.5678 39.6757 59.5206 42.5438 60.632C45.412 61.7434 48.5492 61.9615 51.5436 61.2577C54.538 60.5538 57.2495 58.9609 59.3222 56.6881C59.9861 55.9451 60.8765 55.4417 61.8555 55.2559C62.8345 55.0701 63.8474 55.2122 64.7374 55.6604C65.3706 55.9779 65.9218 56.4376 66.3479 57.0035C66.774 57.5693 67.0634 58.2261 67.1937 58.9223C67.3239 59.6186 67.2914 60.3356 67.0986 61.0172C66.9059 61.6988 66.5581 62.3266 66.0825 62.8516C61.9431 67.383 56.2535 70.1954 50.1395 70.7324C44.0256 71.2694 37.9329 69.4918 33.0669 65.7514C32.104 65.0178 30.9131 64.6477 29.704 64.7063C28.4949 64.7649 27.3454 65.2484 26.4579 66.0716C25.8914 66.5908 25.4469 67.229 25.1566 67.9404C24.8662 68.6519 24.7371 69.4188 24.7786 70.1861C24.8201 70.9534 25.0311 71.702 25.3965 72.378C25.7619 73.0539 26.2725 73.6405 26.8917 74.0956C31.2346 77.3163 36.2736 79.4714 41.6023 80.3871C46.931 81.3028 52.4003 80.9535 57.5693 79.3673C62.7382 77.7812 67.4621 75.0025 71.3599 71.2555C75.2578 67.5085 78.2206 62.8979 80.0094 57.7956C81.7983 52.6932 82.3631 47.2419 81.6583 41.8812C80.9535 36.5205 78.9988 31.4005 75.9519 26.9339C72.905 22.4674 68.8511 18.7793 64.1171 16.1672C59.3832 13.555 54.1016 12.0919 48.6984 11.8957L48.7013 11.8928ZM48.0608 54.9471C46.9394 54.9428 45.8298 54.7178 44.7954 54.2848C43.761 53.8518 42.822 53.2192 42.032 52.4233C41.242 51.6274 40.6166 50.6837 40.1913 49.6461C39.7661 48.6084 39.5493 47.4972 39.5535 46.3758C39.5578 45.2544 39.7828 44.1448 40.2158 43.1104C40.6488 42.076 41.2814 41.137 42.0773 40.347C42.8732 39.5571 43.8169 38.9316 44.8546 38.5063C45.8922 38.0811 47.0034 37.8644 48.1248 37.8686C50.3896 37.8767 52.5583 38.7841 54.154 40.3913C55.7497 41.9984 56.6416 44.1736 56.6335 46.4384C56.6254 48.7031 55.7179 50.8719 54.1108 52.4676C52.5036 54.0633 50.3284 54.9552 48.0637 54.9471H48.0608Z" fill="white"/>
</g>
<defs>
<clipPath id="clip0_342_5110">
<rect width="93.1659" height="93.1659" fill="white" transform="translate(0.459473 0.226562)"/>
</clipPath>
</defs>
</svg>
