<svg width="95" height="94" viewBox="0 0 95 94" fill="none" xmlns="http://www.w3.org/2000/svg">
<g clip-path="url(#clip0_342_5114)">
<path d="M47.5566 93.3924C73.2836 93.3924 94.1395 72.5365 94.1395 46.8095C94.1395 21.0825 73.2836 0.226562 47.5566 0.226562C21.8295 0.226562 0.973633 21.0825 0.973633 46.8095C0.973633 72.5365 21.8295 93.3924 47.5566 93.3924Z" fill="#C1A05C"/>
<path fill-rule="evenodd" clip-rule="evenodd" d="M48.3603 75.924C41.6087 75.9065 35.5646 73.8336 30.1668 69.8682C28.7315 68.8143 28.6878 68.2087 29.9106 66.8956L30.0212 66.7792C31.5148 65.1604 31.5061 65.1691 33.2791 66.4443C37.365 69.4296 42.2625 71.1011 47.321 71.2366C52.6955 71.4229 57.6333 70.139 62.0965 67.2596C67.4506 63.8066 71.1015 58.9969 72.63 52.8567C74.5487 45.1472 73.1221 38.0084 68.0678 31.7342C64.5275 27.338 59.9275 24.5052 54.3695 23.163C49.4085 21.9635 44.5347 22.2575 39.7454 23.9054C37.2096 24.7788 34.8658 26.0657 32.7492 27.7194C31.704 28.5346 31.3081 28.5171 30.4201 27.5214C29.9929 27.0574 29.5924 26.5694 29.2206 26.0599C28.6732 25.2854 28.7489 24.8254 29.4884 24.2373C33.0022 21.4502 37.0961 19.4863 41.469 18.4901C45.4265 17.5521 49.5352 17.4431 53.5369 18.1699C58.9754 19.1539 63.8142 21.3899 67.9688 25.0117C71.0433 27.6961 73.5297 30.8346 75.2591 34.503C77.6406 39.5573 78.6101 44.8503 77.8968 50.4344C77.2605 55.5297 75.2586 60.3583 72.1031 64.4093C68.8801 68.6075 64.7546 71.6704 59.8227 73.6822C56.1891 75.1846 52.2922 75.9467 48.3603 75.924ZM46.5087 57.3403C46.3136 57.6373 46.2117 57.8585 46.0487 58.0274C45.0646 59.061 43.8622 59.6811 42.4123 59.7277C41.4078 59.7568 40.4005 59.6724 39.396 59.6956C39.0075 59.6921 38.6246 59.7884 38.2839 59.9751C33.643 62.8866 28.647 63.3116 23.3832 62.1937C21.6508 61.8268 20.0991 61.1601 18.7773 60.0246C17.7816 59.1716 17.0799 58.1642 16.9955 56.7493C16.8499 54.2833 18.6754 52.6005 20.5562 52.0502C24.0295 51.0312 27.334 51.6514 30.4958 53.1857C31.9399 53.8844 33.2908 54.7753 34.6708 55.6022C35.4627 56.0709 35.6985 56.0534 36.0945 55.2441C37.885 51.5873 36.7292 47.555 32.3562 46.0643C28.5189 44.7542 24.7661 44.8852 21.0715 46.5884C20.5299 46.8388 19.936 47.3162 19.2984 46.8038C18.6375 46.2681 19.0801 45.6305 19.2489 45.0657C20.463 40.978 21.6945 36.8991 22.9435 32.8231C23.2172 31.9293 23.9305 31.4693 24.9728 31.5246C26.5071 31.6091 28.0327 31.8391 29.567 31.874C31.8671 31.9322 34.1758 31.9526 36.473 31.8391C38.182 31.7517 39.6814 31.0006 41.0002 29.9117C41.1604 29.7807 41.4835 29.6293 41.5883 29.6992C41.7427 29.8011 41.8358 30.0864 41.8504 30.3018C41.9581 32.0661 41.2011 33.4258 39.7978 34.4826C38.1383 35.7346 36.243 36.3168 34.1729 36.3663C32.0272 36.4158 29.8815 36.4449 27.7387 36.4537C27.2554 36.4595 26.9992 36.6342 26.8856 37.0884C26.6935 37.8453 26.4897 38.6052 26.2713 39.3593C26.1053 39.9212 26.3179 40.1454 26.8856 40.1221C28.2365 40.0726 29.5874 39.9823 30.9354 39.9911C34.0383 39.973 37.0345 41.1224 39.3291 43.2111C41.5796 45.2142 42.4909 47.7995 42.6277 50.6877C42.7355 53.0023 42.2929 55.2179 41.0206 57.2122C40.6742 57.7566 40.8314 57.9925 41.4166 58.1468C42.9713 58.5573 44.4066 58.2778 45.7779 57.5121C45.8944 57.448 46.0021 57.3752 46.1214 57.3199C46.1622 57.3025 46.2233 57.3228 46.5087 57.3403ZM33.2092 57.9983L33.1627 57.7159C32.9676 57.5965 32.7842 57.448 32.5716 57.3549C31.0286 56.6707 29.5059 55.9137 27.9221 55.3372C26.3062 54.7462 24.6263 54.3241 22.8678 54.7346C22.0759 54.918 21.284 55.1189 21.054 56.0302C20.7978 57.0346 21.4121 57.6606 22.1283 58.2079C22.3525 58.3797 22.6291 58.502 22.8969 58.6068C25.6162 59.6549 28.3763 59.684 31.1479 58.863C31.8583 58.6534 32.5251 58.2894 33.2092 57.9983Z" fill="white"/>
</g>
<defs>
<clipPath id="clip0_342_5114">
<rect width="93.1659" height="93.1659" fill="white" transform="translate(0.973633 0.226562)"/>
</clipPath>
</defs>
</svg>
