<svg width="94" height="94" viewBox="0 0 94 94" fill="none" xmlns="http://www.w3.org/2000/svg">
<g clip-path="url(#clip0_342_5118)">
<path d="M47.0717 93.3924C72.7988 93.3924 93.6546 72.5365 93.6546 46.8095C93.6546 21.0825 72.7988 0.226562 47.0717 0.226562C21.3447 0.226562 0.48877 21.0825 0.48877 46.8095C0.48877 72.5365 21.3447 93.3924 47.0717 93.3924Z" fill="#383939"/>
<path fill-rule="evenodd" clip-rule="evenodd" d="M57.1828 33.6471L64.9476 31.8682L67.9551 26.9158L64.9855 22.045L61.1831 19.4189L53.3717 17.6953L48.5533 20.4117L40.8438 19.0375L30.2579 26.3714L29.4339 34.9368L24.9416 36.8118L25.4598 44.7571L22.3242 47.2551L25.4569 56.199L25.9286 57.1365L29.2418 66.3454L36.0516 68.756L41.1001 73.8918L46.9055 75.924L49.5316 75.167L53.6978 74.6866L59.806 72.9369L68.9072 67.7982L66.5256 58.3884L61.943 56.5833L59.6604 59.1949L53.2407 60.7729L43.9038 59.2939L40.8904 55.8089L41.9385 52.3996L37.5248 45.4151L41.2369 40.8849L41.6328 33.1841L46.9491 30.133L50.5942 28.6772L55.5437 29.5711L57.1828 33.6471Z" fill="white"/>
</g>
<defs>
<clipPath id="clip0_342_5118">
<rect width="93.1659" height="93.1659" fill="white" transform="translate(0.487793 0.226562)"/>
</clipPath>
</defs>
</svg>
