<svg width="94" height="94" viewBox="0 0 94 94" fill="none" xmlns="http://www.w3.org/2000/svg">
<g clip-path="url(#clip0_342_5122)">
<path d="M46.5834 93.3924C72.3105 93.3924 93.1664 72.5365 93.1664 46.8095C93.1664 21.0825 72.3105 0.226562 46.5834 0.226562C20.8564 0.226562 0.000488281 21.0825 0.000488281 46.8095C0.000488281 72.5365 20.8564 93.3924 46.5834 93.3924Z" fill="#4C6BAE"/>
<path opacity="0.5" fill-rule="evenodd" clip-rule="evenodd" d="M18.5841 49.7497L14.5576 50.166C16.7121 44.1394 20.9715 39.318 27.3417 35.702C27.9444 40.6981 30.3114 44.8294 34.4456 48.1018L30.6608 48.4949C31.0295 51.97 32.5244 55.2293 34.9176 57.776C37.3107 60.3226 40.4709 62.017 43.9165 62.6008C41.3793 64.5094 38.3757 65.701 35.2201 66.0508C37.2027 69.5445 39.5494 72.4065 42.257 74.6308C36.1198 73.6742 30.471 70.7158 26.1895 66.2158C21.9081 61.7159 19.2343 55.9269 18.5841 49.7497ZM74.5826 43.8686L78.6092 43.4523C76.4547 49.4789 72.1953 54.3003 65.825 57.9163C65.2224 52.9203 62.8554 48.7889 58.7212 45.5165L62.506 45.1234C62.1334 41.6116 60.611 38.3212 58.1753 35.7639C55.7397 33.2066 52.5273 31.5257 49.0377 30.9826C51.5663 29.0938 54.5535 27.9148 57.6905 27.5675C55.6903 24.0476 53.3263 21.174 50.5924 18.9409C56.7944 19.8353 62.5209 22.7723 66.866 27.2872C71.2111 31.8021 73.9265 37.637 74.5826 43.8686Z" fill="white"/>
<path fill-rule="evenodd" clip-rule="evenodd" d="M49.2684 74.8349L49.6847 78.8352C43.6581 76.6808 38.8367 72.4213 35.2207 66.0511C40.2138 65.4485 44.3452 63.0815 47.6176 58.9472L48.0136 62.7612C51.5755 62.441 54.9279 60.9382 57.5369 58.4922C60.1459 56.0463 61.8615 52.7977 62.4106 49.2638C64.2994 51.7924 65.4784 54.7796 65.8257 57.9166C69.3456 55.9164 72.2192 53.5523 74.4523 50.8185C73.5517 57.0642 70.5798 62.8265 66.0132 67.1814C61.4465 71.5363 55.5498 74.2316 49.2684 74.8349ZM43.6435 18.8102L43.2272 14.7837C49.2538 16.9382 54.0752 21.1976 57.6912 27.5678C52.6952 28.1705 48.5638 30.5375 45.2914 34.6717L44.8983 30.8868C41.3865 31.2594 38.0961 32.7819 35.5388 35.2175C32.9815 37.6532 31.3006 40.8655 30.7575 44.3551C28.8687 41.8266 27.6897 38.8393 27.3424 35.7023C23.8225 37.7025 20.9489 40.0666 18.7158 42.8004C19.6102 36.5985 22.5472 30.8719 27.0621 26.5268C31.577 22.1817 37.4119 19.4663 43.6435 18.8102Z" fill="white"/>
</g>
<defs>
<clipPath id="clip0_342_5122">
<rect width="93.1659" height="93.1659" fill="white" transform="translate(0.00146484 0.226562)"/>
</clipPath>
</defs>
</svg>
