<svg width="94" height="94" viewBox="0 0 94 94" fill="none" xmlns="http://www.w3.org/2000/svg">
<g clip-path="url(#clip0_342_5128)">
<path d="M47.0986 93.3924C72.8256 93.3924 93.6815 72.5365 93.6815 46.8095C93.6815 21.0825 72.8256 0.226562 47.0986 0.226562C21.3715 0.226562 0.515625 21.0825 0.515625 46.8095C0.515625 72.5365 21.3715 93.3924 47.0986 93.3924Z" fill="#FF4314"/>
<path fill-rule="evenodd" clip-rule="evenodd" d="M27.2162 23.5181H67.4406V29.1226H27.2133L27.2162 23.5181ZM22.7326 39.9415H72.4395V45.6042H57.2127V64.5489C57.2127 66.0046 57.8445 66.7325 59.1634 66.7325H65.487C66.177 66.7325 66.7506 66.287 67.0941 65.4456C67.4988 64.5489 67.7841 61.8005 67.9006 57.2616L73.3013 58.9444C72.8995 65.2768 72.1513 69.0325 71.1177 70.2116C70.0842 71.3296 68.5906 71.9469 66.5759 71.9469H57.4427C53.3609 71.9469 51.352 69.8739 51.352 65.7804V45.6042H42.8448V46.7251C42.5595 53.8436 40.9524 59.5587 38.0206 63.821C35.147 67.7427 30.5498 70.8259 24.1126 73.0124L20.8955 68.0805C27.1027 65.9493 31.2398 63.2591 33.4234 60.1206C35.607 56.6444 36.7541 52.2161 36.9841 46.7251V45.6042H22.7355L22.7326 39.9415Z" fill="white"/>
</g>
<defs>
<clipPath id="clip0_342_5128">
<rect width="93.1659" height="93.1659" fill="white" transform="translate(0.515625 0.226562)"/>
</clipPath>
</defs>
</svg>
