<svg width="94" height="94" viewBox="0 0 94 94" fill="none" xmlns="http://www.w3.org/2000/svg">
<g clip-path="url(#clip0_342_5132)">
<path d="M46.6137 93.3924C72.3407 93.3924 93.1966 72.5365 93.1966 46.8095C93.1966 21.0825 72.3407 0.226562 46.6137 0.226562C20.8867 0.226562 0.0307617 21.0825 0.0307617 46.8095C0.0307617 72.5365 20.8867 93.3924 46.6137 93.3924Z" fill="#13BF99"/>
<path d="M46.6134 73.0122H33.4071L40.0219 61.4917H53.2048L59.8196 73.0122H46.6134ZM40.0248 32.1241H40.0219L33.4071 20.6064H59.8196L53.2048 32.1241H40.0219H40.0248ZM69.1362 59.8962H69.1304H69.1362L62.5185 71.4197L55.927 59.8992H55.9299L62.5185 48.3757H75.7277L69.1362 59.8962ZM24.0905 33.6963L30.7053 22.1757L37.2968 33.6963L30.7053 45.2139H17.499L24.0905 33.6963ZM37.2939 59.8992H37.2968L30.7053 71.4197L24.0905 59.8992L17.499 48.3728H30.7053L37.2968 59.8933L37.2939 59.8992ZM69.1362 33.6963L75.7277 45.2168H62.5214L55.927 33.6963L62.5185 22.1757L69.1362 33.6963Z" fill="white"/>
</g>
<defs>
<clipPath id="clip0_342_5132">
<rect width="93.1659" height="93.1659" fill="white" transform="translate(0.0297852 0.226562)"/>
</clipPath>
</defs>
</svg>
