<svg width="94" height="94" viewBox="0 0 94 94" fill="none" xmlns="http://www.w3.org/2000/svg">
<g clip-path="url(#clip0_342_5136)">
<path d="M47.1254 93.3924C72.8525 93.3924 93.7084 72.5365 93.7084 46.8095C93.7084 21.0825 72.8525 0.226562 47.1254 0.226562C21.3984 0.226562 0.54248 21.0825 0.54248 46.8095C0.54248 72.5365 21.3984 93.3924 47.1254 93.3924Z" fill="#77C3B0"/>
<path d="M75.3028 38.8988L70.3883 33.9843C69.6499 33.2422 68.7714 32.6541 67.8038 32.2543C66.8362 31.8544 65.7988 31.6508 64.7518 31.6552H63.9948V30.8691C63.9948 29.492 63.6688 28.1818 62.9817 27.0027C62.628 26.3189 62.1625 25.699 61.6046 25.1685L56.6901 20.2511C55.9513 19.5086 55.0723 18.9203 54.1041 18.5205C53.136 18.1206 52.098 17.9172 51.0506 17.922H28.4055C26.2743 17.922 24.2771 18.743 22.7689 20.2511L17.8544 25.1656C17.1102 25.8958 16.5204 26.7683 16.1203 27.7312C15.7202 28.694 15.5178 29.7275 15.5253 30.7701L15.3943 52.009C15.3652 54.1373 16.2153 56.2015 17.7234 57.7096L22.6379 62.627C23.3765 63.3688 24.2551 63.9564 25.2228 64.3558C26.1904 64.7551 27.2277 64.9582 28.2745 64.9533H29.1595V65.7393C29.1595 67.1164 29.4885 68.4266 30.1756 69.6057C30.5366 70.2957 30.9937 70.9159 31.5527 71.4399L36.4672 76.3602C37.2066 77.1008 38.0854 77.6875 39.0529 78.0863C40.0204 78.4851 41.0573 78.6881 42.1038 78.6836H64.7838C66.915 78.6836 68.9123 77.8655 70.4204 76.3573L75.3378 71.4428C76.0788 70.7037 76.6659 69.8249 77.0652 68.8574C77.4645 67.89 77.668 66.8529 77.664 65.8063V44.5033C77.6585 43.46 77.4473 42.428 77.0427 41.4664C76.638 40.5047 76.0478 39.6322 75.3058 38.8988H75.3028ZM28.2745 57.7416C28.0665 57.7419 27.8667 57.6603 27.7184 57.5145L25.2611 55.0544L22.801 52.5971C22.6954 52.4731 22.6171 52.3283 22.571 52.1721V30.8051C22.571 30.5721 22.67 30.3771 22.8039 30.2461L27.7184 25.3316C27.7824 25.2646 27.8494 25.2326 27.9134 25.2005C28.0349 25.1372 28.1695 25.1033 28.3065 25.1016H50.9866C51.1176 25.1016 51.2166 25.1336 51.3476 25.2005C51.4466 25.2326 51.5106 25.2995 51.5776 25.3636L56.4921 30.281C56.5639 30.3425 56.6198 30.4204 56.6551 30.5081C56.6901 30.543 56.6901 30.575 56.6901 30.6071C56.6901 30.6391 56.7192 30.674 56.7192 30.7061C56.7192 30.7381 56.7541 30.8371 56.7541 30.9011V31.9492C56.7541 32.4092 56.3931 32.7353 55.968 32.7353H52.0376C51.8286 32.7364 51.6277 32.6547 51.4786 32.5082L49.2484 30.281H30.0446L29.2265 31.0962L28.1114 32.2142V50.6639L30.0446 52.5971H49.2164L51.4466 50.3379L51.4757 50.3029C51.5426 50.2709 51.6096 50.2039 51.6737 50.1719C51.7726 50.1079 51.9066 50.1079 52.0026 50.1079H55.9331C56.1951 50.1079 56.428 50.2389 56.5911 50.4339C56.693 50.566 56.7501 50.7272 56.7541 50.8939V52.009C56.7536 52.2174 56.671 52.4172 56.5241 52.5651L54.0669 55.0224L51.6096 57.4796C51.5776 57.5145 51.5106 57.5466 51.4786 57.5786C51.4786 57.5786 51.4466 57.6106 51.4116 57.6106C51.3796 57.6456 51.3476 57.6456 51.3126 57.6456C51.2835 57.6456 51.2835 57.6456 51.2486 57.6776C51.2166 57.6776 51.1816 57.7096 51.1496 57.7096H28.2745V57.7416ZM70.4873 65.7393C70.4861 65.9482 70.4023 66.148 70.2544 66.2954L65.3399 71.2128C65.2828 71.2672 65.2168 71.3116 65.1449 71.3438C65.0234 71.4072 64.8888 71.4411 64.7518 71.4428H42.0717C41.945 71.441 41.8207 71.4069 41.7107 71.3438C41.623 71.3085 41.5451 71.2526 41.4836 71.1808L36.5662 66.2634C36.5022 66.1993 36.4352 66.1324 36.4032 66.0334C36.3682 66.0043 36.3682 65.9693 36.3682 65.9373C36.3682 65.9024 36.3391 65.8703 36.3391 65.8383C36.3391 65.8063 36.3042 65.7073 36.3042 65.6404V64.5922C36.3042 64.1351 36.6652 63.8061 37.0903 63.8061H41.0207C41.2536 63.8061 41.4487 63.9051 41.5797 64.0362L43.8099 66.2634H62.9817L63.7998 65.4453L64.9149 64.3302V45.8805L62.9817 43.9443H43.8419L41.6147 46.2065L41.5797 46.2386C41.5157 46.2735 41.4487 46.3375 41.3846 46.3696C41.2857 46.4365 41.1546 46.4365 41.0557 46.4365H37.1252C36.998 46.4341 36.8729 46.4032 36.7591 46.3463C36.6453 46.2894 36.5456 46.2078 36.4672 46.1075C36.3659 45.9763 36.3088 45.8162 36.3042 45.6505V44.5354C36.3041 44.4321 36.3244 44.3299 36.3639 44.2344C36.4033 44.139 36.4612 44.0523 36.5342 43.9793L38.9915 41.522L41.4487 39.0619C41.4836 39.0298 41.5477 38.9978 41.5797 38.9629C41.5797 38.9629 41.6147 38.9338 41.6467 38.9338C41.6787 38.8988 41.7107 38.8988 41.7457 38.8988C41.7748 38.8988 41.7748 38.8988 41.8097 38.8668C41.8417 38.8668 41.8767 38.8319 41.9087 38.8319H64.7518C64.9789 38.8319 65.1769 38.9309 65.3079 39.0648L67.7651 41.522L70.2253 43.9793C70.2544 44.0113 70.2894 44.0433 70.3214 44.1103C70.3794 44.2013 70.4236 44.3004 70.4524 44.4044V44.5674C70.4873 44.5033 70.4873 65.7393 70.4873 65.7393Z" fill="white"/>
</g>
<defs>
<clipPath id="clip0_342_5136">
<rect width="93.1659" height="93.1659" fill="white" transform="translate(0.543457 0.226562)"/>
</clipPath>
</defs>
</svg>
