<svg width="94" height="94" viewBox="0 0 94 94" fill="none" xmlns="http://www.w3.org/2000/svg">
<g clip-path="url(#clip0_342_5140)">
<path d="M46.6406 93.3924C72.3676 93.3924 93.2235 72.5365 93.2235 46.8095C93.2235 21.0825 72.3676 0.226562 46.6406 0.226562C20.9135 0.226562 0.0576172 21.0825 0.0576172 46.8095C0.0576172 72.5365 20.9135 93.3924 46.6406 93.3924Z" fill="#00D395"/>
<path fill-rule="evenodd" clip-rule="evenodd" d="M25.0085 63.0755C24.2848 62.6476 23.6844 62.0394 23.266 61.3102C22.8476 60.581 22.6254 59.7558 22.6211 58.9151V49.4442C22.6211 48.3175 23.5586 47.4062 24.7057 47.412C25.0725 47.412 25.4335 47.5081 25.7538 47.6886L47.5983 60.1524C48.8764 60.8803 49.6654 62.2195 49.6654 63.6665V73.4781C49.6635 73.8024 49.5975 74.1231 49.4712 74.4218C49.3449 74.7205 49.1608 74.9913 48.9294 75.2186C48.6981 75.4459 48.4241 75.6252 48.1232 75.7462C47.8223 75.8672 47.5004 75.9275 47.1761 75.9237C46.7152 75.9239 46.2627 75.8002 45.866 75.5656L25.0085 63.0755ZM57.5699 45.0945C58.851 45.8224 59.6312 47.1645 59.6371 48.6086V68.5228C59.6371 69.1109 59.3168 69.6553 58.7898 69.9407L54.0093 72.5726C53.9478 72.6068 53.8822 72.6332 53.8142 72.6512V61.5936C53.8142 60.1612 53.0485 58.8335 51.7878 58.0999L32.6073 46.8676V34.3862C32.6073 33.2595 33.5448 32.3482 34.6948 32.3541C35.0612 32.3546 35.4213 32.4499 35.74 32.6307L57.5758 45.0945H57.5699ZM67.134 30.3859C68.415 31.1138 69.204 32.4531 69.204 33.9059V62.9911C69.2004 63.2866 69.1171 63.5757 68.9628 63.8278C68.8086 64.0799 68.5891 64.2857 68.3277 64.4235L63.7946 66.8196V46.5677C63.7946 45.1382 63.026 43.8135 61.777 43.0769L42.1655 31.568V19.733C42.1655 19.372 42.2674 19.0197 42.445 18.7082C42.7306 18.2399 43.1871 17.9012 43.7181 17.7637C44.249 17.6262 44.8126 17.7008 45.2895 17.9716L67.134 30.3888V30.3859Z" fill="white"/>
</g>
<defs>
<clipPath id="clip0_342_5140">
<rect width="93.1659" height="93.1659" fill="white" transform="translate(0.0576172 0.226562)"/>
</clipPath>
</defs>
</svg>
