<svg width="94" height="94" viewBox="0 0 94 94" fill="none" xmlns="http://www.w3.org/2000/svg">
<g clip-path="url(#clip0_342_5144)">
<path d="M47.1557 93.3924C72.8827 93.3924 93.7386 72.5365 93.7386 46.8095C93.7386 21.0825 72.8827 0.226562 47.1557 0.226562C21.4286 0.226562 0.572754 21.0825 0.572754 46.8095C0.572754 72.5365 21.4286 93.3924 47.1557 93.3924Z" fill="#71C800"/>
<path fill-rule="evenodd" clip-rule="evenodd" d="M75.7459 43.068C73.4546 43.1758 71.1545 43.3097 68.8632 43.2282C66.8078 43.1525 64.761 42.8118 62.7114 42.5731C62.4995 42.5372 62.3013 42.4446 62.1378 42.3052C58.746 39.5248 55.4124 36.6804 52.4893 33.3875C51.4237 32.1851 50.562 30.8866 50.0787 29.3086C49.4294 27.1804 46.7014 26.3622 44.6809 27.5938C42.5613 28.8864 42.1974 31.894 43.9821 33.6175C44.2981 33.9316 44.6889 34.1601 45.1176 34.2813C46.6606 34.654 47.8543 35.574 48.9811 36.6163C51.0016 38.4825 52.8125 40.5467 54.571 42.6604C55.0747 43.2631 54.8185 43.9619 54.0469 44.0492C52.8533 44.1889 51.6508 44.3141 50.4484 44.3636C48.1833 44.4568 45.9153 44.547 43.6473 44.5238C42.3808 44.5092 41.1085 44.3141 39.8537 44.1045C39.2621 43.989 38.6966 43.766 38.1855 43.4465C36.4997 42.4363 34.7529 43.1263 33.7805 44.122C33.1929 44.7239 32.8179 45.5011 32.7123 46.3355C32.6067 47.1699 32.7762 48.016 33.1953 48.7453C34.0046 50.1312 35.6001 50.9406 37.0325 50.6378C37.4459 50.5504 37.8535 50.367 38.2204 50.1545C39.1812 49.6071 40.2235 49.3509 41.3007 49.284C43.0301 49.1791 44.7711 49.0802 46.5034 49.1209C48.7074 49.1733 50.9113 49.3684 53.1153 49.5052C53.4152 49.5256 53.718 49.5402 54.0149 49.5867C54.8418 49.7207 55.0805 50.3816 54.5332 51.0308C53.8752 51.8111 53.2405 52.6175 52.5301 53.3454C51.0357 54.877 49.5167 56.3843 47.9737 57.8669C47.2733 58.5367 46.4054 59.0054 45.4611 59.2236C43.5512 59.6807 42.6079 61.5236 42.8758 63.3869C43.1436 65.2386 44.7973 66.6303 46.6694 66.6332C48.4046 66.6332 49.738 65.7073 50.2009 64.0478C50.6755 62.3417 51.7702 61.0549 52.9115 59.8C55.7268 56.711 58.8916 53.9947 62.1203 51.3569C62.3091 51.2036 62.5352 51.1031 62.7754 51.0657C64.4087 50.8532 66.042 50.5883 67.6812 50.4864C69.5294 50.3665 71.3825 50.3413 73.2333 50.4107C75.1636 50.4893 77.0851 50.7426 79.0649 50.926C79.03 51.5956 79.0212 52.1663 78.9688 52.7311C78.6136 56.3995 77.6791 59.9136 75.9526 63.1773C71.6902 71.2274 65.1162 76.2671 56.2218 78.2323C54.2283 78.6535 52.1946 78.8536 50.1573 78.8292C47.9883 78.8263 45.8192 78.8466 43.6502 78.8234C37.6381 78.7593 32.1384 77.0474 27.2443 73.542C21.3545 69.3204 17.5492 63.6519 15.913 56.58C15.5453 55.0008 15.327 53.3904 15.2608 51.7703C15.1234 48.7095 15.0962 45.6446 15.1793 42.5818C15.3568 36.4411 17.5056 30.5205 21.3078 25.6953C25.1101 20.8701 30.3641 17.3965 36.293 15.7879C38.6625 15.1419 41.1069 14.811 43.5629 14.8038C46.0784 14.7951 48.5909 14.7573 51.1035 14.8155C57.1185 14.9552 62.5833 16.7894 67.4162 20.3822C73.1954 24.6765 76.8726 30.3742 78.4215 37.4111C78.797 39.0998 78.9281 40.8408 79.1814 42.643C77.9294 42.8031 76.8435 43.0156 75.7459 43.068Z" fill="white"/>
</g>
<defs>
<clipPath id="clip0_342_5144">
<rect width="93.1659" height="93.1659" fill="white" transform="translate(0.571777 0.226562)"/>
</clipPath>
</defs>
</svg>
