<svg width="94" height="94" viewBox="0 0 94 94" fill="none" xmlns="http://www.w3.org/2000/svg">
<g clip-path="url(#clip0_342_5148)">
<path d="M46.6674 93.3924C72.3945 93.3924 93.2503 72.5365 93.2503 46.8095C93.2503 21.0825 72.3945 0.226562 46.6674 0.226562C20.9404 0.226562 0.0844727 21.0825 0.0844727 46.8095C0.0844727 72.5365 20.9404 93.3924 46.6674 93.3924Z" fill="#37E8A3"/>
<path d="M35.4178 46.7104L45.5554 56.8801L72.1368 30.1211L75.7819 33.8186L45.5554 64.278L31.7698 50.4109L35.4178 46.7104ZM41.5609 45.8079L57.9173 29.3408L61.5654 33.0383L45.2118 49.5171L41.5609 45.8079ZM34.9345 59.8701L31.3359 63.4978L17.5532 49.6335L21.1954 45.936L34.9345 59.8701Z" fill="white"/>
</g>
<defs>
<clipPath id="clip0_342_5148">
<rect width="93.1659" height="93.1659" fill="white" transform="translate(0.0854492 0.226562)"/>
</clipPath>
</defs>
</svg>
