<svg width="94" height="94" viewBox="0 0 94 94" fill="none" xmlns="http://www.w3.org/2000/svg">
<g clip-path="url(#clip0_342_5152)">
<path d="M47.1825 93.3924C72.9096 93.3924 93.7655 72.5365 93.7655 46.8095C93.7655 21.0825 72.9096 0.226562 47.1825 0.226562C21.4555 0.226562 0.599609 21.0825 0.599609 46.8095C0.599609 72.5365 21.4555 93.3924 47.1825 93.3924Z" fill="#00BDCD"/>
<path d="M64.1651 28.5955C60.0551 25.1038 54.832 23.1965 49.4391 23.2181C37.2256 23.2181 27.1666 32.8753 26.3281 45.2198H23.9349C24.7734 31.408 35.9096 20.7725 49.4391 20.7725C55.4279 20.7725 61.1721 22.9736 65.8421 26.8865L64.1651 28.5955ZM63.3266 36.6631C61.7545 34.4408 59.6737 32.6267 57.2579 31.3722C54.842 30.1177 52.1612 29.4591 49.4391 29.4515C39.9798 29.4515 32.3169 37.2745 32.3169 46.8095C32.3169 56.4638 39.9798 64.2897 49.4361 64.2897C54.9271 64.2897 60.0891 61.6112 63.3266 57.0752L65.0065 58.7871C61.2915 63.7977 55.5443 66.7353 49.4391 66.7353C38.6609 66.7353 29.9208 57.8089 29.9208 46.8095C29.9208 35.9323 38.6609 27.0059 49.4391 27.0059C52.4752 27.0184 55.4659 27.7442 58.17 29.1248C60.8741 30.5054 63.2158 32.5022 65.0065 34.9541L63.3266 36.6631ZM66.0808 30.4297L67.7607 28.7178C68.3576 29.3292 68.8379 29.9406 69.3154 30.552L67.6384 32.261C67.154 31.6209 66.634 31.0086 66.0808 30.4268V30.4297ZM49.3197 72.9658C35.7903 72.9658 24.654 62.3332 23.8155 48.5214H26.2087C27.0472 60.8659 37.1062 70.5231 49.3197 70.5231C54.7058 70.5231 59.8591 68.6889 64.0457 65.1457L65.7227 66.8547C61.157 70.78 55.3408 72.9479 49.3197 72.9687V72.9658ZM66.0808 63.3115C66.6806 62.7001 67.158 62.0887 67.6384 61.4773L69.3154 63.1863C68.835 63.7977 68.3576 64.4091 67.7607 65.0205L66.0808 63.3115ZM20.4645 46.8095C20.4645 63.0669 33.5135 76.3896 49.4391 76.3896C58.0598 76.3896 66.2002 72.6018 71.7115 65.6348L73.3856 67.3438C67.3997 74.6806 58.7789 78.8352 49.4391 78.8352C32.0782 78.8352 18.0684 64.4091 18.0684 46.8095C18.0684 29.0847 32.1975 14.7837 49.4391 14.7837C58.6537 14.7837 67.4026 18.9383 73.3856 26.2751L71.7086 27.987C66.2002 21.1423 58.0598 17.2293 49.4361 17.2293C33.5106 17.2293 20.4645 30.552 20.4645 46.8095Z" fill="white"/>
</g>
<defs>
<clipPath id="clip0_342_5152">
<rect width="93.1659" height="93.1659" fill="white" transform="translate(0.599609 0.226562)"/>
</clipPath>
</defs>
</svg>
