<svg width="94" height="94" viewBox="0 0 94 94" fill="none" xmlns="http://www.w3.org/2000/svg">
<g clip-path="url(#clip0_342_5156)">
<path d="M46.6962 93.3924C72.4233 93.3924 93.2792 72.5365 93.2792 46.8095C93.2792 21.0825 72.4233 0.226562 46.6962 0.226562C20.9692 0.226562 0.113281 21.0825 0.113281 46.8095C0.113281 72.5365 20.9692 93.3924 46.6962 93.3924Z" fill="#0F1529"/>
<path fill-rule="evenodd" clip-rule="evenodd" d="M72.4134 44.9055C71.8282 45.0365 71.4264 45.1122 71.0333 45.217C68.5732 45.8604 66.0956 46.3699 63.5335 46.2739C60.1096 46.1429 57.1691 44.7657 54.575 42.5472C53.5269 41.6476 52.5545 40.6548 51.5529 39.6998C51.0667 39.2398 50.9503 38.7158 51.32 38.116L52.2662 36.5817L53.5444 37.985C55.3873 40.0288 57.3583 41.8892 59.9582 42.882C62.5116 43.8545 65.1115 43.7118 67.723 43.2722C71.4147 42.655 74.824 41.1789 78.1664 39.5223C78.277 39.4669 78.3993 39.432 78.7224 39.3039C78.5012 39.7202 78.3789 39.9677 78.2391 40.2006C73.3596 48.405 68.48 56.6095 63.5946 64.811C62.9949 65.8183 62.7707 65.894 61.7284 65.3845C54.8399 62.0014 47.6254 61.358 40.178 62.639C39.0134 62.8399 38.8067 62.7409 38.2506 61.5472C37.6421 60.2429 37.6479 60.2779 39.025 60.0129C42.8622 59.2633 46.7912 59.1033 50.6766 59.5384C54.313 59.946 57.9377 60.4817 61.2742 62.1936C61.7517 62.4411 62.005 62.2343 62.2437 61.8384C64.3603 58.3039 66.4769 54.7694 68.6052 51.2408C69.7436 49.3512 70.9052 47.4763 72.0494 45.5926C72.1484 45.4296 72.227 45.2578 72.4134 44.9055ZM21.0149 45.2578C21.504 46.0817 21.9932 46.9056 22.4881 47.7267L32.2822 63.9725C32.748 64.7469 32.748 64.7702 31.9415 65.14C30.2034 65.9406 30.4188 66.1473 29.3562 64.3684C25.6004 58.0652 21.8505 51.7561 18.1006 45.4499L15.061 40.3404C14.9155 40.0987 14.799 39.8367 14.6709 39.5834L14.7844 39.432C15.2124 39.6212 15.6433 39.7988 16.0655 39.9968C18.6363 41.1992 21.2362 42.3172 23.9904 42.9985C27.5249 43.8778 31.0157 43.9797 34.3842 42.2998C36.4804 41.2546 38.2069 39.7144 39.7616 37.9588C42.2509 35.1405 44.2714 31.9787 46.1027 28.683L46.5482 27.8853C46.7898 28.2463 46.9441 28.5199 47.1392 28.7587C48.2135 30.0747 47.9602 31.245 47.0548 32.6076C45.0342 35.6471 42.9991 38.6576 40.309 41.1265C37.9041 43.3333 35.2081 44.9987 32.0405 45.7585C29.5541 46.3554 27.0561 46.236 24.561 45.7731C23.4198 45.5606 22.2843 45.3218 21.1459 45.0947L21.0149 45.2578Z" fill="white"/>
</g>
<defs>
<clipPath id="clip0_342_5156">
<rect width="93.1659" height="93.1659" fill="white" transform="translate(0.113281 0.226562)"/>
</clipPath>
</defs>
</svg>
