<svg width="94" height="94" viewBox="0 0 94 94" fill="none" xmlns="http://www.w3.org/2000/svg">
<g clip-path="url(#clip0_342_5160)">
<path d="M47.2094 93.3924C72.9364 93.3924 93.7923 72.5365 93.7923 46.8095C93.7923 21.0825 72.9364 0.226562 47.2094 0.226562C21.4824 0.226562 0.626465 21.0825 0.626465 46.8095C0.626465 72.5365 21.4824 93.3924 47.2094 93.3924Z" fill="#262626"/>
<path fill-rule="evenodd" clip-rule="evenodd" d="M49.9195 28.2491C57.0613 28.776 60.5259 33.0384 60.5259 33.8099C60.5259 34.3543 60.3949 35.5422 60.3949 36.2701C60.3949 36.7563 60.5696 37.5336 60.9189 38.5992C60.8316 39.3271 60.3512 39.6939 59.4749 39.6939C58.1647 39.6939 58.5316 38.2236 56.5867 35.3122C54.4905 32.1766 52.371 31.5186 49.9079 31.3818C49.9574 38.0664 50.1408 56.4667 50.1554 62.7961C56.7206 61.8412 60.3658 56.9383 61.312 56.9383C61.836 56.9383 62.494 57.3459 62.494 58.3067C62.494 60.3302 57.3058 64.9069 50.0564 65.8124C49.5148 71.7197 46.7199 78.8352 39.7848 78.8352C36.5036 78.8352 33.7465 76.3023 33.7465 73.3617C33.7465 71.446 35.1906 70.625 36.5036 70.625C37.8138 70.625 39.1268 71.5828 39.1268 73.3617C39.1268 74.5467 38.7338 75.3706 37.9477 75.8248C38.7338 76.3722 39.5199 76.6458 40.3089 76.6458C42.935 76.6458 44.909 71.8944 45.2467 65.7862C37.5954 64.5576 30.4653 57.2673 30.4653 46.6726C30.4653 34.7561 37.8895 29.6029 45.171 28.4529C45.3166 23.0958 48.1144 14.9147 55.2737 14.7837C59.603 14.7837 61.4401 18.3415 61.4401 20.2572C61.4401 22.1729 60.063 22.9939 58.6859 22.9939C57.3058 22.9939 55.9287 21.8992 55.9287 20.2572C55.9287 19.1625 56.3654 18.388 57.2389 17.931C56.6275 17.3836 55.8414 17.1099 54.8806 17.1099C51.2384 17.1099 50.0942 24.7903 49.9166 28.2491H49.9195ZM45.2991 62.569C45.2874 55.4826 45.1972 39.1524 45.1739 31.6496C38.4543 33.3004 36.2445 41.2952 36.2445 46.6726C36.2445 55.1973 40.274 61.0522 45.2991 62.569Z" fill="white"/>
</g>
<defs>
<clipPath id="clip0_342_5160">
<rect width="93.1659" height="93.1659" fill="white" transform="translate(0.627441 0.226562)"/>
</clipPath>
</defs>
</svg>
