<svg width="94" height="94" viewBox="0 0 94 94" fill="none" xmlns="http://www.w3.org/2000/svg">
<g clip-path="url(#clip0_342_5164)">
<path d="M46.7245 93.3924C72.4516 93.3924 93.3075 72.5365 93.3075 46.8095C93.3075 21.0825 72.4516 0.226562 46.7245 0.226562C20.9975 0.226562 0.141602 21.0825 0.141602 46.8095C0.141602 72.5365 20.9975 93.3924 46.7245 93.3924Z" fill="#FDDE6C"/>
<path fill-rule="evenodd" clip-rule="evenodd" d="M46.7245 78.8352C29.0375 78.8352 14.6987 64.4964 14.6987 46.8095C14.6987 29.1225 29.0375 14.7837 46.7245 14.7837C64.4115 14.7837 78.7503 29.1225 78.7503 46.8095C78.7503 64.4964 64.4115 78.8352 46.7245 78.8352ZM46.7245 74.3342C54.0245 74.3342 61.0255 71.4342 66.1874 66.2724C71.3493 61.1105 74.2492 54.1095 74.2492 46.8095C74.2492 39.5095 71.3493 32.5084 66.1874 27.3466C61.0255 22.1847 54.0245 19.2848 46.7245 19.2848C39.4245 19.2848 32.4235 22.1847 27.2616 27.3466C22.0997 32.5084 19.1998 39.5095 19.1998 46.8095C19.1998 54.1095 22.0997 61.1105 27.2616 66.2724C32.4235 71.4342 39.4245 74.3342 46.7245 74.3342ZM46.9341 65.8531C36.4617 65.8531 28.0273 57.8467 28.0273 46.9143V46.8095C28.0273 36.1361 36.2521 27.7687 47.3534 27.7687C54.8416 27.7687 59.66 30.9072 62.9092 35.4054L55.2608 41.3156C53.1646 38.7011 50.7568 37.027 47.2486 37.027C42.1157 37.027 38.5026 41.368 38.5026 46.7046V46.8095C38.5026 52.3033 42.1157 56.5919 47.2486 56.5919C51.0713 56.5919 53.3247 54.8159 55.5229 52.1461L63.1712 57.5876C59.7124 62.3478 55.0512 65.8531 46.9341 65.8531Z" fill="white"/>
</g>
<defs>
<clipPath id="clip0_342_5164">
<rect width="93.1659" height="93.1659" fill="white" transform="translate(0.141602 0.226562)"/>
</clipPath>
</defs>
</svg>
