<svg width="94" height="94" viewBox="0 0 94 94" fill="none" xmlns="http://www.w3.org/2000/svg">
<g clip-path="url(#clip0_342_5168)">
<path d="M47.2392 93.3924C72.9662 93.3924 93.8221 72.5365 93.8221 46.8095C93.8221 21.0825 72.9662 0.226562 47.2392 0.226562C21.5121 0.226562 0.65625 21.0825 0.65625 46.8095C0.65625 72.5365 21.5121 93.3924 47.2392 93.3924Z" fill="black"/>
<path d="M46.9388 13.031C46.5137 12.0703 48.051 11.389 48.476 12.3032C58.4681 29.5156 68.4601 46.7367 78.4522 63.9753C77.9194 63.9753 77.407 63.8006 76.8945 63.7191L50.2258 58.4028C49.3524 58.3591 49.1602 56.9471 50.0133 56.7375L60.477 53.8552C60.6017 53.8236 60.7179 53.7648 60.8172 53.6831C60.9166 53.6013 60.9967 53.4987 61.0517 53.3824C61.1068 53.2661 61.1355 53.1391 61.1358 53.0105C61.1361 52.8818 61.108 52.7547 61.0534 52.6382L46.9388 13.0078V13.0281V13.031Z" fill="white"/>
<path d="M45.4049 13.1182C45.501 13.2579 45.5855 13.4093 45.6582 13.5665C48.8201 22.5337 52.0634 31.501 55.2019 40.4682C55.4814 41.2135 54.4333 41.8336 53.9209 41.2776C51.2307 38.4593 48.6687 35.5566 46.0222 32.7383C45.5942 32.354 44.9741 32.6102 44.6975 33.0149L17.199 65.3202C16.8787 65.6608 16.6021 66.1732 16.0664 66.2373C15.6821 66.2373 15.4259 65.9374 15.2134 65.6404V65.1455C25.2899 47.8108 35.3547 30.4703 45.4049 13.1182Z" fill="white"/>
<path d="M36.9909 43.8839C37.5033 43.7354 38.1845 44.0964 38.0157 44.7165C36.9472 48.4315 35.8175 52.1261 34.7054 55.8178C34.5365 56.2895 34.9616 56.7145 35.4099 56.7378C49.8012 59.6202 64.1924 62.6073 78.5807 65.4896C78.8602 65.5333 79.0523 65.7458 79.2649 65.9176V66.5144L78.8573 66.9424H17.7754C24.1805 59.2562 30.5653 51.5264 36.9909 43.8839Z" fill="white"/>
</g>
<defs>
<clipPath id="clip0_342_5168">
<rect width="93.1659" height="93.1659" fill="white" transform="translate(0.655273 0.226562)"/>
</clipPath>
</defs>
</svg>
