<svg width="94" height="94" viewBox="0 0 94 94" fill="none" xmlns="http://www.w3.org/2000/svg">
<g clip-path="url(#clip0_342_5175)">
<path d="M46.7519 93.3924C72.4789 93.3924 93.3348 72.5365 93.3348 46.8095C93.3348 21.0825 72.4789 0.226562 46.7519 0.226562C21.0248 0.226562 0.168945 21.0825 0.168945 46.8095C0.168945 72.5365 21.0248 93.3924 46.7519 93.3924Z" fill="#3AB03E"/>
<path d="M50.1322 49.0777C51.2895 48.5231 52.2668 47.6533 52.9518 46.5681C53.6368 45.483 54.0016 44.2265 54.0044 42.9433C54.0044 39.1759 50.9125 36.1218 47.1043 36.1218C43.2903 36.1218 40.1955 39.1759 40.1955 42.9433C40.1986 44.2268 40.5643 45.4834 41.2504 46.5681C41.9366 47.6529 42.9152 48.5218 44.0735 49.0747V57.5004H50.1322V49.0777ZM47.1043 68.6454C34.9171 68.6454 25.0065 58.8513 25.0065 46.8096C25.0065 34.768 34.9171 24.9739 47.1043 24.9739C57.0469 24.9739 65.4755 31.4955 68.2413 40.4394H75.8576C72.9171 27.4253 61.1607 17.6953 47.1014 17.6953C30.8294 17.6953 17.6377 30.7298 17.6377 46.8096C17.6377 62.8895 30.8294 75.924 47.1014 75.924C61.1607 75.924 72.9171 66.194 75.8576 53.1799H68.2384C65.4725 62.1238 57.0439 68.6454 47.1014 68.6454" fill="white"/>
</g>
<defs>
<clipPath id="clip0_342_5175">
<rect width="93.1659" height="93.1659" fill="white" transform="translate(0.169922 0.226562)"/>
</clipPath>
</defs>
</svg>
