<svg width="94" height="94" viewBox="0 0 94 94" fill="none" xmlns="http://www.w3.org/2000/svg">
<g clip-path="url(#clip0_342_5183)">
<path d="M46.7812 93.3924C72.5082 93.3924 93.3641 72.5365 93.3641 46.8095C93.3641 21.0825 72.5082 0.226562 46.7812 0.226562C21.0541 0.226562 0.198242 21.0825 0.198242 46.8095C0.198242 72.5365 21.0541 93.3924 46.7812 93.3924Z" fill="#F4B731"/>
<path fill-rule="evenodd" clip-rule="evenodd" d="M27.2075 23.5181H46.2832C57.8852 23.5181 66.6807 29.6787 69.9531 38.6401H75.8954V44.0582H71.205C71.2953 44.9142 71.3419 45.7876 71.3419 46.6727V46.8066C71.3419 47.8023 71.2836 48.7864 71.1672 49.7472H75.8954V55.1624H69.8396C66.4827 64.0015 57.7571 70.101 46.2861 70.101H27.2075V55.1624H20.5781V49.7472H27.2075V44.0582H20.5781V38.643H27.2075V23.5181ZM32.5383 55.1624V65.2418H46.2803C54.7642 65.2418 61.0645 61.2037 63.9963 55.1624H32.5383ZM65.6297 49.7472H32.5383V44.0582H65.6413C65.7607 44.952 65.8247 45.8691 65.8247 46.8066V46.9376C65.8247 47.8955 65.7578 48.8301 65.6297 49.7443V49.7472ZM46.2861 28.3656C54.8049 28.3656 61.1257 32.5115 64.04 38.6371H32.5383V28.3685H46.2803L46.2861 28.3656Z" fill="white"/>
</g>
<defs>
<clipPath id="clip0_342_5183">
<rect width="93.1659" height="93.1659" fill="white" transform="translate(0.197266 0.226562)"/>
</clipPath>
</defs>
</svg>
