<svg width="94" height="94" viewBox="0 0 94 94" fill="none" xmlns="http://www.w3.org/2000/svg">
<g clip-path="url(#clip0_342_5187)">
<path d="M47.2944 93.3924C73.0214 93.3924 93.8773 72.5365 93.8773 46.8095C93.8773 21.0825 73.0214 0.226562 47.2944 0.226562C21.5673 0.226562 0.711426 21.0825 0.711426 46.8095C0.711426 72.5365 21.5673 93.3924 47.2944 93.3924Z" fill="#008CE7"/>
<path d="M56.28 23.5293H35.0964L33.3437 33.3321L52.4485 33.3612C61.8553 33.3612 64.6474 36.7763 64.5572 42.4449C64.5164 45.3505 63.2499 50.265 62.7142 51.8488C61.2672 56.0995 58.2859 60.9383 47.1118 60.9237L28.5427 60.9121L26.79 70.7265H47.9183C55.3687 70.7265 58.5421 69.856 61.8932 68.3101C69.329 64.8804 73.7573 57.5348 75.5362 47.9475C78.1739 33.6815 74.884 23.5293 56.277 23.5293H56.28Z" fill="white"/>
<path d="M46.7332 46.2214C47.4232 43.3536 47.6415 42.2036 47.6415 42.2036H25.963C20.4196 42.2036 19.6277 45.8138 19.1007 47.9974C18.4107 50.8535 18.1924 52.0181 18.1924 52.0181H39.8738C45.4143 52.0181 46.2062 48.4079 46.7332 46.2214Z" fill="white"/>
</g>
<defs>
<clipPath id="clip0_342_5187">
<rect width="93.1659" height="93.1659" fill="white" transform="translate(0.711426 0.226562)"/>
</clipPath>
</defs>
</svg>
