<svg width="94" height="94" viewBox="0 0 94 94" fill="none" xmlns="http://www.w3.org/2000/svg">
<g clip-path="url(#clip0_342_5193)">
<path d="M46.8085 93.3924C72.5356 93.3924 93.3915 72.5365 93.3915 46.8095C93.3915 21.0825 72.5356 0.226562 46.8085 0.226562C21.0815 0.226562 0.225586 21.0825 0.225586 46.8095C0.225586 72.5365 21.0815 93.3924 46.8085 93.3924Z" fill="#2D9CDB"/>
<path d="M58.6116 16.5479C59.7528 16.5479 60.6729 16.8973 61.3687 17.5931C62.0645 18.289 62.411 19.2061 62.411 20.3503V54.3383C62.411 58.2105 61.4939 61.7421 59.6539 64.9214C57.9 68.0168 55.3536 70.5893 52.2763 72.3747C49.196 74.1623 45.743 75.0561 41.9145 75.0561C38.0889 75.0561 34.5864 74.1623 31.4042 72.3747C28.3269 70.5893 25.7805 68.0168 24.0266 64.9214C22.239 61.7421 21.3452 58.2135 21.3452 54.3383C21.3452 50.4632 22.1633 46.9579 23.8054 43.8281C25.494 40.6488 27.7795 38.1624 30.6618 36.3748C33.5936 34.5872 36.8486 33.6905 40.4238 33.6905C43.1768 33.6703 45.8991 34.2694 48.3892 35.4437C50.8793 36.6179 53.0735 38.3372 54.8092 40.4741V20.3503C54.8092 19.2061 55.1586 18.289 55.8544 17.5931C56.5997 16.8948 57.5906 16.5191 58.6116 16.5479ZM41.9145 68.3482C44.4009 68.3482 46.6368 67.7542 48.6224 66.5605C50.6436 65.3366 52.2933 63.5853 53.3943 61.4946C54.5356 59.3547 55.1091 56.9703 55.1091 54.3383C55.1091 51.7064 54.5356 49.3423 53.3914 47.2577C52.3033 45.177 50.6504 43.4453 48.6224 42.2617C46.6368 41.0214 44.4009 40.3984 41.9145 40.3984C39.431 40.3984 37.1689 41.0214 35.1309 42.2617C33.1255 43.4736 31.4793 45.1982 30.3619 47.2577C29.2206 49.3423 28.65 51.7035 28.65 54.3383C28.65 56.9732 29.2206 59.3547 30.3619 61.4917C31.4922 63.5621 33.1353 65.3075 35.1338 66.5605C37.1718 67.7542 39.431 68.3482 41.9174 68.3482H41.9145Z" fill="white"/>
</g>
<defs>
<clipPath id="clip0_342_5193">
<rect width="93.1659" height="93.1659" fill="white" transform="translate(0.225586 0.226562)"/>
</clipPath>
</defs>
</svg>
