<svg width="94" height="94" viewBox="0 0 94 94" fill="none" xmlns="http://www.w3.org/2000/svg">
<g clip-path="url(#clip0_342_5197)">
<path d="M47.3229 93.3924C73.05 93.3924 93.9059 72.5365 93.9059 46.8095C93.9059 21.0825 73.05 0.226562 47.3229 0.226562C21.5959 0.226562 0.73999 21.0825 0.73999 46.8095C0.73999 72.5365 21.5959 93.3924 47.3229 93.3924Z" fill="#E9570F"/>
<path d="M71.022 29.0902L75.7007 24.4494C76.807 23.3547 76.577 21.3516 75.1941 19.9803C73.8112 18.6061 71.7877 18.3819 70.6843 19.4795L61.9034 28.1847L61.6035 28.4846L53.9523 36.0689C51.4089 34.2349 48.2985 33.3603 45.172 33.6001C42.0455 33.8399 39.1048 35.1786 36.8709 37.379C34.6553 39.5738 33.3028 42.492 33.0601 45.6011C32.8175 48.7102 33.7009 51.803 35.5491 54.3148L29.7088 60.1086C28.1939 58.0899 27.0241 55.834 26.2471 53.4327C24.2877 47.4992 24.8146 41.0009 27.9939 35.6438C32.9521 27.288 41.8232 23.6545 50.2315 24.7201C50.6549 24.7795 51.086 24.751 51.4979 24.6366C51.9099 24.5221 52.2939 24.3241 52.626 24.0548C52.9581 23.7855 53.2312 23.4507 53.4283 23.0713C53.6254 22.6919 53.7423 22.276 53.7718 21.8495C53.8269 20.8708 53.5023 19.9086 52.8656 19.1633C52.2288 18.4181 51.329 17.9473 50.3537 17.8491C41.9077 16.9844 33.1763 19.7416 26.7275 26.1351C16.0425 36.7269 15.4165 53.5288 24.8059 64.9678L19.4489 70.2811C18.392 71.3293 18.6541 73.2945 20.0399 74.6658C21.4228 76.037 23.4026 76.302 24.4594 75.2539L30.227 69.5358H30.2299L34.3991 65.4016L34.4078 65.3899L41.1682 58.6878C43.572 59.667 46.2103 59.9197 48.7563 59.4146C51.3023 58.9095 53.6444 57.6689 55.4924 55.8463C57.3271 54.0311 58.5797 51.7106 59.0904 49.1807C59.6012 46.6509 59.347 44.0262 58.3602 41.6414L66.0289 34.0396C71.6509 42.5061 70.5358 54.2275 62.7972 61.8962C60.4702 64.2145 57.6728 66.0064 54.5939 67.1511C51.5151 68.2957 48.2264 68.7664 44.9501 68.5314C44.2125 68.4891 43.4874 68.7351 42.9278 69.2175C42.3683 69.6999 42.0181 70.381 41.9513 71.1167L41.8698 72.0484C41.8332 72.4559 41.8797 72.8666 42.0066 73.2556C42.1334 73.6446 42.3379 74.0038 42.6077 74.3114C42.8775 74.619 43.2069 74.8687 43.576 75.0452C43.9451 75.2217 44.3462 75.3214 44.7551 75.3383C48.9549 75.5637 53.1552 74.9036 57.0835 73.4009C61.0118 71.8983 64.5802 69.5865 67.5574 66.6156C78.0298 56.2306 79.241 40.2352 71.022 29.0873V29.0902ZM50.6391 51.0278C49.4516 52.1978 47.8515 52.8536 46.1846 52.8536C44.5176 52.8536 42.9175 52.1978 41.7301 51.0278C41.1469 50.4499 40.684 49.7622 40.3681 49.0044C40.0522 48.2466 39.8895 47.4337 39.8895 46.6126C39.8895 45.7916 40.0522 44.9787 40.3681 44.2209C40.684 43.4631 41.1469 42.7754 41.7301 42.1975C42.9172 41.0268 44.5174 40.3705 46.1846 40.3705C47.8518 40.3705 49.452 41.0268 50.6391 42.1975C51.2222 42.7754 51.6852 43.4631 52.0011 44.2209C52.317 44.9787 52.4796 45.7916 52.4796 46.6126C52.4796 47.4337 52.317 48.2466 52.0011 49.0044C51.6852 49.7622 51.2222 50.4499 50.6391 51.0278Z" fill="white"/>
</g>
<defs>
<clipPath id="clip0_342_5197">
<rect width="93.1659" height="93.1659" fill="white" transform="translate(0.739502 0.226562)"/>
</clipPath>
</defs>
</svg>
