<svg width="94" height="94" viewBox="0 0 94 94" fill="none" xmlns="http://www.w3.org/2000/svg">
<g clip-path="url(#clip0_342_5201)">
<path d="M46.8354 93.3924C72.5624 93.3924 93.4183 72.5365 93.4183 46.8095C93.4183 21.0825 72.5624 0.226562 46.8354 0.226562C21.1083 0.226562 0.252441 21.0825 0.252441 46.8095C0.252441 72.5365 21.1083 93.3924 46.8354 93.3924Z" fill="#5BC1D4"/>
<path fill-rule="evenodd" clip-rule="evenodd" d="M40.3867 49.5109L35.5828 54.5302C34.7181 55.4328 33.8709 56.344 33.0033 57.2408C32.8577 57.3922 32.651 57.4824 32.4734 57.6018C32.0949 57.5406 31.8038 57.3048 31.7543 56.9613C31.6739 56.4384 31.6021 55.9143 31.5389 55.3891C31.4515 54.6962 31.239 54.504 30.5373 54.4167C29.0903 54.242 27.6463 54.0527 26.1993 53.8635L22.8977 53.4355C22.2397 53.3482 22.001 52.8765 22.3445 52.3146C23.1365 51.0394 23.9342 49.77 24.729 48.5006L29.5911 40.7329C29.7833 40.4185 29.9987 40.203 30.4121 40.2147C30.6742 40.2205 30.9478 40.1565 31.207 40.0895C31.5156 40.0138 31.7572 40.107 31.9727 40.3108C32.3541 40.6689 32.7413 41.0241 33.1198 41.3851L37.5102 45.5514C38.4564 46.4481 39.4114 47.339 40.3576 48.2357C40.8467 48.6957 40.8467 49.0276 40.3867 49.5109ZM72.6745 56.2625C72.9482 56.4896 73.2451 56.7051 73.3034 57.0923C73.3762 57.5872 73.1782 57.9453 72.7589 58.2161C70.2842 59.8174 67.8095 61.4274 65.3348 63.0316L60.5513 66.1323C60.4004 66.2278 60.2564 66.3339 60.1204 66.4496C59.9998 66.5486 59.9041 66.6743 59.8409 66.8169C59.7777 66.9595 59.7488 67.1149 59.7565 67.2706C59.7798 67.8675 59.8147 68.4643 59.8234 69.0583C59.8322 69.7425 59.3285 70.1704 58.6414 70.0918C58.3939 70.0592 58.1691 69.9306 58.0154 69.7337C57.44 69.0698 56.8654 68.405 56.2919 67.7394C55.5727 66.9067 54.8565 66.0682 54.1345 65.2385C53.9858 65.0899 53.873 64.9093 53.8049 64.7105C53.7368 64.5117 53.7151 64.2999 53.7414 64.0914L53.8404 60.6122C53.8521 60.2046 54.0937 59.9426 54.4198 59.7329L58.3735 57.2058C60.5862 55.7938 62.8047 54.3876 65.0116 52.961C65.4774 52.6611 65.9112 52.5708 66.4237 52.8328C66.8021 53.025 67.2301 53.0599 67.6406 52.9318C68.2549 52.7368 68.7266 52.9085 69.2012 53.3278C70.3366 54.3293 71.5157 55.2843 72.6774 56.2625H72.6745ZM51.4269 59.1507C51.6066 59.3262 51.7345 59.5478 51.7966 59.7912C51.9043 60.3356 51.6889 60.7054 51.1765 60.9528C49.4733 61.7739 47.773 62.6036 46.0553 63.3984C45.7467 63.5382 45.3594 63.5557 45.0071 63.5731C43.5835 63.6372 42.1598 63.675 40.7361 63.7333C39.8947 63.7653 39.0562 63.8177 38.2817 63.8585H37.7111C37.582 63.8617 37.4536 63.8388 37.3336 63.7913C37.2135 63.7438 37.1043 63.6726 37.0124 63.5819C36.8318 63.4159 36.6455 63.2558 36.4679 63.0869C35.4664 62.1349 34.4823 61.1654 33.4604 60.2337C32.8898 59.7155 32.881 59.0196 33.4255 58.4636C34.6512 57.2 35.8623 55.9248 37.0793 54.6496C38.3924 53.2754 39.7054 51.8954 41.0156 50.5154C41.115 50.3984 41.2373 50.303 41.3749 50.2351C41.5126 50.1672 41.6627 50.1283 41.816 50.1206C41.9694 50.113 42.1226 50.1368 42.2663 50.1907C42.4101 50.2446 42.5413 50.3273 42.6518 50.4338L47.8924 55.6424C49.0686 56.8128 50.2565 57.9715 51.4269 59.1507ZM58.6414 35.7165C58.0795 34.8489 58.7142 33.6494 59.6487 33.4951C62.1468 33.0788 64.636 32.6013 67.1311 32.1675C67.6814 32.0714 68.1181 32.3247 68.4209 32.7789C68.945 33.565 69.4603 34.354 69.9785 35.143C71.0732 36.8025 72.1708 38.462 73.2539 40.1274C73.3994 40.3515 73.4722 40.6223 73.58 40.8698L73.5159 40.8989C73.498 41.3239 73.3404 41.7312 73.0675 42.0576C71.542 44.1073 69.9989 46.1482 68.4762 48.2008C68.3325 48.3829 68.1466 48.5272 67.9345 48.6213C67.7225 48.7153 67.4907 48.7562 67.2592 48.7404C67.0278 48.7247 66.8037 48.6527 66.6063 48.5307C66.409 48.4088 66.2443 48.2406 66.1267 48.0406C63.8994 44.3431 61.6489 40.6572 59.4071 36.9684C59.1538 36.5492 58.9063 36.1241 58.6414 35.7165ZM54.2597 45.9997L53.823 49.8865C53.7007 50.9637 53.5697 52.0351 53.4474 53.1124L53.0165 56.8972C52.9874 57.1622 52.9845 57.4329 52.9292 57.6891C52.9 57.8143 52.8069 57.9744 52.7021 58.0152C52.5973 58.056 52.4109 57.9977 52.3178 57.9191C51.9043 57.561 51.5113 57.1825 51.1153 56.807C49.6887 55.4561 48.2709 54.1022 46.8443 52.7572C45.604 51.5838 44.3608 50.4193 43.1147 49.2547C42.7013 48.8704 42.6984 48.7481 43.0972 48.3318L48.7978 42.3633L52.6904 38.2757L54.6003 36.2668C54.6556 36.2086 54.7022 36.13 54.7692 36.1067C54.906 36.0572 55.0749 35.9902 55.1943 36.0281C55.2932 36.063 55.3398 36.2406 55.3689 36.2901L55.0778 38.8521L54.7022 42.145L54.2597 45.9997ZM65.3406 48.9694C65.5269 49.2693 65.556 49.5546 65.3522 49.8661C65.13 50.2156 65.0354 50.6311 65.0844 51.0423C65.1193 51.4092 64.9679 51.6333 64.6564 51.8284C62.2195 53.3744 59.7943 54.932 57.3662 56.4867C56.6034 56.9758 55.8406 57.462 55.0749 57.9453C54.7721 58.1375 54.4606 58.1229 54.2946 57.8784C54.2015 57.7444 54.1898 57.5581 54.1636 57.4649L54.4839 55.1125L55.1972 49.9243L55.9832 44.247L56.749 38.6949L57.0401 36.6278C57.0459 36.5725 57.0488 36.5084 57.0779 36.4677C57.1536 36.3716 57.2381 36.2289 57.3342 36.2115C57.439 36.194 57.602 36.2755 57.669 36.3658C57.8466 36.6045 57.9892 36.8695 58.1464 37.1257L63.8383 46.4888C64.3391 47.3157 64.834 48.1454 65.3406 48.9665V48.9694ZM53.5406 34.6917C53.6308 34.7499 53.8055 34.8111 53.8987 34.9363C54.0413 35.1284 53.9161 35.3089 53.7677 35.4632L51.7879 37.5449L46.0174 43.5832C44.8121 44.8497 43.6126 46.122 42.4072 47.3856C41.9705 47.8397 41.6211 47.8397 41.167 47.4088C39.7607 46.0754 38.3545 44.7362 36.9454 43.4056C35.577 42.113 34.2028 40.8232 32.8286 39.5334C32.6452 39.3587 32.4996 39.1695 32.52 38.9016C32.5491 38.5377 32.7587 38.331 33.1751 38.2611C33.935 38.1243 34.6978 37.9904 35.4606 37.8593L42.7828 36.5783L51.4298 35.0615L53.5406 34.6917ZM33.9204 36.5317C35.2771 35.603 36.6339 34.6801 37.9935 33.7571L51.1241 24.8132C51.5608 24.5162 51.8374 24.5774 52.0557 25.049C52.9612 26.9881 53.8608 28.93 54.7634 30.8719C54.8798 31.1223 54.9904 31.3756 55.1098 31.6289C55.2059 31.8327 55.1418 31.9986 55.0196 32.1821C54.8606 32.4069 54.7259 32.6479 54.6178 32.9012C54.5217 33.1428 54.3761 33.2738 54.1141 33.3204C52.1809 33.664 50.2506 34.0192 48.3204 34.3627L41.4668 35.5942L33.9845 36.9393C33.8796 36.9568 33.7719 36.9393 33.6642 36.9393L33.6002 36.82C33.7079 36.7239 33.8039 36.6133 33.9204 36.5317ZM20.2658 40.9746C19.4098 40.9571 18.9003 40.1244 19.3108 39.3587C19.6573 38.7124 20.0416 38.0893 20.4143 37.4576C21.4857 35.6263 22.5629 33.8008 23.6285 31.9695C23.8024 31.6705 24.0539 31.424 24.3563 31.2562C27.1979 29.6229 30.0336 27.9809 32.8752 26.3446C33.0556 26.2342 33.2535 26.1555 33.4604 26.1117C33.6544 26.0734 33.8553 26.0927 34.0384 26.1672C34.2216 26.2417 34.3789 26.3681 34.491 26.531C34.6151 26.69 34.6904 26.8816 34.708 27.0826C34.7256 27.2836 34.6846 27.4853 34.59 27.6635C34.1621 28.5777 33.7166 29.4832 33.2799 30.3915C32.4647 32.0569 31.6495 33.7193 30.843 35.3875C30.7666 35.5719 30.6477 35.7356 30.4959 35.8651C30.344 35.9947 30.1637 36.0864 29.9696 36.1329C29.6084 36.219 29.2781 36.4032 29.015 36.6652C28.752 36.9273 28.5665 37.2569 28.4789 37.6177C28.4347 37.7959 28.3445 37.9593 28.2173 38.0916C28.09 38.224 27.9303 38.3206 27.754 38.3718C25.419 39.1928 23.087 40.0313 20.7549 40.861C20.5977 40.9193 20.4317 40.9367 20.2687 40.9775L20.2658 40.9746ZM32.357 35.6583C32.3685 35.5368 32.4021 35.4184 32.456 35.3089L35.5071 28.6214C36.1418 27.2297 36.7853 25.841 37.4112 24.4464C37.5568 24.1261 37.7693 23.966 38.1303 23.9514C39.0824 23.9223 40.0344 23.8728 40.9865 23.835L46.6055 23.6224C47.2635 23.5933 47.9244 23.5497 48.5853 23.5176C49.0569 23.4972 49.3801 23.7826 49.383 24.2455C49.4034 24.5279 49.2229 24.7113 48.99 24.8714L47.1907 26.0972L36.4359 33.4136L33.0004 35.7544C32.9203 35.815 32.8345 35.8676 32.7442 35.9116C32.5404 35.9989 32.3453 35.8767 32.357 35.6583ZM28.3887 40.4622C27.9141 41.2279 27.4337 41.9878 26.9563 42.7506C25.1715 45.6038 23.3868 48.4599 21.5992 51.3102C21.5255 51.4467 21.4267 51.5682 21.3081 51.6683C20.9995 51.8895 20.589 51.7352 20.4434 51.348C20.2105 50.725 19.9892 50.0961 19.765 49.4701L17.8173 43.9908C17.7707 43.854 17.7387 43.7142 17.7212 43.6473C17.7241 43.2775 17.8464 43.1203 18.1928 43.0068C19.2293 42.6719 20.2658 42.343 21.3023 42.014L27.1688 40.1506L27.9403 39.9119C28.1237 39.8537 28.3072 39.7751 28.4586 39.9789C28.5954 40.1623 28.4818 40.3137 28.3887 40.4622ZM75.3152 48.0581L75.9033 51.4237C75.9207 51.5314 75.9324 51.6421 75.9499 51.7847C75.9207 51.9303 75.8887 52.105 75.8421 52.2739L75.0706 55.0572C74.8493 55.8578 74.2146 56.0471 73.5741 55.5055C72.2611 54.3992 70.9422 53.2929 69.6233 52.1923C69.3234 51.942 69.1982 51.6537 69.2681 51.2578C69.3536 50.8635 69.3065 50.4521 69.1342 50.0874C68.9537 49.7293 69.0119 49.4119 69.2477 49.0975C70.325 47.6534 71.3935 46.2035 72.4678 44.7594L73.1229 43.8744C73.3412 43.5745 73.6294 43.4289 73.9963 43.5104C74.3806 43.5978 74.5786 43.8598 74.6426 44.2354L75.3123 48.0581H75.3152ZM53.2931 24.9297L53.2349 24.8074C53.1562 24.6327 53.1242 24.4289 53.3018 24.3299C53.4577 24.26 53.6338 24.2497 53.7968 24.3008C54.053 24.3794 54.283 24.525 54.5246 24.6444L64.3129 29.5326L66.051 30.4061C66.2461 30.5022 66.4004 30.6157 66.3596 30.8603C66.3188 31.1019 66.1354 31.1543 65.9229 31.1922C63.5704 31.6114 61.2209 32.0365 58.8714 32.4586L58.6414 32.5052C58.5744 32.4615 58.4463 32.4121 58.3648 32.3189C58.1555 32.0556 57.8919 31.8405 57.5919 31.6883C57.292 31.5361 56.9628 31.4503 56.6267 31.4367C56.3647 31.4251 56.2307 31.2708 56.1317 31.0524C55.7183 30.1557 55.2962 29.2648 54.8798 28.371L53.2931 24.9297Z" fill="white"/>
</g>
<defs>
<clipPath id="clip0_342_5201">
<rect width="93.1659" height="93.1659" fill="white" transform="translate(0.253418 0.226562)"/>
</clipPath>
</defs>
</svg>
