<svg width="94" height="94" viewBox="0 0 94 94" fill="none" xmlns="http://www.w3.org/2000/svg">
<g clip-path="url(#clip0_342_5205)">
<path d="M47.3505 93.3924C73.0776 93.3924 93.9334 72.5365 93.9334 46.8095C93.9334 21.0825 73.0776 0.226562 47.3505 0.226562C21.6235 0.226562 0.767578 21.0825 0.767578 46.8095C0.767578 72.5365 21.6235 93.3924 47.3505 93.3924Z" fill="#136485"/>
<path fill-rule="evenodd" clip-rule="evenodd" d="M31.1516 90.4985C25.0515 88.232 19.4937 84.7133 14.8359 80.1687L15.2639 79.4205C22.2164 68.4356 28.4614 57.0665 33.1634 44.92C38.1507 32.0369 42.1423 18.8132 45.9446 5.53702C46.2852 4.35206 46.6899 3.18749 47.0626 2.01418C47.4644 2.47419 47.6099 2.90217 47.7322 3.33597C50.1196 11.8548 52.4284 20.397 54.906 28.8867C59.4187 44.3552 65.7657 59.0288 74.171 72.7824C75.1521 74.3837 76.8204 77.068 79.1786 80.8238C74.1585 85.5291 68.1577 89.0629 61.6081 91.171C56.781 76.4399 51.9267 61.7177 47.0451 47.0046L46.5968 46.9987C43.202 56.5395 38.0546 71.0385 31.1516 90.4985ZM47.5692 0.369223H47.2082L47.3508 0.226562L47.5692 0.369223Z" fill="white"/>
</g>
<defs>
<clipPath id="clip0_342_5205">
<rect width="93.1659" height="93.1659" fill="white" transform="translate(0.767578 0.226562)"/>
</clipPath>
</defs>
</svg>
