<svg width="94" height="94" viewBox="0 0 94 94" fill="none" xmlns="http://www.w3.org/2000/svg">
<g clip-path="url(#clip0_342_5209)">
<path d="M46.8649 93.3924C72.592 93.3924 93.4479 72.5365 93.4479 46.8095C93.4479 21.0825 72.592 0.226562 46.8649 0.226562C21.1379 0.226562 0.281982 21.0825 0.281982 46.8095C0.281982 72.5365 21.1379 93.3924 46.8649 93.3924Z" fill="#2ED6A1"/>
<path d="M43.534 51.5258H56.4026C57.5446 51.5223 58.6748 51.294 59.7286 50.8538C60.7824 50.4135 61.7391 49.7701 62.5442 48.9601C63.3493 48.1501 63.987 47.1895 64.4209 46.1331C64.8547 45.0767 65.0763 43.9451 65.0728 42.8031C65.079 40.4972 64.1691 38.2832 62.5432 36.648C60.9173 35.0128 58.7085 34.0903 56.4026 34.0834H52.3091L43.534 26.4292H56.4026C60.1875 26.4382 63.8515 27.7634 66.7666 30.1776C69.6817 32.5918 71.6664 35.9447 72.3805 39.6617C73.1097 43.3808 72.5281 47.2376 70.7345 50.5763C68.941 53.915 66.0463 56.5293 62.5428 57.9746L72.6891 66.8312H61.0696L43.534 51.5228V51.5258ZM49.814 41.7433H36.9455C34.64 41.7503 32.4317 42.6724 30.8059 44.3069C29.1801 45.9415 28.2698 48.1547 28.2752 50.4602C28.269 52.7661 29.1789 54.9801 30.8048 56.6153C32.4307 58.2505 34.6395 59.173 36.9455 59.1799H41.0419L49.8111 66.837H36.9455C33.1605 66.8279 29.4965 65.5028 26.5814 63.0886C23.6663 60.6744 21.6817 57.3215 20.9675 53.6045C20.2383 49.8854 20.82 46.0285 22.6135 42.6899C24.407 39.3512 27.3017 36.7369 30.8053 35.2916L20.6676 26.4292H32.2872L49.814 41.7433Z" fill="white"/>
</g>
<defs>
<clipPath id="clip0_342_5209">
<rect width="93.1659" height="93.1659" fill="white" transform="translate(0.281494 0.226562)"/>
</clipPath>
</defs>
</svg>
