<svg width="94" height="94" viewBox="0 0 94 94" fill="none" xmlns="http://www.w3.org/2000/svg">
<g clip-path="url(#clip0_342_5213)">
<path d="M47.0414 93.9061C72.7685 93.9061 93.6244 73.0502 93.6244 47.3232C93.6244 21.5961 72.7685 0.740234 47.0414 0.740234C21.3144 0.740234 0.458496 21.5961 0.458496 47.3232C0.458496 73.0502 21.3144 93.9061 47.0414 93.9061Z" fill="#939393"/>
<path fill-rule="evenodd" clip-rule="evenodd" d="M40.3657 58.5612C41.4284 57.8711 48.5702 53.4953 55.5285 49.2329C60.5449 46.1643 60.5449 46.1643 60.4575 45.8644C60.3702 45.5005 29.3052 26.6227 28.9879 26.4335C28.3978 26.085 27.8135 25.7269 27.2352 25.3592C27.8058 24.9632 28.9151 24.2062 30.2427 23.3037L33.4744 21.1201L35.6929 22.4477C38.4296 24.084 68.4756 42.5133 72.6856 45.1365C70.9678 46.1701 64.8829 49.7715 56.7018 54.59L40.4473 64.1686C40.4176 63.3206 40.3982 62.4724 40.389 61.624C40.3707 60.6041 40.3639 59.5841 40.3687 58.5641L40.3657 58.5612ZM33.4715 40.2308C34.0101 40.551 34.9417 41.1129 36.0888 41.8262L39.0847 43.6837L39.1488 49.3028C39.338 65.5399 39.338 65.5399 39.5738 65.7058L39.731 65.8135L39.9057 65.7495C39.9931 65.7233 40.0251 65.7116 71.5559 47.1105L73.2446 46.1148L72.6885 53.9261L72.4847 54.0426C59.5022 61.5 46.5085 68.9378 33.5035 76.3558C33.4918 74.3207 33.4744 67.3741 33.4715 58.3166V40.2308ZM26.6616 72.9436L26.7344 26.4568L27.864 27.1235C28.7724 27.6534 34.8981 31.3887 41.8185 35.622C46.7741 38.6602 51.7371 41.6861 56.7076 44.6998L58.7893 45.9517L51.9067 50.1617L50.5325 49.361C47.7761 47.6965 45.0296 46.0156 42.2931 44.3184C39.6248 42.6637 36.9462 41.0255 34.2576 39.4039L32.3593 38.2976L32.3447 58.0051C32.3389 66.8966 32.3302 74.2858 32.3244 76.4403C31.7625 76.0996 30.8046 75.5086 29.6808 74.8099L26.6616 72.9436Z" fill="white"/>
</g>
<defs>
<clipPath id="clip0_342_5213">
<rect width="93.1659" height="93.1659" fill="white" transform="translate(0.459473 0.740234)"/>
</clipPath>
</defs>
</svg>
