<svg width="95" height="94" viewBox="0 0 95 94" fill="none" xmlns="http://www.w3.org/2000/svg">
<g clip-path="url(#clip0_342_5217)">
<path d="M47.5566 93.9061C73.2836 93.9061 94.1395 73.0502 94.1395 47.3232C94.1395 21.5961 73.2836 0.740234 47.5566 0.740234C21.8295 0.740234 0.973633 21.5961 0.973633 47.3232C0.973633 73.0502 21.8295 93.9061 47.5566 93.9061Z" fill="#666666"/>
<path fill-rule="evenodd" clip-rule="evenodd" d="M73.9986 62.3175C73.3994 63.3173 72.4328 64.0431 71.3056 64.3396C70.1783 64.6361 68.9797 64.4799 67.9661 63.9042L54.0524 56.0143V51.0066L58.4719 48.5028L72.3828 56.3898C74.4965 57.5864 75.2185 60.2416 73.9986 62.3146V62.3175ZM51.9736 72.9704C51.9736 75.3665 49.9967 77.3085 47.557 77.3085C45.1172 77.3085 43.1403 75.3665 43.1403 72.9704V57.1934L47.557 54.6895L51.9736 57.1934V72.9704ZM27.1478 63.9042C26.1339 64.4796 24.9351 64.6354 23.8077 64.3384C22.6804 64.0413 21.714 63.3149 21.1153 62.3146C20.8263 61.821 20.6387 61.2747 20.5636 60.7077C20.4885 60.1407 20.5273 59.5644 20.6778 59.0125C20.8283 58.4607 21.0874 57.9445 21.44 57.4941C21.7926 57.0438 22.2316 56.6683 22.7312 56.3898L36.642 48.4998L41.0616 51.0066V56.0143L27.1478 63.9042ZM22.7312 38.2574C22.2316 37.9789 21.7926 37.6035 21.44 37.1531C21.0874 36.7027 20.8283 36.1865 20.6778 35.6347C20.5273 35.0829 20.4885 34.5066 20.5636 33.9396C20.6387 33.3725 20.8263 32.8262 21.1153 32.3326C21.714 31.3323 22.6804 30.6059 23.8077 30.3089C24.9351 30.0118 26.1339 30.1676 27.1478 30.743L41.0616 38.633V43.6407L36.642 46.1445L22.7312 38.2574ZM43.1403 21.6768C43.1403 19.2807 45.1201 17.3388 47.557 17.3388C49.9967 17.3388 51.9736 19.2807 51.9736 21.6768V37.4509L47.557 39.9577L43.1403 37.4539V21.6768ZM54.0524 45.9989L56.3932 47.3236L54.0524 48.6483V45.9989ZM49.6357 41.1368L51.9736 39.8092V42.4615L49.6357 41.1368ZM43.1403 42.4615V39.8121L45.4782 41.1368L43.1403 42.4615ZM41.0616 48.6483L38.7208 47.3236L41.0616 45.9989V48.6483ZM45.4782 53.5104L43.1403 54.838V52.1857L45.4782 53.5104ZM51.9736 52.1857V54.8351L49.6357 53.5104L51.9736 52.1857ZM47.557 52.3313L43.1403 49.8275V44.8198L47.557 42.316L51.9736 44.8198V49.8275L47.557 52.3313ZM67.9661 30.743C68.98 30.1676 70.1789 30.0118 71.3062 30.3089C72.4335 30.6059 73.3999 31.3323 73.9986 32.3326C75.2214 34.4056 74.4935 37.0608 72.3828 38.2574L58.4719 46.1474L54.0524 43.6407V38.633L67.9661 30.743ZM73.4221 54.6226L60.5507 47.3236L73.4221 40.0247C74.1573 39.6155 74.8034 39.0635 75.3224 38.4013C75.8413 37.739 76.2228 36.9797 76.4444 36.168C76.666 35.3563 76.7232 34.5086 76.6126 33.6744C76.5021 32.8403 76.2261 32.0367 75.8008 31.3107C74.0073 28.2596 70.0332 27.2143 66.9267 28.9758L54.0524 36.2747V21.6739C54.0524 18.154 51.1439 15.2979 47.557 15.2979C43.9701 15.2979 41.0616 18.154 41.0616 21.6768V36.2747L28.1872 28.9758C25.0807 27.2143 21.1066 28.2596 19.3161 31.3107C18.8907 32.0367 18.6147 32.8403 18.5042 33.6744C18.3937 34.5086 18.4509 35.3563 18.6725 36.168C18.894 36.9797 19.2755 37.739 19.7945 38.4013C20.3135 39.0635 20.9595 39.6155 21.6947 40.0247L34.5632 47.3236L21.6947 54.6226C20.9593 55.0315 20.3129 55.5833 19.7937 56.2454C19.2744 56.9076 18.8926 57.6668 18.6708 58.4785C18.4489 59.2903 18.3915 60.1381 18.5018 60.9723C18.6121 61.8066 18.8879 62.6103 19.3131 63.3365C21.1066 66.3877 25.0807 67.4329 28.1872 65.6715L41.0616 58.3725V72.9704C41.0616 76.4933 43.9701 79.3494 47.557 79.3494C51.1439 79.3494 54.0524 76.4933 54.0524 72.9704V58.3725L66.9267 65.6715C70.0332 67.4329 74.0073 66.3877 75.8008 63.3365C76.2261 62.6105 76.5021 61.8069 76.6126 60.9728C76.7232 60.1387 76.666 59.2909 76.4444 58.4792C76.2228 57.6675 75.8413 56.9082 75.3224 56.246C74.8034 55.5837 74.1573 55.0318 73.4221 54.6226Z" fill="white"/>
</g>
<defs>
<clipPath id="clip0_342_5217">
<rect width="93.1659" height="93.1659" fill="white" transform="translate(0.973633 0.740234)"/>
</clipPath>
</defs>
</svg>
