<svg width="94" height="94" viewBox="0 0 94 94" fill="none" xmlns="http://www.w3.org/2000/svg">
<g clip-path="url(#clip0_342_5221)">
<path d="M47.0717 93.9061C72.7988 93.9061 93.6546 73.0502 93.6546 47.3232C93.6546 21.5961 72.7988 0.740234 47.0717 0.740234C21.3447 0.740234 0.48877 21.5961 0.48877 47.3232C0.48877 73.0502 21.3447 93.9061 47.0717 93.9061Z" fill="#FEC907"/>
<path d="M35.8948 67.1673C37.6941 67.1673 39.1556 68.594 39.1556 70.3466C39.1556 72.1022 37.6941 73.5259 35.8948 73.5259H31.6645C30.7328 73.5259 29.8361 73.1649 29.1781 72.5215C28.8529 72.2066 28.5942 71.8298 28.4172 71.4132C28.2402 70.9967 28.1484 70.5489 28.1475 70.0963V24.4654C28.1475 23.5774 28.5085 22.7272 29.1519 22.0984C29.7924 21.4724 30.6659 21.1201 31.5771 21.1201H36.1102C37.9095 21.1201 39.371 22.5438 39.371 24.2994C39.371 25.1437 39.0246 25.9502 38.4132 26.547C37.8018 27.141 36.972 27.4787 36.1102 27.4787H35.1058V67.1673H35.8948ZM71.3269 33.8256C73.5949 37.7211 74.7304 42.0795 74.7304 46.9009C74.7304 51.7222 73.5804 56.0806 71.2891 59.979C68.9978 63.8774 66.4503 66.8646 62.2665 69.5693C58.4235 72.0556 54.4115 73.523 49.4359 73.523H47.7851C45.9858 73.523 44.5243 72.0993 44.5243 70.3437C44.5243 68.5881 45.9858 67.1673 47.7851 67.1673H49.794C53.3168 67.1673 55.876 65.7087 58.7495 64.0521C61.6202 62.3984 63.4602 59.6879 65.1256 56.7648C66.7938 53.8446 67.6294 50.5809 67.6294 46.9766C67.6265 43.3227 66.7822 40.0357 65.0906 37.1126C63.4436 34.2336 61.0548 31.8489 58.1731 30.2067C55.25 28.5268 52.0008 27.6854 48.4285 27.6854H47.5638C45.7645 27.6854 44.303 26.2646 44.303 24.509C44.303 23.6647 44.6495 22.8553 45.2609 22.2614C45.8723 21.6646 46.6991 21.3297 47.5638 21.3297H48.5799C53.506 21.3297 57.9605 22.4361 61.9434 24.6546C65.8511 26.796 69.0966 29.968 71.3269 33.8256Z" fill="white"/>
</g>
<defs>
<clipPath id="clip0_342_5221">
<rect width="93.1659" height="93.1659" fill="white" transform="translate(0.487793 0.740234)"/>
</clipPath>
</defs>
</svg>
