<svg width="94" height="94" viewBox="0 0 94 94" fill="none" xmlns="http://www.w3.org/2000/svg">
<g clip-path="url(#clip0_342_5225)">
<path d="M46.5834 93.9061C72.3105 93.9061 93.1664 73.0502 93.1664 47.3232C93.1664 21.5961 72.3105 0.740234 46.5834 0.740234C20.8564 0.740234 0.000488281 21.5961 0.000488281 47.3232C0.000488281 73.0502 20.8564 93.9061 46.5834 93.9061Z" fill="#006AD2"/>
<path fill-rule="evenodd" clip-rule="evenodd" d="M36.0093 73.5256L37.4039 69.7931L34.9291 70.0377L34.0382 72.396C33.9684 72.5736 33.9101 72.7599 33.8199 72.9288C33.6248 73.2927 33.3249 73.5198 32.9086 73.5227C31.0744 73.5256 29.246 73.5227 27.4118 73.5198C27.3681 73.5198 27.3245 73.4936 27.2284 73.4645L28.3988 70.3055C26.2647 70.2473 24.1889 70.2124 22.1217 69.9766C22.1567 69.5893 33.948 39.8578 34.4167 38.964C34.5332 38.9552 34.67 38.9349 34.8098 38.9349H44.3302C44.4262 38.9349 44.5223 38.9349 44.6155 38.9407C45.5792 39.0135 46.1149 39.8287 45.7801 40.7545C45.3346 41.9773 44.863 43.1943 44.4059 44.4113L38.4141 60.3485C38.353 60.5115 38.3006 60.6804 38.2249 60.9016C38.3937 60.9104 38.5248 60.9278 38.6558 60.922C47.6696 60.529 54.2844 56.2259 58.5583 48.1408C59.4929 46.3738 60.1508 44.4738 60.509 42.5072C60.7215 41.3572 60.7885 40.2042 60.5003 39.0542C60.2098 37.8409 59.4874 36.7748 58.4681 36.0554C57.1055 35.0743 55.5741 34.655 53.9204 34.6463H21.8364C21.9063 34.4716 21.9383 34.3552 21.9936 34.2504L26.0347 26.9689C26.2233 26.5892 26.5177 26.2723 26.8824 26.0563C27.2472 25.8404 27.6666 25.7346 28.0902 25.7519H45.1687L46.9184 21.1227H52.1066C52.2347 21.1227 52.3628 21.114 52.4851 21.1314C52.8548 21.1897 53.0674 21.4808 53.0121 21.8593C52.9888 22.0165 52.9305 22.1679 52.8723 22.3193C52.5142 23.283 52.1474 24.2438 51.7893 25.2074C51.7281 25.3705 51.6786 25.5364 51.6146 25.7315H53.9583C54.0165 25.6063 54.0747 25.4782 54.1271 25.3472L55.5712 21.5128C55.7168 21.1256 55.7226 21.1227 56.1098 21.1227C57.7519 21.1227 59.3968 21.1169 61.0389 21.1227C61.7318 21.1256 61.9793 21.4925 61.7318 22.1621C61.3388 23.2364 60.9341 24.302 60.5323 25.3705C60.477 25.519 60.4275 25.6704 60.3576 25.8742C60.5177 25.9033 60.6487 25.9324 60.7798 25.9499C63.0652 26.2294 65.2896 26.7476 67.4004 27.6996C69.0046 28.4246 70.4632 29.3708 71.6627 30.6984C73.2873 32.4889 74.0937 34.6288 74.2218 37.0453C74.3441 39.389 73.9161 41.6483 73.1388 43.829C71.2988 48.9968 68.6843 53.6929 64.8994 57.6496C62.2908 60.3747 59.2804 62.5408 55.9788 64.2934C52.4152 66.1859 48.6478 67.5106 44.7465 68.4481C44.3971 68.5354 44.2137 68.6868 44.0943 69.0303C43.6664 70.224 43.2122 71.4119 42.7638 72.5998C42.4872 73.3276 42.2106 73.5256 41.4478 73.5256H36.0093Z" fill="white"/>
</g>
<defs>
<clipPath id="clip0_342_5225">
<rect width="93.1659" height="93.1659" fill="white" transform="translate(0.00146484 0.740234)"/>
</clipPath>
</defs>
</svg>
