<svg width="94" height="94" viewBox="0 0 94 94" fill="none" xmlns="http://www.w3.org/2000/svg">
<g clip-path="url(#clip0_342_5229)">
<path d="M47.0986 93.9061C72.8256 93.9061 93.6815 73.0502 93.6815 47.3232C93.6815 21.5961 72.8256 0.740234 47.0986 0.740234C21.3715 0.740234 0.515625 21.5961 0.515625 47.3232C0.515625 73.0502 21.3715 93.9061 47.0986 93.9061Z" fill="#F4D029"/>
<path fill-rule="evenodd" clip-rule="evenodd" d="M36.9084 32.7666V41.5009H16.5283V32.7666H36.9084ZM39.8198 32.7666H45.6427V61.8809H16.5283V44.4123H39.8198V32.7666ZM22.3512 50.2352V56.0581H39.8198V50.2352H22.3512ZM77.6684 38.5895H54.377V56.0581H71.8456V50.2352H60.1998V44.4123H77.6684V61.8809H48.5541V32.7666H77.6684V38.5895Z" fill="white"/>
</g>
<defs>
<clipPath id="clip0_342_5229">
<rect width="93.1659" height="93.1659" fill="white" transform="translate(0.515625 0.740234)"/>
</clipPath>
</defs>
</svg>
