<svg width="94" height="94" viewBox="0 0 94 94" fill="none" xmlns="http://www.w3.org/2000/svg">
<g clip-path="url(#clip0_342_5233)">
<path d="M46.6137 93.9061C72.3407 93.9061 93.1966 73.0502 93.1966 47.3232C93.1966 21.5961 72.3407 0.740234 46.6137 0.740234C20.8867 0.740234 0.0307617 21.5961 0.0307617 47.3232C0.0307617 73.0502 20.8867 93.9061 46.6137 93.9061Z" fill="#F4AE95"/>
<path d="M46.0516 26.8212L28.3093 64.6902H57.7643C58.6173 64.6902 59.3889 65.2143 59.7237 66.0149L59.7557 66.0877C59.8652 66.3485 59.914 66.6309 59.8983 66.9133C59.8827 67.1958 59.8031 67.471 59.6654 67.7181C59.4248 68.1527 59.0728 68.5153 58.6455 68.7686C58.2182 69.0219 57.7311 69.1568 57.2344 69.1593H25.9307C25.4462 69.1584 24.9733 69.0113 24.5739 68.7371L24.4109 68.6265C23.918 68.2824 23.5628 67.775 23.4083 67.1942C23.2538 66.6133 23.3098 65.9965 23.5666 65.453L44.4998 21.3477C44.7181 20.8877 45.0297 20.4801 45.4111 20.154C45.771 19.8437 46.229 19.6705 46.7042 19.6652C47.1795 19.6598 47.6413 19.8227 48.0081 20.1249C48.1746 20.2606 48.3089 20.4317 48.4011 20.6257L69.6342 65.0309C69.9253 65.6335 69.9836 66.3235 69.803 66.9699C69.7091 67.3218 69.502 67.633 69.2137 67.8556C68.9254 68.0782 68.5718 68.1997 68.2076 68.2014H67.963C67.4743 68.1985 66.9968 68.0554 66.587 67.7891C66.1772 67.5228 65.8525 67.1445 65.6513 66.6991L47.3384 26.827C47.2833 26.7027 47.1936 26.5969 47.0801 26.5221C46.9665 26.4472 46.8339 26.4066 46.6979 26.4049C46.5616 26.4049 46.4282 26.4442 46.3136 26.5181C46.1989 26.5919 46.108 26.6971 46.0516 26.8212Z" fill="white"/>
</g>
<defs>
<clipPath id="clip0_342_5233">
<rect width="93.1659" height="93.1659" fill="white" transform="translate(0.0297852 0.740234)"/>
</clipPath>
</defs>
</svg>
