<svg width="94" height="94" viewBox="0 0 94 94" fill="none" xmlns="http://www.w3.org/2000/svg">
<g clip-path="url(#clip0_342_5237)">
<path d="M47.1259 93.9061C72.853 93.9061 93.7088 73.0502 93.7088 47.3232C93.7088 21.5961 72.853 0.740234 47.1259 0.740234C21.3989 0.740234 0.542969 21.5961 0.542969 47.3232C0.542969 73.0502 21.3989 93.9061 47.1259 93.9061Z" fill="#0983CB"/>
<path d="M32.2071 79.1842C32.0785 79.1842 31.9177 79.1842 31.7891 79.1521C30.5674 78.927 29.7958 77.7696 30.0209 76.5479C31.339 69.6677 33.6217 63.3019 36.8368 57.5791C39.8267 52.2422 42.8489 48.8021 45.7424 45.4906C48.7324 42.0827 51.5295 38.8998 54.2301 33.7557C56.8664 28.7402 58.6669 23.2425 59.5671 17.4555C59.76 16.2337 60.8852 15.43 62.107 15.5907C63.3287 15.7836 64.1324 16.9089 63.9717 18.1306C62.975 24.4321 61.046 30.3799 58.1846 35.8133C55.2268 41.4075 52.1082 44.9762 49.0861 48.4163C46.1925 51.6956 43.4597 54.8142 40.6948 59.7332C37.737 65.0059 35.615 70.9537 34.3612 77.3516C34.1683 78.4447 33.2359 79.1842 32.2071 79.1842Z" fill="white"/>
<path d="M41.2416 42.5333C40.5343 42.5333 39.8591 42.2118 39.409 41.601C38.123 39.7684 36.9656 37.9037 35.9046 35.8782C33.0432 30.4448 31.082 24.497 30.1175 18.1955C29.9246 16.9738 30.7605 15.8485 31.9822 15.6556C33.204 15.4627 34.3292 16.2986 34.5221 17.5203C35.4223 23.3396 37.2228 28.8373 39.8591 33.8206C40.8236 35.6853 41.8846 37.3893 43.042 39.0611C43.7493 40.0578 43.5242 41.4402 42.4954 42.1475C42.1418 42.4047 41.6917 42.5333 41.2416 42.5333Z" fill="white" fill-opacity="0.3"/>
<path d="M41.5559 42.6223C40.9129 42.6223 40.2699 42.333 39.8198 41.7864C39.0481 40.8219 38.3408 39.9217 37.6978 38.9893C36.9905 37.9927 37.2156 36.6102 38.2444 35.9029C39.241 35.1956 40.6235 35.4207 41.3308 36.4495C41.9417 37.3175 42.5847 38.1534 43.292 39.0215C44.0636 39.986 43.9029 41.3685 42.9383 42.1401C42.5204 42.4616 42.0381 42.6223 41.5559 42.6223Z" fill="white" fill-opacity="0.5"/>
<path d="M61.9154 79.1852C60.8544 79.1852 59.9542 78.4457 59.7292 77.3848C58.5075 70.9868 56.3534 65.039 53.3955 59.7663C52.5596 58.2874 51.6916 56.8728 50.7271 55.5225C50.0198 54.5258 50.277 53.1434 51.2736 52.4361C52.2703 51.7287 53.6528 51.9859 54.3601 52.9826C55.3889 54.4615 56.3534 55.9726 57.2536 57.6123C60.4686 63.3029 62.7513 69.7008 64.0695 76.581C64.2945 77.8027 63.5229 78.9601 62.3012 79.1852C62.1726 79.1852 62.044 79.1852 61.9154 79.1852Z" fill="white" fill-opacity="0.3"/>
<path d="M54.1323 58.636C53.425 58.636 52.7498 58.3145 52.2997 57.6715C51.7853 56.932 51.3031 56.2569 50.7886 55.6139C50.0492 54.6493 50.2099 53.2347 51.1744 52.4953C52.139 51.7558 53.5536 51.9166 54.293 52.9132C54.8396 53.6205 55.3862 54.36 55.9327 55.1638C56.64 56.1604 56.3828 57.5429 55.3862 58.2502C55.0003 58.5074 54.5502 58.636 54.1323 58.636Z" fill="white" fill-opacity="0.5"/>
<path d="M56.0945 72.8189H38.1546C37.5437 72.8189 37.0293 72.3366 37.0293 71.6936C37.0293 71.0828 37.5116 70.5684 38.1546 70.5684H56.0945C56.7053 70.5684 57.2197 71.0506 57.2197 71.6936C57.2197 72.3366 56.7053 72.8189 56.0945 72.8189Z" fill="white"/>
<path d="M54.5195 68.0923H39.5696C38.9587 68.0923 38.4443 67.6101 38.4443 66.9671C38.4443 66.3241 38.9266 65.8418 39.5696 65.8418H54.5195C55.1304 65.8418 55.6448 66.3241 55.6448 66.9671C55.6448 67.6101 55.1304 68.0923 54.5195 68.0923Z" fill="white"/>
<path d="M52.2696 63.3658H41.6599C41.0491 63.3658 40.5347 62.8835 40.5347 62.2405C40.5347 61.5975 41.0169 61.1152 41.6599 61.1152H52.2696C52.8804 61.1152 53.3948 61.5975 53.3948 62.2405C53.3948 62.8835 52.8804 63.3658 52.2696 63.3658Z" fill="white"/>
<path d="M49.3116 58.6402H44.6819C44.071 58.6402 43.5566 58.1579 43.5566 57.5149C43.5566 56.8719 44.0389 56.3896 44.6819 56.3896H49.3116C49.9224 56.3896 50.4368 56.8719 50.4368 57.5149C50.4368 58.1579 49.9224 58.6402 49.3116 58.6402Z" fill="white"/>
<path d="M56.0945 22.439H38.1546C37.5437 22.439 37.0293 21.9567 37.0293 21.3137C37.0293 20.6707 37.5116 20.1885 38.1546 20.1885H56.0945C56.7053 20.1885 57.2197 20.6707 57.2197 21.3137C57.2197 21.9567 56.7053 22.439 56.0945 22.439Z" fill="white"/>
<path d="M54.5195 27.1646H39.5696C38.9587 27.1646 38.4443 26.6823 38.4443 26.0393C38.4443 25.3963 38.9266 24.9141 39.5696 24.9141H54.5195C55.1304 24.9141 55.6448 25.3963 55.6448 26.0393C55.6448 26.6823 55.1304 27.1646 54.5195 27.1646Z" fill="white"/>
<path d="M52.2696 31.8912H41.6599C41.0491 31.8912 40.5347 31.4089 40.5347 30.7659C40.5347 30.1229 41.0169 29.6406 41.6599 29.6406H52.2696C52.8804 29.6406 53.3948 30.1229 53.3948 30.7659C53.3948 31.4089 52.8804 31.8912 52.2696 31.8912Z" fill="white"/>
<path d="M49.3116 36.6177H44.6819C44.071 36.6177 43.5566 36.1355 43.5566 35.4925C43.5566 34.8494 44.0389 34.3672 44.6819 34.3672H49.3116C49.9224 34.3672 50.4368 34.8494 50.4368 35.4925C50.4368 36.1355 49.9224 36.6177 49.3116 36.6177Z" fill="white"/>
<path d="M47.1257 82.6889C27.6104 82.6889 11.7603 66.8387 11.7603 47.3234C11.7603 27.8082 27.6104 11.958 47.1257 11.958C66.641 11.958 82.4911 27.8082 82.4911 47.3234C82.4911 66.8387 66.641 82.6889 47.1257 82.6889ZM47.1257 16.3948C30.086 16.3948 16.197 30.2837 16.197 47.3234C16.197 64.3631 30.0538 78.2521 47.1257 78.2521C64.1975 78.2521 78.0544 64.3953 78.0544 47.3234C78.0544 30.2837 64.1654 16.3948 47.1257 16.3948Z" fill="white"/>
</g>
<defs>
<clipPath id="clip0_342_5237">
<rect width="93.1659" height="93.1659" fill="white" transform="translate(0.543457 0.740234)"/>
</clipPath>
</defs>
</svg>
