<svg width="94" height="94" viewBox="0 0 94 94" fill="none" xmlns="http://www.w3.org/2000/svg">
<g clip-path="url(#clip0_342_5271)">
<path d="M46.6406 93.9061C72.3676 93.9061 93.2235 73.0502 93.2235 47.3232C93.2235 21.5961 72.3676 0.740234 46.6406 0.740234C20.9135 0.740234 0.0576172 21.5961 0.0576172 47.3232C0.0576172 73.0502 20.9135 93.9061 46.6406 93.9061Z" fill="#2C398F"/>
<path d="M73.0622 56.3489C74.595 56.2726 76.057 55.6806 77.211 54.669C75.6068 62.8676 71.1232 70.9352 63.4283 75.3693C57.5414 78.7989 50.1813 79.9402 43.025 79.0668C41.9536 75.9749 39.144 72.682 34.2616 70.1957C26.5666 66.2303 22.9536 59.3739 19.6753 62.7337C19.3725 63.0248 19.1221 63.3654 18.9387 63.741C18.7922 63.4331 18.6581 63.1194 18.5369 62.8006C12.2482 47.207 18.5369 31.5435 31.1143 20.3199C38.6083 13.6644 47.3717 14.4039 55.2006 18.0344C54.7306 18.414 54.3536 18.8959 54.0983 19.4433C53.843 19.9908 53.7161 20.5894 53.7274 21.1933V36.9209C50.473 35.0257 46.6493 34.3533 42.9436 35.0247C39.2379 35.696 35.8931 37.667 33.5104 40.5835C31.1182 43.5061 29.8366 47.1805 29.892 50.9569C29.9474 54.7333 31.3363 58.3685 33.8132 61.2197C36.2815 64.0638 39.6832 65.9343 43.4071 66.4952C47.1309 67.0561 50.9326 66.2705 54.1292 64.2796C54.5207 65.1231 55.1892 65.807 56.0235 66.2177C56.8578 66.6283 57.8075 66.741 58.7147 66.5368C59.6219 66.3326 60.4318 65.824 61.0097 65.0955C61.5876 64.367 61.8986 63.4626 61.8911 62.5328V21.9998C67.9119 26.233 72.7274 31.6104 74.9343 35.308C76.0115 37.1655 76.7801 39.186 77.211 41.291C76.2648 40.5922 75.1614 40.1264 73.9997 39.9459C71.525 39.8119 69.65 43.1747 70.9223 48.0105C71.9937 52.3835 70.6545 56.215 73.0622 56.3489ZM42.8911 56.6167C34.4595 51.7779 41.5518 39.3432 49.9833 44.182C52.525 45.5941 52.7928 50.098 52.3241 52.9862C51.4536 57.9618 46.772 58.8353 42.8911 56.6167ZM46.839 24.4862C44.964 24.5531 43.6276 26.8386 43.6946 27.8489C43.7587 28.8562 45.1649 29.4618 47.1039 28.7893C48.8449 28.1837 50.452 28.5855 50.3822 27.5781C50.3152 26.5708 48.644 24.4192 46.839 24.4862Z" fill="white"/>
</g>
<defs>
<clipPath id="clip0_342_5271">
<rect width="93.1659" height="93.1659" fill="white" transform="translate(0.0576172 0.740234)"/>
</clipPath>
</defs>
</svg>
