<svg width="94" height="94" viewBox="0 0 94 94" fill="none" xmlns="http://www.w3.org/2000/svg">
<g clip-path="url(#clip0_342_5275)">
<path d="M47.1557 93.9061C72.8827 93.9061 93.7386 73.0502 93.7386 47.3232C93.7386 21.5961 72.8827 0.740234 47.1557 0.740234C21.4286 0.740234 0.572754 21.5961 0.572754 47.3232C0.572754 73.0502 21.4286 93.9061 47.1557 93.9061Z" fill="#786DBC"/>
<path d="M46.954 32.0997L42.2113 27.3453C41.5727 26.7346 41.2029 25.8951 41.1833 25.0117C41.1636 24.1283 41.4957 23.2732 42.1065 22.6346C42.7173 21.9961 43.5567 21.6263 44.4401 21.6066C45.3236 21.587 46.1786 21.9191 46.8172 22.5298L46.9278 22.6405L57.5138 33.2264C58.8152 34.5279 58.8152 36.6328 57.5138 37.9342L46.9162 48.5202C46.2874 49.1201 45.4489 49.4502 44.5799 49.44C43.711 49.4298 42.8804 49.0801 42.2659 48.4656C41.6514 47.8511 41.3017 47.0206 41.2915 46.1516C41.2813 45.2826 41.6114 44.4441 42.2113 43.8153L47.1811 38.8455C43.8328 38.2545 40.3837 38.7071 37.3012 40.1421C34.2188 41.5771 31.652 43.925 29.9487 46.8677C28.2455 49.8104 27.4881 53.2057 27.7792 56.5933C28.0703 59.9809 29.3958 63.1971 31.5762 65.8061C33.7565 68.4151 36.6862 70.2907 39.9683 71.1788C43.2504 72.0668 46.7261 71.9244 49.9246 70.7708C53.123 69.6172 55.8894 67.5081 57.849 64.7295C59.8085 61.9509 60.8665 58.637 60.8794 55.2369V18.6227C60.8794 17.7401 61.23 16.8937 61.8541 16.2696C62.4782 15.6455 63.3246 15.2949 64.2072 15.2949C65.0898 15.2949 65.9362 15.6455 66.5603 16.2696C67.1843 16.8937 67.535 17.7401 67.535 18.6227V55.6823C67.442 60.3838 65.9282 64.9471 63.1926 68.7719C60.4569 72.5967 56.6276 75.5039 52.2084 77.1111C47.7891 78.7182 42.9869 78.9501 38.4333 77.7761C33.8798 76.6022 29.7883 74.0774 26.6969 70.5339C23.6055 66.9904 21.6591 62.5942 21.1137 57.9235C20.5684 53.2528 21.4495 48.5264 23.6413 44.366C25.8331 40.2056 29.2329 36.8061 33.3934 34.6146C37.554 32.4231 42.2805 31.5423 46.9511 32.0881L46.954 32.0997Z" fill="white"/>
</g>
<defs>
<clipPath id="clip0_342_5275">
<rect width="93.1659" height="93.1659" fill="white" transform="translate(0.571777 0.740234)"/>
</clipPath>
</defs>
</svg>
