<svg width="94" height="94" viewBox="0 0 94 94" fill="none" xmlns="http://www.w3.org/2000/svg">
<g clip-path="url(#clip0_342_5279)">
<path d="M46.6674 93.9061C72.3945 93.9061 93.2503 73.0502 93.2503 47.3232C93.2503 21.5961 72.3945 0.740234 46.6674 0.740234C20.9404 0.740234 0.0844727 21.5961 0.0844727 47.3232C0.0844727 73.0502 20.9404 93.9061 46.6674 93.9061Z" fill="#C3A634"/>
<path fill-rule="evenodd" clip-rule="evenodd" d="M38.6554 43.2768H51.2153V49.9323H38.6554V63.9596H46.5774C49.713 63.9596 52.278 63.5375 54.2752 62.6873C56.2725 61.8401 57.8388 60.6668 58.9772 59.1645C60.1415 57.6022 60.9341 55.795 61.2947 53.8802C61.7153 51.7204 61.9201 49.5241 61.9061 47.3237C61.9201 45.1233 61.7153 42.927 61.2947 40.7671C60.9345 38.8523 60.1418 37.0449 58.9772 35.4829C57.8388 33.9806 56.2695 32.8073 54.2752 31.9601C52.278 31.1099 49.713 30.6878 46.5774 30.6878H38.6554V43.2797V43.2768ZM30.6023 49.9323H26.2876V43.2797H30.6023V24.0322H49.6693C53.1922 24.0322 56.2404 24.6436 58.817 25.8577C61.3937 27.0776 63.4957 28.74 65.129 30.8508C66.7594 32.9587 67.9735 35.4276 68.7683 38.2546C69.5631 41.0816 69.9591 44.1066 69.9591 47.3237C69.9791 50.3872 69.5774 53.4388 68.7654 56.3928C67.9735 59.2169 66.7594 61.6887 65.1261 63.7966C63.4957 65.9074 61.3937 67.5698 58.817 68.7897C56.2404 70.0067 53.1892 70.6152 49.6693 70.6152H30.6023V49.9323Z" fill="white"/>
</g>
<defs>
<clipPath id="clip0_342_5279">
<rect width="93.1659" height="93.1659" fill="white" transform="translate(0.0854492 0.740234)"/>
</clipPath>
</defs>
</svg>
