<svg width="94" height="94" viewBox="0 0 94 94" fill="none" xmlns="http://www.w3.org/2000/svg">
<g clip-path="url(#clip0_342_5283)">
<path d="M47.1825 93.9061C72.9096 93.9061 93.7655 73.0502 93.7655 47.3232C93.7655 21.5961 72.9096 0.740234 47.1825 0.740234C21.4555 0.740234 0.599609 21.5961 0.599609 47.3232C0.599609 73.0502 21.4555 93.9061 47.1825 93.9061Z" fill="#E6007A"/>
<path d="M47.9747 20.0283C37.182 20.0283 28.3633 28.7976 28.3633 39.6397C28.3633 41.8204 28.7243 43.9487 29.3998 46.0216C29.6389 46.706 30.1371 47.2691 30.7872 47.5898C31.4374 47.9106 32.1874 47.9632 32.876 47.7364C33.5598 47.4968 34.1223 46.9983 34.4425 46.3482C34.7626 45.6981 34.8148 44.9484 34.5879 44.2602C34.0187 42.644 33.7551 40.936 33.8106 39.2234C34.0173 31.9099 39.9333 25.889 47.2497 25.528C49.1662 25.4273 51.0832 25.7175 52.8839 26.381C54.6847 27.0445 56.3317 28.0674 57.7247 29.3874C59.1178 30.7074 60.2277 32.297 60.987 34.0596C61.7464 35.8221 62.1392 37.7206 62.1417 39.6397C62.1374 43.2489 60.7546 46.7202 58.2761 49.3437C55.7976 51.9673 52.4105 53.545 48.8074 53.7544C48.8074 53.7544 46.0561 53.9087 44.7081 54.1183C44.0326 54.2202 43.5144 54.325 43.1504 54.3774C42.9932 54.4298 42.8389 54.2726 42.8884 54.1154L43.3572 51.8357L45.8988 40.1085C46.047 39.4073 45.9123 38.6759 45.5241 38.0735C45.136 37.4711 44.5256 37.0462 43.8259 36.8913C43.1243 36.7433 42.3926 36.8783 41.7901 37.2671C41.1876 37.6559 40.763 38.2669 40.6088 38.9672C40.6088 38.9672 34.486 67.5051 34.4336 67.8166C34.2856 68.5182 34.4206 69.2499 34.8094 69.8524C35.1982 70.4549 35.8092 70.8795 36.5095 71.0337C37.2111 71.1818 37.9428 71.0467 38.5453 70.658C39.1478 70.2692 39.5724 69.6582 39.7266 68.9579C39.7761 68.6463 40.6088 64.8586 40.6088 64.8586C40.9035 63.4699 41.6198 62.206 42.66 61.2399C43.7002 60.2737 45.0133 59.6524 46.42 59.4608C47.4377 59.3493 48.458 59.2629 49.4799 59.2017C54.406 58.8177 59.0063 56.5907 62.3629 52.9648C65.7195 49.3389 67.5856 44.5808 67.589 39.6397C67.589 28.7976 58.7674 20.0283 47.9747 20.0283ZM49.3751 65.1701C48.9526 65.079 48.5163 65.0726 48.0913 65.1513C47.6664 65.2301 47.2613 65.3923 46.8995 65.6287C46.5377 65.8651 46.2265 66.171 45.9837 66.5285C45.741 66.8861 45.5716 67.2883 45.4854 67.7118C45.1215 69.4761 46.2133 71.2404 48.0271 71.6044C48.45 71.6959 48.8868 71.7025 49.3122 71.6238C49.7377 71.5451 50.1432 71.3826 50.5054 71.1459C50.8675 70.9091 51.179 70.6028 51.4218 70.2447C51.6646 69.8866 51.8338 69.4838 51.9197 69.0598C52.2807 67.2459 51.1918 65.5311 49.3751 65.1701Z" fill="white"/>
</g>
<defs>
<clipPath id="clip0_342_5283">
<rect width="93.1659" height="93.1659" fill="white" transform="translate(0.599609 0.740234)"/>
</clipPath>
</defs>
</svg>
