<svg width="94" height="94" viewBox="0 0 94 94" fill="none" xmlns="http://www.w3.org/2000/svg">
<g clip-path="url(#clip0_342_5293)">
<path d="M47.2094 93.9061C72.9364 93.9061 93.7923 73.0502 93.7923 47.3232C93.7923 21.5961 72.9364 0.740234 47.2094 0.740234C21.4824 0.740234 0.626465 21.5961 0.626465 47.3232C0.626465 73.0502 21.4824 93.9061 47.2094 93.9061Z" fill="#242D3D"/>
<path d="M67.9792 51.5953C66.375 44.5293 61.3877 36.7383 61.3877 36.7383C67.1349 52.4222 64.9222 64.2513 63.3995 70.9622C63.3995 70.9622 61.3906 78.4679 65.7141 72.2141C71.1061 64.3882 67.9792 51.5953 67.9792 51.5953Z" fill="white"/>
<path d="M53.7838 23.7739C56.7739 34.4239 58.1277 43.4639 58.5499 51.0016C59.2923 63.8468 57.3329 72.2987 56.1159 76.7619C55.7258 78.2147 57.3503 79.2949 58.2966 78.1973L58.314 78.1798C60.6781 75.4751 61.7961 69.1398 62.3202 63.579L62.4715 61.7535C62.9607 55.0572 62.6754 48.2998 61.1032 41.8247C58.2121 29.8762 53.7838 23.7739 53.7838 23.7739ZM48.4268 42.5351C47.6989 25.0432 46.3801 9.51074 46.3801 9.51074C46.3801 9.51074 45.0466 24.2659 44.3188 41.3676C44.2023 44.1422 44.0975 46.9634 44.0131 49.8021C43.8966 53.9276 43.8442 58.0705 43.8442 62.0738C43.8617 69.1893 44.1353 75.8652 44.7759 81.1902C45.0292 83.301 47.7659 83.301 48.0192 81.1902C48.4588 77.5567 48.7121 73.0935 48.814 68.1907C48.9086 62.8901 48.8863 57.588 48.7471 52.2884C48.6597 49.0422 48.5607 45.7639 48.4268 42.5351ZM27.9944 63.611C27.5954 60.3144 27.5038 56.9878 27.7207 53.6743C27.8895 51.0714 28.2622 48.2823 28.9056 45.3068C29.4967 42.5846 30.306 39.7285 31.4066 36.721C31.4066 36.721 27.8895 42.2149 25.8282 48.1455C25.4206 49.2809 25.0858 50.4455 24.8296 51.578C24.8296 51.578 24.1716 54.5535 24.0727 58.5247C24.0028 61.2789 24.2211 64.5397 25.1004 67.6171C25.5448 69.2281 26.2111 70.7694 27.0802 72.1968C27.0802 72.1968 31.4066 78.6369 29.3948 70.9449C28.7689 68.5332 28.3001 66.0834 27.9914 63.611H27.9944Z" fill="white"/>
<path d="M34.1603 60.1644C34.0192 56.682 34.0755 53.1943 34.3291 49.7182C34.5048 47.1518 34.7758 44.5928 35.1414 42.0466C35.8984 36.5702 37.1358 30.5027 39.0136 23.7744C39.0136 23.7744 34.565 29.8768 31.6768 41.8253C31.5225 42.4658 31.3857 43.1092 31.2518 43.7352C30.7277 46.338 30.39 48.9758 30.2211 51.6456C30.0173 54.9937 30.0697 58.371 30.3085 61.7366L30.4598 63.5795C30.9839 69.1404 32.0815 75.4757 34.4631 78.1804L34.4805 78.1978C35.4268 79.2809 37.0659 78.1978 36.6641 76.7625C35.7819 73.4668 34.4805 67.9904 34.1603 60.1644Z" fill="white"/>
<path d="M41.5467 60.8212C41.4513 56.9459 41.4338 53.069 41.4943 49.1929C41.5292 46.6425 41.5962 43.9524 41.7156 41.1312C42.0038 33.8468 43.3722 23.3161 44.3184 14.3926C44.3184 14.3926 39.6543 24.044 37.5231 41.4543C37.2378 43.8359 36.967 46.4038 36.7632 49.1784L36.6118 51.2397C36.6118 51.2397 36.3585 54.9226 36.4575 59.8925C36.5944 66.2801 37.3018 74.799 39.9396 80.3773C40.0269 80.5462 40.1259 80.6976 40.2599 80.814L40.2773 80.8344C41.2759 81.7806 42.8132 80.8839 42.6793 79.4136C42.059 73.2333 41.6802 67.0311 41.5438 60.8212H41.5467ZM51.2127 60.8212C51.3 57.3391 51.332 53.4553 51.2651 49.1929C51.2301 46.6425 51.1632 43.9524 51.0438 41.1312C50.7585 33.8468 49.3901 23.3161 48.441 14.3926C48.441 14.3926 53.108 24.044 55.2363 41.4543C55.5245 43.8359 55.7953 46.4038 55.9961 49.1784L56.1504 51.2397C56.1504 51.2397 56.4037 54.9226 56.3018 59.8925C56.165 66.2801 55.4575 74.799 52.8198 80.3773C52.7423 80.5423 52.6336 80.6906 52.4995 80.814L52.482 80.8344C51.4834 81.7806 49.9491 80.8839 50.083 79.4136C50.4207 76.2198 50.9943 69.8816 51.2127 60.8212Z" fill="white"/>
</g>
<defs>
<clipPath id="clip0_342_5293">
<rect width="93.1659" height="93.1659" fill="white" transform="translate(0.627441 0.740234)"/>
</clipPath>
</defs>
</svg>
