<svg width="94" height="94" viewBox="0 0 94 94" fill="none" xmlns="http://www.w3.org/2000/svg">
<g clip-path="url(#clip0_342_5301)">
<path d="M46.7245 93.9061C72.4516 93.9061 93.3075 73.0502 93.3075 47.3232C93.3075 21.5961 72.4516 0.740234 46.7245 0.740234C20.9975 0.740234 0.141602 21.5961 0.141602 47.3232C0.141602 73.0502 20.9975 93.9061 46.7245 93.9061Z" fill="#74D269"/>
<path d="M72.8197 42.9911H72.878L72.9275 57.4493L40.3864 76.4377L31.6754 71.5406V71.5464L31.6201 71.5115L23.4331 66.2622V28.3524L32.3799 23.074L32.3974 23.0827L40.2961 18.209L72.7586 37.3167L72.8197 42.9911ZM63.2848 52.0515L56.475 48.1531L33.7454 61.5282L40.4184 65.4965L63.2848 52.0515ZM54.9406 47.2767L40.9192 39.247L40.858 55.7869L54.9406 47.2767ZM40.925 37.4769L63.4653 50.6686V42.7931L40.9541 29.648L40.925 37.4769ZM31.6433 69.3629L31.7307 61.4642L31.6783 61.4962V33.6279L24.8451 29.5519V65.3043L31.6433 69.3629ZM32.8545 60.6257L39.6818 56.4972V29.5519L32.8545 33.6308V60.6257ZM41.2423 66.5388L41.1055 74.7956L71.4892 56.931L71.5766 48.7208L41.2423 66.5388ZM63.9311 41.547L71.003 37.5118L40.564 19.7375L33.5591 23.7902L63.9311 41.547Z" fill="white"/>
</g>
<defs>
<clipPath id="clip0_342_5301">
<rect width="93.1659" height="93.1659" fill="white" transform="translate(0.141602 0.740234)"/>
</clipPath>
</defs>
</svg>
