<svg width="94" height="94" viewBox="0 0 94 94" fill="none" xmlns="http://www.w3.org/2000/svg">
<g clip-path="url(#clip0_342_5305)">
<path d="M47.2392 93.9061C72.9662 93.9061 93.8221 73.0502 93.8221 47.3232C93.8221 21.5961 72.9662 0.740234 47.2392 0.740234C21.5121 0.740234 0.65625 21.5961 0.65625 47.3232C0.65625 73.0502 21.5121 93.9061 47.2392 93.9061Z" fill="#3C80F1"/>
<path d="M47.4846 12.3857C31.5591 12.3974 18.6498 25.3009 18.6323 41.2235C18.6469 42.7782 18.8216 44.3271 19.1506 45.8468C19.1673 45.9188 19.2016 45.9854 19.2503 46.0409C19.299 46.0964 19.3607 46.139 19.4298 46.1649C19.4989 46.1908 19.5734 46.1993 19.6466 46.1895C19.7198 46.1797 19.7894 46.152 19.8493 46.1089C20.9515 45.3196 22.2727 44.8942 23.6283 44.8919C23.6939 44.8941 23.759 44.8817 23.8192 44.8556C23.8793 44.8296 23.9329 44.7905 23.9761 44.7411C24.0193 44.6918 24.0509 44.6336 24.0688 44.5705C24.0868 44.5075 24.0904 44.4412 24.0796 44.3766C23.8879 43.3471 23.7885 42.3026 23.7826 41.2555C23.7826 38.1433 24.3956 35.0616 25.5866 32.1863C26.7776 29.311 28.5233 26.6984 30.7239 24.4977C32.9246 22.2971 35.5372 20.5514 38.4125 19.3604C41.2878 18.1694 44.3695 17.5564 47.4817 17.5564C50.5939 17.5564 53.6757 18.1694 56.551 19.3604C59.4263 20.5514 62.0388 22.2971 64.2395 24.4977C66.4402 26.6984 68.1858 29.311 69.3768 32.1863C70.5678 35.0616 71.1808 38.1433 71.1808 41.2555C71.1808 54.3279 54.4575 71.0249 48.4716 76.9206C48.2081 77.1791 47.8538 77.324 47.4846 77.324C47.1155 77.324 46.7611 77.1791 46.4977 76.9206C43.9635 74.4474 41.5042 71.8988 39.123 69.2781H39.0065C36.7164 69.053 34.4682 68.5142 32.3248 67.6768L31.9288 67.5166C31.8371 67.4744 31.7338 67.4647 31.6358 67.4893C31.5379 67.5139 31.4513 67.5713 31.3905 67.6518C31.3296 67.7324 31.2981 67.8314 31.3013 67.9323C31.3044 68.0332 31.342 68.13 31.4077 68.2067C35.1138 72.6354 39.0466 76.8695 43.1903 80.8918C44.337 82.0102 45.8755 82.6362 47.4773 82.6362C49.0792 82.6362 50.6177 82.0102 51.7644 80.8918C62.3038 70.4805 76.3369 55.079 76.3369 41.2235C76.3195 25.2979 63.4102 12.3974 47.4846 12.3857Z" fill="white"/>
<path d="M59.4791 44.1412C59.4791 44.5488 59.4471 44.9476 59.4093 45.3436C59.3045 46.8596 58.9534 48.3484 58.3699 49.7515C57.741 51.149 56.9025 52.4388 55.8864 53.583L55.9155 53.6092C53.9027 55.8583 51.4171 57.634 48.637 58.809C45.8838 59.9935 42.8795 60.4757 39.8939 60.2123C37.0488 59.9295 34.3294 58.8978 32.0127 57.2222C32.7609 57.199 33.5033 57.0854 34.2254 56.8845C34.8774 56.7041 35.5022 56.4368 36.0829 56.0897C37.3383 55.3402 38.3123 54.1984 38.8545 52.8405C39.1078 52.2204 39.2796 51.5741 39.3728 50.9103C39.431 50.3571 39.4456 49.7952 39.4252 49.2362V30.341C39.4238 30.3226 39.4238 30.3041 39.4252 30.2857V30.1867C39.4674 29.959 39.5805 29.7505 39.7484 29.591C39.9162 29.4315 40.1302 29.3292 40.3598 29.2987H46.599C48.078 29.4151 49.525 29.8024 50.8642 30.4429C53.6552 31.7625 55.9896 33.884 57.5692 36.5365C57.9535 37.1887 58.2913 37.8699 58.5737 38.5745C58.8444 39.2733 59.0599 40.0011 59.2142 40.7348C59.3685 41.4685 59.4558 42.2138 59.4762 42.962V44.1441L59.4791 44.1412ZM64.6149 42.7844C64.5833 41.7359 64.4576 40.6923 64.2393 39.6663C63.8065 37.6369 63.0432 35.6924 61.9801 33.9104C59.8727 30.3663 56.7526 27.5342 53.0216 25.7788C51.1151 24.8736 49.0584 24.3268 46.9542 24.1658C46.6892 24.1658 46.433 24.1658 46.1419 24.1367H40.3248C40.1385 24.1367 39.9463 24.1367 39.7571 24.1775C38.9972 24.2648 38.2577 24.4977 37.5793 24.8588C36.6468 25.357 35.8562 26.0842 35.2817 26.9718C34.7073 27.8595 34.3678 28.8786 34.2952 29.9334V49.2362C34.2952 49.5739 34.2719 49.9116 34.2254 50.2465C34.1962 50.4735 34.1409 50.6948 34.0594 50.9103C33.9957 51.0705 33.9073 51.2199 33.7974 51.3528C33.5289 51.641 33.1799 51.8418 32.7958 51.9293C32.2223 52.0748 31.6313 52.1214 31.0403 52.0661C28.9321 51.8597 26.9485 50.9727 25.3892 49.539C24.9413 49.1248 24.3609 48.8831 23.7514 48.857C23.1419 48.831 22.543 49.0223 22.0615 49.3968C21.5799 49.7714 21.2471 50.3048 21.1223 50.9019C20.9975 51.499 21.0889 52.1211 21.3801 52.6571C23.1967 55.9753 25.6904 58.8746 28.6995 61.1672C30.2514 62.325 31.9512 63.2699 33.7537 63.9768C35.5629 64.6828 37.4604 65.1373 39.3932 65.3277C43.2299 65.683 47.0948 65.0787 50.64 63.5692C54.1712 62.1087 57.3025 59.8258 59.7732 56.9107L59.8052 56.9369C61.1683 55.3956 62.2876 53.6548 63.1243 51.775C63.9173 49.8606 64.3942 47.8301 64.5363 45.7628C64.5771 45.2446 64.6033 44.7759 64.6207 44.2809V43.5502C64.6411 43.3347 64.6236 43.0407 64.6207 42.7844H64.6149Z" fill="white"/>
</g>
<defs>
<clipPath id="clip0_342_5305">
<rect width="93.1659" height="93.1659" fill="white" transform="translate(0.655273 0.740234)"/>
</clipPath>
</defs>
</svg>
