<svg width="94" height="94" viewBox="0 0 94 94" fill="none" xmlns="http://www.w3.org/2000/svg">
<g clip-path="url(#clip0_342_5311)">
<path d="M46.7519 93.9061C72.4789 93.9061 93.3348 73.0502 93.3348 47.3232C93.3348 21.5961 72.4789 0.740234 46.7519 0.740234C21.0248 0.740234 0.168945 21.5961 0.168945 47.3232C0.168945 73.0502 21.0248 93.9061 46.7519 93.9061Z" fill="#121747"/>
<path d="M52.6686 67.3247C52.6686 70.6583 49.9901 73.363 46.6827 73.363C43.3753 73.363 40.6997 70.6583 40.6997 67.3218V27.176C40.6997 23.8424 43.3782 21.1377 46.6827 21.1377C49.9871 21.1377 52.6686 23.8424 52.6686 27.1789V67.3247ZM32.5215 67.3392C32.5408 68.4048 32.2776 69.4564 31.7585 70.3872C31.2395 71.3179 30.4831 72.0946 29.5664 72.638C28.6547 73.177 27.615 73.4613 26.5559 73.4613C25.4969 73.4613 24.4572 73.177 23.5455 72.638C22.6293 72.0942 21.8735 71.3174 21.355 70.3867C20.8364 69.4559 20.5736 68.4045 20.5933 67.3392V58.3138C20.5736 57.2485 20.8364 56.1971 21.355 55.2663C21.8735 54.3356 22.6293 53.5588 23.5455 53.015C24.4572 52.4761 25.4969 52.1918 26.5559 52.1918C27.615 52.1918 28.6547 52.4761 29.5664 53.015C30.4825 53.5588 31.2383 54.3356 31.7569 55.2663C32.2754 56.1971 32.5382 57.2485 32.5185 58.3138L32.5215 67.3392Z" fill="white"/>
<path opacity="0.5" d="M72.8268 51.3988C72.8268 54.7324 70.1483 57.4371 66.8409 57.4371C63.5335 57.4371 60.855 54.7295 60.855 51.3959V36.1604C60.855 32.8239 63.5335 30.1191 66.8409 30.1191C70.1483 30.1191 72.8268 32.8239 72.8268 36.1604V51.3988Z" fill="white"/>
</g>
<defs>
<clipPath id="clip0_342_5311">
<rect width="93.1659" height="93.1659" fill="white" transform="translate(0.169922 0.740234)"/>
</clipPath>
</defs>
</svg>
