<svg width="94" height="94" viewBox="0 0 94 94" fill="none" xmlns="http://www.w3.org/2000/svg">
<g clip-path="url(#clip0_342_5317)">
<path d="M47.2665 93.9061C72.9936 93.9061 93.8495 73.0502 93.8495 47.3232C93.8495 21.5961 72.9936 0.740234 47.2665 0.740234C21.5395 0.740234 0.683594 21.5961 0.683594 47.3232C0.683594 73.0502 21.5395 93.9061 47.2665 93.9061Z" fill="#1693D4"/>
<path fill-rule="evenodd" clip-rule="evenodd" d="M29.5881 48.9949C29.513 47.9483 29.5082 46.8978 29.5735 45.8505H21.4215L12.3291 38.5778H31.236C33.0018 34.27 36.0108 30.5859 39.8791 27.9953C43.7474 25.4047 48.2996 24.025 52.9552 24.0323C65.8937 24.0323 76.3806 34.461 76.3806 47.3237C76.3806 60.1864 65.8937 70.6152 52.9552 70.6152C48.3361 70.6221 43.8179 69.2639 39.9682 66.7113C36.1185 64.1586 33.1089 60.5253 31.3175 56.2676H12.3291L21.4215 48.9949H29.5881ZM66.2983 47.7575C66.2983 45.341 65.9723 43.2332 65.3172 41.4339C64.6621 39.6346 63.7537 38.1265 62.595 36.9212C61.4333 35.7129 60.0591 34.8016 58.4666 34.1902C56.874 33.5788 55.1476 33.2702 53.2755 33.2702C51.255 33.2702 49.3742 33.6138 47.6331 34.3009C45.8921 34.988 44.3869 35.9546 43.1146 37.1978C41.8423 38.4438 40.8437 39.9461 40.1129 41.7105C39.3821 43.4748 39.0182 45.4371 39.0182 47.5916C39.0182 49.781 39.3821 51.7404 40.1129 53.4668C40.8408 55.1933 41.851 56.652 43.1408 57.8398C44.4335 59.0306 45.9591 59.9477 47.7176 60.5999C49.5716 61.2663 51.5296 61.5966 53.4997 61.5752C58.551 61.5752 62.4087 59.7905 65.0639 56.224L60.5716 52.6604C59.8233 53.7376 58.8713 54.5819 57.7096 55.1933C56.5509 55.8047 55.1272 56.1133 53.4444 56.1133C52.4719 56.1133 51.5345 55.9474 50.6377 55.6126C49.741 55.2778 48.9346 54.8236 48.2213 54.2471C47.5052 53.677 46.9158 52.964 46.4907 52.1534C46.0656 51.3428 45.8141 50.4525 45.7524 49.5393H66.243C66.2809 49.2424 66.2983 48.9454 66.2983 48.6484V47.7575ZM59.5613 44.7471H45.7524C45.9038 42.8547 46.6782 41.3029 48.0815 40.0946C49.4877 38.8893 51.1967 38.2837 53.2202 38.2837C54.3032 38.2837 55.2495 38.4584 56.053 38.8136C56.8566 39.1688 57.5233 39.6404 58.0473 40.2344C58.5714 40.8283 58.9528 41.5154 59.1974 42.2957C59.4429 43.0895 59.5656 43.9162 59.5613 44.7471Z" fill="white"/>
</g>
<defs>
<clipPath id="clip0_342_5317">
<rect width="93.1659" height="93.1659" fill="white" transform="translate(0.683594 0.740234)"/>
</clipPath>
</defs>
</svg>
