<svg width="94" height="94" viewBox="0 0 94 94" fill="none" xmlns="http://www.w3.org/2000/svg">
<g clip-path="url(#clip0_342_5321)">
<path d="M46.7812 93.9061C72.5082 93.9061 93.3641 73.0502 93.3641 47.3232C93.3641 21.5961 72.5082 0.740234 46.7812 0.740234C21.0541 0.740234 0.198242 21.5961 0.198242 47.3232C0.198242 73.0502 21.0541 93.9061 46.7812 93.9061Z" fill="#AA15DD"/>
<path d="M46.7782 75.3079C47.4769 75.3108 48.0447 75.8902 48.0476 76.6005C48.0507 76.9398 47.9191 77.2664 47.6817 77.5088C47.4442 77.7511 47.1204 77.8894 46.7811 77.8932C46.6129 77.8917 46.4466 77.8571 46.2918 77.7913C46.1369 77.7255 45.9966 77.6298 45.8787 77.5098C45.7608 77.3898 45.6677 77.2477 45.6048 77.0917C45.5418 76.9357 45.5102 76.7688 45.5117 76.6005C45.5102 76.4323 45.5418 76.2654 45.6048 76.1094C45.6677 75.9534 45.7608 75.8113 45.8787 75.6913C45.9966 75.5713 46.1369 75.4756 46.2918 75.4098C46.4466 75.344 46.6129 75.3094 46.7811 75.3079H46.7782ZM21.2158 33.8083C20.9217 33.6324 20.7082 33.3483 20.6211 33.0168C20.534 32.6854 20.5803 32.333 20.75 32.0352C20.8745 31.8138 21.0627 31.6348 21.2901 31.5214C21.5175 31.4081 21.7737 31.3656 22.0256 31.3995C22.2774 31.4333 22.5133 31.542 22.7027 31.7114C22.8921 31.8808 23.0262 32.1032 23.0879 32.3497C23.1533 32.597 23.145 32.8582 23.0637 33.1008C22.9825 33.3435 22.832 33.557 22.6308 33.7151C22.4316 33.8712 22.1901 33.9635 21.9377 33.9801C21.6852 33.9968 21.4337 33.9369 21.2158 33.8083ZM21.2158 60.8672C21.3606 60.7833 21.5207 60.7289 21.6866 60.7074C21.8526 60.6859 22.0212 60.6975 22.1826 60.7416C22.3441 60.7858 22.4951 60.8616 22.627 60.9646C22.7589 61.0676 22.8691 61.1958 22.951 61.3417C23.1195 61.6383 23.1651 61.9891 23.078 62.3189C22.9909 62.6487 22.7781 62.9313 22.4852 63.1061C22.3406 63.1908 22.1805 63.2457 22.0144 63.2677C21.8482 63.2896 21.6794 63.2782 21.5177 63.234C21.3561 63.1898 21.2049 63.1137 21.073 63.0102C20.9412 62.9068 20.8314 62.778 20.75 62.6315C20.5815 62.3349 20.5359 61.9841 20.623 61.6543C20.7101 61.3245 20.9229 61.0419 21.2158 60.8672ZM72.3406 33.8083C72.1958 33.8922 72.0357 33.9465 71.8698 33.9681C71.7038 33.9896 71.5352 33.978 71.3738 33.9338C71.2123 33.8897 71.0613 33.8139 70.9294 33.7109C70.7975 33.6079 70.6873 33.4797 70.6054 33.3337C70.4779 33.1111 70.4182 32.8562 70.4338 32.6001C70.4493 32.3441 70.5393 32.0981 70.6927 31.8926C70.8442 31.6888 71.0535 31.5353 71.2934 31.4522C71.5333 31.3691 71.7927 31.3603 72.0378 31.4267C72.2841 31.4964 72.5044 31.6369 72.6714 31.8308C72.8384 32.0247 72.9446 32.2635 72.9769 32.5174C73.0092 32.7712 72.966 33.029 72.8529 33.2585C72.7398 33.4881 72.5616 33.6793 72.3406 33.8083ZM46.7811 19.3385C46.4449 19.3301 46.1255 19.1898 45.8918 18.948C45.6581 18.7061 45.5289 18.3821 45.5321 18.0458C45.5321 17.5217 45.8465 17.0472 46.3211 16.8492C46.5549 16.7519 46.8127 16.7277 47.0606 16.7796C47.3084 16.8316 47.5348 16.9573 47.7099 17.1403C47.8868 17.3249 48.006 17.5572 48.0525 17.8086C48.0991 18.0601 48.0711 18.3196 47.9719 18.5553C47.8746 18.79 47.7091 18.9902 47.4968 19.1298C47.2845 19.2694 47.0352 19.3421 46.7811 19.3385ZM69.4903 60.6634C69.1815 61.2079 69.077 61.8447 69.1955 62.4594C69.3139 63.0741 69.6476 63.6265 70.1366 64.0173L49.317 76.2454C49.2367 75.629 48.9359 75.0626 48.4703 74.651C48.0046 74.2394 47.4055 74.0104 46.784 74.0065C46.1625 74.0104 45.5635 74.2394 45.0978 74.651C44.6321 75.0626 44.3313 75.629 44.2511 76.2454L23.4256 64.0173C23.9129 63.6258 24.245 63.0736 24.3623 62.4596C24.4797 61.8456 24.3747 61.2099 24.0661 60.6663C23.7648 60.1254 23.2761 59.7135 22.6921 59.5081C22.1081 59.3027 21.4691 59.318 20.8956 59.5512V35.0952C21.4684 35.3278 22.1064 35.3431 22.6898 35.1383C23.2731 34.9335 23.7615 34.5226 24.0632 33.983C24.3719 33.4406 24.4779 32.8062 24.3622 32.1929C24.2465 31.5796 23.9166 31.0274 23.4314 30.6348L44.2511 18.4068C44.3313 19.0231 44.6321 19.5895 45.0978 20.0012C45.5635 20.4128 46.1625 20.6418 46.784 20.6457C47.406 20.6417 48.0054 20.4123 48.4711 20.0001C48.9369 19.5878 49.2374 19.0208 49.317 18.4039L70.1425 30.6319C69.6558 31.0233 69.3242 31.5749 69.2069 32.1883C69.0896 32.8016 69.1941 33.4367 69.5019 33.9801C69.8032 34.5209 70.2919 34.9329 70.8759 35.1383C71.46 35.3437 72.099 35.3284 72.6725 35.0952V59.5366C72.0964 59.3032 71.4548 59.289 70.869 59.4966C70.2832 59.7042 69.7937 60.1193 69.4932 60.6634H69.4903ZM51.6956 56.9163C49.4336 58.2461 46.7577 58.6864 44.1889 58.1515C41.6201 57.6165 39.3424 56.1446 37.7993 54.0224L51.5355 45.9752L56.2171 43.2268L58.4356 41.9166L58.5637 41.8555L67.9967 36.3063C68.579 35.9657 68.7828 35.2087 68.4509 34.6148C68.3748 34.4722 68.2702 34.3468 68.1438 34.2461C68.0174 34.1455 67.8717 34.0717 67.7157 34.0295C67.5597 33.9872 67.3967 33.9773 67.2368 34.0003C67.0768 34.0234 66.9233 34.0789 66.7856 34.1635L59.8505 38.2541C58.5317 36.2816 56.7998 34.6194 54.7749 33.3827C52.7499 32.1461 50.4803 31.3644 48.1233 31.0919V23.1466C48.1248 22.9799 48.0935 22.8146 48.0311 22.66C47.9688 22.5054 47.8765 22.3646 47.7597 22.2456C47.6429 22.1267 47.5039 22.0319 47.3504 21.9667C47.197 21.9015 47.0322 21.8671 46.8655 21.8656C46.6986 21.8667 46.5335 21.9008 46.3798 21.9658C46.226 22.0309 46.0866 22.1256 45.9695 22.2446C45.8524 22.3636 45.7599 22.5045 45.6973 22.6593C45.6348 22.8141 45.6034 22.9797 45.6049 23.1466V31.0191C43.0176 31.1459 40.4998 31.8992 38.2681 33.2144C36.2539 34.3949 34.5133 35.9896 33.1614 37.893L26.8028 34.1635C26.6643 34.0824 26.511 34.0297 26.3518 34.0087C26.1927 33.9876 26.031 33.9986 25.8761 34.0409C25.7212 34.0832 25.5764 34.156 25.4501 34.2551C25.3237 34.3541 25.2185 34.4774 25.1404 34.6177C24.9801 34.9017 24.9369 35.2371 25.0201 35.5525C25.1033 35.8679 25.3063 36.1383 25.5859 36.3063L31.8949 40.0155C30.5454 42.7209 29.9519 45.7407 30.1772 48.7556L30.7624 52.0863C31.0244 52.9888 31.3534 53.8681 31.7552 54.7153L25.5859 58.34C25.3044 58.5086 25.1004 58.7808 25.0176 59.0983C24.9349 59.4157 24.98 59.7529 25.1433 60.0374C25.2222 60.1776 25.3282 60.3008 25.4552 60.3996C25.5821 60.4984 25.7275 60.5709 25.8828 60.613C26.0381 60.655 26.2002 60.6656 26.3597 60.6443C26.5192 60.6229 26.6728 60.57 26.8116 60.4887L33.0042 56.861C34.4213 58.9304 36.2923 60.6488 38.4746 61.8849C40.6569 63.1211 43.0927 63.8425 45.5962 63.994V71.4997C45.5962 72.2072 46.161 72.7807 46.8568 72.7807C47.0235 72.7792 47.1883 72.7449 47.3417 72.6797C47.4951 72.6145 47.6342 72.5197 47.751 72.4007C47.8678 72.2818 47.96 72.141 48.0224 71.9864C48.0848 71.8318 48.1161 71.6664 48.1145 71.4997V63.93C50.38 63.6972 52.5671 62.9718 54.5226 61.8046C56.7288 60.4936 58.5903 58.675 59.9524 56.5L66.7565 60.4829C67.3387 60.8148 68.0724 60.608 68.4072 60.0199C68.5689 59.7376 68.6143 59.4035 68.5339 59.0883C68.4534 58.7731 68.2535 58.5016 67.9763 58.3313L61.1287 54.3135C61.1461 54.2757 61.1869 54.232 61.1869 54.1854C63.2656 49.399 57.7019 47.3436 56.4645 51.0294C55.638 53.5041 53.9428 55.5955 51.6927 56.9163H51.6956ZM72.3435 60.8672C72.6361 61.043 72.8484 61.3261 72.9354 61.6561C73.0224 61.9862 72.9772 62.3372 72.8093 62.6344C72.7277 62.7807 72.6177 62.9092 72.4857 63.0123C72.3538 63.1155 72.2026 63.1913 72.0409 63.2352C71.8793 63.2791 71.7105 63.2903 71.5445 63.2682C71.3785 63.246 71.2185 63.1909 71.0741 63.1061C70.7812 62.9313 70.5684 62.6487 70.4813 62.3189C70.3942 61.9891 70.4398 61.6383 70.6083 61.3417C70.6897 61.1952 70.7995 61.0664 70.9313 60.963C71.0632 60.8595 71.2144 60.7835 71.376 60.7392C71.5377 60.695 71.7065 60.6836 71.8727 60.7055C72.0388 60.7275 72.1989 60.7825 72.3435 60.8672ZM35.9622 49.0322C35.837 44.1788 36.4135 40.7928 41.0106 38.091C42.867 36.9984 45.0136 36.5009 47.1614 36.6654C49.3091 36.8299 51.3549 37.6485 53.0232 39.011L35.9622 49.0322Z" fill="white"/>
</g>
<defs>
<clipPath id="clip0_342_5321">
<rect width="93.1659" height="93.1659" fill="white" transform="translate(0.197266 0.740234)"/>
</clipPath>
</defs>
</svg>
