<svg width="94" height="94" viewBox="0 0 94 94" fill="none" xmlns="http://www.w3.org/2000/svg">
<g clip-path="url(#clip0_342_5325)">
<path d="M47.2944 93.9061C73.0214 93.9061 93.8773 73.0502 93.8773 47.3232C93.8773 21.5961 73.0214 0.740234 47.2944 0.740234C21.5673 0.740234 0.711426 21.5961 0.711426 47.3232C0.711426 73.0502 21.5673 93.9061 47.2944 93.9061Z" fill="#2B1544"/>
<path d="M73.4686 37.1384V56.5169C73.4686 57.3787 73.5123 58.2579 73.3173 59.1052C72.876 61.0653 71.8603 62.8493 70.4 64.2293C69.7129 64.8902 68.8569 65.3182 68.0388 65.8015C62.4867 69.0332 56.9521 72.2736 51.4029 75.5111C49.7084 76.4165 47.7054 76.5709 45.8246 76.3379C44.8423 76.2182 43.8928 75.9076 43.0296 75.4238C37.1864 72.0174 31.3431 68.6023 25.5028 65.1988C24.0762 64.404 23.0106 63.0938 22.2274 61.6847C21.5869 60.4619 21.1182 59.1168 21.1182 57.7164V36.7949C21.2259 34.7569 22.1284 32.8266 23.4124 31.2864C23.9327 30.6354 24.5622 30.0798 25.2728 29.6444C30.7026 26.4826 36.1324 23.3091 41.5593 20.1356C42.4531 19.6407 43.3004 19.0351 44.267 18.7032C45.9014 18.1928 47.6368 18.0948 49.3183 18.4179C50.0665 18.6275 50.8293 18.8488 51.5019 19.2447C57.4121 22.7123 63.331 26.1536 69.2383 29.624C70.8134 30.5557 71.9693 32.1133 72.7204 33.7757C73.195 34.8238 73.4686 35.9797 73.4686 37.1384ZM47.1202 29.9297C45.8662 31.7889 44.4146 33.507 42.7909 35.0538C41.9407 35.8603 41.1226 36.7308 40.6364 37.8109C40.2463 38.5737 39.9843 39.4413 40.0949 40.3148C40.2259 41.491 41.0644 42.5275 42.1533 42.9467C43.2596 43.3893 44.5115 43.2903 45.6121 42.8594C45.8101 42.771 46.0292 42.7407 46.2438 42.772C46.0284 44.152 45.1899 45.3166 44.5261 46.5074L44.5552 46.7054C45.155 47.3459 45.7867 47.9515 46.3836 48.5803C46.535 48.723 46.6747 48.921 46.8844 48.9879C47.5802 48.4493 48.1246 47.7418 48.7651 47.1479C48.9078 46.9849 49.2018 46.8073 49.0475 46.554C48.4274 45.3894 47.7403 44.2103 47.5452 42.8652C47.6617 42.5915 47.9907 42.8215 48.1858 42.8885C49.2193 43.3951 50.4683 43.4708 51.5485 43.0544C53.0187 42.4925 53.9329 40.7719 53.6039 39.2172C53.3536 37.8197 52.6141 36.5386 51.6125 35.5604C50.0695 33.9737 48.5875 32.2792 47.5336 30.3169C47.4963 30.2266 47.4402 30.1453 47.3688 30.0785C47.2975 30.0117 47.2127 29.961 47.1202 29.9297ZM36.5429 48.8831C34.7961 49.8323 33.6286 51.6927 33.3404 53.6695C32.9415 56.4441 34.5632 59.3439 37.0757 60.4794C38.6654 61.1636 40.5112 61.149 42.1125 60.523C42.9394 60.1911 43.6468 59.6496 44.2553 59.012C44.4853 58.7674 44.8201 58.5491 44.8201 58.1735C44.791 57.7979 44.4533 57.5912 44.2349 57.335C43.9496 57.0817 43.7225 56.7527 43.3965 56.5518C42.8724 56.3218 42.558 56.8954 42.2202 57.1807C40.8955 58.5258 38.5111 58.5374 37.1543 57.2244C36.7172 56.8131 36.3881 56.3004 36.1961 55.7317C36.0042 55.1629 35.9553 54.5557 36.0538 53.9636C36.2169 52.8485 36.8807 51.7916 37.8706 51.2618C38.5111 50.9415 39.2302 50.7668 39.9377 50.7989C40.9363 50.8629 41.8505 51.3928 42.5259 52.1206C44.8318 54.4149 47.0503 56.7935 49.3474 59.0964C50.5644 60.2989 52.2501 61.0704 53.9679 61.0034C55.278 61.0325 56.5387 60.5085 57.6042 59.769C59.1735 58.6772 60.1285 56.7818 60.2245 54.8661C60.4342 51.8324 58.236 48.7725 55.2751 48.1873C53.3856 47.803 51.2515 48.1989 49.7958 49.544C48.7593 50.4873 47.816 51.5471 46.7912 52.5166C45.7343 51.6461 44.8988 50.5456 43.8652 49.6547C43.4239 49.236 42.9111 48.8998 42.3512 48.6619C42.2464 48.5949 42.2115 48.5629 42.0718 48.5076C41.1856 48.131 40.2231 47.9688 39.2624 48.034C38.3018 48.0993 37.3701 48.3902 36.5429 48.8831ZM51.2078 51.946C51.9619 51.1948 53.0275 50.7552 54.0901 50.8425C55.2431 50.8745 56.3611 51.4918 56.9725 52.4846C57.9274 53.9403 57.6479 56.0336 56.4193 57.2331C55.1557 58.4588 52.9896 58.6131 51.63 57.4544C50.6197 56.5955 49.7725 55.5707 48.8059 54.6681C48.7942 54.6041 48.7826 54.4818 48.771 54.4265C49.5774 53.588 50.4014 52.7844 51.2078 51.946Z" fill="white"/>
</g>
<defs>
<clipPath id="clip0_342_5325">
<rect width="93.1659" height="93.1659" fill="white" transform="translate(0.711426 0.740234)"/>
</clipPath>
</defs>
</svg>
