<svg width="94" height="94" viewBox="0 0 94 94" fill="none" xmlns="http://www.w3.org/2000/svg">
<g clip-path="url(#clip0_342_5329)">
<path d="M46.8085 93.9061C72.5356 93.9061 93.3915 73.0502 93.3915 47.3232C93.3915 21.5961 72.5356 0.740234 46.8085 0.740234C21.0815 0.740234 0.225586 21.5961 0.225586 47.3232C0.225586 73.0502 21.0815 93.9061 46.8085 93.9061Z" fill="#242424"/>
<path d="M38.2494 70.2478L46.0607 62.3957L53.9041 70.2478L48.8994 75.2613C48.527 75.6347 48.0845 75.931 47.5974 76.1332C47.1103 76.3353 46.5881 76.4394 46.0607 76.4394C45.5333 76.4394 45.0111 76.3353 44.524 76.1332C44.0369 75.931 43.5945 75.6347 43.2221 75.2613L38.2494 70.2478ZM58.4838 43.3404L50.6462 35.4882L58.4867 27.6361L66.3243 35.4882L58.4838 43.3404ZM56.5361 67.6887L48.6956 59.8365L69.7452 38.7519L74.7471 43.7625C76.3163 45.3347 76.3163 47.8764 74.7471 49.4485L56.5361 67.6887ZM34.9827 66.8793L27.1451 59.0272L48.1599 37.9775L55.9975 45.8296L34.9827 66.8793ZM23.8552 55.8158L18.8505 50.8024C18.1031 50.0431 17.6873 49.0184 17.6944 47.953C17.7015 46.8876 18.1309 45.8685 18.8883 45.1192L23.8902 40.1058L31.7307 47.9608L23.8552 55.8158ZM55.2026 24.4073L34.153 45.4803L26.3125 37.6281L44.5235 19.3851C44.8959 19.0117 45.3383 18.7154 45.8254 18.5132C46.3125 18.3111 46.8348 18.207 47.3621 18.207C47.8895 18.207 48.4117 18.3111 48.8988 18.5132C49.3859 18.7154 49.8284 19.0117 50.2008 19.3851L55.2026 24.4073Z" fill="white"/>
</g>
<defs>
<clipPath id="clip0_342_5329">
<rect width="93.1659" height="93.1659" fill="white" transform="translate(0.225586 0.740234)"/>
</clipPath>
</defs>
</svg>
