<svg width="94" height="94" viewBox="0 0 94 94" fill="none" xmlns="http://www.w3.org/2000/svg">
<g clip-path="url(#clip0_342_5333)">
<path d="M47.3229 93.9061C73.05 93.9061 93.9059 73.0502 93.9059 47.3232C93.9059 21.5961 73.05 0.740234 47.3229 0.740234C21.5959 0.740234 0.73999 21.5961 0.73999 47.3232C0.73999 73.0502 21.5959 93.9061 47.3229 93.9061Z" fill="#0FACF3"/>
<path d="M28.3142 26.9901H44.1291C50.4004 26.9901 53.5156 26.7921 58.1914 27.2201C62.87 27.715 67.5487 29.6249 70.5766 33.2846C74.1431 37.5353 75.1854 43.2708 74.9496 48.6074C74.7167 53.915 72.897 59.4817 68.7249 63.1064C65.0245 66.4371 59.8451 67.657 54.9306 67.689C45.3752 67.721 35.8519 67.689 26.2966 67.689C25.2543 67.622 24.0752 67.721 23.2687 66.9961C21.8567 65.5811 22.6981 62.5474 24.9515 62.6784C30.2678 62.5154 35.6161 62.6784 40.9353 62.5794C40.8334 58.0987 40.9004 53.618 40.9004 49.1694C36.7952 49.1344 32.7221 49.1694 28.6199 49.1694C27.7087 49.1344 26.6984 49.1344 25.9938 48.5405C25.1524 47.7835 25.1524 46.4996 25.5222 45.5126C25.9938 44.4237 27.2719 44.2257 28.3492 44.2257C32.5213 44.1908 36.7283 44.2257 40.8975 44.2257C40.9673 40.1381 40.8334 36.0504 40.9673 31.9977C36.2887 31.9657 31.6129 31.9977 26.9342 31.9977C25.8919 31.9657 24.7157 31.9657 23.9063 31.2407C23.0678 30.1519 23.2367 28.603 23.9413 27.5141C25.2863 26.8561 26.8352 26.9901 28.3142 26.9901ZM46.7553 44.2257C48.671 44.2578 50.5896 44.0918 52.5082 44.3568C54.7966 44.6857 54.7966 48.7064 52.4733 49.0354C50.5896 49.3324 48.639 49.1344 46.7203 49.1694C46.7553 53.0561 46.7203 56.9138 46.7203 60.8005C46.7553 61.4614 46.7873 62.4484 47.6287 62.5154C49.9171 62.7133 51.9085 62.6464 54.4938 62.6464C58.3282 62.8123 62.3664 61.6274 65.0565 58.8237C67.8166 55.8919 68.8268 51.8071 68.8938 47.9145C68.9957 43.5998 68.1863 38.8541 65.0216 35.6225C62.1655 32.7227 57.8595 31.7357 53.8533 31.9657C51.5708 31.9657 49.6143 31.8987 47.4948 32.0967C46.8222 32.2947 46.7873 33.1186 46.7553 33.7126V44.2228V44.2257Z" fill="white"/>
</g>
<defs>
<clipPath id="clip0_342_5333">
<rect width="93.1659" height="93.1659" fill="white" transform="translate(0.739502 0.740234)"/>
</clipPath>
</defs>
</svg>
