<svg width="94" height="94" viewBox="0 0 94 94" fill="none" xmlns="http://www.w3.org/2000/svg">
<g clip-path="url(#clip0_342_5337)">
<path d="M46.8354 93.9061C72.5624 93.9061 93.4183 73.0502 93.4183 47.3232C93.4183 21.5961 72.5624 0.740234 46.8354 0.740234C21.1083 0.740234 0.252441 21.5961 0.252441 47.3232C0.252441 73.0502 21.1083 93.9061 46.8354 93.9061Z" fill="#3FBADF"/>
<path d="M32.2788 65.1397L46.836 56.9295V73.3354L32.2788 65.1397ZM32.2788 38.9368L46.836 30.7266V47.1325L32.2788 38.9368Z" fill="white" fill-opacity="0.4"/>
<path d="M75.9502 56.728L61.3931 65.1304V48.5759L75.9502 56.728ZM75.9502 30.5251L61.3931 38.9275V22.373L75.9502 30.5251Z" fill="white" fill-opacity="0.7"/>
<path d="M32.2788 65.1304V48.5847L46.836 56.9405L32.2788 65.1304ZM32.2788 38.9275V22.3818L46.836 30.7377L32.2788 38.9275Z" fill="white" fill-opacity="0.8"/>
<path d="M61.3931 65.1304L46.8359 56.9434L61.3931 48.5759V65.1304ZM61.3931 38.9275L46.8359 30.7405L61.3931 22.373V38.9275Z" fill="white"/>
<path d="M61.3931 65.1311L46.8359 73.3355V56.9441L61.3931 65.1311ZM61.3931 38.9282L46.8359 47.1326V30.7412L61.3931 38.9282Z" fill="white" fill-opacity="0.6"/>
<path d="M32.2788 48.5847V65.1304L17.7217 56.7309L32.2788 48.5847ZM32.2788 22.3818V38.9275L17.7217 30.528L32.2788 22.3818Z" fill="white" fill-opacity="0.5"/>
</g>
<defs>
<clipPath id="clip0_342_5337">
<rect width="93.1659" height="93.1659" fill="white" transform="translate(0.253418 0.740234)"/>
</clipPath>
</defs>
</svg>
