<svg width="94" height="94" viewBox="0 0 94 94" fill="none" xmlns="http://www.w3.org/2000/svg">
<g clip-path="url(#clip0_342_5354)">
<path d="M46.8649 93.9061C72.592 93.9061 93.4479 73.0502 93.4479 47.3232C93.4479 21.5961 72.592 0.740234 46.8649 0.740234C21.1379 0.740234 0.281982 21.5961 0.281982 47.3232C0.281982 73.0502 21.1379 93.9061 46.8649 93.9061Z" fill="#2B5EBB"/>
<path fill-rule="evenodd" clip-rule="evenodd" d="M75.9792 47.2129C75.9763 54.014 70.7095 59.3187 63.9783 59.2983C57.3868 59.2779 52.0356 53.8277 52.0705 47.1693C52.1054 40.5137 57.5149 35.0868 64.0714 35.1305C70.7648 35.1741 75.9821 40.47 75.9792 47.2129ZM26.7469 70.3821C25.5835 70.383 24.4315 70.1529 23.3577 69.7051C22.2839 69.2574 21.3097 68.6009 20.4916 67.7738C19.6734 66.9468 19.0276 65.9655 18.5916 64.8869C18.1555 63.8083 17.9379 62.6539 17.9514 61.4906C17.966 56.5237 21.8498 52.5088 26.7323 52.6224C28.1356 52.6544 29.5447 53.1785 30.9131 53.6064C32.858 54.2149 34.7562 54.969 36.6952 55.6037C37.8977 55.9996 39.0477 55.7201 40.1103 55.0622C41.6534 54.1014 42.9635 52.9426 43.7991 51.2424C44.6434 49.513 46.565 48.8695 48.274 49.6032C49.8578 50.2845 50.6818 52.011 50.2247 53.688C49.7093 55.5717 48.1575 56.5848 46.2244 56.2471C44.5095 55.9472 42.8092 55.3941 41.0682 56.0258C37.953 57.1584 36.5846 59.7379 35.5598 62.6814C35.0008 64.2914 34.4068 65.9829 33.4053 67.3106C31.7982 69.4534 29.4341 70.3938 26.7469 70.3821ZM26.5605 24.2708C30.5405 24.2708 33.6411 26.6 34.992 30.4343C35.5277 31.9483 36.3313 33.3661 37.0184 34.8248C38.7158 38.435 42.9752 38.7901 45.677 37.8032C48.0702 36.9297 50.3761 38.467 50.4314 40.9475C50.4692 42.6653 49.5871 43.9172 47.9741 44.4238C46.5475 44.8663 44.9404 44.2636 44.067 42.9622C43.7555 42.4964 43.4643 42.0131 43.1179 41.5735C40.7421 38.5747 38.1044 37.7886 34.5291 39.1337C33.283 39.5995 32.1155 40.2983 30.9451 40.9475C29.8876 41.5499 28.7164 41.926 27.5059 42.0519C26.2953 42.1779 25.0718 42.051 23.9129 41.6793C22.754 41.3076 21.6849 40.6991 20.7735 39.8926C19.862 39.086 19.1281 38.0989 18.6181 36.9938C15.8348 31.0836 20.0855 24.2708 26.5605 24.2708ZM54.3065 70.5859C54.2716 73.8438 51.6134 76.4961 48.44 76.4379C45.3742 76.3797 42.8122 73.739 42.7335 70.7693C42.6491 67.4095 45.118 64.6757 48.5506 64.6437C51.8347 64.6117 54.3443 67.3193 54.3094 70.583L54.3065 70.5859ZM42.7714 24.0903C42.7714 20.7946 45.3509 18.1801 48.5797 18.2092C51.7182 18.2383 54.3443 20.9256 54.3181 24.0845C54.2948 27.4064 51.8085 30.0704 48.536 30.0093C44.8123 29.9394 42.62 26.9377 42.7714 24.0903Z" fill="white"/>
</g>
<defs>
<clipPath id="clip0_342_5354">
<rect width="93.1659" height="93.1659" fill="white" transform="translate(0.281494 0.740234)"/>
</clipPath>
</defs>
</svg>
