<svg width="94" height="94" viewBox="0 0 94 94" fill="none" xmlns="http://www.w3.org/2000/svg">
<g clip-path="url(#clip0_342_5358)">
<path d="M47.0414 93.4208C72.7685 93.4208 93.6244 72.5649 93.6244 46.8378C93.6244 21.1108 72.7685 0.254883 47.0414 0.254883C21.3144 0.254883 0.458496 21.1108 0.458496 46.8378C0.458496 72.5649 21.3144 93.4208 47.0414 93.4208Z" fill="#00ADED"/>
<path d="M29.8545 68.9748L29.8603 68.9632L39.142 46.7897L29.8545 24.6191L46.9883 46.7897L29.8661 68.9603L29.8545 68.9748ZM64.1395 68.9748L64.1279 68.9603L47.0057 46.7897L64.1395 24.6191L54.8521 46.7897L64.1337 68.9632L64.1395 68.9748Z" fill="white"/>
<path d="M46.997 46.7916V62.2396L29.8486 68.965L46.997 46.7799V31.3319L64.1453 24.6064L46.997 46.7916Z" fill="white" fill-opacity="0.8"/>
<path d="M46.997 62.2399V75.7809L29.8486 68.9566L46.997 62.2166V46.7918L29.8486 24.6067L46.997 31.3321V17.791L64.1453 24.6125L46.997 31.3525V46.7802L64.1453 68.9653L46.997 62.2399Z" fill="white" fill-opacity="0.5"/>
<path d="M29.8486 24.6125L46.997 17.791V31.3525L29.8486 24.6125ZM64.1453 68.9566L46.997 75.7809V62.2166L64.1453 68.9566Z" fill="white" fill-opacity="0.145"/>
</g>
<defs>
<clipPath id="clip0_342_5358">
<rect width="93.1659" height="93.1659" fill="white" transform="translate(0.459473 0.254883)"/>
</clipPath>
</defs>
</svg>
