<svg width="95" height="94" viewBox="0 0 95 94" fill="none" xmlns="http://www.w3.org/2000/svg">
<g clip-path="url(#clip0_342_5366)">
<path d="M47.5566 93.4208C73.2836 93.4208 94.1395 72.5649 94.1395 46.8378C94.1395 21.1108 73.2836 0.254883 47.5566 0.254883C21.8295 0.254883 0.973633 21.1108 0.973633 46.8378C0.973633 72.5649 21.8295 93.4208 47.5566 93.4208Z" fill="#396A28"/>
<path fill-rule="evenodd" clip-rule="evenodd" d="M53.5919 38.7212L47.5565 32.6887L41.4804 38.762L35.18 32.4616L47.5565 14.8125L60.0175 32.2957L53.5919 38.7212ZM39.3754 40.8698L33.407 46.8383L39.4395 52.8737L33.1624 59.1507L15.5308 46.8383L32.9702 34.4647L39.3754 40.8698ZM55.6328 52.9144L61.7061 46.8383L55.6969 40.8291L62.1777 34.3482L79.5823 46.8383L61.9856 59.2672L55.6328 52.9144ZM41.5473 54.9815L47.5565 60.9878L53.525 55.0194L59.8777 61.3751L47.5565 78.864L35.3169 61.2091L41.5473 54.9815ZM47.5565 36.7269L57.665 46.8383L47.5565 56.9468L37.448 46.8383L47.5565 36.7269Z" fill="white"/>
</g>
<defs>
<clipPath id="clip0_342_5366">
<rect width="93.1659" height="93.1659" fill="white" transform="translate(0.973633 0.254883)"/>
</clipPath>
</defs>
</svg>
