<svg width="94" height="94" viewBox="0 0 94 94" fill="none" xmlns="http://www.w3.org/2000/svg">
<g clip-path="url(#clip0_342_5374)">
<path d="M46.5834 93.4208C72.3105 93.4208 93.1664 72.5649 93.1664 46.8378C93.1664 21.1108 72.3105 0.254883 46.5834 0.254883C20.8564 0.254883 0.000488281 21.1108 0.000488281 46.8378C0.000488281 72.5649 20.8564 93.4208 46.5834 93.4208Z" fill="#00CCFF"/>
<path d="M22.983 56.0411H35.7846L30.2732 67.2181H17.4688L22.983 56.0411ZM30.2761 41.251H43.0806L37.5868 52.3989H24.7764L30.2791 41.2481L30.2761 41.251ZM37.5722 26.4609H50.3767L44.877 37.6117H32.0754L37.5722 26.458V26.4609Z" fill="white" fill-opacity="0.4"/>
<path d="M35.7437 56.0382H48.5482L43.034 67.2123H30.2295L35.7437 56.0353V56.0382ZM43.0398 41.2481H55.8414L50.3446 52.3931H37.5401L43.0398 41.2481ZM50.3329 26.458H63.1374L57.6377 37.6059H44.8362L50.3329 26.458Z" fill="white" fill-opacity="0.6"/>
<path d="M48.3014 56.0382H61.1059L55.5945 67.2123H42.79L48.3043 56.0353L48.3014 56.0382ZM55.5974 41.2481H68.4019L62.9051 52.3931H50.1006L55.5974 41.2481ZM62.8935 26.458H75.698L70.1983 37.6059H57.3967L62.8935 26.458Z" fill="white"/>
</g>
<defs>
<clipPath id="clip0_342_5374">
<rect width="93.1659" height="93.1659" fill="white" transform="translate(0.00146484 0.254883)"/>
</clipPath>
</defs>
</svg>
