<svg width="94" height="94" viewBox="0 0 94 94" fill="none" xmlns="http://www.w3.org/2000/svg">
<g clip-path="url(#clip0_342_5381)">
<path d="M47.0986 93.4208C72.8256 93.4208 93.6815 72.5649 93.6815 46.8378C93.6815 21.1108 72.8256 0.254883 47.0986 0.254883C21.3715 0.254883 0.515625 21.1108 0.515625 46.8378C0.515625 72.5649 21.3715 93.4208 47.0986 93.4208Z" fill="#2F2F2F"/>
<path fill-rule="evenodd" clip-rule="evenodd" d="M73.7354 30.2285C74.0673 30.4032 74.8272 30.8166 74.7544 31.7163L74.7078 62.0447C74.7293 62.3308 74.6616 62.6165 74.514 62.8626C74.3665 63.1087 74.1464 63.303 73.8839 63.4189L67.1876 67.3289L61.8888 70.4209L47.7858 78.6544C47.607 78.7912 47.3879 78.8649 47.1628 78.864C46.8791 78.8547 46.6037 78.7659 46.3679 78.6078L36.6379 72.9946C31.2343 69.8764 25.6444 66.6506 20.1359 63.4829C19.673 63.2588 19.4022 62.7376 19.443 62.1437L19.4634 54.1314C19.4808 46.9227 19.4925 39.6004 19.4983 32.5198V32.4907C19.5024 32.4423 19.5033 32.3937 19.5012 32.3452V32.2549C19.4896 31.8619 19.4721 31.0554 20.2291 30.6915C23.3152 28.8485 26.4712 26.9765 29.5253 25.1656L34.5825 22.1668C38.4314 19.8871 42.3502 17.5609 46.1408 15.3104L46.17 15.2929C46.4179 15.151 46.6769 15.0293 46.9444 14.929L47.2443 14.8125L47.5238 14.9785C50.278 16.5739 53.0788 18.2043 55.7835 19.7823L60.8378 22.7229L65.7726 25.5935L73.5374 30.1121H73.5433L73.5491 30.1179L73.7354 30.2285ZM48.205 75.8507L56.8287 70.8139C62.0578 67.7657 67.2858 64.7154 72.5126 61.6633L72.5417 44.6343L72.5563 33.3816L61.3473 39.9382V45.1089C61.3345 48.3357 61.3403 51.5626 61.3647 54.7894V55.0107L61.2337 55.1912C61.0907 55.3831 60.908 55.542 60.698 55.657L60.6223 55.7036H60.6194L56.9976 57.8144C55.6874 58.5713 54.3336 59.3574 53.0089 60.1348L48.2225 62.9152L48.205 75.8507ZM35.9887 39.2977C38.4366 40.7047 40.8861 42.109 43.3371 43.5105L47.1336 45.6912L58.1301 39.2627L47.1162 32.7644L35.9887 39.2977ZM34.8532 41.1901L35.0599 53.9684L46.0302 60.359L46.0477 47.6098L34.8532 41.1901ZM21.6935 33.6378L21.6382 61.806L46.0186 75.8682L46.0273 62.9094L41.2525 60.129L38.2596 58.385C36.7253 57.4941 35.1385 56.5712 33.5809 55.6599C33.1297 55.4474 32.8472 54.9291 32.8793 54.3614L32.6434 39.9236L21.6935 33.6378ZM71.4616 31.4659L67.1847 28.9737L62.4623 26.2224C57.9671 23.6138 52.6363 20.516 47.1366 17.296C41.5666 20.5871 35.9999 23.8838 30.4366 27.1861L22.7911 31.7192L33.7905 38.0224L46.4087 30.6128C46.6267 30.4724 46.8817 30.4002 47.141 30.4054C47.4003 30.4106 47.6522 30.4929 47.8644 30.642L60.3137 37.9817L71.4616 31.4659ZM48.2225 60.3677C51.9002 58.2246 55.5802 56.0857 59.2627 53.9509V41.161L48.2313 47.6069L48.2225 60.3677ZM63.1494 58.0589C63.04 58.0922 62.9261 58.1089 62.8117 58.1084C62.6571 58.1107 62.5037 58.0817 62.3606 58.0231C62.2175 57.9646 62.0877 57.8778 61.979 57.7678C61.8033 57.6094 61.672 57.408 61.5979 57.1833C61.5239 56.9586 61.5097 56.7186 61.5569 56.4868C61.606 56.1839 61.7601 55.908 61.9922 55.7074C62.2243 55.5067 62.5195 55.3941 62.8263 55.3891C63.1844 55.3891 63.5338 55.5522 63.787 55.8346L63.79 55.8404C63.965 56.0372 64.0796 56.2803 64.1198 56.5406C64.1601 56.8009 64.1244 57.0673 64.0171 57.3078C63.9434 57.4935 63.8261 57.6587 63.6751 57.7895C63.5241 57.9202 63.3438 58.0126 63.1494 58.0589ZM69.1586 62.1582C68.9887 62.0257 68.8541 61.8532 68.7667 61.6562C68.6794 61.4591 68.642 61.2436 68.6579 61.0286C68.6812 60.5657 68.9199 60.1552 69.3042 59.9222C69.4948 59.7979 69.7172 59.7312 69.9447 59.7301C70.1951 59.7301 70.4397 59.8087 70.6551 59.9543C70.8709 60.0958 71.0412 60.2967 71.1456 60.5327C71.2499 60.7688 71.2838 61.0299 71.2432 61.2848C71.2049 61.6052 71.051 61.9007 70.8103 62.1156C70.5696 62.3306 70.2587 62.4503 69.936 62.4523C69.6499 62.4513 69.3738 62.3469 69.1586 62.1582ZM30.7597 55.4037C31.1237 55.4037 31.4701 55.5697 31.7118 55.8579C31.885 56.051 31.9984 56.2903 32.0382 56.5467C32.078 56.803 32.0425 57.0654 31.936 57.302C31.8377 57.5413 31.6695 57.7454 31.4535 57.8877C31.2374 58.03 30.9835 58.1039 30.7248 58.0997C30.5299 58.0925 30.339 58.0424 30.1657 57.9531C29.9923 57.8638 29.8407 57.7373 29.7218 57.5828C29.6028 57.4283 29.5194 57.2494 29.4774 57.059C29.4353 56.8685 29.4358 56.6712 29.4787 56.4809C29.5372 56.1821 29.6961 55.9123 29.9292 55.7163C30.1622 55.5203 30.4553 55.41 30.7597 55.4037ZM65.5688 59.9921C65.3841 59.8374 65.2434 59.6367 65.1611 59.4103C65.0788 59.1838 65.0578 58.9396 65.1001 58.7024C65.1473 58.3943 65.3005 58.1123 65.5333 57.9051C65.7661 57.6978 66.0638 57.5782 66.3753 57.5669C66.6956 57.5669 67.0042 57.695 67.2487 57.9221C67.6185 58.2656 67.7728 58.7635 67.6505 59.2293C67.6099 59.4481 67.5127 59.6524 67.3687 59.8219C67.2247 59.9915 67.0388 60.1204 66.8295 60.1959C66.6203 60.2776 66.3931 60.3018 66.1714 60.2659C65.9497 60.2301 65.7416 60.1355 65.5688 59.9921ZM27.9968 57.8872C28.384 58.2074 28.5645 58.7169 28.4655 59.1886C28.434 59.3998 28.3497 59.5996 28.2205 59.7696C28.0912 59.9396 27.9211 60.0742 27.726 60.161H27.7231C27.5501 60.2431 27.3614 60.2868 27.1699 60.2891C26.9409 60.286 26.7172 60.2195 26.5236 60.0969C26.307 59.9617 26.1328 59.7681 26.0211 59.5385C25.9093 59.3088 25.8645 59.0524 25.8918 58.7984C25.9076 58.5478 25.9954 58.3071 26.1447 58.1052C26.2939 57.9032 26.4983 57.7487 26.7332 57.6601C26.8758 57.5988 27.0293 57.5671 27.1845 57.5669C27.4756 57.5669 27.7581 57.6775 27.9968 57.8872ZM46.9502 18.2101C47.3287 18.2101 47.6868 18.3732 47.9401 18.6585C48.2516 18.9875 48.3681 19.4446 48.2516 19.8813C48.195 20.1342 48.0627 20.3638 47.8724 20.5396C47.682 20.7154 47.4426 20.829 47.1861 20.8654H47.1715C46.9082 20.9171 46.6354 20.8887 46.3884 20.7839C46.1413 20.6791 45.9314 20.5026 45.7857 20.2773C45.6627 20.0877 45.5909 19.8697 45.5771 19.6442C45.5633 19.4187 45.6081 19.1935 45.707 18.9904L45.71 18.9846C45.804 18.7831 45.9471 18.6085 46.1261 18.4768C46.3052 18.345 46.5145 18.2604 46.7348 18.2305C46.8068 18.2173 46.8799 18.2104 46.9531 18.2101H46.9502ZM24.244 59.9106C24.6661 60.1493 24.9223 60.5802 24.9194 61.0461C24.9319 61.2808 24.8815 61.5146 24.7736 61.7234C24.6656 61.9322 24.5039 62.1084 24.3051 62.2339C24.0938 62.3723 23.8472 62.4471 23.5947 62.4494C23.3862 62.4512 23.1811 62.3969 23.0008 62.2922C22.7893 62.175 22.6137 62.0026 22.4927 61.7934C22.3717 61.5842 22.3098 61.346 22.3137 61.1043C22.3137 60.6006 22.5728 60.1435 22.9862 59.9106C23.176 59.7961 23.3934 59.7355 23.6151 59.7355C23.8367 59.7355 24.0542 59.7961 24.244 59.9106ZM47.6519 27.0551C47.8574 27.1829 48.0242 27.3643 48.1344 27.5797C48.2447 27.7951 48.2943 28.0364 48.2778 28.2779C48.2615 28.5173 48.1788 28.7473 48.0389 28.9423C47.899 29.1372 47.7075 29.2893 47.4859 29.3813C47.3031 29.4647 47.1046 29.5084 46.9036 29.5094C46.6052 29.5126 46.3146 29.414 46.0797 29.2299C45.9005 29.0974 45.7586 28.9208 45.6678 28.7172C45.577 28.5137 45.5404 28.2901 45.5615 28.0683C45.5738 27.8482 45.6427 27.635 45.7616 27.4493C45.8804 27.2637 46.0451 27.1119 46.2398 27.0085C46.4399 26.8933 46.6669 26.833 46.8978 26.8338C47.1662 26.8334 47.4289 26.9102 47.6548 27.0551H47.6519ZM45.9924 24.8482C45.8395 24.7137 45.7208 24.5449 45.6459 24.3556C45.571 24.1663 45.542 23.962 45.5615 23.7593V23.7506C45.5806 23.5419 45.6482 23.3406 45.7589 23.1627C45.8696 22.9847 46.0203 22.8351 46.1991 22.7258C46.4094 22.5858 46.6568 22.5118 46.9095 22.5132C47.1424 22.5132 47.3753 22.5744 47.5878 22.6879L47.5907 22.6908C47.8046 22.8059 47.9821 22.9783 48.1035 23.1886C48.2248 23.3989 48.2852 23.6389 48.2778 23.8816C48.2756 24.137 48.1986 24.3862 48.0563 24.5984C47.914 24.8105 47.7127 24.9763 47.4772 25.0753C47.2943 25.1586 47.0959 25.2023 46.8949 25.2034C46.5592 25.2073 46.2354 25.0798 45.9924 24.8482Z" fill="white"/>
</g>
<defs>
<clipPath id="clip0_342_5381">
<rect width="93.1659" height="93.1659" fill="white" transform="translate(0.515625 0.254883)"/>
</clipPath>
</defs>
</svg>
