<svg width="94" height="94" viewBox="0 0 94 94" fill="none" xmlns="http://www.w3.org/2000/svg">
<g clip-path="url(#clip0_342_5391)">
<path d="M47.1254 93.4208C72.8525 93.4208 93.7084 72.5649 93.7084 46.8378C93.7084 21.1108 72.8525 0.254883 47.1254 0.254883C21.3984 0.254883 0.54248 21.1108 0.54248 46.8378C0.54248 72.5649 21.3984 93.4208 47.1254 93.4208Z" fill="#624DBF"/>
<path d="M65.5056 26.458C66.9439 26.624 68.3996 26.7142 69.8204 26.9704C72.6357 27.5032 73.5557 28.8425 73.0783 31.5588C72.8861 32.6594 72.1757 33.3377 71.0461 33.5211C70.3728 33.616 69.6938 33.6646 69.0139 33.6667C59.7759 33.6871 50.5176 33.7046 41.2796 33.7424C39.8821 33.7424 38.4992 33.8705 37.1395 34.0918C32.5569 34.808 30.8334 36.6247 30.4491 41.0443C30.2744 43.1201 30.2744 43.1201 32.4434 43.1201H70.3735C70.9704 43.1376 71.5439 43.2482 72.0418 43.5569C73.7304 44.5875 73.3083 46.2004 73.2122 47.6882C73.1365 48.8819 72.3883 49.5399 71.1043 49.7786C70.5649 49.8611 70.0195 49.8981 69.4739 49.8892H31.6544C30.2569 49.8892 30.2773 49.8892 30.3908 51.211C30.4869 52.4222 30.5655 53.6159 30.8712 54.7892C31.4448 56.9727 32.8452 58.3295 35.1074 58.9351C37.617 59.6134 40.2053 59.7619 42.7935 59.7794C51.819 59.8347 60.8299 59.8172 69.8582 59.8172C71.0082 59.8172 72.0796 59.9628 72.7522 60.9731C74.0565 62.9179 73.0404 65.6313 70.7579 66.3301C68.8043 66.9357 66.7517 67.0812 64.7195 67.1016C56.2473 67.2472 47.775 67.2676 39.3027 67.1016C36.6899 67.0343 34.0875 66.7461 31.5234 66.2398C25.4851 65.0462 22.4746 62.1114 21.4586 56.3118C21.2286 54.9726 21.0946 53.6159 20.9229 52.2737V41.6877C21.0393 40.6396 21.1325 39.5973 21.2693 38.5696C22.0729 31.9985 25.1415 28.7697 31.8873 27.3402C34.2834 26.8248 36.7348 26.7142 39.1513 26.4755C47.9118 26.458 56.7044 26.458 65.5056 26.458Z" fill="white"/>
</g>
<defs>
<clipPath id="clip0_342_5391">
<rect width="93.1659" height="93.1659" fill="white" transform="translate(0.543457 0.254883)"/>
</clipPath>
</defs>
</svg>
