<svg width="94" height="94" viewBox="0 0 94 94" fill="none" xmlns="http://www.w3.org/2000/svg">
<g clip-path="url(#clip0_342_5385)">
<path d="M93.1962 46.8378C93.1962 56.0511 90.4641 65.0574 85.3455 72.7179C80.2269 80.3784 72.9517 86.3491 64.4398 89.8748C55.9278 93.4006 46.5616 94.3231 37.5253 92.5257C28.4891 90.7283 20.1889 86.2917 13.6741 79.7769C7.15938 73.2622 2.72279 64.9619 0.925372 55.9257C-0.87204 46.8895 0.0504569 37.5232 3.57621 29.0113C7.10196 20.4994 13.0726 13.2241 20.7331 8.10552C28.3937 2.98692 37.4 0.254883 46.6132 0.254883C58.9678 0.254883 70.8163 5.16271 79.5523 13.8987C88.2883 22.6347 93.1962 34.4833 93.1962 46.8378Z" fill="#9D4BEF"/>
<path d="M75.9023 33.2461H39.5645C36.4336 33.2462 33.4908 34.2698 31.3613 36.3271C30.1215 37.5252 28.976 39.2507 28.2568 41.7119H75.9023V51.875H27.9043C28.575 54.911 29.9625 56.7329 31.3945 57.8857C33.5896 59.6526 36.6269 60.4296 39.5645 60.4297H75.9023V70.5938H39.5645C35.1002 70.5937 29.5554 69.4524 25.0215 65.8027C20.2898 61.9937 17.3224 55.9845 17.3223 47.6787C17.3223 39.5762 19.8889 33.2799 24.2988 29.0186C28.6461 24.8182 34.2841 23.0821 39.5645 23.082H75.9023V33.2461Z" fill="white"/>
</g>
<defs>
<clipPath id="clip0_342_5385">
<rect width="93.1659" height="93.1659" fill="white" transform="translate(0.0297852 0.254883)"/>
</clipPath>
</defs>
</svg>
