<svg width="94" height="94" viewBox="0 0 94 94" fill="none" xmlns="http://www.w3.org/2000/svg">
<g clip-path="url(#clip0_342_5395)">
<path d="M46.6406 93.4208C72.3676 93.4208 93.2235 72.5649 93.2235 46.8378C93.2235 21.1108 72.3676 0.254883 46.6406 0.254883C20.9135 0.254883 0.0576172 21.1108 0.0576172 46.8378C0.0576172 72.5649 20.9135 93.4208 46.6406 93.4208Z" fill="#FA5836"/>
<path d="M42.9633 13.3623C42.6488 13.4059 41.4348 13.633 40.2673 13.8106C33.7515 14.9111 27.7336 18.1021 22.7463 23.1097C17.7386 28.097 14.6816 33.8704 13.4006 40.7443C12.8183 43.8683 12.8183 49.9764 13.4006 53.1004C14.6816 59.9714 17.7386 65.7448 22.7463 70.7321C27.7336 75.7397 33.504 78.7967 40.3779 80.0778C43.5019 80.66 49.6101 80.66 52.734 80.0778C59.605 78.7967 65.3813 75.7397 70.3686 70.7321C75.3763 65.7448 78.4333 59.9743 79.7143 53.1004C80.2966 49.9764 80.2966 43.8683 79.7143 40.7443C78.4333 33.8733 75.3763 28.097 70.3686 23.1097C65.4919 18.2127 59.9893 15.2256 53.3192 13.8805C51.2521 13.4525 44.3782 13.1148 42.9633 13.3623ZM54.9584 25.27C55.2262 25.3807 55.3165 25.7155 55.3165 26.6151V27.8292H53.9015C52.1052 27.8292 50.6902 28.5017 50.105 29.6255C49.7236 30.3447 49.7003 31.221 49.7003 41.8681C49.7003 48.1568 49.613 53.4352 49.5227 53.5924C49.0511 54.3116 45.5923 54.5154 44.0405 53.9069L43.4116 53.6594V42.0486C43.4116 31.2181 43.3883 30.3447 43.0069 29.6255C42.4247 28.5017 41.0068 27.8292 39.2104 27.8292H37.7955V26.6151C37.7955 25.8523 37.909 25.3574 38.0866 25.2904C38.4942 25.1099 54.5304 25.1099 54.9584 25.2671V25.27ZM42.0636 34.6332V37.3991L41.4115 37.7775C40.4478 38.3424 38.829 40.0252 38.1798 41.1257C37.7852 41.8472 37.4681 42.6084 37.2336 43.3966L36.8755 44.6776H34.293C31.3496 44.6776 31.4398 44.7883 32.0687 42.3194C32.8548 39.3293 34.7647 36.2956 37.0764 34.4556C38.3574 33.422 41.1873 31.8702 41.7492 31.8702C41.9967 31.8702 42.0636 32.4554 42.0636 34.6361V34.6332ZM53.2057 32.6592C55.125 33.6177 56.8174 34.9751 58.1695 36.6406C59.5217 38.3061 60.5025 40.2412 61.0462 42.3165C61.6751 44.7883 61.7653 44.6747 58.8219 44.6747H56.2394L55.8784 43.3937C55.6446 42.6066 55.3284 41.8464 54.9351 41.1257C54.2829 40.0252 52.6642 38.3424 51.7005 37.7775L51.0483 37.3991V34.6332C51.0483 32.4554 51.1153 31.8702 51.3628 31.8702C51.52 31.8702 52.3526 32.2313 53.2057 32.6563V32.6592ZM36.8988 46.7884C36.8988 47.8424 37.5946 49.9997 38.3137 51.1235C42.1539 57.2084 50.9581 57.2084 54.8012 51.1235C55.5203 49.9997 56.2161 47.8424 56.2161 46.7855V46.0227H61.5848L61.4713 47.1902C60.9094 52.6491 57.8989 57.0541 53.1824 59.3891C51.0047 60.4663 49.0948 60.9176 46.556 60.9176C38.6951 60.9176 32.4734 55.1879 31.6407 47.1902L31.5301 46.0256H36.8988V46.7884ZM49.8139 63.0284C50.105 64.6006 51.7238 65.5672 54.149 65.5672H55.3165V68.0361H37.7955V65.6312L39.4346 65.5206C40.4915 65.4536 41.3445 65.2527 41.8162 64.982C42.5149 64.5773 43.4116 63.2293 43.4116 62.6004C43.4116 62.3762 44.1308 62.3093 46.5327 62.3093H49.677L49.8139 63.0284Z" fill="#FEFFFF"/>
</g>
<defs>
<clipPath id="clip0_342_5395">
<rect width="93.1659" height="93.1659" fill="white" transform="translate(0.0576172 0.254883)"/>
</clipPath>
</defs>
</svg>
