<svg width="94" height="94" viewBox="0 0 94 94" fill="none" xmlns="http://www.w3.org/2000/svg">
<g clip-path="url(#clip0_342_5399)">
<path d="M47.1557 93.4208C72.8827 93.4208 93.7386 72.5649 93.7386 46.8378C93.7386 21.1108 72.8827 0.254883 47.1557 0.254883C21.4286 0.254883 0.572754 21.1108 0.572754 46.8378C0.572754 72.5649 21.4286 93.4208 47.1557 93.4208Z" fill="#443F54"/>
<path opacity="0.7" d="M45.7234 78.0123C41.6008 75.5027 36.5844 72.4573 32.4647 69.9477C30.6713 68.8733 28.7032 67.799 26.9097 66.5442C26.1935 66.0085 26.1935 65.4699 26.1935 65.1118C27.984 56.6919 29.9551 47.5558 31.929 39.3106L30.6713 35.3715C30.6713 35.3715 26.374 55.9728 24.2225 65.1118C23.8644 66.3637 24.2225 67.0828 25.4744 67.799C32.4618 71.9187 46.6172 80.8772 46.6172 80.8772L45.7234 78.0123ZM49.1269 78.0123C53.2465 75.5027 58.2629 72.4573 62.3855 69.9477C64.1761 68.8733 66.1471 67.799 67.9376 66.5442C68.6568 66.0085 68.6567 65.4699 68.6567 65.1118C66.8633 56.6919 64.8923 47.5558 62.9212 39.3106L64.3566 35.5491C64.3566 35.5491 68.6567 55.9728 70.6278 65.1118C70.9859 66.3637 70.6278 67.0828 69.373 67.799C62.3855 71.9187 48.2301 80.8772 48.2301 80.8772L49.1269 78.0123ZM62.7436 35.7296L62.0274 34.6523H33.0004L32.2842 35.7296C32.2842 35.7296 32.8228 37.162 32.6423 36.6234H62.5631C62.205 36.9815 62.7436 35.7296 62.7436 35.7296Z" fill="#FEFFFE"/>
<path d="M63.6403 34.1146C63.6403 34.1146 53.7851 19.7875 49.4849 13.5163C48.5882 12.439 48.0525 11.9033 47.5139 11.9033C46.9753 11.9033 46.262 12.4419 45.5428 13.5163C41.2427 19.607 31.3904 34.1205 31.3904 34.1205C30.4936 35.3724 30.4936 35.7334 31.2099 37.3434C31.2099 37.3434 38.1973 56.6957 41.0651 65.2932C42.4975 69.2353 46.2591 80.5229 46.2591 80.5229C46.4396 80.881 47.1558 81.0615 47.5139 81.0615C47.9827 81.0396 48.4276 80.8482 48.7658 80.5229C48.7658 80.5229 52.7108 69.2353 53.9627 65.2961C56.8305 56.8733 63.8179 37.3463 63.8179 37.3463C64.5341 35.7334 64.5341 35.3753 63.6403 34.1205V34.1146ZM47.5139 74.6069C42.9501 61.5966 38.4112 48.5776 33.8971 35.55C33.8971 35.55 43.5718 21.3975 47.3363 15.8396C51.0979 21.3975 60.7726 35.55 60.7726 35.55C60.7726 35.55 51.6336 62.4225 47.5139 74.6069Z" fill="#FEFFFE"/>
</g>
<defs>
<clipPath id="clip0_342_5399">
<rect width="93.1659" height="93.1659" fill="white" transform="translate(0.571777 0.254883)"/>
</clipPath>
</defs>
</svg>
