<svg width="94" height="94" viewBox="0 0 94 94" fill="none" xmlns="http://www.w3.org/2000/svg">
<g clip-path="url(#clip0_342_5413)">
<path d="M46.6962 93.4208C72.4233 93.4208 93.2792 72.5649 93.2792 46.8378C93.2792 21.1108 72.4233 0.254883 46.6962 0.254883C20.9692 0.254883 0.113281 21.1108 0.113281 46.8378C0.113281 72.5649 20.9692 93.4208 46.6962 93.4208Z" fill="#C9A35E"/>
<path d="M29.3068 56.6783C29.2183 56.8611 29.0802 57.0154 28.9083 57.1235C28.7363 57.2316 28.5374 57.2892 28.3343 57.2897H16.4761C16.2904 57.2884 16.1082 57.2389 15.9475 57.146C15.7867 57.0531 15.6528 56.92 15.559 56.7598C15.4589 56.5979 15.4035 56.4124 15.3983 56.2222C15.3932 56.0319 15.4386 55.8437 15.5299 55.6767L37.0861 16.8208C37.4733 16.1249 38.5855 16.1249 38.9727 16.8208L55.7775 47.0356C55.8618 47.2047 55.9032 47.3919 55.8981 47.5808C55.893 47.7696 55.8416 47.9543 55.7484 48.1187C55.6594 48.2829 55.5265 48.4191 55.3646 48.5122C55.2026 48.6053 55.018 48.6515 54.8313 48.6456H49.9168C49.7252 48.6428 49.5376 48.5903 49.3722 48.4934C49.2069 48.3964 49.0695 48.2583 48.9735 48.0925L38.0556 28.2365L25.8392 50.8146H30.5034C30.6854 50.8158 30.8643 50.8618 31.0243 50.9487C31.1843 51.0355 31.3203 51.1605 31.4205 51.3125C31.5177 51.4698 31.5738 51.6491 31.5835 51.8338C31.5932 52.0186 31.5561 52.2027 31.4758 52.3694L29.3097 56.6724L29.3068 56.6783ZM77.852 55.6767C77.9495 55.8417 77.9985 56.0309 77.9933 56.2225C77.9882 56.414 77.9291 56.6003 77.8229 56.7598C77.7341 56.9236 77.6017 57.0595 77.4403 57.1525C77.2789 57.2456 77.0949 57.292 76.9087 57.2868H44.5539C44.2667 57.2868 43.9912 57.1727 43.7881 56.9695C43.585 56.7664 43.4709 56.4909 43.4709 56.2037V51.9035C43.4709 51.2921 43.9687 50.8205 44.5539 50.8205H67.5776L55.3845 28.3209L53.0786 32.9297C52.6914 33.6517 51.4977 33.6517 51.1367 32.9297L48.9706 28.6266C48.9018 28.4737 48.8662 28.308 48.8662 28.1404C48.8662 27.9728 48.9018 27.8071 48.9706 27.6542L54.3567 16.8528C54.4507 16.6827 54.5868 16.5395 54.752 16.437C54.9172 16.3346 55.1059 16.2762 55.3 16.2676C55.4961 16.268 55.6887 16.3192 55.8591 16.4161C56.0295 16.513 56.1719 16.6524 56.2725 16.8208L77.852 55.6767ZM63.8276 59.9798L69.1847 69.7011C69.2803 69.8656 69.3307 70.0524 69.3307 70.2426C69.3307 70.4329 69.2803 70.6197 69.1847 70.7842C69.0959 70.9479 68.9635 71.0839 68.8021 71.1769C68.6407 71.27 68.4567 71.3164 68.2705 71.3111H25.1143C24.9222 71.3088 24.734 71.2565 24.5681 71.1596C24.4022 71.0626 24.2644 70.9242 24.1681 70.758C24.0763 70.5906 24.0306 70.4019 24.0357 70.211C24.0408 70.0202 24.0966 69.8342 24.1972 69.672L32.8325 55.6476L41.4416 40.5664C41.6367 40.2083 42.0239 39.9841 42.414 40.0132C42.6112 40.0083 42.8055 40.0607 42.9735 40.1641C43.1414 40.2674 43.2758 40.4173 43.3602 40.5955L45.5264 44.9015C45.6108 45.0607 45.6524 45.2391 45.6473 45.4192C45.6422 45.5994 45.5905 45.7751 45.4972 45.9293L34.5561 64.8128H58.8287L56.5782 61.0629C56.4719 60.9034 56.4129 60.7171 56.4077 60.5256C56.4026 60.334 56.4516 60.1448 56.549 59.9798C56.6453 59.8136 56.7832 59.6752 56.9491 59.5782C57.1149 59.4812 57.3031 59.429 57.4953 59.4267H62.8814C63.2715 59.4267 63.6326 59.6479 63.8276 59.9798Z" fill="white"/>
</g>
<defs>
<clipPath id="clip0_342_5413">
<rect width="93.1659" height="93.1659" fill="white" transform="translate(0.113281 0.254883)"/>
</clipPath>
</defs>
</svg>
