<svg width="94" height="94" viewBox="0 0 94 94" fill="none" xmlns="http://www.w3.org/2000/svg">
<g clip-path="url(#clip0_342_5417)">
<path d="M47.2094 93.4208C72.9364 93.4208 93.7923 72.5649 93.7923 46.8378C93.7923 21.1108 72.9364 0.254883 47.2094 0.254883C21.4824 0.254883 0.626465 21.1108 0.626465 46.8378C0.626465 72.5649 21.4824 93.4208 47.2094 93.4208Z" fill="#F68922"/>
<path d="M49.306 29.5959C49.306 29.5959 37.2906 31.3602 35.5408 44.7149C35.5408 44.7149 33.6833 59.6622 48.9567 63.6975C50.0144 63.9753 51.1035 64.1152 52.1971 64.1138H52.9482C54.5029 64.1138 55.9936 64.7369 57.0941 65.8432C58.1946 66.9496 58.8119 68.4519 58.8119 70.0182C58.8223 71.5008 58.2707 72.9324 57.2681 74.0247C56.2655 75.1169 54.8863 75.7888 53.4082 75.9051C45.8997 76.4117 35.8232 72.7258 29.2841 63.8634C29.2841 63.8634 16.4767 45.4486 30.4341 28.5274C33.7278 24.5047 38.0225 21.4201 42.8863 19.5834C48.6219 17.4377 57.0242 16.0577 64.3174 21.7845C64.3174 21.7845 74.0794 29.3455 69.0747 41.69C69.0747 41.69 65.5693 51.5161 53.5567 52.273L51.8885 52.1799C51.0982 52.159 50.3216 51.9686 49.6114 51.6215C48.9011 51.2744 48.2737 50.7788 47.7717 50.1681C47.2673 49.5548 46.8992 48.8411 46.6919 48.0746C46.4846 47.3081 46.4428 46.5062 46.5693 45.7223C46.7709 44.4496 47.4097 43.287 48.3756 42.4342C49.3416 41.5814 50.5744 41.0918 51.8623 41.0494L53.5567 40.933C53.5567 40.933 59.3126 40.6826 58.8119 33.8786C58.8119 33.8786 58.3111 27.8315 49.3031 29.5988" fill="white"/>
</g>
<defs>
<clipPath id="clip0_342_5417">
<rect width="93.1659" height="93.1659" fill="white" transform="translate(0.627441 0.254883)"/>
</clipPath>
</defs>
</svg>
