<svg width="94" height="94" viewBox="0 0 94 94" fill="none" xmlns="http://www.w3.org/2000/svg">
<g clip-path="url(#clip0_342_5421)">
<path d="M46.7245 93.4208C72.4516 93.4208 93.3075 72.5649 93.3075 46.8378C93.3075 21.1108 72.4516 0.254883 46.7245 0.254883C20.9975 0.254883 0.141602 21.1108 0.141602 46.8378C0.141602 72.5649 20.9975 93.4208 46.7245 93.4208Z" fill="#328332"/>
<path d="M46.6922 48.4476L27.1245 46.7677L46.6893 35.6984V48.4476H46.6922ZM46.6922 61.4326V81.638C39.8882 71.0462 32.3884 59.3888 26.3442 49.9528C33.4773 53.9706 40.9247 58.1718 46.6922 61.4355V61.4326ZM46.6922 32.1203L26.3442 43.4749L46.6922 11.9004V32.1203Z" fill="white"/>
<path d="M66.2596 46.7677L46.6919 48.4476V35.6984L66.2567 46.7677H66.2596ZM46.6919 61.4355C52.4565 58.1747 59.9011 53.9706 67.037 49.9528C60.9929 59.3917 53.493 71.0491 46.6919 81.635V61.4355ZM46.6919 32.1203V11.9004L67.037 43.4749L46.6919 32.1203Z" fill="white" fill-opacity="0.601"/>
<path opacity="0.2" fill-rule="evenodd" clip-rule="evenodd" d="M46.6919 48.4475L66.2567 46.7676L46.6919 57.7582V48.4475Z" fill="white"/>
<path opacity="0.603" fill-rule="evenodd" clip-rule="evenodd" d="M46.6893 48.4475L27.1216 46.7676L46.6893 57.7582V48.4475Z" fill="white"/>
</g>
<defs>
<clipPath id="clip0_342_5421">
<rect width="93.1659" height="93.1659" fill="white" transform="translate(0.141602 0.254883)"/>
</clipPath>
</defs>
</svg>
