<svg width="94" height="94" viewBox="0 0 94 94" fill="none" xmlns="http://www.w3.org/2000/svg">
<g clip-path="url(#clip0_342_5438)">
<path d="M46.7519 93.4208C72.4789 93.4208 93.3348 72.5649 93.3348 46.8378C93.3348 21.1108 72.4789 0.254883 46.7519 0.254883C21.0248 0.254883 0.168945 21.1108 0.168945 46.8378C0.168945 72.5649 21.0248 93.4208 46.7519 93.4208Z" fill="#627EEA"/>
<path d="M48.2026 11.9004V37.7248L70.0297 47.4781L48.2026 11.9004Z" fill="white" fill-opacity="0.602"/>
<path d="M48.2025 11.9004L26.3726 47.4781L48.2025 37.7248V11.9004Z" fill="white"/>
<path d="M48.2026 64.2135V81.7607L70.0442 51.543L48.2026 64.2135Z" fill="white" fill-opacity="0.602"/>
<path d="M48.2025 81.7607V64.2106L26.3726 51.543L48.2025 81.7607Z" fill="white"/>
<path d="M48.2026 60.1514L70.0297 47.4779L48.2026 37.7305V60.1514Z" fill="white" fill-opacity="0.2"/>
<path d="M26.3726 47.4779L48.2025 60.1514V37.7305L26.3726 47.4779Z" fill="white" fill-opacity="0.602"/>
</g>
<defs>
<clipPath id="clip0_342_5438">
<rect width="93.1659" height="93.1659" fill="white" transform="translate(0.169922 0.254883)"/>
</clipPath>
</defs>
</svg>
