<svg width="94" height="94" viewBox="0 0 94 94" fill="none" xmlns="http://www.w3.org/2000/svg">
<g clip-path="url(#clip0_342_5429)">
<path fill-rule="evenodd" clip-rule="evenodd" d="M47.0566 0.254883C56.2698 0.254883 65.2761 2.98692 72.9367 8.10552C80.5972 13.2241 86.5678 20.4994 90.0936 29.0113C93.6193 37.5232 94.5418 46.8895 92.7444 55.9257C90.947 64.9619 86.5104 73.2622 79.9957 79.7769C73.4809 86.2917 65.1806 90.7283 56.1444 92.5257C47.1082 94.3231 37.742 93.4006 29.2301 89.8748C20.7181 86.3491 13.4429 80.3784 8.32427 72.7179C3.20567 65.0574 0.473633 56.0511 0.473633 46.8378C0.473633 34.4833 5.38146 22.6347 14.1175 13.8987C22.8535 5.16271 34.702 0.254883 47.0566 0.254883V0.254883Z" fill="white"/>
<path fill-rule="evenodd" clip-rule="evenodd" d="M47.056 10.2578L59.3116 28.5691L71.5671 46.8847L47.056 59.2334L22.5449 46.8381L34.8005 28.5226L47.056 10.2578ZM47.056 64.167L23.9043 51.814L47.056 83.4184L70.2077 51.814L47.056 64.167Z" fill="#343434"/>
<path fill-rule="evenodd" clip-rule="evenodd" d="M47.0566 10.2578L59.3122 28.5226L71.5677 46.8381L47.0566 37.5851V10.2578Z" fill="#343434"/>
<path fill-rule="evenodd" clip-rule="evenodd" d="M47.0566 64.1664L70.2549 51.8135L47.0566 83.4645V64.1664Z" fill="#313131"/>
<path fill-rule="evenodd" clip-rule="evenodd" d="M47.0566 37.585L71.5677 46.838L47.0566 59.1867V37.585Z" fill="#151515"/>
<path fill-rule="evenodd" clip-rule="evenodd" d="M47.056 10.2578L34.8005 28.5226L22.5449 46.8381L47.056 37.5851V10.2578Z" fill="#8C8C8C"/>
<path fill-rule="evenodd" clip-rule="evenodd" d="M47.0565 64.1664L23.9048 51.8135L47.0565 83.4645V64.1664Z" fill="#8A8A8A"/>
<path fill-rule="evenodd" clip-rule="evenodd" d="M47.056 37.585L22.5449 46.838L47.056 59.1867V37.585Z" fill="#353535"/>
</g>
<defs>
<clipPath id="clip0_342_5429">
<rect width="93.1659" height="93.1659" fill="white" transform="translate(0.655273 0.254883)"/>
</clipPath>
</defs>
</svg>
