<svg width="94" height="94" viewBox="0 0 94 94" fill="none" xmlns="http://www.w3.org/2000/svg">
<g clip-path="url(#clip0_342_5448)">
<path d="M47.2665 93.4208C72.9936 93.4208 93.8495 72.5649 93.8495 46.8378C93.8495 21.1108 72.9936 0.254883 47.2665 0.254883C21.5395 0.254883 0.683594 21.1108 0.683594 46.8378C0.683594 72.5649 21.5395 93.4208 47.2665 93.4208Z" fill="#00FFBA"/>
<path d="M32.333 32.0001C31.5335 32.8182 31.0407 33.8872 30.9378 35.0265C30.8349 36.1658 31.1282 37.3057 31.7682 38.2538C32.2207 38.9348 32.8354 39.4925 33.5571 39.8768C34.2788 40.261 35.0848 40.4597 35.9024 40.4549C37.5923 40.4553 39.2128 41.1269 40.4074 42.3221C41.6021 43.5173 42.273 45.1381 42.2726 46.828C42.2722 48.5179 41.6006 50.1384 40.4054 51.333C39.2102 52.5277 37.5894 53.1986 35.8995 53.1982C32.3844 53.1995 28.9483 52.1553 26.0283 50.1984C23.1083 48.2415 20.8364 45.4603 19.5014 42.2086C18.1664 38.9568 17.8288 35.3815 18.5314 31.9374C19.2341 28.4932 20.9452 25.3359 23.4473 22.8669C26.5815 19.7667 30.7593 17.9467 35.1639 17.7625C39.5686 17.5784 43.8836 19.0434 47.2657 21.8712C45.2752 23.5354 43.6744 25.6165 42.5767 27.9675C41.479 30.3184 40.911 32.8817 40.913 35.4763C40.9122 37.1598 41.5778 38.7751 42.7643 39.9693C43.9509 41.1635 45.5619 41.8395 47.2453 41.8495C46.4085 41.8495 45.5799 41.6846 44.8069 41.3643C44.0338 41.044 43.3314 40.5745 42.7399 39.9826C42.1483 39.3908 41.6791 38.6882 41.3592 37.915C41.0392 37.1418 40.8747 36.3131 40.8751 35.4763C40.88 34.4857 40.5857 33.5166 40.0308 32.6959C39.4887 31.8935 38.7264 31.2646 37.8356 30.885C37.2223 30.6284 36.5642 30.4963 35.8995 30.4963C35.2347 30.4963 34.5766 30.6284 33.9634 30.885C33.351 31.1443 32.7967 31.5235 32.333 32.0001ZM74.9564 51.2971C76.3104 54.5068 76.6895 58.0442 76.0465 61.468C75.4035 64.8918 73.7667 68.0506 71.3404 70.5504C68.8838 73.0817 65.7273 74.8219 62.2755 75.5481C58.8236 76.2742 55.2336 75.9532 51.9653 74.6262C48.6971 73.2992 45.8994 71.0266 43.9308 68.0996C41.9623 65.1726 40.9125 61.7246 40.9159 58.1972C40.8978 57.3493 41.0491 56.5064 41.361 55.7179C41.6729 54.9293 42.1391 54.211 42.7323 53.605C43.3255 52.999 44.0337 52.5175 44.8154 52.1888C45.5972 51.8601 46.4366 51.6908 47.2846 51.6908C48.1326 51.6908 48.9721 51.8601 49.7538 52.1888C50.5355 52.5175 51.2438 52.999 51.837 53.605C52.4301 54.211 52.8964 54.9293 53.2083 55.7179C53.5202 56.5064 53.6715 57.3493 53.6534 58.1972C53.6486 59.1778 53.9353 60.1377 54.477 60.9551C55.0186 61.7726 55.7909 62.4107 56.6958 62.7885C57.9478 63.3125 59.354 63.3067 60.6001 62.7739C61.7915 62.258 62.7361 61.2998 63.2349 60.1012C63.7325 58.8857 63.7316 57.5232 63.2326 56.3082C62.7335 55.0933 61.7764 54.1236 60.5681 53.6087C59.9556 53.3495 59.297 53.2168 58.632 53.2186C56.9421 53.2186 55.3214 52.5473 54.1265 51.3524C52.9316 50.1575 52.2603 48.5368 52.2603 46.8469C52.2603 45.1571 52.9316 43.5364 54.1265 42.3415C55.3214 41.1466 56.9421 40.4753 58.632 40.4753C62.1154 40.4734 65.5219 41.4991 68.4252 43.4241C71.3284 45.349 73.5993 48.0876 74.9534 51.2971H74.9564Z" fill="white"/>
<path opacity="0.7" d="M47.2481 51.8268C50.7652 51.8268 53.6184 54.68 53.6184 58.197C53.6207 61.73 52.5666 65.1829 50.5916 68.1123C48.6166 71.0417 45.8109 73.3136 42.5349 74.6363C39.2589 75.959 35.6622 76.272 32.2069 75.535C28.7517 74.7981 25.5957 73.0449 23.1444 70.5007C20.7298 67.9976 19.1051 64.8393 18.4727 61.4194C17.8403 57.9995 18.2282 54.469 19.588 51.268C20.9478 48.0669 23.2195 45.3367 26.1199 43.4176C29.0204 41.4984 32.4215 40.4751 35.8994 40.4751C37.5892 40.4751 39.2099 41.1464 40.4048 42.3413C41.5997 43.5363 42.271 45.1569 42.271 46.8468C42.271 48.5367 41.5997 50.1573 40.4048 51.3522C39.2099 52.5472 37.5892 53.2185 35.8994 53.2185C34.9095 53.2156 33.9429 53.5096 33.1219 54.0628C32.3189 54.6055 31.69 55.3689 31.311 56.2609C30.9324 57.1596 30.826 58.1496 31.0051 59.1081C31.1842 60.0667 31.6408 60.9516 32.3183 61.6529V61.6587C33.1297 62.5011 34.2123 63.0302 35.3755 63.1527C36.5387 63.2752 37.7078 62.9833 38.6769 62.3283C39.356 61.8742 39.9122 61.259 40.2957 60.5376C40.6793 59.8162 40.8783 59.0111 40.875 58.1941C40.875 54.68 43.7282 51.8268 47.2481 51.8268ZM74.4002 27.3824C75.7854 30.0848 76.4533 33.0977 76.34 36.1323C76.2266 39.167 75.3357 42.1216 73.7527 44.7131C72.1697 47.3046 69.9476 49.4461 67.2994 50.9323C64.6512 52.4186 61.6657 53.1998 58.6289 53.201C56.9387 53.201 55.3176 52.5295 54.1225 51.3344C52.9273 50.1392 52.2558 48.5181 52.2558 46.8279C52.2558 45.1376 52.9273 43.5166 54.1225 42.3214C55.3176 41.1262 56.9387 40.4547 58.6289 40.4547C59.6087 40.4557 60.5669 40.1675 61.3837 39.6263C62.2004 39.0851 62.8392 38.3149 63.2203 37.4123C63.5004 36.742 63.6314 36.0189 63.6043 35.2929C63.5771 34.567 63.3925 33.8557 63.0631 33.2082C62.7443 32.5798 62.2954 32.0266 61.7462 31.5851C61.197 31.1437 60.5602 30.8243 59.878 30.648C59.1958 30.4717 58.484 30.4427 57.7897 30.5629C57.0954 30.683 56.4347 30.9496 55.8514 31.3449C55.1714 31.7983 54.6144 32.4133 54.2302 33.1348C53.8461 33.8563 53.6469 34.6617 53.6504 35.4791C53.6683 36.3269 53.5168 37.1698 53.2047 37.9583C52.8926 38.7468 52.4262 39.465 51.8329 40.0709C51.2396 40.6768 50.5312 41.1581 49.7494 41.4866C48.9677 41.8151 48.1281 41.9842 47.2801 41.984C46.4321 41.9838 45.5927 41.8143 44.8111 41.4855C44.0294 41.1566 43.3213 40.6749 42.7283 40.0688C42.1352 39.4627 41.6692 38.7442 41.3574 37.9556C41.0457 37.1669 40.8945 36.324 40.9129 35.4762C40.9108 32.191 41.8222 28.97 43.5453 26.173C45.2684 23.376 47.7352 21.1131 50.6702 19.6373C53.6053 18.1615 56.8928 17.5309 60.1656 17.8158C63.4384 18.1008 66.5675 19.2901 69.2033 21.2509L69.2149 21.2597C71.3865 22.8789 73.1591 24.9731 74.3973 27.3824H74.4002Z" fill="white"/>
</g>
<defs>
<clipPath id="clip0_342_5448">
<rect width="93.1659" height="93.1659" fill="white" transform="translate(0.683594 0.254883)"/>
</clipPath>
</defs>
</svg>
