<svg width="94" height="94" viewBox="0 0 94 94" fill="none" xmlns="http://www.w3.org/2000/svg">
<g clip-path="url(#clip0_342_5454)">
<path d="M46.7812 93.4208C72.5082 93.4208 93.3641 72.5649 93.3641 46.8378C93.3641 21.1108 72.5082 0.254883 46.7812 0.254883C21.0541 0.254883 0.198242 21.1108 0.198242 46.8378C0.198242 72.5649 21.0541 93.4208 46.7812 93.4208Z" fill="#23BEE2"/>
<path d="M58.0746 39.4694L67.5047 29.5356C71.5634 34.3812 73.783 40.503 73.773 46.8237C73.773 61.7215 61.6906 73.8011 46.7811 73.8011C42.2323 73.8066 37.7565 72.6576 33.7729 70.4616L57.7572 58.0997L61.6644 56.085L58.0455 53.5841L55.4601 51.7964L63.0007 47.9475L66.7507 46.0318L63.3909 43.493L58.0746 39.4694ZM35.4877 55.5813L26.6952 64.8397C22.2419 59.8966 19.7811 53.477 19.7892 46.8237C19.7892 31.923 31.8717 19.8435 46.7811 19.8435C51.8318 19.8366 56.7822 21.2533 61.0646 23.9311L35.805 36.951L31.8979 38.9687L35.5168 41.4667L38.1022 43.2543L30.5616 47.1061L26.8116 49.0189L30.1714 51.5606L35.4877 55.5813ZM25.0502 66.5778L23.2306 68.4935C17.7763 62.596 14.7494 54.8568 14.7554 46.8237C14.7554 29.1717 29.1233 14.8125 46.7811 14.8125C54.0393 14.8125 60.7444 17.2406 66.1218 21.3254L63.4957 22.6792C58.5895 19.2689 52.7561 17.444 46.7811 17.4503C30.579 17.4503 17.396 30.6274 17.396 46.8237C17.396 54.4226 20.2958 61.3547 25.0531 66.5749L25.0502 66.5778ZM69.1526 27.7975L70.981 25.8759C76.0347 31.6838 78.8147 39.125 78.8069 46.8237C78.8069 64.4728 64.439 78.832 46.7811 78.832C40.2741 78.8397 33.9209 76.8543 28.576 73.1431L31.2661 71.7543C35.9184 74.6614 41.2952 76.2001 46.7811 76.1943C62.9833 76.1943 76.1662 63.0171 76.1662 46.8237C76.1662 39.5742 73.5256 32.9304 69.1526 27.8004V27.7975ZM31.764 49.4586L43.2379 43.5978L37.0162 39.3006L71.4585 21.5466L54.1267 39.7955L61.7983 45.598L50.3244 51.4587L56.5461 55.756L22.1038 73.5099L39.4356 55.261L31.764 49.4586Z" fill="white"/>
</g>
<defs>
<clipPath id="clip0_342_5454">
<rect width="93.1659" height="93.1659" fill="white" transform="translate(0.197266 0.254883)"/>
</clipPath>
</defs>
</svg>
