<svg width="94" height="94" viewBox="0 0 94 94" fill="none" xmlns="http://www.w3.org/2000/svg">
<g clip-path="url(#clip0_342_5458)">
<path d="M47.2944 93.4208C73.0214 93.4208 93.8773 72.5649 93.8773 46.8378C93.8773 21.1108 73.0214 0.254883 47.2944 0.254883C21.5673 0.254883 0.711426 21.1108 0.711426 46.8378C0.711426 72.5649 21.5673 93.4208 47.2944 93.4208Z" fill="#00A5FF"/>
<path fill-rule="evenodd" clip-rule="evenodd" d="M53.3506 36.8635C53.3419 39.4634 53.3244 42.0604 53.3215 44.6574C53.3186 48.978 53.3128 53.3015 53.3332 57.622C53.3332 58.1461 53.1876 58.4576 52.7305 58.7342C50.9545 59.8027 49.2077 60.9178 47.3327 62.0911V61.1449C47.3327 54.4573 47.324 47.7668 47.3444 41.0793C47.3473 40.5232 47.1988 40.2087 46.698 39.938C45.1404 39.0937 43.6177 38.1853 42.0805 37.306C41.9116 37.21 41.7311 37.1314 41.472 37.0033V37.9204C41.472 43.915 41.4603 49.9096 41.4895 55.9014C41.4895 56.504 41.2973 56.8185 40.7907 57.1009C39.2622 57.9452 37.7687 58.8477 36.2576 59.727C36.0451 59.8493 35.8209 59.957 35.4832 60.1346V59.2029C35.4832 53.1821 35.4686 47.1612 35.5036 41.1433C35.5065 40.4446 35.2706 40.0952 34.6884 39.7749C32.9881 38.8258 31.3198 37.8185 29.5526 36.7849C31.5091 35.6582 33.3899 34.5635 35.291 33.5125C35.4657 33.4164 35.8296 33.5416 36.048 33.6668C37.7046 34.5984 39.3554 35.5388 40.9887 36.5083C41.3846 36.7412 41.6729 36.7703 42.0863 36.5171C43.5944 35.5941 45.155 34.7469 46.6573 33.8094C47.1988 33.4717 47.5889 33.527 48.1042 33.8356C49.8424 34.875 51.6096 35.8736 53.3681 36.8839L53.3506 36.8635ZM53.3681 36.8839C53.4962 36.75 53.6068 36.5782 53.7612 36.4879C55.4003 35.533 57.0394 34.5722 58.7077 33.6697C58.869 33.5992 59.0435 33.5635 59.2196 33.565C59.3957 33.5665 59.5695 33.6052 59.7296 33.6784C61.424 34.5897 63.0952 35.5446 64.746 36.5287C64.9731 36.6626 65.2002 37.0178 65.2002 37.2711C65.2264 43.5685 65.2235 49.8689 65.2118 56.1663C65.2118 56.3701 65.1594 56.6904 65.0226 56.7719C63.136 57.8957 61.229 58.9875 59.2055 60.1579V59.2C59.2055 53.1326 59.1997 47.0652 59.2172 41.0007C59.2172 40.4853 59.0949 40.1738 58.6116 39.9089C56.8414 38.9248 55.1004 37.8825 53.3506 36.8635L53.3681 36.8839ZM20.9144 54.9552C20.3687 54.9617 19.8272 54.8603 19.3209 54.6568C18.8146 54.4533 18.3535 54.1517 17.9641 53.7694C17.5748 53.3871 17.2649 52.9316 17.0522 52.4291C16.8395 51.9266 16.7282 51.387 16.7248 50.8413C16.7194 50.2951 16.8224 49.7533 17.0278 49.2471C17.2332 48.741 17.5369 48.2806 17.9214 47.8926C18.3058 47.5046 18.7634 47.1967 19.2677 46.9867C19.7719 46.7767 20.3128 46.6688 20.859 46.6692C21.4052 46.6611 21.9475 46.7616 22.4546 46.9647C22.9616 47.1679 23.4232 47.4697 23.8127 47.8527C24.2022 48.2356 24.5117 48.6921 24.7234 49.1957C24.935 49.6992 25.0446 50.2398 25.0457 50.786C25.0519 51.332 24.9495 51.8738 24.7445 52.38C24.5396 52.8861 24.2361 53.3465 23.8517 53.7344C23.4674 54.1222 23.0098 54.4299 22.5055 54.6395C22.0013 54.849 21.4604 54.9563 20.9144 54.9552ZM26.4898 67.4365C25.4521 67.445 24.4532 67.0426 23.7113 66.3171C22.9694 65.5915 22.5448 64.6019 22.5302 63.5643C22.5277 62.5263 22.9325 61.5288 23.6577 60.7862C24.3829 60.0436 25.3705 59.6152 26.4082 59.5931C28.519 59.5465 30.3445 61.3399 30.3678 63.4857C30.3756 64.5233 29.9718 65.5217 29.2449 66.2622C28.5181 67.0027 27.5273 67.4249 26.4898 67.4365ZM23.325 33.4426C25.4213 33.4484 27.1041 35.1312 27.1041 37.2129C27.1041 39.3295 25.3805 41.0327 23.261 41.0094C22.7653 41.006 22.2753 40.9042 21.8194 40.7097C21.3635 40.5152 20.9508 40.2319 20.6054 39.8765C20.26 39.521 19.9887 39.1004 19.8073 38.6392C19.6259 38.1779 19.5381 37.6851 19.5489 37.1896C19.5442 36.6937 19.6388 36.202 19.8273 35.7433C20.0157 35.2847 20.2942 34.8684 20.6462 34.5191C20.9981 34.1699 21.4165 33.8946 21.8766 33.7097C22.3367 33.5248 22.8292 33.434 23.325 33.4426ZM74.3392 47.7261C73.401 47.7261 72.5012 47.3534 71.8379 46.69C71.1745 46.0266 70.8018 45.1269 70.8018 44.1887C70.8018 43.2505 71.1745 42.3508 71.8379 41.6874C72.5012 41.024 73.401 40.6513 74.3392 40.6513C75.2773 40.6513 76.1771 41.024 76.8405 41.6874C77.5039 42.3508 77.8766 43.2505 77.8766 44.1887C77.8766 45.1269 77.5039 46.0266 76.8405 46.69C76.1771 47.3534 75.2773 47.7261 74.3392 47.7261ZM28.4928 25.343C28.4866 24.9186 28.5655 24.4973 28.7249 24.104C28.8843 23.7107 29.121 23.3533 29.4209 23.0531C29.7209 22.7529 30.078 22.5159 30.4712 22.3561C30.8644 22.1963 31.2856 22.117 31.71 22.1229C32.1346 22.1225 32.5551 22.2065 32.947 22.3699C33.339 22.5334 33.6945 22.7731 33.993 23.0751C34.2915 23.3771 34.527 23.7355 34.6859 24.1293C34.8447 24.5231 34.9238 24.9446 34.9184 25.3692C34.9199 25.7935 34.8373 26.2138 34.6753 26.606C34.5133 26.9981 34.2751 27.3542 33.9746 27.6537C33.674 27.9531 33.317 28.19 32.9243 28.3506C32.5316 28.5112 32.1109 28.5923 31.6867 28.5892C31.2622 28.5913 30.8417 28.5083 30.4498 28.3452C30.058 28.1821 29.7028 27.9422 29.4051 27.6397C29.1074 27.3371 28.8733 26.9781 28.7167 26.5836C28.56 26.1891 28.4839 25.7673 28.4928 25.343ZM72.438 61.1332C72.0138 61.1422 71.5922 61.0658 71.1982 60.9086C70.8041 60.7514 70.4457 60.5166 70.1442 60.2181C69.8427 59.9196 69.6043 59.5636 69.4432 59.1711C69.2821 58.7786 69.2015 58.3578 69.2063 57.9336C69.2001 57.5093 69.2778 57.0881 69.4348 56.6939C69.5919 56.2998 69.8252 55.9405 70.1214 55.6368C70.4176 55.333 70.7708 55.0907 71.1609 54.9238C71.5509 54.7568 71.9701 54.6686 72.3943 54.664C72.8184 54.6629 73.2386 54.7454 73.6308 54.9068C74.023 55.0682 74.3795 55.3054 74.68 55.6047C74.9804 55.9041 75.2189 56.2597 75.3817 56.6514C75.5445 57.043 75.6286 57.4629 75.6289 57.887C75.6395 58.3115 75.5646 58.7338 75.4086 59.1288C75.2527 59.5238 75.019 59.8834 74.7213 60.1862C74.4236 60.489 74.0681 60.7289 73.6758 60.8916C73.2836 61.0543 72.8626 61.1365 72.438 61.1332ZM47.2541 20.213C47.2532 20.5335 47.1876 20.8506 47.0613 21.1452C46.9349 21.4397 46.7504 21.7058 46.5188 21.9273C46.2872 22.1489 46.0132 22.3214 45.7133 22.4346C45.4134 22.5477 45.0938 22.5992 44.7736 22.5858C44.4531 22.58 44.137 22.5099 43.8441 22.3796C43.5511 22.2494 43.2873 22.0617 43.0682 21.8277C42.8492 21.5937 42.6793 21.3181 42.5686 21.0172C42.4579 20.7164 42.4088 20.3964 42.424 20.0762C42.4445 19.4424 42.7122 18.8418 43.1697 18.4027C43.6273 17.9636 44.2384 17.721 44.8725 17.7267C45.1934 17.7296 45.5104 17.7967 45.8049 17.924C46.0994 18.0513 46.3654 18.2362 46.5873 18.4679C46.8093 18.6996 46.9826 18.9734 47.0971 19.2731C47.2116 19.5728 47.265 19.8924 47.2541 20.213ZM64.056 71.1689C63.7408 71.1705 63.4285 71.1092 63.1373 70.9886C62.8461 70.868 62.5819 70.6906 62.3602 70.4667C62.1384 70.2427 61.9635 69.9768 61.8458 69.6845C61.728 69.3921 61.6698 69.0792 61.6744 68.7641C61.6727 68.442 61.7359 68.1228 61.8604 67.8257C61.9848 67.5286 62.1678 67.2596 62.3986 67.0348C62.6293 66.8101 62.903 66.6342 63.2033 66.5176C63.5036 66.401 63.8243 66.3462 64.1462 66.3563C65.4855 66.3738 66.5336 67.4336 66.5278 68.7728C66.5278 70.147 65.4564 71.1806 64.056 71.1689ZM51.595 75.9524C51.2927 75.9588 50.9922 75.9038 50.7117 75.7906C50.4313 75.6774 50.1768 75.5084 49.9636 75.2938C49.7504 75.0793 49.583 74.8237 49.4716 74.5425C49.3602 74.2614 49.307 73.9605 49.3154 73.6582C49.3142 73.3553 49.3735 73.0551 49.4897 72.7754C49.606 72.4957 49.7769 72.2419 49.9924 72.0291C50.208 71.8163 50.4639 71.6486 50.7451 71.5359C51.0262 71.4232 51.3271 71.3677 51.63 71.3727C52.2411 71.3796 52.8251 71.6264 53.2559 72.06C53.6868 72.4935 53.9299 73.079 53.9329 73.6902C53.9323 73.9936 53.8708 74.2937 53.7522 74.5728C53.6335 74.852 53.46 75.1045 53.242 75.3154C53.0241 75.5263 52.766 75.6914 52.4831 75.8008C52.2002 75.9102 51.8982 75.9618 51.595 75.9524ZM59.2463 24.3531C58.6981 24.35 58.1735 24.1292 57.788 23.7394C57.4026 23.3496 57.1877 22.8226 57.1908 22.2743C57.1939 21.7261 57.4147 21.2015 57.8045 20.8161C58.1943 20.4306 58.7214 20.2158 59.2696 20.2188C60.3876 20.2247 61.3367 21.1825 61.3338 22.2976C61.3195 22.8438 61.094 23.3631 60.7047 23.7465C60.3154 24.1298 59.7926 24.3472 59.2463 24.3531ZM40.2113 71.757C40.2107 71.995 40.1623 72.2304 40.0692 72.4494C39.976 72.6684 39.84 72.8665 39.669 73.0321C39.498 73.1976 39.2956 73.3272 39.0738 73.4133C38.8519 73.4993 38.615 73.54 38.3771 73.533C38.1389 73.5329 37.9032 73.4845 37.6842 73.3907C37.4652 73.297 37.2674 73.1599 37.1028 72.9877C36.9383 72.8155 36.8102 72.6118 36.7265 72.3887C36.6428 72.1657 36.6051 71.9281 36.6157 71.6901C36.6188 71.4528 36.6686 71.2184 36.7623 71.0004C36.856 70.7823 36.9918 70.5849 37.1619 70.4194C37.332 70.2539 37.533 70.1236 37.7535 70.0359C37.9741 69.9482 38.2097 69.9048 38.447 69.9083C38.6843 69.9136 38.9183 69.9656 39.1355 70.0614C39.3526 70.1573 39.5488 70.295 39.7127 70.4667C39.8765 70.6384 40.0049 70.8408 40.0905 71.0622C40.1761 71.2836 40.2171 71.5197 40.2113 71.757ZM71.256 31.0581C71.2645 31.2635 71.2321 31.4684 71.1607 31.6611C71.0892 31.8538 70.9802 32.0304 70.8398 32.1805C70.6994 32.3306 70.5306 32.4513 70.3431 32.5355C70.1556 32.6198 69.9533 32.6658 69.7478 32.671C69.3341 32.6781 68.9343 32.5214 68.6355 32.2352C68.3367 31.9489 68.1631 31.5562 68.1524 31.1425C68.1442 30.9374 68.1771 30.7327 68.2492 30.5404C68.3213 30.3482 68.4311 30.1723 68.5722 30.0231C68.7132 29.8739 68.8827 29.7544 69.0706 29.6717C69.2585 29.5889 69.461 29.5446 69.6663 29.5413C70.5368 29.5121 71.2385 30.1847 71.256 31.061V31.0581Z" fill="white"/>
</g>
<defs>
<clipPath id="clip0_342_5458">
<rect width="93.1659" height="93.1659" fill="white" transform="translate(0.711426 0.254883)"/>
</clipPath>
</defs>
</svg>
