<svg width="94" height="94" viewBox="0 0 94 94" fill="none" xmlns="http://www.w3.org/2000/svg">
<g clip-path="url(#clip0_342_5465)">
<path d="M47.3229 93.4208C73.05 93.4208 93.9059 72.5649 93.9059 46.8378C93.9059 21.1108 73.05 0.254883 47.3229 0.254883C21.5959 0.254883 0.73999 21.1108 0.73999 46.8378C0.73999 72.5649 21.5959 93.4208 47.3229 93.4208Z" fill="#0F8FF8"/>
<path fill-rule="evenodd" clip-rule="evenodd" d="M24.0315 55.5836L26.3898 49.7491H28.8849C28.8202 48.7508 28.7872 47.7507 28.7859 46.7503C28.7859 45.446 28.8412 44.2348 28.9489 43.111H24.0315L26.3898 37.2794H30.0989C33.5519 26.184 41.3371 20.6348 53.4457 20.6348C57.4256 20.6348 61.2076 21.1501 64.7916 22.1836V29.5321C61.4187 28.0249 57.763 27.2547 54.0688 27.2728C46.8105 27.2728 42.1435 30.6093 40.0648 37.2823H61.6763L59.3181 43.1139H38.6556C38.5319 44.0744 38.4774 45.0425 38.4926 46.0108C38.4926 47.4054 38.5363 48.6515 38.6236 49.752H56.625L54.2958 55.5836H39.8697C41.4215 59.6276 43.3139 62.44 45.5441 64.0268C47.7713 65.6106 50.9535 66.4025 55.0848 66.4025C58.037 66.4025 61.2716 65.6834 64.7916 64.2451V71.154C61.4463 72.4117 57.4693 73.0406 52.8547 73.0406C40.7227 73.0406 33.0482 67.2206 29.8369 55.5836H24.0315Z" fill="white"/>
</g>
<defs>
<clipPath id="clip0_342_5465">
<rect width="93.1659" height="93.1659" fill="white" transform="translate(0.739502 0.254883)"/>
</clipPath>
</defs>
</svg>
