<svg width="94" height="94" viewBox="0 0 94 94" fill="none" xmlns="http://www.w3.org/2000/svg">
<g clip-path="url(#clip0_342_5462)">
<path d="M93.3915 46.8378C93.3915 56.0511 90.6594 65.0574 85.5408 72.7179C80.4222 80.3784 73.147 86.3491 64.6351 89.8748C56.1231 93.4006 46.7569 94.3231 37.7207 92.5257C28.6845 90.7283 20.3842 86.2917 13.8694 79.7769C7.35469 73.2622 2.9181 64.9619 1.12068 55.9257C-0.676728 46.8895 0.245769 37.5232 3.77152 29.0113C7.29727 20.4994 13.2679 13.2241 20.9284 8.10552C28.589 2.98692 37.5953 0.254883 46.8085 0.254883C59.1631 0.254883 71.0117 5.16271 79.7477 13.8987C88.4837 22.6347 93.3915 34.4833 93.3915 46.8378Z" fill="#003399"/>
<path d="M50.8781 28.7676C49.4757 28.7598 48.0874 29.0484 46.8042 29.6145C45.5252 30.1771 44.3739 30.994 43.4206 32.0157C42.3573 33.1516 41.4862 34.4532 40.8416 35.8693C40.0959 37.5177 39.55 39.2493 39.2154 41.0273H52.9744V45.3892H38.7623C38.7623 45.711 38.7623 46.016 38.7327 46.3124C38.703 46.6088 38.6988 46.8333 38.6988 47.1085V49.0862C38.6988 49.5097 38.72 49.9543 38.7623 50.4202H51.0433V54.7863H39.351C40.0737 58.4988 41.4119 61.3319 43.3656 63.2855C45.3192 65.2392 47.8869 66.216 51.0687 66.216C52.591 66.2239 54.1089 66.0534 55.5915 65.7078C56.9777 65.3866 58.3315 64.9387 59.6357 64.3696V69.5276C58.3547 70.1332 57.0094 70.5921 55.6254 70.8955C53.9826 71.2608 52.3024 71.43 50.6198 71.3994C48.3803 71.436 46.1542 71.0466 44.0601 70.2518C42.1628 69.4968 40.4352 68.3709 38.9783 66.9402C37.5039 65.4194 36.3071 63.6522 35.4422 61.7186C34.4592 59.5026 33.7633 57.1701 33.3714 54.7778H28.1753V50.4202H32.8886C32.8463 49.9346 32.8251 49.5323 32.8251 49.2132V47.8115C32.8251 47.3457 32.8251 46.8671 32.8548 46.3801C32.8844 45.8931 32.8886 45.5628 32.8886 45.3892H28.1753V41.0273H33.2571C33.5904 38.5502 34.2541 36.129 35.2305 33.8282C36.0877 31.8055 37.2836 29.9437 38.7666 28.3229C40.1962 26.8038 41.927 25.5994 43.8483 24.7868C45.937 23.9324 48.1771 23.5103 50.4335 23.546C52.3351 23.5261 54.2308 23.7612 56.07 24.2448C57.8658 24.7308 59.5788 25.4831 61.1518 26.4765L58.6109 31.1348C57.4863 30.4562 56.2923 29.8997 55.0494 29.4748C53.7131 28.9892 52.2998 28.7496 50.8781 28.7676Z" fill="white"/>
</g>
<defs>
<clipPath id="clip0_342_5462">
<rect width="93.1659" height="93.1659" fill="white" transform="translate(0.225586 0.254883)"/>
</clipPath>
</defs>
</svg>
