<svg width="94" height="94" viewBox="0 0 94 94" fill="none" xmlns="http://www.w3.org/2000/svg">
<g clip-path="url(#clip0_342_5469)">
<path d="M46.8354 93.4208C72.5624 93.4208 93.4183 72.5649 93.4183 46.8378C93.4183 21.1108 72.5624 0.254883 46.8354 0.254883C21.1083 0.254883 0.252441 21.1108 0.252441 46.8378C0.252441 72.5649 21.1083 93.4208 46.8354 93.4208Z" fill="#044AAC"/>
<path fill-rule="evenodd" clip-rule="evenodd" d="M29.6057 50.3611L21.9836 57.9891L18.4025 61.5701C16.0362 57.0205 14.8036 51.9665 14.8098 46.8383C14.8098 29.1804 29.1778 14.8125 46.8356 14.8125C64.4934 14.8125 78.8614 29.1804 78.8614 46.8383C78.8614 64.4961 64.4934 78.864 46.8356 78.864C40.0054 78.864 33.6701 76.7125 28.4645 73.0557C27.1511 72.1335 25.9083 71.1146 24.7466 70.0075L28.1296 66.6215L52.6352 42.1159C52.7309 40.935 53.2673 39.8333 54.1379 39.0296C55.0084 38.226 56.1494 37.7791 57.3342 37.7779C58.5012 37.779 59.6263 38.2127 60.492 38.9951C61.3578 39.7776 61.9028 40.8532 62.0216 42.014L73.3005 53.2929C73.8157 51.18 74.0757 49.013 74.075 46.8383C74.075 31.8153 61.8557 19.5989 46.8356 19.5989C31.8155 19.5989 19.5962 31.8153 19.5962 46.8383C19.5962 48.9287 19.8321 50.9638 20.2804 52.9203L27.5241 45.6737C27.7012 44.5661 28.267 43.5578 29.1201 42.8296C29.9732 42.1013 31.0578 41.7007 32.1794 41.6996C33.2852 41.7006 34.3553 42.0901 35.2031 42.8C36.0508 43.5099 36.6222 44.4951 36.8174 45.5834L41.4262 50.1893L38.0402 53.5724L34.7968 50.3291C34.0307 50.8448 33.1292 51.1227 32.2057 51.1279C31.2821 51.133 30.3776 50.8653 29.6057 50.3582V50.3611ZM54.9614 46.5588L31.9087 69.6115C36.3393 72.5304 41.5299 74.0834 46.8356 74.0776C57.7622 74.0776 67.2069 67.6113 71.542 58.3035L59.7653 46.5238C59.0423 46.9628 58.2139 47.1978 57.3682 47.204C56.5224 47.2101 55.6907 46.9872 54.9614 46.5588ZM57.4187 40.3982C57.1339 40.388 56.85 40.4354 56.584 40.5374C56.3179 40.6395 56.0752 40.7941 55.8703 40.9921C55.6654 41.1902 55.5025 41.4274 55.3914 41.6898C55.2802 41.9522 55.2232 42.2343 55.2236 42.5193C55.224 42.8042 55.2818 43.0862 55.3936 43.3482C55.5055 43.6103 55.669 43.8472 55.8745 44.0446C56.0799 44.242 56.3231 44.396 56.5894 44.4973C56.8557 44.5987 57.1397 44.6453 57.4245 44.6343C57.9726 44.6132 58.4912 44.3805 58.8713 43.985C59.2514 43.5895 59.4634 43.062 59.4626 42.5134C59.4619 41.9649 59.2485 41.438 58.8673 41.0435C58.4861 40.6491 57.9669 40.4177 57.4187 40.3982ZM32.2057 44.2616C31.6435 44.2616 31.1044 44.485 30.7069 44.8824C30.3094 45.2799 30.0861 45.819 30.0861 46.3812C30.0861 46.9433 30.3094 47.4824 30.7069 47.8799C31.1044 48.2774 31.6435 48.5007 32.2057 48.5007C32.7678 48.5007 33.3069 48.2774 33.7044 47.8799C34.1019 47.4824 34.3252 46.9433 34.3252 46.3812C34.3252 45.819 34.1019 45.2799 33.7044 44.8824C33.3069 44.485 32.7678 44.2616 32.2057 44.2616Z" fill="white"/>
</g>
<defs>
<clipPath id="clip0_342_5469">
<rect width="93.1659" height="93.1659" fill="white" transform="translate(0.253418 0.254883)"/>
</clipPath>
</defs>
</svg>
