<svg width="94" height="94" viewBox="0 0 94 94" fill="none" xmlns="http://www.w3.org/2000/svg">
<g clip-path="url(#clip0_342_5473)">
<path d="M47.3505 93.4208C73.0776 93.4208 93.9334 72.5649 93.9334 46.8378C93.9334 21.1108 73.0776 0.254883 47.3505 0.254883C21.6235 0.254883 0.767578 21.1108 0.767578 46.8378C0.767578 72.5649 21.6235 93.4208 47.3505 93.4208Z" fill="#347FFB"/>
<path fill-rule="evenodd" clip-rule="evenodd" d="M58.1228 38.2639L49.7699 60.8276L49.7175 60.9644L48.1861 57.8928L44.9835 59.3485L53.383 36.6481L56.5855 35.1924L58.1199 38.2639H58.1228ZM79.0269 38.7967L70.6769 61.3953L69.1426 58.315L65.94 59.7707L66.135 59.2408L74.4821 36.6481L77.6847 35.1924L79.2132 38.2639L79.0269 38.7967ZM61.1507 58.3383L66.0681 45.0534L62.8568 46.5091L61.3312 43.4317L56.3992 56.7137L57.9277 59.794L61.1507 58.3383ZM34.5489 45.2368H19.8607L22.3646 47.566L19.8607 49.933H34.5343L37.0265 47.566L34.5489 45.2368ZM17.8285 55.0862H41.5713L39.0762 57.4357L41.5713 59.7794H17.8285L15.3247 57.4357L17.8285 55.0833V55.0862ZM25.11 35.3816H48.8382L46.3519 37.7341L48.8411 40.0778H25.1129L22.6091 37.7312L25.1129 35.3816H25.11Z" fill="white"/>
</g>
<defs>
<clipPath id="clip0_342_5473">
<rect width="93.1659" height="93.1659" fill="white" transform="translate(0.767578 0.254883)"/>
</clipPath>
</defs>
</svg>
