<svg width="94" height="94" viewBox="0 0 94 94" fill="none" xmlns="http://www.w3.org/2000/svg">
<g clip-path="url(#clip0_342_5477)">
<path d="M46.8649 93.4208C72.592 93.4208 93.4479 72.5649 93.4479 46.8378C93.4479 21.1108 72.592 0.254883 46.8649 0.254883C21.1379 0.254883 0.281982 21.1108 0.281982 46.8378C0.281982 72.5649 21.1379 93.4208 46.8649 93.4208Z" fill="#FFAA5C"/>
<path fill-rule="evenodd" clip-rule="evenodd" d="M75.9792 43.1029C75.9675 43.2164 75.95 43.3271 75.95 43.4406C75.9355 46.9926 75.9209 50.5474 75.9151 54.1023L75.9035 61.4013C75.9035 61.6342 75.8831 61.8671 75.8685 62.1582C75.7404 62.1 75.6473 62.0622 75.5599 62.0127L62.0101 54.4575C61.7684 54.3236 61.7481 54.2042 61.8645 53.9655C64.1733 49.2256 64.182 44.4742 61.9082 39.7227C61.8005 39.4956 61.8209 39.3821 62.0538 39.254L75.6094 31.6464C75.7229 31.5824 75.854 31.5503 75.9792 31.5037V43.1029ZM47.7383 14.8125C47.9653 14.9493 48.1895 15.0949 48.4224 15.2259L74.768 30.0306C74.867 30.0859 74.9602 30.147 75.097 30.2285C74.9747 30.3071 74.8932 30.3654 74.8029 30.4149L61.3579 37.9235C61.0057 38.1185 61.0086 38.1156 60.7757 37.7837C57.7943 33.6058 53.7067 31.2184 48.5127 30.6128C48.3582 30.5936 48.2026 30.5838 48.0469 30.5837C47.7732 30.5837 47.6684 30.4789 47.6684 30.1907C47.6655 27.2414 47.648 24.2892 47.6393 21.3399L47.6305 15.2288C47.6305 15.0891 47.6626 14.9522 47.68 14.8125H47.7383ZM45.9332 78.864C45.8342 78.7913 45.7439 78.7097 45.642 78.6515L19.0985 63.7304C18.9733 63.6605 18.8539 63.5848 18.6821 63.4858C18.7986 63.4072 18.8743 63.3461 18.9616 63.2966C23.4161 60.8073 27.8706 58.321 32.3251 55.8259C32.593 55.6745 32.7182 55.7327 32.8841 55.9627C35.6674 59.8233 39.4698 62.1058 44.2416 62.8832C44.7278 62.9618 45.2257 62.9996 45.7177 63.0229C45.9972 63.0346 46.1078 63.1103 46.1078 63.4014C46.1049 66.013 46.1166 68.6245 46.1253 71.2332L46.1399 78.6457C46.1399 78.7185 46.1195 78.7913 46.1078 78.864H45.9332ZM17.7505 59.7941C17.765 59.7068 17.7942 59.6166 17.7971 59.5263L17.8087 55.8492L17.8291 47.6185L17.8669 34.6364L17.8815 31.8386C17.8815 31.757 17.8931 31.6755 17.9019 31.5445C18.03 31.6056 18.1232 31.6435 18.2105 31.693C22.6417 34.1677 27.07 36.6424 31.507 39.1113C31.7661 39.254 31.8011 39.3646 31.673 39.6354C29.3438 44.413 29.3555 49.1965 31.673 53.98C31.8622 54.3643 31.868 54.3614 31.4895 54.5739C27.0409 57.0778 22.5922 59.5758 18.1406 62.0709C18.0271 62.1349 17.8786 62.1408 17.7505 62.1728V59.7971V59.7941ZM56.9762 57.0865C57.4508 55.4183 57.6051 53.7384 57.5003 52.0323C57.378 49.9419 56.8598 47.9563 55.7709 46.1337C54.519 44.0316 52.7081 42.509 50.5012 41.4026C49.9189 41.1086 49.8549 41.2571 50.2013 40.5292C50.9845 38.8901 52.3558 37.8711 54.0444 37.2189C55.2203 36.7901 56.4562 36.5484 57.707 36.5027C57.8834 36.5101 58.0503 36.5852 58.1728 36.7123C60.2707 38.8995 61.6327 41.6876 62.0683 44.6867C63.1834 52.2768 58.2369 59.4011 50.5565 61.2877C42.0348 63.3839 33.3907 58.1375 31.6206 49.805C29.9669 42.0053 34.9629 34.4618 42.4162 32.4703C48.0148 30.9768 52.9817 32.1676 57.3285 35.8767L57.8205 36.296L57.7594 36.3891C57.3314 36.3367 56.9064 36.2727 56.4784 36.2319C53.8202 35.9815 51.2058 36.1562 48.6699 37.0267C45.5576 38.057 42.9495 40.2253 41.368 43.0971C41.1351 43.5105 41.1177 43.5134 40.6693 43.3591C40.0945 43.1574 39.5764 42.821 39.1583 42.378C38.3298 41.5189 37.704 40.4853 37.327 39.353C36.9863 38.3631 36.7359 37.3441 36.4448 36.3396C36.4215 36.261 36.404 36.1795 36.3342 36.0951C36.2934 36.328 36.2468 36.5551 36.2119 36.788C36.1769 37.0209 36.1478 37.2538 36.1245 37.4867C35.848 40.0896 35.9964 42.6516 36.8961 45.1351C38.0141 48.2328 40.119 50.463 43.1935 51.8197C43.5953 51.9973 43.5953 52.0002 43.3798 52.3671C42.2415 54.3003 40.4568 55.2727 38.2528 55.6046C37.228 55.7589 36.2032 55.6978 35.1579 55.6221C35.254 55.6599 35.3472 55.7036 35.4433 55.7385C40.48 57.4708 46.0118 56.6935 50.178 52.2856C51.2257 51.1638 52.1419 49.9262 52.909 48.5968C53.1069 48.2532 53.1215 48.2503 53.4418 48.4832C54.8072 49.4789 55.6195 50.8415 56.1785 52.37C56.6996 53.7762 56.9064 55.2378 56.9558 56.7255C56.9588 56.8449 56.9675 56.9642 56.9762 57.0836V57.0865ZM75.2251 63.5266L47.6742 78.8087C47.6596 78.6486 47.6393 78.5496 47.6393 78.4535C47.6393 73.4167 47.6393 68.38 47.6334 63.3432C47.6334 63.119 47.7004 63.0375 47.9421 63.0171C53.2991 62.5746 57.5469 60.228 60.665 55.9627C60.9358 55.5871 60.9329 55.5842 61.3346 55.8084L74.8524 63.3053C74.9572 63.3636 75.0621 63.4305 75.2251 63.5266ZM46.1049 14.9173C46.1137 15.0804 46.1224 15.1793 46.1224 15.2783C46.1224 20.2481 46.1224 25.218 46.1282 30.1849C46.1282 30.4178 46.0933 30.5342 45.808 30.5546C40.3403 30.9506 36.0168 33.3176 32.8492 37.6673C32.5988 38.0108 32.6046 38.0137 32.2378 37.8099L19.0752 30.5022C18.9209 30.4149 18.7782 30.3101 18.6297 30.2111C18.7811 30.1063 18.9209 29.9869 19.0839 29.8966L45.6071 15.1764C45.7556 15.0949 45.907 15.0221 46.102 14.9173H46.1049Z" fill="white"/>
</g>
<defs>
<clipPath id="clip0_342_5477">
<rect width="93.1659" height="93.1659" fill="white" transform="translate(0.281494 0.254883)"/>
</clipPath>
</defs>
</svg>
