<svg width="94" height="94" viewBox="0 0 94 94" fill="none" xmlns="http://www.w3.org/2000/svg">
<g clip-path="url(#clip0_342_5481)">
<path d="M47.0414 93.9344C72.7685 93.9344 93.6244 73.0785 93.6244 47.3515C93.6244 21.6244 72.7685 0.768555 47.0414 0.768555C21.3144 0.768555 0.458496 21.6244 0.458496 47.3515C0.458496 73.0785 21.3144 93.9344 47.0414 93.9344Z" fill="#C99705"/>
<path fill-rule="evenodd" clip-rule="evenodd" d="M23.75 71.3827L23.8752 70.8732C24.3265 69.1351 25.5085 68.0637 27.2728 67.5775C29.0634 67.0825 30.7724 67.2718 32.3242 68.3257C32.8337 68.6693 33.218 69.1089 33.4655 69.6592C33.5353 69.8076 33.6722 69.9299 33.7799 70.0668C33.8963 69.9328 34.0623 69.8164 34.1205 69.665C34.5019 68.6489 34.9299 67.6444 35.2181 66.608C36.7787 60.9598 38.3043 55.3087 39.8357 49.6576C39.8968 49.4363 39.9347 49.2063 39.99 48.9385C39.5824 48.9385 39.2039 48.9414 38.8283 48.9385C37.5415 48.9152 36.2488 48.953 34.9678 48.854C33.2238 48.7201 32.0389 47.6458 32.0068 45.995C31.9777 44.5509 32.8308 43.4417 34.4641 43.1593C35.6054 42.9613 36.8049 43.037 37.9782 43.0166C39.1049 42.9992 40.2287 43.0166 41.3554 43.005C41.4573 43.005 41.6291 42.8885 41.6553 42.7983C41.9406 41.7967 42.2056 40.7894 42.4705 39.7791C42.488 39.7209 42.4734 39.6539 42.4734 39.5549C41.1982 39.5549 39.9376 39.5928 38.6798 39.5433C37.6899 39.5025 36.735 39.2783 35.9081 38.7077C34.8804 38.0002 34.598 36.99 34.764 35.872C34.9328 34.7423 35.6578 33.9854 36.8165 33.668C37.2241 33.5574 37.6667 33.5108 38.0917 33.5079C39.9094 33.4899 41.7272 33.4938 43.5448 33.5195C43.9845 33.5283 44.1795 33.3856 44.3542 33.0188C44.9598 31.7581 45.5537 30.4858 46.2554 29.2776C47.5364 27.0736 49.0387 25.0036 50.902 23.2043C53.3564 20.8402 56.2474 19.1632 59.712 18.5489C62.0121 18.1413 64.3296 18.0423 66.5888 18.8168C67.9456 19.2826 68.9529 20.1473 69.5876 21.3905C69.9865 22.1766 70.3737 22.9539 70.33 23.8769C70.2048 26.4971 67.9776 28.1625 65.96 28.2295C64.4111 28.2819 63.0776 27.8626 62.047 26.7417C61.0775 25.6878 60.9581 24.4621 61.3483 23.1548C61.3774 23.0587 61.4152 22.9627 61.4501 22.8637L61.3715 22.7647C61.1736 22.8928 60.9494 22.9976 60.7834 23.1548C59.9134 23.9958 59.177 24.9648 58.5999 26.0284C57.3771 28.2178 56.4949 30.5353 55.767 32.911C55.7437 32.9838 55.7496 33.0653 55.7379 33.1905C56.3668 33.1905 56.9869 33.1993 57.6012 33.1905C58.498 33.176 59.3889 33.1789 60.2419 33.4991C61.2813 33.8893 62.0761 34.5269 62.2857 35.6187C62.4983 36.7279 62.2799 37.5984 61.2434 38.4457C60.3991 39.1386 59.4092 39.2812 58.3757 39.3162C56.9957 39.3628 55.6098 39.3744 54.2298 39.3977C54.0464 39.4006 53.9008 39.3977 53.8484 39.6306C53.6242 40.5827 53.3797 41.5318 53.1438 42.4809C53.1322 42.5275 53.1467 42.5799 53.1526 42.6614C54.1221 42.6614 55.0858 42.6323 56.0465 42.6672C57.0801 42.7051 58.035 42.9759 58.7891 43.7212C59.7091 44.6354 59.8372 45.9455 59.0686 46.9733C58.8182 47.3081 58.5183 47.6138 58.2476 47.934C57.6828 48.5978 56.8938 48.8278 56.0553 48.8599C54.6199 48.9181 53.1817 48.9327 51.7463 48.9239C51.3562 48.9239 51.2019 49.0404 51.1146 49.3839C50.6051 51.4045 50.1159 53.4308 49.5511 55.4397C48.4157 59.4779 47.1521 63.4753 45.0792 67.1903C44.0822 68.9971 42.8256 70.6479 41.3496 72.0902C39.1864 74.1923 36.6244 75.6334 33.5615 76.1662C31.4711 76.5272 29.3632 76.6524 27.3019 76.0265C25.5551 75.4966 24.3468 74.4106 23.881 72.6667L23.75 72.1572V71.3827Z" fill="white"/>
</g>
<defs>
<clipPath id="clip0_342_5481">
<rect width="93.1659" height="93.1659" fill="white" transform="translate(0.459473 0.768555)"/>
</clipPath>
</defs>
</svg>
