<svg width="95" height="94" viewBox="0 0 95 94" fill="none" xmlns="http://www.w3.org/2000/svg">
<g clip-path="url(#clip0_342_5485)">
<path d="M47.5566 93.9344C73.2836 93.9344 94.1395 73.0785 94.1395 47.3515C94.1395 21.6244 73.2836 0.768555 47.5566 0.768555C21.8295 0.768555 0.973633 21.6244 0.973633 47.3515C0.973633 73.0785 21.8295 93.9344 47.5566 93.9344Z" fill="#417BA4"/>
<path d="M23.3511 31.726C23.255 32.3723 23.2812 32.8207 23.6247 33.1613C23.1822 33.9328 22.8386 34.5064 22.5097 35.1469C22.8416 34.5064 23.1822 33.9445 23.6247 33.2836C24.6117 34.518 27.6949 34.518 31.8903 33.1613C32.3852 33.039 32.3852 34.1483 32.3852 34.1483C32.3852 34.7655 32.26 35.6273 26.9554 36.3697C25.4735 36.6143 23.3744 36.492 22.3903 35.3798C22.1428 35.013 22.0205 34.518 22.0205 33.9008C22.0205 33.7785 22.0205 33.6563 22.1428 33.4059C22.1477 33.3991 22.1525 33.3923 22.1574 33.3855C22.207 33.1776 22.2854 32.9777 22.3903 32.7916C22.5126 32.4218 22.76 32.1743 23.0075 31.8046C22.8823 32.0521 22.6378 32.5441 22.3903 32.7916C22.5214 32.4214 22.7321 32.0845 23.0075 31.8046L23.3511 31.726ZM24.0906 30.1392C24.2711 29.8714 24.4691 29.6065 24.734 29.3386L24.3642 29.8335C24.3426 29.8546 24.3212 29.8759 24.3002 29.8976C24.4312 29.7142 24.5739 29.5308 24.734 29.3386L24.3642 29.8335C24.2676 29.9305 24.1762 30.0325 24.0906 30.1392ZM24.0906 30.1392C23.9363 30.3663 23.7936 30.5905 23.6247 30.8176C23.6088 30.8337 23.5932 30.8502 23.5782 30.8671C23.476 31.0278 23.376 31.1899 23.2783 31.3533L24.0906 30.1392ZM26.7138 27.1841C27.0835 26.8755 27.4504 26.5291 27.8201 26.2525C27.4748 26.6921 27.2222 27.1973 27.0777 27.7373C26.9554 28.1042 26.9554 28.4739 27.2 28.7214C27.1776 28.7436 27.1553 28.7659 27.133 28.7883C27.9482 29.6967 30.6151 29.4289 33.9865 27.9819C35.0958 27.4869 36.208 26.992 37.1949 26.3806C37.5647 26.2554 38.0567 26.8726 38.1819 26.992C38.3042 27.1172 38.4265 27.4869 38.1819 27.7344C36.9475 28.4739 35.5907 29.2134 34.1088 29.7084C29.8698 31.5251 26.4605 31.7958 25.523 30.6371L25.4735 30.6953C25.3512 30.3256 25.2289 30.0781 25.3512 29.5861C25.3512 29.4609 25.3512 29.3386 25.4735 29.2134C25.5854 29.0685 25.707 28.9313 25.8374 28.8029C25.6652 28.972 25.5029 29.1508 25.3512 29.3386C25.3512 29.2134 25.4735 28.9688 25.4735 28.8437C25.721 28.3487 25.9684 27.9819 26.3382 27.4869C26.4255 27.4229 26.5071 27.3559 26.5944 27.286C26.9671 26.762 27.5173 26.3107 28.0647 25.7604C29.0546 24.8987 29.0546 24.8987 29.5466 24.5289C29.6509 24.4215 29.7649 24.3241 29.8872 24.2378C29.8455 24.2727 29.8037 24.3076 29.762 24.3426C30.1114 24.0806 30.4724 23.8214 30.8509 23.5681L30.9033 23.539L31.0926 23.4051C32.8619 22.2438 34.7399 21.257 36.7 20.4587C37.0202 20.2782 37.3405 20.121 37.6608 19.9813C37.4715 20.057 37.3201 20.1239 37.1425 20.1996C36.8357 20.3347 36.525 20.4609 36.2109 20.5781C35.7159 20.7033 35.7159 20.7033 34.726 21.1982C34.2311 21.4428 34.2311 21.4428 33.3693 21.9377C32.9995 22.1852 32.9995 22.1852 32.1349 22.6772C31.7819 22.9118 31.4343 23.1545 31.0926 23.4051C39.1689 19.431 38.6041 19.6028 38.0363 19.8269C37.3324 20.0442 36.6397 20.2958 35.9605 20.581C33.1015 21.8038 30.4113 23.539 28.7285 25.149C28.4752 25.3528 28.3558 25.4693 28.0647 25.7604C28.2219 25.612 28.3878 25.4635 28.5596 25.315C28.297 25.5725 28.0491 25.8447 27.8172 26.1302C27.43 26.5174 27.0428 26.8289 26.7138 27.1841ZM19.7059 55.8035C19.7351 55.9083 19.7671 56.0073 19.7991 56.1034C19.8885 56.4279 20.0588 56.7245 20.2941 56.9652C20.0645 56.295 19.848 55.6204 19.6448 54.9417C19.6332 55.7424 19.8748 56.444 20.2941 56.9652C20.0151 56.2061 19.8085 55.4223 19.6768 54.6244C21.8953 57.7076 30.2861 56.9652 41.0176 52.403C54.713 46.6063 67.171 36.7395 68.9004 30.3256C69.2702 28.7214 69.0227 27.6121 68.158 26.7474C68.7752 27.3646 69.3925 28.1042 70.0097 28.7214C70.7492 29.5861 70.8715 30.6953 70.5046 32.1743C68.7752 38.7105 56.0697 48.7025 42.0046 54.6215C29.7941 59.9378 20.5852 60.1736 19.703 55.8064C19.4905 55.0873 19.2751 54.1586 19.0596 53.5122C19.1819 53.882 19.3071 54.2517 19.5546 54.6244L19.6273 54.8835C19.6202 55.038 19.6261 55.1929 19.6448 55.3464C19.6354 55.2049 19.6334 55.0631 19.639 54.9214C19.6351 54.9088 19.6312 54.8961 19.6273 54.8835L19.7059 55.8035ZM39.7366 19.2942L39.9084 19.2243C43.6088 18.2373 45.9525 18.7293 45.4605 20.8256C45.3353 21.568 44.8433 22.3075 44.1038 23.047C43.4865 23.2945 42.1298 23.047 41.8823 22.7995C42.4996 22.06 42.8693 21.4428 42.9916 20.9508C43.3759 19.3204 41.5999 18.8836 38.706 19.6377L38.5779 19.6843L39.7366 19.2942ZM39.5124 19.3815L40.0307 19.2243C39.9324 19.2457 39.8344 19.268 39.7366 19.2912L39.5124 19.3815ZM19.0596 51.4509V51.5383C18.7102 51.1889 18.5792 50.7318 18.5647 50.1641C18.5333 49.9179 18.5265 49.6692 18.5443 49.4217C18.5588 49.6563 18.5666 49.8912 18.5676 50.1262C18.5338 49.8842 18.526 49.6392 18.5443 49.3955C18.5093 48.7491 18.4424 48.0096 18.4424 47.4681C18.4424 48.2105 18.6899 48.7025 18.9373 49.1946C18.9373 49.5672 18.9664 49.9661 18.9956 50.3679C18.9373 49.9661 18.9373 49.5672 18.9373 49.1946C27.2 57.9522 64.3353 35.2575 64.7051 25.6382C64.8273 23.9117 63.8404 23.2945 63.3483 22.9247L64.3353 23.5419L65.5668 24.4037C66.5567 25.2684 66.9265 26.5 66.5567 28.1042C64.9525 34.2706 52.8614 43.7677 39.6609 49.3198C29.2089 53.8296 21.1355 54.4206 19.0596 51.4509ZM18.9985 42.0412L19.1819 41.3017C18.9344 42.2916 19.0596 43.1534 19.5516 43.6454C19.5487 43.6551 19.5458 43.6648 19.5429 43.6745C19.7846 43.9656 20.1165 44.1753 20.5386 44.3849C20.9084 44.8798 20.6638 46.1114 20.6638 46.1114C20.5386 46.4811 20.4163 46.9761 20.1689 46.8538C18.9344 46.2366 18.4424 45.2496 18.5676 43.7677C18.4483 44.504 18.6252 45.2575 19.0596 45.8639L19.0713 45.794C18.7268 45.224 18.5919 44.5517 18.6899 43.8929L18.7393 43.5726C18.7101 43.677 18.6935 43.7845 18.6899 43.8929L18.9344 42.1664L19.1819 41.1765V40.9319L18.9985 42.0412ZM20.8094 39.0133C20.5761 39.5071 20.4031 40.0271 20.2941 40.5622C19.9214 40.0672 19.7991 39.4529 19.9214 38.7105C19.9214 38.4659 19.9214 38.3408 20.0466 38.0962C20.2819 37.3772 20.5699 36.6765 20.9084 36C20.7896 36.3661 20.7502 36.7533 20.7928 37.1359C20.8355 37.5185 20.9593 37.8875 21.1558 38.2185L21.0772 38.4019C22.6232 40.4282 28.2597 39.9158 35.4655 36.8617C44.7181 32.7916 53.2311 26.1302 54.3433 21.9377C54.713 20.3364 54.2181 19.3466 52.8614 18.8516C53.1088 18.7293 53.1088 18.7293 53.8483 18.9768C54.3433 19.102 54.713 19.2243 54.9576 19.2243C56.5618 19.8415 57.179 20.9508 56.687 22.6772C55.4525 27.3646 46.2 34.6432 36.0828 38.958C28.0647 42.2887 21.8953 42.9059 20.2941 40.5622L20.8094 39.0133ZM39.8443 74.5619C38.3624 74.6114 37.1338 74.4571 36.205 74.1106C35.4655 73.7409 34.4786 73.3711 33.8642 73.0014C35.3695 73.6244 37.3434 73.7787 39.6143 73.5545C52.6139 72.2735 75.4104 58.6131 76.6711 49.6895L76.5488 50.0593C76.411 50.7925 76.3283 51.5351 76.3013 52.2807C76.3013 52.403 76.3013 52.5253 76.179 52.6504C74.6971 57.9522 64.213 66.2177 52.7391 71.1497C47.5713 73.3536 43.1022 74.4484 39.8502 74.5619C39.8482 74.5619 39.8463 74.5619 39.8443 74.5619ZM41.2884 69.4902L41.5126 69.1787C41.4369 69.2806 41.367 69.3825 41.2942 69.4873C43.1663 68.9632 45.181 68.2848 47.3092 67.4493C48.666 67.0795 49.1609 67.9442 49.1609 67.9442C49.2832 68.0665 49.2832 68.5614 48.5437 68.9312C45.4459 70.1423 42.5927 71.0129 40.086 71.5369C40.0674 71.5728 40.049 71.6087 40.0307 71.6446L40.0685 71.5398C35.6955 72.4569 32.3794 72.3259 30.6558 71.1497C30.0386 70.6548 29.1739 70.0434 28.5596 69.5484C30.5452 71.2487 35.1395 71.2108 41.2884 69.4902ZM25.8432 66.8349C25.3483 66.2177 24.734 65.6005 24.3642 64.9833C24.8592 65.6005 25.5987 66.4623 26.0907 67.0795C26.0859 67.0157 26.0582 66.9559 26.0128 66.9109C25.9673 66.866 25.9071 66.839 25.8432 66.8349ZM45.4605 18.3596C46.2 18.3596 47.187 18.2373 47.9265 18.2373C50.5176 18.2373 51.7521 19.2243 51.2571 21.1982C50.6399 23.5419 47.3092 26.8726 42.9916 29.8306C42.1298 30.2004 41.2651 29.0911 41.5126 28.5991C41.5126 28.4739 41.6349 28.4739 41.6349 28.4739C45.4605 25.8827 48.2962 23.047 48.9134 20.9508C49.4084 18.9768 47.8042 18.115 44.9655 18.3596H45.4605ZM60.2622 21.1982C61.7441 21.9377 62.3584 23.1722 61.8664 25.0209C60.3874 30.5701 49.5307 39.0832 37.687 44.1403C35.4655 45.1244 33.247 45.8668 31.2731 46.4811C30.1609 46.6063 30.0386 45.1244 30.5336 44.3849C30.6558 44.1403 30.7781 44.1403 30.9033 44.0151C32.7521 43.5202 34.726 42.7836 36.8252 41.9189C48.0487 37.1092 58.2883 28.9688 59.6479 23.7865C60.1399 21.9377 59.4004 20.7033 57.7962 20.089C58.5357 20.4587 59.5227 20.8285 60.2622 21.1953V21.1982ZM73.0929 33.4088L73.4627 34.026C73.8324 35.013 73.8324 35.013 73.8324 35.505V35.6273C73.4627 35.505 72.7261 34.026 72.6009 33.4088C72.6009 32.6693 72.4757 32.1743 72.1059 31.6823L73.0958 33.4088H73.0929ZM75.6841 39.945C75.8064 40.5622 75.8064 41.3017 75.5618 42.1664C74.0799 47.5933 64.8273 55.6085 53.6009 61.408C52.3693 61.9001 51.6269 61.0354 51.8744 60.1736C51.9744 59.8553 52.1963 59.5894 52.4916 59.4341C63.8404 53.5122 73.3375 45.3719 74.8223 39.8227C75.0669 38.8328 75.0669 37.971 74.8223 37.2315C75.192 38.2185 75.5618 39.2055 75.6841 39.945ZM76.5488 45.1273V46.1114C76.5488 46.6063 76.5488 46.9761 76.4236 47.5933C75.5618 50.924 71.4887 55.2387 65.9395 59.4341C65.0748 60.0513 64.5799 59.1866 64.7051 58.5694C64.8206 58.1919 65.0334 57.8515 65.3223 57.5824C71.1189 53.2677 75.3143 48.8248 76.179 45.3719C76.3013 44.7546 76.4236 44.1403 76.3013 43.5231L76.5488 45.1244V45.1273ZM25.4735 30.6924C25.3512 30.3227 25.2289 30.0752 25.3512 29.5832C25.2289 30.0752 25.3512 30.3227 25.4735 30.6895V30.6924ZM22.3874 35.3798C22.1428 35.0101 22.0205 34.5151 22.0205 33.8979C22.0205 34.5151 22.0205 34.8878 22.3903 35.3798H22.3874ZM20.2911 40.5593C19.9214 40.0643 19.7991 39.45 19.9214 38.7076C19.7991 39.45 19.9214 40.0672 20.2941 40.5593H20.2911ZM66.8013 44.8769C66.8976 45.1432 66.9254 45.4294 66.8822 45.7092C66.8389 45.989 66.726 46.2534 66.5538 46.4782C61.1269 51.4131 53.1088 56.348 44.7181 59.9232C32.2571 65.1056 22.8823 65.4753 22.0205 61.0325C21.8953 60.6627 22.0205 60.9102 22.1428 60.7879C22.1428 60.9102 22.1428 61.5274 22.6378 62.2669C22.5126 62.0194 22.3903 61.8972 22.268 61.6497C22.1428 61.5274 22.1428 61.4051 22.0205 61.2799C21.7731 60.9102 21.6508 60.4182 21.4033 60.0484C23.747 63.1316 32.3823 62.5144 43.4865 57.7047C51.8744 54.1265 59.8925 49.0694 65.3223 44.2597C66.3093 43.7648 66.679 44.5072 66.8013 44.8769ZM35.5907 67.4464C35.713 67.6938 35.8382 68.1888 35.3433 68.311C30.9033 69.0506 27.6949 68.6808 26.213 67.0766C25.721 66.4594 24.9815 65.5976 24.4865 64.9804C25.8432 66.7068 29.1739 67.2018 33.9865 66.4594C34.8512 66.4594 35.4655 67.2018 35.5878 67.4493L35.5907 67.4464ZM74.4496 58.4442C74.8194 57.7047 75.192 56.5925 75.4395 55.853C73.9547 60.6627 64.4576 68.0636 54.0958 72.5064C47.679 75.217 42.3744 76.2039 39.5386 75.3422C40.2781 75.5867 41.3874 75.8371 42.2521 75.9594C50.1479 77.1909 70.132 67.3241 74.4525 58.4442H74.4496ZM68.0357 67.3241C68.0357 67.4464 67.7883 67.819 67.2962 68.1888C64.5799 70.4073 60.8794 72.6287 57.0567 74.23C53.8483 75.5867 51.0097 76.3262 48.9134 76.4514H45.8273C48.2962 76.5737 51.8744 75.7119 56.192 73.9854C60.5097 72.1338 64.7051 69.6678 67.7883 67.0766C67.9135 67.0766 67.9135 66.9543 68.0357 66.9543C68.0357 66.9543 68.0357 67.0766 68.158 67.0766C68.158 67.0766 68.158 67.2018 68.0357 67.3241ZM19.9214 38.2185C19.9214 38.0962 20.0466 37.8487 20.0466 37.7235C20.2941 36.984 20.7861 35.8748 21.0336 35.1324C21.0336 35.505 20.9084 35.7525 20.7861 36.1222C20.4163 36.7395 20.1689 37.479 19.9214 38.2185Z" fill="white"/>
</g>
<defs>
<clipPath id="clip0_342_5485">
<rect width="93.1659" height="93.1659" fill="white" transform="translate(0.973633 0.768555)"/>
</clipPath>
</defs>
</svg>
