<svg width="94" height="94" viewBox="0 0 94 94" fill="none" xmlns="http://www.w3.org/2000/svg">
<g clip-path="url(#clip0_342_5489)">
<path d="M47.0717 93.9344C72.7988 93.9344 93.6546 73.0785 93.6546 47.3515C93.6546 21.6244 72.7988 0.768555 47.0717 0.768555C21.3447 0.768555 0.48877 21.6244 0.48877 47.3515C0.48877 73.0785 21.3447 93.9344 47.0717 93.9344Z" fill="#42C1CA"/>
<path d="M46.8737 38.3495C47.9568 33.7989 49.2611 29.7084 50.647 27.0386C51.1565 25.7634 53.2236 22.7093 55.4916 20.6917C59.2677 17.3289 63.5039 16.4759 67.9147 19.2447L67.5275 19.859L67.9147 19.2447C70.1652 20.6567 71.0678 22.1095 70.6718 23.4779C70.3807 24.4969 69.2656 25.3121 68.6687 25.2277C67.7953 25.315 66.9161 25.1403 66.0776 24.5231C65.3716 23.9794 64.8271 23.2537 64.5025 22.424C63.8853 20.9682 63.0759 20.4733 62.0831 20.5898C61.364 20.6713 60.5284 21.1313 60.2634 21.4399L59.5792 22.1969C59.0474 22.7632 58.5752 23.3827 58.1701 24.0456C56.7843 26.3544 55.5061 30.5847 53.7331 39.351L65.4836 41.0717L64.8373 45.7795L52.9121 44.0326L52.4026 47.1304L52.2715 47.9048C52.2017 48.3066 52.126 48.7433 52.0386 49.2091L64.0803 50.9735L63.3903 55.6754L51.0662 53.8703C49.6425 59.9203 47.7676 66.4041 46.4429 68.9632C45.9304 70.2413 43.8662 73.2896 41.5982 75.3101C37.8221 78.6699 33.586 79.5259 29.1751 76.7571C26.9246 75.3451 26.0221 73.8894 26.418 72.521C26.7092 71.502 27.8242 70.6897 28.4211 70.7741C29.2945 70.6868 30.1738 70.8615 31.0123 71.4758C31.6586 71.9533 32.1943 72.6462 32.5873 73.5778C33.2046 75.0306 34.0139 75.5285 35.0067 75.412C35.7259 75.3276 36.5615 74.8676 36.8264 74.559C39.4671 71.6184 41.5604 65.9528 44.2069 52.8688L32.4563 51.1452L33.1027 46.4375L45.0279 48.1843L45.5403 45.0895C45.6535 44.3942 45.7749 43.7002 45.9042 43.0078L33.9091 41.2522L34.5962 36.5502L46.8737 38.3495Z" fill="white"/>
</g>
<defs>
<clipPath id="clip0_342_5489">
<rect width="93.1659" height="93.1659" fill="white" transform="translate(0.487793 0.768555)"/>
</clipPath>
</defs>
</svg>
