<svg width="94" height="94" viewBox="0 0 94 94" fill="none" xmlns="http://www.w3.org/2000/svg">
<g clip-path="url(#clip0_342_5500)">
<path d="M47.0986 93.9344C72.8256 93.9344 93.6815 73.0785 93.6815 47.3515C93.6815 21.6244 72.8256 0.768555 47.0986 0.768555C21.3715 0.768555 0.515625 21.6244 0.515625 47.3515C0.515625 73.0785 21.3715 93.9344 47.0986 93.9344Z" fill="#00AFEC"/>
<path d="M59.635 35.2059C59.7776 34.9758 59.9057 34.6701 60.0367 34.4081C63.0018 29.1578 64.5621 23.2313 64.5669 17.2015C60.389 14.7909 55.9782 13.2711 51.1802 12.7441C52.9561 20.4944 55.4716 28.0001 59.108 35.0719L59.635 35.2059ZM35.6797 33.8811L35.5487 33.852L34.5297 33.6191V33.6017H34.5151L35.4322 29.6043C36.1106 29.7498 36.7889 29.91 37.4644 30.0759H37.479C39.9515 24.4976 41.8791 18.6934 43.2349 12.7441C36.9821 13.4346 31.0325 15.8038 26.0166 19.6006V19.6122C21.808 22.7992 18.3753 26.8974 15.9758 31.5996C13.5762 36.3019 12.2721 41.4863 12.1611 46.7642V47.463C15.8904 49.6063 19.9787 51.0526 24.2261 51.7311L24.2465 51.7108C28.7038 46.2069 32.5409 40.2286 35.6884 33.8841H35.6797V33.8811ZM57.5504 39.7768C58.3161 40.1844 58.6014 40.7667 58.9653 41.908C59.469 43.6315 59.1284 45.4454 58.7703 47.1486L62.9948 48.1297L64.0429 43.5791C68.3081 50.1444 73.0392 56.9251 78.7835 62.2472C77.7412 64.6142 77.0948 65.4411 75.5605 67.5199C66.1566 64.6259 56.1412 63.0916 46.3006 63.1876L47.142 59.8249L44.3354 59.1699C43.8987 59.0592 43.4532 58.8642 43.1912 58.4799C42.8622 58.0431 42.8622 57.4667 42.9728 56.9514L44.7284 49.3176C45.6368 49.5359 46.5859 49.6786 47.4361 50.0833C47.8339 50.243 48.1885 50.4941 48.4712 50.8163C48.7539 51.1385 48.9569 51.5227 49.0635 51.9379C49.2936 53.0966 48.8015 54.2088 48.6035 55.3239L52.3826 56.1973L55.5328 42.5485L55.2125 42.4408L54.965 42.3942C55.8385 41.4771 56.6013 40.6619 57.3903 39.6662L57.5533 39.7768H57.5504ZM24.3367 52.6075L24.427 52.4823C25.1607 52.6453 25.7255 52.5842 26.4767 52.6628C29.1639 52.9015 31.7725 52.954 34.4482 52.5755C34.652 52.5464 34.8616 52.526 35.0683 52.5172L34.4482 54.8988C34.3375 55.3704 34.1308 55.8596 33.7261 56.1565C33.526 56.2892 33.3006 56.379 33.0641 56.42C32.8275 56.4611 32.585 56.4527 32.3519 56.3953C31.3912 56.2002 30.4304 55.9382 29.458 55.7518C29.1639 57.0824 28.8466 58.4158 28.5409 59.7376L34.9926 61.2312C34.7306 62.4336 34.6665 62.7597 34.3928 63.9504C29.0222 64.687 23.7177 65.8444 18.5284 67.4121C16.9999 65.3363 16.3449 64.8355 15.32 62.4656C18.5867 59.4377 21.5272 56.0692 24.3367 52.6075ZM39.3161 62.2269L41.9043 62.8266L41.817 63.339L39.054 63.537L39.3161 62.2269ZM34.5442 51.8069C34.7451 51.7792 34.9472 51.7617 35.1498 51.7544V51.7428L38.4805 37.3312C38.6115 36.6761 38.8735 36.0211 38.6668 35.366C38.5868 35.1311 38.4538 34.9178 38.2781 34.7426C38.1024 34.5674 37.8888 34.435 37.6536 34.3557L37.5459 34.3208C36.9927 34.1723 37.4178 34.2771 36.8559 34.1461C36.7948 34.1315 36.5153 34.2247 36.4512 34.2131C33.3386 40.4835 29.5381 46.3883 25.1199 51.8185C25.8507 51.9728 25.7313 51.9291 26.4621 52.0048C29.1552 52.2523 31.8657 52.1853 34.5413 51.8098L34.5442 51.8069Z" fill="white"/>
<path d="M41.9456 31.0977V31.1093C42.458 28.9461 42.9384 26.7742 43.4625 24.6139L47.7656 25.6038L46.2691 32.1021L48.8457 32.7019C49.1019 31.6217 49.3552 30.5387 49.6027 29.4556L49.9782 27.831L50.3538 26.2065L54.654 27.1876C54.5958 27.4787 54.5317 27.7699 54.4677 28.061C54.0513 29.9447 53.5884 31.811 53.1721 33.7005L58.1244 34.8534C54.4881 27.7786 52.0803 20.3836 50.3072 12.6333C49.1951 12.5023 48.7263 12.546 47.5996 12.5256H46.9125C45.6781 12.5256 45.221 12.4936 44.0098 12.6333C42.6473 18.5814 41.0401 24.8206 38.5654 30.3989L41.9456 31.0977ZM47.6549 36.6556L47.7859 36.6847L47.8005 36.6556H47.6549Z" fill="white"/>
<path d="M47.6661 36.6519L45.6688 45.3106C46.9091 45.5842 48.2018 46.0384 49.477 45.6803C49.8869 45.5512 50.2588 45.3233 50.5598 45.0167C50.8609 44.71 51.082 44.334 51.2035 43.9218C51.4422 43.1561 51.5616 42.37 51.7712 41.6072L53.8791 42.1429C53.9722 42.1575 53.8645 42.2128 53.9256 42.1516L53.9781 42.1109C54.8515 41.1734 55.8414 40.1457 56.6275 39.1529C55.3379 38.5079 53.9637 38.0482 52.5456 37.7874L47.6661 36.6519ZM79.0222 33.2485C76.0089 26.5114 71.7145 21.4397 65.3297 17.7422C65.3239 23.7747 63.874 29.1579 60.9102 34.4131C60.7303 34.7419 60.5662 35.079 60.4181 35.4233C62.4154 35.86 63.6615 36.1279 65.6587 36.5763V36.5966L64.3719 42.3817C68.6284 48.944 73.3769 56.1702 79.1096 61.4981C80.9379 57.3289 81.9336 52.8424 82.0355 48.289V46.6498C81.9241 42.0268 80.9 37.4715 79.0222 33.2456V33.2485ZM12.1611 48.2249V48.7286C12.2281 53.384 13.2238 57.2125 15.0871 61.4807C18.1783 58.6292 21.0503 55.5489 23.6788 52.266C19.4426 51.5905 15.8732 50.3794 12.1611 48.2249ZM46.1812 63.9466L44.7168 70.3227H44.708L40.3846 69.3328L41.587 64.1009L38.8357 64.296L37.8167 68.7301H37.8109L33.4845 67.7373C33.7057 66.7533 33.9212 65.7925 34.1628 64.823C29.0125 65.5217 23.9291 66.6426 18.9652 68.174C22.1533 72.501 26.2956 76.0351 31.0706 78.5022C35.8456 80.9692 41.1248 82.3027 46.4986 82.3993H47.9281C53.2619 82.2617 58.494 80.9089 63.2259 78.4437C67.9579 75.9786 72.065 72.4662 75.2344 68.174C65.8256 65.2766 56.0256 63.8506 46.1812 63.9466Z" fill="white"/>
</g>
<defs>
<clipPath id="clip0_342_5500">
<rect width="93.1659" height="93.1659" fill="white" transform="translate(0.515625 0.768555)"/>
</clipPath>
</defs>
</svg>
