<svg width="94" height="94" viewBox="0 0 94 94" fill="none" xmlns="http://www.w3.org/2000/svg">
<g clip-path="url(#clip0_342_5507)">
<path d="M46.6137 93.9344C72.3407 93.9344 93.1966 73.0785 93.1966 47.3515C93.1966 21.6244 72.3407 0.768555 46.6137 0.768555C20.8867 0.768555 0.0307617 21.6244 0.0307617 47.3515C0.0307617 73.0785 20.8867 93.9344 46.6137 93.9344Z" fill="#C40E09"/>
<path fill-rule="evenodd" clip-rule="evenodd" d="M64.6643 21.5557C64.9264 21.7595 65.1622 21.9341 65.3806 22.1234C65.957 22.6329 66.5364 23.1424 67.0983 23.6694C67.5438 24.0944 67.9659 24.5486 68.3939 24.9941C68.4288 25.029 68.4579 25.1105 68.4463 25.1571C68.1843 26.1703 67.7883 27.1252 67.2584 28.0161C66.7926 28.7964 66.2569 29.5126 65.6339 30.156C64.7895 31.0295 63.8433 31.7573 62.8069 32.3542C62.3556 32.6162 61.8927 32.8491 61.4297 33.082C59.9536 33.8303 58.3815 34.2495 56.7802 34.5465C55.6884 34.7503 54.585 34.8959 53.4874 35.0472C52.0433 35.2452 50.5963 35.4054 49.1551 35.615C47.0298 35.9236 44.9481 36.4069 42.9742 37.324C40.8022 38.3343 38.9942 39.8104 37.7656 41.991C36.9475 43.4467 36.6156 45.0335 36.6302 46.7163C36.6564 49.9392 37.7598 52.7255 39.6639 55.2031C40.8284 56.717 42.1561 58.0621 43.5535 59.3315C44.5201 60.2137 45.5071 61.0696 46.4708 61.9518C47.7023 63.0873 48.9368 64.2198 49.9936 65.5445C50.5468 66.2433 51.0942 66.9595 51.5687 67.7194C52.3781 69.0179 53.0215 70.4124 53.4437 71.906C53.6766 72.7212 53.8163 73.551 53.8804 74.4011C53.9731 75.6646 53.861 76.9349 53.5485 78.1627C53.4233 78.6663 53.4175 78.6751 52.9196 78.7653C52.218 78.8963 51.5163 79.0303 50.8117 79.1438C50.2964 79.2224 49.7782 79.2719 49.26 79.3301C49.0794 79.3534 48.896 79.3622 48.7126 79.3767L48.6049 79.3738C48.6078 79.3331 48.6049 79.2923 48.6165 79.2574C48.7737 78.841 48.9484 78.4305 49.0969 78.0113C49.424 77.1103 49.6449 76.1743 49.7549 75.2221C49.9478 73.548 49.6408 71.8542 48.8727 70.3542C48.3381 69.3419 47.6573 68.4139 46.8522 67.6C45.7575 66.45 44.5522 65.4426 43.3439 64.4382C41.3263 62.7583 39.3756 61.0027 37.5938 59.0462C36.5098 57.8652 35.5244 56.5974 34.6475 55.2555C33.6881 53.8086 32.9355 52.2348 32.4115 50.5797C31.6106 48.0064 31.5853 45.2541 32.3387 42.6665C32.7638 41.17 33.3373 39.7638 34.2224 38.5031C35.3928 36.8349 36.9038 35.5917 38.6361 34.6309C40.383 33.6556 42.2463 33.0151 44.1649 32.5347C45.708 32.1445 47.2714 31.8534 48.8465 31.6612C50.6225 31.4458 52.3985 31.2653 54.1745 31.0644C55.6243 30.9014 57.0655 30.7005 58.4659 30.2579C59.7412 29.8729 60.9128 29.204 61.8927 28.3015C62.7399 27.5095 63.3688 26.5604 63.82 25.4715C64.2364 24.4671 64.4402 23.4073 64.5886 22.333C64.6207 22.0943 64.6381 21.8497 64.6673 21.5557H64.6643ZM44.1096 58.8977C44.7472 58.7725 45.3528 58.6648 45.9555 58.5338C47.5044 58.1902 49.0329 57.7768 50.4682 57.0431C51.8806 56.3273 53.1366 55.3376 54.1628 54.1317C55.2109 52.8914 56.0698 51.526 56.5182 49.9072C56.7993 48.8824 56.8979 47.816 56.8093 46.757C56.6266 44.6015 55.8905 42.5296 54.6723 40.742C53.7526 39.3897 52.6992 38.1334 51.528 36.9921C51.3242 36.7854 51.1087 36.5845 50.902 36.3807C50.8729 36.3516 50.8496 36.3166 50.8059 36.2642L51.9123 36.0925L54.3084 35.7285C54.7276 35.6645 55.1469 35.5946 55.5661 35.5393C55.6156 35.5335 55.6855 35.5888 55.7262 35.6324C56.4716 36.5001 57.2344 37.3502 57.9506 38.244C58.8822 39.4028 59.6683 40.6721 60.3088 42.0405C60.8766 43.2604 61.2929 44.5298 61.4967 45.8749C61.6394 46.8153 61.7005 47.7644 61.6044 48.7135C61.3249 51.3717 60.5359 53.8318 58.9783 55.9805C58.0117 57.3168 56.8209 58.3969 55.4788 59.2995C53.9155 60.3307 52.2151 61.1373 50.4274 61.6956C49.6617 61.9402 48.8873 62.1498 48.1158 62.3652C48.0802 62.3733 48.0433 62.3735 48.0076 62.366C47.972 62.3584 47.9383 62.3433 47.909 62.3216C46.6659 61.2152 45.4285 60.1001 44.1911 58.988C44.1679 58.9705 44.1504 58.9443 44.1125 58.9006L44.1096 58.8977ZM50.2702 30.6626L48.3953 30.9538L46.2699 31.2828C46.0224 31.3235 45.7721 31.3701 45.5188 31.3963C45.426 31.4031 45.3343 31.3739 45.2626 31.3148C44.4443 30.563 43.6842 29.7503 42.9887 28.8837C42.6102 28.4034 42.2259 27.923 41.8911 27.4076C40.7557 25.6491 39.8677 23.7713 39.4921 21.6605C39.1562 19.8583 39.254 18.0021 39.7774 16.2452C39.8094 16.1288 39.8444 16.0705 39.9812 16.0443C40.7615 15.9104 41.533 15.7357 42.3104 15.6076C42.9509 15.5057 43.603 15.4533 44.2494 15.3776L44.7793 15.3252C44.7327 15.43 44.7065 15.4999 44.6744 15.561C44.1177 16.7011 43.734 17.9179 43.5361 19.1712C43.2725 20.8837 43.5483 22.6359 44.3251 24.1847C44.9685 25.4803 45.8478 26.5779 46.8435 27.5911C47.8799 28.6392 49.0037 29.5825 50.1305 30.5229C50.1712 30.5578 50.2062 30.5957 50.2731 30.6626H50.2702ZM41.0293 63.5269L39.7891 63.6579C39.265 63.7161 38.7409 63.7569 38.2169 63.8384C37.4104 63.9636 36.601 64.0859 35.8033 64.2635C32.8831 64.9098 30.6093 66.4587 29.369 69.4371C28.9148 70.5233 28.5761 71.6543 28.3588 72.8115C28.35 72.8639 28.3326 72.9163 28.3093 73.0094C28.1433 72.8813 27.989 72.7765 27.8493 72.6542C27.267 72.136 26.6876 71.6236 26.1199 71.0937C25.7094 70.7094 25.3221 70.2989 24.9145 69.9087C24.7777 69.7777 24.7515 69.6467 24.801 69.4604C25.3523 67.4688 26.4388 65.6664 27.9424 64.2489C28.9138 63.3475 30.0005 62.579 31.1741 61.9634C32.822 61.0609 34.5834 60.5427 36.3885 60.1525C36.5981 60.1089 36.8136 60.0856 37.0174 60.0303C37.1455 59.9953 37.2299 60.0303 37.3202 60.1147L39.003 61.6548L40.8692 63.3697C40.9249 63.4196 40.9784 63.4721 41.0293 63.5269ZM53.6271 50.7806C53.4815 50.7457 53.336 50.7137 53.1962 50.67L43.1489 47.5286C41.8591 47.1268 40.5722 46.7279 39.2854 46.3232C38.7904 46.1689 38.5371 45.7642 38.575 45.3508C38.6274 44.7394 38.8312 44.3143 39.4048 44.2008C39.563 44.1767 39.7247 44.1907 39.8764 44.2416C40.9653 44.5764 42.0512 44.9257 43.1372 45.2635L50.8263 47.6625L53.892 48.6145C54.1213 48.6777 54.3202 48.8214 54.4522 49.0192C54.5843 49.217 54.6407 49.4558 54.6112 49.6918C54.5267 50.341 54.1395 50.7632 53.6271 50.7806ZM32.4028 69.6933C32.4959 69.7166 32.6066 69.737 32.7143 69.769L46.7037 74.1362C47.1841 74.2875 47.4694 74.6893 47.4257 75.161C47.3704 75.7957 47.0385 76.2178 46.5407 76.2615C46.3866 76.2691 46.2325 76.2473 46.0865 76.1974C42.2288 74.9979 38.3741 73.7926 34.5194 72.5873C33.7158 72.3369 32.9123 72.0923 32.1116 71.839C31.6633 71.6964 31.3663 71.315 31.3983 70.8783C31.4449 70.3018 31.6574 69.8622 32.1728 69.7312C32.2397 69.7108 32.3125 69.7079 32.4057 69.6933H32.4028ZM61.8956 23.7975C61.8519 23.9256 61.7937 24.1934 61.6685 24.4176C61.4647 24.7844 61.0483 24.9213 60.6378 24.7932L53.892 22.6853C51.4785 21.9312 49.0649 21.1772 46.6484 20.4289C46.2379 20.3008 45.9322 20.0592 45.8856 19.5934C45.8332 19.0693 46.0748 18.3676 46.7619 18.289C46.8923 18.2804 47.023 18.2982 47.1463 18.3414L61.1677 22.7173C61.6335 22.8629 61.8956 23.2064 61.8956 23.7975ZM41.763 42.6141C41.7921 42.0114 42.0542 41.5572 42.5258 41.464C42.7113 41.4312 42.902 41.4432 43.0819 41.499C44.4968 41.9299 45.906 42.3753 47.3209 42.8179L52.6547 44.4774C52.8915 44.5431 53.0953 44.6946 53.2266 44.9023C53.3579 45.11 53.4073 45.3591 53.3651 45.6012C53.2574 46.2708 52.8585 46.6784 52.317 46.6202C52.0404 46.5853 51.7696 46.4746 51.4959 46.3902L44.5609 44.2241L42.4705 43.5719C42.261 43.517 42.0765 43.392 41.9478 43.2177C41.8192 43.0435 41.7539 42.8305 41.763 42.6141ZM40.7964 48.1167C40.9827 48.1662 41.1225 48.1924 41.2593 48.2331L50.0519 50.9815C50.2935 51.0572 50.5381 51.1271 50.7797 51.2057C51.3183 51.3804 51.5804 51.8812 51.4406 52.4518C51.3329 52.9031 51.1174 53.2495 50.6516 53.3281C50.4993 53.3501 50.344 53.3371 50.1974 53.2903C49.0794 52.9497 47.9644 52.5974 46.8493 52.248C44.7734 51.6017 42.7005 50.9524 40.6276 50.3119C40.2432 50.1925 39.9521 49.9625 39.888 49.5404C39.8153 49.0716 39.9375 48.6378 40.3131 48.3379C40.4587 48.2244 40.6508 48.1836 40.7964 48.1196V48.1167ZM32.6939 74.864C32.7347 74.2351 33.0083 73.7431 33.5761 73.682C33.7006 73.6696 33.8264 73.6825 33.9458 73.7198C37.1717 74.7243 40.3975 75.7287 43.6234 76.739C44.1417 76.902 44.3949 77.4144 44.2639 77.9618C44.1533 78.4276 43.9146 78.7537 43.4575 78.8585C43.372 78.8826 43.2819 78.8846 43.1954 78.8643L34.1496 76.0402C33.8847 75.9558 33.6168 75.8772 33.349 75.7898C33.1554 75.7254 32.9875 75.6008 32.8697 75.4343C32.7519 75.2678 32.6903 75.068 32.6939 74.864ZM35.5966 66.9449C35.6839 66.9682 35.8004 66.9886 35.9139 67.0235L45.4664 70.0048C45.9322 70.1504 46.2233 70.558 46.1884 71.0122C46.1389 71.6352 45.8186 72.0632 45.3295 72.1244C45.164 72.1377 44.9975 72.1169 44.8404 72.0632C42.2638 71.2626 39.6872 70.4532 37.1135 69.6467C36.4991 69.4575 35.8819 69.2682 35.2705 69.0732C34.8222 68.9276 34.5514 68.5578 34.5892 68.0978C34.6358 67.4981 34.8687 67.1079 35.3695 66.9769C35.4336 66.9595 35.5005 66.9595 35.5966 66.9478V66.9449ZM57.7875 27.4601C57.4731 27.3669 57.1674 27.2825 56.8617 27.1864C53.8717 26.2547 50.8816 25.3143 47.8887 24.3798C47.2918 24.1905 47.0502 23.7101 47.2132 23.0754C47.3151 22.6707 47.5247 22.3796 47.9178 22.2893C48.0911 22.2507 48.2715 22.2567 48.4418 22.3068C51.0912 23.1249 53.7436 23.9547 56.3959 24.7815C56.9636 24.9562 57.5284 25.1367 58.0962 25.3143C58.3117 25.3835 58.496 25.5266 58.6164 25.7183C58.7368 25.9101 58.7855 26.1382 58.7541 26.3624C58.7046 26.7467 58.5969 27.1194 58.2301 27.3087C58.0932 27.3785 57.9389 27.4076 57.7875 27.4601ZM60.6495 19.5992C60.5942 19.9864 60.4893 20.4086 60.0468 20.624C59.821 20.7246 59.5647 20.7319 59.3335 20.6444L52.448 18.4899L49.7607 17.6456C49.1959 17.4709 48.9513 16.9818 49.1056 16.3791C49.2105 15.9686 49.4084 15.6513 49.8189 15.5639C49.9991 15.5288 50.1851 15.5388 50.3605 15.593C52.1714 16.152 53.9794 16.7227 55.7874 17.2875L59.9362 18.5802C60.3875 18.7228 60.6524 19.0751 60.6495 19.5992Z" fill="white"/>
</g>
<defs>
<clipPath id="clip0_342_5507">
<rect width="93.1659" height="93.1659" fill="white" transform="translate(0.0297852 0.768555)"/>
</clipPath>
</defs>
</svg>
