<svg width="94" height="94" viewBox="0 0 94 94" fill="none" xmlns="http://www.w3.org/2000/svg">
<g clip-path="url(#clip0_342_5511)">
<path d="M47.1254 93.9344C72.8525 93.9344 93.7084 73.0785 93.7084 47.3515C93.7084 21.6244 72.8525 0.768555 47.1254 0.768555C21.3984 0.768555 0.54248 21.6244 0.54248 47.3515C0.54248 73.0785 21.3984 93.9344 47.1254 93.9344Z" fill="#2080A2"/>
<path fill-rule="evenodd" clip-rule="evenodd" d="M47.0673 59.8621C43.7337 63.6673 43.6522 68.8875 47.1052 72.3638C50.3689 69.2194 50.3718 63.3587 47.0673 59.8621ZM47.0702 24.3659C39.1948 33.4728 39.4918 44.2393 47.0644 53.1861C54.7739 44.0559 54.7943 33.3418 47.0702 24.363V24.3659ZM52.6369 50.6416C59.1876 43.9453 67.1795 42.4138 76.2399 43.8637C73.3197 50.56 69.2001 55.9083 61.9215 58.7062C63.5286 57.4456 64.993 56.4149 66.3177 55.2329C68.5304 53.2619 70.0968 50.8745 70.88 48.0067C71.1274 47.1013 70.8072 46.845 69.9745 46.7111C66.9262 46.222 64.0643 46.8625 61.3304 48.1086C56.7304 50.2048 52.9834 53.4336 49.4693 56.9419C49.4081 57.006 49.3819 57.0991 49.2713 57.3C56.1568 57.562 61.4003 60.3104 64.5068 66.6603C60.4716 67.557 56.7799 67.3677 53.356 65.1667C55.9356 65.9586 58.5093 66.5351 61.3334 65.1958C60.984 64.6135 60.7802 63.9323 60.3144 63.5509C59.0421 62.5115 57.7377 61.4604 56.2966 60.6685C54.0693 59.4516 51.5801 58.8809 48.8258 58.3161C52.5437 64.829 51.6121 70.7421 47.0673 76.466C44.9536 73.802 43.4746 71.0158 43.0699 67.7258C42.6623 64.4243 43.5911 61.4255 45.1836 58.5548C41.6608 57.99 34.0591 62.0689 32.8828 65.2133C35.6108 66.5933 38.2719 65.9644 41.0116 64.9454C39.0434 66.9718 33.369 67.8015 29.6686 66.5817C32.7402 60.3221 37.9575 57.5649 44.9973 57.3029C44.4791 56.7789 44.0948 56.3742 43.693 55.9869C40.7641 53.1629 37.6518 50.5717 33.995 48.6851C31.005 47.142 27.8693 46.1754 24.4251 46.6907C24.0175 46.7519 23.6128 46.8509 23.0422 46.9673C24.0903 52.3535 27.7005 55.6929 32.1666 58.5083C27.4734 57.9405 19.5543 49.739 18.0112 43.8521C27.0658 42.3847 35.1013 43.9918 41.623 50.8366C36.2281 38.8211 39.0987 28.1857 47.0673 18.2373C54.9719 28.1071 57.8717 38.6668 52.6369 50.6416Z" fill="white"/>
</g>
<defs>
<clipPath id="clip0_342_5511">
<rect width="93.1659" height="93.1659" fill="white" transform="translate(0.543457 0.768555)"/>
</clipPath>
</defs>
</svg>
