<svg width="94" height="94" viewBox="0 0 94 94" fill="none" xmlns="http://www.w3.org/2000/svg">
<g clip-path="url(#clip0_342_5493)">
<path d="M46.5839 93.9344C72.311 93.9344 93.1668 73.0785 93.1668 47.3515C93.1668 21.6244 72.311 0.768555 46.5839 0.768555C20.8569 0.768555 0.000976562 21.6244 0.000976562 47.3515C0.000976562 73.0785 20.8569 93.9344 46.5839 93.9344Z" fill="#2B61D1"/>
<path d="M72.5362 45.8309L58.3118 37.7344L44.1982 45.9696L44.2814 62.3291L58.5059 70.4256L72.6194 62.1904L72.5362 45.8309Z" fill="white"/>
<path d="M37.2941 52.8196L28.9757 48.0781L20.6851 52.9028L20.7405 62.4967L29.0589 67.2381L37.3218 62.3857L37.2941 52.8196Z" fill="white"/>
<path d="M28.9203 41.2267L37.9873 46.4118L37.9596 42.419L58.2841 30.5515L72.4808 38.648L72.4531 32.2983L46.4998 17.4639L20.6851 32.5479L20.7405 46.0236L28.9203 41.2267Z" fill="white"/>
<path d="M35.0762 70.5647L46.8051 77.2749L52.2952 74.0584L40.5663 67.376L35.0762 70.5647Z" fill="white"/>
</g>
<defs>
<clipPath id="clip0_342_5493">
<rect width="93.1659" height="93.1659" fill="white" transform="translate(0.00146484 0.768555)"/>
</clipPath>
</defs>
</svg>
