<svg width="94" height="94" viewBox="0 0 94 94" fill="none" xmlns="http://www.w3.org/2000/svg">
<g clip-path="url(#clip0_342_5515)">
<path d="M46.6406 93.9344C72.3676 93.9344 93.2235 73.0785 93.2235 47.3515C93.2235 21.6244 72.3676 0.768555 46.6406 0.768555C20.9135 0.768555 0.0576172 21.6244 0.0576172 47.3515C0.0576172 73.0785 20.9135 93.9344 46.6406 93.9344Z" fill="#1D9AD7"/>
<path fill-rule="evenodd" clip-rule="evenodd" d="M75.7544 36.3236C72.8168 33.255 66.7814 30.6871 55.5258 29.112C51.9769 28.6151 48.4136 28.2277 44.8408 27.9503C42.0662 27.7844 39.3731 27.6184 36.7645 27.6184C32.441 34.0818 28.3621 41.8757 24.7723 51.2418C20.8564 61.5192 17.3511 71.6335 14.9055 80.8336H14.1718C14.4163 70.9697 16.0467 59.7811 19.392 48.1761C21.5959 40.6355 24.2046 34.0003 27.1422 28.2007C13.9243 29.6099 4.46215 33.6713 0.0600586 39.4709C3.8129 30.2708 14.987 22.4798 32.0363 19.7459C41.0909 6.23397 51.7759 0.181096 60.6674 2.83632C63.7651 3.7476 66.3767 5.73611 68.4991 8.55438C68.2517 8.38843 68.0071 8.22248 67.6839 8.14095C61.1565 5.48864 52.3465 9.29971 43.7811 18.7502H44.1887C63.3575 18.6687 73.0643 26.7916 75.7573 36.3236H75.7544ZM51.7729 48.7555C56.9931 48.7555 61.2351 53.1488 61.2351 58.5379C61.2351 63.924 56.9931 68.3174 51.7729 68.3174C46.5527 68.3174 42.3108 63.924 42.3108 58.535C42.3108 53.0673 46.5527 48.7555 51.7729 48.7555Z" fill="white"/>
</g>
<defs>
<clipPath id="clip0_342_5515">
<rect width="93.1659" height="93.1659" fill="white" transform="translate(0.0576172 0.768555)"/>
</clipPath>
</defs>
</svg>
