<svg width="94" height="94" viewBox="0 0 94 94" fill="none" xmlns="http://www.w3.org/2000/svg">
<g clip-path="url(#clip0_342_5519)">
<path d="M47.1557 93.9344C72.8827 93.9344 93.7386 73.0785 93.7386 47.3515C93.7386 21.6244 72.8827 0.768555 47.1557 0.768555C21.4286 0.768555 0.572754 21.6244 0.572754 47.3515C0.572754 73.0785 21.4286 93.9344 47.1557 93.9344Z" fill="#27323A"/>
<path d="M72.2028 18.2373C72.2028 18.2373 76.9979 22.4996 73.5944 31.1728C72.9474 32.7671 72.049 34.2475 70.9334 35.5574L59.0984 49.445L49.6013 61.8418C49.6013 61.8418 38.6951 60.0484 34.456 64.4476L52.4312 65.2453C52.4312 65.2453 48.5939 69.4465 33.4487 66.439C33.4487 66.439 33.6525 70.6548 40.5205 71.8543C40.5205 71.8543 34.456 73.8602 30.8196 68.049C30.8196 68.049 30.8196 72.2648 35.0587 74.0582C35.0587 74.0582 31.6232 74.8559 28.7933 71.2545L23.9516 76.4485C23.9516 76.4485 22.9471 76.6494 23.5498 75.6537L27.5879 70.8556C27.5879 70.8556 27.9897 67.4522 25.5616 68.6488C25.5616 68.6488 23.9516 69.2456 24.5542 71.0536C24.5542 71.0536 22.1261 69.0622 24.9589 66.4565L19.4971 61.047L26.566 64.8464L23.5352 57.4427L28.5778 63.8507C28.5778 63.8507 28.1586 56.6478 30.3887 54.6535C30.3887 54.6535 30.9914 61.6584 33.8242 62.2582L33.6204 47.6486L36.6541 45.0458L37.0559 54.2401C37.0559 54.2401 37.8595 55.2358 38.663 54.0421C38.663 54.0421 40.4885 51.0375 40.4885 42.2392L45.3302 37.6391L45.9358 41.2435C45.9358 41.2435 46.7539 42.638 47.7613 41.4414L48.7657 34.4394C48.7657 34.4394 55.2291 27.0357 72.2028 18.2373ZM39.8858 58.8518C56.6382 43.4503 65.5356 28.4448 65.5181 28.4448C57.2438 34.2385 39.8858 58.8547 39.8858 58.8547V58.8518Z" fill="white"/>
</g>
<defs>
<clipPath id="clip0_342_5519">
<rect width="93.1659" height="93.1659" fill="white" transform="translate(0.571777 0.768555)"/>
</clipPath>
</defs>
</svg>
