<svg width="94" height="94" viewBox="0 0 94 94" fill="none" xmlns="http://www.w3.org/2000/svg">
<g clip-path="url(#clip0_342_5523)">
<path d="M46.6674 93.9344C72.3945 93.9344 93.2503 73.0785 93.2503 47.3515C93.2503 21.6244 72.3945 0.768555 46.6674 0.768555C20.9404 0.768555 0.0844727 21.6244 0.0844727 47.3515C0.0844727 73.0785 20.9404 93.9344 46.6674 93.9344Z" fill="#4096D0"/>
<path d="M74.4193 29.8828H55.5096L49.9022 43.9451H32.2181V36.7043H49.9022L52.4904 29.8828H25.7111C25.3795 29.8813 25.0609 30.0113 24.8251 30.2444C24.5893 30.4774 24.4556 30.7945 24.4533 31.126V43.9422H20.1444L17.5532 50.7607H24.4533V63.5623C24.4533 64.2552 25.024 64.82 25.7285 64.82H38.6873L41.2756 58.0044H32.2181V50.7578H46.883L41.2756 64.82H49.9022L55.9405 50.7578H74.5154C75.2142 50.7578 75.7819 50.1988 75.7819 49.5088V31.225C75.7788 30.8665 75.6336 30.5238 75.3782 30.2722C75.1227 30.0205 74.7779 29.8805 74.4193 29.8828ZM68.4509 42.8678C68.4509 43.4618 67.9647 43.9451 67.362 43.9451H58.5287L61.5479 36.7072H67.3562C67.6437 36.7041 67.9207 36.8152 68.1265 37.016C68.3323 37.2169 68.45 37.4911 68.4538 37.7786L68.4509 42.8678Z" fill="white"/>
</g>
<defs>
<clipPath id="clip0_342_5523">
<rect width="93.1659" height="93.1659" fill="white" transform="translate(0.0854492 0.768555)"/>
</clipPath>
</defs>
</svg>
