<svg width="94" height="94" viewBox="0 0 94 94" fill="none" xmlns="http://www.w3.org/2000/svg">
<g clip-path="url(#clip0_342_5527)">
<path d="M47.1825 93.9344C72.9096 93.9344 93.7655 73.0785 93.7655 47.3515C93.7655 21.6244 72.9096 0.768555 47.1825 0.768555C21.4555 0.768555 0.599609 21.6244 0.599609 47.3515C0.599609 73.0785 21.4555 93.9344 47.1825 93.9344Z" fill="#ED1968"/>
<path d="M37.5751 79.0858C33.8554 78.0552 30.387 76.2715 27.385 73.8453C24.4271 71.5666 21.8689 68.8117 19.8153 65.6932C17.6255 62.4128 16.0473 58.7633 15.157 54.9209C14.1378 50.3184 14.1378 45.5486 15.157 40.9461C16.0257 37.0527 17.4993 33.3196 19.5242 29.8826C22.4886 25.1266 26.7242 21.2944 31.7522 18.8192C33.5179 17.8688 35.3702 17.0889 37.2839 16.49C40.1953 19.9837 43.1068 23.7686 46.0182 27.5535C46.3094 28.1358 46.8916 28.4269 47.1828 29.0092C44.2625 29.1316 41.3942 29.8239 38.7396 31.0472C36.3928 32.2741 34.3143 33.9567 32.6256 35.9966C30.9641 38.193 29.6846 40.6536 28.8408 43.2752C28.0633 46.4448 28.1639 49.7663 29.1319 52.8829L41.6511 42.9841C44.5625 46.7689 47.4739 50.2626 50.3854 54.0475C46.3094 57.2501 41.9422 60.4527 37.8662 63.9464C41.9422 69.187 46.3094 74.7187 50.3854 80.2504C46.0808 80.7594 41.7173 80.3627 37.5751 79.0858ZM65.321 43.8167C65.2141 43.3401 65.0879 42.8681 64.9425 42.4018C64.5495 42.7104 55.888 49.331 52.4234 52.3007C49.5119 48.5158 46.6005 45.0221 43.6891 41.2372C47.7651 38.0346 52.1322 34.8321 56.2082 31.3383C52.1322 26.0978 48.0562 20.8572 43.6891 15.3255C43.6891 15.0343 43.3979 15.0343 43.3979 14.7432H47.4739C54.9421 14.8129 62.1511 17.4905 67.854 22.3129C70.6333 24.6095 72.9969 27.3671 74.8414 30.4649C77.0138 33.7998 78.407 37.5812 78.9174 41.5284C79.6974 46.0662 79.5986 50.7116 78.6263 55.2121C77.7929 58.9831 76.2086 62.5477 73.968 65.6932C72.0125 68.7131 69.5501 71.3725 66.6894 73.5541C63.9032 75.9749 60.6254 77.7628 57.0817 78.7947C54.4614 75.5921 52.1322 72.6807 49.8031 69.4781C48.9329 68.4821 48.1534 67.4103 47.4739 66.2755C50.2288 66.2848 52.9487 65.6592 55.4228 64.4475C57.8968 63.2357 60.0584 61.4702 61.74 59.2881C63.4169 57.1429 64.6088 54.6597 65.2337 52.0095C65.7752 49.7997 65.8043 47.0688 65.321 43.8167ZM51.5703 68.1942C53.5809 70.9405 55.6682 73.6298 57.8299 76.2588C60.5951 75.2589 63.1502 73.7533 65.3647 71.8189C68.0495 69.7665 70.3584 67.2645 72.1891 64.4239C74.2577 61.5212 75.7211 58.232 76.4922 54.7521C77.4064 50.5247 77.4966 46.1604 76.7542 41.8078C76.278 38.1577 74.9832 34.6624 72.9664 31.5829C71.245 28.6934 69.0389 26.1219 66.4448 23.9811C61.2046 19.5479 54.5958 17.0574 47.733 16.9297C50.4319 20.3651 53.1658 23.8676 57.9318 29.9991L59.2128 31.6411L57.629 32.9949C55.5581 34.7562 53.4438 36.4658 51.2879 38.122C51.0841 38.2821 48.6094 40.1833 46.7519 41.6215C47.5176 42.5968 48.4056 43.709 49.7623 45.4064C51.1016 47.0805 51.9896 48.1955 52.7553 49.1709C54.1062 48.0558 55.5794 46.8854 57.3437 45.517C57.629 45.2957 62.2815 41.7147 63.5945 40.684L66.0867 38.7246L67.0271 41.7525C68.1121 45.2419 68.2269 48.9607 67.359 52.5103C66.6635 55.4632 65.3365 58.2304 63.4693 60.6215C60.5003 64.4745 56.2359 67.1213 51.4655 68.0719L51.5703 68.1942Z" fill="white"/>
</g>
<defs>
<clipPath id="clip0_342_5527">
<rect width="93.1659" height="93.1659" fill="white" transform="translate(0.599609 0.768555)"/>
</clipPath>
</defs>
</svg>
