<svg width="94" height="94" viewBox="0 0 94 94" fill="none" xmlns="http://www.w3.org/2000/svg">
<g clip-path="url(#clip0_342_5531)">
<path d="M46.6962 93.9344C72.4233 93.9344 93.2792 73.0785 93.2792 47.3515C93.2792 21.6244 72.4233 0.768555 46.6962 0.768555C20.9692 0.768555 0.113281 21.6244 0.113281 47.3515C0.113281 73.0785 20.9692 93.9344 46.6962 93.9344Z" fill="#2D475B"/>
<path d="M37.5811 37.7H69.8544V44.9436H37.5811V37.7ZM69.8544 49.7649H69.9883V68.8144C69.9883 68.8144 44.8131 87.0546 25.2599 67.2073C25.2599 67.2073 14.5459 56.3419 18.4297 40.5153C18.4297 40.5153 21.51 20.802 44.9471 18.3884C44.9471 18.3884 59.4082 16.3737 68.783 27.1052L63.1581 32.602C63.1581 32.602 51.2387 20.2634 35.3044 29.9235C35.3044 29.9235 22.3136 37.1642 27.6706 55.4044C27.6706 55.4044 33.5634 71.2309 52.0422 68.0109C52.0422 68.0109 58.3367 66.5785 61.551 63.8068V57.0086H37.584V49.7649H69.8544Z" fill="white"/>
</g>
<defs>
<clipPath id="clip0_342_5531">
<rect width="93.1659" height="93.1659" fill="white" transform="translate(0.113281 0.768555)"/>
</clipPath>
</defs>
</svg>
