<svg width="94" height="94" viewBox="0 0 94 94" fill="none" xmlns="http://www.w3.org/2000/svg">
<g clip-path="url(#clip0_342_5535)">
<path d="M47.2094 93.9344C72.9364 93.9344 93.7923 73.0785 93.7923 47.3515C93.7923 21.6244 72.9364 0.768555 47.2094 0.768555C21.4824 0.768555 0.626465 21.6244 0.626465 47.3515C0.626465 73.0785 21.4824 93.9344 47.2094 93.9344Z" fill="#58BF00"/>
<path d="M73.4123 66.5089L53.0614 57.0234V36.0029L73.4123 28.7854V66.5089ZM43.7827 76.466L23.918 67.2105V29.7608L43.7827 39.0191V76.466ZM72.9261 27.4287L72.5971 27.5452L53.0614 34.4773L52.5723 34.652L44.2951 37.5867L24.7011 28.4564L52.5723 18.5692L52.8169 18.4819L53.3322 18.2984L53.5127 18.2373L73.1066 27.3676L72.9232 27.4287H72.9261Z" fill="white"/>
</g>
<defs>
<clipPath id="clip0_342_5535">
<rect width="93.1659" height="93.1659" fill="white" transform="translate(0.627441 0.768555)"/>
</clipPath>
</defs>
</svg>
