<svg width="94" height="94" viewBox="0 0 94 94" fill="none" xmlns="http://www.w3.org/2000/svg">
<g clip-path="url(#clip0_342_5542)">
<path d="M47.2392 93.9344C72.9662 93.9344 93.8221 73.0785 93.8221 47.3515C93.8221 21.6244 72.9662 0.768555 47.2392 0.768555C21.5121 0.768555 0.65625 21.6244 0.65625 47.3515C0.65625 73.0785 21.5121 93.9344 47.2392 93.9344Z" fill="#BC3FE0"/>
<path fill-rule="evenodd" clip-rule="evenodd" d="M32.935 43.901V37.1115C32.935 26.4091 39.3955 19.6924 50.622 19.6924C59.1583 19.6924 63.9273 23.3084 67.619 27.9609L60.3899 33.4926C57.6211 30.1008 55.0037 28.1064 50.7006 28.1064C45.5474 28.1064 42.47 31.6496 42.47 37.3357V43.901H61.6214V51.5784H42.47V64.1995H67.4646V72.0982H26.8589V66.3423L32.935 64.5692V51.5784H26.8589V43.901H32.935Z" fill="white"/>
</g>
<defs>
<clipPath id="clip0_342_5542">
<rect width="93.1659" height="93.1659" fill="white" transform="translate(0.655273 0.768555)"/>
</clipPath>
</defs>
</svg>
