<svg width="94" height="94" viewBox="0 0 94 94" fill="none" xmlns="http://www.w3.org/2000/svg">
<g clip-path="url(#clip0_342_5539)">
<path d="M93.3075 47.3515C93.3075 56.5647 90.5754 65.5711 85.4568 73.2316C80.3382 80.8921 73.063 86.8628 64.5511 90.3885C56.0392 93.9143 46.6729 94.8368 37.6367 93.0393C28.6005 91.2419 20.3002 86.8053 13.7854 80.2906C7.27071 73.7759 2.83411 65.4756 1.0367 56.4394C-0.760712 47.4032 0.161785 38.0369 3.68754 29.525C7.21329 21.0131 13.1839 13.7378 20.8445 8.61919C28.505 3.5006 37.5113 0.768555 46.7246 0.768555C59.0791 0.768555 70.9277 5.67639 79.6637 14.4124C88.3997 23.1484 93.3075 34.9969 93.3075 47.3515Z" fill="#001B69"/>
<path d="M49.9898 23.772C52.0611 23.7489 54.1266 23.9952 56.1345 24.5046C57.8256 24.9127 59.4619 25.5212 61.0087 26.3171L58.8913 30.9034C57.5965 30.2462 56.2424 29.713 54.8471 29.3111C53.3531 28.8441 51.7964 28.6084 50.2311 28.6124C49.2699 28.5963 48.3126 28.7394 47.398 29.0359C46.5481 29.3057 45.7764 29.778 45.1494 30.4122C44.4711 31.0944 43.9582 31.9231 43.6502 32.8345C43.2867 33.9988 43.1151 35.2146 43.1421 36.4341V45.8269H55.1139V50.1888H43.1421V56.9221C43.1602 58.063 43.0321 59.2016 42.7609 60.31C42.5604 61.1639 42.2275 61.9813 41.7742 62.7323C41.3948 63.3814 40.9096 63.9625 40.3386 64.4516C39.8198 64.8956 39.2645 65.295 38.6786 65.6458H62.4994V70.9309H30.9458V66.027C31.8321 65.8102 32.6863 65.4785 33.4867 65.0402C34.266 64.599 34.9475 64.004 35.4898 63.2913C36.0946 62.5112 36.5484 61.6251 36.828 60.6784C37.168 59.4776 37.3292 58.2334 37.3065 56.9856V50.2099H31.0093V45.8481H37.315V35.5236C37.2909 33.831 37.6107 32.1511 38.2551 30.5858C38.8482 29.1801 39.7397 27.9201 40.868 26.893C42.03 25.8496 43.3954 25.0581 44.8783 24.5681C46.5263 24.0214 48.2536 23.7523 49.9898 23.772Z" fill="white"/>
</g>
<defs>
<clipPath id="clip0_342_5539">
<rect width="93.1659" height="93.1659" fill="white" transform="translate(0.141602 0.768555)"/>
</clipPath>
</defs>
</svg>
