<svg width="94" height="94" viewBox="0 0 94 94" fill="none" xmlns="http://www.w3.org/2000/svg">
<g clip-path="url(#clip0_342_5546)">
<path d="M46.7519 93.9344C72.4789 93.9344 93.3348 73.0785 93.3348 47.3515C93.3348 21.6244 72.4789 0.768555 46.7519 0.768555C21.0248 0.768555 0.168945 21.6244 0.168945 47.3515C0.168945 73.0785 21.0248 93.9344 46.7519 93.9344Z" fill="#1666AF"/>
<path d="M45.8757 32.8114V38.809H32.1919C30.416 38.809 28.2295 39.432 26.602 40.5849C24.5844 42.0174 23.4577 44.1631 23.4577 47.3598C23.4577 50.5566 24.5844 52.7023 26.602 54.1348C28.2295 55.2877 30.416 55.9107 32.1919 55.9107H38.0148V61.9083H32.1919C29.0111 61.877 25.9132 60.89 23.3004 59.0755C19.7252 56.5367 17.6377 52.5597 17.6377 47.3598C17.6377 42.16 19.7252 38.183 23.3004 35.6442C25.9123 33.8301 29.0092 32.8431 32.189 32.8114H45.8757ZM31.3185 50.8099V44.8123H45.8757V61.9083H40.0557V50.8099H31.3185ZM55.4863 38.7915V32.7939H75.8664V61.9083H49.6576V38.8119H55.4805V55.9078H70.0435V38.7944L55.4863 38.7915Z" fill="white"/>
</g>
<defs>
<clipPath id="clip0_342_5546">
<rect width="93.1659" height="93.1659" fill="white" transform="translate(0.169922 0.768555)"/>
</clipPath>
</defs>
</svg>
