<svg width="94" height="94" viewBox="0 0 94 94" fill="none" xmlns="http://www.w3.org/2000/svg">
<g clip-path="url(#clip0_342_5554)">
<path d="M46.7812 93.9344C72.5082 93.9344 93.3641 73.0785 93.3641 47.3515C93.3641 21.6244 72.5082 0.768555 46.7812 0.768555C21.0541 0.768555 0.198242 21.6244 0.198242 47.3515C0.198242 73.0785 21.0541 93.9344 46.7812 93.9344Z" fill="#EFB914"/>
<path fill-rule="evenodd" clip-rule="evenodd" d="M61.3442 29.4602C63.7823 31.3732 65.8113 33.7566 67.3107 36.4688C68.8101 39.181 69.7493 42.1668 70.0727 45.2489L61.7838 43.1876C61.0038 40.5828 59.5563 38.2273 57.585 36.3545C55.6137 34.4818 53.187 33.1569 50.5457 32.5114C42.2015 30.4355 33.7758 35.3966 31.7233 43.5923C29.6707 51.788 34.7803 60.1147 43.1274 62.1905C45.7657 62.8566 48.5322 62.8229 51.1536 62.0927C53.7749 61.3626 56.1605 59.9613 58.0747 58.0272L66.3635 60.0856C64.6266 62.6566 62.392 64.8534 59.7917 66.5461C57.1913 68.2388 54.2781 69.3931 51.2241 69.9408L48.8658 79.3767L41.3077 77.4989L43.1827 70.0019C41.8997 69.7909 40.6359 69.4764 39.4036 69.0615L37.5316 76.5585L29.9735 74.6777L32.3318 65.2417C25.4084 59.7828 21.9234 50.6962 24.1681 41.7144C26.4128 32.7327 33.7671 26.3391 42.4519 24.7612L44.8102 15.3252L52.3683 17.2031L50.4933 24.7C51.7763 24.911 53.0401 25.2255 54.2723 25.6404L56.1444 18.1435L63.7025 20.0242L61.3442 29.4602Z" fill="white"/>
</g>
<defs>
<clipPath id="clip0_342_5554">
<rect width="93.1659" height="93.1659" fill="white" transform="translate(0.197266 0.768555)"/>
</clipPath>
</defs>
</svg>
