<svg width="94" height="94" viewBox="0 0 94 94" fill="none" xmlns="http://www.w3.org/2000/svg">
<g clip-path="url(#clip0_342_5558)">
<path d="M47.2944 93.9344C73.0214 93.9344 93.8773 73.0785 93.8773 47.3515C93.8773 21.6244 73.0214 0.768555 47.2944 0.768555C21.5673 0.768555 0.711426 21.6244 0.711426 47.3515C0.711426 73.0785 21.5673 93.9344 47.2944 93.9344Z" fill="#008DDE"/>
<path d="M70.6711 51.2111C70.9555 51.2217 71.2391 51.1748 71.5049 51.0733C71.7707 50.9717 72.0133 50.8176 72.2183 50.6202C72.4232 50.4227 72.5862 50.186 72.6975 49.9241C72.8088 49.6622 72.8662 49.3806 72.8662 49.096C72.8662 48.8114 72.8088 48.5298 72.6975 48.2679C72.5862 48.006 72.4232 47.7693 72.2183 47.5718C72.0133 47.3744 71.7707 47.2203 71.5049 47.1187C71.2391 47.0172 70.9555 46.9703 70.6711 46.9808H65.8381V42.2003H75.9437C76.2281 42.2108 76.5117 42.1639 76.7775 42.0624C77.0433 41.9608 77.2859 41.8067 77.4909 41.6093C77.6958 41.4118 77.8588 41.1751 77.9701 40.9132C78.0814 40.6513 78.1388 40.3697 78.1388 40.0851C78.1388 39.8005 78.0814 39.5189 77.9701 39.257C77.8588 38.9951 77.6958 38.7584 77.4909 38.5609C77.2859 38.3635 77.0433 38.2094 76.7775 38.1078C76.5117 38.0063 76.2281 37.9594 75.9437 37.9699H65.7974C65.5923 35.7049 64.643 33.5716 63.0976 31.903C61.5523 30.2344 59.4979 29.1245 57.2552 28.7465V23.6544C57.2658 23.3701 57.2189 23.0865 57.1173 22.8207C57.0158 22.5548 56.8617 22.3122 56.6642 22.1073C56.4668 21.9024 56.23 21.7394 55.9682 21.628C55.7063 21.5167 55.4246 21.4593 55.1401 21.4593C54.8555 21.4593 54.5739 21.5167 54.312 21.628C54.0501 21.7394 53.8134 21.9024 53.6159 22.1073C53.4184 22.3122 53.2644 22.5548 53.1628 22.8207C53.0613 23.0865 53.0144 23.3701 53.0249 23.6544V28.6039H48.2443V17.4793C48.2549 17.1949 48.208 16.9113 48.1065 16.6455C48.0049 16.3797 47.8508 16.137 47.6534 15.9321C47.4559 15.7272 47.2192 15.5642 46.9573 15.4529C46.6954 15.3416 46.4137 15.2842 46.1292 15.2842C45.8446 15.2842 45.563 15.3416 45.3011 15.4529C45.0392 15.5642 44.8025 15.7272 44.605 15.9321C44.4076 16.137 44.2535 16.3797 44.1519 16.6455C44.0504 16.9113 44.0035 17.1949 44.014 17.4793V28.601H39.2305V23.6515C39.2102 23.1041 38.9785 22.5859 38.584 22.2058C38.1896 21.8258 37.6632 21.6134 37.1154 21.6134C36.5676 21.6134 36.0412 21.8258 35.6467 22.2058C35.2523 22.5859 35.0205 23.1041 35.0002 23.6515V28.7465C32.7576 29.1245 30.7032 30.2344 29.1578 31.903C27.6125 33.5716 26.6632 35.7049 26.4581 37.9699H14.5125C14.2281 37.9594 13.9445 38.0063 13.6787 38.1078C13.4129 38.2094 13.1702 38.3635 12.9653 38.5609C12.7604 38.7584 12.5974 38.9951 12.4861 39.257C12.3748 39.5189 12.3174 39.8005 12.3174 40.0851C12.3174 40.3697 12.3748 40.6513 12.4861 40.9132C12.5974 41.1751 12.7604 41.4118 12.9653 41.6093C13.1702 41.8067 13.4129 41.9608 13.6787 42.0624C13.9445 42.1639 14.2281 42.2108 14.5125 42.2003H26.4202V46.9808H21.5873C21.3029 46.9703 21.0193 47.0172 20.7535 47.1187C20.4877 47.2203 20.245 47.3744 20.0401 47.5718C19.8352 47.7693 19.6722 48.006 19.5609 48.2679C19.4495 48.5298 19.3922 48.8114 19.3922 49.096C19.3922 49.3806 19.4495 49.6622 19.5609 49.9241C19.6722 50.186 19.8352 50.4227 20.0401 50.6202C20.245 50.8176 20.4877 50.9717 20.7535 51.0733C21.0193 51.1748 21.3029 51.2217 21.5873 51.2111H26.4202V55.9917H17.2114C16.927 55.9812 16.6434 56.0281 16.3776 56.1296C16.1118 56.2312 15.8691 56.3853 15.6642 56.5827C15.4593 56.7802 15.2963 57.0169 15.185 57.2788C15.0737 57.5407 15.0163 57.8223 15.0163 58.1069C15.0163 58.3914 15.0737 58.6731 15.185 58.935C15.2963 59.1968 15.4593 59.4336 15.6642 59.631C15.8691 59.8285 16.1118 59.9826 16.3776 60.0841C16.6434 60.1857 16.927 60.2326 17.2114 60.222H26.4581C26.6632 62.487 27.6125 64.6204 29.1578 66.289C30.7032 67.9576 32.7576 69.0675 35.0002 69.4454V72.7354C34.9897 73.0197 35.0366 73.3033 35.1381 73.5691C35.2397 73.835 35.3938 74.0776 35.5912 74.2825C35.7887 74.4874 36.0254 74.6504 36.2873 74.7618C36.5492 74.8731 36.8308 74.9305 37.1154 74.9305C37.4 74.9305 37.6816 74.8731 37.9435 74.7618C38.2054 74.6504 38.4421 74.4874 38.6396 74.2825C38.837 74.0776 38.9911 73.835 39.0927 73.5691C39.1942 73.3033 39.2411 73.0197 39.2305 72.7354V69.5881H44.0111V79.1696C44.0314 79.717 44.2632 80.2352 44.6576 80.6153C45.0521 80.9954 45.5785 81.2078 46.1263 81.2078C46.674 81.2078 47.2005 80.9954 47.5949 80.6153C47.9894 80.2352 48.2211 79.717 48.2414 79.1696V69.5881H53.022V74.5375C53.0115 74.8219 53.0583 75.1055 53.1599 75.3713C53.2614 75.6372 53.4155 75.8798 53.613 76.0847C53.8104 76.2896 54.0472 76.4526 54.3091 76.5639C54.571 76.6753 54.8526 76.7326 55.1372 76.7326C55.4217 76.7326 55.7034 76.6753 55.9652 76.5639C56.2271 76.4526 56.4639 76.2896 56.6613 76.0847C56.8588 75.8798 57.0129 75.6372 57.1144 75.3713C57.216 75.1055 57.2629 74.8219 57.2523 74.5375V69.4484C59.495 69.0704 61.5494 67.9605 63.0947 66.2919C64.6401 64.6233 65.5894 62.49 65.7945 60.2249H79.8014C80.0857 60.2355 80.3693 60.1886 80.6351 60.0871C80.901 59.9855 81.1436 59.8314 81.3485 59.634C81.5534 59.4365 81.7164 59.1998 81.8278 58.9379C81.9391 58.676 81.9965 58.3943 81.9965 58.1098C81.9965 57.8252 81.9391 57.5436 81.8278 57.2817C81.7164 57.0198 81.5534 56.7831 81.3485 56.5856C81.1436 56.3882 80.901 56.2341 80.6351 56.1325C80.3693 56.031 80.0857 55.9841 79.8014 55.9946H65.841V51.2141H70.6711V51.2111ZM62.4609 59.3107C62.4593 61.1403 61.7319 62.8945 60.4382 64.1882C59.1445 65.4818 57.3903 66.2093 55.5608 66.2108H36.6947C34.8651 66.2093 33.111 65.4818 31.8173 64.1882C30.5236 62.8945 29.7961 61.1403 29.7946 59.3107V38.8783C29.7961 37.0488 30.5236 35.2946 31.8173 34.0009C33.111 32.7072 34.8651 31.9798 36.6947 31.9782H55.5608C57.3903 31.9798 59.1445 32.7072 60.4382 34.0009C61.7319 35.2946 62.4593 37.0488 62.4609 38.8783V59.3078V59.3107Z" fill="white"/>
<path d="M41.1843 36.9709C40.3672 36.9578 39.55 36.986 38.7358 37.0553C37.4489 37.2009 36.5027 38.3655 36.462 39.629C36.3979 42.4939 36.4503 45.3646 36.4328 48.2294C36.4736 49.6909 36.3339 51.17 36.5493 52.6169C36.756 53.9096 38.0196 54.7423 39.2744 54.7394C43.1757 54.7656 47.077 54.7481 50.9784 54.751V56.3669H38.4155L36.7997 61.2144H49.3014C50.7629 61.1736 52.239 61.3134 53.6889 61.1008C54.9816 60.8941 55.8113 59.6306 55.8084 58.3758C55.8375 53.272 55.8143 48.1683 55.823 43.0616C55.7764 41.6932 55.9424 40.2987 55.6658 38.9478C55.3717 37.5706 53.8956 36.8923 52.5913 36.9767H43.6357C42.8205 36.9913 41.9995 36.9738 41.1814 36.968L41.1843 36.9709ZM41.2804 41.8243H50.9755V49.9035H41.2804V41.8243Z" fill="white"/>
</g>
<defs>
<clipPath id="clip0_342_5558">
<rect width="93.1659" height="93.1659" fill="white" transform="translate(0.711426 0.768555)"/>
</clipPath>
</defs>
</svg>
