<svg width="94" height="94" viewBox="0 0 94 94" fill="none" xmlns="http://www.w3.org/2000/svg">
<g clip-path="url(#clip0_342_5564)">
<path d="M46.8085 93.9344C72.5356 93.9344 93.3915 73.0785 93.3915 47.3515C93.3915 21.6244 72.5356 0.768555 46.8085 0.768555C21.0815 0.768555 0.225586 21.6244 0.225586 47.3515C0.225586 73.0785 21.0815 93.9344 46.8085 93.9344Z" fill="#005396"/>
<path d="M36.1172 14.1552C39.1424 13.1808 42.2869 12.6254 45.4629 12.5044C49.8213 12.3064 54.203 13.0139 58.3227 14.4201C65.0397 16.791 70.8744 21.1531 75.0489 26.9248C76.0096 28.2058 76.819 29.5829 77.5993 30.9804C78.5047 32.7505 79.3228 34.5731 79.9401 36.4626C80.7553 39.0567 81.3667 41.7439 81.5559 44.4661C81.6549 45.0542 81.5909 45.654 81.6724 46.2421C81.7015 46.9787 81.6898 47.7153 81.6724 48.4577C81.5909 49.0487 81.6549 49.6485 81.5559 50.2366C81.3812 52.688 80.8746 55.1103 80.1759 57.4686C79.587 59.4165 78.8271 61.3085 77.905 63.1226C74.4707 69.8665 68.9447 75.3169 62.1541 78.658C60.2605 79.6022 58.2778 80.3561 56.2352 80.9085C52.8142 81.8897 49.2477 82.306 45.7016 82.207C45.1106 82.1255 44.5021 82.1896 43.9227 82.0906C41.2646 81.9072 38.6501 81.3278 36.1084 80.5359C31.0107 78.8812 26.3606 76.079 22.516 72.3449C18.6713 68.6108 15.7347 64.0444 13.932 58.9971C12.7966 55.6926 12.0687 52.2368 11.9814 48.7343C11.862 47.0544 11.9901 45.3658 12.127 43.6888C12.3803 41.2112 12.9422 38.7597 13.705 36.3927C16.0224 29.4498 20.4552 23.4065 26.3813 19.1105C27.6624 18.1497 29.0395 17.3345 30.437 16.56C32.2571 15.5954 34.1577 14.7908 36.1172 14.1552ZM42.8426 26.7617V34.9195C42.8251 35.0651 42.959 35.1466 43.0318 35.2456C44.2837 36.5616 45.5473 37.8659 46.7992 39.1848C46.7901 35.0438 46.7901 30.9027 46.7992 26.7617C45.4833 26.7617 44.1586 26.753 42.8397 26.7617H42.8426ZM25.636 30.9833C25.9359 31.1813 26.1542 31.4695 26.4075 31.717C29.1035 34.4392 31.8083 37.1526 34.4926 39.8923C36.9528 42.3786 39.4216 44.8563 41.8702 47.3426C38.9034 50.3822 35.8813 53.3693 32.9233 56.4088C30.5563 58.7962 28.1864 61.1836 25.8282 63.5681C25.7658 63.6188 25.7017 63.6673 25.636 63.7136C29.121 63.7136 32.6147 63.7224 36.1084 63.6962C39.6749 59.9637 43.2589 56.2429 46.8167 52.5046C50.3832 56.2342 53.9584 59.9637 57.5249 63.6962C61.0099 63.7224 64.4949 63.7049 67.977 63.7136C67.4442 63.2856 67.025 62.7528 66.5271 62.287C64.032 59.7657 61.5194 57.2415 59.0302 54.7115C56.6166 52.2513 54.1593 49.829 51.7632 47.3514C52.3455 46.7691 52.887 46.1635 53.4868 45.59C58.0519 40.9899 62.5996 36.3724 67.1618 31.7694C67.4355 31.5073 67.6626 31.1987 67.977 30.9833C64.4833 30.9833 61.0012 30.9716 57.5162 30.9891C53.9497 34.7187 50.3745 38.4424 46.808 42.169C43.2502 38.4307 39.6662 34.7099 36.0997 30.9891C32.6147 30.9804 29.121 30.9804 25.636 30.9804V30.9833ZM46.8254 55.483C46.8254 59.6376 46.8342 63.7864 46.8167 67.9439C48.1414 67.9323 49.4661 67.9439 50.7821 67.9439V59.7745C50.7876 59.7308 50.7822 59.6864 50.7665 59.6452C50.7507 59.6041 50.7251 59.5675 50.6918 59.5386C50.0222 58.8108 49.3118 58.1324 48.6509 57.4075C48.0511 56.7524 47.4077 56.1555 46.8254 55.483Z" fill="white"/>
</g>
<defs>
<clipPath id="clip0_342_5564">
<rect width="93.1659" height="93.1659" fill="white" transform="translate(0.225586 0.768555)"/>
</clipPath>
</defs>
</svg>
