<svg width="94" height="94" viewBox="0 0 94 94" fill="none" xmlns="http://www.w3.org/2000/svg">
<g clip-path="url(#clip0_342_5568)">
<path d="M47.3229 93.9344C73.05 93.9344 93.9059 73.0785 93.9059 47.3515C93.9059 21.6244 73.05 0.768555 47.3229 0.768555C21.5959 0.768555 0.73999 21.6244 0.73999 47.3515C0.73999 73.0785 21.5959 93.9344 47.3229 93.9344Z" fill="#372D2C"/>
<path d="M29.7522 54.5924L30.0463 54.374H29.9473L28.5906 55.6259C28.9103 55.2112 29.3054 54.8606 29.7551 54.5924H29.7522Z" fill="black"/>
<path d="M79.203 39.8979C79.059 39.6742 78.8351 39.5139 78.577 39.4495C77.571 39.2026 76.5616 38.9696 75.5491 38.7508L75.8228 37.3999L75.9975 36.5497L76.079 36.1188L76.1576 35.653C76.2681 34.962 76.1906 34.2541 75.9334 33.6033C75.6615 32.9096 75.215 32.2979 74.637 31.8275C74.059 31.3572 73.3693 31.0443 72.6348 30.919C72.3928 29.4514 72.0583 28.0006 71.6333 26.5751L71.5838 26.4005L64.3459 17.6079L64.0752 17.5293C63.7811 17.4507 57.2595 15.5233 48.3826 15.5204L48.4815 13.7678C49.2976 13.4992 49.9907 12.9476 50.4355 12.2126C50.8803 11.4777 51.0474 10.6078 50.9068 9.7603C50.7661 8.9128 50.3269 8.14359 49.6685 7.5917C49.0101 7.03982 48.176 6.74169 47.317 6.7512C46.4595 6.74387 45.6276 7.04297 44.9711 7.59463C44.3147 8.14629 43.8767 8.91424 43.7363 9.76015C43.5958 10.6061 43.7621 11.4743 44.205 12.2085C44.648 12.9428 45.3386 13.4947 46.1524 13.7648L46.2543 15.5263C37.3395 15.535 30.7829 17.4507 30.5034 17.5439L30.2327 17.6225L22.9949 26.415L22.9483 26.5897C22.5232 28.0163 22.1884 29.4633 21.9467 30.9277H21.9234L21.411 31.0558C20.454 31.3475 19.6321 31.9702 19.0922 32.8125C18.5524 33.6548 18.3299 34.6617 18.4647 35.653L18.5433 36.1159L18.6248 36.5468L18.7995 37.3969L19.0732 38.7537C18.0687 38.9749 17.0643 39.202 16.0627 39.4466C15.8044 39.5104 15.5803 39.6709 15.4368 39.895C15.3364 40.0631 15.288 40.2571 15.2976 40.4527C15.3072 40.6482 15.3744 40.8366 15.4908 40.994C15.6072 41.1515 15.7675 41.271 15.9517 41.3376C16.1358 41.4041 16.3355 41.4148 16.5256 41.3681C17.5039 41.1294 18.4821 40.9023 19.4633 40.6898L19.5361 41.0624C17.2496 48.3146 17.7755 56.1616 21.0093 63.0438C25.3997 72.4128 35.5024 82.5154 47.3228 82.5154C59.1403 82.5154 69.2459 72.4128 73.648 63.0292C76.8713 56.1409 77.3857 48.2922 75.0891 41.0421L75.159 40.6985C76.1431 40.914 77.1271 41.1411 78.1083 41.3798C78.2985 41.4264 78.4982 41.4158 78.6823 41.3492C78.8664 41.2827 79.0268 41.1631 79.1431 41.0057C79.2595 40.8482 79.3267 40.6599 79.3363 40.4643C79.346 40.2687 79.2975 40.0747 79.1972 39.9066L79.203 39.8979ZM44.7374 10.3701C44.7397 9.62037 45.0363 8.9015 45.5634 8.36837C46.0906 7.83523 46.806 7.5305 47.5557 7.51982C49.1279 7.51982 49.1279 13.2058 47.5557 13.2204C46.806 13.2097 46.0906 12.905 45.5634 12.3718C45.0363 11.8387 44.7397 11.1198 44.7374 10.3701ZM46.6241 13.8929C46.8541 13.9366 47.0841 13.9599 47.317 13.9599H47.4276L47.6489 20.0797C47.7919 20.2702 47.8613 20.5059 47.8442 20.7435C47.8271 20.9811 47.7246 21.2045 47.5557 21.3724C47.4632 21.465 47.3534 21.5383 47.2325 21.5883C47.1116 21.6383 46.982 21.6638 46.8511 21.6636C45.378 21.6636 44.193 21.2152 44.193 20.6737C44.193 20.1729 45.1887 19.7566 46.493 19.6867L46.8511 19.678H46.9501L46.6241 13.8929ZM24.4855 27.9755L25.3327 27.6728L26.7739 27.1924L28.6663 26.6334C29.3534 26.4238 30.122 26.2316 30.9227 26.022L33.4673 25.4484C34.3494 25.2737 35.2607 25.0787 36.204 24.9185C37.1502 24.7584 38.0965 24.6303 39.0572 24.4702C40.018 24.3101 40.9788 24.2314 41.9221 24.1208C42.8683 24.0044 43.797 23.9578 44.7083 23.8792C45.1887 23.8355 45.6807 23.8151 46.1495 23.7976H46.199L47.3199 33.7751L48.4553 23.7132H49.6723C50.3944 23.7132 51.0669 23.6812 51.6579 23.7132L53.1952 23.7773L54.5402 23.8238L53.2126 23.6957L51.6754 23.5502C51.0815 23.489 50.4235 23.4716 49.6898 23.425C48.9059 23.367 48.1204 23.3349 47.3344 23.3289H47.3228C46.4959 23.3289 45.605 23.2794 44.6967 23.3114C43.7912 23.3435 42.8392 23.3289 41.8784 23.393L38.9641 23.5851C37.9858 23.6637 37.0105 23.7452 36.0497 23.8733C35.0889 24.0014 34.1427 24.1441 33.246 24.2576C32.3813 24.3654 31.5283 24.5313 30.7247 24.674L29.2923 24.5604L32.1426 20.6708L46.3766 17.5672L46.4639 19.1102C44.5424 19.2616 43.1012 19.8992 43.1012 20.6649C43.1012 21.5384 44.9936 22.2488 47.3286 22.2488C49.6636 22.2488 51.556 21.5413 51.556 20.6649C51.556 19.8992 50.1149 19.2616 48.1933 19.1102L48.2807 17.573L62.4535 20.6678L65.3067 24.5575L61.3413 24.8778L61.2686 24.869L61.3122 24.8807H61.254L68.8441 28.6423C68.8441 28.6423 72.1166 39.1525 67.6067 48.0848C67.092 49.0942 66.493 50.0584 65.8162 50.9671C65.8162 50.9671 58.8113 54.2017 48.0419 54.7724L47.3228 51.8115C48.2034 51.8408 49.0805 51.6882 49.8994 51.3631L52.1412 50.6265C56.6947 49.2232 61.254 47.8403 65.8162 46.4806L66.2646 46.3525L66.4101 45.9362L66.5557 45.5198L66.6664 45.1181L66.8731 44.332C67.2399 42.7889 67.5019 41.2226 67.6592 39.6417L67.7873 38.0404L67.8164 37.2397V36.4245L67.8338 35.5919L67.7552 34.7592L67.6271 33.9265C67.5723 33.6559 67.5023 33.3886 67.4175 33.1259L67.2894 32.7095L67.1438 32.2117L67.0419 32.1971L67.0012 32.069L66.8556 31.5712L66.282 31.4926C61.5546 30.9412 56.8036 30.6147 52.0451 30.5143L51.5502 30.4998L51.3406 30.9161L48.7319 36.0286L47.3228 36.0519L45.7797 36.081L42.9848 31.0733L42.8392 30.8026L42.548 30.82C40.181 30.951 37.817 31.1432 35.4558 31.3965C33.1032 31.646 30.7592 31.9713 28.4276 32.3718H28.4742H28.4451L28.3461 32.6921C28.3201 32.7747 28.2968 32.8583 28.2762 32.9425C28.3228 32.7532 28.3781 32.5669 28.4363 32.3718C28.3443 32.6292 28.2374 32.881 28.1161 33.1259C28.0637 33.3297 28.0054 33.5306 27.9676 33.7344L27.9385 33.813L27.7638 34.5991L27.6357 35.3822L27.5542 36.1829C27.525 36.7128 27.5076 37.2572 27.525 37.7842L27.5862 39.3855C27.6939 40.9867 27.9064 42.5822 28.2267 44.1573L28.4014 44.9434L28.6285 45.744L28.6925 45.9362L28.9167 46.0148L37.98 48.9932C40.6469 49.8608 43.3108 50.7546 45.969 51.6688C46.1961 51.7154 46.4261 51.7474 46.659 51.7649L46.8191 51.7794H46.8657L46.9472 51.7969L47.282 51.8115H47.3315L46.592 54.8248C43.9489 54.902 41.3036 54.8067 38.6729 54.5395C32.2037 53.6719 27.9472 52.123 26.8409 51.6834C23.2505 44.3153 22.416 35.9055 24.4884 27.9755H24.4855ZM58.8404 32.43L50.2779 48.5739L49.7043 49.6512L49.288 49.7938C48.7894 49.9741 48.266 50.0763 47.7362 50.0966C46.9241 50.1782 46.104 50.0798 45.3343 49.8084L45.0431 49.6978L45.41 49.0136L54.3772 32.1273L54.7819 31.3615C56.2376 31.4256 57.7283 31.5391 59.248 31.6672L58.8404 32.43ZM61.4724 32.6921L61.8916 31.9002L63.1231 32.0137L64.2935 32.1418L64.4391 32.1564H64.5323L64.1014 32.9716L56.9975 46.3583L56.4152 47.456L53.0845 48.5128L53.6581 47.4268L61.4724 32.6921ZM19.6933 36.3896L19.6467 35.9587L19.6147 35.5424C19.5706 34.8846 19.7548 34.2317 20.1362 33.6939C20.5175 33.1561 21.0727 32.7663 21.708 32.5902C21.148 37.3533 21.564 42.1806 22.9308 46.7776L22.7998 46.7368C22.3269 46.5697 21.8974 46.2988 21.5428 45.9442C21.1881 45.5895 20.9173 45.16 20.7501 44.6872C20.6229 44.2864 20.5428 43.8721 20.5114 43.4527L19.7894 37.263L19.6933 36.3896ZM27.7114 69.7342L27.6677 69.6993L27.6881 69.7284C27.5257 69.6844 27.3761 69.6026 27.2514 69.4897C25.4551 67.2619 23.9286 64.8295 22.7037 62.2431C20.189 56.8779 19.4153 50.8605 20.491 45.0336L20.5027 45.0628C20.752 45.5379 21.103 45.9523 21.5308 46.2764C21.9585 46.6005 22.4524 46.8263 22.9774 46.9377C23.5975 48.9815 24.4011 50.9642 25.3793 52.8625L25.5249 53.1187L25.7957 53.2468C26.8205 53.666 27.8657 54.0329 28.9284 54.3502H28.9546L28.8789 54.3735C28.6435 54.4527 28.4114 54.541 28.183 54.6385C27.991 54.7187 27.8007 54.8031 27.6124 54.8918L26.3779 55.4828L25.9791 55.6749L25.9296 56.0767C25.5817 59.122 25.8854 62.2065 26.8205 65.1254C27.2717 66.5782 27.9064 67.967 28.71 69.2597L28.7246 69.2888L28.774 69.4169C28.8439 69.7401 28.2209 69.8711 27.7114 69.7372V69.7342ZM38.7166 76.1743C36.4625 75.3498 34.4022 74.0704 32.6637 72.4157C31.6725 71.4465 30.8262 70.3395 30.1512 69.1287C29.4806 67.9167 28.9642 66.6256 28.6139 65.2856C28.2704 63.9432 28.0607 62.57 27.988 61.1863C27.9011 59.9725 27.9392 58.753 28.1015 57.547L28.8527 57.2471C29.6242 56.9938 30.4045 56.7696 31.1905 56.5775L32.393 56.3358C33.4323 56.1611 34.4775 56.0359 35.5315 55.9661H35.6567L35.7033 55.9719C34.8036 58.4239 34.35 61.0171 34.364 63.629C34.364 68.8404 36.0817 73.2746 38.8098 76.2297L38.7166 76.1743ZM51.2358 72.8466C50.0304 73.5288 48.667 73.8822 47.282 73.8714C45.839 73.8782 44.4215 73.4906 43.1827 72.7505C42.5945 72.1139 42.0933 71.4022 41.6921 70.6339C42.3708 71.4213 43.2082 72.0566 44.1494 72.4981C45.0907 72.9395 46.1145 73.1772 47.1539 73.1956C48.1934 73.2141 49.225 73.0128 50.1813 72.6049C51.1376 72.1971 51.9969 71.5919 52.7031 70.8289C52.3045 71.5637 51.8112 72.243 51.2358 72.8495V72.8466ZM47.282 71.6296C46.5324 71.633 45.7895 71.4887 45.0956 71.205C44.4018 70.9212 43.7706 70.5035 43.2383 69.9757C42.7059 69.448 42.2828 68.8205 41.993 68.1291C41.7032 67.4378 41.5525 66.6961 41.5494 65.9465V65.9261C41.5483 64.7985 41.8813 63.6958 42.5063 62.7572C43.1314 61.8187 44.0205 61.0864 45.0614 60.6527C46.1023 60.2191 47.2483 60.1036 48.3549 60.3208C49.4614 60.5379 50.4787 61.0781 51.2785 61.873C52.0783 62.6679 52.6247 63.6819 52.8486 64.7871C53.0725 65.8923 52.964 67.039 52.5367 68.0826C52.1095 69.1261 51.3826 70.0197 50.4479 70.6504C49.5132 71.2812 48.4126 71.6209 47.2849 71.6267V71.6296H47.282ZM54.5257 64.8197C54.2325 63.0875 53.3281 61.5177 51.9766 60.3951C50.6252 59.2726 48.9161 58.6716 47.1595 58.7011C45.4028 58.7307 43.715 59.3889 42.4021 60.5564C41.0892 61.7238 40.2382 63.3232 40.0034 65.0643C39.9168 64.4046 39.8633 63.7409 39.8433 63.0758C40.4292 61.5812 41.4541 60.299 42.783 59.3984C44.1119 58.4977 45.6825 58.0207 47.2879 58.0303H47.317C48.8907 58.0266 50.4301 58.4903 51.7399 59.3627C53.0497 60.235 54.071 61.4767 54.6742 62.9302C54.6544 63.563 54.6049 64.1945 54.5257 64.8227V64.8197ZM55.7834 76.2646H55.8125L55.7543 76.285C58.5202 73.327 60.267 68.8637 60.267 63.6115C60.2827 60.9993 59.828 58.4056 58.9249 55.9544H58.9656C63.0853 56.5484 65.231 58.6621 65.231 58.6621C65.231 58.6621 65.6677 70.7329 55.7892 76.2646H55.7834ZM74.6 50.2364V50.8594C74.6 51.0021 74.5884 51.1418 74.5855 51.2816C74.5756 51.6003 74.5581 51.9187 74.5331 52.2365C74.5331 52.3355 74.5156 52.4374 74.5068 52.5364C74.4894 52.7431 74.4719 52.9527 74.4486 53.1565C74.4486 53.2031 74.4399 53.2497 74.4341 53.2963C74.4119 53.4965 74.3876 53.6964 74.3613 53.896V53.9252L74.2798 54.5016V54.522C73.8182 57.5256 72.8765 60.4354 71.4906 63.1398L71.3916 63.332C71.2897 63.5271 71.1878 63.725 71.0801 63.9201C70.0241 65.8898 68.7862 67.7564 67.3826 69.4955C67.2644 69.6082 67.1205 69.6901 66.9633 69.7342L66.9808 69.7051L66.9371 69.7401C66.4334 69.8856 65.79 69.7604 65.8599 69.4198L65.9094 69.2917L65.9385 69.2626C66.7333 67.9641 67.3651 66.5783 67.8164 65.1284C68.7356 62.2121 69.0351 59.1359 68.6956 56.0971L68.649 55.6982L68.2473 55.5061C67.8309 55.2964 67.4321 55.0897 67.0157 54.9121L65.7493 54.3997L65.6357 54.359L65.6648 54.3502C66.7217 54.0387 67.7611 53.666 68.7771 53.241L69.0479 53.1129L69.1935 52.8567C70.1688 50.9584 70.9695 48.9786 71.5867 46.9406C72.6785 46.7164 73.6101 46.0177 74.1284 45.0336C74.4341 46.6699 74.5942 48.3323 74.6087 49.9976C74.6034 50.0771 74.6005 50.1567 74.6 50.2364Z" fill="white"/>
<path d="M28.8236 33.1873L29.4962 32.3721H29.7204H29.3855C29.0478 32.867 28.6344 33.3416 28.2646 33.8278C28.4772 33.6123 28.6431 33.4115 28.8236 33.1873Z" fill="black"/>
<path d="M50.0891 18.8486C51.4983 19.2184 52.427 19.8909 52.427 20.6741C52.427 21.4602 51.4837 22.1298 50.0891 22.4996C52.0107 22.3249 53.4518 21.5708 53.4518 20.6741C53.4518 19.7774 52.0107 19.0175 50.0891 18.8486ZM45.457 26.0457C45.6512 26.0457 45.8375 25.9694 45.9759 25.8332C46.1142 25.6971 46.1935 25.5119 46.1965 25.3178C46.1966 25.2204 46.1774 25.1239 46.1399 25.0339C46.1024 24.944 46.0474 24.8623 45.9782 24.7938C45.9093 24.7259 45.8273 24.6729 45.7372 24.6378C45.6471 24.6028 45.5508 24.5865 45.4541 24.59C45.2631 24.5923 45.0808 24.6702 44.9472 24.8066C44.8135 24.943 44.7393 25.1268 44.7408 25.3178C44.7408 25.7196 45.0611 26.0457 45.457 26.0457ZM26.1106 28.4971C25.9661 28.4985 25.8253 28.5425 25.7057 28.6235C25.5862 28.7046 25.4932 28.8192 25.4385 28.9529C25.3837 29.0865 25.3697 29.2334 25.3981 29.3751C25.4265 29.5167 25.4961 29.6468 25.5982 29.749C25.735 29.8859 25.9184 29.9587 26.1106 29.9528C26.255 29.9515 26.3959 29.9075 26.5154 29.8264C26.635 29.7454 26.728 29.6308 26.7827 29.4971C26.8374 29.3634 26.8514 29.2165 26.823 29.0749C26.7946 28.9333 26.725 28.8032 26.623 28.7009C26.5562 28.6335 26.4762 28.5807 26.388 28.5456C26.2999 28.5105 26.2054 28.494 26.1106 28.4971ZM28.1282 52.0011C28.2726 51.9998 28.4135 51.9558 28.533 51.8747C28.6526 51.7937 28.7456 51.6791 28.8003 51.5454C28.855 51.4117 28.8691 51.2648 28.8406 51.1232C28.8122 50.9816 28.7426 50.8515 28.6406 50.7492C28.5738 50.6818 28.4938 50.629 28.4056 50.5939C28.3175 50.5588 28.223 50.5423 28.1282 50.5454C27.9356 50.5469 27.7514 50.6241 27.6152 50.7603C27.479 50.8965 27.4019 51.0807 27.4003 51.2733C27.4149 51.6809 27.7351 52.0011 28.1282 52.0011ZM45.8064 54.7874C45.9509 54.786 46.0917 54.742 46.2113 54.661C46.3308 54.5799 46.4238 54.4653 46.4785 54.3316C46.5332 54.1979 46.5473 54.0511 46.5189 53.9094C46.4905 53.7678 46.4209 53.6377 46.3188 53.5355C46.252 53.4681 46.172 53.4152 46.0839 53.3801C45.9957 53.3451 45.9013 53.3286 45.8064 53.3317C45.6121 53.3355 45.4269 53.4154 45.2908 53.5542C45.1547 53.693 45.0785 53.8797 45.0786 54.0741C45.0912 54.2616 45.1724 54.4379 45.3066 54.5694C45.4408 54.7009 45.6187 54.7785 45.8064 54.7874ZM49.7805 26.0603C49.9747 26.0603 50.161 25.984 50.2994 25.8478C50.4377 25.7116 50.517 25.5265 50.52 25.3324C50.5201 25.2349 50.5009 25.1384 50.4634 25.0485C50.4259 24.9585 50.3709 24.8769 50.3017 24.8083C50.2328 24.7405 50.1508 24.6874 50.0607 24.6524C49.9706 24.6173 49.8742 24.6011 49.7776 24.6045C49.5866 24.6068 49.4043 24.6847 49.2706 24.8211C49.1369 24.9576 49.0628 25.1414 49.0643 25.3324C49.0643 25.7371 49.3846 26.0603 49.7805 26.0603ZM49.4253 53.3491C49.2332 53.3521 49.0498 53.4298 48.914 53.5656C48.7781 53.7015 48.7005 53.8849 48.6975 54.077C48.7266 54.4758 49.0381 54.7903 49.4253 54.8048C49.5698 54.8035 49.7106 54.7595 49.8302 54.6784C49.9497 54.5974 50.0427 54.4828 50.0974 54.3491C50.1522 54.2154 50.1662 54.0685 50.1378 53.9269C50.1094 53.7853 50.0398 53.6552 49.9377 53.5529C49.8709 53.4855 49.7909 53.4327 49.7028 53.3976C49.6146 53.3625 49.5202 53.346 49.4253 53.3491ZM29.6945 58.2491C29.5677 58.2399 29.4408 58.2667 29.3285 58.3265C29.2162 58.3862 29.1231 58.4765 29.0599 58.5868C28.9926 58.6999 28.9557 58.8285 28.9527 58.9601C28.9496 59.0917 28.9805 59.2218 29.0424 59.3379C29.1705 59.5709 29.4092 59.7135 29.6654 59.7019H29.6945C29.885 59.6981 30.0665 59.6197 30.1998 59.4836C30.3332 59.3475 30.4079 59.1646 30.4078 58.974C30.4099 58.7887 30.3412 58.6096 30.2157 58.4732C30.1488 58.4014 30.0676 58.3444 29.9773 58.3058C29.8871 58.2672 29.7898 58.2479 29.6916 58.2491H29.6945ZM34.0879 56.936C33.9931 56.9368 33.8993 56.9562 33.812 56.9932C33.7247 57.0302 33.6455 57.084 33.579 57.1516C33.5125 57.2192 33.46 57.2992 33.4244 57.3871C33.3888 57.475 33.3709 57.569 33.3717 57.6639C33.3717 58.0656 33.6919 58.3917 34.0879 58.3917C34.282 58.3918 34.4684 58.3154 34.6067 58.1793C34.7451 58.0431 34.8243 57.858 34.8274 57.6639C34.8275 57.5664 34.8082 57.4699 34.7707 57.38C34.7333 57.29 34.6783 57.2084 34.609 57.1398C34.5402 57.072 34.4581 57.0189 34.368 56.9839C34.2779 56.9488 34.1816 56.9325 34.085 56.936H34.0879ZM61.1526 56.936C61.057 56.9396 60.9631 56.9621 60.8761 57.002C60.7892 57.0419 60.711 57.0986 60.646 57.1688C60.581 57.2389 60.5304 57.3212 60.4972 57.4109C60.464 57.5006 60.4488 57.5959 60.4524 57.6915C60.456 57.7871 60.4784 57.881 60.5184 57.968C60.5583 58.0549 60.615 58.1331 60.6851 58.1981C60.7553 58.2631 60.8376 58.3137 60.9273 58.3469C61.017 58.3801 61.1123 58.3954 61.2079 58.3917C61.4009 58.384 61.583 58.2999 61.7141 58.158C61.8451 58.016 61.9144 57.8278 61.9066 57.6348C61.8989 57.4417 61.8148 57.2597 61.6729 57.1286C61.5309 56.9976 61.3427 56.9283 61.1497 56.936H61.1526Z" fill="white"/>
</g>
<defs>
<clipPath id="clip0_342_5568">
<rect width="93.1659" height="93.1659" fill="white" transform="translate(0.739502 0.768555)"/>
</clipPath>
</defs>
</svg>
