<svg width="94" height="94" viewBox="0 0 94 94" fill="none" xmlns="http://www.w3.org/2000/svg">
<g clip-path="url(#clip0_342_5576)">
<path d="M46.8354 93.9344C72.5624 93.9344 93.4183 73.0785 93.4183 47.3515C93.4183 21.6244 72.5624 0.768555 46.8354 0.768555C21.1083 0.768555 0.252441 21.6244 0.252441 47.3515C0.252441 73.0785 21.1083 93.9344 46.8354 93.9344Z" fill="#00A6C4"/>
<path d="M72.3892 31.3381L72.9715 32.3018C75.8751 37.1776 77.4072 42.7475 77.4056 48.4224C77.3532 65.5067 63.6782 79.3767 46.8356 79.3767H46.7832C29.9405 79.3767 16.2131 65.3989 16.2655 48.3146C16.2655 42.5849 17.8494 37.0154 20.752 32.194L21.2819 31.2857L24.0798 34.1243C23.5252 34.935 23.0817 35.8162 22.7609 36.7446C21.6941 39.7007 21.8392 42.9586 23.1645 45.8082C24.4897 48.6578 26.8877 50.8679 29.8357 51.9569C31.5688 52.5741 33.4229 52.7745 35.2479 52.5418C37.0729 52.3091 38.8174 51.6499 40.3402 50.6176L46.8356 57.2586L54.2801 49.7063C54.9672 50.1896 55.7591 50.5652 56.6034 50.8854C62.5719 53.0283 69.1168 49.8664 71.2276 43.8689C72.494 40.3344 71.9147 36.6398 70.0659 33.6934L72.3892 31.3381ZM27.5124 37.6035L36.2758 46.4397C35.219 47.2986 33.9001 47.7789 32.4735 47.7789C29.0438 47.7789 26.243 44.9403 26.243 41.4611C26.243 40.0142 26.7205 38.6749 27.5124 37.6035ZM58.0825 45.904L66.7411 37.1231C67.4282 38.1421 67.795 39.3707 67.795 40.6576C67.795 44.1367 65 46.9754 61.5645 46.9754C60.2456 46.9754 59.084 46.5998 58.0825 45.904ZM46.9404 52.545L21.7041 26.837L22.7056 25.7685C28.9361 19.0722 37.4375 15.3252 46.5736 15.3252H46.626C55.8669 15.3252 64.7351 19.343 70.9131 26.3013L71.8652 27.3756L46.9433 52.545H46.9404ZM25.8209 26.837L46.9404 48.3146L67.7979 27.2679C62.2021 21.5906 54.6004 18.324 46.6813 18.324H46.626C38.7593 18.324 31.4225 21.3227 25.8238 26.8399L25.8209 26.837Z" fill="white"/>
</g>
<defs>
<clipPath id="clip0_342_5576">
<rect width="93.1659" height="93.1659" fill="white" transform="translate(0.253418 0.768555)"/>
</clipPath>
</defs>
</svg>
