<svg width="94" height="94" viewBox="0 0 94 94" fill="none" xmlns="http://www.w3.org/2000/svg">
<g clip-path="url(#clip0_342_5580)">
<path d="M47.3505 93.9344C73.0776 93.9344 93.9334 73.0785 93.9334 47.3515C93.9334 21.6244 73.0776 0.768555 47.3505 0.768555C21.6235 0.768555 0.767578 21.6244 0.767578 47.3515C0.767578 73.0785 21.6235 93.9344 47.3505 93.9344Z" fill="#001D57"/>
<path d="M60.4492 16.1641L63.9516 19.6694L57.3223 26.4822C58.7198 28.6075 59.4709 31.1143 59.4709 33.6996C59.4947 37.1013 58.1791 40.3757 55.8083 42.8153C54.0775 44.6437 51.8225 45.8907 49.3537 46.3847V52.3212C51.8103 52.8285 54.0562 54.0666 55.7967 55.8731C58.1744 58.3149 59.4945 61.5952 59.4709 65.0033C59.4937 68.4105 58.1737 71.6896 55.7967 74.1307C54.6382 75.3309 53.2495 76.2852 51.7138 76.9365C50.178 77.5878 48.5267 77.9228 46.8586 77.9214C45.1899 77.9265 43.5375 77.5932 42.0012 76.9416C40.465 76.2901 39.0768 75.3339 37.9205 74.1307C35.5507 71.6851 34.2328 68.4087 34.2492 65.0033C34.2492 61.5679 35.5535 58.31 37.9118 55.8847C39.643 54.0574 41.898 52.8114 44.3664 52.3182V46.3789C41.9098 45.8714 39.664 44.6333 37.9234 42.827C35.5518 40.3811 34.2328 37.1035 34.2492 33.6967C34.2492 30.2612 35.5535 27.0033 37.9234 24.5694C39.0817 23.3686 40.4702 22.4138 42.006 21.762C43.5417 21.1102 45.1932 20.7748 46.8615 20.7758C49.3653 20.7758 51.7731 21.5386 53.8344 22.9564L60.4521 16.1641H60.4492ZM46.8615 57.0901C45.8507 57.082 44.8491 57.282 43.919 57.6777C42.9889 58.0734 42.1501 58.6563 41.455 59.3901C39.998 60.8943 39.188 62.9092 39.1986 65.0033C39.1986 67.1141 39.9993 69.0852 41.455 70.6137C42.1554 71.3407 42.9951 71.9191 43.924 72.3142C44.853 72.7094 45.852 72.9133 46.8615 72.9137C47.8718 72.9214 48.8728 72.7212 49.8025 72.3255C50.7321 71.9298 51.5703 71.3471 52.2651 70.6137C53.7214 69.1102 54.5313 67.0965 54.5215 65.0033C54.5215 62.8926 53.7208 60.9215 52.2564 59.3814C51.5622 58.6502 50.725 58.0694 49.797 57.6753C48.8689 57.2811 47.8698 57.0819 46.8615 57.0901ZM52.2564 39.3594C53.7179 37.854 54.5311 35.8356 54.5215 33.7375C54.5348 32.6992 54.3422 31.6685 53.9549 30.7051C53.5676 29.7416 52.9933 28.8645 52.2651 28.1242C51.5653 27.3973 50.7261 26.819 49.7976 26.4238C48.8692 26.0286 47.8706 25.8247 46.8615 25.8242C45.8507 25.8161 44.8491 26.0161 43.919 26.4118C42.9889 26.8075 42.1501 27.3904 41.455 28.1242C39.998 29.6284 39.188 31.6434 39.1986 33.7375C39.1986 35.8483 39.9993 37.8193 41.455 39.3478C42.1554 40.0748 42.9951 40.6532 43.924 41.0484C44.853 41.4435 45.852 41.6474 46.8615 41.6478C48.9315 41.6478 50.8414 40.8443 52.2564 39.3594Z" fill="white"/>
</g>
<defs>
<clipPath id="clip0_342_5580">
<rect width="93.1659" height="93.1659" fill="white" transform="translate(0.767578 0.768555)"/>
</clipPath>
</defs>
</svg>
