<svg width="94" height="94" viewBox="0 0 94 94" fill="none" xmlns="http://www.w3.org/2000/svg">
<g clip-path="url(#clip0_342_5584)">
<path d="M46.8649 93.9344C72.592 93.9344 93.4479 73.0785 93.4479 47.3515C93.4479 21.6244 72.592 0.768555 46.8649 0.768555C21.1379 0.768555 0.281982 21.6244 0.281982 47.3515C0.281982 73.0785 21.1379 93.9344 46.8649 93.9344Z" fill="#F1B32B"/>
<path d="M46.1371 12.4141C27.2419 12.4141 11.9277 27.7282 11.9277 46.6234C11.9277 65.5186 27.2419 80.8327 46.1371 80.8327C65.0323 80.8327 80.3464 65.5186 80.3464 46.6234C80.3464 37.5505 76.7422 28.8492 70.3267 22.4337C63.9112 16.0183 55.21 12.4141 46.1371 12.4141ZM46.1371 72.3022C39.3266 72.3022 32.7951 69.5968 27.9794 64.7811C23.1637 59.9654 20.4582 53.4339 20.4582 46.6234C20.4582 39.813 23.1637 33.2814 27.9794 28.4657C32.7951 23.65 39.3266 20.9446 46.1371 20.9446C52.9475 20.9446 59.479 23.65 64.2948 28.4657C69.1105 33.2814 71.8159 39.813 71.8159 46.6234C71.8159 53.4339 69.1105 59.9654 64.2948 64.7811C59.479 69.5968 52.9475 72.3022 46.1371 72.3022ZM37.6066 46.6525L46.1662 59.4628L54.6676 46.6525L46.1662 33.8131L37.6066 46.6525Z" fill="white"/>
</g>
<defs>
<clipPath id="clip0_342_5584">
<rect width="93.1659" height="93.1659" fill="white" transform="translate(0.281494 0.768555)"/>
</clipPath>
</defs>
</svg>
