<svg width="94" height="94" viewBox="0 0 94 94" fill="none" xmlns="http://www.w3.org/2000/svg">
<g clip-path="url(#clip0_342_5588)">
<path d="M47.0414 93.4481C72.7685 93.4481 93.6244 72.5922 93.6244 46.8652C93.6244 21.1381 72.7685 0.282227 47.0414 0.282227C21.3144 0.282227 0.458496 21.1381 0.458496 46.8652C0.458496 72.5922 21.3144 93.4481 47.0414 93.4481Z" fill="#5411B3"/>
<path fill-rule="evenodd" clip-rule="evenodd" d="M47.1958 14.8398C48.7388 15.7686 50.2702 16.7177 51.825 17.6232C59.2054 21.903 66.5859 26.177 73.9751 30.4393C74.4613 30.7188 74.6768 31.0303 74.6768 31.6272C74.6622 41.7939 74.6651 51.9606 74.7001 62.1273C74.7001 62.7912 74.3973 63.0677 73.914 63.3472C65.1302 68.4306 56.3522 73.5227 47.5743 78.6148C47.4403 78.6934 47.321 78.7982 47.1958 78.8914H46.8755C44.2261 77.3309 41.5767 75.7558 38.9186 74.2098C32.6473 70.5676 26.3703 66.9312 20.0874 63.3123C19.5546 63.0066 19.3799 62.6572 19.3828 62.0458C19.412 51.9606 19.4178 41.8754 19.3974 31.7873C19.3974 31.0653 19.6449 30.7013 20.2388 30.3607C28.9411 25.3414 37.6288 20.3046 46.3194 15.2678C46.5203 15.1514 46.6921 14.9825 46.8755 14.8398H47.1958ZM55.3653 65.7317C56.5677 66.5556 57.7439 67.4203 58.955 68.2938C59.022 68.2646 59.121 68.2239 59.2113 68.1744C63.1417 65.9006 67.0809 63.6326 70.9996 61.3325C71.2326 61.1957 71.4364 60.7939 71.4364 60.5173C71.4567 51.4162 71.4538 42.318 71.4276 33.2197C71.4144 33.0613 71.3669 32.9077 71.2885 32.7695C71.2101 32.6313 71.1026 32.5117 70.9734 32.4191C67.1012 30.1423 63.2087 27.9064 59.3335 25.6383C58.9318 25.4054 58.7076 25.4753 58.3669 25.7403C57.4265 26.4768 48.1798 32.125 44.558 34.2999C41.7281 35.9943 38.9622 37.7819 36.7728 40.3265C33.7537 43.8348 33.4713 48.6969 36.1119 52.5109C37.4192 54.4033 39.1631 55.8416 41.0323 57.1197C42.5229 58.1358 44.0602 59.0791 45.5741 60.0544C45.5333 60.1126 45.5101 60.1709 45.4693 60.1942C43.472 61.3529 41.4806 62.5233 39.4601 63.65C39.265 63.7577 38.8603 63.65 38.6391 63.5103C36.4925 62.125 34.5233 60.4824 32.7754 58.6191C27.7387 53.3377 26.7138 44.682 30.3881 38.3671C32.0804 35.454 34.4341 32.9796 37.2591 31.1439C40.9275 28.7449 51.1466 22.6803 52.5004 21.8506C52.3839 21.6992 52.3519 21.6177 52.2908 21.5798C50.6837 20.6423 49.0882 19.6874 47.4578 18.7936C47.2191 18.6626 46.7853 18.712 46.5261 18.846C45.6294 19.3089 44.7705 19.8417 43.9 20.3512C43.1314 20.7995 42.3657 21.2537 41.4835 21.7749L45.6702 24.4068C43.5303 25.6704 41.5068 26.8815 39.4601 28.0548C39.2971 28.148 38.9477 28.0752 38.7701 27.9529C37.7565 27.2708 36.7679 26.5522 35.8062 25.7985C35.3841 25.4637 35.1046 25.4316 34.6329 25.7082C30.8254 27.9348 27.0075 30.1436 23.1794 32.3346C22.7572 32.5763 22.6204 32.8587 22.6204 33.3478C22.6349 42.3674 22.632 51.3871 22.6175 60.4038C22.6175 60.8871 22.7426 61.1724 23.1764 61.4228C26.9788 63.6005 30.7695 65.8016 34.5514 68.0172C34.9707 68.2646 35.2502 68.253 35.6723 67.9706C38.3858 66.1568 50.8001 58.3745 54.2502 56.2288C54.8354 55.8649 55.3274 55.3437 55.8573 54.8953L55.7699 54.6915H42.8839C44.1941 52.4148 45.4169 50.2662 46.6834 48.1437C46.7998 47.9516 47.2278 47.8701 47.5131 47.8701C53.3564 47.8555 59.2025 47.8613 65.0458 47.8613C65.2787 47.8613 65.5116 47.8875 65.794 47.9021C65.8086 48.1787 65.8726 48.4261 65.8202 48.6416C65.4359 50.24 65.1797 51.8907 64.5974 53.4163C63.2174 57.044 60.6582 59.8331 57.5401 61.9818C54.1337 64.3255 43.2886 70.7161 41.4486 71.8137C41.5359 71.968 41.5476 72.032 41.5854 72.0553C42.7063 72.7162 43.9088 73.2694 44.9307 74.0613C46.4009 75.1968 47.682 75.1909 49.1523 74.0613C50.212 73.249 51.4523 72.6755 52.7362 71.9214L48.4739 69.2574C48.5904 69.1555 48.6573 69.074 48.7417 69.0245C50.6924 67.892 52.6431 66.7536 54.6112 65.6473C54.7975 65.5454 55.176 65.6007 55.3653 65.7317ZM63.7909 38.5476C64.7954 40.3294 65.5436 42.6207 65.6543 44.388C63.6803 44.388 61.7762 44.3996 59.8692 44.3734C59.6946 44.3705 59.4209 44.1696 59.3656 44.0008C58.4339 41.1243 56.4454 39.0804 54.0959 37.3627C52.4276 36.1428 50.6516 35.0685 48.9252 33.9272C48.7796 33.834 48.6369 33.7321 48.4011 33.5691C48.7941 33.3333 49.0999 33.144 49.4143 32.9606C51.0214 32.0289 52.6169 31.0769 54.2473 30.1802C54.5384 30.0171 55.0625 29.9182 55.2983 30.0725C58.7047 32.3114 61.7471 34.9258 63.7909 38.5476Z" fill="white"/>
</g>
<defs>
<clipPath id="clip0_342_5588">
<rect width="93.1659" height="93.1659" fill="white" transform="translate(0.459473 0.282227)"/>
</clipPath>
</defs>
</svg>
