<svg width="95" height="94" viewBox="0 0 95 94" fill="none" xmlns="http://www.w3.org/2000/svg">
<g clip-path="url(#clip0_342_5592)">
<path d="M47.5566 93.4481C73.2836 93.4481 94.1395 72.5922 94.1395 46.8652C94.1395 21.1381 73.2836 0.282227 47.5566 0.282227C21.8295 0.282227 0.973633 21.1381 0.973633 46.8652C0.973633 72.5922 21.8295 93.4481 47.5566 93.4481Z" fill="#FFF300"/>
<path d="M66.8883 28.1388C65.8984 25.9232 64.9813 21.5444 62.4483 20.569C59.1875 19.3171 57.1757 27.5215 56.6954 29.5945H56.2091C55.3881 26.0425 54.2876 21.0057 50.3863 19.8878C48.5812 27.472 52.2729 35.6503 55.7258 42.2155C59.4117 40.4512 61.2081 34.937 61.5487 31.0502H62.0349L65.9188 42.6988C69.0427 41.8021 70.1287 38.7102 71.2554 35.9036C73.6777 29.8827 75.7099 22.476 74.1669 16.0039C69.5086 17.3257 68.0878 23.99 66.8883 28.1388ZM20.2937 43.6713C24.4629 41.6798 26.4485 35.3737 27.089 31.0502H27.5723C28.0672 33.1348 29.3861 38.5093 31.9889 38.8528C35.308 39.2925 37.0461 31.9324 37.279 29.5945H37.7652C38.8221 33.2483 39.9371 38.0027 43.5881 39.7874C44.939 34.1276 43.326 28.0922 41.256 22.7992C40.7232 21.4396 39.6314 17.7682 37.7536 17.7682C34.6791 17.7682 32.9497 25.8737 32.4256 28.1388H31.9423L28.0585 16.4901C21.2283 19.7509 17.5191 37.0943 20.2937 43.6713ZM13.0122 49.4941C18.0781 71.6035 41.4598 84.1402 62.5211 74.8003C70.1568 71.4075 76.2903 65.3424 79.7685 57.7451C80.6739 55.7828 82.4528 52.228 81.4163 49.6513C80.3828 47.0835 70.3674 51.2759 67.8636 52.3735C67.6907 52.45 67.5398 52.5687 67.4248 52.7188C67.3098 52.8689 67.2344 53.0455 67.2056 53.2324C67.1647 53.499 67.1794 53.7711 67.2487 54.0317C67.318 54.2923 67.4404 54.5358 67.6083 54.7469C67.7761 54.9579 67.9858 55.132 68.2241 55.2582C68.4625 55.3843 68.7243 55.4599 68.9932 55.48L73.1974 55.8061C65.584 70.5438 44.9972 77.0596 30.4866 65.2857C27.2375 62.6509 24.3406 59.5211 22.3899 55.8061C21.4466 54.0098 20.5703 51.7126 18.969 50.4782C17.4259 49.2961 15.091 48.8885 13.0122 49.4941Z" fill="white"/>
</g>
<defs>
<clipPath id="clip0_342_5592">
<rect width="93.1659" height="93.1659" fill="white" transform="translate(0.973633 0.282227)"/>
</clipPath>
</defs>
</svg>
