<svg width="94" height="94" viewBox="0 0 94 94" fill="none" xmlns="http://www.w3.org/2000/svg">
<g clip-path="url(#clip0_342_5596)">
<path d="M47.0717 93.4481C72.7988 93.4481 93.6546 72.5922 93.6546 46.8652C93.6546 21.1381 72.7988 0.282227 47.0717 0.282227C21.3447 0.282227 0.48877 21.1381 0.48877 46.8652C0.48877 72.5922 21.3447 93.4481 47.0717 93.4481Z" fill="#377E96"/>
<path fill-rule="evenodd" clip-rule="evenodd" d="M69.2715 87.8291L69.516 87.6485C68.8406 86.4112 67.7459 85.7619 66.5144 85.4679C64.7559 85.0486 62.9682 84.6614 61.1748 84.5362C57.189 84.248 53.1916 84.181 49.203 83.9394C44.7601 83.6686 40.3231 83.293 35.8773 83.0019C35.4901 82.9728 34.934 83.1184 34.7128 83.3949C33.5482 84.8215 32.4215 86.2889 31.3734 87.8028C30.8609 88.5453 30.5436 89.4187 30.1447 90.2193L30.4504 90.394C28.698 89.7249 26.9877 88.95 25.3292 88.0736C25.632 88.1318 26.028 88.0853 26.1764 87.9368C27.999 86.1113 29.7633 84.2276 31.5364 82.3643C30.2117 81.3045 28.9161 80.3641 27.737 79.2986C26.6364 78.3028 26.1764 76.984 26.2725 75.4729C26.4181 73.1525 27.4342 71.1757 28.9277 69.5161C30.695 67.5567 32.6777 65.7895 34.5701 63.9436C34.803 63.7195 35.0447 63.5128 35.2601 63.3148C35.1873 63.1867 35.1786 63.1488 35.1582 63.1343L34.605 62.814C28.526 59.3087 25.4952 53.9836 25.4166 47.034C25.3467 41.0831 27.8796 36.2647 32.3603 32.4594C36.7275 28.7532 41.872 27.4517 47.5173 27.5798C51.6952 27.6759 55.5994 28.5988 59.2358 30.6747C59.4396 30.7912 59.952 30.6543 60.1383 30.4593C61.859 28.6571 63.6029 26.8724 65.2159 24.9712C67.2189 22.6129 68.9134 20.0509 69.615 16.9589C70.1624 14.5483 69.9295 12.2832 68.1826 10.4024C65.6176 7.63944 61.2039 8.0121 58.9534 11.1594C58.5108 11.7766 58.2546 12.5277 57.8208 13.1595C57.6607 13.3924 57.2531 13.4594 56.9561 13.605C56.8862 13.3429 56.7232 13.0722 56.7611 12.8305C56.86 12.1667 56.9881 11.4913 57.2065 10.8624C58.3129 7.68893 60.3683 5.52283 63.8155 5.03953C64.9364 4.88231 66.1009 5.01333 67.2713 5.01333C67.2131 4.93472 67.1898 4.86775 67.1432 4.84737C66.9265 4.73065 66.7061 4.62093 66.4823 4.51838C64.2852 3.51459 62.0156 2.67762 59.6929 2.01455C64.0551 3.23931 68.2142 5.09716 72.0373 7.5288C72.0606 7.7821 72.0461 7.84906 72.0752 7.884C74.646 11.0546 74.317 14.4173 72.6982 17.8411C71.324 20.738 69.321 23.1894 67.1578 25.5244C65.178 27.6614 63.1866 29.7896 61.1923 31.9295C61.2738 31.9819 61.3204 32.0402 61.3669 32.0402C64.4152 32.0431 67.4635 32.0867 70.5088 32.0227C72.0985 31.9936 73.5105 31.4666 74.4917 30.0604C74.678 29.7896 75.1846 29.7401 75.5456 29.5887L75.7494 29.8711C74.9051 32.3051 74.0724 34.742 73.1815 37.1556C73.1058 37.3594 72.6575 37.5253 72.3722 37.5369C71.2949 37.5835 70.2177 37.5573 69.1405 37.5573H65.2683L65.7079 38.4308C67.8041 42.5359 68.3602 46.8885 67.3004 51.3284C65.737 57.8791 61.4514 62.1124 55.218 64.3134C50.1288 66.1127 44.9057 66.0486 39.6797 64.7996C39.2168 64.689 38.5005 64.5958 38.2531 64.8433C37.1293 65.9671 35.9414 67.0996 35.132 68.4447C33.4638 71.2164 34.4333 73.1438 37.6126 73.8134L37.7028 73.8251C40.8239 74.0667 43.942 74.3637 47.066 74.5354C51.4855 74.7771 55.9109 74.8732 60.3276 75.1381C63.0032 75.2982 65.6438 75.7699 68.0545 77.048C71.1581 78.6872 73.3562 81.1036 74.3199 84.6352C74.547 84.4751 74.7741 84.3149 75.0012 84.149C73.1874 85.5086 71.2746 86.7402 69.2657 87.8291H69.2715ZM55.151 92.7494C52.3252 93.2437 49.46 93.4776 46.5914 93.4481C49.4576 93.4199 52.3182 93.1864 55.151 92.7494ZM93.6547 47.0108V46.8652C93.6547 42.8474 93.1452 38.949 92.1903 35.2311C93.1415 39.0871 93.6331 43.0421 93.6547 47.0137V47.0108ZM82.8242 17.0084C80.1244 13.778 77.0014 10.9263 73.5396 8.53034C77.0829 11.0924 80.1864 13.9165 82.8271 17.0084H82.8242ZM24.6712 87.7126C22.3733 86.45 20.1858 84.9959 18.1322 83.3658C20.208 84.9409 22.4731 86.2918 24.6712 87.7126ZM0.488864 46.9554C0.494576 44.4737 0.686297 41.996 1.06242 39.5429C0.675661 41.9937 0.483876 44.4714 0.488864 46.9525V46.9554ZM8.97861 20.0451C10.8059 17.5032 12.8622 15.134 15.1217 12.9674C12.8427 15.1144 10.7847 17.4845 8.97861 20.0421V20.0451ZM32.9019 2.47747C37.4935 1.06154 42.2669 0.322037 47.0718 0.282246C42.2635 0.27782 37.4835 1.01834 32.9019 2.47747ZM57.454 48.7751L57.2793 48.7314C57.1774 47.3223 57.1221 45.9073 56.9707 44.504C56.6271 41.2548 55.7042 38.1862 53.9137 35.4203C51.2643 31.321 46.8389 29.6673 42.594 31.3094C39.109 32.6545 37.2603 35.4203 36.4276 38.9461C35.6357 42.2826 35.6997 45.6628 36.1015 49.0284C36.4887 52.231 37.4029 55.2792 39.2459 57.9898C41.6158 61.4689 44.9203 62.9887 49.0283 62.3016C52.9296 61.6553 55.381 59.1311 56.3797 55.3782C56.9532 53.2354 57.1104 50.982 57.4569 48.7751H57.454Z" fill="white"/>
</g>
<defs>
<clipPath id="clip0_342_5596">
<rect width="93.1659" height="93.1659" fill="white" transform="translate(0.487793 0.282227)"/>
</clipPath>
</defs>
</svg>
