<svg width="94" height="94" viewBox="0 0 94 94" fill="none" xmlns="http://www.w3.org/2000/svg">
<g clip-path="url(#clip0_342_5600)">
<path d="M46.5834 93.4481C72.3105 93.4481 93.1664 72.5922 93.1664 46.8652C93.1664 21.1381 72.3105 0.282227 46.5834 0.282227C20.8564 0.282227 0.000488281 21.1381 0.000488281 46.8652C0.000488281 72.5922 20.8564 93.4481 46.5834 93.4481Z" fill="#FF0060"/>
<path d="M72.9903 35.3564H46.3565C44.2943 35.3532 42.2706 35.9152 40.5053 36.9812C38.74 38.0473 37.3006 39.5767 36.3434 41.4034C35.3862 43.23 34.9479 45.284 35.076 47.3423C35.2041 49.4005 35.8938 51.3843 37.0702 53.0781C38.2465 54.772 39.8645 56.1111 41.7484 56.95C43.6323 57.7888 45.7101 58.0955 47.756 57.8365C49.8019 57.5775 51.7377 56.7629 53.3532 55.4811C54.9687 54.1992 56.202 52.4992 56.9192 50.5657H46.3565C45.9653 50.5661 45.5778 50.4894 45.2163 50.3398C44.8547 50.1903 44.5263 49.9709 44.2496 49.6942C43.973 49.4176 43.7536 49.0891 43.604 48.7276C43.4545 48.3661 43.3777 47.9786 43.3781 47.5873V47.2263C43.3777 46.8351 43.4545 46.4476 43.604 46.0861C43.7536 45.7246 43.973 45.3961 44.2496 45.1194C44.5263 44.8428 44.8547 44.6234 45.2163 44.4739C45.5778 44.3243 45.9653 44.2475 46.3565 44.2479H63.9619C64.09 45.069 64.1512 45.8987 64.1425 46.7285C64.1252 50.2424 63.0674 53.6725 61.1026 56.5859C59.1378 59.4993 56.354 61.7653 53.1026 63.0981C49.8512 64.4309 46.2778 64.7707 42.8334 64.0746C39.3891 63.3785 36.2281 61.6777 33.7494 59.1869C31.2707 56.696 29.5854 53.5267 28.9062 50.079C28.227 46.6313 28.5843 43.0596 29.933 39.8147C31.2817 36.5699 33.5613 33.7972 36.4843 31.8467C39.4073 29.8962 42.8425 28.8552 46.3565 28.8552L46.9009 28.7649C47.0145 28.8173 47.1339 28.8464 47.262 28.8552H63.0594C71.6802 28.8552 75.2001 24.2522 75.2001 17.751H46.3565C30.4251 17.751 17.4984 30.6574 17.4693 46.5945C17.446 62.5317 30.332 75.476 46.2692 75.5284C62.2064 75.5779 75.171 62.7122 75.2467 46.7751V37.6564C75.2525 37.3565 75.1984 37.0584 75.0876 36.7796C74.9768 36.5007 74.8115 36.2468 74.6014 36.0327C74.3913 35.8185 74.1406 35.6484 73.864 35.5323C73.5873 35.4161 73.2903 35.3564 72.9903 35.3564Z" fill="white"/>
</g>
<defs>
<clipPath id="clip0_342_5600">
<rect width="93.1659" height="93.1659" fill="white" transform="translate(0.00146484 0.282227)"/>
</clipPath>
</defs>
</svg>
