<svg width="94" height="94" viewBox="0 0 94 94" fill="none" xmlns="http://www.w3.org/2000/svg">
<g clip-path="url(#clip0_342_5604)">
<path d="M47.0986 93.4481C72.8256 93.4481 93.6815 72.5922 93.6815 46.8652C93.6815 21.1381 72.8256 0.282227 47.0986 0.282227C21.3715 0.282227 0.515625 21.1381 0.515625 46.8652C0.515625 72.5922 21.3715 93.4481 47.0986 93.4481Z" fill="#7F27FF"/>
<path d="M45.2817 41.042H23.8652V62.0684C23.8419 64.2199 24.7037 66.29 26.2525 67.8097C27.8014 69.3295 29.9122 70.1767 32.1045 70.1563H45.2846L45.2817 41.042ZM45.7766 30.0397H48.0825C50.365 26.1093 52.4554 23.4366 54.4207 21.9925C56.843 20.2078 59.3235 20.1932 61.2684 22.1031C63.0851 23.8849 63.4257 26.1209 62.2291 28.2754C61.8914 28.8751 61.443 29.4632 60.8811 30.0397H69.3476C71.3244 30.0397 73.3013 31.6643 73.3013 33.9206C73.3013 35.8626 71.6447 37.8045 69.3476 37.8045H48.5774V32.628H45.2817V37.8045H24.8492C22.8753 37.8045 20.8955 36.1799 20.8955 33.9206C20.8955 31.9816 22.5521 30.0397 24.8492 30.0397H33.4088C32.8732 29.5406 32.3965 28.9819 31.9881 28.3744C30.5702 26.2083 30.742 23.9199 32.5907 22.1031C34.5356 20.1932 37.0161 20.2107 39.4413 21.9925C41.4036 23.4366 43.4941 26.1122 45.7795 30.0397H45.7766ZM41.9481 30.0397C40.2595 27.3525 38.7513 25.527 37.4645 24.5808C36.2737 23.7073 35.6215 23.7015 34.9199 24.3886C34.2008 25.0961 34.1571 25.7017 34.7598 26.6217C35.4469 27.6727 36.8938 28.8577 38.9784 30.0397H41.9481ZM51.911 30.0397H55.463C57.4515 28.8984 58.7645 27.7455 59.3352 26.7207C59.8301 25.8356 59.7253 25.1631 58.9392 24.3915C58.2376 23.7015 57.5854 23.7044 56.3975 24.5808C55.1078 25.527 53.5967 27.3525 51.9139 30.0397H51.911ZM48.5774 41.0391H69.9968V62.0684C70.006 63.1368 69.7993 64.1961 69.389 65.1827C68.9788 66.1693 68.3735 67.0628 67.6095 67.8097C66.0471 69.3369 63.9421 70.1809 61.7575 70.1563H48.5774V41.0391Z" fill="white"/>
</g>
<defs>
<clipPath id="clip0_342_5604">
<rect width="93.1659" height="93.1659" fill="white" transform="translate(0.515625 0.282227)"/>
</clipPath>
</defs>
</svg>
