<svg width="94" height="94" viewBox="0 0 94 94" fill="none" xmlns="http://www.w3.org/2000/svg">
<g clip-path="url(#clip0_342_5608)">
<path d="M46.6137 93.4481C72.3407 93.4481 93.1966 72.5922 93.1966 46.8652C93.1966 21.1381 72.3407 0.282227 46.6137 0.282227C20.8867 0.282227 0.0307617 21.1381 0.0307617 46.8652C0.0307617 72.5922 20.8867 93.4481 46.6137 93.4481Z" fill="#37DCD8"/>
<path d="M46.5846 37.1964L38.4792 29.0328C40.9109 25.0781 43.6297 21.3074 46.6137 17.751C49.5927 21.2922 52.3077 25.0473 54.7366 28.9862L46.5846 37.1964ZM63.2322 45.3776C65.5206 51.7885 68.8775 58.1995 65.6778 64.3543C63.642 68.237 60.485 71.4173 56.6174 73.4816C46.0809 79.0716 33.0377 74.9665 27.4885 64.3543C24.2568 58.1995 28.0213 51.282 30.3126 44.8739C32.4118 40.1486 34.5342 35.7931 36.9449 31.6065L46.5817 41.3132L56.2739 31.5541C58.8214 35.962 61.0224 40.498 63.2322 45.3805V45.3776Z" fill="white"/>
</g>
<defs>
<clipPath id="clip0_342_5608">
<rect width="93.1659" height="93.1659" fill="white" transform="translate(0.0297852 0.282227)"/>
</clipPath>
</defs>
</svg>
