<svg width="94" height="94" viewBox="0 0 94 94" fill="none" xmlns="http://www.w3.org/2000/svg">
<g clip-path="url(#clip0_342_5612)">
<path d="M47.1254 93.4481C72.8525 93.4481 93.7084 72.5922 93.7084 46.8652C93.7084 21.1381 72.8525 0.282227 47.1254 0.282227C21.3984 0.282227 0.54248 21.1381 0.54248 46.8652C0.54248 72.5922 21.3984 93.4481 47.1254 93.4481Z" fill="#00DCFA"/>
<path d="M56.9602 14.8398C45.693 14.8398 36.1231 23.5043 34.9206 34.658C23.7611 35.8633 15.0996 45.4332 15.0996 56.6975C15.1027 62.5823 17.4416 68.2251 21.6024 72.3865C25.7633 76.5479 31.4058 78.8875 37.2906 78.8914C48.5578 78.8914 58.1655 70.227 59.3301 59.0733C70.4867 57.8679 79.1511 48.298 79.1511 37.0337C79.1481 31.149 76.8092 25.5061 72.6483 21.3447C68.4875 17.1833 62.8449 14.8437 56.9602 14.8398ZM73.9513 39.5172C73.3973 43.1566 71.6944 46.5237 69.0912 49.1269C66.4881 51.73 63.121 53.4329 59.4815 53.987V39.5172H73.9513ZM20.2994 54.2141C20.8461 50.5677 22.5457 47.1921 25.1494 44.5816C27.7532 41.971 31.1243 40.2626 34.7693 39.7064V54.1762H20.2994V54.2141ZM54.2846 59.2217C53.6835 63.2982 51.6358 67.0224 48.5156 69.7138C45.3955 72.4053 41.4111 73.8843 37.2906 73.8808C33.1707 73.8843 29.1872 72.4056 26.0675 69.7147C22.9479 67.0238 20.9006 63.3004 20.2994 59.2246H54.2846V59.2217ZM54.4738 39.5172V54.1762H39.7769V39.5172H54.4738ZM73.9513 34.5095H39.9662C40.5673 30.433 42.615 26.7088 45.7351 24.0174C48.8553 21.3259 52.8396 19.8469 56.9602 19.8504C61.08 19.8469 65.0636 21.3256 68.1832 24.0165C71.3028 26.7074 73.3502 30.4309 73.9513 34.5066V34.5095Z" fill="white"/>
</g>
<defs>
<clipPath id="clip0_342_5612">
<rect width="93.1659" height="93.1659" fill="white" transform="translate(0.543457 0.282227)"/>
</clipPath>
</defs>
</svg>
