<svg width="94" height="94" viewBox="0 0 94 94" fill="none" xmlns="http://www.w3.org/2000/svg">
<g clip-path="url(#clip0_342_5616)">
<path d="M46.6406 93.4481C72.3676 93.4481 93.2235 72.5922 93.2235 46.8652C93.2235 21.1381 72.3676 0.282227 46.6406 0.282227C20.9135 0.282227 0.0576172 21.1381 0.0576172 46.8652C0.0576172 72.5922 20.9135 93.4481 46.6406 93.4481Z" fill="#16B9AD"/>
<path d="M75.755 38.6931C75.755 54.4381 62.6914 67.2455 46.6407 67.2455C30.59 67.2455 17.5264 54.4352 17.5264 38.6989C17.5264 37.5401 17.5962 36.3785 17.7418 35.2255H22.9707C22.7961 36.3756 22.7087 37.5372 22.7087 38.6989C22.7087 51.6402 33.4461 62.1709 46.6436 62.1709C59.2385 62.1709 69.5915 52.5864 70.5174 40.4661H33.481C34.2671 46.126 38.7303 50.6212 44.4775 51.55C50.2276 52.4758 55.9194 49.6168 58.5164 44.5043H64.1209C61.5734 51.8469 54.5423 56.7847 46.6349 56.7905C36.4565 56.7905 28.1735 48.6705 28.1735 38.6931C28.1735 37.5285 28.2899 36.3639 28.5141 35.2197H75.5396C75.6852 36.3727 75.755 37.5314 75.755 38.6931Z" fill="white"/>
</g>
<defs>
<clipPath id="clip0_342_5616">
<rect width="93.1659" height="93.1659" fill="white" transform="translate(0.0576172 0.282227)"/>
</clipPath>
</defs>
</svg>
