<svg width="94" height="94" viewBox="0 0 94 94" fill="none" xmlns="http://www.w3.org/2000/svg">
<g clip-path="url(#clip0_342_5620)">
<path d="M47.1557 93.4481C72.8827 93.4481 93.7386 72.5922 93.7386 46.8652C93.7386 21.1381 72.8827 0.282227 47.1557 0.282227C21.4286 0.282227 0.572754 21.1381 0.572754 46.8652C0.572754 72.5922 21.4286 93.4481 47.1557 93.4481Z" fill="#35A5F3"/>
<path d="M21.0108 20.7414C24.7083 16.8779 31.4629 16.7236 35.2798 20.4794C39.2684 24.3807 43.2163 28.3169 47.1235 32.291C51.281 28.3402 55.1707 24.1245 59.3457 20.1911C63.3169 16.6042 70.0714 17.038 73.5971 21.0558C77.2131 24.8465 77.1549 31.4584 73.4021 35.1384C69.5386 39.0718 65.6256 42.9469 61.7272 46.8482C65.7101 50.9504 69.8589 54.8925 73.8097 59.0471C77.35 62.9281 77.0122 69.5428 73.1721 73.1093C69.3959 76.9233 62.6239 76.935 58.8536 73.1035C54.9319 69.2546 51.0947 65.3125 47.1992 61.4461C43.0416 65.4464 39.0763 69.6447 34.8751 73.6043C30.8515 77.1737 24.0678 76.6409 20.6032 72.5445C17.1095 68.7626 17.1968 62.3196 20.8361 58.657C24.2566 55.1552 27.7175 51.6933 31.2183 48.2719L35.6058 52.6536C32.182 56.1881 28.5806 59.5712 25.2091 63.1581C22.9353 65.4872 24.9384 69.8311 28.1322 69.7787C30.0683 69.9504 31.4046 68.3462 32.6624 67.1351C36.0018 63.7345 39.3907 60.3951 42.7301 56.9946C35.4515 49.6519 28.0565 42.4112 20.8129 35.0365C17.0338 31.2284 17.1532 24.4389 21.0167 20.7414H21.0108ZM25.2411 30.6111C29.093 34.6289 33.0933 38.504 37.015 42.4549C38.9074 40.5391 40.8115 38.6351 42.7272 36.7397C38.9336 32.917 35.1546 29.0681 31.3086 25.2978C30.0829 23.9731 27.9866 23.481 26.3882 24.4302C24.1639 25.5074 23.4623 28.8148 25.2382 30.6111H25.2411ZM62.9151 25.3997C55.6773 32.5036 48.585 39.7589 41.385 46.8977C43.327 48.7814 45.2631 50.6709 47.1584 52.6041C48.6112 51.1717 50.0553 49.7218 51.5023 48.2719C52.9638 49.7305 54.4166 51.1979 55.8898 52.6478C54.4603 54.1035 53.022 55.5476 51.5692 56.9858C55.4735 60.9133 59.302 64.9137 63.3343 68.7131C65.3811 70.8675 69.3523 69.5603 69.9433 66.7217C70.578 64.7128 69.1339 62.9746 67.7714 61.7111C61.3563 55.3266 54.955 48.9282 48.5675 42.516C50.0301 41.0574 51.4868 39.5929 52.9376 38.1226C54.3933 39.5725 55.8461 41.0224 57.3339 42.449C61.1624 38.4808 65.2209 34.7337 68.9912 30.7043C70.8924 28.8585 70.1325 25.3211 67.7044 24.3225C66.074 23.481 64.0855 24.075 62.9122 25.3997H62.9151Z" fill="white"/>
</g>
<defs>
<clipPath id="clip0_342_5620">
<rect width="93.1659" height="93.1659" fill="white" transform="translate(0.571777 0.282227)"/>
</clipPath>
</defs>
</svg>
