<svg width="94" height="94" viewBox="0 0 94 94" fill="none" xmlns="http://www.w3.org/2000/svg">
<g clip-path="url(#clip0_342_5624)">
<path d="M46.6674 93.4481C72.3945 93.4481 93.2503 72.5922 93.2503 46.8652C93.2503 21.1381 72.3945 0.282227 46.6674 0.282227C20.9404 0.282227 0.0844727 21.1381 0.0844727 46.8652C0.0844727 72.5922 20.9404 93.4481 46.6674 93.4481Z" fill="#56C9E9"/>
<path d="M69.6102 27.7756C67.415 26.9663 62.5645 28.1774 62.3316 28.5239C63.2574 28.6986 63.5457 28.815 64.9315 29.045C66.4163 29.3158 67.8429 29.8428 69.1473 30.6055C70.5331 31.412 71.1096 30.3144 71.1096 30.3144C71.3425 29.7962 70.7078 28.1774 69.6102 27.7756ZM30.169 18.1883C29.8142 17.6285 29.4283 17.089 29.0131 16.5724C27.9155 15.4166 25.7815 14.8401 24.6227 15.4166C23.988 15.7077 23.6998 16.1095 24.2209 16.8024C24.8527 17.4284 25.6563 17.8506 26.5297 18.0165C27.0479 18.133 29.3596 18.6512 29.9361 18.7647C30.5184 18.7647 30.169 18.1883 30.169 18.1883ZM32.4778 24.0199C32.4316 23.9168 32.3485 23.8347 32.2448 23.7899C30.8201 23.9693 29.3764 23.6648 28.1455 22.9252C27.867 22.7286 27.5344 22.623 27.1935 22.623C26.8526 22.623 26.52 22.7286 26.2415 22.9252C25.4903 23.5599 26.5879 24.311 26.6461 24.311C27.1062 24.5993 27.6273 24.4857 28.0902 24.5993C29.2208 24.9268 30.3815 25.1395 31.5548 25.234C32.536 25.234 32.766 24.8846 32.4778 24.0199ZM70.7078 21.8858C70.8242 21.5364 70.7078 20.3835 68.6261 20.6717C66.8938 20.9629 65.6827 21.4229 65.7409 21.6529C65.7991 21.8858 67.7032 22.2323 68.1079 22.2876C69.7237 22.5787 70.6496 22.1129 70.7078 21.8858ZM49.6872 12.2402C49.4849 12.053 49.2223 11.9442 48.9468 11.9335C48.6714 11.9228 48.4011 12.0109 48.1849 12.182C46.4526 13.2796 47.722 17.0324 47.8938 17.0324C48.0685 17.0324 48.2432 15.7048 49.9755 13.7425C50.0576 13.6256 50.1153 13.4934 50.1451 13.3537C50.175 13.214 50.1763 13.0697 50.1492 12.9295C50.122 12.7893 50.0668 12.656 49.9869 12.5375C49.9071 12.4191 49.8042 12.318 49.6843 12.2402H49.6872ZM44.1817 23.3939C44.0361 23.2484 44.1817 23.2484 44.1817 23.3939V23.3939Z" fill="white"/>
<path d="M42.5243 21.536C41.4267 20.9596 42.3496 18.1296 41.9479 17.0903C41.9099 16.93 41.8329 16.7817 41.7238 16.6584C41.6146 16.5351 41.4766 16.4407 41.3222 16.3836C41.1677 16.3266 41.0015 16.3086 40.8384 16.3313C40.6753 16.354 40.5203 16.4167 40.3873 16.5138C40.2375 16.5748 40.1028 16.6679 39.9928 16.7866C39.8828 16.9053 39.8002 17.0466 39.7508 17.2007C39.7014 17.3548 39.6864 17.5178 39.7068 17.6783C39.7273 17.8388 39.7827 17.9929 39.8691 18.1297C40.102 18.5926 41.485 21.2478 40.3873 21.7107C39.9827 21.8854 39.118 21.536 38.5415 21.1896C36.4627 20.2666 36.1163 17.0903 35.4787 16.6856C35.1838 16.4681 34.8246 16.3556 34.4584 16.3662C34.0921 16.3767 33.74 16.5097 33.4581 16.7438C33.1739 16.904 32.9582 17.1628 32.852 17.4714C32.7457 17.7799 32.7563 18.1166 32.8817 18.4179C33.1699 18.939 34.2675 19.2273 34.4975 21.0178L35.1904 21.536C35.5398 21.8272 35.8834 22.1154 36.288 22.4036C37.3274 23.443 37.0974 23.6177 39.2344 23.2712C39.9273 23.0383 39.8109 22.1154 40.5038 21.8854C40.9347 21.8284 41.3729 21.8877 41.7732 22.0572C42.4108 22.3949 42.9465 22.8928 43.3337 23.5012C44.2566 24.5989 44.6613 25.9847 45.4707 27.1988C45.7502 27.7054 46.0996 28.1712 46.5101 28.5817L47.3748 29.2746C48.5888 30.084 49.6865 30.0258 50.5512 29.0999C50.7865 28.9316 50.9848 28.717 51.1341 28.4691C51.2833 28.2213 51.3802 27.9455 51.4188 27.6588C51.8792 26.2669 52.4638 24.9193 53.1656 23.6323C53.1715 23.627 53.1784 23.623 53.186 23.6205C53.1935 23.618 53.2014 23.617 53.2093 23.6177C53.2119 23.5877 53.225 23.5596 53.2463 23.5383C53.2676 23.517 53.2957 23.5039 53.3258 23.5012C53.486 23.3886 53.6772 23.3282 53.8731 23.3282C54.069 23.3282 54.2602 23.3886 54.4205 23.5012C54.5951 23.7342 54.2458 25.8682 54.4205 26.0982C54.5369 26.5641 55.4016 26.2729 56.1527 26.2147C56.2238 26.126 56.2826 26.028 56.3274 25.9236C57.5968 25.5218 58.8109 24.8871 60.0803 24.5406H60.7732C61.4807 24.4242 62.1998 24.4242 62.9102 24.5406C63.6031 24.5406 63.8331 24.9453 63.7749 25.58C64.9307 25.5218 66.0866 25.5218 67.2395 25.4053C67.7606 25.3471 68.57 25.3471 68.5118 24.3659C68.3953 23.7895 67.4724 22.1736 63.2566 23.1548C62.852 23.2712 60.5432 23.9642 59.7338 23.5595C60.9654 22.7617 62.2376 22.031 63.5449 21.3643C64.1213 20.9013 64.5843 20.2666 64.2378 19.5737C63.8913 18.8808 63.1984 18.939 62.5637 19.169C61.3673 19.5408 60.2779 20.1948 59.3874 21.076C58.8022 21.67 58.1646 22.2115 57.4804 22.6919C55.8063 23.5012 55.8063 23.5012 55.4016 23.3848C54.8834 23.1519 54.304 22.7501 54.7087 22.1736C54.9445 21.7981 55.1192 21.3875 55.2298 20.9596C55.4045 20.2084 55.1716 19.9784 54.6505 19.9784C53.6111 20.0366 53.2646 21.536 53.0928 21.7689C52.9822 21.996 52.8454 22.2057 52.6881 22.4036C52.5542 22.536 52.3857 22.628 52.2019 22.6692C52.0181 22.7104 51.8264 22.6991 51.6488 22.6365C51.3023 22.5783 51.0141 22.4036 51.3023 21.9407C51.8234 21.1342 53.4393 19.862 53.9022 18.1879C53.9022 18.1879 54.7087 15.9927 52.4581 15.9373C51.2441 15.8791 50.2629 16.7438 49.9165 18.0714C49.57 19.4573 50.3211 21.3643 49.9165 22.2872C49.7709 22.6773 49.5758 23.0441 49.34 23.3848C48.9512 23.7334 48.4473 23.9262 47.925 23.9262C47.4028 23.9262 46.8989 23.7334 46.5101 23.3848C46.2879 23.1257 46.1259 22.8205 46.0357 22.4913C45.9456 22.162 45.9296 21.8169 45.9889 21.4807C46.1868 20.7195 46.3413 19.9477 46.4519 19.169C46.5101 18.5926 45.4707 17.5532 44.6031 18.2461C44.1984 18.5373 44.3702 18.9973 44.5449 19.4019C44.836 20.2666 45.3542 22.7501 42.5243 21.536ZM44.1431 23.3266C44.0849 23.2683 44.1431 23.2683 44.1431 23.3266V23.3266Z" fill="white"/>
<path d="M46.0474 25.9325H49.8613C50.2049 25.8568 50.5455 26.1247 50.7843 26.6546C50.8017 26.9457 50.7319 27.231 50.6096 27.3766C49.9774 27.0798 49.2875 26.9259 48.589 26.9259C47.8906 26.9259 47.2007 27.0798 46.5685 27.3766H46.3938L46.0474 25.9325Z" fill="white"/>
<path d="M60.0231 24.3663C58.5518 24.7818 57.1062 25.2834 55.6938 25.8686C55.5681 25.9075 55.4333 25.9059 55.3084 25.8642C55.1836 25.8224 55.075 25.7425 54.998 25.6357C54.9409 25.5089 54.9113 25.3715 54.9113 25.2325C54.9113 25.0934 54.9409 24.956 54.998 24.8292C55.0557 24.6414 55.0557 24.4406 54.998 24.2528C54.8802 23.937 54.6814 23.6579 54.4215 23.4434C54.3088 23.35 54.1769 23.2827 54.0351 23.2465C53.8933 23.2102 53.7452 23.2059 53.6015 23.2337C53.4579 23.2616 53.3221 23.3209 53.2042 23.4075C53.0862 23.4941 52.9889 23.6058 52.9192 23.7345C52.1442 24.9463 51.56 26.2699 51.1869 27.6591C51.0485 28.2157 50.7474 28.7184 50.3222 29.1032C49.4546 29.8544 48.6482 29.9126 47.4923 29.2779C47.1707 29.0441 46.8626 28.7924 46.5694 28.5238C46.1723 28.082 45.8239 27.5989 45.53 27.0827C45.0642 26.2151 44.6042 25.2921 44.1442 24.4828C43.5066 23.4434 42.8719 22.4622 41.7189 21.9411C41.3481 21.8066 40.9455 21.7863 40.5631 21.8828C40.3944 21.9155 40.2348 21.9842 40.0951 22.0841C39.9555 22.1841 39.839 22.3131 39.7537 22.4622C39.579 22.7505 37.2703 22.8087 36.4638 22.3458C36.0562 22.1129 34.9033 20.9599 34.4986 21.0764C34.1521 21.0764 33.9804 20.8435 33.7474 20.6717C33.23 20.3161 32.6354 20.0887 32.0127 20.0083C31.3901 19.9278 30.7572 19.9965 30.1664 20.2088C29.9191 20.267 29.6943 20.3966 29.5199 20.5813C29.3455 20.7661 29.2291 20.9979 29.1852 21.2482C29.1883 21.515 29.2731 21.7744 29.4283 21.9915C29.5834 22.2086 29.8014 22.3729 30.0528 22.4622C30.6264 22.6777 31.1854 22.9281 31.7269 23.2134C32.018 23.3298 32.4781 23.3881 32.4198 23.9063C32.415 24.0436 32.4348 24.1806 32.4781 24.311C32.5363 25.0592 32.0151 25.1175 31.4969 25.1175C30.7573 25.0585 30.0234 24.9427 29.3017 24.771C28.5032 24.5018 27.6571 24.4036 26.8182 24.4828C26.5853 24.7739 26.3 24.5992 26.0088 24.6574C24.9695 24.8321 24.163 25.5804 24.2212 26.4451C24.2795 27.4291 25.0859 27.6591 25.8953 27.8309C27.8576 28.2967 29.8228 28.122 31.7851 28.1803C34.1521 28.1803 35.4827 29.3332 35.8262 31.7031C36.0591 33.4325 41.256 78.9382 41.3143 79.9194C41.319 80.1199 41.3893 80.3132 41.5145 80.4699C41.6396 80.6266 41.8127 80.738 42.0072 80.787C43.9695 81.3838 46.0191 81.6604 48.0688 81.5964C50.3717 81.6546 52.6688 81.3634 54.8815 80.7287C55.2309 80.6123 55.5191 80.4958 55.5191 80.0358C55.5774 78.8247 58.8673 35.3395 58.8673 34.6466C58.8328 32.6241 59.4845 30.6496 60.716 29.045C61.6972 27.8891 62.7948 26.8498 63.776 25.6968C64.0671 24.0781 61.9854 24.0781 60.0231 24.3663Z" fill="white"/>
</g>
<defs>
<clipPath id="clip0_342_5624">
<rect width="93.1659" height="93.1659" fill="white" transform="translate(0.0854492 0.282227)"/>
</clipPath>
</defs>
</svg>
