<svg width="94" height="94" viewBox="0 0 94 94" fill="none" xmlns="http://www.w3.org/2000/svg">
<g clip-path="url(#clip0_342_5632)">
<path d="M47.1825 93.4481C72.9096 93.4481 93.7655 72.5922 93.7655 46.8652C93.7655 21.1381 72.9096 0.282227 47.1825 0.282227C21.4555 0.282227 0.599609 21.1381 0.599609 46.8652C0.599609 72.5922 21.4555 93.4481 47.1825 93.4481Z" fill="#117FC0"/>
<path d="M77.7411 30.3633L53.1249 70.9487H38.4455L49.7273 52.3243H38.5153L25.443 73.8805C31.6745 78.9461 39.4716 81.6907 47.5021 81.6453C55.5326 81.5999 63.2982 78.7674 69.4721 73.6317C75.6459 68.496 79.8448 61.3759 81.3514 53.4878C82.858 45.5997 81.5788 37.4333 77.7323 30.3837L77.7411 30.3633ZM56.2489 23.0789L45.5639 40.664H56.7904L69.2339 20.1413C63.0024 15.0757 55.2053 12.3311 47.1748 12.3765C39.1442 12.4219 31.3786 15.2544 25.2048 20.3901C19.031 25.5258 14.832 32.646 13.3254 40.534C11.8188 48.4221 13.0981 56.5886 16.9445 63.6381L41.552 23.0818H56.246L56.2489 23.0789Z" fill="white"/>
</g>
<defs>
<clipPath id="clip0_342_5632">
<rect width="93.1659" height="93.1659" fill="white" transform="translate(0.599609 0.282227)"/>
</clipPath>
</defs>
</svg>
