<svg width="94" height="94" viewBox="0 0 94 94" fill="none" xmlns="http://www.w3.org/2000/svg">
<g clip-path="url(#clip0_342_5636)">
<path d="M46.6972 93.4481C72.4242 93.4481 93.2801 72.5922 93.2801 46.8652C93.2801 21.1381 72.4242 0.282227 46.6972 0.282227C20.9701 0.282227 0.114258 21.1381 0.114258 46.8652C0.114258 72.5922 20.9701 93.4481 46.6972 93.4481Z" fill="#D59143"/>
<path d="M23.3267 48.1849C21.8186 49.3844 20.4735 51.5156 20.5405 54.7735C20.59 57.0269 21.8011 58.57 23.3267 59.6181V63.6417C23.3267 66.1572 24.5495 68.5125 26.6108 69.9537L40.74 79.6168V30.2417L23.3267 35.3368V48.1849ZM27.1203 46.997C30.0521 49.1428 30.0521 61.8919 30.0521 61.8919C30.0521 61.8919 26.736 61.5717 23.9964 60.0403C26.2556 60.8002 28.0695 60.6313 28.8585 60.7186L28.9109 60.7215H28.9225L28.9633 60.7274L29.0739 60.7361L29.1117 60.7419H29.1496C29.1496 60.7419 29.6154 49.6144 26.2469 47.6638C25.6995 47.4745 24.733 47.5852 23.6674 47.9258C25.0241 47.0116 26.442 46.703 27.1203 46.997ZM41.9599 67.0976H51.4599V79.6342H41.9628V67.1005L41.9599 67.0976ZM39.8054 29.3072L23.3267 34.0295V16.3542C23.3263 16.0606 23.4129 15.7734 23.5757 15.529C23.7385 15.2846 23.97 15.0939 24.2411 14.9811C24.5122 14.8683 24.8107 14.8384 25.0988 14.8952C25.3869 14.952 25.6517 15.093 25.8597 15.3003L40.6498 30.1486L39.8054 29.3043V29.3072ZM41.9599 46.9825H51.4599V65.8893H41.9628V46.9825H41.9599ZM53.5853 29.3101L52.9739 29.9215L67.531 15.3061C67.7385 15.0982 68.003 14.9565 68.2911 14.8989C68.5791 14.8413 68.8778 14.8705 69.1492 14.9827C69.4207 15.0949 69.6528 15.2851 69.8161 15.5292C69.9795 15.7734 70.0667 16.0605 70.0669 16.3542V34.0266L53.5882 29.3101H53.5853ZM41.9628 30.2447H51.4599V45.7626H41.9628V30.2447ZM70.0669 48.1849V35.3368L52.6827 30.2534V79.6342L66.7828 69.9537C67.7967 69.2432 68.6246 68.2989 69.1962 67.2007C69.7679 66.1025 70.0665 64.8827 70.0669 63.6446V59.6181C71.5925 58.57 72.8036 57.0269 72.8531 54.7735C72.923 51.5156 71.575 49.3844 70.0669 48.1849ZM64.3605 60.9195H64.3983L64.4333 60.9166L64.4828 60.9108H64.4944L64.5963 60.9021H64.6021L64.6487 60.8962L65.0825 60.8467H65.1029C66.052 60.7245 67.2166 60.7361 69.0042 60.1771L69.4002 60.0461C66.6576 61.5775 63.3444 61.8978 63.3444 61.8978C63.3444 61.8978 63.3444 49.1515 66.2762 47.0058C66.9546 46.7088 68.3724 47.0174 69.7262 47.9374C68.6607 47.5968 67.697 47.4862 67.1467 47.6754C63.7782 49.6232 64.3576 60.9224 64.3576 60.9224L64.3605 60.9195Z" fill="white"/>
</g>
<defs>
<clipPath id="clip0_342_5636">
<rect width="93.1659" height="93.1659" fill="white" transform="translate(0.113281 0.282227)"/>
</clipPath>
</defs>
</svg>
