<svg width="94" height="94" viewBox="0 0 94 94" fill="none" xmlns="http://www.w3.org/2000/svg">
<g clip-path="url(#clip0_342_5640)">
<path d="M47.2094 93.4481C72.9364 93.4481 93.7923 72.5922 93.7923 46.8652C93.7923 21.1381 72.9364 0.282227 47.2094 0.282227C21.4824 0.282227 0.626465 21.1381 0.626465 46.8652C0.626465 72.5922 21.4824 93.4481 47.2094 93.4481Z" fill="#8834FF"/>
<path d="M21.0066 62.0924C21.5627 62.0924 22.1479 62.1215 22.704 62.0924C23.7609 62.0138 24.8206 61.8013 25.8542 61.5393C27.8925 60.9827 29.8003 60.0278 31.4674 58.7297C31.9449 58.36 32.4195 57.964 32.8707 57.5389C33.8228 56.5869 34.6467 55.5009 35.3076 54.3364C35.8899 53.3028 36.3121 52.1906 36.6323 51.0523C36.6585 50.9737 36.6585 50.8659 36.6847 50.7873H32.5272C31.6632 50.7835 30.8022 50.6859 29.9593 50.4962C29.8833 50.4653 29.8025 50.4476 29.7206 50.4438C29.6801 50.4232 29.6436 50.3956 29.6128 50.3623C29.8516 49.8353 30.0641 49.3316 30.2767 48.8017L31.8925 45.0664C31.9441 44.888 32.0237 44.719 32.1283 44.5656C32.2437 44.4588 32.3962 44.4014 32.5534 44.4055C33.8519 44.3793 35.1213 44.4055 36.4198 44.4055H36.7633C36.7109 44.1929 36.7109 44.0357 36.6585 43.8523C36.1895 42.0608 35.3603 40.3837 34.2216 38.9232C33.6617 38.2102 33.0506 37.5388 32.3933 36.9144C31.571 36.1409 30.6556 35.4729 29.6682 34.9258C28.6391 34.3471 27.5569 33.8684 26.4365 33.4963C25.5032 33.2039 24.5468 32.9916 23.5774 32.8616C22.8088 32.7801 22.0664 32.7539 21.3007 32.7015C21.1144 32.7015 20.928 32.6753 20.7446 32.6491C20.7068 32.6378 20.6723 32.6172 20.6444 32.5892C20.6164 32.5613 20.5958 32.5268 20.5845 32.489C20.3196 31.8805 20.0546 31.2982 19.7897 30.6897C19.4694 29.9735 19.1783 29.2602 18.8638 28.5702C18.6251 27.9879 18.3602 27.4347 18.0952 26.8233L18.6513 26.6632C19.8159 26.506 21.0096 26.4536 22.2003 26.506C24.0962 26.5695 25.979 26.8449 27.8136 27.327C28.9782 27.6443 30.1427 28.0403 31.2549 28.5178C32.8183 29.1787 34.3003 30.0026 35.6803 30.9809C36.2859 31.4292 36.8943 31.9067 37.4795 32.3842C37.7416 32.5967 38.0065 32.8354 38.2715 33.0713C39.5962 34.3436 40.7607 35.7993 41.7419 37.3627C42.7201 38.9232 43.4363 40.6177 43.9138 42.3937C44.071 42.976 44.1758 43.5874 44.3098 44.1696C44.3251 44.2143 44.3536 44.2533 44.3916 44.2813C44.4295 44.3094 44.4751 44.3253 44.5223 44.3269H49.8968C50.0045 43.9018 50.0831 43.4796 50.1617 43.0546C50.482 41.8114 50.9042 40.6177 51.434 39.4793C51.8562 38.5273 52.3861 37.6015 52.9946 36.7542C53.5507 35.9856 54.1329 35.217 54.7705 34.5037C55.2388 33.9503 55.7425 33.4281 56.2787 32.9402C57.3923 31.9293 58.598 31.0248 59.8801 30.2384C61.2048 29.4174 62.5819 28.7536 64.0376 28.2266C65.045 27.8831 66.0494 27.5657 67.0568 27.3008C67.8225 27.1145 68.5649 26.9805 69.3597 26.8757C69.9944 26.7709 70.6582 26.7185 71.3191 26.6632C71.7442 26.637 72.1402 26.6108 72.5652 26.6108C73.1999 26.6108 73.8084 26.5846 74.4169 26.6108C75.0283 26.6399 75.6368 26.7709 76.2453 26.8757C76.2715 26.8757 76.2715 26.9048 76.3239 26.9543L75.8726 28.0141C75.398 29.1263 74.9206 30.2384 74.4169 31.3768C74.2245 31.7764 74.0478 32.1834 73.887 32.5967C73.7822 32.8587 73.5173 32.7539 73.3338 32.8063C73.1737 32.8354 73.0427 32.8354 72.8826 32.8063C70.1759 32.8327 67.5084 33.457 65.0712 34.6347C63.9312 35.1916 62.8635 35.8858 61.8919 36.7018C61.496 37.0454 61.0476 37.3889 60.6749 37.7849C59.72 38.7398 58.899 39.8229 58.2381 41.0166C57.7069 42.0015 57.2814 43.0399 56.9687 44.1143C56.9396 44.1929 56.9396 44.3007 56.9134 44.3793H57.2045C58.5816 44.3793 59.9849 44.3502 61.362 44.3793C62.1831 44.3793 63.0041 44.5103 63.7989 44.7752C63.828 44.8043 63.8513 44.8043 63.8775 44.8305L63.1118 46.5774C62.5819 47.8206 62.0258 49.0667 61.496 50.3361C61.3358 50.7087 61.231 50.7873 60.8059 50.7873H56.9396C57.0473 51.1571 57.1259 51.4744 57.2307 51.7947C57.6034 52.9069 58.1332 53.9637 58.7941 54.9449C59.193 55.5271 59.6152 56.057 60.0664 56.5869C60.3285 56.9043 60.6196 57.2216 60.9108 57.4865C61.8919 58.4386 63.007 59.2625 64.1949 59.9234C65.2022 60.5057 66.2882 60.9832 67.4003 61.35C68.4601 61.7227 69.5723 61.9614 70.7106 62.0662L72.8011 62.2264C73.066 62.2555 73.3309 62.2555 73.5959 62.2788C73.6483 62.3079 73.7036 62.3312 73.7298 62.3865C74.1782 63.4433 74.6294 64.5031 75.1069 65.5629L76.2424 68.1569C75.8726 68.2385 75.5291 68.3171 75.1593 68.3433C74.2568 68.3957 73.3309 68.4481 72.4313 68.4481C71.6103 68.4481 70.7892 68.3695 69.9944 68.2647C68.8932 68.1092 67.7979 67.9149 66.7103 67.6824C65.4066 67.3623 64.1311 66.9368 62.8964 66.4101C61.4259 65.7805 60.0248 64.9999 58.7155 64.0809C58.0332 63.5751 57.3624 63.0538 56.7037 62.5175C56.272 62.1659 55.8644 61.7856 55.4838 61.3791C53.8113 59.6779 52.4338 57.71 51.4078 55.5563C50.8079 54.2806 50.3632 52.9376 50.0831 51.556C50.0307 51.422 50.0045 51.2648 49.9754 51.1309C49.9754 50.8689 49.8444 50.8135 49.6057 50.8135H44.2574C43.9911 52.2513 43.5643 53.6547 42.9851 54.9973C42.5154 56.1368 41.9207 57.2206 41.212 58.229C40.6578 59.0082 40.065 59.7593 39.436 60.4795C38.9831 61.0291 38.4876 61.5421 37.9541 62.0138C37.1331 62.73 36.2596 63.3909 35.3862 64.0518C34.3358 64.7981 33.2189 65.4462 32.0497 65.9879C29.8731 67.0229 27.5511 67.719 25.1642 68.0521C24.3432 68.1831 23.5221 68.2647 22.704 68.3433C22.2366 68.3698 21.7681 68.3698 21.3007 68.3433C20.6107 68.3433 19.9236 68.3142 19.2627 68.2909C19.0211 68.2618 18.7823 68.2385 18.5465 68.1831C18.4126 68.1569 18.3602 68.1045 18.4388 67.9473C18.9686 66.7274 19.5247 65.5105 20.0546 64.2906C20.3749 63.5511 20.666 62.864 21.0066 62.0953V62.0924Z" fill="white"/>
</g>
<defs>
<clipPath id="clip0_342_5640">
<rect width="93.1659" height="93.1659" fill="white" transform="translate(0.627441 0.282227)"/>
</clipPath>
</defs>
</svg>
