<svg width="94" height="94" viewBox="0 0 94 94" fill="none" xmlns="http://www.w3.org/2000/svg">
<g clip-path="url(#clip0_342_5644)">
<path d="M46.7245 93.4481C72.4516 93.4481 93.3075 72.5922 93.3075 46.8652C93.3075 21.1381 72.4516 0.282227 46.7245 0.282227C20.9975 0.282227 0.141602 21.1381 0.141602 46.8652C0.141602 72.5922 20.9975 93.4481 46.7245 93.4481Z" fill="#1591CA"/>
<path d="M48.3897 44.7457C48.3897 44.7457 52.2532 36.157 44.6776 27.8594C44.6776 27.8594 40.3687 22.3277 31.4597 22.7644L33.2386 22.0656C33.5355 21.9492 33.8471 21.8677 34.1615 21.8269L35.9142 21.5998L48.2412 19.7074C48.2412 19.7074 52.5996 18.8514 55.9041 19.7947C56.8445 20.0655 57.7005 20.575 58.3788 21.2679C60.2014 23.1138 63.861 27.9962 61.4649 35.7203C61.4649 35.7203 59.0863 44.309 50.1744 46.347C50.1744 46.347 47.9442 46.9293 48.3897 44.7457ZM47.8394 49.5321C47.8394 49.5321 53.409 57.1688 64.5569 55.0172C64.5569 55.0172 71.6084 54.2049 75.7688 46.4664L75.4718 48.3268C75.4223 48.6354 75.335 48.9382 75.2098 49.2264L74.5169 50.8189L69.8935 62.1735C69.8935 62.1735 68.4233 66.2816 65.9107 68.5874C65.1894 69.2444 64.311 69.7046 63.3603 69.9238C60.8128 70.5148 54.6609 71.1116 49.1001 65.1548C49.1001 65.1548 42.7735 58.773 45.5277 50.2192C45.5277 50.2134 46.1508 48.0444 47.8394 49.5321ZM43.8071 46.775C43.8071 46.775 34.2867 47.7765 30.7202 58.3479C30.7202 58.3479 27.9718 64.7647 32.799 72.119L31.2937 70.9544C31.0436 70.761 30.8186 70.537 30.6241 70.2877L29.5469 68.9135L21.7326 59.3844C21.7326 59.3844 18.8008 56.1032 17.9943 52.8337C17.7614 51.8962 17.7847 50.9121 18.0584 49.9863C18.7833 47.5203 21.2784 41.9798 29.3052 40.1689C29.3052 40.1689 38.089 37.9067 44.3341 44.4662C44.3399 44.4662 45.9645 46.0675 43.81 46.775H43.8071Z" fill="white"/>
<path opacity="0.5" d="M49.9447 47.3277C49.9447 47.3277 59.436 46.0933 62.7259 35.4345C62.7259 35.4345 65.3084 28.9508 60.2891 21.7188L61.8263 22.8455C62.0796 23.0347 62.3125 23.2531 62.5134 23.4947L63.6227 24.8398L71.6873 34.1739C71.6873 34.1739 74.6977 37.3764 75.5945 40.6314C75.8478 41.5631 75.8478 42.5413 75.5945 43.473C74.9336 45.9564 72.584 51.5609 64.6038 53.5698C64.6038 53.5698 55.8811 56.0446 49.4702 49.651C49.476 49.651 47.8107 48.0905 49.9447 47.3277ZM45.1758 49.0862C45.1758 49.0862 41.0969 57.576 48.457 66.057C48.457 66.057 52.6174 71.6906 61.5439 71.4722L59.7446 72.1273C59.4448 72.2356 59.1329 72.3069 58.8159 72.3399L57.0603 72.5262L44.6867 74.1158C44.6867 74.1158 40.3108 74.8641 37.0296 73.8392C36.0991 73.5455 35.2598 73.0171 34.5927 72.3049C32.8168 70.4125 29.2852 65.4456 31.8793 57.7856C31.8793 57.7856 34.4705 49.2551 43.4348 47.4384C43.4348 47.4471 45.6853 46.9143 45.1758 49.0862ZM45.4931 44.6114C45.4931 44.6114 39.81 37.0533 28.6971 39.3708C28.6971 39.3708 21.6572 40.2791 17.6104 48.076L17.8782 46.2097C17.924 45.8997 18.0081 45.5965 18.1286 45.3072L18.7982 43.7059L23.2527 32.2814C23.2527 32.2814 24.6648 28.153 27.1424 25.8122C27.8571 25.1462 28.7315 24.6759 29.6812 24.4468C32.2199 23.815 38.363 23.1366 44.0054 29.0148C44.0054 29.0148 50.4251 35.3064 47.7961 43.8981C47.7961 43.8922 47.2022 46.0758 45.4931 44.6114Z" fill="white"/>
</g>
<defs>
<clipPath id="clip0_342_5644">
<rect width="93.1659" height="93.1659" fill="white" transform="translate(0.141602 0.282227)"/>
</clipPath>
</defs>
</svg>
