<svg width="94" height="94" viewBox="0 0 94 94" fill="none" xmlns="http://www.w3.org/2000/svg">
<g clip-path="url(#clip0_342_5650)">
<path d="M47.2392 93.4481C72.9662 93.4481 93.8221 72.5922 93.8221 46.8652C93.8221 21.1381 72.9662 0.282227 47.2392 0.282227C21.5121 0.282227 0.65625 21.1381 0.65625 46.8652C0.65625 72.5922 21.5121 93.4481 47.2392 93.4481Z" fill="#56428E"/>
<path d="M31.9541 22.1182H44.6305C43.1049 24.5347 42.1703 27.2044 42.2286 30.0955C45.9989 30.1333 49.7808 30.1333 53.554 30.0955C53.6035 27.2219 52.832 24.4764 51.1812 22.1182H63.945C63.0657 23.9611 61.5721 25.6701 61.7148 27.8333C61.6566 37.5109 61.7352 47.1943 61.7061 56.8719C62.958 56.8719 64.2244 56.8719 65.4909 56.8807C66.4138 55.0465 67.2349 53.1744 67.8899 51.2325C71.6806 51.3286 75.4917 51.1248 79.2649 51.6314C75.5325 54.8514 73.5818 59.434 71.1507 63.6061C61.5023 63.6265 51.8567 63.577 42.1995 63.6352C41.7453 67.158 43.9172 69.5833 46.4327 71.6125H30.1374C31.5553 69.7405 34.4114 68.5351 34.1115 65.7897C34.2076 56.4352 34.1115 47.0691 34.1406 37.7031H42.4091V43.4677H53.3794V36.8588H30.4751L24.7833 46.8653C26.6757 50.2048 28.5739 53.5384 30.4838 56.8719H33.3021V63.6061H24.6872C21.5428 58.0161 18.282 52.4931 15.2134 46.8653V46.8566C18.2908 41.2375 21.5603 35.7146 24.6872 30.1246C27.9014 30.1246 31.1127 30.1246 34.324 30.0955C34.3668 27.2564 33.5387 24.4723 31.9512 22.1182H31.9541ZM42.412 50.263V56.8719H53.3794V50.263H42.412ZM62.5446 30.1246H71.1333C73.4857 33.9095 75.1045 38.2766 78.4992 41.3045C78.5691 41.5287 78.6943 41.9858 78.7612 42.2071C75.1336 42.6845 71.4594 42.3148 67.8026 42.4982C67.3368 40.4806 66.4226 38.626 65.4094 36.85L62.5446 36.8588V30.1246ZM53.6792 64.4504C56.2151 64.4591 58.7626 64.4504 61.3014 64.4417C61.2431 67.6821 63.5112 69.691 65.7384 71.6125H49.3266C51.4316 69.6153 53.8918 67.7199 53.6792 64.4504Z" fill="white"/>
</g>
<defs>
<clipPath id="clip0_342_5650">
<rect width="93.1659" height="93.1659" fill="white" transform="translate(0.655273 0.282227)"/>
</clipPath>
</defs>
</svg>
