<svg width="94" height="94" viewBox="0 0 94 94" fill="none" xmlns="http://www.w3.org/2000/svg">
<g clip-path="url(#clip0_342_5654)">
<path d="M46.7519 93.4481C72.4789 93.4481 93.3348 72.5922 93.3348 46.8652C93.3348 21.1381 72.4789 0.282227 46.7519 0.282227C21.0248 0.282227 0.168945 21.1381 0.168945 46.8652C0.168945 72.5922 21.0248 93.4481 46.7519 93.4481Z" fill="#2A3069"/>
<path d="M53.5843 30.9488C53.5843 20.7006 48.6144 12.007 44.8878 9.21203C44.8878 9.21203 44.5763 8.90051 44.5763 9.52065C44.2677 29.0855 34.328 34.3668 29.0496 41.8201C16.3179 58.2784 28.1179 76.6001 40.2295 80.0181C47.0626 81.8814 38.6777 76.6001 37.7461 65.7317C36.1913 52.0683 53.5843 42.1287 53.5843 30.9488Z" fill="white"/>
<path d="M60.1057 37.7812C59.4827 40.2647 56.9992 45.546 53.5841 50.5129C42.0927 66.9742 48.6143 75.0476 52.3409 79.3944C54.5158 81.8807 52.3409 79.3944 57.6194 76.9109C57.9309 76.5994 68.1791 71.321 69.1108 59.2094C70.354 47.4094 62.9007 39.9561 60.1057 37.7812Z" fill="white"/>
</g>
<defs>
<clipPath id="clip0_342_5654">
<rect width="93.1659" height="93.1659" fill="white" transform="translate(0.169922 0.282227)"/>
</clipPath>
</defs>
</svg>
