<svg width="94" height="94" viewBox="0 0 94 94" fill="none" xmlns="http://www.w3.org/2000/svg">
<g clip-path="url(#clip0_342_5660)">
<path d="M47.2665 93.4481C72.9936 93.4481 93.8495 72.5922 93.8495 46.8652C93.8495 21.1381 72.9936 0.282227 47.2665 0.282227C21.5395 0.282227 0.683594 21.1381 0.683594 46.8652C0.683594 72.5922 21.5395 93.4481 47.2665 93.4481Z" fill="#CFA967"/>
<path d="M47.3246 49.617V72.888L64.6389 68.2239L68.7062 23.417H47.3246V42.4344L48.2097 39.6773H50.5272L47.3246 49.617ZM25.8266 71.5226L21.0635 19.207H73.4693L68.7062 71.5226L47.2081 77.4357L25.8266 71.5226ZM40.8583 51.7452V49.5878L33.67 46.723L40.8612 43.8407V41.6804L30.5926 45.8525V47.576L40.8583 51.7452ZM63.9547 47.576L53.6861 51.7452V49.5878L60.8773 46.7143L53.6861 43.8407V41.6804L63.9547 45.8525V47.576ZM47.3246 49.614V42.4344L43.4902 54.3917H45.7845L47.3246 49.614Z" fill="white"/>
</g>
<defs>
<clipPath id="clip0_342_5660">
<rect width="93.1659" height="93.1659" fill="white" transform="translate(0.683594 0.282227)"/>
</clipPath>
</defs>
</svg>
