<svg width="94" height="94" viewBox="0 0 94 94" fill="none" xmlns="http://www.w3.org/2000/svg">
<g clip-path="url(#clip0_342_5664)">
<path d="M46.7812 93.4481C72.5082 93.4481 93.3641 72.5922 93.3641 46.8652C93.3641 21.1381 72.5082 0.282227 46.7812 0.282227C21.0541 0.282227 0.198242 21.1381 0.198242 46.8652C0.198242 72.5922 21.0541 93.4481 46.7812 93.4481Z" fill="black"/>
<circle cx="46.5694" cy="47.2891" r="40.4425" fill="white"/>
<circle cx="46.5692" cy="47.2884" r="34.8031" fill="black"/>
<path d="M36.7405 52.4452H32.229V57.1178H46.5692V52.4452H42.3799C42.3799 50.3612 42.4893 48.1716 43.883 46.4835C46.6915 43.082 52.525 43.2422 54.8705 47.128C56.1137 49.1878 55.9144 51.7551 55.9144 54.0564V66.6242H61.3927V53.0897C61.3927 49.8067 61.4977 46.4489 59.6036 43.5833C56.223 38.4691 45.1962 36.879 42.541 43.7444H42.3799V28.1152H36.7405V52.4452Z" fill="white"/>
<path d="M32.229 61.9512V66.6238H46.5692V61.9512H32.229Z" fill="white"/>
</g>
<defs>
<clipPath id="clip0_342_5664">
<rect width="93.1659" height="93.1659" fill="white" transform="translate(0.197266 0.282227)"/>
</clipPath>
</defs>
</svg>
