<svg width="94" height="94" viewBox="0 0 94 94" fill="none" xmlns="http://www.w3.org/2000/svg">
<g clip-path="url(#clip0_342_5676)">
<path d="M46.8085 93.4481C72.5356 93.4481 93.3915 72.5922 93.3915 46.8652C93.3915 21.1381 72.5356 0.282227 46.8085 0.282227C21.0815 0.282227 0.225586 21.1381 0.225586 46.8652C0.225586 72.5922 21.0815 93.4481 46.8085 93.4481Z" fill="#292929"/>
<path fill-rule="evenodd" clip-rule="evenodd" d="M43.9174 54.601C43.9174 53.2618 43.9232 51.9254 43.9144 50.5891C43.9115 50.2164 44.0193 49.9311 44.3657 49.7797C44.686 49.6399 45.0208 49.7389 45.3003 50.065C46.133 51.0374 46.9598 52.0157 47.7896 52.9939C48.0807 53.3346 48.3748 53.6723 48.6572 54.0246C48.7235 54.1077 48.7622 54.2095 48.7678 54.3157C48.7736 55.7278 48.7765 57.1398 48.7707 58.5489C48.7784 59.1702 48.5516 59.7715 48.1355 60.2329C47.7195 60.6943 47.1447 60.9818 46.526 61.0382C45.9077 61.0778 45.2974 60.8818 44.8178 60.4897C44.3381 60.0975 44.0247 59.5383 43.9406 58.9245C43.9144 58.7644 43.9174 58.5984 43.9174 58.4354V54.601ZM43.9261 28.369C43.9232 28.3108 43.9174 28.2555 43.9174 28.1972V20.2432C43.9203 19.0204 44.7588 17.9898 45.8942 17.7889C46.2444 17.7237 46.6047 17.7367 46.9493 17.8269C47.2939 17.917 47.6143 18.0822 47.8877 18.3105C48.1611 18.5389 48.3807 18.8247 48.5308 19.1478C48.6809 19.4708 48.7579 19.823 48.7562 20.1792C48.7853 22.8897 48.7678 25.6032 48.7736 28.3137L48.7591 28.4534C48.1943 27.4869 47.414 27.0036 46.3484 27.0065C45.2945 27.0065 44.5084 27.4723 43.9261 28.369ZM43.9174 65.0909C44.5113 65.9935 45.3032 66.4535 46.3659 66.4506C47.4256 66.4477 48.1972 65.9644 48.7736 65.0676V71.8047C48.7707 72.4656 48.7911 73.1323 48.7329 73.7845C48.6765 74.4067 48.381 74.9828 47.9087 75.3916C47.4363 75.8005 46.8238 76.0102 46.1999 75.9768C45.5845 75.9356 45.0076 75.6628 44.5851 75.2134C44.1627 74.764 43.9262 74.1712 43.9232 73.5545C43.9086 70.9546 43.9174 68.3546 43.9174 65.7518V65.0909ZM48.7736 39.3946V44.2305C48.7736 44.6905 48.628 44.9409 48.2787 45.0806C48.098 45.1551 47.8979 45.1686 47.7088 45.1192C47.5197 45.0699 47.3518 44.9602 47.2306 44.807L45.1227 42.3381C44.7588 41.913 44.3948 41.4908 44.0367 41.057C43.9681 40.9748 43.9273 40.8728 43.9203 40.7659C43.9144 38.6871 43.9115 36.6055 43.9203 34.5267C43.9164 33.9127 44.1436 33.3198 44.5568 32.8656C44.97 32.4115 45.5388 32.1293 46.1504 32.0753C47.3004 31.9472 48.4417 32.8031 48.7096 34.0085C48.7532 34.2094 48.7678 34.419 48.7678 34.6257C48.7736 36.2153 48.7736 37.805 48.7736 39.3946ZM53.8133 29.5627V23.0993C53.8191 21.9289 54.4859 20.974 55.5223 20.6479C57.0945 20.15 58.6667 21.3379 58.6754 23.0498C58.6841 24.6628 58.6754 26.2757 58.6754 27.8857V36.0232C58.6754 37.2256 57.9534 38.198 56.8499 38.4979C55.4146 38.8851 53.9502 37.8283 53.8308 36.3172C53.8202 36.169 53.8153 36.0204 53.8162 35.8718V29.5627H53.8133ZM39.128 60.7238V68.1916C39.1389 68.7752 38.942 69.3436 38.5724 69.7953C38.2028 70.2471 37.6846 70.5527 37.1104 70.6576C35.7129 70.9254 34.3184 69.79 34.2776 68.3372C34.266 67.9208 34.2747 67.5045 34.2747 67.0882V53.2501C34.2747 52.0885 35.02 51.1073 36.1031 50.8278C36.4621 50.7372 36.837 50.73 37.1993 50.8066C37.5615 50.8832 37.9015 51.0416 38.1931 51.2697C38.4847 51.4978 38.7203 51.7896 38.8819 52.1228C39.0434 52.456 39.1266 52.8216 39.1251 53.1919C39.1339 55.7016 39.1251 58.2141 39.1251 60.7238H39.128ZM39.128 33.2224V43.4095C39.139 43.9745 38.9551 44.526 38.6073 44.9714C38.2595 45.4167 37.7689 45.7288 37.2181 45.8551C36.8653 45.9302 36.5002 45.9259 36.1492 45.8426C35.7982 45.7592 35.4701 45.5989 35.1887 45.3732C34.9073 45.1475 34.6795 44.8621 34.5219 44.5376C34.3644 44.213 34.2809 43.8576 34.2776 43.4968C34.263 42.0236 34.2747 40.5534 34.2718 39.0802V23.0498C34.2718 21.8503 35.052 20.8488 36.1729 20.5955C36.5293 20.5173 36.8987 20.5203 37.2537 20.6042C37.6088 20.6882 37.9404 20.851 38.2239 21.0806C38.5075 21.3102 38.7357 21.6007 38.8917 21.9305C39.0477 22.2603 39.1275 22.6209 39.1251 22.9858C39.1339 25.6032 39.1251 28.2176 39.1251 30.835L39.128 33.2224ZM53.8133 57.0554V45.9919C53.8133 44.8885 54.285 44.0704 55.269 43.6104C56.847 42.8796 58.6172 44.0471 58.6754 45.8318V68.0984C58.6754 69.3154 57.9796 70.282 56.882 70.5964C55.4437 71.0099 53.9531 69.9559 53.8308 68.4391C53.8198 68.284 53.8149 68.1287 53.8162 67.9732V57.0495L53.8133 57.0554ZM68.6442 45.7998V63.0937C68.6584 63.67 68.471 64.2331 68.1144 64.686C67.7577 65.1389 67.2541 65.453 66.6906 65.5742C65.2582 65.8857 63.8316 64.7416 63.7908 63.248V28.5437C63.7908 27.4228 64.3527 26.529 65.3018 26.133C66.9031 25.4634 68.6412 26.6687 68.6412 28.4564V45.7969L68.6442 45.7998ZM29.826 45.7736V63.0937C29.826 64.3165 29.069 65.2976 27.9278 65.5684C26.472 65.9178 25.0134 64.7707 24.9727 63.2422V28.4884C24.9727 27.2976 25.686 26.331 26.7777 26.0282C27.1359 25.9341 27.5109 25.9231 27.8739 25.9962C28.237 26.0692 28.5785 26.2243 28.8724 26.4497C29.1663 26.675 29.4048 26.9646 29.5696 27.2962C29.7343 27.6279 29.8211 27.9929 29.8231 28.3632C29.8377 30.2702 29.826 32.1801 29.826 34.09V45.7707V45.7736Z" fill="white"/>
</g>
<defs>
<clipPath id="clip0_342_5676">
<rect width="93.1659" height="93.1659" fill="white" transform="translate(0.225586 0.282227)"/>
</clipPath>
</defs>
</svg>
