<svg width="94" height="94" viewBox="0 0 94 94" fill="none" xmlns="http://www.w3.org/2000/svg">
<g clip-path="url(#clip0_342_5684)">
<path d="M46.8354 93.4481C72.5624 93.4481 93.4183 72.5922 93.4183 46.8652C93.4183 21.1381 72.5624 0.282227 46.8354 0.282227C21.1083 0.282227 0.252441 21.1381 0.252441 46.8652C0.252441 72.5922 21.1083 93.4481 46.8354 93.4481Z" fill="#1FC5C9"/>
<path fill-rule="evenodd" clip-rule="evenodd" d="M33.1401 65.7081L39.4405 59.4078C42.221 61.0502 45.4686 61.7214 48.6724 61.3158C51.8762 60.9103 54.8541 59.4509 57.1376 57.1674C59.4211 54.8839 60.8805 51.906 61.2861 48.7022C61.6916 45.4984 61.0204 42.2508 59.378 39.4703L65.6783 33.1699C68.9442 37.6565 70.5008 43.1618 70.0679 48.6942C69.635 54.2267 67.241 59.4228 63.317 63.3468C59.393 67.2707 54.1969 69.6648 48.6644 70.0977C43.132 70.5306 37.6267 68.974 33.1401 65.7081ZM27.9927 60.5607C24.7269 56.0741 23.1702 50.5689 23.6032 45.0364C24.0361 39.504 26.4301 34.3079 30.3541 30.3839C34.2781 26.4599 39.4742 24.0659 45.0066 23.6329C50.5391 23.2 56.0443 24.7567 60.5309 28.0225L54.2306 34.3229C51.4501 32.6804 48.2024 32.0092 44.9986 32.4148C41.7949 32.8204 38.8169 34.2797 36.5334 36.5632C34.2499 38.8467 32.7906 41.8247 32.385 45.0284C31.9794 48.2322 32.6507 51.4799 34.2931 54.2604L27.9927 60.5607ZM70.127 29.3967C68.5827 29.3967 67.1016 28.7832 66.0096 27.6912C64.9176 26.5992 64.3041 25.1182 64.3041 23.5738C64.3041 22.0295 64.9176 20.5485 66.0096 19.4565C67.1016 18.3645 68.5827 17.751 70.127 17.751C71.6713 17.751 73.1524 18.3645 74.2444 19.4565C75.3364 20.5485 75.9499 22.0295 75.9499 23.5738C75.9499 25.1182 75.3364 26.5992 74.2444 27.6912C73.1524 28.7832 71.6713 29.3967 70.127 29.3967ZM23.5441 75.9796C21.9997 75.9796 20.5187 75.3662 19.4267 74.2742C18.3347 73.1822 17.7212 71.7011 17.7212 70.1568C17.7212 68.6125 18.3347 67.1314 19.4267 66.0394C20.5187 64.9474 21.9997 64.3339 23.5441 64.3339C25.0884 64.3339 26.5694 64.9474 27.6614 66.0394C28.7534 67.1314 29.3669 68.6125 29.3669 70.1568C29.3669 71.7011 28.7534 73.1822 27.6614 74.2742C26.5694 75.3662 25.0884 75.9796 23.5441 75.9796Z" fill="white"/>
</g>
<defs>
<clipPath id="clip0_342_5684">
<rect width="93.1659" height="93.1659" fill="white" transform="translate(0.253418 0.282227)"/>
</clipPath>
</defs>
</svg>
