<svg width="94" height="94" viewBox="0 0 94 94" fill="none" xmlns="http://www.w3.org/2000/svg">
<g clip-path="url(#clip0_342_5688)">
<path d="M47.3505 93.4481C73.0776 93.4481 93.9334 72.5922 93.9334 46.8652C93.9334 21.1381 73.0776 0.282227 47.3505 0.282227C21.6235 0.282227 0.767578 21.1381 0.767578 46.8652C0.767578 72.5922 21.6235 93.4481 47.3505 93.4481Z" fill="#F9C011"/>
<path d="M43.8917 17.751C48.3112 20.3334 52.4687 23.3235 56.8475 25.9758L40.7065 54.1323C38.5637 50.3736 36.5548 46.5392 34.4382 42.7602C37.4865 34.3898 40.9686 26.165 43.8917 17.751ZM29.8818 75.9796C39.0208 59.3583 48.515 42.9203 57.5521 26.2553C59.9686 30.4972 62.388 34.7363 64.819 38.9782C57.8141 51.2994 50.7568 63.5915 43.8072 75.9389C39.1635 75.9389 34.5256 75.8807 29.8818 75.9796ZM44.6777 75.9127C48.5499 69.2892 52.198 62.5492 56.1197 55.9548C58.4576 58.9448 60.8304 61.9174 63.1508 64.922C57.0152 68.6226 50.8574 72.2862 44.6777 75.9127Z" fill="white"/>
</g>
<defs>
<clipPath id="clip0_342_5688">
<rect width="93.1659" height="93.1659" fill="white" transform="translate(0.767578 0.282227)"/>
</clipPath>
</defs>
</svg>
