<svg width="94" height="94" viewBox="0 0 94 94" fill="none" xmlns="http://www.w3.org/2000/svg">
<g clip-path="url(#clip0_342_5692)">
<path d="M46.8649 93.4481C72.592 93.4481 93.4479 72.5922 93.4479 46.8652C93.4479 21.1381 72.592 0.282227 46.8649 0.282227C21.1379 0.282227 0.281982 21.1381 0.281982 46.8652C0.281982 72.5922 21.1379 93.4481 46.8649 93.4481Z" fill="#98C23A"/>
<path d="M46.2535 11.9277C27.2972 11.9277 11.9277 27.2972 11.9277 46.2535C11.9277 65.2099 27.2972 80.5793 46.2535 80.5793C65.2099 80.5793 80.5793 65.2099 80.5793 46.2535C80.5473 27.3088 65.1982 11.9598 46.2535 11.9277ZM46.2535 75.9793C29.8563 75.9793 16.5627 62.6886 16.5569 46.2914C16.5511 29.8942 29.836 16.5948 46.2332 16.586C62.6304 16.5744 75.9327 29.8563 75.9502 46.2535C75.9327 62.6478 62.6478 75.9327 46.2535 75.9502V75.9793ZM31.085 43.1965H25.5532V31.085C25.5532 28.814 26.6305 27.6786 28.7849 27.6786H40.78C41.2425 27.6002 41.717 27.6347 42.1632 27.7792C42.6094 27.9236 43.0141 28.1737 43.3429 28.5082C43.6716 28.8427 43.9147 29.2517 44.0515 29.7003C44.1882 30.1489 44.2145 30.624 44.1282 31.085V43.1965H38.6547V32.4242H31.085V43.1965ZM38.6547 46.7485H44.1864V61.3056C44.2674 61.7645 44.237 62.2361 44.0979 62.6808C43.9587 63.1255 43.7149 63.5303 43.3869 63.8612C43.0588 64.1922 42.6561 64.4395 42.2126 64.5825C41.7691 64.7254 41.2978 64.7599 40.8383 64.6829H28.7849C28.3307 64.7367 27.8701 64.6827 27.4406 64.5253C27.0111 64.3679 26.6248 64.1115 26.3128 63.7769C26.0009 63.4423 25.7723 63.0389 25.6453 62.5995C25.5184 62.16 25.4968 61.6968 25.5824 61.2474V46.6903H38.6838L38.6547 46.7485ZM61.3639 46.9523H66.9538V61.5095C67.0361 61.9712 67.0057 62.4459 66.8651 62.8933C66.7245 63.3407 66.4779 63.7476 66.1463 64.0792C65.8147 64.4108 65.4078 64.6574 64.9604 64.798C64.513 64.9386 64.0383 64.969 63.5766 64.8867H51.4359C50.9785 64.9584 50.5106 64.92 50.071 64.7747C49.6314 64.6294 49.2329 64.3814 48.9083 64.0511C48.5838 63.7209 48.3427 63.3181 48.2051 62.8761C48.0674 62.434 48.0372 61.9655 48.1169 61.5095V31.347C48.0276 30.8803 48.054 30.3989 48.1936 29.9448C48.3332 29.4906 48.5818 29.0775 48.9178 28.7416C49.2538 28.4056 49.6668 28.157 50.121 28.0173C50.5751 27.8777 51.0566 27.8514 51.5232 27.9406H63.4601C63.933 27.8345 64.4248 27.848 64.8911 27.9801C65.3574 28.1121 65.7834 28.3584 66.1303 28.6968C66.4773 29.0351 66.7344 29.4546 66.8782 29.9174C67.022 30.3802 67.048 30.8716 66.9538 31.347V40.0813H61.131V32.6863H53.8524V46.9523H61.3639Z" fill="white"/>
</g>
<defs>
<clipPath id="clip0_342_5692">
<rect width="93.1659" height="93.1659" fill="white" transform="translate(0.281494 0.282227)"/>
</clipPath>
</defs>
</svg>
