<svg width="94" height="94" viewBox="0 0 94 94" fill="none" xmlns="http://www.w3.org/2000/svg">
<g clip-path="url(#clip0_342_5696)">
<path d="M47.0414 93.9627C72.7685 93.9627 93.6244 73.1069 93.6244 47.3798C93.6244 21.6528 72.7685 0.796875 47.0414 0.796875C21.3144 0.796875 0.458496 21.6528 0.458496 47.3798C0.458496 73.1069 21.3144 93.9627 47.0414 93.9627Z" fill="#DF1A14"/>
<path d="M43.7228 34.357C44.6166 34.0746 45.6327 34.5782 46.0024 35.4575C46.8963 37.5013 47.6969 39.6063 48.6227 41.6472C49.1759 42.8729 51.0596 43.0301 51.7962 41.9005C53.0306 39.8567 54.0176 37.6877 55.22 35.6118C56.207 34.325 57.9946 34.9538 59.3514 34.8286C60.7692 34.7355 61.8173 36.526 61.0138 37.7517C57.1299 45.0099 53.217 52.239 49.3331 59.5001C48.6839 60.819 46.5585 60.819 45.9733 59.4361C45.1086 57.3311 44.4303 55.13 43.5976 53.0251C43.1027 51.6422 40.9773 51.4238 40.2698 52.7427C39.0674 54.9117 38.0193 57.1739 36.8169 59.3109C36.2317 60.2833 34.9972 60.1261 34.0423 60.1261C33.1164 60.0649 32.0072 60.3473 31.2997 59.5613C30.9898 59.2404 30.7944 58.8262 30.7438 58.383C30.6933 57.9397 30.7905 57.4922 31.0202 57.1098C34.6595 50.2272 38.357 43.3155 41.9963 36.3688C42.4272 35.5827 42.797 34.6074 43.7228 34.3599V34.357ZM31.0202 34.8927C32.0985 34.8298 33.1795 34.8298 34.2577 34.8927C35.4601 35.0179 36.2317 36.558 35.6465 37.6585C32.0363 44.4771 28.3999 51.2637 24.7956 58.0531C24.3618 58.8101 24.024 59.8145 23.0982 60.062C22.021 60.2221 20.9117 60.129 19.8316 60.129C18.5069 60.1901 17.3976 58.4607 18.1983 57.2991C21.9598 50.2592 25.7185 43.1874 29.4801 36.1184C29.7887 35.5216 30.3127 34.9247 31.0231 34.8927H31.0202ZM69.2764 34.9538C70.4468 34.6074 71.6813 34.8607 72.8837 34.7646C73.8066 34.7966 74.9799 34.6074 75.6583 35.4255C76.491 36.2756 76.2406 37.8769 75.1925 38.4126C73.0671 39.7635 70.9709 41.2076 68.8164 42.5294C67.4568 43.4698 65.4537 41.8685 66.0389 40.2963C66.563 39.0386 67.3025 37.8798 67.8906 36.6512C68.2283 36.0223 68.5369 35.2071 69.2764 34.9538ZM59.0719 53.7471C59.6891 53.3686 60.4606 53.4967 61.0458 53.8112C62.6791 54.6264 64.3125 55.5085 65.9778 56.2946C66.6882 56.6091 67.4277 57.2059 67.4568 58.0531C67.582 59.1857 66.6241 60.2833 65.5149 60.1901C63.1421 60.1901 60.7692 60.2192 58.4255 60.1901C57.2551 60.1901 56.3293 58.8072 56.7602 57.6776C57.0688 56.8594 57.5317 56.1345 57.9015 55.3484C58.1781 54.7545 58.4546 54.0295 59.0719 53.7471Z" fill="white"/>
</g>
<defs>
<clipPath id="clip0_342_5696">
<rect width="93.1659" height="93.1659" fill="white" transform="translate(0.459473 0.796875)"/>
</clipPath>
</defs>
</svg>
