<svg width="95" height="94" viewBox="0 0 95 94" fill="none" xmlns="http://www.w3.org/2000/svg">
<g clip-path="url(#clip0_342_5700)">
<path d="M47.5566 93.9627C73.2836 93.9627 94.1395 73.1069 94.1395 47.3798C94.1395 21.6528 73.2836 0.796875 47.5566 0.796875C21.8295 0.796875 0.973633 21.6528 0.973633 47.3798C0.973633 73.1069 21.8295 93.9627 47.5566 93.9627Z" fill="#B2A3F6"/>
<path d="M40.1212 36.5694C37.9085 36.5694 36.118 34.8196 36.118 32.6622C36.118 30.5049 37.9085 28.7522 40.1212 28.7522C42.331 28.7522 44.1244 30.502 44.1244 32.6622C44.1244 34.8225 42.331 36.5694 40.1212 36.5694ZM51.5544 32.1033C49.3446 32.1033 47.5512 30.3535 47.5512 28.1961C47.5512 26.0358 49.3446 24.286 51.5544 24.286C53.7671 24.286 55.5576 26.0358 55.5576 28.1961C55.5576 30.3535 53.7671 32.1033 51.5544 32.1033ZM56.1341 58.903C53.9214 58.903 52.1309 57.1561 52.1309 54.9958C52.1309 52.8356 53.9214 51.0858 56.1341 51.0858C58.3439 51.0858 60.1373 52.8356 60.1373 54.9958C60.1373 57.1561 58.3439 58.903 56.1341 58.903ZM17.8196 53.3189C17.5227 53.3227 17.2279 53.268 16.9521 53.1578C16.6764 53.0476 16.425 52.8842 16.2125 52.6768C15.9999 52.4694 15.8304 52.2221 15.7135 51.9491C15.5966 51.6761 15.5347 51.3827 15.5312 51.0858C15.5312 49.8543 16.5561 48.8527 17.8167 48.8527C19.0774 48.8527 20.1051 49.8543 20.1051 51.0858C20.1017 51.3827 20.0397 51.6761 19.9229 51.9491C19.806 52.2221 19.6364 52.4694 19.4239 52.6768C19.2113 52.8842 18.96 53.0476 18.6842 53.1578C18.4084 53.268 18.1136 53.3227 17.8167 53.3189H17.8196ZM24.1083 67.8411C23.8854 67.8438 23.6642 67.8025 23.4572 67.7197C23.2502 67.6369 23.0616 67.5141 22.9021 67.3584C22.7426 67.2027 22.6153 67.017 22.5275 66.8121C22.4398 66.6072 22.3932 66.387 22.3906 66.1641C22.3906 65.2383 23.1592 64.49 24.1083 64.49C25.0574 64.49 25.8261 65.2383 25.8261 66.1641C25.8234 66.387 25.7769 66.6072 25.6891 66.8121C25.6013 67.017 25.474 67.2027 25.3145 67.3584C25.155 67.5141 24.9664 67.6369 24.7594 67.7197C24.5525 67.8025 24.3312 67.8438 24.1083 67.8411ZM42.4067 79.0064C41.4575 79.0064 40.6889 78.2553 40.6889 77.3295C40.6889 76.4036 41.4575 75.6554 42.4067 75.6554C43.3558 75.6554 44.1244 76.4036 44.1244 77.3295C44.1244 78.2553 43.3558 79.0064 42.4067 79.0064ZM72.147 68.9562C71.1978 68.9562 70.4292 68.205 70.4292 67.2792C70.4292 66.3533 71.1978 65.6022 72.147 65.6022C73.0932 65.6022 73.8647 66.3533 73.8647 67.2792C73.8647 68.205 73.0932 68.9562 72.147 68.9562ZM53.8457 65.608C53.6228 65.6107 53.4015 65.5695 53.1946 65.4867C52.9876 65.4038 52.799 65.281 52.6395 65.1253C52.48 64.9696 52.3527 64.784 52.2649 64.5791C52.1772 64.3741 52.1306 64.1539 52.1279 63.931C52.1279 63.0052 52.8995 62.257 53.8457 62.257C54.7919 62.257 55.5634 63.0052 55.5634 63.931C55.5608 64.1539 55.5142 64.3741 55.4265 64.5791C55.3387 64.784 55.2114 64.9696 55.0519 65.1253C54.8924 65.281 54.7038 65.4038 54.4968 65.4867C54.2899 65.5695 54.0686 65.6107 53.8457 65.608ZM64.1405 57.7908C63.1914 57.7908 62.4228 57.0397 62.4228 56.1138C62.4228 55.188 63.1914 54.4398 64.1405 54.4398C65.0867 54.4398 65.8583 55.188 65.8583 56.1138C65.8583 57.0397 65.0867 57.7908 64.1405 57.7908ZM52.1309 79.0064C50.8673 79.0064 49.8425 78.0049 49.8425 76.7734C49.8425 75.5418 50.8673 74.5403 52.1309 74.5403C53.3915 74.5403 54.4163 75.5389 54.4163 76.7734C54.4163 78.0078 53.3915 79.0064 52.1309 79.0064ZM62.4228 51.0858C62.1261 51.0893 61.8316 51.0342 61.5562 50.9239C61.2807 50.8135 61.0297 50.65 60.8175 50.4426C60.6053 50.2353 60.436 49.9881 60.3193 49.7153C60.2026 49.4425 60.1407 49.1494 60.1373 48.8527C60.1373 47.6212 61.1592 46.6197 62.4228 46.6197C63.6863 46.6197 64.7083 47.6212 64.7083 48.8527C64.7048 49.1494 64.643 49.4425 64.5263 49.7153C64.4096 49.9881 64.2403 50.2353 64.028 50.4426C63.8158 50.65 63.5648 50.8135 63.2894 50.9239C63.014 51.0342 62.7195 51.0893 62.4228 51.0858ZM65.8583 73.4223C65.5613 73.4262 65.2665 73.3714 64.9908 73.2612C64.715 73.1511 64.4637 72.9876 64.2511 72.7802C64.0386 72.5728 63.869 72.3255 63.7521 72.0525C63.6352 71.7795 63.5733 71.4862 63.5699 71.1892C63.5699 69.9548 64.5947 68.9562 65.8554 68.9562C67.1189 68.9562 68.1437 69.9548 68.1437 71.1892C68.1403 71.4862 68.0784 71.7795 67.9615 72.0525C67.8446 72.3255 67.675 72.5728 67.4625 72.7802C67.25 72.9876 66.9986 73.1511 66.7229 73.2612C66.4471 73.3714 66.1523 73.4262 65.8554 73.4223H65.8583ZM20.6699 62.257C19.0919 62.257 17.8109 61.005 17.8109 59.4649C17.8109 57.9247 19.0919 56.6757 20.6699 56.6757C22.2479 56.6757 23.5289 57.9277 23.5289 59.4649C23.5289 61.0021 22.2479 62.257 20.6699 62.257ZM48.1247 73.4223C45.912 73.4223 44.1215 71.6725 44.1215 69.5123C44.1215 67.352 45.912 65.6022 48.1247 65.6022C50.3345 65.6022 52.1279 67.3549 52.1279 69.5123C52.1279 71.6696 50.3345 73.4223 48.1247 73.4223ZM26.3909 54.4398C24.1782 54.4398 22.3877 52.6871 22.3877 50.5297C22.3877 48.3723 24.1782 46.6197 26.3909 46.6197C28.6036 46.6197 30.3941 48.3694 30.3941 50.5297C30.3941 52.69 28.6007 54.4398 26.3909 54.4398ZM48.1247 63.3691C46.5438 63.3691 45.2628 62.1201 45.2628 60.58C45.2628 59.0398 46.5438 57.7908 48.1247 57.7908C49.7027 57.7908 50.9838 59.0398 50.9838 60.58C50.9838 62.1201 49.7027 63.3691 48.1247 63.3691ZM34.3973 38.8083C33.4482 38.8083 32.6796 38.0571 32.6796 37.1313C32.6796 36.2055 33.4482 35.4543 34.3973 35.4543C35.3464 35.4543 36.1151 36.2055 36.1151 37.1313C36.1151 38.0571 35.3464 38.8083 34.3973 38.8083ZM45.2628 45.5046C43.3704 45.5046 41.8331 44.0052 41.8331 42.1564C41.8331 40.3048 43.3704 38.8025 45.2628 38.8025C47.1552 38.8025 48.6925 40.3048 48.6925 42.1535C48.6925 44.0052 47.1581 45.5075 45.2628 45.5075V45.5046ZM53.2692 48.8527C52.9725 48.8562 52.6781 48.8012 52.4026 48.6908C52.1272 48.5805 51.8762 48.4169 51.664 48.2096C51.4517 48.0022 51.2824 47.7551 51.1657 47.4823C51.049 47.2095 50.9872 46.9164 50.9838 46.6197C50.9838 45.3881 52.0057 44.3866 53.2692 44.3866C54.5328 44.3866 55.5547 45.3881 55.5547 46.6197C55.5513 46.9164 55.4895 47.2095 55.3727 47.4823C55.256 47.7551 55.0867 48.0022 54.8745 48.2096C54.6623 48.4169 54.4113 48.5805 54.1358 48.6908C53.8604 48.8012 53.5659 48.8562 53.2692 48.8527ZM57.2724 20.9379C56.3233 20.9379 55.5547 20.1897 55.5547 19.2638C55.5547 18.338 56.3233 17.5868 57.2724 17.5868C58.2216 17.5868 58.9902 18.338 58.9902 19.2638C58.9902 20.1897 58.2216 20.9379 57.2724 20.9379ZM49.266 20.935C48.8949 20.9396 48.5265 20.871 48.1819 20.7332C47.8373 20.5953 47.5233 20.3909 47.2578 20.1316C46.9922 19.8723 46.7804 19.5632 46.6344 19.2219C46.4885 18.8807 46.4112 18.514 46.407 18.1429C46.4115 17.7721 46.4891 17.4057 46.6353 17.0648C46.7814 16.7239 46.9933 16.4152 47.2588 16.1562C47.5243 15.8972 47.8382 15.693 48.1826 15.5553C48.527 15.4176 48.8951 15.3492 49.266 15.3538C49.6371 15.3488 50.0056 15.417 50.3503 15.5545C50.6951 15.692 51.0093 15.8961 51.2751 16.1551C51.5409 16.4142 51.7531 16.7231 51.8994 17.0641C52.0457 17.4052 52.1234 17.7718 52.1279 18.1429C52.1238 18.5143 52.0464 18.8812 51.9002 19.2226C51.7541 19.564 51.542 19.8733 51.2761 20.1326C51.0103 20.392 50.6959 20.5963 50.351 20.734C50.0061 20.8717 49.6374 20.94 49.266 20.935ZM50.9838 38.8025C49.7202 38.8025 48.6983 37.8038 48.6983 36.5694C48.6983 35.3349 49.7202 34.3363 50.9838 34.3363C52.2473 34.3363 53.2692 35.3379 53.2692 36.5694C53.2692 37.8009 52.2473 38.8025 50.9838 38.8025ZM29.2499 63.375C27.3575 63.375 25.8202 61.8756 25.8202 60.0239C25.8202 58.1722 27.3575 56.6728 29.2499 56.6728C31.1423 56.6728 32.6796 58.1722 32.6796 60.021C32.6796 61.8756 31.1452 63.375 29.2499 63.375ZM62.4199 66.7231C60.5274 66.7231 58.9902 65.2208 58.9902 63.3691C58.9902 61.5204 60.5245 60.021 62.4199 60.021C64.3152 60.021 65.8495 61.5204 65.8495 63.3691C65.8495 65.2208 64.3123 66.7231 62.4199 66.7231ZM57.8489 74.5403C55.9536 74.5403 54.4163 73.038 54.4163 71.1892C54.4163 69.3376 55.9536 67.8353 57.846 67.8353C59.7384 67.8353 61.2757 69.3376 61.2757 71.1892C61.2757 73.038 59.7413 74.5374 57.846 74.5374L57.8489 74.5403ZM30.9677 74.5403C28.755 74.5403 26.9644 72.7905 26.9644 70.6302C26.9644 68.47 28.7579 66.7231 30.9677 66.7231C33.1774 66.7231 34.9709 68.47 34.9709 70.6302C34.9709 72.7905 33.1774 74.5403 30.9677 74.5403ZM18.958 45.5075C17.0656 45.5075 15.5283 44.0052 15.5283 42.1535C15.5283 40.3048 17.0626 38.8054 18.958 38.8054C20.8533 38.8054 22.3877 40.3048 22.3877 42.1535C22.3877 44.0052 20.8504 45.5075 18.958 45.5075Z" fill="white"/>
<path opacity="0.5" d="M36.1154 51.085C33.5883 51.085 31.5387 49.0878 31.5387 46.6189C31.5387 44.1529 33.5883 42.1528 36.1184 42.1528C38.6484 42.1528 40.6951 44.1529 40.6951 46.6189C40.6951 49.0878 38.6455 51.085 36.1184 51.085H36.1154ZM60.1348 44.3887C57.6076 44.3887 55.558 42.3886 55.558 39.9197C55.558 37.4537 57.6076 35.4535 60.1377 35.4535C62.6648 35.4535 64.7145 37.4537 64.7145 39.9197C64.7145 42.3886 62.6648 44.3858 60.1377 44.3858L60.1348 44.3887ZM72.7151 63.3742C70.8226 63.3742 69.2854 61.8748 69.2854 60.0231C69.2854 58.1715 70.8226 56.6721 72.7151 56.6721C74.6075 56.6721 76.1447 58.1715 76.1447 60.0202C76.1447 61.8748 74.6104 63.3742 72.7151 63.3742ZM76.1506 49.9729C75.7051 49.9779 75.2631 49.8951 74.8497 49.7292C74.4362 49.5634 74.0595 49.3177 73.741 49.0062C73.4226 48.6948 73.1685 48.3237 72.9935 47.914C72.8185 47.5044 72.7258 47.0643 72.7209 46.6189C72.7209 44.7701 74.2552 43.2707 76.1506 43.2707C78.043 43.2707 79.5773 44.7701 79.5773 46.6189C79.5773 48.4706 78.043 49.9729 76.1506 49.9729ZM62.9967 34.3385C62.6254 34.3431 62.2567 34.2744 61.9119 34.1364C61.5672 33.9983 61.253 33.7936 60.9874 33.534C60.7219 33.2744 60.5101 32.965 60.3643 32.6234C60.2185 32.2818 60.1415 31.9149 60.1377 31.5435C60.1422 31.1726 60.2198 30.8063 60.366 30.4654C60.5121 30.1245 60.724 29.8157 60.9895 29.5567C61.255 29.2977 61.5689 29.0936 61.9133 28.9559C62.2577 28.8182 62.6258 28.7497 62.9967 28.7543C63.3678 28.7497 63.7362 28.8183 64.0808 28.9562C64.4254 29.094 64.7394 29.2984 65.005 29.5578C65.2705 29.8171 65.4823 30.1262 65.6283 30.4674C65.7743 30.8086 65.8516 31.1753 65.8557 31.5464C65.8512 31.9173 65.7736 32.2836 65.6275 32.6245C65.4813 32.9654 65.2694 33.2742 65.0039 33.5332C64.7384 33.7922 64.4245 33.9963 64.0801 34.134C63.7357 34.2717 63.3676 34.3402 62.9967 34.3356V34.3385ZM63.5644 25.4033C62.3038 25.4033 61.279 24.4047 61.279 23.1702C61.279 21.9358 62.3038 20.9371 63.5644 20.9371C64.828 20.9371 65.8528 21.9387 65.8528 23.1702C65.8528 24.4017 64.828 25.4033 63.5644 25.4033ZM68.7119 27.6363C67.7627 27.6363 66.9941 26.8852 66.9941 25.9623C66.9941 25.0393 67.7627 24.2853 68.7119 24.2853C69.661 24.2853 70.4296 25.0364 70.4296 25.9623C70.4296 26.8881 69.661 27.6363 68.7119 27.6363ZM77.8654 41.0406C76.9192 41.0406 76.1477 40.2894 76.1477 39.3636C76.1477 38.4378 76.9192 37.6866 77.8654 37.6866C78.8116 37.6866 79.5831 38.4378 79.5831 39.3636C79.5831 40.2894 78.8145 41.0406 77.8654 41.0406ZM28.6796 26.5213C27.7305 26.5213 26.9619 25.773 26.9619 24.8472C26.9619 23.9214 27.7305 23.1702 28.6796 23.1702C29.6288 23.1702 30.3974 23.9214 30.3974 24.8472C30.3974 25.773 29.6288 26.5213 28.6796 26.5213ZM26.3942 41.0406C25.445 41.0406 24.6764 40.2894 24.6764 39.3636C24.6764 38.4378 25.445 37.6866 26.3942 37.6866C27.3433 37.6866 28.1119 38.4378 28.1119 39.3636C28.1119 40.2894 27.3433 41.0406 26.3942 41.0406ZM30.9709 43.2737C30.0218 43.2737 29.2532 42.5225 29.2532 41.5967C29.2532 40.6708 30.0218 39.9197 30.9709 39.9197C31.9201 39.9197 32.6887 40.6708 32.6887 41.5967C32.6887 42.5225 31.9201 43.2737 30.9709 43.2737ZM36.6861 22.0493C35.737 22.0493 34.9683 21.2982 34.9683 20.3723C34.9683 19.4465 35.737 18.6982 36.6861 18.6982C37.6352 18.6982 38.4038 19.4465 38.4038 20.3723C38.4038 21.2982 37.6352 22.0493 36.6861 22.0493ZM77.8654 55.557C76.9192 55.557 76.1477 54.8058 76.1477 53.88C76.1477 52.9542 76.9192 52.2059 77.8654 52.2059C78.8116 52.2059 79.5831 52.9542 79.5831 53.88C79.5831 54.8058 78.8145 55.557 77.8654 55.557ZM72.1473 37.6866C69.9347 37.6866 68.1441 35.9398 68.1441 33.7795C68.1441 31.6192 69.9347 29.8694 72.1473 29.8694C74.3571 29.8694 76.1506 31.6192 76.1506 33.7795C76.1506 35.9368 74.3571 37.6866 72.1473 37.6866ZM68.7119 46.6189C68.341 46.6235 67.9728 46.555 67.6284 46.4173C67.284 46.2797 66.9701 46.0755 66.7046 45.8165C66.4391 45.5575 66.2273 45.2487 66.0811 44.9078C65.935 44.567 65.8574 44.2006 65.8528 43.8297C65.8528 42.2867 67.1339 41.0406 68.7119 41.0406C69.0827 41.036 69.4509 41.1044 69.7953 41.2421C70.1397 41.3798 70.4536 41.584 70.7191 41.843C70.9846 42.102 71.1964 42.4107 71.3426 42.7516C71.4888 43.0925 71.5663 43.4589 71.5709 43.8297C71.5663 44.2006 71.4888 44.567 71.3426 44.9078C71.1964 45.2487 70.9846 45.5575 70.7191 45.8165C70.4536 46.0755 70.1397 46.2797 69.7953 46.4173C69.4509 46.555 69.0827 46.6235 68.7119 46.6189ZM29.8267 34.3356C29.4559 34.3402 29.0877 34.2717 28.7433 34.134C28.3989 33.9963 28.085 33.7922 27.8195 33.5332C27.554 33.2742 27.3422 32.9654 27.196 32.6245C27.0498 32.2836 26.9723 31.9173 26.9677 31.5464C26.9677 30.0033 28.2487 28.7543 29.8267 28.7543C31.4047 28.7543 32.6887 30.0063 32.6887 31.5464C32.6841 31.9175 32.6065 32.2841 32.4601 32.6252C32.3138 32.9663 32.1017 33.2752 31.8359 33.5342C31.5701 33.7932 31.2558 33.9973 30.9111 34.1349C30.5663 34.2724 30.1979 34.3406 29.8267 34.3356ZM42.4041 26.5184C42.0333 26.523 41.6651 26.4545 41.3207 26.3168C40.9763 26.1791 40.6624 25.975 40.3969 25.716C40.1314 25.457 39.9195 25.1482 39.7734 24.8073C39.6272 24.4664 39.5497 24.1001 39.5451 23.7292C39.5451 22.1861 40.8261 20.9371 42.4071 20.9371C43.988 20.9371 45.2661 22.189 45.2661 23.7292C45.2615 24.1001 45.1839 24.4664 45.0378 24.8073C44.8916 25.1482 44.6798 25.457 44.4143 25.716C44.1488 25.975 43.8349 26.1791 43.4905 26.3168C43.1461 26.4545 42.7779 26.523 42.4071 26.5184H42.4041ZM34.9742 27.6363C33.7106 27.6363 32.6887 26.6377 32.6887 25.4033C32.6887 24.1688 33.7106 23.1702 34.9742 23.1702C36.2377 23.1702 37.2596 24.1717 37.2596 25.4033C37.2596 26.6348 36.2377 27.6363 34.9742 27.6363ZM22.3909 36.5686C22.0942 36.5721 21.7998 36.5171 21.5243 36.4067C21.2489 36.2964 20.9979 36.1328 20.7857 35.9255C20.5734 35.7181 20.4041 35.471 20.2874 35.1982C20.1707 34.9254 20.1089 34.6322 20.1055 34.3356C20.1055 33.104 21.1274 32.1025 22.3909 32.1025C23.6545 32.1025 24.6764 33.104 24.6764 34.3356C24.673 34.6322 24.6112 34.9254 24.4945 35.1982C24.3777 35.471 24.2084 35.7181 23.9962 35.9255C23.784 36.1328 23.533 36.2964 23.2575 36.4067C22.9821 36.5171 22.6876 36.5721 22.3909 36.5686ZM70.4296 54.439C70.1329 54.4425 69.8384 54.3874 69.563 54.2771C69.2876 54.1667 69.0366 54.0032 68.8243 53.7958C68.6121 53.5885 68.4428 53.3413 68.3261 53.0685C68.2094 52.7957 68.1475 52.5026 68.1441 52.2059C68.1441 50.9715 69.166 49.9729 70.4296 49.9729C71.6932 49.9729 72.7151 50.9715 72.7151 52.2059C72.7117 52.5026 72.6498 52.7957 72.5331 53.0685C72.4164 53.3413 72.2471 53.5885 72.0349 53.7958C71.8226 54.0032 71.5716 54.1667 71.2962 54.2771C71.0208 54.3874 70.7263 54.4425 70.4296 54.439ZM45.8396 55.557C43.6269 55.557 41.8364 53.8072 41.8364 51.6469C41.8364 49.4866 43.6299 47.7398 45.8396 47.7398C48.0523 47.7398 49.8429 49.4866 49.8429 51.6469C49.8429 53.8072 48.0523 55.557 45.8396 55.557ZM38.4038 57.7901C38.1071 57.7935 37.8127 57.7385 37.5372 57.6282C37.2618 57.5178 37.0108 57.3543 36.7986 57.1469C36.5863 56.9395 36.417 56.6924 36.3003 56.4196C36.1836 56.1468 36.1218 55.8537 36.1184 55.557C36.1184 54.3225 37.1403 53.3239 38.4038 53.3239C39.6674 53.3239 40.6893 54.3225 40.6893 55.557C40.6859 55.8537 40.6241 56.1468 40.5073 56.4196C40.3906 56.6924 40.2213 56.9395 40.0091 57.1469C39.7969 57.3543 39.5459 57.5178 39.2704 57.6282C38.995 57.7385 38.7005 57.7935 38.4038 57.7901ZM39.5451 66.7223C37.6527 66.7223 36.1184 65.22 36.1184 63.3684C36.1184 61.5196 37.6527 60.0202 39.5451 60.0202C41.4375 60.0202 42.9748 61.5196 42.9748 63.3684C42.9748 65.22 41.4405 66.7223 39.5451 66.7223ZM39.5451 73.4186C38.9464 73.4256 38.3694 73.1947 37.9409 72.7765C37.5123 72.3583 37.2673 71.7872 37.2596 71.1885C37.2596 69.954 38.2845 68.9554 39.5451 68.9554C40.8058 68.9554 41.8335 69.954 41.8335 71.1885C41.8301 71.4854 41.7682 71.7788 41.6513 72.0518C41.5344 72.3248 41.3648 72.572 41.1523 72.7794C40.9397 72.9868 40.6884 73.1503 40.4126 73.2605C40.1368 73.3707 39.8421 73.4254 39.5451 73.4215V73.4186Z" fill="white"/>
</g>
<defs>
<clipPath id="clip0_342_5700">
<rect width="93.1659" height="93.1659" fill="white" transform="translate(0.973633 0.796875)"/>
</clipPath>
</defs>
</svg>
