<svg width="94" height="94" viewBox="0 0 94 94" fill="none" xmlns="http://www.w3.org/2000/svg">
<g clip-path="url(#clip0_342_5706)">
<path d="M47.0717 93.9627C72.7988 93.9627 93.6546 73.1069 93.6546 47.3798C93.6546 21.6528 72.7988 0.796875 47.0717 0.796875C21.3447 0.796875 0.48877 21.6528 0.48877 47.3798C0.48877 73.1069 21.3447 93.9627 47.0717 93.9627Z" fill="#57BEEA"/>
<path d="M20.9443 56.1398C19.8362 56.269 18.7134 56.1618 17.6497 55.8255C16.586 55.4892 15.6057 54.9313 14.7733 54.1886C13.9409 53.4459 13.2753 52.5352 12.8205 51.5166C12.3656 50.4979 12.1317 49.3945 12.1343 48.2789C12.1296 46.1968 12.9474 44.1972 14.4098 42.7151C15.8722 41.2331 17.8608 40.3887 19.9428 40.3656C22.7377 27.5262 34.1214 17.9156 47.7353 17.9156C50.277 17.9156 52.743 18.2504 55.0867 18.8764C55.8034 17.7932 56.7774 16.9045 57.9216 16.2898C59.0657 15.675 60.3444 15.3533 61.6432 15.3535C63.7368 15.3589 65.7426 16.1956 67.2194 17.6795C68.6963 19.1635 69.5233 21.1732 69.5186 23.2668C69.5186 24.6323 69.1751 25.9162 68.5695 27.0342C73.477 32.3272 76.1982 39.2821 76.1858 46.5C76.1925 50.2806 75.4486 54.0249 73.9972 57.5158C72.5459 61.0068 70.416 64.1748 67.731 66.8364C68.6802 68.1407 69.2392 69.7507 69.2392 71.4918C69.2414 72.5287 69.0395 73.5559 68.6448 74.5147C68.2501 75.4735 67.6704 76.3453 66.9389 77.0801C66.2073 77.8149 65.3382 78.3984 64.3811 78.7973C63.424 79.1963 62.3977 79.4028 61.3608 79.4051C59.7753 79.4032 58.2273 78.9231 56.9189 78.0277C55.6105 77.1322 54.6026 75.863 54.0269 74.3857C51.9632 74.852 49.8539 75.0864 47.7382 75.0845C35.3908 75.0845 24.8806 67.1829 20.9443 56.1398ZM22.3709 55.8341C26.1558 66.2221 36.0838 73.6375 47.7353 73.6375C49.7588 73.6375 51.7298 73.4133 53.6251 72.9912C53.4014 71.8485 53.4333 70.6704 53.7183 69.5415C54.0033 68.4125 54.5345 67.3606 55.2738 66.461C56.0131 65.5615 56.9422 64.8365 57.9945 64.3382C59.0469 63.8399 60.1964 63.5804 61.3608 63.5785C63.457 63.5785 65.3669 64.4024 66.7761 65.7446C69.3072 63.2204 71.3143 60.2207 72.6818 56.9179C74.0494 53.6152 74.7504 50.0747 74.7447 46.5C74.7447 39.4835 72.0953 33.09 67.7427 28.2745C66.2986 30.0504 64.1034 31.183 61.6432 31.183C60.6061 31.1807 59.5796 30.9741 58.6223 30.575C57.665 30.1759 56.7957 29.5921 56.0641 28.857C55.3325 28.1219 54.7529 27.2498 54.3584 26.2906C53.9639 25.3314 53.7622 24.3039 53.7649 23.2668C53.7649 22.1779 53.9862 21.1385 54.3821 20.1923C52.2095 19.6413 49.9767 19.3635 47.7353 19.3655C34.8784 19.3655 24.1178 28.3938 21.3956 40.4879C23.2196 40.8191 24.8692 41.7808 26.056 43.205C27.2428 44.6291 27.8913 46.4251 27.8881 48.2789C27.8907 49.9615 27.357 51.6012 26.3643 52.9598C25.3717 54.3184 23.9718 55.3252 22.368 55.8341H22.3709ZM47.7353 54.425C46.6973 54.4223 45.6699 54.2152 44.7119 53.8155C43.7539 53.4158 42.884 52.8313 42.1519 52.0954C41.4198 51.3595 40.8398 50.4866 40.445 49.5265C40.0503 48.5665 39.8485 47.5381 39.8511 46.5C39.8511 42.1241 43.3798 38.578 47.7353 38.578C52.0908 38.578 55.6224 42.1241 55.6224 46.5C55.6251 47.5383 55.4232 48.567 55.0282 49.5272C54.6333 50.4874 54.053 51.3605 53.3206 52.0964C52.5882 52.8323 51.7179 53.4168 50.7596 53.8163C49.8013 54.2158 48.7736 54.4227 47.7353 54.425Z" fill="white"/>
</g>
<defs>
<clipPath id="clip0_342_5706">
<rect width="93.1659" height="93.1659" fill="white" transform="translate(0.487793 0.796875)"/>
</clipPath>
</defs>
</svg>
