<svg width="94" height="94" viewBox="0 0 94 94" fill="none" xmlns="http://www.w3.org/2000/svg">
<g clip-path="url(#clip0_342_5710)">
<path d="M46.5834 93.9627C72.3105 93.9627 93.1664 73.1069 93.1664 47.3798C93.1664 21.6528 72.3105 0.796875 46.5834 0.796875C20.8564 0.796875 0.000488281 21.6528 0.000488281 47.3798C0.000488281 73.1069 20.8564 93.9627 46.5834 93.9627Z" fill="#0CAFA5"/>
<path d="M24.495 35.4978C24.3989 35.4396 24.3203 35.4862 24.3203 35.5997V42.3018C24.3234 42.3629 24.3409 42.4224 24.3712 42.4755C24.4016 42.5286 24.444 42.5738 24.495 42.6075L32.9673 47.5045C33.0183 47.5382 33.0607 47.5835 33.0911 47.6366C33.1214 47.6897 33.1388 47.7492 33.142 47.8103V72.0625C33.146 72.124 33.1644 72.1838 33.1957 72.2369C33.2271 72.29 33.2705 72.335 33.3225 72.3682L39.125 75.7163C39.221 75.7746 39.2996 75.728 39.2996 75.6144V44.2583C39.297 44.1967 39.2797 44.1366 39.2494 44.083C39.219 44.0294 39.1764 43.9837 39.125 43.9497L24.495 35.4978ZM68.6731 35.4978C68.7692 35.4396 68.8478 35.4862 68.8478 35.5997V42.3018C68.8447 42.3629 68.8272 42.4224 68.7969 42.4755C68.7665 42.5286 68.7241 42.5738 68.6731 42.6075L60.2008 47.4987C60.1494 47.5327 60.1067 47.5784 60.0764 47.632C60.046 47.6857 60.0288 47.7458 60.0261 47.8073V72.0596C60.0229 72.1214 60.0051 72.1815 59.9743 72.2352C59.9434 72.2888 59.9003 72.3344 59.8485 72.3682L54.046 75.7163C53.9471 75.7746 53.8685 75.728 53.8685 75.6144V44.2583C53.8713 44.1968 53.8887 44.1368 53.919 44.0832C53.9494 44.0296 53.9919 43.9838 54.0431 43.9497L68.6731 35.4978Z" fill="white"/>
<path d="M69.817 22.6412C69.817 22.5305 69.7384 22.4839 69.6424 22.5393L46.7585 35.7746C46.7043 35.8018 46.6445 35.8159 46.5838 35.8159C46.5232 35.8159 46.4633 35.8018 46.4091 35.7746L23.5253 22.5393C23.4263 22.481 23.3477 22.5305 23.3477 22.6412V29.3433C23.3508 29.4044 23.3682 29.4639 23.3986 29.517C23.4289 29.5701 23.4713 29.6153 23.5223 29.649L43.3317 41.1026C43.3826 41.1364 43.4249 41.1817 43.4552 41.2348C43.4855 41.2878 43.5031 41.3472 43.5064 41.4083V82.9981C43.5094 83.0599 43.5271 83.1202 43.558 83.1738C43.5888 83.2275 43.632 83.2731 43.684 83.3067L46.4062 84.8789C46.4615 84.9061 46.5222 84.9203 46.5838 84.9203C46.6454 84.9203 46.7062 84.9061 46.7614 84.8789L49.4836 83.3067C49.535 83.2727 49.5777 83.227 49.608 83.1734C49.6384 83.1198 49.6556 83.0597 49.6583 82.9981V41.4112C49.6619 41.3499 49.6799 41.2903 49.7108 41.2372C49.7416 41.1841 49.7845 41.139 49.8359 41.1055L69.6424 29.649C69.6938 29.615 69.7364 29.5693 69.7668 29.5157C69.7972 29.462 69.8144 29.402 69.817 29.3404V22.6441V22.6412ZM46.6886 39.5741C46.6653 39.5741 46.6566 39.5566 46.6682 39.5362C46.6799 39.5158 46.6973 39.5158 46.709 39.5362C46.7206 39.5566 46.709 39.5741 46.6886 39.5741Z" fill="white"/>
<path d="M43.7077 21.7649C43.6517 21.7773 43.6014 21.8081 43.565 21.8524C43.5286 21.8968 43.5081 21.9521 43.5068 22.0095V30.374C43.5105 30.4353 43.5285 30.4949 43.5593 30.5479C43.5902 30.601 43.633 30.6462 43.6844 30.6797L46.4066 32.2519C46.5173 32.3101 46.6483 32.3101 46.7618 32.2519L49.484 30.6797C49.5349 30.6458 49.5772 30.6006 49.6075 30.5475C49.6378 30.4944 49.6553 30.435 49.6587 30.374V22.0065C49.6581 21.9494 49.6382 21.8942 49.6023 21.8498C49.5663 21.8054 49.5165 21.7745 49.4607 21.762L46.7822 21.2699C46.65 21.2499 46.5155 21.2499 46.3833 21.2699L43.7077 21.7649Z" fill="white"/>
</g>
<defs>
<clipPath id="clip0_342_5710">
<rect width="93.1659" height="93.1659" fill="white" transform="translate(0.00146484 0.796875)"/>
</clipPath>
</defs>
</svg>
