<svg width="94" height="94" viewBox="0 0 94 94" fill="none" xmlns="http://www.w3.org/2000/svg">
<g clip-path="url(#clip0_342_5717)">
<path d="M47.0986 93.9627C72.8256 93.9627 93.6815 73.1069 93.6815 47.3798C93.6815 21.6528 72.8256 0.796875 47.0986 0.796875C21.3715 0.796875 0.515625 21.6528 0.515625 47.3798C0.515625 73.1069 21.3715 93.9627 47.0986 93.9627Z" fill="#1C1C1C"/>
<path d="M71.8459 32.8218V61.9361L47.0987 76.4933L22.3516 61.9361V32.8218L47.0987 18.2646L71.8459 32.8218ZM46.3185 48.5639L44.0185 49.9236L48.3157 52.4332L50.6012 51.0852L56.7123 54.6809L47.5966 60.0379L28.6868 49.0152L28.6082 54.381L47.6082 65.4153L65.8629 54.6809L55.1663 48.3863L57.3208 47.114L53.0235 44.6044L50.8836 45.8679L47.8848 44.1036L50.508 42.5518L46.2108 40.0393L43.5992 41.5823L38.4925 38.5777L47.6053 33.2178L60.206 40.5808L64.8236 37.8499L47.5966 27.8404L29.3419 38.5777L39.0341 44.2812L37.2057 45.3584L41.503 47.871L43.3168 46.7996L46.3185 48.5639Z" fill="white"/>
</g>
<defs>
<clipPath id="clip0_342_5717">
<rect width="93.1659" height="93.1659" fill="white" transform="translate(0.515625 0.796875)"/>
</clipPath>
</defs>
</svg>
