<svg width="94" height="94" viewBox="0 0 94 94" fill="none" xmlns="http://www.w3.org/2000/svg">
<g clip-path="url(#clip0_342_5721)">
<path d="M46.6137 93.9627C72.3407 93.9627 93.1966 73.1069 93.1966 47.3798C93.1966 21.6528 72.3407 0.796875 46.6137 0.796875C20.8867 0.796875 0.0307617 21.6528 0.0307617 47.3798C0.0307617 73.1069 20.8867 93.9627 46.6137 93.9627Z" fill="#00D4D5"/>
<path d="M48.1245 15.3535V31.2412L61.9189 23.3076L48.1245 15.3535Z" fill="white"/>
<path opacity="0.9" d="M61.9194 23.3076V39.1953L75.7109 31.2413L61.9194 23.3076Z" fill="white"/>
<path opacity="0.8" d="M48.1245 31.2412V47.1289L61.9189 39.1952L48.1245 31.2412ZM61.9189 39.1982V55.0829L75.7103 47.1289L61.9189 39.1982Z" fill="white"/>
<path opacity="0.8" d="M48.1245 47.1289V63.0166L61.9189 55.0829L48.1245 47.1289Z" fill="white"/>
<path d="M61.9194 55.083V70.9707L75.7109 63.0167L61.9194 55.083Z" fill="white"/>
<path opacity="0.4" d="M12.4712 30.7061V46.5937L26.2656 38.6397L12.4712 30.7061Z" fill="white"/>
<path opacity="0.2" d="M29.8726 36.6123V52.5L43.6436 44.5663L29.8726 36.6123Z" fill="white"/>
<path opacity="0.3" d="M19.6479 46.6602V62.5478L33.4394 54.5938L19.6479 46.6602Z" fill="white"/>
<path opacity="0.9" d="M28.7373 58.6494V74.5371L42.5084 66.5831L28.7373 58.6494Z" fill="white"/>
<path opacity="0.7" d="M48.0112 65.4893V81.3799L61.7823 73.4229L48.0112 65.4893Z" fill="white"/>
<path opacity="0.9" d="M32.1699 28.7666V44.6572L45.941 36.7235L32.1699 28.7666Z" fill="white"/>
<path opacity="0.8" d="M48.1244 15.3535V31.2412L34.3301 23.3076L48.1244 15.3535Z" fill="white"/>
<path opacity="0.6" d="M32.1698 22.1074V37.9922L18.3726 30.0382L32.1698 22.1074Z" fill="white"/>
<path opacity="0.6" d="M45.9643 29.9688V45.8594L32.1699 37.9024L45.9643 29.9688Z" fill="white"/>
<path opacity="0.95" d="M29.809 36.6123V52.5L16.0146 44.5663L29.809 36.6123Z" fill="white"/>
<path opacity="0.6" d="M48.1241 47.1289V63.0166L34.353 55.0829L48.1241 47.1289Z" fill="white"/>
<path opacity="0.55" d="M19.6479 50.8301V66.7178L5.85352 58.7608L19.6479 50.8301Z" fill="white"/>
<path d="M75.7109 31.2412V47.1289L61.9194 39.1952L75.7109 31.2412Z" fill="white"/>
<path opacity="0.95" d="M61.9189 39.1982V55.083L48.1245 47.129L61.9189 39.1982Z" fill="white"/>
<path opacity="0.9" d="M75.7109 47.1289V63.0166L61.9194 55.0829L75.7109 47.1289Z" fill="white"/>
<path opacity="0.7" d="M61.9189 55.083V70.9707L48.1245 63.0167L61.9189 55.083Z" fill="white"/>
<path opacity="0.4" d="M45.0703 61.7031V77.5908L31.2788 69.6572L45.0703 61.7031Z" fill="white"/>
<path d="M61.9189 23.3076V39.1953L48.1245 31.2413L61.9189 23.3076Z" fill="white"/>
</g>
<defs>
<clipPath id="clip0_342_5721">
<rect width="93.1659" height="93.1659" fill="white" transform="translate(0.0297852 0.796875)"/>
</clipPath>
</defs>
</svg>
