<svg width="94" height="94" viewBox="0 0 94 94" fill="none" xmlns="http://www.w3.org/2000/svg">
<g clip-path="url(#clip0_342_5748)">
<path d="M47.1254 93.9627C72.8525 93.9627 93.7084 73.1069 93.7084 47.3798C93.7084 21.6528 72.8525 0.796875 47.1254 0.796875C21.3984 0.796875 0.54248 21.6528 0.54248 47.3798C0.54248 73.1069 21.3984 93.9627 47.1254 93.9627Z" fill="#55DDFF"/>
<path d="M34.9853 30.2604C35.0041 24.7401 37.0802 19.4252 40.8081 15.3538C41.8271 14.3348 41.9436 14.131 41.9436 13.3158C41.9436 12.5006 41.9436 12.4424 41.3322 12.4424C40.5764 12.5261 39.8273 12.6623 39.0904 12.85C30.4006 14.9028 22.8145 20.1787 17.866 27.611C15.4769 31.1353 13.7959 35.0906 12.9166 39.2567C12.1876 43.0938 12.0112 47.0154 12.3925 50.9024C13.4622 59.5276 17.7966 67.4149 24.5041 72.942C28.0852 75.8534 32.103 78.1825 32.103 77.1344C31.868 76.6829 31.5522 76.2783 31.1713 75.9407C29.3697 73.9551 28.0223 71.6007 27.2229 69.0415C26.4235 66.4823 26.1911 63.7796 26.5421 61.1215C26.8011 57.8189 27.8317 54.6231 29.5509 51.7913C31.2702 48.9595 33.6302 46.5709 36.441 44.8175C37.1511 44.3117 37.9008 43.8638 38.6828 43.4783C39.1195 43.4783 38.8575 42.6048 37.7803 40.5668C35.9372 37.4458 34.9715 33.8849 34.9853 30.2604ZM80.1416 39.344C79.112 34.329 76.9927 29.6015 73.9338 25.4961C70.8749 21.3908 66.9511 18.0078 62.4401 15.5867C60.8097 14.6842 59.9945 14.4804 59.9945 15.0336C60.1484 15.4991 60.3852 15.9331 60.6932 16.3146C62.4978 18.8782 63.5101 21.9152 63.6047 25.0489C63.7881 26.6827 63.6235 28.3369 63.1216 29.9025C62.6198 31.4681 61.7922 32.9098 60.6932 34.1326C60.1289 34.7309 59.3526 35.0842 58.5307 35.1169C57.7089 35.1495 56.907 34.8589 56.297 34.3072C55.1324 33.4629 55.1324 32.8806 55.8603 31.8034C57.4026 29.5351 58.1687 26.8283 58.0438 24.0881C58.1569 22.9865 58.0222 21.8735 57.6494 20.8307C57.2766 19.7879 56.6752 18.8417 55.8894 18.0614C55.1744 17.3201 54.2694 16.7895 53.2733 16.5276C52.2772 16.2657 51.2283 16.2827 50.2412 16.5766C48.8296 17.1454 47.5805 18.0544 46.6052 19.2227C45.6299 20.391 44.9586 21.7824 44.6512 23.2729C43.9836 25.4274 43.5923 27.6579 43.4867 29.911C43.5082 33.361 44.3568 36.7556 45.9614 39.8099C47.0808 41.5654 48.4656 43.1368 50.0665 44.4682C50.3868 44.6778 50.6692 44.934 50.9108 45.2251C50.6294 45.4565 50.3018 45.6253 49.95 45.7201C47.6999 46.7848 45.6856 48.289 44.0256 50.144C42.3655 51.999 41.0934 54.1674 40.2841 56.5215C39.2184 59.254 38.7422 62.1808 38.8866 65.1102C38.8277 66.491 39.0561 67.8689 39.5572 69.1569C40.0584 70.4448 40.8214 71.6148 41.798 72.5926C42.9033 73.5493 44.2111 74.2428 45.6231 74.6211C47.0352 74.9993 48.5146 75.0523 49.95 74.7762C53.796 74.4885 57.3925 72.763 60.0236 69.9432C61.2173 68.6622 61.4502 68.5166 61.6831 68.8077C61.916 69.0989 61.8578 69.2736 61.4211 70.0014C58.6565 74.7234 54.2198 78.2353 48.9893 79.8421C47.9703 80.1041 47.5336 80.3079 47.5336 80.5408C47.5336 81.2978 53.9096 80.2497 57.7818 78.8813C62.7208 77.0767 67.1931 74.1894 70.8708 70.4311C74.5485 66.6728 77.3382 62.1389 79.0353 57.162C80.2907 53.6959 80.8353 50.0125 80.6366 46.3315C80.7693 43.9908 80.603 41.6427 80.1416 39.344Z" fill="white"/>
</g>
<defs>
<clipPath id="clip0_342_5748">
<rect width="93.1659" height="93.1659" fill="white" transform="translate(0.543457 0.796875)"/>
</clipPath>
</defs>
</svg>
