<svg width="94" height="94" viewBox="0 0 94 94" fill="none" xmlns="http://www.w3.org/2000/svg">
<g clip-path="url(#clip0_342_5752)">
<path d="M46.6406 93.9627C72.3676 93.9627 93.2235 73.1069 93.2235 47.3798C93.2235 21.6528 72.3676 0.796875 46.6406 0.796875C20.9135 0.796875 0.0576172 21.6528 0.0576172 47.3798C0.0576172 73.1069 20.9135 93.9627 46.6406 93.9627Z" fill="#102044"/>
<path d="M70.654 57.1323C71.9641 57.636 72.8317 58.8821 72.8434 60.2767C72.844 60.8609 72.6916 61.4352 72.4015 61.9424C72.1114 62.4496 71.6936 62.872 71.1897 63.1677C70.6838 63.4649 70.1098 63.6264 69.5233 63.6366C68.9367 63.6468 68.3574 63.5054 67.8415 63.2259L50.2856 72.8046C50.329 73.2676 50.2762 73.7345 50.1306 74.1762C49.9849 74.6178 49.7496 75.0246 49.4393 75.3709C49.129 75.7173 48.7505 75.9958 48.3275 76.189C47.9045 76.3821 47.4461 76.4857 46.9811 76.4933C46.0858 76.5152 45.2185 76.1806 44.5699 75.5631C43.9212 74.9456 43.5444 74.0958 43.5223 73.2005L34.9627 68.3006H34.7676V68.1987L25.748 63.0425C25.1848 63.4309 24.5165 63.6381 23.8323 63.6364C23.0178 63.6407 22.2292 63.3505 21.6118 62.8192C20.9944 62.2879 20.5898 61.5514 20.4725 60.7454C20.36 59.9399 20.5435 59.1209 20.9889 58.4404C21.4344 57.7599 22.1116 57.2641 22.8948 57.045V37.7829C22.2358 37.598 21.6488 37.2167 21.2119 36.6898C20.775 36.163 20.509 35.5155 20.4492 34.8336C20.3328 33.442 21.0926 32.1231 22.3649 31.5204C22.9856 31.2257 23.6808 31.1255 24.3594 31.2331C25.038 31.3407 25.6682 31.6509 26.1673 32.1231L43.5485 22.166C43.4727 21.6831 43.5026 21.1895 43.6361 20.7192C43.7696 20.249 44.0037 19.8134 44.322 19.4424C44.6404 19.0715 45.0354 18.7741 45.48 18.5707C45.9245 18.3674 46.4079 18.263 46.8967 18.2647C47.3997 18.2639 47.8965 18.3754 48.3509 18.5912C48.8053 18.807 49.2058 19.1215 49.523 19.5119C49.8403 19.9023 50.0663 20.3586 50.1847 20.8475C50.303 21.3364 50.3106 21.8455 50.207 22.3378L67.1748 32.0561C67.7949 31.4971 68.6014 31.1885 69.4428 31.1914C69.9017 31.02 70.3925 30.951 70.8809 30.9894C71.3692 31.0278 71.8433 31.1726 72.2697 31.4137C72.6962 31.6548 73.0647 31.9862 73.3494 32.3849C73.6341 32.7835 73.8282 33.2396 73.9179 33.7212C74.0076 34.2028 73.9908 34.6981 73.8687 35.1725C73.7467 35.647 73.5222 36.0889 73.2112 36.4674C72.9002 36.8458 72.5101 37.1516 72.0683 37.3633C71.6266 37.575 71.1438 37.6874 70.654 37.6927V57.1352V57.1323ZM58.6647 49.548V66.0937L66.444 61.8517C66.2016 61.3878 66.0703 60.8738 66.0606 60.3504C66.0508 59.827 66.1629 59.3084 66.3879 58.8358C66.613 58.3631 66.9448 57.9492 67.3573 57.6268C67.7697 57.3044 68.2514 57.0823 68.7645 56.978V37.8499C67.9997 37.6987 67.3108 37.2876 66.8147 36.6864C66.3185 36.0851 66.0456 35.3308 66.0423 34.5512C66.0423 34.2426 66.0859 33.934 66.1704 33.6341L58.7957 29.4067V44.7907H58.7841L58.7549 45.7981L58.3386 45.9932L55.6805 47.5828L58.2222 49.0967L58.6268 49.2889L58.6385 49.4694L58.653 49.548H58.6647ZM46.9025 24.9872C45.9359 24.9872 45.0159 24.5796 44.3725 23.8604L36.6572 28.2829V44.6219L39.8248 46.5085L43.8251 44.156C43.7426 43.7233 43.7569 43.2777 43.867 42.8511C43.9771 42.4246 44.1803 42.0277 44.462 41.689C44.7436 41.3503 45.0968 41.0781 45.4961 40.892C45.8954 40.706 46.331 40.6106 46.7715 40.6128C47.2014 40.6119 47.6264 40.7038 48.0174 40.8823C48.4085 41.0608 48.7564 41.3216 49.0373 41.647C49.3182 41.9725 49.5254 42.3547 49.6449 42.7676C49.7644 43.1806 49.7932 43.6145 49.7295 44.0396L53.8608 46.4968L56.9236 44.6626V28.3324L49.3132 23.974C48.9989 24.2945 48.6238 24.549 48.2098 24.7225C47.7958 24.896 47.3514 24.985 46.9025 24.9843V24.9872ZM48.8823 49.5073L52.0354 47.609L48.8677 45.7195C48.3174 46.2541 47.5839 46.5587 46.8168 46.5712C46.0496 46.5836 45.3066 46.303 44.7393 45.7864L41.6241 47.5944L44.7247 49.4432C45.2933 48.9178 46.0423 48.6313 46.8163 48.6433C47.5904 48.6552 48.3302 48.9646 48.8823 49.5073ZM26.965 61.581L34.7676 66.0529V50.0633L34.7822 49.548L34.9132 49.417L35.5654 49.0298L37.9877 47.609L35.7983 46.3163L34.7822 45.7981V45.178H34.7706V29.3543L27.1193 33.7389C27.5706 35.4858 26.537 37.2734 24.7902 37.7713V57.0566C25.7131 57.3245 26.4788 57.9737 26.8951 58.8355C27.3115 59.7002 27.3377 60.6988 26.965 61.581ZM46.9025 69.7126C47.9652 69.7126 48.9638 70.2076 49.5985 71.0577L56.7897 67.1273V50.4273L53.8608 48.6804L49.7266 51.1639C49.7557 51.3094 49.7673 51.455 49.7673 51.6006C49.7673 53.2455 48.4281 54.5761 46.7686 54.5761C46.3327 54.5763 45.902 54.4811 45.5068 54.297C45.1117 54.1129 44.7617 53.8445 44.4814 53.5107C44.2011 53.1768 43.9973 52.7856 43.8845 52.3646C43.7716 51.9436 43.7523 51.5029 43.828 51.0736L39.7724 48.6688L36.6455 50.4913V67.1273L43.9969 71.3401C44.6083 70.3269 45.7117 69.7097 46.9025 69.7126Z" fill="white"/>
</g>
<defs>
<clipPath id="clip0_342_5752">
<rect width="93.1659" height="93.1659" fill="white" transform="translate(0.0576172 0.796875)"/>
</clipPath>
</defs>
</svg>
