<svg width="94" height="94" viewBox="0 0 94 94" fill="none" xmlns="http://www.w3.org/2000/svg">
<g clip-path="url(#clip0_342_5756)">
<path d="M47.1557 93.9627C72.8827 93.9627 93.7386 73.1069 93.7386 47.3798C93.7386 21.6528 72.8827 0.796875 47.1557 0.796875C21.4286 0.796875 0.572754 21.6528 0.572754 47.3798C0.572754 73.1069 21.4286 93.9627 47.1557 93.9627Z" fill="#0050DB"/>
<path d="M47.1556 76.4933C45.2667 76.4923 43.4127 75.9846 41.7869 75.023L26.3388 65.9394C24.6938 64.9609 23.3321 63.5708 22.3876 61.906C21.4432 60.2413 20.9486 58.3592 20.9527 56.4452V38.307C20.9531 36.3946 21.4496 34.5151 22.3936 32.852C23.3377 31.1889 24.697 29.7992 26.3388 28.8186L41.7869 19.7349C43.4216 18.7744 45.2828 18.2668 47.1789 18.2646C49.0567 18.2646 50.9055 18.7712 52.5242 19.7349L67.9723 28.8215C69.6164 29.7995 70.9777 31.1887 71.9221 32.8523C72.8665 34.516 73.3615 36.3968 73.3585 38.3099V56.4481C73.3586 58.3609 72.8623 60.2411 71.9182 61.9047C70.9741 63.5683 69.6145 64.9585 67.9723 65.9394L52.5242 75.023C50.8938 75.9838 49.0422 76.4933 47.1556 76.4933ZM38.2699 57.7757L35.4079 60.6871C36.1457 61.4516 37.0312 62.0581 38.0107 62.4695C38.9902 62.8809 40.0432 63.0887 41.1056 63.0803C45.5601 63.0745 49.1761 59.4003 49.1819 54.8614V52.3808C50.4047 53.1 51.7935 53.4784 53.2055 53.4755C54.2703 53.4955 55.3279 53.2959 56.3122 52.8892C57.2965 52.4825 58.1864 51.8773 58.9265 51.1114L56.0675 48.2C55.3105 48.9744 54.2798 49.4112 53.2055 49.4112C52.1293 49.3996 51.1016 48.962 50.3474 48.1942C49.5933 47.4264 49.1742 46.391 49.1819 45.3148V31.6427H45.1583V54.8876C45.1583 57.1556 43.3532 58.9927 41.126 58.9927C40.5927 58.9911 40.0652 58.8825 39.5747 58.6735C39.0841 58.4645 38.6404 58.1592 38.2699 57.7757Z" fill="white"/>
</g>
<defs>
<clipPath id="clip0_342_5756">
<rect width="93.1659" height="93.1659" fill="white" transform="translate(0.571777 0.796875)"/>
</clipPath>
</defs>
</svg>
