<svg width="94" height="94" viewBox="0 0 94 94" fill="none" xmlns="http://www.w3.org/2000/svg">
<g clip-path="url(#clip0_342_5760)">
<path d="M46.6674 93.9627C72.3945 93.9627 93.2503 73.1069 93.2503 47.3798C93.2503 21.6528 72.3945 0.796875 46.6674 0.796875C20.9404 0.796875 0.0844727 21.6528 0.0844727 47.3798C0.0844727 73.1069 20.9404 93.9627 46.6674 93.9627Z" fill="#EAC749"/>
<path fill-rule="evenodd" clip-rule="evenodd" d="M51.1745 55.2719V60.7396H65.9151V67.401H51.1745V75.0376H42.1607V67.401H27.4201V60.7396H42.1607V55.2719H27.4201V48.6106H39.5637L21.9204 22.6318H32.8441L46.819 44.5666L60.7968 22.6318H71.4148L53.6958 48.6106H65.9151V55.2719H51.1745Z" fill="white"/>
</g>
<defs>
<clipPath id="clip0_342_5760">
<rect width="93.1659" height="93.1659" fill="white" transform="translate(0.0854492 0.796875)"/>
</clipPath>
</defs>
</svg>
