<svg width="94" height="94" viewBox="0 0 94 94" fill="none" xmlns="http://www.w3.org/2000/svg">
<g clip-path="url(#clip0_342_5764)">
<path d="M47.1825 93.9627C72.9096 93.9627 93.7655 73.1069 93.7655 47.3798C93.7655 21.6528 72.9096 0.796875 47.1825 0.796875C21.4555 0.796875 0.599609 21.6528 0.599609 47.3798C0.599609 73.1069 21.4555 93.9627 47.1825 93.9627Z" fill="#0093DD"/>
<path fill-rule="evenodd" clip-rule="evenodd" d="M40.0203 47.38L55.0841 62.8979L64.5899 53.1068C64.9828 52.6967 65.4547 52.3704 65.9771 52.1475C66.4994 51.9246 67.0615 51.8097 67.6294 51.8097C68.1974 51.8097 68.7594 51.9246 69.2818 52.1475C69.8042 52.3704 70.276 52.6967 70.669 53.1068C71.4775 53.9493 71.929 55.0718 71.929 56.2395C71.929 57.4072 71.4775 58.5297 70.669 59.3722L58.1236 72.299C57.7285 72.7053 57.256 73.0284 56.7339 73.249C56.2118 73.4696 55.6508 73.5832 55.0841 73.5832C54.5173 73.5832 53.9563 73.4696 53.4342 73.249C52.9121 73.0284 52.4396 72.7053 52.0445 72.299L33.9471 53.6483V64.7351C33.9471 67.169 32.008 69.1663 29.6469 69.1663C27.2711 69.1663 25.3467 67.1807 25.3467 64.7351V30.0279C25.3467 27.5823 27.2711 25.5967 29.6469 25.5967C32.0197 25.5967 33.9471 27.5823 33.9471 30.0279V41.1146L52.0445 22.464C52.4396 22.0576 52.9121 21.7345 53.4342 21.5139C53.9563 21.2933 54.5173 21.1797 55.0841 21.1797C55.6508 21.1797 56.2118 21.2933 56.7339 21.5139C57.256 21.7345 57.7285 22.0576 58.1236 22.464L70.6719 35.3907C71.4804 36.2332 71.9319 37.3557 71.9319 38.5234C71.9319 39.6911 71.4804 40.8136 70.6719 41.6561C70.2788 42.0671 69.8066 42.3941 69.2837 42.6176C68.7608 42.841 68.1981 42.9562 67.6294 42.9562C67.0608 42.9562 66.498 42.841 65.9751 42.6176C65.4522 42.3941 64.98 42.0671 64.587 41.6561L55.0841 31.8621L40.0203 47.38ZM55.0899 42.9459C57.4656 42.9459 59.393 44.9315 59.393 47.38C59.393 49.8285 57.4656 51.8141 55.0899 51.8141C52.7142 51.8141 50.7868 49.8285 50.7868 47.38C50.7868 44.9315 52.7142 42.9459 55.0899 42.9459Z" fill="white"/>
</g>
<defs>
<clipPath id="clip0_342_5764">
<rect width="93.1659" height="93.1659" fill="white" transform="translate(0.599609 0.796875)"/>
</clipPath>
</defs>
</svg>
