<svg width="94" height="94" viewBox="0 0 94 94" fill="none" xmlns="http://www.w3.org/2000/svg">
<g clip-path="url(#clip0_342_5768)">
<path d="M46.6962 93.9627C72.4233 93.9627 93.2792 73.1069 93.2792 47.3798C93.2792 21.6528 72.4233 0.796875 46.6962 0.796875C20.9692 0.796875 0.113281 21.6528 0.113281 47.3798C0.113281 73.1069 20.9692 93.9627 46.6962 93.9627Z" fill="#EC008C"/>
<path d="M46.6962 90.7019C70.6223 90.7019 90.0183 71.3059 90.0183 47.3797C90.0183 23.4536 70.6223 4.05762 46.6962 4.05762C22.77 4.05762 3.37402 23.4536 3.37402 47.3797C3.37402 71.3059 22.77 90.7019 46.6962 90.7019Z" fill="#EC008C"/>
<path d="M54.5731 19.0059L35.0083 39.587V56.6957L71.2159 19.0059H54.5731Z" fill="url(#paint0_linear_342_5768)"/>
<path d="M39.9634 51.5295L56.1404 75.7526H72.4444L49.3647 41.7471L39.9634 51.5295Z" fill="url(#paint1_linear_342_5768)"/>
<path d="M35.0093 19.0059H20.9497V75.71H35.0093V19.0059Z" fill="white"/>
</g>
<defs>
<linearGradient id="paint0_linear_342_5768" x1="45.6153" y1="37.8508" x2="24.738" y2="56.6957" gradientUnits="userSpaceOnUse">
<stop stop-color="white"/>
<stop offset="1" stop-color="white" stop-opacity="0"/>
</linearGradient>
<linearGradient id="paint1_linear_342_5768" x1="56.2039" y1="65.1246" x2="42.1361" y2="41.7471" gradientUnits="userSpaceOnUse">
<stop stop-color="white"/>
<stop offset="1" stop-color="white" stop-opacity="0"/>
</linearGradient>
<clipPath id="clip0_342_5768">
<rect width="93.1659" height="93.1659" fill="white" transform="translate(0.113281 0.796875)"/>
</clipPath>
</defs>
</svg>
