<svg width="94" height="94" viewBox="0 0 94 94" fill="none" xmlns="http://www.w3.org/2000/svg">
<g clip-path="url(#clip0_342_5781)">
<path d="M47.2094 93.9627C72.9364 93.9627 93.7923 73.1069 93.7923 47.3798C93.7923 21.6528 72.9364 0.796875 47.2094 0.796875C21.4824 0.796875 0.626465 21.6528 0.626465 47.3798C0.626465 73.1069 21.4824 93.9627 47.2094 93.9627Z" fill="#005FFF"/>
<path fill-rule="evenodd" clip-rule="evenodd" d="M40.516 53.2225V39.1982H43.7913C44.4988 39.1982 45.0724 39.763 45.0724 40.4588V41.67C45.0724 42.9859 46.2137 44.1156 47.5442 44.1156C48.8747 44.1156 49.885 42.9859 49.885 41.67V40.5054C49.885 39.7834 50.476 39.1952 51.2097 39.1952H54.8577V42.7414C54.8577 43.4634 54.2638 44.0515 53.533 44.0515H52.2956C51.6609 44.0484 51.0508 44.297 50.5989 44.7428C50.1471 45.1887 49.8904 45.7954 49.885 46.4302C49.885 47.7432 51.1194 48.8088 52.4499 48.8088H53.5417C54.2696 48.8088 54.8577 49.3911 54.8577 50.1073V53.2225H57.7953C58.8143 53.2225 59.6383 54.0319 59.6383 55.0276V56.0961C59.6383 57.0918 58.8114 57.9012 57.7953 57.9012H56.7006C56.461 57.9039 56.2233 57.8593 56.0009 57.77C55.7786 57.6807 55.576 57.5485 55.4049 57.3808C55.2337 57.2131 55.0973 57.0134 55.0034 56.7929C54.9095 56.5725 54.86 56.3357 54.8577 56.0961V53.6913H51.198C50.4702 53.6913 49.885 53.109 49.885 52.3928V51.1933C49.8729 50.549 49.61 49.9349 49.1522 49.4815C48.6944 49.0281 48.0778 48.7711 47.4335 48.7651C46.103 48.7651 45.0695 49.9297 45.0695 51.3126V52.4015C45.0695 53.1148 44.4872 53.6913 43.7651 53.6913H40.516V56.0961C40.516 57.0918 39.692 57.9012 38.673 57.9012H37.5813C37.3417 57.9039 37.1039 57.8593 36.8816 57.77C36.6592 57.6807 36.4567 57.5485 36.2855 57.3808C36.1143 57.2131 35.9779 57.0134 35.884 56.7929C35.7901 56.5725 35.7406 56.3357 35.7383 56.0961V55.0276C35.7383 54.0319 36.5623 53.2225 37.5813 53.2225H40.516ZM57.7953 38.7294H54.8548V35.8587C54.8548 34.863 55.6816 34.0537 56.7006 34.0537H57.7953C58.8143 34.0537 59.6383 34.863 59.6383 35.8587V36.9272C59.6383 37.9229 58.8114 38.7323 57.7953 38.7323V38.7294ZM40.516 38.7294H37.5813C37.3419 38.7321 37.1044 38.6876 36.8822 38.5985C36.6601 38.5094 36.4576 38.3774 36.2865 38.21C36.1154 38.0427 35.9789 37.8433 35.8848 37.6232C35.7908 37.4031 35.741 37.1666 35.7383 36.9272V35.8587C35.7383 34.863 36.5623 34.0537 37.5813 34.0537H38.673C39.692 34.0537 40.516 34.863 40.516 35.8587V38.7294ZM47.1395 34.5224C46.8999 34.5251 46.6621 34.4805 46.4398 34.3912C46.2174 34.3019 46.0149 34.1697 45.8437 34.002C45.6725 33.8343 45.5361 33.6346 45.4422 33.4141C45.3483 33.1937 45.2988 32.9569 45.2966 32.7173V31.6488C45.2966 30.6531 46.1234 29.8466 47.1395 29.8466H48.2342C49.2532 29.8466 50.0771 30.6531 50.0771 31.6517V32.7202C50.0745 32.9596 50.0247 33.196 49.9306 33.4161C49.8366 33.6362 49.7001 33.8357 49.5289 34.003C49.3578 34.1704 49.1554 34.3024 48.9332 34.3915C48.7111 34.4806 48.4735 34.5251 48.2342 34.5224H47.1395ZM47.1395 63.0428C46.8999 63.0455 46.6621 63.0009 46.4398 62.9116C46.2174 62.8223 46.0149 62.6901 45.8437 62.5224C45.6725 62.3547 45.5361 62.155 45.4422 61.9345C45.3483 61.7141 45.2988 61.4773 45.2966 61.2377V60.1692C45.2966 59.1735 46.1234 58.3641 47.1395 58.3641H48.2342C49.2532 58.3641 50.0771 59.1735 50.0771 60.1692V61.2406C50.0745 61.48 50.0247 61.7164 49.9306 61.9365C49.8366 62.1567 49.7001 62.3561 49.5289 62.5234C49.3578 62.6908 49.1554 62.8228 48.9332 62.9119C48.7111 63.001 48.4735 63.0455 48.2342 63.0428H47.1395ZM61.4812 48.5468C61.2419 48.5495 61.0043 48.505 60.7822 48.4159C60.56 48.3267 60.3576 48.1947 60.1865 48.0274C60.0153 47.8601 59.8788 47.6606 59.7848 47.4405C59.6907 47.2204 59.6409 46.9839 59.6383 46.7446V45.6761C59.6383 44.6804 60.4622 43.871 61.4812 43.871H62.573C63.592 43.871 64.4159 44.6804 64.4159 45.6761V46.7446C64.4159 47.7403 63.592 48.5497 62.573 48.5497L61.4812 48.5468ZM32.3232 48.5468C32.0839 48.5495 31.8463 48.505 31.6242 48.4159C31.402 48.3267 31.1996 48.1947 31.0285 48.0274C30.8573 47.8601 30.7208 47.6606 30.6268 47.4405C30.5327 47.2204 30.4829 46.9839 30.4803 46.7446V45.6761C30.4803 44.6804 31.3042 43.871 32.3232 43.871H33.415C34.434 43.871 35.2608 44.6804 35.2608 45.6761V46.7446C35.2608 47.7403 34.434 48.5497 33.415 48.5497L32.3232 48.5468ZM54.9334 63.1651C55.3413 62.9992 55.7979 62.9991 56.2058 63.165C56.6137 63.3309 56.9406 63.6496 57.117 64.0531C57.2006 64.2523 57.2436 64.4663 57.2433 64.6825C57.2431 64.8986 57.1996 65.1125 57.1155 65.3115C57.0315 65.5106 56.9084 65.6909 56.7537 65.8418C56.5989 65.9926 56.4156 66.1111 56.2144 66.1901C55.8069 66.3562 55.3506 66.3566 54.9428 66.1913C54.5349 66.026 54.2077 65.708 54.0309 65.305C53.9472 65.1055 53.9042 64.8913 53.9044 64.675C53.9046 64.4586 53.948 64.2445 54.0321 64.0452C54.1161 63.8459 54.2392 63.6654 54.394 63.5142C54.5487 63.3631 54.7321 63.2444 54.9334 63.1651ZM39.6396 26.6994C40.0472 26.5333 40.5034 26.5328 40.9113 26.6982C41.3191 26.8635 41.6463 27.1815 41.8232 27.5844C41.9064 27.7838 41.9491 27.9977 41.9486 28.2137C41.9482 28.4297 41.9047 28.6435 41.8206 28.8424C41.7366 29.0414 41.6137 29.2217 41.4592 29.3726C41.3047 29.5235 41.1216 29.6421 40.9207 29.7214C40.5128 29.8884 40.0558 29.8893 39.6473 29.724C39.2387 29.5586 38.911 29.24 38.7342 28.8364C38.651 28.637 38.6083 28.4231 38.6088 28.2071C38.6092 27.9911 38.6527 27.7774 38.7368 27.5784C38.8208 27.3794 38.9437 27.1992 39.0982 27.0482C39.2527 26.8973 39.4358 26.7787 39.6367 26.6994H39.6396ZM64.544 39.5912C64.4604 39.3915 64.4176 39.1772 64.418 38.9607C64.4184 38.7442 64.4621 38.53 64.5464 38.3307C64.6308 38.1313 64.7541 37.9508 64.9092 37.7998C65.0643 37.6488 65.248 37.5303 65.4495 37.4513C65.857 37.2852 66.3133 37.2848 66.7211 37.4501C67.129 37.6154 67.4562 37.9334 67.6331 38.3364C67.7167 38.5359 67.7597 38.75 67.7595 38.9664C67.7593 39.1827 67.7159 39.3968 67.6318 39.5961C67.5478 39.7955 67.4247 39.976 67.27 40.1271C67.1152 40.2783 66.9318 40.397 66.7305 40.4763C66.323 40.6424 65.8667 40.6428 65.4589 40.4775C65.051 40.3122 64.7238 39.9942 64.5469 39.5912H64.544ZM27.7377 54.5501C27.6546 54.3506 27.6121 54.1365 27.6127 53.9204C27.6133 53.7043 27.6571 53.4904 27.7414 53.2914C27.8257 53.0924 27.9489 52.9122 28.1038 52.7614C28.2586 52.6106 28.442 52.4922 28.6432 52.4132C29.0509 52.2454 29.5082 52.2441 29.917 52.4096C30.3257 52.575 30.6534 52.894 30.8296 53.2982C30.9129 53.4976 30.9555 53.7115 30.9551 53.9275C30.9546 54.1435 30.9111 54.3572 30.8271 54.5562C30.743 54.7552 30.6201 54.9354 30.4656 55.0864C30.3111 55.2373 30.128 55.3559 29.9271 55.4352C29.5189 55.6031 29.0612 55.6045 28.6519 55.439C28.2427 55.2736 27.9146 54.9545 27.7377 54.5501ZM27.7377 38.3364C27.9146 37.9327 28.2423 37.6141 28.6508 37.4488C29.0593 37.2834 29.5163 37.2843 29.9242 37.4513C30.1257 37.5303 30.3094 37.6488 30.4645 37.7998C30.6196 37.9508 30.7429 38.1313 30.8273 38.3307C30.9116 38.53 30.9553 38.7442 30.9557 38.9607C30.9561 39.1772 30.9132 39.3915 30.8296 39.5912C30.6528 39.9942 30.3256 40.3122 29.9177 40.4775C29.5099 40.6428 29.0536 40.6424 28.6461 40.4763C28.4443 40.3975 28.2603 40.2792 28.1049 40.1283C27.9495 39.9775 27.8258 39.797 27.7412 39.5976C27.6566 39.3983 27.6127 39.184 27.6121 38.9674C27.6115 38.7508 27.6542 38.5362 27.7377 38.3364ZM54.4559 29.7214C54.255 29.6421 54.0719 29.5235 53.9174 29.3726C53.7629 29.2217 53.64 29.0414 53.556 28.8424C53.4719 28.6435 53.4284 28.4297 53.428 28.2137C53.4275 27.9977 53.4702 27.7838 53.5534 27.5844C53.7302 27.1815 54.0574 26.8635 54.4653 26.6982C54.8731 26.5328 55.3294 26.5333 55.737 26.6994C55.9379 26.7787 56.1209 26.8973 56.2755 27.0482C56.43 27.1992 56.5529 27.3794 56.6369 27.5784C56.721 27.7774 56.7645 27.9911 56.7649 28.2071C56.7654 28.4231 56.7227 28.637 56.6395 28.8364C56.4626 29.2393 56.1354 29.5573 55.7276 29.7227C55.3197 29.888 54.8635 29.8875 54.4559 29.7214ZM64.544 53.2982C64.7203 52.8948 65.0475 52.5763 65.4555 52.4109C65.8636 52.2455 66.3202 52.2463 66.7276 52.4132C66.929 52.4919 67.1127 52.6101 67.2679 52.7608C67.423 52.9115 67.5465 53.0916 67.6311 53.2907C67.7157 53.4897 67.7597 53.7036 67.7606 53.9199C67.7614 54.1362 67.719 54.3505 67.636 54.5501C67.4591 54.9531 67.1319 55.2711 66.7241 55.4364C66.3162 55.6018 65.8599 55.6013 65.4524 55.4352C65.251 55.3565 65.0673 55.2383 64.9122 55.0876C64.757 54.9369 64.6335 54.7568 64.5489 54.5577C64.4643 54.3587 64.4203 54.1447 64.4194 53.9285C64.4186 53.7122 64.461 53.4979 64.544 53.2982ZM38.6818 66.6559C38.4806 66.5769 38.2973 66.4585 38.1425 66.3076C37.9878 66.1567 37.8647 65.9765 37.7807 65.7774C37.6966 65.5783 37.6531 65.3644 37.6529 65.1483C37.6526 64.9322 37.6956 64.7182 37.7792 64.5189C37.9561 64.1159 38.2833 63.7979 38.6911 63.6326C39.099 63.4673 39.5553 63.4677 39.9628 63.6338C40.1637 63.7131 40.3468 63.8317 40.5013 63.9827C40.6559 64.1336 40.7787 64.3138 40.8628 64.5128C40.9468 64.7118 40.9903 64.9255 40.9908 65.1415C40.9912 65.3576 40.9486 65.5715 40.8653 65.7708C40.6885 66.1738 40.3613 66.4918 39.9534 66.6571C39.5456 66.8224 39.0893 66.822 38.6818 66.6559ZM63.263 61.9102C63.4443 61.7352 63.6865 61.6374 63.9385 61.6374C64.1905 61.6374 64.4326 61.7352 64.6139 61.9102C64.9895 62.2771 64.9895 62.871 64.6139 63.2349C64.2383 63.5989 63.6386 63.5989 63.263 63.2349C63.1744 63.1492 63.104 63.0465 63.0559 62.9329C63.0078 62.8194 62.983 62.6974 62.983 62.5741C62.983 62.4508 63.0078 62.3287 63.0559 62.2152C63.104 62.1016 63.1744 61.9989 63.263 61.9132V61.9102ZM30.7598 29.6545C31.1324 29.2905 31.738 29.2905 32.1107 29.6545C32.4833 30.0184 32.4833 30.6152 32.1107 30.9792C31.9294 31.1542 31.6872 31.2521 31.4352 31.2521C31.1832 31.2521 30.9411 31.1542 30.7598 30.9792C30.6712 30.8934 30.6008 30.7907 30.5527 30.6772C30.5046 30.5636 30.4798 30.4416 30.4798 30.3183C30.4798 30.195 30.5046 30.0729 30.5527 29.9594C30.6008 29.8459 30.6712 29.7432 30.7598 29.6574V29.6545ZM63.263 30.9792C63.1744 30.8934 63.104 30.7907 63.0559 30.6772C63.0078 30.5636 62.983 30.4416 62.983 30.3183C62.983 30.195 63.0078 30.0729 63.0559 29.9594C63.104 29.8459 63.1744 29.7432 63.263 29.6574C63.6386 29.2905 64.2412 29.2905 64.6139 29.6574C64.9866 30.0242 64.9895 30.6123 64.6139 30.9792C64.4326 31.1542 64.1905 31.2521 63.9385 31.2521C63.6865 31.2521 63.4443 31.1542 63.263 30.9792ZM30.7598 63.2349C30.6712 63.1492 30.6008 63.0465 30.5527 62.9329C30.5046 62.8194 30.4798 62.6974 30.4798 62.5741C30.4798 62.4508 30.5046 62.3287 30.5527 62.2152C30.6008 62.1016 30.6712 61.9989 30.7598 61.9132C30.9411 61.7381 31.1832 61.6403 31.4352 61.6403C31.6872 61.6403 31.9294 61.7381 32.1107 61.9132C32.4833 62.2771 32.4833 62.871 32.1107 63.2349C31.738 63.5989 31.1324 63.5989 30.7598 63.2349ZM70.1515 46.2118C70.1515 45.6936 70.5823 45.2743 71.1093 45.2743C71.6363 45.2743 72.0643 45.6936 72.0643 46.2118C72.0604 46.4617 71.9579 46.7 71.7789 46.8746C71.6 47.0491 71.3593 47.1458 71.1093 47.1435C70.8594 47.1458 70.6186 47.0491 70.4397 46.8746C70.2608 46.7 70.1582 46.4617 70.1544 46.2118H70.1515ZM23.7869 46.2118C23.7869 45.6936 24.2149 45.2743 24.7447 45.2743C25.2688 45.2743 25.6997 45.6936 25.6997 46.2118C25.6959 46.4617 25.5933 46.7 25.4144 46.8746C25.2354 47.0491 24.9947 47.1458 24.7447 47.1435C24.4943 47.1466 24.2528 47.0502 24.0733 46.8756C23.8937 46.701 23.7907 46.4622 23.7869 46.2118ZM47.6898 24.705C47.5652 24.707 47.4416 24.6843 47.3259 24.6383C47.2101 24.5924 47.1046 24.524 47.0154 24.4372C46.9261 24.3504 46.8549 24.2468 46.8057 24.1324C46.7566 24.018 46.7305 23.895 46.729 23.7705C46.729 23.2522 47.1599 22.833 47.6898 22.833C48.2138 22.833 48.6447 23.2522 48.6447 23.7705C48.6409 24.0209 48.5379 24.2596 48.3583 24.4343C48.1788 24.6089 47.9373 24.7052 47.6868 24.7021L47.6898 24.705ZM47.6898 70.0535C47.5655 70.0555 47.4421 70.0329 47.3265 69.9871C47.211 69.9413 47.1056 69.8732 47.0164 69.7867C46.9272 69.7002 46.8559 69.597 46.8065 69.4829C46.7572 69.3688 46.7309 69.2461 46.729 69.1219C46.729 68.6036 47.1599 68.1844 47.6898 68.1844C48.2138 68.1844 48.6447 68.6036 48.6447 69.119C48.6432 69.2432 48.6172 69.366 48.5682 69.4802C48.5193 69.5944 48.4483 69.6979 48.3593 69.7846C48.2704 69.8714 48.1652 69.9398 48.0498 69.986C47.9344 70.0321 47.8111 70.0551 47.6868 70.0535H47.6898ZM77.3223 46.2089C77.3223 45.6936 77.7532 45.2772 78.2802 45.2772C78.8042 45.2772 79.2351 45.6936 79.2351 46.2089C79.234 46.3331 79.2084 46.456 79.1598 46.5703C79.1112 46.6847 79.0405 46.7884 78.9518 46.8754C78.8632 46.9625 78.7582 47.0312 78.643 47.0777C78.5277 47.1242 78.4044 47.1475 78.2802 47.1464C78.1559 47.1479 78.0326 47.125 77.9172 47.0788C77.8018 47.0327 77.6966 46.9643 77.6077 46.8775C77.5187 46.7907 77.4477 46.6872 77.3988 46.573C77.3498 46.4588 77.3238 46.3361 77.3223 46.2118V46.2089ZM15.8998 45.7431C16.2958 45.7431 16.6189 46.0575 16.6189 46.4418C16.6189 46.8261 16.2987 47.1464 15.8998 47.1464C15.5039 47.1464 15.1836 46.8319 15.1836 46.4447C15.1836 46.0575 15.5039 45.7431 15.8998 45.7431ZM46.2544 16.2881C46.2544 15.7728 46.6824 15.3535 47.2094 15.3535C47.7363 15.3535 48.1643 15.7728 48.1643 16.2881C48.1643 16.8034 47.7363 17.2227 47.2094 17.2227C46.6824 17.2227 46.2544 16.8034 46.2544 16.291V16.2881ZM74.5681 57.3539C74.7215 57.0087 75.0038 56.7373 75.3547 56.5975C75.7056 56.4576 76.0972 56.4606 76.446 56.6056C76.6181 56.6749 76.7747 56.7777 76.9066 56.9081C77.0385 57.0385 77.1432 57.1939 77.2145 57.3651C77.2858 57.5364 77.3222 57.7202 77.3217 57.9057C77.3213 58.0912 77.2838 58.2747 77.2117 58.4456C77.0595 58.7925 76.7766 59.0653 76.4245 59.2049C76.0723 59.3444 75.6794 59.3394 75.3309 59.191C75.1592 59.1217 75.0029 59.019 74.8713 58.8887C74.7397 58.7585 74.6354 58.6033 74.5644 58.4323C74.4934 58.2613 74.4571 58.0779 74.4578 57.8927C74.4584 57.7076 74.4959 57.5244 74.5681 57.3539ZM59.0502 72.4642C59.1658 72.511 59.271 72.5804 59.3595 72.6684C59.448 72.7564 59.518 72.8612 59.5655 72.9766C59.613 73.0896 59.6372 73.211 59.6367 73.3336C59.6362 73.4561 59.611 73.5773 59.5626 73.6899C59.4862 73.8607 59.3617 74.0055 59.2044 74.1067C59.0471 74.2079 58.8637 74.2611 58.6766 74.2599C58.4895 74.2587 58.3069 74.203 58.1509 74.0997C57.9949 73.9964 57.8724 73.85 57.7982 73.6783C57.7503 73.5655 57.7256 73.4442 57.7256 73.3216C57.7256 73.199 57.7503 73.0777 57.7982 72.965C57.8478 72.8504 57.9197 72.7469 58.0096 72.6604C58.0996 72.574 58.2059 72.5063 58.3223 72.4613C58.5567 72.3698 58.8173 72.3719 59.0502 72.4671V72.4642ZM19.3819 33.6635C19.6148 33.7625 19.7982 33.943 19.8943 34.173C19.9422 34.2864 19.9666 34.4083 19.9661 34.5314C19.9656 34.6545 19.9402 34.7762 19.8914 34.8892C19.815 35.06 19.6905 35.2048 19.5332 35.306C19.3759 35.4072 19.1925 35.4605 19.0054 35.4592C18.8184 35.458 18.6357 35.4023 18.4797 35.2991C18.3238 35.1958 18.2012 35.0493 18.1271 34.8776C18.0791 34.7642 18.0547 34.6423 18.0552 34.5192C18.0557 34.3961 18.0811 34.2744 18.13 34.1614C18.1794 34.0476 18.2509 33.9447 18.3403 33.8588C18.4298 33.7728 18.5354 33.7054 18.6511 33.6606C18.8859 33.5671 19.1478 33.5682 19.3819 33.6635ZM16.715 57.6828C16.8429 57.3949 17.0784 57.1684 17.3712 57.052C17.6639 56.9355 17.9906 56.9383 18.2814 57.0598C18.4247 57.1172 18.5552 57.2027 18.6651 57.3112C18.7749 57.4198 18.862 57.5492 18.9211 57.6919C18.9802 57.8346 19.0103 57.9876 19.0094 58.1421C19.0085 58.2965 18.9768 58.4492 18.9161 58.5912C18.7877 58.8787 18.5519 59.1045 18.2592 59.2204C17.9665 59.3362 17.6401 59.333 17.3497 59.2113C17.2063 59.1539 17.0759 59.0685 16.966 58.9599C16.8561 58.8514 16.7691 58.7219 16.7099 58.5793C16.6508 58.4366 16.6208 58.2835 16.6217 58.1291C16.6225 57.9746 16.6543 57.8219 16.715 57.6799V57.6828ZM58.4562 18.9986C58.3126 18.9415 58.1818 18.8562 58.0717 18.7478C57.9615 18.6394 57.8741 18.51 57.8147 18.3673C57.7553 18.2246 57.725 18.0714 57.7257 17.9169C57.7264 17.7623 57.758 17.6094 57.8186 17.4672C57.9465 17.1792 58.182 16.9528 58.4748 16.8363C58.7675 16.7199 59.0943 16.7227 59.385 16.8442C59.5284 16.9016 59.6588 16.9871 59.7687 17.0956C59.8785 17.2042 59.9656 17.3336 60.0247 17.4763C60.0839 17.6189 60.1139 17.772 60.113 17.9264C60.1121 18.0809 60.0804 18.2336 60.0197 18.3756C59.8918 18.6628 59.6568 18.8888 59.3647 19.0052C59.0726 19.1216 58.7466 19.1192 58.4562 18.9986ZM76.3353 33.1686C76.5121 33.0978 76.7096 33.0989 76.8856 33.1715C77.0143 33.2245 77.1242 33.3148 77.2013 33.4308C77.2783 33.5467 77.319 33.683 77.3181 33.8222C77.3171 33.9614 77.2746 34.0972 77.196 34.2121C77.1174 34.327 77.0063 34.4158 76.8769 34.4671C76.7017 34.5372 76.5061 34.5363 76.3316 34.4646C76.1571 34.3928 76.0174 34.2558 75.9423 34.0828C75.9061 33.9975 75.8878 33.9058 75.8883 33.8132C75.8888 33.7206 75.9081 33.629 75.9452 33.5442C75.9823 33.4589 76.0358 33.3818 76.1027 33.3174C76.1697 33.2529 76.2488 33.2024 76.3353 33.1686ZM34.3612 18.1194C34.4373 17.9467 34.5783 17.8108 34.7536 17.7411C34.929 17.6714 35.1248 17.6734 35.2987 17.7467C35.4286 17.7987 35.5398 17.8885 35.6178 18.0046C35.6958 18.1207 35.7371 18.2576 35.7361 18.3975C35.7352 18.5374 35.6921 18.6737 35.6125 18.7887C35.5329 18.9037 35.4205 18.9921 35.29 19.0423C35.1141 19.1126 34.9177 19.1115 34.7426 19.0394C34.6567 19.0046 34.5785 18.9531 34.5127 18.8878C34.4469 18.8226 34.3947 18.7449 34.3592 18.6593C34.3237 18.5736 34.3056 18.4818 34.306 18.3891C34.3063 18.2964 34.3251 18.2047 34.3612 18.1194ZM34.5446 73.326C34.6378 73.326 34.731 73.3464 34.8212 73.3842C34.907 73.4187 34.9851 73.4699 35.0509 73.5349C35.1167 73.5999 35.1689 73.6773 35.2044 73.7627C35.2399 73.8481 35.258 73.9397 35.2577 74.0322C35.2574 74.1247 35.2387 74.2162 35.2026 74.3013C35.1259 74.4735 34.9849 74.6089 34.8097 74.6785C34.6346 74.7482 34.4391 74.7465 34.2651 74.674C34.1793 74.6395 34.1012 74.5883 34.0353 74.5233C33.9694 74.4584 33.9171 74.381 33.8813 74.2957C33.8456 74.2104 33.8271 74.1189 33.827 74.0264C33.827 73.9338 33.8452 73.8423 33.8808 73.7569C33.9372 73.628 34.0301 73.5185 34.1481 73.4419C34.2661 73.3653 34.404 73.325 34.5446 73.326ZM68.4395 68.3765C68.2581 68.5525 68.0153 68.6508 67.7626 68.6508C67.5099 68.6508 67.2671 68.5525 67.0857 68.3765C66.9971 68.2908 66.9267 68.1881 66.8786 68.0745C66.8305 67.961 66.8057 67.8389 66.8057 67.7156C66.8057 67.5923 66.8305 67.4703 66.8786 67.3568C66.9267 67.2432 66.9971 67.1405 67.0857 67.0547C67.2669 66.8776 67.5107 66.7793 67.7641 66.7811C68.0164 66.7801 68.2591 66.8784 68.4395 67.0547C68.5286 67.1406 68.5994 67.2435 68.6477 67.3573C68.6961 67.4711 68.721 67.5934 68.721 67.7171C68.721 67.8408 68.6961 67.9631 68.6477 68.0769C68.5994 68.1908 68.5286 68.2936 68.4395 68.3795V68.3765ZM23.7287 24.1839C24.0007 23.9205 24.3646 23.7732 24.7433 23.7732C25.122 23.7732 25.4859 23.9205 25.7579 24.1839C25.8904 24.3128 25.9957 24.4669 26.0677 24.6372C26.1396 24.8074 26.1766 24.9904 26.1766 25.1752C26.1766 25.3601 26.1396 25.543 26.0677 25.7133C25.9957 25.8836 25.8904 26.0377 25.7579 26.1666C25.4873 26.4328 25.1229 26.5819 24.7433 26.5819C24.3637 26.5819 23.9993 26.4328 23.7287 26.1666C23.5962 26.0377 23.4908 25.8836 23.4189 25.7133C23.347 25.543 23.3099 25.3601 23.3099 25.1752C23.3099 24.9904 23.347 24.8074 23.4189 24.6372C23.4908 24.4669 23.5962 24.3128 23.7287 24.1839ZM68.9287 24.4459C69.0637 24.3129 69.2457 24.2384 69.4352 24.2384C69.6248 24.2384 69.8068 24.3129 69.9418 24.4459C70.0077 24.5104 70.06 24.5874 70.0957 24.6724C70.1314 24.7574 70.1498 24.8487 70.1498 24.9409C70.1498 25.0331 70.1314 25.1243 70.0957 25.2093C70.06 25.2943 70.0077 25.3713 69.9418 25.4358C69.806 25.5674 69.6244 25.641 69.4352 25.641C69.2461 25.641 69.0644 25.5674 68.9287 25.4358C68.8621 25.3717 68.8091 25.2948 68.773 25.2098C68.7368 25.1247 68.7181 25.0333 68.7181 24.9409C68.7181 24.8485 68.7368 24.757 68.773 24.6719C68.8091 24.5869 68.8621 24.51 68.9287 24.4459ZM23.9965 66.9878C24.1316 66.8548 24.3135 66.7802 24.5031 66.7802C24.6927 66.7802 24.8746 66.8548 25.0097 66.9878C25.0759 67.0521 25.1285 67.129 25.1645 67.2141C25.2004 67.2991 25.2189 67.3904 25.2189 67.4827C25.2189 67.575 25.2004 67.6664 25.1645 67.7514C25.1285 67.8364 25.0759 67.9134 25.0097 67.9777C24.8739 68.1093 24.6922 68.1829 24.5031 68.1829C24.314 68.1829 24.1323 68.1093 23.9965 67.9777C23.9303 67.9134 23.8777 67.8364 23.8417 67.7514C23.8058 67.6664 23.7873 67.575 23.7873 67.4827C23.7873 67.3904 23.8058 67.2991 23.8417 67.2141C23.8777 67.129 23.9303 67.0521 23.9965 66.9878ZM47.4481 79.4051C47.1351 79.4082 46.8336 79.287 46.6099 79.0681C46.3861 78.8493 46.2583 78.5506 46.2544 78.2376C46.2544 77.5912 46.7872 77.0672 47.4481 77.0672C48.109 77.0672 48.6418 77.5912 48.6418 78.2376C48.638 78.5506 48.5101 78.8493 48.2863 79.0681C48.0626 79.287 47.7611 79.4082 47.4481 79.4051Z" fill="white"/>
</g>
<defs>
<clipPath id="clip0_342_5781">
<rect width="93.1659" height="93.1659" fill="white" transform="translate(0.627441 0.796875)"/>
</clipPath>
</defs>
</svg>
