<svg width="94" height="94" viewBox="0 0 94 94" fill="none" xmlns="http://www.w3.org/2000/svg">
<g clip-path="url(#clip0_342_5785)">
<path d="M46.7245 93.9627C72.4516 93.9627 93.3075 73.1069 93.3075 47.3798C93.3075 21.6528 72.4516 0.796875 46.7245 0.796875C20.9975 0.796875 0.141602 21.6528 0.141602 47.3798C0.141602 73.1069 20.9975 93.9627 46.7245 93.9627Z" fill="#EA0017"/>
<path d="M60.4567 45.6688C60.5469 45.6688 60.7653 45.7619 60.9516 45.8726C61.464 46.1841 61.729 46.81 61.6795 47.5612C61.6503 48.0736 61.5252 48.423 61.0098 49.4711C60.6605 50.1815 60.0025 51.3723 59.5541 52.1205C58.7797 53.3957 58.4099 54.0653 58.4099 54.1672C58.4099 54.1963 58.934 53.7247 59.5745 53.1191C60.774 51.9895 61.6154 51.4538 61.9968 51.5761C62.5121 51.742 62.6664 52.7173 62.3258 53.6956C62.1307 54.2779 61.6067 55.3376 61.0826 56.2314C60.7798 56.7264 60.7536 56.8254 61.2631 56.5342L61.6882 56.2838C62.748 55.6462 63.4263 55.5764 63.7961 56.08C64.2037 56.6332 64.1338 58.3189 63.6301 59.7776C63.5166 60.1066 63.4554 60.4035 63.4846 60.4355C63.5166 60.4647 63.8339 60.3628 64.1833 60.2085C64.5443 60.0454 65.08 59.8591 65.3886 59.7892C66.4251 59.5417 66.8676 59.9843 67.0627 61.4516C67.2374 62.7268 66.7541 63.7866 65.869 64.104C65.7176 64.1564 65.6943 64.1331 65.7467 63.9409C65.7875 63.807 65.8399 63.5712 65.8807 63.4052C65.9331 63.1374 65.9214 63.1286 65.7351 63.2305C65.4381 63.3848 65.1004 64.0021 64.9781 64.6193C64.6084 66.4477 64.1454 67.3502 62.9314 68.5847C61.595 69.9414 60.2092 70.8556 58.0518 71.8222C57.0445 72.2734 55.6266 73.1672 54.1156 74.3085L53.673 74.6463L52.7996 73.8456L52.3629 73.4613C51.4865 72.7218 50.6073 72.1453 49.9027 71.86C49.6923 71.78 49.4836 71.6956 49.2768 71.6067C49.2564 71.5863 49.4311 71.3592 49.6669 71.0914C49.8967 70.8261 50.0745 70.5199 50.191 70.1888C50.3365 69.6211 50.4151 69.4901 50.7354 69.3038C51.1051 69.1 51.702 69.263 53.1199 69.9734C53.7458 70.2791 54.2786 70.5382 54.331 70.5382C54.4446 70.5382 54.4242 70.2383 54.2786 69.8599C54.168 69.5512 54.2087 69.3649 54.6804 67.947C55.3063 66.0779 55.4723 65.3995 55.35 65.2743C55.1957 65.12 55.0705 65.3675 54.3514 67.1959C53.9729 68.1538 53.6439 68.966 53.6235 68.9864C53.5915 69.0155 53.3644 68.934 53.1082 68.8117C52.6861 68.605 52.6453 68.5439 52.6977 68.3168C52.9947 67.1231 53.1693 64.4329 52.9859 63.775C52.852 63.312 52.7064 63.5071 52.5842 64.3194C52.3163 66.0459 52.0193 67.4143 51.8971 67.5365C51.7806 67.6501 51.7107 67.6181 51.4836 67.3502L51.2187 67.0212V57.3669L53.4983 54.4263L53.9671 53.8208C57.6151 49.113 58.6603 47.7563 59.4697 46.7198C59.921 46.1433 60.3635 45.6717 60.4567 45.6717V45.6688ZM40.4493 60.2842C41.4246 59.3554 41.643 59.2739 41.9807 59.7484C42.2369 60.0978 42.3796 60.9188 42.3796 62.0397V62.9627L42.8541 63.4664L43.0463 63.6876C43.2355 63.9205 43.4073 64.1826 43.4684 64.3281C43.6228 64.7095 43.6868 66.1682 43.5616 66.6631C43.5209 66.8261 43.6228 67.1348 43.9023 67.6705C45.8034 71.3098 46.1936 72.0988 46.1441 72.1599L46.08 72.1715L45.9635 72.1628C45.8525 72.1433 45.7434 72.1141 45.6375 72.0755C45.1949 71.9357 44.6709 71.9124 42.8134 71.9648C41.6925 71.9939 41.0228 71.8105 40.9617 71.4524C40.9326 71.3068 41.3518 70.6372 42.2369 69.4144C42.5048 69.0476 42.5339 68.8321 42.3825 68.5847C42.3097 68.4624 41.9487 68.4187 40.6356 68.3809C38.4346 68.3081 38.3647 68.1829 39.9136 67.0125C40.5628 66.5175 41.3227 65.7373 41.413 65.4694C41.445 65.3675 41.3926 65.1725 41.3023 65.0298L41.1277 64.7619L39.8757 64.8347L39.5351 64.8522C38.1551 64.9104 37.9047 64.7124 38.3705 64.0632C38.487 63.9089 38.5452 63.7546 38.5074 63.7138C38.4783 63.6847 37.8669 63.6527 37.1798 63.6527C35.9977 63.6527 34.9292 63.5188 34.7458 63.3528C34.705 63.312 35.2087 63.1082 35.8754 62.9015C37.0167 62.5522 38.5481 61.8534 39.2469 61.3585C39.6611 61.0147 40.0622 60.6554 40.4493 60.2812V60.2842ZM44.2545 51.4334C44.3011 51.4625 44.4147 52.3796 44.5369 53.4801C44.6534 54.5777 44.7437 55.5851 44.7437 55.7074C44.7437 55.8413 44.7844 55.9461 44.8368 55.9461C44.8863 55.9461 45.1949 55.5327 45.5239 55.0203C45.8646 54.5166 46.1644 54.0944 46.1936 54.0944C46.2751 54.0944 46.3275 54.4846 46.6012 57.4048C46.738 58.7498 46.8719 59.8504 46.901 59.8504C46.9301 59.8504 47.0961 59.2739 47.2504 58.5664C47.4164 57.856 47.5794 57.2796 47.6202 57.2796C47.6813 57.2796 50.5083 65.4607 50.4996 65.6237C50.4996 65.8508 50.2521 65.583 49.2651 64.3107C48.6683 63.5275 48.1035 62.8084 48.0132 62.6861L47.8269 62.4706L47.5503 62.7793L47.4338 62.9103C47.1695 63.2076 46.9026 63.5026 46.6332 63.7953L45.9868 64.5057L45.9344 64.1564L45.9257 64.069C45.8791 63.6905 45.7481 62.3222 45.6171 60.8461C45.4832 59.2127 45.3405 57.8356 45.2968 57.7832C45.2677 57.7337 44.8776 58.022 44.4234 58.4325C43.9721 58.843 43.5616 59.2011 43.5005 59.2127C43.4393 59.2331 43.4277 59.0905 43.4597 58.8517C43.5325 58.3277 44.2312 51.7333 44.2312 51.5353C44.2312 51.4538 44.2516 51.413 44.2807 51.4334H44.2545ZM31.0657 45.7619C31.8052 45.6688 33.3367 45.7503 34.0471 45.9453C34.8273 46.1404 35.7007 46.5131 36.3995 46.9119C37.0895 47.3225 38.784 48.9587 39.0402 49.474C39.244 49.8816 39.3488 49.934 38.1056 48.9878C37.124 48.2601 36.0359 47.6885 34.8797 47.2933C34.3033 47.1128 33.9772 47.0662 33.0892 47.0604L32.6699 47.0575C31.3744 47.0575 31.1502 47.0866 30.4078 47.3341C25.7116 48.9267 23.3388 54.898 25.7961 58.9362C26.5239 60.1473 27.6972 61.2275 29.2781 62.1387C30.1719 62.6628 30.1021 62.7501 29.0015 62.4706C28.0225 62.2269 27.1098 61.7688 26.3294 61.1294C25.5489 60.4899 24.9203 59.6851 24.4888 58.7731C23.924 57.6202 23.6794 56.5517 23.6067 55.0203C23.5048 52.5456 24.1511 50.5803 25.6912 48.7112C26.914 47.2206 29.0831 46.0385 31.0657 45.7619ZM27.2838 53.7684C27.4381 53.2938 27.4585 53.3258 27.8515 54.4147C28.6344 56.4789 29.8223 58.3656 31.3452 59.9639C31.7033 60.3424 32.0003 60.683 32.0003 60.7209C32.0003 60.8868 31.1909 60.683 30.4194 60.3336C28.5503 59.4602 27.4497 57.6406 27.2139 54.9766C27.1732 54.4234 27.1848 54.0537 27.2838 53.7655V53.7684ZM35.9075 38.4251C37.2001 38.23 37.2642 38.2504 36.4199 38.6406C35.9977 38.8356 35.5872 39.019 35.5173 39.0714L35.4358 39.1209C35.2029 39.2898 35.6309 39.3539 37.1099 39.4004C38.9907 39.4528 39.0023 39.4616 38.8451 40.0788C38.784 40.3263 38.7636 40.3263 37.6223 40.3263C36.9655 40.3349 36.31 40.3865 35.66 40.4806C34.8593 40.6262 33.6977 41.1065 33.6977 41.3016C33.6977 41.354 34.181 41.4559 34.7749 41.5287C36.6062 41.7441 38.3851 42.2274 39.6166 42.8447C40.0999 43.1009 40.3561 43.427 41.3227 45.1039C43.9226 49.5934 44.3128 50.231 45.2473 51.4742C46.441 53.058 47.7221 54.4962 49.1195 55.8209L50.3947 57.0233V58.6916C50.3831 59.2972 50.3453 59.763 50.2929 59.7979C50.1909 59.8591 50.2521 59.9639 48.8546 57.5882C47.8359 55.8577 46.7351 54.1768 45.5559 52.5514C45.2551 52.1445 44.9734 51.7238 44.7116 51.2907C44.6825 51.1976 44.5893 51.116 44.5166 51.1044C44.4467 51.1044 44.109 50.7754 43.7683 50.3765C42.8017 49.244 40.624 47.2817 39.1421 46.2248C38.2919 45.6076 37.171 44.8477 37.1099 44.8477C37.0895 44.8477 36.7285 44.6614 36.3063 44.4256C35.3741 43.9311 34.3974 43.5256 33.3891 43.2144C32.6787 43.0194 31.2637 42.9669 30.3583 43.0892C29.0523 43.3221 27.7971 43.7812 26.6491 44.446C26.3636 44.6301 26.0682 44.7983 25.764 44.9496C25.6912 44.9496 24.7887 45.596 24.0899 46.1637C23.7697 46.4199 23.5135 46.5626 23.4931 46.5014C23.4407 46.3559 24.3054 45.1563 25.0565 44.3033C26.0736 43.233 27.1996 42.2719 28.4163 41.4355C30.5417 40.0177 33.6569 38.7628 35.9075 38.4251ZM28.888 51.2383C28.5095 50.2019 28.5182 50.1174 29.0015 50.394C29.3413 50.6054 29.6734 50.8287 29.9972 51.0636C31.9857 52.5423 33.5894 54.4775 34.673 56.706C35.1155 57.6406 35.4242 58.514 35.3514 58.5868L35.2961 58.5984L35.2 58.5693C34.705 58.3655 33.162 57.1136 32.0003 55.9461C30.533 54.4555 29.5052 52.9241 28.888 51.2383ZM32.3089 48.4637C32.3089 48.3415 33.4094 48.6297 34.0558 48.9267C35.4038 49.5322 36.3908 50.7026 36.8216 52.1642C37.1099 53.1511 37.1914 53.8994 37.0895 54.6709C37.0051 55.358 37.0167 55.3813 36.3704 53.9314C35.5965 52.3244 34.5725 50.8504 33.3367 49.5643C32.9824 49.2085 32.6397 48.8414 32.3089 48.4637ZM49.1632 31.3037C49.6669 31.1582 49.6582 31.1582 49.8212 31.4056C50.0978 31.8365 50.6015 33.5135 50.8169 34.7363C50.9508 35.537 51.044 36.6375 51.0848 37.9505L51.143 39.9449L50.6422 39.875L50.5287 39.8575C49.8183 39.7411 49.2389 39.5227 45.39 37.9098C43.3141 37.0364 41.5993 36.3493 41.5673 36.3784C41.5178 36.4308 42.5455 38.4542 43.2326 39.6566C44.4845 41.8373 46.8079 43.0194 49.4922 42.8447C50.2608 42.7923 50.5403 42.8126 50.7732 42.9262C51.3293 43.2232 51.6903 43.7385 52.0281 44.7429C52.4502 45.9774 53.2218 47.4797 53.8797 48.3415C54.1563 48.7112 54.3747 49.0198 54.3747 49.0198C54.363 49.0286 54.034 48.9674 53.6323 48.8946C51.833 48.5249 48.7207 47.2206 47.8793 46.481C46.9127 45.628 47.7948 46.9935 48.8226 47.9309C50.0745 49.081 51.8854 50.0767 53.9496 50.7667C54.5668 50.9705 55.0909 51.1568 55.1025 51.1655C55.2161 51.2704 52.1824 54.8136 51.999 54.8136C51.8126 54.8136 50.7645 54.1876 49.7484 53.4801C48.6275 52.697 46.0887 50.2019 45.1862 49.0082C42.5896 45.524 40.6914 41.5704 39.5962 37.3654L39.276 36.195L39.6778 35.7844L39.9369 35.5399C41.4654 34.2006 45.3318 32.4246 49.1632 31.3037ZM64.9141 27.8304C65.1395 27.8524 65.3578 27.9219 65.5546 28.0342C65.7181 28.1492 65.86 28.2921 65.9738 28.4564C66.067 28.5903 67.1559 32.6779 68.3903 37.5197C70.8563 47.1681 70.8359 47.0371 70.2798 47.6223C70.105 47.7946 69.8996 47.9328 69.6743 48.0299C69.1997 48.1871 61.8716 49.7768 61.8338 49.7389C61.8737 49.5234 61.9463 49.3153 62.0492 49.1217C62.5733 47.928 62.6024 46.8217 62.1074 46.0298C61.7697 45.4766 60.8963 44.9525 60.3315 44.9525C60.0025 44.9525 59.9006 45.0515 58.1537 47.3108C57.1464 48.621 56.2846 49.6458 56.2438 49.605C56.2001 49.5643 55.2656 45.5581 54.1476 40.7164C52.7064 34.4685 52.1416 31.8162 52.194 31.6036C52.3008 31.2091 52.5497 30.8679 52.8928 30.6458C53.3353 30.4099 64.5152 27.7896 64.917 27.8304H64.9141ZM66.6114 39.4936C66.5911 39.4528 66.2213 39.7498 65.7875 40.1632C65.3566 40.5621 64.4744 41.386 63.8368 41.9916L62.6635 43.0892L60.1481 42.2769C59.2913 41.9823 58.4241 41.7191 57.5481 41.4879C57.5074 41.4967 58.4711 42.4109 59.7055 43.5114C60.9487 44.6119 62.2967 45.8231 62.7159 46.2132C63.1381 46.5917 63.5166 46.8712 63.5603 46.8304C63.6709 46.7169 66.6405 39.5751 66.6114 39.4936ZM60.4567 42.6991C61.1641 42.9349 61.9561 43.1504 62.2123 43.194L62.6752 43.2523L63.0158 44.7866C63.1992 45.628 63.3332 46.3384 63.3011 46.3588C63.2808 46.3791 63.0362 46.1724 62.7683 45.9046C62.063 45.2358 61.3467 44.5787 60.6197 43.9335C60.0473 43.428 59.4891 42.9066 58.9456 42.3701C58.8845 42.2158 59.129 42.2682 60.4567 42.6991ZM35.3397 29.8859C37.0662 29.455 37.7533 29.3502 37.7533 29.5249C37.7533 29.5773 37.5058 29.6792 37.2176 29.7403C36.3762 29.947 34.2072 30.7069 33.13 31.1815C31.9566 31.6939 30.4573 32.5673 29.8924 33.0593L29.4819 33.4087L29.84 33.4931L30.2826 33.598C31.7499 33.9881 34.4459 35.0042 35.7269 35.6709C36.6644 36.1542 37.8552 36.9665 37.8552 37.1295C37.8552 37.1703 37.5466 37.2431 37.1681 37.2838C35.5959 37.4381 33.0164 38.0757 31.1764 38.7541C28.9258 39.5984 26.0697 41.1269 24.3229 42.4429C23.1816 43.3047 23.1816 43.3047 23.5834 42.7311C24.0667 42.0324 25.534 40.5097 26.4278 39.7906C28.361 38.2592 30.8998 37.1499 33.59 36.6666L34.0034 36.5967L33.2755 36.2561L32.9116 36.1018C31.319 35.4671 27.9796 34.6461 25.9882 34.4161C25.7302 34.3913 25.4755 34.3396 25.2283 34.2618C24.9605 34.1191 28.4425 32.25 30.5097 31.4377C32.0866 30.8227 33.6997 30.3045 35.3397 29.8859ZM59.9996 31.8162C59.2309 34.0871 57.3793 39.8226 57.3793 39.9449C57.3793 40.038 57.3385 40.1399 57.2774 40.172C56.9484 40.3758 57.3298 40.5505 59.7346 41.3424C61.1409 41.7966 62.3637 42.175 62.4568 42.175C62.6606 42.175 66.4746 38.6085 66.4746 38.4251C66.4746 38.3523 65.1586 36.9257 63.5661 35.2604C62.5114 34.1697 61.47 33.0662 60.4421 31.9501C60.2267 31.6735 60.0724 31.6211 59.9996 31.8162ZM46.2925 40.3991C46.1906 40.1079 46.1906 40.1079 46.5196 40.172C46.6943 40.2127 47.1019 40.367 47.4134 40.5213C48.1617 40.8794 48.1937 41.0454 47.5153 41.0454C46.8777 41.0454 46.4265 40.8096 46.2925 40.3991ZM60.1451 32.3722C60.1946 32.4246 60.4741 33.5223 60.7624 34.8178L61.2952 37.1819L61.0069 37.4585C60.6081 37.8486 57.554 40.1312 57.5132 40.0788C57.4841 40.0584 57.554 39.8634 57.6675 39.6363C57.8713 39.2374 59.8977 33.1234 59.9996 32.579C60.0403 32.413 60.1044 32.3198 60.1451 32.3722ZM37.5058 30.771L37.4243 31.5075L37.3923 31.8016C37.3311 32.4188 37.369 32.5673 37.5466 32.5673C37.663 32.5673 37.7329 32.7828 37.8144 33.3883C37.9891 34.5616 38.0299 35.7233 37.9076 35.7757C37.8465 35.7844 37.4127 35.569 36.9323 35.2895C35.8105 34.6238 34.6351 34.0531 33.4182 33.5834C32.9756 33.4204 32.6146 33.2573 32.6146 33.2253C32.6146 33.0098 33.8782 32.0432 34.641 31.6735C35.6163 31.2018 36.8391 30.7797 37.2496 30.771H37.5058ZM53.2218 25.8361C56.8174 25.1577 57.5685 25.0966 58.2061 25.4256C58.4216 25.5391 58.7011 25.7662 58.8117 25.9292C59.0679 26.2786 59.7463 27.6877 59.7463 27.8508C59.7463 27.9236 59.1698 28.0546 58.2876 28.2002C51.8243 29.2192 46.5225 30.7477 42.4844 32.7711C41.5036 33.2359 40.5679 33.7904 39.6894 34.4277C38.9994 34.9518 39.0722 35.0973 38.8247 32.7624C38.65 31.1815 38.65 31.0883 38.8247 30.6254C38.9907 30.1945 39.0809 30.1101 39.6894 29.8044C41.1201 29.1476 42.5847 28.5674 44.0769 28.0662C46.8195 27.1928 49.5621 26.5232 53.2188 25.8361H53.2218ZM43.253 18.8981H43.3578C43.416 18.8981 43.6024 19.1893 43.7887 19.527C44.6621 21.1196 46.4294 26.0428 46.2139 26.2582C46.0712 26.3417 45.9125 26.3943 45.7481 26.4125L45.39 26.4737L45.0406 25.7225L44.8659 25.347C43.8178 23.1634 41.937 20.1879 41.7129 20.4004C41.6837 20.4295 41.7536 20.7294 41.8672 21.0701C42.3912 22.5694 43.0987 25.9292 43.0987 26.8842C43.0987 27.1724 43.0492 27.2627 42.8425 27.3588C42.7167 27.4227 42.5808 27.464 42.4407 27.481C42.3825 27.481 42.0418 27.1113 41.7129 26.66C41.3839 26.2058 41.0753 25.8681 41.0345 25.9089C41.0054 25.9613 40.9006 26.4737 40.8074 27.0589C40.6531 28.1186 40.4988 28.4855 40.3357 28.2234C40.295 28.1478 40.2018 27.1113 40.1319 25.9089C40.0968 25.0854 40.0386 24.2631 39.9573 23.4429C39.9252 23.2886 39.9456 23.1663 39.9951 23.1663C40.0475 23.1663 40.4493 23.504 40.8802 23.9233C41.3111 24.3367 41.6808 24.654 41.7012 24.6133C41.7856 24.459 40.6735 21.1399 39.9747 19.4542C39.9165 19.3116 40.0155 19.2591 40.6036 19.1689C41.3111 19.0437 43.1715 18.869 43.3578 18.901L43.253 18.8981ZM34.8885 21.0992C35.7124 20.5751 36.4111 20.4004 36.8711 20.5868C37.0109 20.6363 37.0458 20.7323 37.0487 21.4398V22.0949C37.0412 22.8184 37.0169 23.5416 36.976 24.2639L36.9032 24.9918L34.9933 24.9423L34.213 24.9306C32.6235 24.9074 31.0386 25.1083 29.5052 25.5275C28.856 25.6934 28.262 25.8477 28.1892 25.8565C28.1165 25.8768 28.0437 25.8157 28.0262 25.7342C27.9622 25.3644 30.3262 23.6787 32.9756 22.1997C33.7705 21.7455 34.6323 21.2535 34.8885 21.0992ZM45.224 18.8486L45.8442 19.8967L46.048 20.2461C47.0932 22.0861 48.546 25.1664 48.546 25.5682C48.546 25.7429 47.856 25.9176 47.7337 25.7749C47.6285 25.5987 47.5388 25.4136 47.4658 25.2218C46.7056 23.5164 45.8702 21.8455 44.962 20.2141C44.7049 19.7841 44.4612 19.3462 44.2312 18.901C44.2312 18.8719 44.4554 18.8486 44.7233 18.8486H45.227H45.224ZM47.1165 18.9505H47.2824C47.6609 18.9505 48.8255 19.0233 49.862 19.1048C50.8897 19.1893 51.8417 19.2795 51.9873 19.3116L52.5026 19.4135C52.8229 19.4862 53.0674 19.8793 53.7866 21.4194C54.2582 22.4559 54.957 24.2959 54.8871 24.3454C53.6462 24.5387 52.4096 24.7581 51.1779 25.0034C49.8387 25.2829 49.5737 25.2829 49.5737 24.983C49.5737 24.7676 47.9491 21.4311 47.2737 20.2578C46.4498 18.8486 46.4498 18.9505 47.2824 18.9505H47.1165Z" fill="white"/>
<path d="M49.0096 31.868C49.2658 32.494 49.3997 33.1636 49.5337 34.5699C49.6676 36.0722 49.9121 38.148 50.0577 39.0098C50.1189 39.4523 50.2935 39.5455 50.2935 39.1437C50.2935 38.9981 50.2208 38.4333 50.1392 37.8802C50.0222 36.9501 49.9194 36.0183 49.8306 35.0852C49.7668 34.3351 49.6775 33.5874 49.5628 32.8434C49.4318 32.2174 49.193 31.6934 49.0504 31.6934C48.9776 31.6934 48.9688 31.7661 49.0096 31.868ZM51.2194 43.8923C51.2194 44.3435 52.6576 47.6509 53.1293 48.2798C53.4495 48.7194 53.3651 48.3206 52.9953 47.6509C52.4598 46.6855 52.0022 45.6788 51.627 44.6405C51.3941 43.9825 51.2194 43.6652 51.2194 43.8923Z" fill="white"/>
<path d="M39.0606 16.2564C47.1795 14.2752 55.7525 15.5834 62.9111 19.8957C67.4529 22.5976 71.6163 26.8512 74.1958 31.4338C76.9908 36.3774 78.3591 41.4928 78.3591 46.9808C78.3679 50.7104 77.8846 53.712 76.7433 57.133C75.6598 60.3248 74.0895 63.3299 72.0879 66.042C70.438 68.1536 68.5745 70.0893 66.5271 71.8182C61.4612 75.9175 55.5946 78.2612 48.9071 78.8261C41.7857 79.4433 33.9132 77.2335 28.0554 72.9799C21.1611 67.9839 16.5989 60.7402 15.1577 52.53C13.6089 43.6938 16.0137 34.3918 21.6735 27.3548C22.547 26.266 24.5413 24.1988 25.7641 23.1216C29.4325 19.8841 34.1898 17.4268 39.0606 16.2564ZM48.4442 17.9014C45.3246 17.707 42.1939 18.0017 39.1654 18.7748C35.5378 19.7181 31.3628 21.7532 28.7134 23.8698L27.6361 24.7229C26.3202 25.7419 23.4524 28.8862 22.3723 30.4992C18.8786 35.7106 17.2045 41.1346 17.2045 47.1963C17.2045 52.0671 18.1915 56.146 20.4624 60.5888C23.2172 65.9807 27.5951 70.3719 32.9786 73.1429C36.4723 74.9422 40.3766 76.0718 44.1294 76.3688C50.5812 76.8841 56.6224 75.3848 62.3259 71.859C64.9578 70.2344 68.3263 67.1221 70.0121 64.7697C73.1564 60.3588 74.8945 56.178 75.6311 51.2024C75.899 49.4264 75.9106 44.576 75.6428 43.0038C74.7198 37.4051 72.3965 32.2257 69.0979 28.403C68.7776 28.0332 68.3787 27.5586 68.2128 27.3636C67.1993 26.2475 66.096 25.2163 64.9141 24.2804C61.8862 21.9599 59.5717 20.6847 56.0983 19.4299C53.7459 18.5885 51.4429 18.1256 48.4412 17.9014H48.4442Z" fill="white"/>
</g>
<defs>
<clipPath id="clip0_342_5785">
<rect width="93.1659" height="93.1659" fill="white" transform="translate(0.141602 0.796875)"/>
</clipPath>
</defs>
</svg>
