<svg width="94" height="94" viewBox="0 0 94 94" fill="none" xmlns="http://www.w3.org/2000/svg">
<g clip-path="url(#clip0_342_5792)">
<path d="M47.2387 93.9627C72.9661 93.9627 93.8216 73.1072 93.8216 47.3798C93.8216 21.6524 72.9661 0.796875 47.2387 0.796875C21.5113 0.796875 0.655762 21.6524 0.655762 47.3798C0.655762 73.1072 21.5113 93.9627 47.2387 93.9627Z" fill="#2B6680"/>
<path d="M15.2125 47.3793C15.1961 55.873 18.5546 64.0254 24.549 70.0429C30.5435 76.0605 38.6828 79.4503 47.1766 79.4667C55.6704 79.483 63.8227 76.1245 69.8403 70.1301C75.8578 64.1357 79.2477 55.9963 79.264 47.5025V47.257C79.253 44.792 78.959 42.3365 78.3877 39.9386C78.2907 39.4921 78.1056 39.0695 77.8432 38.6954C77.5809 38.3213 77.2466 38.0033 76.8598 37.76C76.4731 37.5167 76.0417 37.353 75.5909 37.2785C75.1401 37.204 74.679 37.2201 74.2345 37.3259C73.7901 37.4318 73.3712 37.6253 73.0024 37.895C72.6336 38.1647 72.3223 38.5053 72.0868 38.8968C71.8512 39.2883 71.6961 39.7229 71.6305 40.175C71.565 40.6272 71.5903 41.0879 71.7049 41.5302C72.9814 46.8616 72.4823 52.464 70.2834 57.4857C68.0845 62.5075 64.3061 66.674 59.5225 69.3519C54.739 72.0298 49.2119 73.0726 43.7815 72.3218C38.3511 71.571 33.3143 69.0677 29.4367 65.1924C25.5592 61.3171 23.053 56.2817 22.2991 50.8517C21.5452 45.4217 22.5849 39.894 25.26 35.1089C27.9351 30.3239 32.0994 26.5431 37.1199 24.3413C42.1404 22.1395 47.7426 21.6372 53.0747 22.9106C53.9535 23.1015 54.8722 22.9402 55.6334 22.4614C56.3946 21.9825 56.9377 21.2242 57.1461 20.3494C57.3544 19.4745 57.2114 18.5528 56.7478 17.7822C56.2841 17.0117 55.5368 16.4536 54.6663 16.2279C49.9608 15.1051 45.0621 15.0631 40.3381 16.1049C35.6141 17.1467 31.1875 19.2453 27.3907 22.2431C23.594 25.2409 20.5258 29.0599 18.4166 33.4134C16.3073 37.7669 15.2119 42.5417 15.2125 47.3793Z" fill="white"/>
<path d="M63.4264 23.9538C63.3798 23.9975 63.3497 24.0489 63.306 24.0955C62.5252 24.9232 62.0459 25.9899 61.9454 27.1234V27.6678C61.9454 27.794 61.9183 27.9153 61.9047 28.0405C61.7704 29.3962 61.335 30.7048 60.6303 31.8707C59.9255 33.0366 58.9692 34.0303 57.8313 34.7793C56.6933 35.5283 55.4024 36.0137 54.0528 36.1999C52.7033 36.3861 51.3292 36.2686 50.0309 35.8557C48.1347 35.3935 46.1535 35.4096 44.2651 35.9026C42.3767 36.3955 40.6403 37.3498 39.212 38.6798C39.0955 38.7885 38.9674 38.8807 38.8529 38.9952C36.6305 41.2175 35.3819 44.2316 35.3818 47.3745C35.3817 50.5174 36.6302 53.5315 38.8524 55.7539C41.0747 57.9763 44.0888 59.2249 47.2317 59.225C50.3745 59.2251 53.3887 57.9767 55.6111 55.7544C56.1012 55.2575 56.5457 54.716 56.9387 54.1386C57.8955 52.7688 58.5516 51.2122 58.8641 49.5709C59.1765 47.9296 59.1382 46.2407 58.7516 44.6153C58.6855 44.4024 58.6272 44.1871 58.5769 43.9699C58.5769 43.9379 58.5575 43.9078 58.5497 43.8748C58.2548 42.5967 58.2381 41.2701 58.5008 39.9849C58.7634 38.6998 59.2994 37.4861 60.0723 36.4263C60.8451 35.3664 61.8368 34.4851 62.9802 33.8422C64.1235 33.1992 65.3917 32.8096 66.6988 32.6998C66.7668 32.6998 66.8328 32.6803 66.9007 32.6784C67.0938 32.6784 67.287 32.6561 67.4801 32.6561H67.5267C68.7099 32.5472 69.8173 32.0261 70.6555 31.1839C70.8544 30.9781 71.0359 30.7559 71.1989 30.5201C71.9352 29.4765 72.2535 28.1948 72.091 26.928C71.9286 25.6612 71.2971 24.5014 70.3214 23.6773C69.3456 22.8533 68.0964 22.425 66.8203 22.4769C65.5442 22.5288 64.3339 23.0571 63.4283 23.9577" fill="white"/>
</g>
<defs>
<clipPath id="clip0_342_5792">
<rect width="93.1659" height="93.1659" fill="white" transform="translate(0.655273 0.796875)"/>
</clipPath>
</defs>
</svg>
