<svg width="94" height="94" viewBox="0 0 94 94" fill="none" xmlns="http://www.w3.org/2000/svg">
<g clip-path="url(#clip0_342_5797)">
<path d="M46.7519 93.9627C72.4789 93.9627 93.3348 73.1069 93.3348 47.3798C93.3348 21.6528 72.4789 0.796875 46.7519 0.796875C21.0248 0.796875 0.168945 21.6528 0.168945 47.3798C0.168945 73.1069 21.0248 93.9627 46.7519 93.9627Z" fill="#188C92"/>
<path d="M63.7429 62.0238C63.5783 62.26 63.4811 62.5364 63.4616 62.8237C63.4421 63.1109 63.5011 63.398 63.6323 63.6542L46.3791 77.1574C46.1561 76.9816 45.8931 76.8636 45.6134 76.8139L45.0894 43.577C45.274 43.5381 45.4511 43.4693 45.6134 43.3731L63.7429 62.0267V62.0238ZM64.2262 61.5638L46.1113 42.9248C46.2563 42.7295 46.3545 42.5035 46.3984 42.2642C46.4423 42.025 46.4308 41.7788 46.3646 41.5448L64.7823 32.5776C65.022 32.8706 65.3532 33.0747 65.7227 33.1569L64.8056 61.3338C64.6009 61.3759 64.4056 61.4548 64.2291 61.5667L64.2262 61.5638ZM44.6032 76.9274L34.8499 63.8172C35.1388 63.519 35.3006 63.1203 35.3011 62.7051C35.2937 62.2908 35.132 61.8941 34.8478 61.5926C34.5635 61.2912 34.177 61.1065 33.7639 61.0747L30.7185 33.5121C31.0799 33.4298 31.4031 33.2282 31.636 32.9398C31.8689 32.6515 31.998 32.2931 32.0025 31.9225C32.0021 31.5436 31.8669 31.1772 31.6211 30.8889L43.8637 17.7496C44.0209 17.837 44.1956 17.9039 44.3819 17.9418V40.3715C44.0044 40.4396 43.6623 40.637 43.4143 40.9296C43.1662 41.2223 43.0276 41.5921 43.0223 41.9757C43.0285 42.3637 43.1706 42.7373 43.4238 43.0315C43.677 43.3256 44.0253 43.5217 44.4081 43.5857L44.9322 76.8226C44.8203 76.8467 44.711 76.8818 44.6061 76.9274H44.6032ZM45.0632 40.3715V17.9447C45.3577 17.8863 45.6317 17.7518 45.858 17.5546L64.5698 30.8744C64.3997 31.2241 64.3645 31.6242 64.4708 31.9982L46.056 40.9654C45.8035 40.6593 45.4526 40.4504 45.0632 40.3744V40.3715ZM44.7225 15.3535C45.2844 15.3535 45.7415 15.7931 45.7415 16.3347C45.7393 16.4662 45.7111 16.596 45.6587 16.7166C45.6062 16.8373 45.5305 16.9464 45.4359 17.0378C45.3413 17.1292 45.2296 17.201 45.1072 17.2492C44.9848 17.2974 44.8541 17.321 44.7225 17.3187C44.591 17.321 44.4603 17.2974 44.3379 17.2492C44.2155 17.201 44.1038 17.1292 44.0092 17.0378C43.9146 16.9464 43.8389 16.8373 43.7864 16.7166C43.734 16.596 43.7058 16.4662 43.7035 16.3347C43.7035 15.7931 44.1577 15.3535 44.7225 15.3535ZM30.3022 30.9413C30.867 30.9413 31.3212 31.378 31.3212 31.9225C31.3189 32.054 31.2908 32.1838 31.2383 32.3044C31.1859 32.4251 31.1102 32.5342 31.0156 32.6256C30.9209 32.717 30.8092 32.7888 30.6868 32.837C30.5644 32.8852 30.4337 32.9089 30.3022 32.9065C30.1707 32.9089 30.04 32.8852 29.9176 32.837C29.7952 32.7888 29.6835 32.717 29.5889 32.6256C29.4942 32.5342 29.4185 32.4251 29.3661 32.3044C29.3136 32.1838 29.2855 32.054 29.2832 31.9225C29.2832 31.381 29.7403 30.9413 30.3022 30.9413ZM33.6009 61.721C34.1657 61.721 34.6199 62.1606 34.6199 62.7051C34.6145 62.9702 34.5042 63.2224 34.3132 63.4063C34.1222 63.5902 33.866 63.6909 33.6009 63.6862C33.3357 63.6909 33.0795 63.5902 32.8885 63.4063C32.6975 63.2224 32.5872 62.9702 32.5819 62.7051C32.5819 62.1606 33.039 61.721 33.6009 61.721ZM66.1128 30.5803C66.6747 30.5803 67.1318 31.0199 67.1318 31.5615C67.1296 31.693 67.1014 31.8228 67.049 31.9434C66.9965 32.0641 66.9208 32.1732 66.8262 32.2646C66.7316 32.356 66.6199 32.4278 66.4975 32.476C66.3751 32.5242 66.2444 32.5478 66.1128 32.5455C65.9813 32.5478 65.8506 32.5242 65.7282 32.476C65.6058 32.4278 65.4941 32.356 65.3995 32.2646C65.3049 32.1732 65.2292 32.0641 65.1767 31.9434C65.1243 31.8228 65.0961 31.693 65.0938 31.5615C65.0938 31.0199 65.548 30.5803 66.1128 30.5803ZM44.7225 40.9945C45.2844 40.9945 45.7415 41.4312 45.7415 41.9757C45.7393 42.1072 45.7111 42.237 45.6587 42.3576C45.6062 42.4783 45.5305 42.5874 45.4359 42.6788C45.3413 42.7702 45.2296 42.842 45.1072 42.8902C44.9848 42.9384 44.8541 42.962 44.7225 42.9597C44.591 42.962 44.4603 42.9384 44.3379 42.8902C44.2155 42.842 44.1038 42.7702 44.0092 42.6788C43.9146 42.5874 43.8389 42.4783 43.7864 42.3576C43.734 42.237 43.7058 42.1072 43.7035 41.9757C43.7035 41.4341 44.1577 40.9945 44.7225 40.9945ZM45.299 77.4398C45.8638 77.4398 46.318 77.8795 46.318 78.4239C46.3126 78.689 46.2024 78.9412 46.0113 79.1251C45.8203 79.3091 45.5641 79.4097 45.299 79.4051C45.0339 79.4097 44.7777 79.3091 44.5867 79.1251C44.3956 78.9412 44.2854 78.689 44.28 78.4239C44.28 77.8795 44.7371 77.4398 45.299 77.4398ZM65.1608 61.951C65.7227 61.951 66.1798 62.3906 66.1798 62.9351C66.1744 63.2002 66.0642 63.4524 65.8731 63.6363C65.6821 63.8202 65.4259 63.9209 65.1608 63.9162C64.8957 63.9209 64.6395 63.8202 64.4485 63.6363C64.2574 63.4524 64.1472 63.2002 64.1418 62.9351C64.1418 62.3906 64.596 61.951 65.1608 61.951Z" fill="white"/>
</g>
<defs>
<clipPath id="clip0_342_5797">
<rect width="93.1659" height="93.1659" fill="white" transform="translate(0.169922 0.796875)"/>
</clipPath>
</defs>
</svg>
