<svg width="94" height="94" viewBox="0 0 94 94" fill="none" xmlns="http://www.w3.org/2000/svg">
<g clip-path="url(#clip0_342_5801)">
<path d="M47.2665 93.9627C72.9936 93.9627 93.8495 73.1069 93.8495 47.3798C93.8495 21.6528 72.9936 0.796875 47.2665 0.796875C21.5395 0.796875 0.683594 21.6528 0.683594 47.3798C0.683594 73.1069 21.5395 93.9627 47.2665 93.9627Z" fill="#00AEEF"/>
<path d="M46.5679 43.612C47.2608 43.4926 47.8722 43.2335 48.4079 42.8404C48.9436 42.4474 49.4502 41.7836 49.9247 40.8752L60.4787 20.533C60.8921 19.8517 61.3987 19.3102 61.981 18.8851C62.5792 18.4713 63.2917 18.2545 64.019 18.265H70.7124L57.5702 42.1912C56.9879 43.1752 56.327 43.9759 55.5904 44.596C54.8544 45.208 54.0155 45.6841 53.1128 46.0022C54.5219 46.3662 55.701 46.9572 56.6647 47.7869C57.6138 48.6021 58.5193 49.7551 59.3607 51.237L72.0138 76.4937H64.6479C63.1601 76.4937 61.9635 75.693 61.061 74.1063L50.6905 52.7044C50.1547 51.7494 49.5725 51.071 48.9436 50.6605C48.3176 50.2529 47.5199 50.0113 46.5708 49.9501V60.8098H40.7799V49.9036H36.5234V76.4937H28.3423V18.265H36.5234V43.7051H40.7799V31.1219H46.5708V43.612H46.5679Z" fill="white"/>
</g>
<defs>
<clipPath id="clip0_342_5801">
<rect width="93.1659" height="93.1659" fill="white" transform="translate(0.683594 0.796875)"/>
</clipPath>
</defs>
</svg>
