<svg width="94" height="94" viewBox="0 0 94 94" fill="none" xmlns="http://www.w3.org/2000/svg">
<g clip-path="url(#clip0_342_5805)">
<path d="M46.7812 93.9627C72.5082 93.9627 93.3641 73.1069 93.3641 47.3798C93.3641 21.6528 72.5082 0.796875 46.7812 0.796875C21.0541 0.796875 0.198242 21.6528 0.198242 47.3798C0.198242 73.1069 21.0541 93.9627 46.7812 93.9627Z" fill="#006149"/>
<path d="M70.5851 50.8269L68.2647 50.2475L68.9692 47.4234L76.2041 49.2314L74.399 56.4663L71.572 55.7617L72.198 53.2521L46.3678 69.2446L17.7222 54.932V44.0083L47.4887 25.3926L74.7834 38.7066V43.2018L46.3707 60.8538L25.2715 50.3931L26.5642 47.7844L46.2135 57.5261L71.8719 41.5831V40.5262L47.6634 28.7174L20.6365 45.6212V53.1327L46.2193 65.9139L70.5851 50.8269Z" fill="white"/>
</g>
<defs>
<clipPath id="clip0_342_5805">
<rect width="93.1659" height="93.1659" fill="white" transform="translate(0.197266 0.796875)"/>
</clipPath>
</defs>
</svg>
