<svg width="94" height="94" viewBox="0 0 94 94" fill="none" xmlns="http://www.w3.org/2000/svg">
<g clip-path="url(#clip0_342_5809)">
<path d="M47.2948 93.9627C73.0219 93.9627 93.8778 73.1069 93.8778 47.3798C93.8778 21.6528 73.0219 0.796875 47.2948 0.796875C21.5678 0.796875 0.711914 21.6528 0.711914 47.3798C0.711914 73.1069 21.5678 93.9627 47.2948 93.9627Z" fill="#0FA9C9"/>
<path d="M50.6337 60.3232L34.7664 76.4933L30.242 71.5293L41.2385 60.3203L29.8257 48.695L34.6965 43.728L50.6337 60.3232ZM59.8921 51.0328L64.7629 46.0659L53.3501 34.4347L64.3465 23.2286L59.8222 18.2646L43.885 34.4347L59.8921 51.0328ZM36.717 41.8123L52.7241 58.4075L57.5949 53.4435L41.5879 37.1307L36.717 41.8123Z" fill="white"/>
</g>
<defs>
<clipPath id="clip0_342_5809">
<rect width="93.1659" height="93.1659" fill="white" transform="translate(0.711426 0.796875)"/>
</clipPath>
</defs>
</svg>
