<svg width="94" height="94" viewBox="0 0 94 94" fill="none" xmlns="http://www.w3.org/2000/svg">
<g clip-path="url(#clip0_342_5813)">
<path d="M46.8085 93.9627C72.5356 93.9627 93.3915 73.1069 93.3915 47.3798C93.3915 21.6528 72.5356 0.796875 46.8085 0.796875C21.0815 0.796875 0.225586 21.6528 0.225586 47.3798C0.225586 73.1069 21.0815 93.9627 46.8085 93.9627Z" fill="#11021E"/>
<path d="M32.0451 42.6221H32.0742L32.5197 42.7909L32.9943 42.9569L33.4397 43.1258L33.9143 43.3208L34.3597 43.4897L34.8343 43.6265L35.2826 43.7954L35.7281 43.9905L36.6219 44.3253L37.0965 44.465L37.5419 44.6601L38.0165 44.8289L38.4648 44.9949L38.9394 45.1638L39.3849 45.3297L39.8594 45.4986L40.3049 45.6645L40.7794 45.8334L41.2278 46.0285L41.7024 46.1682V39.6641H31.4017L30.9563 39.8882L29.8965 40.4472L28.8076 41.0033L27.7479 41.5623L26.6852 42.1213L25.5963 42.6803L24.5103 43.2364L23.4477 43.7954L22.3879 44.3544L21.299 44.9105L20.2393 45.4695L19.261 45.9993L19.1504 61.9948L20.2393 62.7488L21.299 63.5029L22.3879 64.2278L24.5103 65.736L25.5963 66.4871L26.0709 66.851L26.6852 66.097L27.7479 64.6995L27.8294 64.5626L27.7479 64.4782L26.6852 63.7242L25.5963 62.9439L24.5103 62.1898L23.4477 61.4358L22.3879 60.6846L22.0822 60.4866L22.1637 47.5657L22.3879 47.4551L23.4477 46.9252L24.5103 46.3662L25.5963 45.8625L26.6852 45.3064L27.7479 44.7736L28.8076 44.2437L29.8965 43.7139L30.9563 43.184L32.0451 42.6221Z" fill="white"/>
<path d="M50.5209 73.1539L49.598 73.5179L48.5936 73.908L47.5891 74.3273L46.5847 74.7174L46.1392 74.9125L45.6094 74.6359L44.602 74.1322L43.6267 73.6285L42.6222 73.1277L41.6178 72.6241L40.6133 72.1233L39.6089 71.6196L38.6015 71.0897L37.5971 70.6152L36.6218 70.0853L35.6173 69.5816L34.6391 69.11L33.6346 68.5772L33.524 68.5219V55.4903H30.6213V70.3095L34.6391 72.3184L35.6173 72.8191L36.6218 73.3519L37.5971 73.8265L38.6015 74.3564L39.6089 74.8571L40.6133 75.3317L41.6178 75.8616L43.6267 76.866L44.602 77.3697L45.9995 78.0684L46.5847 77.8152L47.5891 77.425L48.5936 77.0349L49.598 76.6156L50.6025 76.1964L51.6098 75.8354L50.6025 73.3228L50.5209 73.1539ZM68.3535 54.9866L68.4117 61.153L68.1322 61.351L66.429 62.5505L64.7549 63.7791L63.0518 64.9786L61.3486 66.2073L59.6192 67.3777L57.9451 68.6063L56.2419 69.8349L55.2375 70.5599L54.5387 70.0009L52.8646 68.7198L51.1615 67.4068L49.4583 66.1228L47.7842 64.8127L47.4785 64.6147V57.9766L47.7842 57.6971L49.4583 55.9095L51.1615 54.151L52.8646 52.3663L54.5387 50.6078L56.1866 48.8784H35.8968L37.5971 50.6631L39.2741 52.4216L41.0035 54.1801L42.7067 55.9648L44.3807 57.7233L44.602 57.9766V66.0122L46.0839 67.1564L47.7842 68.4403L49.4583 69.7534L51.1615 71.0344L52.8646 72.3475L54.5387 73.6314L55.1792 74.1351L56.2419 73.3548L57.9451 72.1524L59.6192 70.9267L61.3486 69.7243L63.0518 68.5248L64.7549 67.3253L66.429 66.0966L68.1322 64.8971L69.8325 63.6976L71.23 62.664L71.5066 55.1001L69.8325 55.0448L68.3535 54.9866ZM21.9132 40.7235H22.1083L22.1374 32.5191L23.2525 31.8203L24.5917 31.0139L25.9601 30.2045L27.2702 29.3369L28.6386 28.5275L29.9779 27.6919L31.3171 26.8825L32.6564 26.0732L33.9956 25.2347L35.364 24.4253L35.3931 24.3962L36.6771 25.1531L38.0455 25.9043L40.724 27.4677L42.0632 28.2218L43.4316 28.9758L44.7417 29.7561L46.0548 30.484L46.113 30.3704L47.4523 27.9714L46.113 27.1882L44.7447 26.4342L43.4316 25.683L42.0632 24.926L40.724 24.1196L39.3847 23.3655L38.0455 22.6115L36.6771 21.8574L35.3669 21.1033L35.3087 21.0742L33.9986 21.8603L32.6593 22.6959L31.32 23.5053L29.9808 24.3408L28.6415 25.1502L27.2731 25.9596L25.9601 26.7981L24.5917 27.6075L23.2525 28.446L21.9132 29.2816L20.5739 30.0909L19.2638 30.9003L19.2056 40.6973H20.5739L21.9132 40.7235Z" fill="white"/>
<path d="M74.38 33.1886L73.7104 32.6588L72.9883 32.0736L72.2896 31.5146L71.5908 30.9556L70.8921 30.3733L70.1933 29.8405L69.4713 29.2815L68.7726 28.6963L68.0447 28.1373L67.5439 27.7181L67.3489 27.9422L66.6501 28.8069L65.9252 29.7007L65.7592 29.9511L65.9252 30.1462L66.653 30.7343L67.3518 31.2904L68.0476 31.9047L68.7726 32.4928L69.4713 33.0751L70.1963 33.6923L70.895 34.2775L71.2298 34.557L71.2589 47.7574L70.895 47.9816L70.1963 48.4562L69.4684 48.8754L68.7726 49.35L68.0447 49.7663L67.3489 50.2409L66.6501 50.6601L65.9252 51.1347L65.2264 51.554L64.5277 52.0285L63.8319 52.4478L63.1331 52.9223L62.4082 53.3387L61.7094 53.8132L61.0136 54.2325L60.3149 54.707L59.5899 55.1263L60.3178 56.2414L61.0165 57.3856L61.1533 57.5806L61.7123 57.2196L62.4111 56.7712L63.136 56.3549L63.8348 55.9066L64.5306 55.4611L65.2294 55.0156L65.9281 54.5964L66.6501 54.148L67.3489 53.7317L68.0476 53.2833L68.7726 52.8379L69.4713 52.3895L70.1963 51.9732L70.895 51.5248L71.5938 51.1085L72.2896 50.6601L72.9883 50.2147L73.7133 49.7663L74.412 49.35L74.38 33.1886ZM51.3855 41.0612V46.7821L51.6097 46.6948L52.5297 46.3076L53.4788 45.9436L54.3988 45.5535L55.348 45.1896L56.2971 44.7994L57.2171 44.4093L58.1662 44.0454L59.1153 43.6552L60.0383 43.2913L60.9845 42.9012L61.9074 42.5402V25.2346L60.8476 24.5941L59.7588 23.9798L58.6961 23.3393L57.6101 22.6958L56.5213 22.0815L55.4324 21.441L54.3726 20.7976L53.3099 20.1862L52.2211 19.5427L51.1351 18.9022L50.0462 18.285L48.9836 17.6445L47.9238 17.004L46.8349 16.3868L46.2788 16.0811L45.749 16.3314L44.6601 16.9458L43.5974 17.5047L42.5376 18.0899L41.4488 18.7043L40.3599 19.2633L39.2739 19.8484L40.3599 20.489L41.4488 21.1033L42.1184 21.4963L42.5376 21.3013L43.5974 20.7131L44.6601 20.1571L45.749 19.5981L46.1944 19.3739L46.8349 19.7378L47.9238 20.3783L50.0462 21.607L52.2211 22.8909L53.3099 23.5023L55.4324 24.7892L56.5213 25.4006L58.6961 26.6874L59.0309 26.8534V39.6083H51.4117" fill="white"/>
<path d="M51.3857 46.7822L61.9077 42.5402L51.3566 39.6084L51.3857 46.7822ZM41.7023 46.7822V39.719L32.0713 42.5955L41.7023 46.7531" fill="white"/>
</g>
<defs>
<clipPath id="clip0_342_5813">
<rect width="93.1659" height="93.1659" fill="white" transform="translate(0.225586 0.796875)"/>
</clipPath>
</defs>
</svg>
