<svg width="94" height="94" viewBox="0 0 94 94" fill="none" xmlns="http://www.w3.org/2000/svg">
<g clip-path="url(#clip0_342_5821)">
<path d="M47.3227 93.9627C73.0497 93.9627 93.9056 73.1069 93.9056 47.3798C93.9056 21.6528 73.0497 0.796875 47.3227 0.796875C21.5956 0.796875 0.739746 21.6528 0.739746 47.3798C0.739746 73.1069 21.5956 93.9627 47.3227 93.9627Z" fill="white"/>
<path d="M47.3226 13.1621L41.0424 16.7744L23.9338 26.6627L17.679 30.2708V64.488L23.9549 68.0961L41.2245 77.9886L47.5005 81.5967L53.7807 77.9886L70.72 68.0961L76.996 64.488V30.2708L70.72 26.6627L53.6113 16.7744L47.3226 13.1621ZM30.214 57.2677V37.4911L47.3226 27.6028L64.4313 37.4911V57.2677L47.3226 67.156L30.214 57.2677Z" fill="#2A5ADA"/>
</g>
<defs>
<clipPath id="clip0_342_5821">
<rect width="93.1659" height="93.1659" fill="white" transform="translate(0.739502 0.796875)"/>
</clipPath>
</defs>
</svg>
