<svg width="94" height="94" viewBox="0 0 94 94" fill="none" xmlns="http://www.w3.org/2000/svg">
<g clip-path="url(#clip0_342_5824)">
<path d="M46.8354 93.9627C72.5624 93.9627 93.4183 73.1069 93.4183 47.3798C93.4183 21.6528 72.5624 0.796875 46.8354 0.796875C21.1083 0.796875 0.252441 21.6528 0.252441 47.3798C0.252441 73.1069 21.1083 93.9627 46.8354 93.9627Z" fill="#2A5ADA"/>
<path d="M46.8356 18.2646L41.5979 21.3362L27.329 29.7503L22.0884 32.8218V61.9361L27.326 65.0077L41.7289 73.4218L46.9666 76.4933L52.2042 73.4218L66.3451 65.0077L71.5827 61.9361V32.8218L66.3451 29.7503L52.0732 21.3362L46.8356 18.2646ZM32.5637 55.793V38.9649L46.8356 30.5509L61.1074 38.9649V55.793L46.8356 64.2071L32.5637 55.793Z" fill="white"/>
</g>
<defs>
<clipPath id="clip0_342_5824">
<rect width="93.1659" height="93.1659" fill="white" transform="translate(0.253418 0.796875)"/>
</clipPath>
</defs>
</svg>
