<svg width="94" height="94" viewBox="0 0 94 94" fill="none" xmlns="http://www.w3.org/2000/svg">
<g clip-path="url(#clip0_342_5828)">
<path d="M47.3505 93.9627C73.0776 93.9627 93.9334 73.1069 93.9334 47.3798C93.9334 21.6528 73.0776 0.796875 47.3505 0.796875C21.6235 0.796875 0.767578 21.6528 0.767578 47.3798C0.767578 73.1069 21.6235 93.9627 47.3505 93.9627Z" fill="#9D01EB"/>
<path d="M29.8964 76.4936V65.8494L47.3505 48.078L64.7492 65.8523V76.4936L47.3505 58.7164L29.8964 76.4936ZM15.3247 40.4879H39.9816L47.3505 48.078H22.6935L15.3247 40.4879ZM79.3762 40.4879L72.0074 48.0751H47.3505V15.3535L54.7193 22.8825V40.4879H79.3762Z" fill="white"/>
</g>
<defs>
<clipPath id="clip0_342_5828">
<rect width="93.1659" height="93.1659" fill="white" transform="translate(0.767578 0.796875)"/>
</clipPath>
</defs>
</svg>
