<svg width="94" height="94" viewBox="0 0 94 94" fill="none" xmlns="http://www.w3.org/2000/svg">
<g clip-path="url(#clip0_342_5832)">
<path d="M46.8649 93.9627C72.592 93.9627 93.4479 73.1069 93.4479 47.3798C93.4479 21.6528 72.592 0.796875 46.8649 0.796875C21.1379 0.796875 0.281982 21.6528 0.281982 47.3798C0.281982 73.1069 21.1379 93.9627 46.8649 93.9627Z" fill="#48BEFF"/>
<path d="M64.8975 77.1895L17.1966 43.7225C15.5712 42.582 14.2443 41.0667 13.3283 39.3049C12.4123 37.5431 11.9341 35.5866 11.9341 33.6009C11.9341 31.6152 12.4123 29.6587 13.3283 27.897C14.2443 26.1352 15.5712 24.6199 17.1966 23.4793L28.755 15.3535L76.4618 48.8175C78.0872 49.9581 79.414 51.4734 80.3301 53.2352C81.2461 54.997 81.7243 56.9534 81.7243 58.9391C81.7243 60.9248 81.2461 62.8813 80.3301 64.6431C79.414 66.4049 78.0872 67.9202 76.4618 69.0607L64.8975 77.1895ZM28.7434 20.7775L19.7383 27.0779C18.6908 27.8103 17.8355 28.7847 17.2449 29.9182C16.6543 31.0518 16.3459 32.3111 16.3459 33.5893C16.3459 34.8675 16.6543 36.1268 17.2449 37.2603C17.8355 38.3939 18.6908 39.3683 19.7383 40.1007L64.9063 71.7684L73.9143 65.468C74.9618 64.7356 75.8171 63.7612 76.4077 62.6277C76.9983 61.4941 77.3066 60.2348 77.3066 58.9566C77.3066 57.6784 76.9983 56.4191 76.4077 55.2855C75.8171 54.152 74.9618 53.1776 73.9143 52.4452L28.7434 20.7775Z" fill="white"/>
<path d="M28.706 71.7687L19.7097 65.4596C18.6621 64.7272 17.8068 63.7529 17.2162 62.6193C16.6257 61.4857 16.3173 60.2264 16.3173 58.9482C16.3173 57.67 16.6257 56.4107 17.2162 55.2772C17.8068 54.1436 18.6621 53.1692 19.7097 52.4368L43.0011 36.1823L39.158 33.4805L17.1942 48.8179C15.5687 49.9585 14.2419 51.4737 13.3259 53.2355C12.4099 54.9973 11.9316 56.9538 11.9316 58.9395C11.9316 60.9252 12.4099 62.8817 13.3259 64.6435C14.2419 66.4053 15.5687 67.9205 17.1942 69.0611L28.7147 77.152L42.972 67.1687L39.1464 64.4727L28.706 71.7687ZM76.4739 23.4972L64.9446 15.4121L50.6786 25.3954L54.5042 28.0885L64.9271 20.7953L73.9235 27.1044C74.971 27.8369 75.8263 28.8112 76.4169 29.9448C77.0075 31.0784 77.3158 32.3377 77.3158 33.6158C77.3158 34.894 77.0075 36.1533 76.4169 37.2869C75.8263 38.4205 74.971 39.3948 73.9235 40.1273L50.632 56.3789L54.4605 59.0749L76.4535 43.7112C78.0789 42.5707 79.4058 41.0554 80.3218 39.2936C81.2378 37.5318 81.716 35.5753 81.716 33.5896C81.716 31.604 81.2378 29.6475 80.3218 27.8857C79.4058 26.1239 78.0789 24.6086 76.4535 23.468L76.4768 23.4972H76.4739Z" fill="white"/>
<path d="M19.9224 46.8813L38.0606 34.1816L40.5877 37.7918L22.4466 50.4915L19.9224 46.8813ZM71.6003 41.763L62.7641 47.9498L65.2912 51.5629L74.439 45.1461C73.4665 44.0339 72.5261 42.8985 71.5828 41.7601L71.6003 41.763Z" fill="white"/>
</g>
<defs>
<clipPath id="clip0_342_5832">
<rect width="93.1659" height="93.1659" fill="white" transform="translate(0.281494 0.796875)"/>
</clipPath>
</defs>
</svg>
