<svg width="94" height="94" viewBox="0 0 94 94" fill="none" xmlns="http://www.w3.org/2000/svg">
<g clip-path="url(#clip0_342_5839)">
<path d="M47.0414 93.4764C72.7685 93.4764 93.6244 72.6205 93.6244 46.8935C93.6244 21.1664 72.7685 0.310547 47.0414 0.310547C21.3144 0.310547 0.458496 21.1664 0.458496 46.8935C0.458496 72.6205 21.3144 93.4764 47.0414 93.4764Z" fill="black"/>
<path fill-rule="evenodd" clip-rule="evenodd" d="M41.8738 68.6793H52.0871V78.8926H41.8738V68.6793ZM41.8738 23.6016H52.0871V33.8149H41.8738V23.6016ZM65.9426 23.6016H76.1559V33.8149H65.9426V23.6016ZM17.9272 23.6016H28.1406V33.8149H17.9272V23.6016ZM53.9067 46.1419H64.12V56.3552H53.9067V46.1419ZM29.8146 46.1419H40.0279V56.3552H29.8146V46.1419Z" fill="white"/>
</g>
<defs>
<clipPath id="clip0_342_5839">
<rect width="93.1659" height="93.1659" fill="white" transform="translate(0.459473 0.310547)"/>
</clipPath>
</defs>
</svg>
