<svg width="94" height="94" viewBox="0 0 94 94" fill="none" xmlns="http://www.w3.org/2000/svg">
<g clip-path="url(#clip0_342_5847)">
<path d="M47.0717 93.4764C72.7988 93.4764 93.6546 72.6205 93.6546 46.8935C93.6546 21.1664 72.7988 0.310547 47.0717 0.310547C21.3447 0.310547 0.48877 21.1664 0.48877 46.8935C0.48877 72.6205 21.3447 93.4764 47.0717 93.4764Z" fill="#0D4EA0"/>
<path d="M41.9742 72.9743C41.9335 73.015 41.8519 73.0558 41.8112 73.0965H37.2926C37.2111 73.0965 37.1704 73.0558 37.1296 73.015L23.8098 57.9687C23.7904 57.9314 23.7803 57.89 23.7803 57.8479C23.7803 57.8058 23.7904 57.7644 23.8098 57.7271L40.3991 29.0931C40.4807 28.9738 40.6816 28.9738 40.7631 29.0931L45.4039 37.1229C45.4447 37.1636 45.4447 37.2451 45.4039 37.3267L34.1832 56.6731C34.1425 56.7517 34.1832 56.8333 34.224 56.9148L40.9232 64.4583C40.968 64.5014 41.0249 64.5299 41.0862 64.5398H48.9966C49.2004 64.5398 49.279 64.7436 49.1567 64.863L41.9742 72.9743ZM46.8946 17.9016C46.979 17.7385 47.1799 17.7385 47.2206 17.9016L70.3461 57.6426C70.3869 57.7271 70.3461 57.8086 70.3054 57.8872L56.9885 72.9335C56.9437 72.9766 56.8868 73.0051 56.8255 73.015H46.0095C45.8057 73.015 45.7271 72.8112 45.8493 72.6918L53.0726 64.4991L59.8533 56.874C59.9349 56.7925 59.9349 56.711 59.8941 56.6324L47.0576 34.488L42.2159 26.1322C42.1751 26.0944 42.1751 26.0128 42.2159 25.9284L46.8946 17.9016Z" fill="white"/>
</g>
<defs>
<clipPath id="clip0_342_5847">
<rect width="93.1659" height="93.1659" fill="white" transform="translate(0.487793 0.310547)"/>
</clipPath>
</defs>
</svg>
