<svg width="94" height="94" viewBox="0 0 94 94" fill="none" xmlns="http://www.w3.org/2000/svg">
<g clip-path="url(#clip0_342_5851)">
<path d="M46.5836 0.310547C34.2745 0.346453 22.4828 5.26602 13.798 13.9889C5.11321 22.7118 0.24528 34.5249 0.263233 46.834C0.281186 59.1431 5.18355 70.9419 13.8938 79.6395C22.604 88.337 34.4099 93.2221 46.7191 93.2221C59.0282 93.2221 70.8342 88.337 79.5444 79.6395C88.2546 70.9419 93.157 59.1431 93.1749 46.834C93.1929 34.5249 88.3249 22.7118 79.6401 13.9889C70.9553 5.26602 59.1637 0.346453 46.8546 0.310547L46.5836 0.310547Z" fill="#345D9D"/>
<path d="M47.431 47.9357L43.3274 61.7157H65.1621C65.3065 61.7085 65.4507 61.7315 65.5856 61.7835C65.7204 61.8341 65.844 61.9103 65.9498 62.0079C66.0548 62.1081 66.1396 62.2274 66.1996 62.3594C66.2632 62.4918 66.2979 62.6361 66.3013 62.7829V63.1429L64.3999 69.6941C64.3184 70.0048 64.1312 70.2773 63.8705 70.4649C63.6122 70.6544 63.297 70.75 62.977 70.7359H29.5643L35.1627 51.6792L28.8994 53.5764L30.3223 49.2103L36.5856 47.3089L44.4666 20.5025C44.5519 20.1937 44.7402 19.9233 45.0002 19.736C45.2573 19.5465 45.5702 19.4482 45.8895 19.4565H54.3591C54.5036 19.4528 54.6474 19.4773 54.7826 19.5285C54.9191 19.5781 55.0443 19.6544 55.151 19.753C55.2579 19.8514 55.343 19.9712 55.4009 20.1045C55.4616 20.2376 55.4947 20.3817 55.4983 20.528V20.8921L48.8539 43.4849L55.1214 41.5834L53.7832 46.1316L47.431 47.9357Z" fill="white"/>
</g>
<defs>
<clipPath id="clip0_342_5851">
<rect width="93.1659" height="93.1659" fill="white" transform="translate(0.00146484 0.310547)"/>
</clipPath>
</defs>
</svg>
