<svg width="94" height="94" viewBox="0 0 94 94" fill="none" xmlns="http://www.w3.org/2000/svg">
<g clip-path="url(#clip0_342_5859)">
<path d="M46.6137 93.4764C72.3407 93.4764 93.1966 72.6205 93.1966 46.8935C93.1966 21.1664 72.3407 0.310547 46.6137 0.310547C20.8867 0.310547 0.0307617 21.1664 0.0307617 46.8935C0.0307617 72.6205 20.8867 93.4764 46.6137 93.4764Z" fill="#F55749"/>
<path d="M46.0691 17.9185C46.2346 17.8259 46.421 17.7773 46.6106 17.7773C46.8002 17.7773 46.9867 17.8259 47.1522 17.9185L71.0987 31.3635C71.2622 31.4538 71.3987 31.5862 71.4939 31.7469C71.5891 31.9076 71.6396 32.0909 71.6402 32.2777C71.6402 32.6562 71.4364 33.0056 71.1016 33.1919L50.2703 44.9366C49.5357 44.1015 48.5348 43.546 47.4375 43.3644V36.9797C49.6938 36.6041 51.4145 34.6942 51.4145 32.3854C51.4145 29.8088 49.2717 27.7184 46.6252 27.7184C43.9787 27.7184 41.8359 29.8088 41.8359 32.3854C41.8359 34.6796 43.5391 36.5837 45.778 36.9738V43.3732C44.6956 43.5594 43.7094 44.11 42.983 44.9337L22.1546 33.2385C21.9905 33.1489 21.8535 33.0169 21.7579 32.8562C21.6623 32.6955 21.6118 32.5121 21.6115 32.3251C21.6112 32.1382 21.6612 31.9546 21.7562 31.7936C21.8513 31.6326 21.9878 31.5002 22.1517 31.4101L46.072 17.9272L46.0691 17.9185ZM71.1686 34.8631C71.3336 34.7695 71.52 34.7201 71.7097 34.7196C71.8994 34.7191 72.0861 34.7675 72.2516 34.8601C72.4153 34.9505 72.552 35.0828 72.6477 35.2435C72.7434 35.4041 72.7946 35.5874 72.7961 35.7743L72.8164 61.8782C72.8164 62.2567 72.6126 62.6032 72.2749 62.7924L49.0854 75.8648C48.3662 76.2724 47.4637 75.7629 47.4637 74.9506L47.4433 52.5529C48.5671 52.3666 49.5861 51.793 50.3169 50.9371L56.1106 54.1833C55.9509 54.7791 55.9143 55.4013 56.0029 56.0117C56.3698 58.565 58.795 60.341 61.4124 59.9829C64.0327 59.6219 65.8552 57.2607 65.4884 54.7074C65.1215 52.1541 62.6934 50.3781 60.076 50.7391C59.4255 50.8261 58.7998 51.046 58.2378 51.3851C57.6759 51.7242 57.1896 52.1752 56.8094 52.7101L51.1321 49.5279C51.5397 48.4478 51.5106 47.257 51.0593 46.1944L71.1715 34.8572L71.1686 34.8631ZM20.4339 35.7714C20.4339 35.1542 20.9522 34.7146 21.517 34.7146C21.7062 34.7146 21.8955 34.7641 22.0585 34.8601L42.1911 46.2089C41.7456 47.2687 41.7223 48.4507 42.1241 49.5279L36.4497 52.7101C36.0693 52.1753 35.5831 51.7244 35.0212 51.3853C34.4592 51.0462 33.8336 50.8263 33.1831 50.7391C30.5628 50.3781 28.1434 52.157 27.7737 54.7074C27.4039 57.2578 29.2294 59.619 31.8497 59.98C34.47 60.341 36.8864 58.5621 37.2591 56.0117C37.3481 55.4003 37.3115 54.7772 37.1514 54.1804L42.9422 50.9342C43.6672 51.7843 44.6745 52.3549 45.7867 52.5471L45.7692 74.9506C45.7692 75.7629 44.8667 76.2695 44.1447 75.8619L20.9522 62.7895C20.7886 62.6992 20.6522 62.5669 20.557 62.4061C20.4618 62.2454 20.4112 62.0621 20.4106 61.8753L20.4339 35.7714Z" fill="white"/>
</g>
<defs>
<clipPath id="clip0_342_5859">
<rect width="93.1659" height="93.1659" fill="white" transform="translate(0.0297852 0.310547)"/>
</clipPath>
</defs>
</svg>
