<svg width="94" height="94" viewBox="0 0 94 94" fill="none" xmlns="http://www.w3.org/2000/svg">
<g clip-path="url(#clip0_342_5863)">
<path d="M47.1259 93.4764C72.8529 93.4764 93.7088 72.6205 93.7088 46.8935C93.7088 21.1664 72.8529 0.310547 47.1259 0.310547C21.3989 0.310547 0.542969 21.1664 0.542969 46.8935C0.542969 72.6205 21.3989 93.4764 47.1259 93.4764Z" fill="#172852"/>
<path d="M38.066 21.1284C43.5209 19.088 49.6605 19.0834 55.2178 20.7604C62.4522 23.0057 68.5592 28.4652 71.7501 35.3176C72.6306 37.2694 73.4737 39.3051 73.5576 41.4758C69.4909 39.1187 65.0329 37.5908 60.5656 36.198C53.4197 33.6219 45.9385 31.8331 39.1747 28.2928C37.6002 27.3519 35.5925 26.3876 35.1639 24.4265C34.9915 22.7308 36.785 21.7852 38.066 21.1284Z" fill="#FFD83D"/>
<path d="M21.599 37.6188C23.1782 33.3331 25.7682 29.3549 29.2852 26.4062C30.1796 33.7617 33.31 40.8702 38.4807 46.218C44.6808 52.6604 53.513 56.6153 62.4988 56.4662C66.0671 56.578 69.5561 55.7535 73.0359 55.0874C69.612 67.4598 56.0517 75.6724 43.4883 73.6972C35.9046 72.7283 28.9032 68.2377 24.6781 61.8978C19.9127 54.8917 18.7109 45.5891 21.599 37.6188Z" fill="#FFD83D"/>
<path d="M60.5649 36.1982C65.0322 37.5911 69.4902 39.119 73.5569 41.4761L73.8318 41.6205C74.2091 44.4574 74.4839 47.3502 73.9808 50.1918C71.9358 49.3253 70.2775 47.802 68.5446 46.4558C65.2093 43.6795 61.804 40.5025 60.5649 36.1982Z" fill="#FF6F03"/>
</g>
<defs>
<clipPath id="clip0_342_5863">
<rect width="93.1659" height="93.1659" fill="white" transform="translate(0.543457 0.310547)"/>
</clipPath>
</defs>
</svg>
