<svg width="94" height="94" viewBox="0 0 94 94" fill="none" xmlns="http://www.w3.org/2000/svg">
<g clip-path="url(#clip0_342_5869)">
<path d="M46.6406 93.4764C72.3676 93.4764 93.2235 72.6205 93.2235 46.8935C93.2235 21.1664 72.3676 0.310547 46.6406 0.310547C20.9135 0.310547 0.0576172 21.1664 0.0576172 46.8935C0.0576172 72.6205 20.9135 93.4764 46.6406 93.4764Z" fill="#5592D7"/>
<path d="M59.0032 37.1894V74.9595L27.1056 56.597C17.6725 51.0741 18.2723 47.6386 18.2723 40.1766L51.0638 59.1358V41.8157L59.0003 37.1865L59.0032 37.1894Z" fill="white"/>
<path opacity="0.6" d="M51.0669 59.1359L18.2754 40.1737L50.1672 21.8113C59.6003 16.4339 62.2963 18.6757 68.8848 22.4081L36.0934 41.3703L51.0669 50.0289V59.1359Z" fill="white"/>
<path opacity="0.2" d="M36.0932 41.3704L68.8847 22.4082V59.1359C68.8847 70.0363 65.5919 71.23 59.0033 74.9625V37.1895L43.8755 45.8452L36.0903 41.3675L36.0932 41.3704Z" fill="white"/>
</g>
<defs>
<clipPath id="clip0_342_5869">
<rect width="93.1659" height="93.1659" fill="white" transform="translate(0.0576172 0.310547)"/>
</clipPath>
</defs>
</svg>
