<svg width="94" height="94" viewBox="0 0 94 94" fill="none" xmlns="http://www.w3.org/2000/svg">
<g clip-path="url(#clip0_342_5876)">
<path d="M47.1557 93.4764C72.8827 93.4764 93.7386 72.6205 93.7386 46.8935C93.7386 21.1664 72.8827 0.310547 47.1557 0.310547C21.4286 0.310547 0.572754 21.1664 0.572754 46.8935C0.572754 72.6205 21.4286 93.4764 47.1557 93.4764Z" fill="#FF2D55"/>
<path d="M37.8187 33.8905L17.3077 58.5038C15.8623 54.8037 15.1236 50.8653 15.1299 46.893C15.1299 29.2002 29.4629 14.8672 47.1557 14.8672C64.8514 14.8672 79.1815 29.2002 79.1815 46.893C79.1815 56.6754 74.7939 65.4359 67.8764 71.3111H26.435C24.6209 69.7565 22.9783 68.0124 21.5351 66.1084H58.1085V52.2413L69.6523 66.1084H72.7763L58.0939 48.4942L54.0412 53.3622L37.8216 33.8905H37.8187ZM58.0969 27.6775C56.0108 27.7338 54.0291 28.602 52.5735 30.0973C51.1179 31.5927 50.3034 33.5971 50.3034 35.6839C50.3034 37.7708 51.1179 39.7752 52.5735 41.2705C54.0291 42.7659 56.0108 43.6341 58.0969 43.6904C60.1829 43.6341 62.1646 42.7659 63.6202 41.2705C65.0758 39.7752 65.8903 37.7708 65.8903 35.6839C65.8903 33.5971 65.0758 31.5927 63.6202 30.0973C62.1646 28.602 60.1829 27.7338 58.0969 27.6775ZM37.8245 21.8808C37.2896 21.8664 36.7571 21.9593 36.2586 22.1541C35.7601 22.3489 35.3057 22.6415 34.9222 23.0148C34.5387 23.3881 34.2339 23.8345 34.0258 24.3275C33.8177 24.8206 33.7104 25.3503 33.7104 25.8855C33.7104 26.4207 33.8177 26.9504 34.0258 27.4435C34.2339 27.9366 34.5387 28.3829 34.9222 28.7562C35.3057 29.1295 35.7601 29.4222 36.2586 29.6169C36.7571 29.8117 37.2896 29.9046 37.8245 29.8902C38.868 29.862 39.8592 29.4278 40.5872 28.6798C41.3153 27.9319 41.7227 26.9293 41.7227 25.8855C41.7227 24.8417 41.3153 23.8391 40.5872 23.0912C39.8592 22.3432 38.868 21.909 37.8245 21.8808ZM29.6551 73.7131H64.6592C59.4557 77.1148 53.3725 78.924 47.1557 78.9187C40.9399 78.9235 34.8578 77.1143 29.6551 73.7131ZM52.4894 55.2371L45.4263 63.7065H19.9018C18.8819 62.054 18.0137 60.3127 17.3077 58.5038H37.8216V37.6346L52.4894 55.2342V55.2371Z" fill="#16141A"/>
</g>
<defs>
<clipPath id="clip0_342_5876">
<rect width="93.1659" height="93.1659" fill="white" transform="translate(0.571777 0.310547)"/>
</clipPath>
</defs>
</svg>
