<svg width="94" height="94" viewBox="0 0 94 94" fill="none" xmlns="http://www.w3.org/2000/svg">
<g clip-path="url(#clip0_342_5881)">
<path d="M46.6679 93.4764C72.3953 93.4764 93.2508 72.6208 93.2508 46.8935C93.2508 21.1661 72.3953 0.310547 46.6679 0.310547C20.9405 0.310547 0.0849609 21.1661 0.0849609 46.8935C0.0849609 72.6208 20.9405 93.4764 46.6679 93.4764Z" fill="#2B6DEF"/>
<path fill-rule="evenodd" clip-rule="evenodd" d="M66.0795 23.6016L56.3864 29.1905H56.3767V40.3695L56.3427 40.3743L27.2595 23.6016L17.5586 29.1915L17.5537 29.1896V63.9443L27.2536 69.5372L27.2595 69.4926V69.5343L36.9633 63.9443V51.561L46.6467 57.1413L46.6525 57.1529L46.6603 57.1481L56.3786 51.5853V63.9492L66.0378 69.5158V69.545L66.0621 69.5304L66.0795 69.5401L66.0931 69.5129L75.7397 63.955V29.2206L75.7833 29.1954L66.0795 23.6016Z" fill="white"/>
</g>
<defs>
<clipPath id="clip0_342_5881">
<rect width="93.1659" height="93.1659" fill="white" transform="translate(0.0854492 0.310547)"/>
</clipPath>
</defs>
</svg>
