<svg width="94" height="94" viewBox="0 0 94 94" fill="none" xmlns="http://www.w3.org/2000/svg">
<g clip-path="url(#clip0_342_5884)">
<path d="M47.1825 93.4764C72.9096 93.4764 93.7655 72.6205 93.7655 46.8935C93.7655 21.1664 72.9096 0.310547 47.1825 0.310547C21.4555 0.310547 0.599609 21.1664 0.599609 46.8935C0.599609 72.6205 21.4555 93.4764 47.1825 93.4764Z" fill="#033B4A"/>
<path d="M45.8199 20.877C47.4415 20.4025 49.1622 20.8858 50.5626 21.733C56.8079 25.31 63.0812 28.8378 69.3821 32.3161C71.8073 33.6 73.4203 36.2348 73.3853 38.9541C73.3795 47.9621 73.3562 56.9759 73.3708 65.9839C73.4697 66.6098 73.0447 67.3231 72.3343 67.2591C69.5364 67.2765 66.7385 67.2649 63.9406 67.262C63.3292 67.3522 62.7411 66.8398 62.8052 66.2197C62.5373 58.5481 62.6392 50.8677 62.7178 43.1903C62.7178 42.2295 62.5315 41.2163 61.9114 40.439C61.2825 39.615 60.2897 39.1929 59.4017 38.7037C57.946 37.9409 56.5747 37.018 55.0666 36.3513C54.4959 36.1242 53.7535 35.8796 53.2149 36.3135C52.6181 36.8754 52.6239 37.7633 52.5627 38.5203C52.4526 42.2848 52.4419 46.0516 52.5307 49.8167C52.5278 50.7076 52.5569 51.744 51.8756 52.437C51.1798 53.1182 50.1288 53.1299 49.2146 53.1444C47.5609 53.127 45.9072 53.1881 44.2593 53.1066C43.5606 53.0309 42.7221 52.9901 42.2679 52.3787C41.8603 51.7761 41.8778 51.0162 41.8428 50.3233C41.8341 46.3666 41.8836 42.4071 41.8428 38.4534C41.8021 37.7546 41.8137 36.9685 41.3188 36.4154C40.8442 35.9262 40.0872 36.0864 39.5166 36.2931C38.2792 36.7764 37.17 37.5159 35.9967 38.1273C34.8234 38.8027 33.5627 39.3792 32.5554 40.2992C31.9003 40.896 31.7256 41.8044 31.7052 42.6429C31.6907 50.4164 31.714 58.1841 31.647 65.9577C31.714 66.5458 31.3646 67.262 30.6775 67.2503C27.7952 67.2853 24.9129 67.2649 22.0305 67.2591C21.4541 67.3144 20.9242 66.8078 20.9824 66.2342C21.0989 56.7867 21.0261 47.3361 21.0348 37.8856C21.0078 36.8974 21.2535 35.9209 21.745 35.0632C22.2365 34.2055 22.9548 33.4998 23.8211 33.0235C30.3864 29.3435 36.9633 25.6867 43.5024 21.963C44.2419 21.5438 44.9872 21.1041 45.8199 20.877Z" fill="white"/>
</g>
<defs>
<clipPath id="clip0_342_5884">
<rect width="93.1659" height="93.1659" fill="white" transform="translate(0.599609 0.310547)"/>
</clipPath>
</defs>
</svg>
