<svg width="94" height="94" viewBox="0 0 94 94" fill="none" xmlns="http://www.w3.org/2000/svg">
<g clip-path="url(#clip0_342_5888)">
<path d="M46.6962 93.4764C72.4233 93.4764 93.2792 72.6205 93.2792 46.8935C93.2792 21.1664 72.4233 0.310547 46.6962 0.310547C20.9692 0.310547 0.113281 21.1664 0.113281 46.8935C0.113281 72.6205 20.9692 93.4764 46.6962 93.4764Z" fill="#103F68"/>
<path d="M46.6385 14.9199L74.3553 30.8833V62.9091L46.6705 78.9191L46.4463 78.8637L19.0381 62.9091V30.8833L46.4463 14.9199H46.6385ZM46.5482 18.2331L21.9495 32.5574V61.235L46.5453 75.5563L49.5499 73.8182L71.4439 61.2263V32.5632L49.5499 19.8985L46.5482 18.2331ZM25.7606 49.1234L33.0421 43.6791L39.4793 47.79V55.185L44.3501 59.8783L44.3472 62.0793L39.6539 66.4756H35.6915L25.7635 49.1234H25.7606ZM48.7696 62.0851L48.7609 59.8725L53.6143 55.185V47.79L59.9816 43.6267L67.2485 49.1264L57.37 66.4261H53.4571L48.7696 62.0851ZM41.8695 47.79L39.4996 41.5857H53.5852L51.2618 47.79L51.9489 54.725L46.5133 54.7367L41.1417 54.7454L41.8695 47.79ZM46.5133 39.8855L33.1265 39.8796L35.6158 28.758H57.3467L59.967 39.8942L46.5133 39.8855Z" fill="white"/>
</g>
<defs>
<clipPath id="clip0_342_5888">
<rect width="93.1659" height="93.1659" fill="white" transform="translate(0.113281 0.310547)"/>
</clipPath>
</defs>
</svg>
