<svg width="94" height="94" viewBox="0 0 94 94" fill="none" xmlns="http://www.w3.org/2000/svg">
<g clip-path="url(#clip0_342_5892)">
<path d="M47.2094 93.4764C72.9364 93.4764 93.7923 72.6205 93.7923 46.8935C93.7923 21.1664 72.9364 0.310547 47.2094 0.310547C21.4824 0.310547 0.626465 21.1664 0.626465 46.8935C0.626465 72.6205 21.4824 93.4764 47.2094 93.4764Z" fill="#01A64F"/>
<path d="M60.7855 23.5789C64.3258 27.3637 66.1338 32.1152 66.1338 37.6702C66.1338 43.3097 64.3258 48.064 60.7826 51.8489C57.9498 54.8273 54.5667 56.5974 50.6333 57.2438V60.5453H58.6572V64.1701H50.5518V66.1033H58.6572V69.4834H50.6333V76.008H43.7856V69.4864H35.8374V66.1033H43.8642V64.1701H35.8403V60.5453H43.7885V57.1623C39.9309 56.5188 36.5478 54.7458 33.715 51.7674C30.0961 47.9825 28.2852 43.2281 28.2852 37.5916C28.2852 31.8735 30.0175 27.1221 33.6364 23.4158C37.2524 19.631 41.7418 17.7793 47.2502 17.7793C52.6801 17.7793 57.1637 19.631 60.7855 23.5789ZM53.3875 45.0827C54.8811 43.1495 55.6701 40.6515 55.6701 37.5916C55.6701 34.6132 54.884 32.1181 53.2303 30.182C51.6581 28.1702 49.6114 27.2036 47.2502 27.2036C44.8105 27.2036 42.7666 28.1702 41.1915 30.1034C39.6135 32.0366 38.8275 34.4502 38.8275 37.513C38.8275 40.6515 39.6165 43.1495 41.1915 45.0827C42.7666 47.0159 44.8105 47.9825 47.2473 47.9825C49.7686 47.9825 51.8911 47.0159 53.3875 45.0827Z" fill="white"/>
</g>
<defs>
<clipPath id="clip0_342_5892">
<rect width="93.1659" height="93.1659" fill="white" transform="translate(0.627441 0.310547)"/>
</clipPath>
</defs>
</svg>
