<svg width="94" height="94" viewBox="0 0 94 94" fill="none" xmlns="http://www.w3.org/2000/svg">
<g clip-path="url(#clip0_342_5896)">
<path d="M46.7245 93.4764C72.4516 93.4764 93.3075 72.6205 93.3075 46.8935C93.3075 21.1664 72.4516 0.310547 46.7245 0.310547C20.9975 0.310547 0.141602 21.1664 0.141602 46.8935C0.141602 72.6205 20.9975 93.4764 46.7245 93.4764Z" fill="#1E252C"/>
<path d="M41.5423 45.6966C40.3787 45.6966 39.2627 45.2343 38.4399 44.4115C37.6171 43.5887 37.1548 42.4727 37.1548 41.309C37.1548 40.1454 37.6171 39.0294 38.4399 38.2066C39.2627 37.3837 40.3787 36.9215 41.5423 36.9215C42.706 36.9215 43.822 37.3837 44.6448 38.2066C45.4676 39.0294 45.9299 40.1454 45.9299 41.309C45.9299 42.4727 45.4676 43.5887 44.6448 44.4115C43.822 45.2343 42.706 45.6966 41.5423 45.6966ZM52.3088 45.6966C51.1452 45.6966 50.0292 45.2343 49.2064 44.4115C48.3835 43.5887 47.9213 42.4727 47.9213 41.309C47.9213 40.1454 48.3835 39.0294 49.2064 38.2066C50.0292 37.3837 51.1452 36.9215 52.3088 36.9215C53.4725 36.9215 54.5884 37.3837 55.4113 38.2066C56.2341 39.0294 56.6963 40.1454 56.6963 41.309C56.6963 42.4727 56.2341 43.5887 55.4113 44.4115C54.5884 45.2343 53.4725 45.6966 52.3088 45.6966ZM41.5394 56.4659C40.3758 56.4659 39.2598 56.0037 38.437 55.1809C37.6141 54.358 37.1519 53.2421 37.1519 52.0784C37.1519 50.9148 37.6141 49.7988 38.437 48.976C39.2598 48.1531 40.3758 47.6909 41.5394 47.6909C42.7031 47.6909 43.8191 48.1531 44.6419 48.976C45.4647 49.7988 45.927 50.9148 45.927 52.0784C45.927 53.2421 45.4647 54.358 44.6419 55.1809C43.8191 56.0037 42.7031 56.4659 41.5394 56.4659ZM52.3088 56.4659C51.1452 56.4659 50.0292 56.0037 49.2064 55.1809C48.3835 54.358 47.9213 53.2421 47.9213 52.0784C47.9213 50.9148 48.3835 49.7988 49.2064 48.976C50.0292 48.1531 51.1452 47.6909 52.3088 47.6909C53.4725 47.6909 54.5884 48.1531 55.4113 48.976C56.2341 49.7988 56.6963 50.9148 56.6963 52.0784C56.6963 53.2421 56.2341 54.358 55.4113 55.1809C54.5884 56.0037 53.4725 56.4659 52.3088 56.4659ZM63.0753 44.5C62.6563 44.5 62.2413 44.4174 61.8542 44.2571C61.467 44.0967 61.1153 43.8617 60.819 43.5654C60.5227 43.269 60.2876 42.9173 60.1273 42.5301C59.9669 42.143 59.8844 41.7281 59.8844 41.309C59.8844 40.89 59.9669 40.475 60.1273 40.0879C60.2876 39.7008 60.5227 39.349 60.819 39.0527C61.1153 38.7564 61.467 38.5213 61.8542 38.361C62.2413 38.2006 62.6563 38.1181 63.0753 38.1181C63.9216 38.1181 64.7332 38.4543 65.3316 39.0527C65.93 39.6511 66.2662 40.4627 66.2662 41.309C66.2662 42.1553 65.93 42.9669 65.3316 43.5654C64.7332 44.1638 63.9216 44.5 63.0753 44.5ZM63.0753 55.2693C62.229 55.2693 61.4174 54.9332 60.819 54.3347C60.2206 53.7363 59.8844 52.9247 59.8844 52.0784C59.8844 51.2321 60.2206 50.4205 60.819 49.8221C61.4174 49.2237 62.229 48.8875 63.0753 48.8875C63.9216 48.8875 64.7332 49.2237 65.3316 49.8221C65.93 50.4205 66.2662 51.2321 66.2662 52.0784C66.2662 52.9247 65.93 53.7363 65.3316 54.3347C64.7332 54.9332 63.9216 55.2693 63.0753 55.2693ZM30.3741 44.5C29.5278 44.5 28.7162 44.1638 28.1177 43.5654C27.5193 42.9669 27.1831 42.1553 27.1831 41.309C27.1831 40.4627 27.5193 39.6511 28.1177 39.0527C28.7162 38.4543 29.5278 38.1181 30.3741 38.1181C31.2204 38.1181 32.032 38.4543 32.6304 39.0527C33.2288 39.6511 33.565 40.4627 33.565 41.309C33.565 42.1553 33.2288 42.9669 32.6304 43.5654C32.032 44.1638 31.2204 44.5 30.3741 44.5ZM30.3741 55.2693C29.5278 55.2693 28.7162 54.9332 28.1177 54.3347C27.5193 53.7363 27.1831 52.9247 27.1831 52.0784C27.1831 51.2321 27.5193 50.4205 28.1177 49.8221C28.7162 49.2237 29.5278 48.8875 30.3741 48.8875C31.2204 48.8875 32.032 49.2237 32.6304 49.8221C33.2288 50.4205 33.565 51.2321 33.565 52.0784C33.565 52.9247 33.2288 53.7363 32.6304 54.3347C32.032 54.9332 31.2204 55.2693 30.3741 55.2693ZM41.5394 66.0358C41.1125 66.0487 40.6873 65.9758 40.289 65.8213C39.8908 65.6668 39.5276 65.4339 39.2211 65.1365C38.9145 64.8391 38.6708 64.4831 38.5043 64.0897C38.3379 63.6963 38.2521 63.2735 38.2521 62.8464C38.2521 62.4192 38.3379 61.9964 38.5043 61.603C38.6708 61.2096 38.9145 60.8536 39.2211 60.5562C39.5276 60.2588 39.8908 60.0259 40.289 59.8714C40.6873 59.7169 41.1125 59.644 41.5394 59.6569C42.3686 59.6819 43.1555 60.029 43.7332 60.6244C44.3109 61.2198 44.634 62.0168 44.634 62.8464C44.634 63.676 44.3109 64.4729 43.7332 65.0683C43.1555 65.6638 42.3686 66.0108 41.5394 66.0358ZM52.3088 66.0358C51.8819 66.0487 51.4567 65.9758 51.0584 65.8213C50.6602 65.6668 50.297 65.4339 49.9904 65.1365C49.6839 64.8391 49.4402 64.4831 49.2737 64.0897C49.1073 63.6963 49.0215 63.2735 49.0215 62.8464C49.0215 62.4192 49.1073 61.9964 49.2737 61.603C49.4402 61.2096 49.6839 60.8536 49.9904 60.5562C50.297 60.2588 50.6602 60.0259 51.0584 59.8714C51.4567 59.7169 51.8819 59.644 52.3088 59.6569C53.138 59.6819 53.9249 60.029 54.5026 60.6244C55.0803 61.2198 55.4034 62.0168 55.4034 62.8464C55.4034 63.676 55.0803 64.4729 54.5026 65.0683C53.9249 65.6638 53.138 66.0108 52.3088 66.0358ZM41.5394 33.7335C41.1125 33.7464 40.6873 33.6734 40.289 33.5189C39.8908 33.3645 39.5276 33.1316 39.2211 32.8341C38.9145 32.5367 38.6708 32.1807 38.5043 31.7873C38.3379 31.394 38.2521 30.9711 38.2521 30.544C38.2521 30.1168 38.3379 29.694 38.5043 29.3007C38.6708 28.9073 38.9145 28.5513 39.2211 28.2538C39.5276 27.9564 39.8908 27.7235 40.289 27.5691C40.6873 27.4146 41.1125 27.3416 41.5394 27.3545C42.3686 27.3796 43.1555 27.7266 43.7332 28.322C44.3109 28.9174 44.634 29.7144 44.634 30.544C44.634 31.3736 44.3109 32.1706 43.7332 32.766C43.1555 33.3614 42.3686 33.7084 41.5394 33.7335ZM52.3088 33.7335C51.8819 33.7464 51.4567 33.6734 51.0584 33.5189C50.6602 33.3645 50.297 33.1316 49.9904 32.8341C49.6839 32.5367 49.4402 32.1807 49.2737 31.7873C49.1073 31.394 49.0215 30.9711 49.0215 30.544C49.0215 30.1168 49.1073 29.694 49.2737 29.3007C49.4402 28.9073 49.6839 28.5513 49.9904 28.2538C50.297 27.9564 50.6602 27.7235 51.0584 27.5691C51.4567 27.4146 51.8819 27.3416 52.3088 27.3545C53.138 27.3796 53.9249 27.7266 54.5026 28.322C55.0803 28.9174 55.4034 29.7144 55.4034 30.544C55.4034 31.3736 55.0803 32.1706 54.5026 32.766C53.9249 33.3614 53.138 33.7084 52.3088 33.7335ZM41.5394 21.7675C41.2713 21.7777 41.0039 21.7338 40.7531 21.6382C40.5024 21.5427 40.2735 21.3976 40.0802 21.2115C39.8869 21.0254 39.7331 20.8023 39.6281 20.5554C39.523 20.3085 39.4689 20.0429 39.4689 19.7746C39.4689 19.5063 39.523 19.2407 39.6281 18.9938C39.7331 18.7469 39.8869 18.5238 40.0802 18.3377C40.2735 18.1517 40.5024 18.0065 40.7531 17.911C41.0039 17.8154 41.2713 17.7715 41.5394 17.7817C42.0684 17.7817 42.5756 17.9918 42.9496 18.3659C43.3236 18.7399 43.5338 19.2471 43.5338 19.7761C43.5338 20.305 43.3236 20.8123 42.9496 21.1863C42.5756 21.5603 42.0684 21.7704 41.5394 21.7704V21.7675ZM52.3088 21.7675C52.0407 21.7777 51.7733 21.7338 51.5225 21.6382C51.2718 21.5427 51.0429 21.3976 50.8496 21.2115C50.6563 21.0254 50.5025 20.8023 50.3975 20.5554C50.2924 20.3085 50.2383 20.0429 50.2383 19.7746C50.2383 19.5063 50.2924 19.2407 50.3975 18.9938C50.5025 18.7469 50.6563 18.5238 50.8496 18.3377C51.0429 18.1517 51.2718 18.0065 51.5225 17.911C51.7733 17.8154 52.0407 17.7715 52.3088 17.7817C52.8377 17.7817 53.345 17.9918 53.719 18.3659C54.093 18.7399 54.3032 19.2471 54.3032 19.7761C54.3032 20.305 54.093 20.8123 53.719 21.1863C53.345 21.5603 52.8377 21.7704 52.3088 21.7704V21.7675ZM73.8447 43.3063C73.3158 43.3063 72.8085 43.0962 72.4345 42.7221C72.0605 42.3481 71.8504 41.8409 71.8504 41.3119C71.8504 40.783 72.0605 40.2757 72.4345 39.9017C72.8085 39.5277 73.3158 39.3176 73.8447 39.3176C74.3736 39.3176 74.8809 39.5277 75.2549 39.9017C75.6289 40.2757 75.839 40.783 75.839 41.3119C75.839 41.8409 75.6289 42.3481 75.2549 42.7221C74.8809 43.0962 74.3736 43.3063 73.8447 43.3063ZM73.8447 54.0757C73.3158 54.0757 72.8085 53.8655 72.4345 53.4915C72.0605 53.1175 71.8504 52.6103 71.8504 52.0813C71.8504 51.5524 72.0605 51.0451 72.4345 50.6711C72.8085 50.2971 73.3158 50.087 73.8447 50.087C74.3736 50.087 74.8809 50.2971 75.2549 50.6711C75.6289 51.0451 75.839 51.5524 75.839 52.0813C75.839 52.6103 75.6289 53.1175 75.2549 53.4915C74.8809 53.8655 74.3736 54.0757 73.8447 54.0757ZM19.6047 43.3063C19.0758 43.3063 18.5685 43.0962 18.1945 42.7221C17.8205 42.3481 17.6104 41.8409 17.6104 41.3119C17.6104 40.783 17.8205 40.2757 18.1945 39.9017C18.5685 39.5277 19.0758 39.3176 19.6047 39.3176C20.1336 39.3176 20.6409 39.5277 21.0149 39.9017C21.3889 40.2757 21.599 40.783 21.599 41.3119C21.599 41.8409 21.3889 42.3481 21.0149 42.7221C20.6409 43.0962 20.1336 43.3063 19.6047 43.3063ZM19.6047 54.0757C19.0758 54.0757 18.5685 53.8655 18.1945 53.4915C17.8205 53.1175 17.6104 52.6103 17.6104 52.0813C17.6104 51.5524 17.8205 51.0451 18.1945 50.6711C18.5685 50.2971 19.0758 50.087 19.6047 50.087C20.1336 50.087 20.6409 50.2971 21.0149 50.6711C21.3889 51.0451 21.599 51.5524 21.599 52.0813C21.599 52.6103 21.3889 53.1175 21.0149 53.4915C20.6409 53.8655 20.1336 54.0757 19.6047 54.0757ZM41.5394 76.0075C41.0105 76.0075 40.5032 75.7974 40.1292 75.4234C39.7552 75.0494 39.5451 74.5421 39.5451 74.0132C39.5451 73.4842 39.7552 72.977 40.1292 72.6029C40.5032 72.2289 41.0105 72.0188 41.5394 72.0188C42.0684 72.0188 42.5756 72.2289 42.9496 72.6029C43.3236 72.977 43.5338 73.4842 43.5338 74.0132C43.5338 74.5421 43.3236 75.0494 42.9496 75.4234C42.5756 75.7974 42.0684 76.0075 41.5394 76.0075ZM52.3088 76.0075C51.7799 76.0075 51.2726 75.7974 50.8986 75.4234C50.5246 75.0494 50.3145 74.5421 50.3145 74.0132C50.3145 73.4842 50.5246 72.977 50.8986 72.6029C51.2726 72.2289 51.7799 72.0188 52.3088 72.0188C52.8377 72.0188 53.345 72.2289 53.719 72.6029C54.093 72.977 54.3032 73.4842 54.3032 74.0132C54.3032 74.5421 54.093 75.0494 53.719 75.4234C53.345 75.7974 52.8377 76.0075 52.3088 76.0075Z" fill="white"/>
</g>
<defs>
<clipPath id="clip0_342_5896">
<rect width="93.1659" height="93.1659" fill="white" transform="translate(0.141602 0.310547)"/>
</clipPath>
</defs>
</svg>
