<svg width="94" height="94" viewBox="0 0 94 94" fill="none" xmlns="http://www.w3.org/2000/svg">
<g clip-path="url(#clip0_342_5900)">
<path d="M47.2392 93.4764C72.9662 93.4764 93.8221 72.6205 93.8221 46.8935C93.8221 21.1664 72.9662 0.310547 47.2392 0.310547C21.5121 0.310547 0.65625 21.1664 0.65625 46.8935C0.65625 72.6205 21.5121 93.4764 47.2392 93.4764Z" fill="#00B0FF"/>
<path d="M70.5307 35.4255V61.3809L63.1473 65.6898V48.3668L47.2392 57.8872L31.3312 48.3581V65.6898L23.9478 61.3809V35.4226L47.2392 49.412L70.5307 35.4226V35.4255ZM47.3266 67.7919L54.1393 63.7188L60.8647 67.7919L47.3266 76.008L33.7942 67.7919L40.5196 63.7188L47.3295 67.7919H47.3266ZM60.7774 25.9954L54.0491 30.0685L47.2392 25.9954L40.4294 30.0685L33.704 25.9954L47.2392 17.7793L60.7774 25.9954Z" fill="white"/>
</g>
<defs>
<clipPath id="clip0_342_5900">
<rect width="93.1659" height="93.1659" fill="white" transform="translate(0.655273 0.310547)"/>
</clipPath>
</defs>
</svg>
