<svg width="94" height="94" viewBox="0 0 94 94" fill="none" xmlns="http://www.w3.org/2000/svg">
<g clip-path="url(#clip0_342_5904)">
<path d="M46.7519 93.4764C72.4789 93.4764 93.3348 72.6205 93.3348 46.8935C93.3348 21.1664 72.4789 0.310547 46.7519 0.310547C21.0248 0.310547 0.168945 21.1664 0.168945 46.8935C0.168945 72.6205 21.0248 93.4764 46.7519 93.4764Z" fill="black"/>
<path d="M25.4204 64.3827L45.6723 77.1231H48.1238L68.0496 64.3827L64.946 61.9342L46.8165 73.5304L28.0349 61.9342L25.4204 64.3827ZM35.2203 34.8229L46.6535 17.5086L58.4128 34.9859L61.1903 32.5345L48.1238 12.9376C48.1238 12.9376 46.9796 11.4674 45.1832 12.9376L31.7906 33.0265L35.2203 34.8229Z" fill="white" fill-opacity="0.703"/>
<path d="M46.9797 69.7759C47.6318 67.4875 48.4499 65.365 49.105 63.0796C52.0456 53.9319 54.9832 44.6211 57.9237 35.4763C58.0868 34.9872 58.2498 34.3321 58.4128 33.8459C58.7389 32.8618 59.2281 32.3727 60.2092 32.3727C60.6352 32.3615 61.0511 32.5038 61.3808 32.7737C61.7106 33.0436 61.9324 33.4231 62.0056 33.843C62.8208 37.1096 63.4758 40.5393 64.291 43.8059C65.7613 50.0131 67.0685 56.3833 68.5388 62.5875C68.8649 64.0578 68.3758 65.039 67.2316 65.365C66.0874 65.6911 65.2722 64.8759 64.9461 63.4057C63.3128 56.3833 61.6795 49.358 60.2092 42.1726C60.2092 41.8465 60.0462 41.6835 59.8831 41.1914C59.7476 41.6383 59.5832 42.0759 59.3911 42.5016C56.2904 51.9725 53.3499 61.4463 50.2463 70.9171C49.7572 72.7135 49.1021 74.3468 48.613 76.1432C48.2869 77.2874 47.6318 77.7765 46.6536 77.7765C45.6724 77.7765 45.0203 77.2874 44.6942 76.1461C41.1015 64.8759 37.5059 53.6058 34.0762 42.3356C33.9131 42.0095 33.9131 41.8465 33.7501 41.1914C33.4588 42.6692 33.1326 44.1399 32.7719 45.6022C31.4617 51.4833 30.1574 57.5246 28.8502 63.4057C28.5241 65.0361 27.2198 65.8542 25.9096 65.0361C25.0944 64.5469 24.9314 63.7317 25.0944 62.7506C26.8908 54.584 28.8502 46.4174 30.6465 38.2538C30.9726 36.9436 31.3016 35.6393 31.4617 34.3321C31.7907 33.0278 32.4429 32.3727 33.424 32.3727C34.4052 32.3727 35.0544 33.0278 35.3834 34.3321C39.1392 46.0943 42.8949 58.0166 46.4905 69.7759H46.9797Z" fill="white"/>
</g>
<defs>
<clipPath id="clip0_342_5904">
<rect width="93.1659" height="93.1659" fill="white" transform="translate(0.169922 0.310547)"/>
</clipPath>
</defs>
</svg>
