<svg width="94" height="94" viewBox="0 0 94 94" fill="none" xmlns="http://www.w3.org/2000/svg">
<g clip-path="url(#clip0_342_5910)">
<path d="M47.2665 93.4764C72.9936 93.4764 93.8495 72.6205 93.8495 46.8935C93.8495 21.1664 72.9936 0.310547 47.2665 0.310547C21.5395 0.310547 0.683594 21.1664 0.683594 46.8935C0.683594 72.6205 21.5395 93.4764 47.2665 93.4764Z" fill="#DA1157"/>
<path d="M61.7803 56.1172C64.1169 56.1172 66.3577 55.189 68.0099 53.5368C69.6621 51.8846 70.5903 49.6437 70.5903 47.3072C70.5903 44.9706 69.6621 42.7297 68.0099 41.0776C66.3577 39.4254 64.1169 38.4972 61.7803 38.4972C59.4437 38.4972 57.2029 39.4254 55.5507 41.0776C53.8985 42.7297 52.9703 44.9706 52.9703 47.3072C52.9703 49.6437 53.8985 51.8846 55.5507 53.5368C57.2029 55.189 59.4437 56.1172 61.7803 56.1172ZM61.7803 26.9883C65.1353 26.9863 68.4386 27.815 71.3954 29.4004C74.3522 30.9857 76.8705 33.2785 78.7255 36.0741C80.5805 38.8696 81.7144 42.081 82.0263 45.4214C82.3381 48.7619 81.8179 52.1276 80.5124 55.2182C79.2068 58.3088 77.1563 61.028 74.544 63.1332C71.9317 65.2384 68.8388 66.6641 65.5414 67.2831C62.244 67.902 58.8446 67.6949 55.6467 66.6803C52.4488 65.6657 49.5518 63.8751 47.2144 61.4684C50.9095 57.6813 52.9755 52.5983 52.9703 47.3072C52.9758 42.016 50.9098 36.9329 47.2144 33.146C49.1052 31.1952 51.3692 29.6447 53.8716 28.5868C56.3739 27.529 59.0635 26.9853 61.7803 26.9883ZM32.6514 56.1172C34.988 56.1172 37.2288 55.189 38.881 53.5368C40.5332 51.8846 41.4614 49.6437 41.4614 47.3072C41.4614 44.9706 40.5332 42.7297 38.881 41.0776C37.2288 39.4254 34.988 38.4972 32.6514 38.4972C30.3148 38.4972 28.074 39.4254 26.4218 41.0776C24.7696 42.7297 23.8414 44.9706 23.8414 47.3072C23.8414 49.6437 24.7696 51.8846 26.4218 53.5368C28.074 55.189 30.3148 56.1172 32.6514 56.1172ZM47.2173 33.146C43.5232 36.9335 41.4583 42.0164 41.4643 47.3072C41.4643 52.8156 43.6595 57.8087 47.2173 61.4684C44.3991 64.369 40.7795 66.3627 36.8218 67.1945C32.8641 68.0263 28.7481 67.6583 25.0007 66.1376C21.2533 64.6169 18.0449 62.0126 15.7859 58.6581C13.527 55.3036 12.3203 51.3514 12.3203 47.3072C12.3203 43.263 13.527 39.3107 15.7859 35.9562C18.0449 32.6017 21.2533 29.9974 25.0007 28.4767C28.7481 26.956 32.8641 26.588 36.8218 27.4198C40.7795 28.2516 44.3991 30.2454 47.2173 33.146ZM41.4614 47.3101C41.4614 52.8185 43.6566 57.8116 47.2173 61.4713C50.9116 57.6839 52.9766 52.6008 52.9703 47.3101C52.9766 42.0193 50.9116 36.9362 47.2173 33.1489C43.5219 36.9358 41.4558 42.0189 41.4614 47.3101Z" fill="white"/>
</g>
<defs>
<clipPath id="clip0_342_5910">
<rect width="93.1659" height="93.1659" fill="white" transform="translate(0.683594 0.310547)"/>
</clipPath>
</defs>
</svg>
