<svg width="94" height="94" viewBox="0 0 94 94" fill="none" xmlns="http://www.w3.org/2000/svg">
<g clip-path="url(#clip0_342_5914)">
<path d="M46.7812 93.4764C72.5082 93.4764 93.3641 72.6205 93.3641 46.8935C93.3641 21.1664 72.5082 0.310547 46.7812 0.310547C21.0541 0.310547 0.198242 21.1664 0.198242 46.8935C0.198242 72.6205 21.0541 93.4764 46.7812 93.4764Z" fill="#242424"/>
<path d="M64.9975 20.0208C64.9975 22.0617 63.338 23.7183 61.2883 23.7183C60.802 23.719 60.3203 23.624 59.8707 23.4386C59.4211 23.2532 59.0124 22.9811 58.6679 22.6377C58.3235 22.2944 58.0501 21.8865 57.8633 21.4375C57.6765 20.9885 57.5799 20.5071 57.5791 20.0208C57.5791 17.9769 59.2387 16.3232 61.2883 16.3232C63.338 16.3232 64.9975 17.9769 64.9975 20.0208ZM62.3248 32.9009C60.5896 32.9009 59.1804 31.4976 59.1804 29.7682C59.1804 28.0389 60.5896 26.6385 62.3248 26.6385C64.06 26.6385 65.4662 28.0389 65.4662 29.7682C65.4662 31.4976 64.06 32.9009 62.3219 32.9009H62.3248ZM61.3494 40.625C61.001 40.6257 60.6559 40.5578 60.3338 40.425C60.0117 40.2922 59.7189 40.0971 59.4723 39.851C59.2256 39.6049 59.03 39.3126 58.8965 38.9908C58.7629 38.669 58.6942 38.324 58.6942 37.9756C58.6946 37.6274 58.7636 37.2827 58.8973 36.9612C59.031 36.6398 59.2267 36.3478 59.4733 36.102C59.7199 35.8562 60.0125 35.6614 60.3344 35.5288C60.6564 35.3962 61.0013 35.3283 61.3494 35.3291C61.6979 35.3283 62.043 35.3963 62.3651 35.5291C62.6872 35.6619 62.98 35.8569 63.2266 36.103C63.4733 36.3491 63.6689 36.6414 63.8024 36.9633C63.936 37.2851 64.0047 37.6301 64.0047 37.9785C64.0043 38.3267 63.9353 38.6713 63.8016 38.9928C63.6679 39.3143 63.4722 39.6063 63.2256 39.8521C62.979 40.0979 62.6864 40.2926 62.3644 40.4253C62.0425 40.5579 61.6976 40.6257 61.3494 40.625ZM61.1922 44.6195C61.1922 45.2217 60.953 45.7994 60.5271 46.2252C60.1012 46.6511 59.5236 46.8904 58.9213 46.8904C58.319 46.8904 57.7414 46.6511 57.3155 46.2252C56.8896 45.7994 56.6504 45.2217 56.6504 44.6195C56.6504 44.0172 56.8896 43.4396 57.3155 43.0137C57.7414 42.5878 58.319 42.3485 58.9213 42.3485C59.5236 42.3485 60.1012 42.5878 60.5271 43.0137C60.953 43.4396 61.1922 44.0172 61.1922 44.6195ZM57.5995 49.6388C57.5995 50.716 56.7261 51.5807 55.6518 51.5807C55.2673 51.5796 54.8917 51.4644 54.5726 51.2499C54.2534 51.0354 54.0051 50.7311 53.8589 50.3754C53.7126 50.0198 53.6751 49.6288 53.7511 49.2518C53.827 48.8749 54.013 48.5289 54.2855 48.2576C54.558 47.9863 54.9048 47.8019 55.2821 47.7276C55.6594 47.6534 56.0502 47.6927 56.4052 47.8405C56.7602 47.9883 57.0634 48.238 57.2765 48.5581C57.4896 48.8782 57.603 49.2542 57.6024 49.6388H57.5995ZM53.6691 53.1995C53.6691 53.6427 53.493 54.0677 53.1796 54.3811C52.8662 54.6945 52.4411 54.8706 51.9979 54.8706C51.5547 54.8706 51.1296 54.6945 50.8162 54.3811C50.5028 54.0677 50.3268 53.6427 50.3268 53.1995C50.3268 52.7562 50.5028 52.3312 50.8162 52.0178C51.1296 51.7044 51.5547 51.5283 51.9979 51.5283C52.4411 51.5283 52.8662 51.7044 53.1796 52.0178C53.493 52.3312 53.6691 52.7562 53.6691 53.1995ZM73.6823 31.6286C73.4667 32.4155 72.9549 33.0884 72.254 33.506C71.5531 33.9237 70.7178 34.0537 69.9231 33.8688C69.1285 33.6839 68.4363 33.1984 67.9919 32.5142C67.5474 31.83 67.3851 31.0003 67.5392 30.1991C67.7287 29.3845 68.2341 28.6785 68.9442 28.2366C69.6543 27.7946 70.5108 27.6528 71.3255 27.8423C72.1401 28.0319 72.8461 28.5373 73.2881 29.2474C73.73 29.9575 73.8718 30.814 73.6823 31.6286ZM72.1742 39.7894C72.0132 40.4789 71.5848 41.0763 70.9834 41.45C70.382 41.8237 69.6568 41.9433 68.9672 41.7823C68.2777 41.6213 67.6803 41.193 67.3066 40.5915C66.9329 39.9901 66.8133 39.2649 66.9743 38.5753C67.1353 37.8858 67.5637 37.2884 68.1651 36.9147C68.7665 36.541 69.4917 36.4215 70.1813 36.5825C70.8708 36.7434 71.4682 37.1718 71.8419 37.7732C72.2156 38.3746 72.3352 39.0999 72.1742 39.7894ZM69.3675 46.3023C69.2316 46.8853 68.8697 47.3904 68.3614 47.7065C67.8531 48.0226 67.24 48.1239 66.657 47.988C66.074 47.8521 65.5689 47.4902 65.2528 46.9818C64.9366 46.4735 64.8354 45.8604 64.9713 45.2774C65.1283 44.7171 65.4955 44.239 65.9963 43.9426C66.4971 43.6463 67.0929 43.5547 67.6597 43.6868C68.2264 43.8189 68.7203 44.1646 69.0384 44.6518C69.3566 45.1391 69.4745 45.7303 69.3675 46.3023ZM65.7515 51.2604C65.6159 51.7372 65.302 52.1434 64.875 52.3951C64.448 52.6467 63.9405 52.7245 63.4577 52.6122C62.975 52.4999 62.5539 52.2063 62.2817 51.792C62.0096 51.3778 61.9072 50.8747 61.9958 50.387C62.0534 50.1407 62.1589 49.9082 62.3064 49.7027C62.454 49.4972 62.6405 49.3228 62.8555 49.1895C63.0705 49.0562 63.3096 48.9666 63.5593 48.9258C63.8089 48.885 64.0641 48.8938 64.3104 48.9517C64.5568 49.0083 64.7896 49.113 64.9955 49.2597C65.2014 49.4065 65.3763 49.5925 65.5102 49.8069C65.644 50.0214 65.7343 50.2602 65.7757 50.5096C65.8171 50.7591 65.8089 51.0142 65.7515 51.2604ZM61.8007 54.7221C61.751 54.9339 61.6601 55.1339 61.5331 55.3106C61.4061 55.4872 61.2456 55.6372 61.0607 55.7518C60.8758 55.8664 60.6701 55.9435 60.4554 55.9786C60.2406 56.0138 60.0211 56.0063 59.8093 55.9566C59.5975 55.9069 59.3975 55.8159 59.2209 55.689C59.0442 55.562 58.8943 55.4015 58.7796 55.2165C58.665 55.0316 58.5879 54.8259 58.5528 54.6112C58.5177 54.3965 58.5252 54.177 58.5749 53.9652C58.6752 53.5374 58.9414 53.167 59.3149 52.9355C59.6884 52.704 60.1385 52.6303 60.5663 52.7307C60.9941 52.8311 61.3644 53.0973 61.5959 53.4708C61.8274 53.8442 61.9011 54.2944 61.8007 54.7221ZM57.8557 56.9086C57.7491 57.2534 57.5158 57.5449 57.2028 57.7245C56.8897 57.9041 56.5203 57.9584 56.1688 57.8764C55.8174 57.7945 55.5101 57.5824 55.3088 57.2829C55.1075 56.9833 55.0272 56.6187 55.084 56.2623C55.1907 55.9175 55.424 55.626 55.737 55.4464C56.05 55.2668 56.4195 55.2125 56.7709 55.2945C57.1224 55.3764 57.4297 55.5885 57.631 55.8881C57.8323 56.1876 57.9126 56.5523 57.8557 56.9086ZM78.5386 42.7707C78.2272 43.4107 77.6746 43.901 77.0022 44.134C76.3297 44.3671 75.5923 44.3239 74.9517 44.0139C74.634 43.8617 74.3497 43.6482 74.1149 43.3857C73.8802 43.1232 73.6997 42.8168 73.5839 42.4842C73.468 42.1516 73.4192 41.7994 73.4401 41.4478C73.4609 41.0962 73.5512 40.7523 73.7056 40.4357C74.017 39.7965 74.569 39.3068 75.2407 39.0738C75.9125 38.8408 76.6492 38.8835 77.2895 39.1926C77.6066 39.3453 77.8905 39.5591 78.1249 39.8217C78.3593 40.0843 78.5396 40.3905 78.6556 40.7228C78.7716 41.0551 78.821 41.407 78.8009 41.7584C78.7808 42.1098 78.6917 42.4538 78.5386 42.7707ZM75.7407 49.2195C75.4623 49.7387 74.9942 50.1304 74.434 50.3127C73.8738 50.4951 73.2649 50.4541 72.7342 50.1984C72.2035 49.9426 71.7921 49.4918 71.5857 48.94C71.3794 48.3882 71.3941 47.7781 71.6268 47.2368C71.893 46.6936 72.3629 46.2775 72.9343 46.079C73.5057 45.8806 74.1324 45.9158 74.678 46.1771C74.9482 46.3063 75.1903 46.4876 75.3901 46.7108C75.59 46.9339 75.7438 47.1943 75.8425 47.4771C75.9413 47.7599 75.9832 48.0595 75.9657 48.3585C75.9482 48.6576 75.8717 48.9502 75.7407 49.2195ZM72.2237 54.1107C71.9939 54.5807 71.5876 54.9406 71.0933 55.1119C70.5991 55.2832 70.0572 55.2519 69.5859 55.0249C69.3531 54.9129 69.1447 54.7561 68.9726 54.5633C68.8006 54.3706 68.6683 54.1457 68.5834 53.9017C68.4984 53.6577 68.4625 53.3994 68.4777 53.1415C68.4928 52.8836 68.5588 52.6312 68.6717 52.3988C68.9124 51.9506 69.317 51.6126 69.8009 51.4554C70.2848 51.2983 70.8107 51.334 71.2689 51.5552C71.7271 51.7764 72.0822 52.166 72.2601 52.6427C72.438 53.1194 72.4249 53.6463 72.2237 54.1136V54.1107ZM68.3049 57.5695C68.1053 57.9762 67.7532 58.2876 67.3251 58.4359C66.8971 58.5843 66.4278 58.5575 66.0194 58.3614C65.8114 58.2674 65.6243 58.1326 65.4692 57.9651C65.3141 57.7975 65.1942 57.6006 65.1164 57.386C65.0387 57.1713 65.0048 56.9433 65.0167 56.7153C65.0285 56.4873 65.086 56.264 65.1856 56.0586C65.2852 55.8531 65.4249 55.6697 65.5966 55.5192C65.7682 55.3687 65.9683 55.2541 66.185 55.1822C66.4016 55.1102 66.6305 55.0825 66.8581 55.1005C67.0857 55.1185 67.3074 55.1819 67.51 55.287C67.7121 55.3846 67.893 55.5212 68.0423 55.6887C68.1916 55.8563 68.3064 56.0517 68.3802 56.2636C68.454 56.4756 68.4853 56.7 68.4724 56.9241C68.4595 57.1481 68.4026 57.3675 68.3049 57.5695ZM64.3599 59.7007C64.1809 60.0325 63.8808 60.2825 63.5221 60.3986C63.1634 60.5147 62.7738 60.488 62.4343 60.3241C62.0948 60.1601 61.8316 59.8716 61.6995 59.5185C61.5673 59.1654 61.5765 58.7749 61.725 58.4284C61.9109 58.109 62.2105 57.8716 62.5639 57.7635C62.9173 57.6554 63.2984 57.6846 63.6312 57.8453C63.964 58.006 64.2239 58.2863 64.3589 58.6303C64.494 58.9742 64.4944 59.3565 64.3599 59.7007ZM60.6536 60.775C60.5092 61.0708 60.2537 61.2974 59.9427 61.4054C59.6318 61.5134 59.2908 61.494 58.9941 61.3515C58.8477 61.2804 58.7167 61.1811 58.6086 61.0594C58.5005 60.9376 58.4175 60.7958 58.3642 60.642C58.311 60.4881 58.2885 60.3253 58.2982 60.1628C58.3079 60.0003 58.3494 59.8413 58.4205 59.6949C58.4917 59.5484 58.5909 59.4174 58.7127 59.3094C58.8344 59.2013 58.9762 59.1183 59.1301 59.065C59.2839 59.0117 59.4467 58.9893 59.6092 58.999C59.7717 59.0086 59.9307 59.0502 60.0772 59.1213C60.2237 59.1919 60.3548 59.2908 60.4631 59.4121C60.5714 59.5335 60.6547 59.675 60.7083 59.8286C60.7618 59.9822 60.7845 60.1449 60.7752 60.3073C60.7658 60.4697 60.7245 60.6286 60.6536 60.775ZM63.6699 74.9129C63.2481 74.6717 62.8781 74.3496 62.5811 73.965C62.2842 73.5804 62.0661 73.141 61.9395 72.6719C61.8129 72.2028 61.7802 71.7133 61.8433 71.2315C61.9065 70.7497 62.0641 70.2852 62.3073 69.8645C62.801 69.0147 63.611 68.395 64.5603 68.1408C65.5096 67.8865 66.5209 68.0185 67.3732 68.5078C69.1492 69.5268 69.7606 71.789 68.7387 73.5562C68.2456 74.4066 67.4355 75.0268 66.486 75.2811C65.5365 75.5354 64.5249 75.403 63.6728 74.9129H63.6699ZM54.9647 70.4526C54.6074 70.2486 54.2941 69.9759 54.0426 69.6503C53.7911 69.3247 53.6065 68.9526 53.4994 68.5554C53.3922 68.1582 53.3647 67.7437 53.4183 67.3358C53.4719 66.9279 53.6056 66.5347 53.8118 66.1786C54.2294 65.459 54.915 64.934 55.7187 64.7185C56.5223 64.503 57.3786 64.6145 58.1003 65.0286C59.6026 65.8904 60.1179 67.8061 59.2532 69.3026C58.8361 70.0228 58.1505 70.5483 57.3466 70.7639C56.5427 70.9795 55.6862 70.8675 54.9647 70.4526ZM48.5537 65.0956C48.2514 64.9226 47.9862 64.6917 47.7734 64.4159C47.5607 64.1402 47.4045 63.8251 47.3138 63.4888C47.2232 63.1525 47.1999 62.8017 47.2453 62.4564C47.2907 62.111 47.4039 61.7781 47.5784 61.4767C47.932 60.8682 48.5122 60.4246 49.192 60.2429C49.8719 60.0613 50.596 60.1563 51.206 60.5072C51.5075 60.6798 51.7719 60.9103 51.9841 61.1853C52.1963 61.4603 52.3522 61.7745 52.4428 62.1099C52.5334 62.4452 52.557 62.7952 52.5121 63.1396C52.4672 63.4841 52.3548 63.8164 52.1813 64.1173C51.8298 64.7278 51.2502 65.1738 50.57 65.3572C49.8898 65.5406 49.1646 65.4465 48.5537 65.0956ZM44.1836 59.3484C43.9263 59.1995 43.7009 59.0013 43.5201 58.7653C43.3394 58.5292 43.2069 58.2599 43.1303 57.9727C43.0536 57.6854 43.0343 57.3859 43.0734 57.0912C43.1125 56.7964 43.2093 56.5123 43.3582 56.255C43.5072 55.9977 43.7053 55.7722 43.9414 55.5915C44.1774 55.4108 44.4468 55.2783 44.734 55.2016C45.0212 55.125 45.3208 55.1057 45.6155 55.1448C45.9102 55.1839 46.1943 55.2807 46.4516 55.4296C47.5347 56.0527 47.9074 57.4356 47.2814 58.5157C46.9805 59.0364 46.4854 59.4165 45.9047 59.5726C45.3239 59.7287 44.705 59.648 44.1836 59.3484ZM41.6128 53.741C41.3913 53.6142 41.197 53.4449 41.041 53.2429C40.885 53.0408 40.7705 52.81 40.704 52.5636C40.6374 52.3171 40.6202 52.06 40.6533 51.8069C40.6863 51.5538 40.769 51.3097 40.8966 51.0887C41.156 50.6415 41.5819 50.3154 42.0813 50.1817C42.5806 50.048 43.1125 50.1176 43.5606 50.3754C44.4923 50.9111 44.8125 52.0989 44.2768 53.0248C44.0185 53.473 43.5927 53.8003 43.0931 53.9346C42.5936 54.0689 42.0611 53.9993 41.6128 53.741ZM40.4803 48.5674C40.2901 48.4582 40.1234 48.3125 39.9896 48.1387C39.8559 47.9649 39.7578 47.7664 39.701 47.5546C39.6442 47.3427 39.6298 47.1218 39.6586 46.9044C39.6874 46.687 39.7589 46.4774 39.8689 46.2877C40.0916 45.9052 40.4566 45.6262 40.8842 45.5117C41.3118 45.3972 41.7673 45.4563 42.1515 45.6763C42.3413 45.786 42.5076 45.9321 42.641 46.1061C42.7744 46.2801 42.8722 46.4787 42.9289 46.6905C42.9855 46.9024 42.9999 47.1233 42.9711 47.3406C42.9424 47.558 42.8711 47.7676 42.7614 47.9574C42.6517 48.1473 42.5056 48.3136 42.3316 48.447C42.1576 48.5804 41.959 48.6782 41.7472 48.7348C41.5354 48.7915 41.3144 48.8058 41.0971 48.7771C40.8797 48.7484 40.6701 48.6771 40.4803 48.5674ZM51.3982 77.4663C50.9846 77.467 50.575 77.3863 50.1926 77.2286C49.8103 77.071 49.4628 76.8396 49.17 76.5475C48.8772 76.2555 48.6447 75.9087 48.486 75.5268C48.3274 75.1449 48.2455 74.7355 48.2451 74.3219C48.2455 73.9085 48.3274 73.4992 48.4861 73.1175C48.6448 72.7358 48.8773 72.3891 49.1702 72.0973C49.463 71.8055 49.8106 71.5744 50.1929 71.417C50.5752 71.2597 50.9848 71.1793 51.3982 71.1805C53.1392 71.1805 54.5513 72.5867 54.5513 74.3248C54.5513 76.06 53.1392 77.4663 51.3982 77.4663ZM42.9026 71.2416C42.6467 71.0033 42.4404 70.7167 42.2955 70.3984C42.1506 70.0801 42.0701 69.7364 42.0584 69.3868C42.0468 69.0373 42.1043 68.6889 42.2277 68.3617C42.3511 68.0345 42.5379 67.7349 42.7774 67.48C43.2629 66.9648 43.9327 66.6626 44.6402 66.6397C45.3478 66.6168 46.0357 66.875 46.5535 67.3578C47.6308 68.3622 47.6832 70.045 46.6758 71.1193C46.1904 71.6337 45.5213 71.9353 44.8144 71.9582C44.1075 71.9811 43.4203 71.7235 42.9026 71.2416ZM38.6374 65.5701C38.4213 65.3681 38.2472 65.1255 38.1251 64.8561C38.003 64.5867 37.9353 64.2958 37.9258 64.0002C37.9164 63.7046 37.9653 63.41 38.0699 63.1333C38.1746 62.8566 38.3328 62.6033 38.5355 62.3879C38.9453 61.952 39.5112 61.6962 40.1093 61.6766C40.7073 61.6569 41.2888 61.875 41.7264 62.2831C41.9433 62.4845 42.1183 62.7269 42.2411 62.9962C42.3639 63.2655 42.4321 63.5565 42.4418 63.8524C42.4516 64.1482 42.4026 64.4431 42.2978 64.7199C42.193 64.9968 42.0344 65.2501 41.8312 65.4653C41.4208 65.9014 40.8544 66.1573 40.2559 66.1769C39.6574 66.1966 39.0755 65.9784 38.6374 65.5701ZM36.1364 59.9685C35.9516 59.7963 35.8027 59.5893 35.6982 59.3593C35.5938 59.1294 35.5358 58.881 35.5277 58.6285C35.5196 58.3761 35.5614 58.1245 35.6509 57.8883C35.7404 57.6521 35.8757 57.4359 36.0491 57.2522C36.3992 56.8801 36.8824 56.6617 37.393 56.6448C37.9037 56.6279 38.4002 56.8138 38.7742 57.1619C38.9589 57.3344 39.1079 57.5416 39.2124 57.7717C39.317 58.0018 39.3751 58.2502 39.3835 58.5028C39.3919 58.7554 39.3503 59.0072 39.2613 59.2437C39.1722 59.4802 39.0374 59.6969 38.8644 59.8812C38.5138 60.2538 38.0298 60.4722 37.5185 60.4885C37.0071 60.5049 36.5102 60.3179 36.1364 59.9685ZM35.1 54.8328C34.9416 54.6848 34.8141 54.507 34.7245 54.3096C34.635 54.1122 34.5853 53.8991 34.5783 53.6824C34.5713 53.4658 34.607 53.2499 34.6836 53.0472C34.7601 52.8444 34.8759 52.6587 35.0243 52.5007C35.3248 52.1798 35.7404 51.9913 36.1799 51.9766C36.6193 51.9618 37.0466 52.1221 37.368 52.4221C38.0376 53.0452 38.0667 54.0904 37.4437 54.7571C37.1427 55.0776 36.7269 55.2655 36.2875 55.2797C35.8481 55.2939 35.421 55.1332 35.1 54.8328ZM35.1698 50.3317C35.0333 50.2049 34.9232 50.0524 34.8459 49.8829C34.7686 49.7134 34.7256 49.5303 34.7194 49.3441C34.7132 49.1579 34.7438 48.9723 34.8097 48.798C34.8755 48.6238 34.9751 48.4642 35.1029 48.3286C35.3616 48.0542 35.7185 47.8933 36.0956 47.8813C36.4726 47.8693 36.839 48.0071 37.1147 48.2646C37.3548 48.5299 37.4861 48.8759 37.4827 49.2337C37.4792 49.5914 37.3411 49.9348 37.0959 50.1954C36.8508 50.456 36.5164 50.6147 36.1595 50.64C35.8026 50.6652 35.4493 50.5552 35.1698 50.3317ZM37.1351 75.2536C36.9371 74.963 36.7984 74.6362 36.727 74.2919C36.6555 73.9476 36.6527 73.5926 36.7187 73.2472C36.7847 72.9018 36.9182 72.5729 37.1115 72.2792C37.3049 71.9855 37.5543 71.7328 37.8454 71.5357C38.4345 71.1356 39.1582 70.9854 39.8579 71.118C40.5576 71.2506 41.1761 71.6552 41.5779 72.2431C41.7762 72.5334 41.9151 72.86 41.9867 73.2041C42.0584 73.5482 42.0612 73.9031 41.9952 74.2484C41.9292 74.5936 41.7956 74.9224 41.6021 75.2158C41.4085 75.5093 41.1589 75.7615 40.8675 75.9581C40.2785 76.3578 39.5553 76.508 38.8559 76.3759C38.1565 76.2439 37.5378 75.8404 37.1351 75.2536ZM32.9251 69.617C32.756 69.37 32.6374 69.0919 32.5761 68.7988C32.5148 68.5057 32.5121 68.2034 32.5681 67.9093C32.6241 67.6152 32.7378 67.335 32.9025 67.085C33.0672 66.8349 33.2797 66.6199 33.5278 66.4523C34.0288 66.113 34.6436 65.9856 35.2382 66.098C35.8327 66.2104 36.3587 66.5533 36.7013 67.0521C36.8704 67.2991 36.989 67.5772 37.0503 67.8703C37.1116 68.1634 37.1143 68.4657 37.0583 68.7598C37.0022 69.0539 36.8886 69.3341 36.7239 69.5841C36.5592 69.8342 36.3467 70.0492 36.0986 70.2168C35.5978 70.5568 34.9828 70.6847 34.388 70.5723C33.7932 70.4598 33.2672 70.1164 32.9251 69.617ZM30.4271 64.1348C30.2816 63.9214 30.1795 63.6814 30.127 63.4285C30.0744 63.1756 30.0722 62.9149 30.1206 62.6611C30.169 62.4074 30.2671 62.1657 30.4091 61.95C30.5511 61.7342 30.7344 61.5487 30.9483 61.4039C31.3812 61.1105 31.9126 61.0004 32.4264 61.0975C32.9402 61.1946 33.3948 61.491 33.6908 61.9221C33.8372 62.1359 33.9397 62.3765 33.9926 62.6301C34.0455 62.8837 34.0476 63.1452 33.9989 63.3997C33.9502 63.6541 33.8516 63.8963 33.7087 64.1125C33.5659 64.3286 33.3817 64.5143 33.1668 64.6589C32.7334 64.9507 32.2022 65.0594 31.689 64.9612C31.1758 64.8631 30.7222 64.566 30.4271 64.1348ZM29.379 59.0281C29.2526 58.8428 29.164 58.6343 29.1183 58.4147C29.0725 58.195 29.0706 57.9685 29.1125 57.7481C29.1544 57.5277 29.2394 57.3178 29.3625 57.1302C29.4857 56.9427 29.6447 56.7813 29.8303 56.6553C30.2062 56.4004 30.6679 56.3047 31.1142 56.3893C31.5605 56.4738 31.9552 56.7318 32.2118 57.1066C32.3388 57.2919 32.4279 57.5005 32.4738 57.7204C32.5198 57.9403 32.5217 58.1671 32.4794 58.3877C32.4372 58.6083 32.3517 58.8184 32.2278 59.0058C32.1039 59.1932 31.9441 59.3542 31.7576 59.4794C31.3819 59.7335 30.9209 59.8286 30.4753 59.7441C30.0297 59.6595 29.6356 59.4022 29.379 59.0281ZM29.4955 54.5562C29.3873 54.398 29.3114 54.22 29.2722 54.0325C29.233 53.8449 29.2311 53.6515 29.2668 53.4632C29.3025 53.2749 29.3751 53.0956 29.4803 52.9354C29.5854 52.7752 29.7212 52.6374 29.8798 52.5298C30.2008 52.3117 30.5953 52.2297 30.9767 52.3017C31.3581 52.3737 31.6954 52.5939 31.9149 52.9141C32.1065 53.235 32.1683 53.617 32.0874 53.9819C32.0066 54.3468 31.7893 54.667 31.48 54.8769C31.1708 55.0868 30.793 55.1705 30.424 55.1108C30.0551 55.0512 29.7229 54.8528 29.4955 54.5562ZM30.4096 50.8208C30.3129 50.686 30.244 50.5332 30.2072 50.3714C30.1704 50.2096 30.1664 50.0421 30.1954 49.8787C30.2243 49.7153 30.2857 49.5593 30.3759 49.42C30.4661 49.2808 30.5832 49.1609 30.7205 49.0676C30.8577 48.9743 31.0122 48.9094 31.1749 48.8768C31.3376 48.8442 31.5052 48.8444 31.6678 48.8776C31.8304 48.9107 31.9847 48.9761 32.1216 49.0698C32.2586 49.1636 32.3754 49.2838 32.4651 49.4233C32.6405 49.696 32.7023 50.0264 32.6376 50.3441C32.5728 50.6617 32.3865 50.9415 32.1184 51.1238C31.8503 51.306 31.5216 51.3764 31.2024 51.3198C30.8832 51.2632 30.5987 51.0842 30.4096 50.8208ZM16.6095 46.3314C17.4616 45.8413 18.4732 45.7089 19.4227 45.9632C20.3722 46.2175 21.1822 46.8378 21.6753 47.6881C21.9183 48.1087 22.0758 48.5731 22.1389 49.0546C22.202 49.5362 22.1695 50.0255 22.0432 50.4945C21.9169 50.9635 21.6993 51.4029 21.4029 51.7876C21.1064 52.1724 20.737 52.4948 20.3157 52.7365C18.5397 53.7555 16.2746 53.1471 15.2527 51.3827C15.0092 50.9622 14.8512 50.4977 14.7876 50.016C14.724 49.5342 14.7562 49.0446 14.8822 48.5753C15.0083 48.106 15.2257 47.6662 15.5221 47.2812C15.8185 46.8961 16.188 46.5733 16.6095 46.3314ZM24.8488 41.0617C25.5699 40.6454 26.4266 40.532 27.2311 40.7465C28.0356 40.961 28.7222 41.4859 29.1403 42.2059C30.005 43.7053 29.4896 45.6181 27.9873 46.4828C27.2658 46.8964 26.4101 47.0079 25.6067 46.793C24.8033 46.5781 24.1175 46.0542 23.6988 45.3357C23.4925 44.9796 23.3585 44.5863 23.3047 44.1783C23.2508 43.7703 23.2781 43.3556 23.3849 42.9582C23.4918 42.5608 23.6761 42.1884 23.9274 41.8624C24.1786 41.5365 24.4917 41.2634 24.8488 41.0588V41.0617ZM32.7126 38.2172C33.3228 37.8671 34.0466 37.7725 34.7263 37.9542C35.4059 38.1358 35.9861 38.5789 36.3402 39.1867C36.514 39.4882 36.6268 39.8209 36.672 40.166C36.7172 40.511 36.694 40.8616 36.6037 41.1976C36.5134 41.5337 36.3577 41.8486 36.1457 42.1246C35.9336 42.4005 35.6693 42.6319 35.3678 42.8056C34.7573 43.1555 34.0332 43.2496 33.3535 43.0674C32.6738 42.8853 32.0938 42.4416 31.7402 41.8332C31.566 41.5321 31.4531 41.1995 31.4077 40.8546C31.3623 40.5098 31.3855 40.1593 31.4758 39.8234C31.5662 39.4875 31.7219 39.1727 31.9341 38.897C32.1464 38.6214 32.4109 38.3904 32.7126 38.2172ZM39.8951 37.3263C40.4161 37.0264 41.0348 36.9454 41.6155 37.1009C42.1962 37.2565 42.6915 37.6359 42.9929 38.1561C43.1415 38.4131 43.2379 38.6969 43.2766 38.9912C43.3153 39.2856 43.2956 39.5847 43.2185 39.8714C43.1414 40.158 43.0085 40.4267 42.8274 40.6619C42.6463 40.8972 42.4205 41.0944 42.1631 41.2422C41.9049 41.3916 41.6197 41.4886 41.3239 41.5278C41.0282 41.567 40.7276 41.5474 40.4394 41.4704C40.1512 41.3933 39.8809 41.2602 39.6442 41.0787C39.4074 40.8972 39.2087 40.6708 39.0595 40.4124C38.9112 40.1551 38.8151 39.871 38.7768 39.5764C38.7385 39.2818 38.7587 38.9826 38.8364 38.6958C38.914 38.4091 39.0475 38.1405 39.2292 37.9055C39.4109 37.6705 39.6372 37.4737 39.8951 37.3263ZM46.0499 37.9203C46.4975 37.6627 47.029 37.5931 47.5278 37.7268C48.0267 37.8605 48.4521 38.1866 48.7109 38.6336C48.9364 39.0791 48.9824 39.5941 48.8395 40.0726C48.6966 40.551 48.3756 40.9564 47.9428 41.2053C47.5099 41.4542 46.998 41.5277 46.5127 41.4105C46.0273 41.2933 45.6053 40.9945 45.3337 40.5755C45.2056 40.3543 45.1225 40.11 45.0892 39.8566C45.0559 39.6032 45.073 39.3457 45.1396 39.0989C45.2061 38.8522 45.3208 38.621 45.4771 38.4187C45.6333 38.2164 45.8279 38.047 46.0499 37.9203ZM51.1099 39.5332C51.4945 39.3131 51.9505 39.2538 52.3786 39.3683C52.8066 39.4828 53.1721 39.7619 53.3954 40.1446C53.5058 40.3342 53.5776 40.5438 53.6066 40.7613C53.6356 40.9788 53.6213 41.1998 53.5645 41.4117C53.5076 41.6237 53.4094 41.8222 53.2755 41.996C53.1415 42.1698 52.9745 42.3153 52.784 42.4242C52.5942 42.5342 52.3846 42.6056 52.1671 42.6345C51.9497 42.6634 51.7287 42.6492 51.5167 42.5927C51.3048 42.5362 51.106 42.4385 50.9318 42.3052C50.7576 42.1719 50.6114 42.0056 50.5014 41.8158C50.3915 41.6259 50.3201 41.4163 50.2912 41.1989C50.2623 40.9814 50.2765 40.7604 50.333 40.5485C50.3895 40.3365 50.4872 40.1377 50.6205 39.9635C50.7538 39.7893 50.9201 39.6431 51.1099 39.5332ZM22.3654 33.0349C23.1653 32.7936 24.0283 32.8794 24.7651 33.2734C25.5019 33.6675 26.0524 34.3376 26.2958 35.1369C26.4868 35.9217 26.3696 36.7499 25.9684 37.4509C25.5672 38.152 24.9124 38.6725 24.139 38.9053C23.3655 39.1381 22.5323 39.0655 21.8107 38.7024C21.0892 38.3394 20.5343 37.7135 20.2604 36.9537C20.1399 36.5582 20.0989 36.1427 20.1396 35.7313C20.1803 35.3199 20.302 34.9206 20.4977 34.5564C20.6933 34.1922 20.959 33.8702 21.2796 33.6091C21.6001 33.348 21.9691 33.1528 22.3654 33.0349ZM30.2088 30.2603C30.8746 30.0877 31.5814 30.1794 32.1811 30.5162C32.7809 30.8529 33.2272 31.4086 33.4266 32.0669C33.6259 32.7252 33.563 33.4351 33.2508 34.048C32.9386 34.661 32.4015 35.1294 31.7518 35.3553C31.4173 35.4566 31.066 35.491 30.7182 35.4566C30.3703 35.4222 30.0327 35.3196 29.7245 35.1547C29.102 34.8216 28.6374 34.2549 28.4328 33.5793C28.2282 32.9037 28.3003 32.1744 28.6334 31.552C28.9664 30.9295 29.5331 30.4649 30.2088 30.2603ZM37.2719 29.4247C37.8433 29.2521 38.4598 29.3136 38.9859 29.5956C39.512 29.8776 39.9045 30.3571 40.0771 30.9284C40.2496 31.4998 40.1882 32.1164 39.9062 32.6425C39.6241 33.1685 39.1447 33.561 38.5733 33.7336C38.2904 33.8191 37.9934 33.848 37.6993 33.8186C37.4052 33.7893 37.1198 33.7023 36.8593 33.5627C36.5988 33.4231 36.3684 33.2335 36.1812 33.0048C35.9939 32.7761 35.8536 32.5128 35.7681 32.2299C35.6827 31.9469 35.6538 31.6499 35.6831 31.3559C35.7124 31.0618 35.7994 30.7763 35.939 30.5158C36.0787 30.2554 36.2683 30.0249 36.4969 29.8377C36.7256 29.6505 36.989 29.5101 37.2719 29.4247ZM43.3859 30.0739C43.8743 29.9265 44.4013 29.979 44.8509 30.2201C45.3005 30.4611 45.636 30.8709 45.7835 31.3593C45.931 31.8477 45.8784 32.3747 45.6373 32.8243C45.3963 33.274 44.9865 33.6094 44.4981 33.7569C44.0089 33.9038 43.4815 33.8509 43.0313 33.6097C42.5811 33.3685 42.2448 32.9587 42.0961 32.4701C42.0232 32.2278 41.9988 31.9736 42.0243 31.722C42.0498 31.4703 42.1248 31.2262 42.2449 31.0036C42.365 30.7809 42.5279 30.5842 42.7242 30.4247C42.9205 30.2652 43.1463 30.146 43.3888 30.0739H43.3859ZM48.3645 31.7538C48.7758 31.6527 49.2104 31.7133 49.5784 31.9231C49.9464 32.133 50.2199 32.476 50.3424 32.8816C50.4649 33.2871 50.427 33.7242 50.2367 34.1027C50.0463 34.4812 49.718 34.7722 49.3194 34.9157C49.1118 34.9784 48.8939 34.9996 48.6781 34.978C48.4623 34.9565 48.2528 34.8927 48.0617 34.7902C47.8705 34.6878 47.7015 34.5487 47.5641 34.3809C47.4267 34.2131 47.3237 34.0198 47.261 33.8122C47.1983 33.6046 47.1771 33.3867 47.1986 33.1709C47.2202 32.9551 47.284 32.7456 47.3864 32.5545C47.4889 32.3634 47.628 32.1943 47.7958 32.0569C47.9636 31.9195 48.1568 31.8165 48.3645 31.7538ZM52.2367 34.0684C52.4148 34.0143 52.6019 33.9959 52.7872 34.0141C52.9725 34.0323 53.1524 34.0868 53.3167 34.1745C53.4809 34.2622 53.6263 34.3814 53.7444 34.5254C53.8626 34.6693 53.9513 34.835 54.0054 35.0132C54.0595 35.1914 54.0779 35.3784 54.0597 35.5637C54.0415 35.7491 53.987 35.929 53.8993 36.0932C53.8116 36.2574 53.6923 36.4028 53.5484 36.521C53.4045 36.6391 53.2388 36.7278 53.0606 36.7819C52.7008 36.8911 52.3123 36.853 51.9806 36.6758C51.6489 36.4986 51.4012 36.197 51.2919 35.8371C51.1826 35.4773 51.2208 35.0888 51.398 34.7571C51.5751 34.4254 51.8768 34.1777 52.2367 34.0684ZM29.6148 23.2757C29.9663 23.2487 30.3197 23.2914 30.6547 23.4012C30.9896 23.5111 31.2996 23.686 31.5669 23.9159C31.8341 24.1458 32.0533 24.4262 32.212 24.741C32.3706 25.0558 32.4655 25.3989 32.4913 25.7505C32.5431 26.4609 32.3105 27.1627 31.8447 27.7016C31.379 28.2405 30.7183 28.5723 30.0079 28.624C29.2975 28.6758 28.5956 28.4432 28.0567 27.9775C27.5178 27.5117 27.186 26.851 27.1343 26.1406C27.1089 25.7894 27.1531 25.4366 27.2642 25.1024C27.3753 24.7682 27.5513 24.4593 27.7819 24.1932C28.0126 23.9271 28.2935 23.7091 28.6085 23.5517C28.9235 23.3942 29.2664 23.3005 29.6177 23.2757H29.6148ZM36.6226 22.4664C37.2076 22.453 37.7753 22.665 38.2082 23.0586C38.6412 23.4522 38.9062 23.9972 38.9485 24.5807C38.9908 25.1643 38.807 25.7418 38.4353 26.1936C38.0636 26.6455 37.5324 26.9371 36.9516 27.0082C36.6451 27.0457 36.3341 27.0205 36.0375 26.9342C35.741 26.8479 35.4651 26.7022 35.2266 26.506C34.9881 26.3097 34.7919 26.0671 34.65 25.7928C34.5081 25.5185 34.4234 25.2182 34.4011 24.9101C34.3788 24.6021 34.4193 24.2927 34.5202 24.0008C34.6211 23.7089 34.7802 23.4405 34.988 23.212C35.1957 22.9834 35.4478 22.7995 35.7288 22.6713C36.0098 22.5432 36.3139 22.4734 36.6226 22.4664ZM42.6318 23.0603C43.1341 23.054 43.6198 23.2397 43.9897 23.5794C44.3596 23.9192 44.5859 24.3873 44.6223 24.8883C44.6588 25.3892 44.5026 25.8852 44.1856 26.2748C43.8687 26.6645 43.415 26.9185 42.9172 26.9849C42.4045 27.009 41.9026 26.8319 41.5187 26.4913C41.1347 26.1507 40.899 25.6736 40.8618 25.1617C40.8246 24.6497 40.9888 24.1436 41.3195 23.751C41.6501 23.3584 42.1211 23.1106 42.6318 23.0603ZM47.59 24.714C48.0313 24.6994 48.4612 24.8562 48.7894 25.1516C49.1177 25.4469 49.3189 25.8578 49.3509 26.2982C49.3829 26.7387 49.2432 27.1743 48.9611 27.514C48.6789 27.8537 48.2763 28.071 47.8375 28.1204C47.6088 28.1461 47.3773 28.1254 47.1568 28.0595C46.9364 27.9935 46.7315 27.8838 46.5545 27.7367C46.3774 27.5897 46.2319 27.4085 46.1267 27.2038C46.0214 26.9992 45.9586 26.7754 45.9419 26.5459C45.9252 26.3164 45.9551 26.0859 46.0296 25.8682C46.1042 25.6505 46.222 25.4501 46.3759 25.279C46.5298 25.108 46.7167 24.9697 46.9253 24.8726C47.1339 24.7755 47.36 24.7216 47.59 24.714Z" fill="white"/>
</g>
<defs>
<clipPath id="clip0_342_5914">
<rect width="93.1659" height="93.1659" fill="white" transform="translate(0.197266 0.310547)"/>
</clipPath>
</defs>
</svg>
