<svg width="94" height="94" viewBox="0 0 94 94" fill="none" xmlns="http://www.w3.org/2000/svg">
<g clip-path="url(#clip0_342_5922)">
<path d="M46.8085 93.4764C72.5356 93.4764 93.3915 72.6205 93.3915 46.8935C93.3915 21.1664 72.5356 0.310547 46.8085 0.310547C21.0815 0.310547 0.225586 21.1664 0.225586 46.8935C0.225586 72.6205 21.0815 93.4764 46.8085 93.4764Z" fill="#00316D"/>
<path d="M53.086 58.2109C53.0482 58.141 53.0423 58.1119 53.0278 58.1032C51.2227 57.2501 49.4176 56.3941 47.6067 55.5527C47.5106 55.5062 47.3155 55.5178 47.2544 55.5848C46.4683 56.4291 45.6997 57.2938 44.9194 58.1585C45.4842 58.5748 52.6143 58.5777 53.086 58.2109ZM36.5665 37.3563L36.386 36.9778C36.2346 37.0855 36.0366 37.1641 35.9377 37.3097C34.2698 39.7911 32.6122 42.2795 30.9649 44.7746C30.863 44.9318 30.8689 45.1618 30.8194 45.3569C31.0232 45.3161 31.2503 45.3249 31.4162 45.223C32.8305 44.3724 34.232 43.5009 35.6203 42.6085C35.8643 42.4365 36.0323 42.1767 36.0891 41.8836C36.2754 40.4278 36.4035 38.9634 36.5665 37.3563ZM71.495 58.4642H73.8998C74.3628 58.4642 74.5404 58.2895 74.2463 57.844C72.7178 55.5091 71.1951 53.1712 69.6608 50.845C69.5793 50.7169 69.3929 50.6615 69.2532 50.5742C69.1804 50.7198 69.0552 50.8653 69.0407 51.0196C68.8631 53.2964 68.7029 55.5731 68.5282 57.8499C68.4962 58.2837 68.6476 58.4787 69.0901 58.47C69.8908 58.4525 70.6914 58.4642 71.495 58.4642ZM19.8636 58.2895C20.2305 58.3768 20.411 58.4584 20.5886 58.4613C23.1885 58.4671 25.7884 58.4613 28.3854 58.4671C28.8891 58.4671 29.0172 58.2895 28.8046 57.8033C27.989 55.9535 27.1912 54.0959 26.4114 52.2308C26.1844 51.6864 25.9747 51.7126 25.6166 52.0969C24.2308 53.5933 22.8333 55.0753 21.4416 56.563C20.9554 57.0871 20.4809 57.6111 19.8636 58.2895ZM58.28 44.859C58.4489 45.188 58.5042 45.3307 58.5886 45.453L62.1056 50.5596C63.5584 52.6704 65.0083 54.7812 66.4728 56.8833C66.5718 57.0288 66.7639 57.1074 66.9095 57.2152C66.9852 57.0405 67.1075 56.8745 67.1308 56.694C67.189 56.1991 67.2006 55.7041 67.2327 55.2092C67.3899 52.9528 67.5646 50.6994 67.6985 48.4459C67.7567 47.4852 67.3404 46.9902 66.4291 46.7631C63.9981 46.1546 61.567 45.5432 59.133 44.9406C58.9147 44.8882 58.6847 44.8969 58.28 44.859ZM57.6628 29.9088L57.4415 29.9467C57.4124 30.3921 57.3687 30.8405 57.3542 31.2918L57.031 42.2708C57.0164 42.6726 57.1358 42.8822 57.5521 42.9812C60.0734 43.5926 62.5889 44.236 65.1102 44.8561C65.3286 44.9085 65.5702 44.859 65.8002 44.8561C65.742 44.632 65.7304 44.3787 65.6226 44.1807C63.1101 39.6097 60.5917 35.0388 58.0675 30.4737C57.9568 30.2728 57.7996 30.0952 57.6628 29.9088ZM46.3519 52.3473C46.4217 51.96 46.4887 51.7271 46.4974 51.4942C46.5353 50.2743 46.5382 49.0544 46.5935 47.8345C46.6457 46.9051 46.3696 45.9869 45.8132 45.2404C43.5016 42.033 41.1967 38.8207 38.8986 35.6036C38.7938 35.458 38.7501 35.2688 38.6773 35.0999L38.4036 35.263C38.3367 35.5075 38.2319 35.7492 38.2057 35.9966C38.0019 37.9764 37.8272 39.9562 37.6088 41.9301C37.5756 42.1379 37.5917 42.3505 37.656 42.5508C37.7202 42.7511 37.8307 42.9334 37.9786 43.0831C40.5843 45.9858 43.1726 48.9059 45.7725 51.8174C45.9122 51.9746 46.0811 52.1027 46.3519 52.3473ZM48.0318 51.7388L48.2064 51.8552C48.3666 51.73 48.5558 51.631 48.6839 51.4767C50.8976 48.7891 53.1035 46.095 55.3016 43.3946C55.4364 43.2234 55.5156 43.0152 55.5287 42.7978C55.6335 39.2021 55.7238 35.6065 55.8053 32.0109C55.8111 31.8129 55.6976 31.612 55.6364 31.414C55.4763 31.5684 55.2521 31.6935 55.1619 31.8799C53.1238 36.1946 51.1761 40.553 49.0391 44.8125C47.9095 47.0659 48.09 49.3922 48.0318 51.7417V51.7388ZM37.833 58.4671C39.2334 58.4671 40.6367 58.4875 42.0371 58.4496C42.3567 58.4345 42.6604 58.3054 42.8931 58.0857C43.8684 57.0638 44.7826 55.9807 45.755 54.9559C46.1189 54.5774 46.0374 54.3445 45.7288 54.0068C44.0857 52.2247 42.4572 50.4293 40.8434 48.6206C40.4533 48.1839 40.2291 48.1868 39.8797 48.6643C37.6641 51.6951 35.4252 54.7055 33.198 57.7305C33.0874 57.8819 33.0466 58.0828 32.9709 58.2604C33.166 58.3302 33.361 58.4554 33.559 58.4554C34.9856 58.4729 36.4064 58.4671 37.833 58.4671ZM39.2829 46.9203C38.5085 46.0207 37.7486 45.1735 37.0294 44.2855C36.7267 43.9157 36.4937 43.8779 36.0861 44.1312C33.6522 45.6626 31.192 47.1533 28.7639 48.6934C28.3243 48.9729 27.9778 49.4067 27.6051 49.7881C27.2587 50.1433 27.3053 50.5334 27.4945 50.9701C28.4407 53.1333 29.3636 55.3053 30.2982 57.4743C30.6534 58.2895 30.7873 58.3041 31.3318 57.5762C32.7729 55.6546 34.2083 53.7244 35.6436 51.7999L39.2829 46.9203ZM56.1547 44.6261C55.9654 44.9318 55.8752 45.1182 55.7471 45.2696C53.4412 48.082 51.1324 50.8944 48.8091 53.6952C48.4306 54.1523 48.6257 54.3329 49.0537 54.5279C51.7234 55.7507 54.3816 56.9939 57.0572 58.2109C57.3999 58.3652 57.7703 58.4484 58.1461 58.4554C60.3471 58.4758 62.5511 58.47 64.755 58.4584C64.9588 58.4584 65.1655 58.3652 65.3722 58.3128C65.2995 58.0973 65.2674 57.8499 65.1393 57.6664C63.1083 54.7004 61.0713 51.7385 59.0282 48.7808C58.1257 47.4706 57.2173 46.1605 56.1547 44.6261ZM46.7886 61.4455C36.7674 61.4455 26.7463 61.4426 16.7251 61.4513C15.9448 61.4513 15.2403 61.364 14.9026 60.5255C14.5823 59.7306 14.955 59.1425 15.4761 58.5865C18.4691 55.3897 21.5028 52.2279 24.4142 48.9613C25.5264 47.7152 26.3852 46.2332 27.3256 44.8328C30.339 40.3259 33.329 35.8016 36.3569 31.3063C36.6539 30.8667 37.1081 30.4212 37.5855 30.2466C38.2435 30.002 38.8054 30.3805 39.2247 30.9802C41.6615 34.4623 44.1159 37.9327 46.5644 41.409C47.0681 42.1194 47.2486 42.0961 47.6212 41.2867L55.1735 24.8371C55.4705 24.1908 55.8635 23.6405 56.6292 23.6056C57.4299 23.5677 57.9161 24.0539 58.2916 24.741C62.0823 31.6178 65.7857 38.5529 69.7248 45.3423C72.1064 49.4475 74.8635 53.3226 77.4518 57.3025C77.772 57.7916 78.0952 58.2778 78.4096 58.7728C78.7881 59.3696 79.0123 60.0247 78.6571 60.6856C78.3077 61.3261 77.6614 61.4484 76.983 61.4484C66.9182 61.4426 56.8534 61.4455 46.7886 61.4455Z" fill="white"/>
</g>
<defs>
<clipPath id="clip0_342_5922">
<rect width="93.1659" height="93.1659" fill="white" transform="translate(0.225586 0.310547)"/>
</clipPath>
</defs>
</svg>
