<svg width="94" height="94" viewBox="0 0 94 94" fill="none" xmlns="http://www.w3.org/2000/svg">
<g clip-path="url(#clip0_342_5926)">
<path d="M47.3229 93.4764C73.05 93.4764 93.9059 72.6205 93.9059 46.8935C93.9059 21.1664 73.05 0.310547 47.3229 0.310547C21.5959 0.310547 0.73999 21.1664 0.73999 46.8935C0.73999 72.6205 21.5959 93.4764 47.3229 93.4764Z" fill="#1AAB9B"/>
<path d="M22.7445 61.9054V38.4829L40.5072 51.8522V61.9054H45.0432V50.9118C45.0428 50.5017 44.9472 50.0973 44.7638 49.7304C44.5804 49.3636 44.3142 49.0444 43.9863 48.7981L22.4446 32.5843C22.0519 32.2893 21.5848 32.1093 21.0956 32.0647C20.6064 32.02 20.1144 32.1124 19.6747 32.3315C19.235 32.5506 18.865 32.8877 18.606 33.3051C18.3471 33.7226 18.2094 34.2039 18.2085 34.6951V61.9054H22.7445ZM71.872 61.9054V38.4829L54.1094 51.8522V61.9054H49.5734V50.9118C49.5734 50.0791 49.9635 49.296 50.6273 48.7981L72.1719 32.5843C72.5649 32.2891 73.0322 32.1091 73.5217 32.0646C74.0112 32.0201 74.5034 32.1127 74.9431 32.3321C75.3829 32.5516 75.7529 32.8891 76.0116 33.307C76.2704 33.7249 76.4076 34.2065 76.408 34.698V61.9083H71.872V61.9054Z" fill="white"/>
</g>
<defs>
<clipPath id="clip0_342_5926">
<rect width="93.1659" height="93.1659" fill="white" transform="translate(0.739502 0.310547)"/>
</clipPath>
</defs>
</svg>
