<svg width="94" height="94" viewBox="0 0 94 94" fill="none" xmlns="http://www.w3.org/2000/svg">
<g clip-path="url(#clip0_342_5930)">
<path d="M46.8354 93.4764C72.5624 93.4764 93.4183 72.6205 93.4183 46.8935C93.4183 21.1664 72.5624 0.310547 46.8354 0.310547C21.1083 0.310547 0.252441 21.1664 0.252441 46.8935C0.252441 72.6205 21.1083 93.4764 46.8354 93.4764Z" fill="#0B1529"/>
<path fill-rule="evenodd" clip-rule="evenodd" d="M25.3695 58.8997L40.7185 67.9019V72.9357L20.6326 61.1153V30.2832L46.8355 14.8672L73.0384 30.2832V61.1153L52.9524 72.9357V67.8989L68.2986 58.8997L64.339 56.6113L64.8572 55.7117L68.7673 57.971V35.1104L48.9113 46.8784V80.5346L46.8355 81.8302L44.7567 80.5346V46.8784L24.9036 35.1104V57.9681L28.8108 55.7117L29.329 56.6142L25.3695 58.8997ZM46.259 20.1485L26.9795 31.4594L46.8355 43.2304L66.6914 31.4594L47.2984 20.0816V24.7515H46.259V20.1485ZM46.259 27.695H47.2984V32.5192H46.259V27.695ZM46.259 35.4627H47.2984V40.2869L46.7772 40.5227L46.259 40.2898V35.4627ZM62.4466 54.2414L61.9283 55.144L57.7475 52.7275L58.2687 51.8278L62.4466 54.2443V54.2414ZM55.8522 50.3576L55.331 51.2601L51.1531 48.8436L51.2114 48.2788L51.6714 47.9469L55.8522 50.3576ZM31.2215 54.2414L35.3994 51.8278L35.9205 52.7304L31.7426 55.141L31.2215 54.2414ZM37.8188 50.3576L41.9967 47.9469L42.4625 48.2788L42.5149 48.8465L38.337 51.2572L37.8188 50.3576Z" fill="white"/>
</g>
<defs>
<clipPath id="clip0_342_5930">
<rect width="93.1659" height="93.1659" fill="white" transform="translate(0.253418 0.310547)"/>
</clipPath>
</defs>
</svg>
