<svg width="94" height="94" viewBox="0 0 94 94" fill="none" xmlns="http://www.w3.org/2000/svg">
<g clip-path="url(#clip0_342_5934)">
<path d="M47.3505 93.4764C73.0776 93.4764 93.9334 72.6205 93.9334 46.8935C93.9334 21.1664 73.0776 0.310547 47.3505 0.310547C21.6235 0.310547 0.767578 21.1664 0.767578 46.8935C0.767578 72.6205 21.6235 93.4764 47.3505 93.4764Z" fill="#00ADEF"/>
<path fill-rule="evenodd" clip-rule="evenodd" d="M44.0402 78.878C27.9021 77.1864 15.3247 63.5114 15.3247 46.893C15.3247 30.2745 27.9021 16.5995 44.0402 14.9079V24.7195C38.746 25.5355 33.9189 28.2203 30.4331 32.2877C26.9473 36.3551 25.0332 41.5362 25.0373 46.893C25.0332 52.2497 26.9473 57.4308 30.4331 61.4982C33.9189 65.5656 38.746 68.2504 44.0402 69.0664V78.878ZM50.3725 14.8672C65.5993 16.2618 77.7488 28.3093 79.3355 43.507H69.5443C68.8159 38.7149 66.554 34.2879 63.0975 30.8898C59.6411 27.4916 55.1763 25.3052 50.3725 24.6583V14.8672ZM79.3762 49.8539C77.9729 65.2554 65.7391 77.5125 50.3725 78.9187V69.1276C55.2493 68.4711 59.7745 66.2283 63.2503 62.7451C66.7261 59.262 68.9593 54.732 69.6055 49.8539H79.3762Z" fill="white"/>
</g>
<defs>
<clipPath id="clip0_342_5934">
<rect width="93.1659" height="93.1659" fill="white" transform="translate(0.767578 0.310547)"/>
</clipPath>
</defs>
</svg>
