<svg width="94" height="94" viewBox="0 0 94 94" fill="none" xmlns="http://www.w3.org/2000/svg">
<g clip-path="url(#clip0_342_5938)">
<path d="M46.8649 93.4764C72.592 93.4764 93.4479 72.6205 93.4479 46.8935C93.4479 21.1664 72.592 0.310547 46.8649 0.310547C21.1379 0.310547 0.281982 21.1664 0.281982 46.8935C0.281982 72.6205 21.1379 93.4764 46.8649 93.4764Z" fill="#7F368A"/>
<path d="M74.7244 62.3713C74.9137 63.137 74.1509 63.5184 73.5773 63.3291H64.0337C63.4601 63.3291 63.0787 63.137 62.6944 62.9448C62.1238 62.7527 61.7424 61.9899 61.5502 61.2242V61.032L52.5772 27.9407C52.3879 27.9407 51.8144 28.5142 51.6222 28.5142C51.433 28.7035 51.0487 28.8956 50.8594 28.7035C50.478 28.5142 50.2859 27.9407 50.478 27.5564C50.8565 26.6014 51.8144 26.025 52.7693 25.8357C53.9135 25.6436 54.8685 25.6436 56.0127 25.6436H63.0787C63.6494 25.6436 64.2229 25.6436 64.7965 25.8357C65.37 26.2171 65.5593 26.9828 65.7514 27.5564C66.1299 28.8956 66.3221 30.2349 66.7064 31.5741L71.286 48.7924L73.0038 55.6779C73.5773 57.7829 74.3431 60.08 74.7215 62.3742L74.7244 62.3713ZM52.5772 62.3713C52.7693 63.137 52.0036 63.5184 51.433 63.3291H41.8864C41.3128 63.3291 40.9314 63.137 40.5471 62.9448C39.9765 62.7527 39.5951 61.9899 39.4029 61.2242V61.032L30.4328 27.9407C30.2407 27.9407 29.6671 28.5142 29.4779 28.5142C29.2857 28.7035 28.9043 28.8956 28.7122 28.7035C28.3337 28.5142 28.1415 27.9407 28.3337 27.5564C28.7122 26.6014 29.6671 26.025 30.6221 25.8357C31.7692 25.6436 32.7212 25.6436 33.8683 25.6436H40.9314C41.505 25.6436 42.0785 25.6436 42.6492 25.8357C43.2227 26.2171 43.4149 26.9828 43.6041 27.5564C43.9855 28.8956 44.1777 30.2349 44.5591 31.5741L49.1417 48.7924L50.8594 55.6779C51.433 57.7829 52.1958 60.08 52.5772 62.3742V62.3713ZM35.0125 55.1014L32.7212 62.3713C32.6156 62.7488 32.3918 63.0825 32.0826 63.3235C31.7735 63.5645 31.3953 63.7002 31.0035 63.7105H20.8862C20.3797 63.709 19.8943 63.5069 19.5364 63.1484C19.1785 62.7899 18.9771 62.3043 18.9763 61.7977V61.4134L26.9944 31.1898C27.1866 30.8055 27.568 30.4241 27.9494 30.4241C28.5229 30.4241 28.9043 30.8055 28.9043 31.1898L35.0125 55.1014ZM57.5412 54.5279L56.2048 58.5457C56.0127 58.9271 55.8234 59.1192 55.442 59.1192C55.0606 59.1192 54.8685 58.9271 54.6763 58.5457L47.9946 35.2047L49.3338 30.4241C49.3338 30.0398 49.7123 29.8506 50.0966 29.8506C50.4751 29.8506 50.8594 30.0398 50.8594 30.4241L57.5412 54.5279Z" fill="white"/>
</g>
<defs>
<clipPath id="clip0_342_5938">
<rect width="93.1659" height="93.1659" fill="white" transform="translate(0.281494 0.310547)"/>
</clipPath>
</defs>
</svg>
