<svg width="94" height="94" viewBox="0 0 94 94" fill="none" xmlns="http://www.w3.org/2000/svg">
<g clip-path="url(#clip0_342_5952)">
<path d="M47.0717 93.9901C72.7988 93.9901 93.6546 73.1342 93.6546 47.4072C93.6546 21.6801 72.7988 0.824219 47.0717 0.824219C21.3447 0.824219 0.48877 21.6801 0.48877 47.4072C0.48877 73.1342 21.3447 93.9901 47.0717 93.9901Z" fill="#DEC799"/>
<path d="M68.9945 39.878L64.8457 21.2041L56.7024 34.0552C50.3717 32.5266 43.7681 32.5266 37.4374 34.0552L29.3174 21.2041L25.1541 39.878C20.685 43.4533 17.957 48.1261 17.957 53.2561C17.957 64.4942 30.9886 73.6041 47.0626 73.6041C63.1367 73.6041 76.1682 64.4913 76.1682 53.2561C76.1653 48.1261 73.4606 43.4533 68.9915 39.878H68.9945ZM30.8896 48.426H28.9506L33.6875 42.9642H37.1346L30.8896 48.426ZM46.9141 61.772L38.8611 47.5875L40.8496 46.4521L42.646 49.611H51.4414L53.3164 46.4375L55.2845 47.6079L46.9141 61.772ZM63.256 48.426L57.0081 42.9642H60.4785L65.2096 48.426H63.256ZM46.952 57.204L43.9445 51.9052H50.0818L46.952 57.204Z" fill="white"/>
</g>
<defs>
<clipPath id="clip0_342_5952">
<rect width="93.1659" height="93.1659" fill="white" transform="translate(0.487793 0.824219)"/>
</clipPath>
</defs>
</svg>
