<svg width="94" height="94" viewBox="0 0 94 94" fill="none" xmlns="http://www.w3.org/2000/svg">
<g clip-path="url(#clip0_342_5956)">
<path d="M46.5834 93.9901C72.3105 93.9901 93.1664 73.1342 93.1664 47.4072C93.1664 21.6801 72.3105 0.824219 46.5834 0.824219C20.8564 0.824219 0.000488281 21.6801 0.000488281 47.4072C0.000488281 73.1342 20.8564 93.9901 46.5834 93.9901Z" fill="#47B95C"/>
<path d="M46.5831 18.293C30.512 18.293 17.4688 31.3362 17.4688 47.4073C17.4688 47.7945 17.5066 48.1643 17.527 48.5515H31.1903L37.7906 37.1969L46.5831 49.7947L55.3552 37.1969L61.9555 48.5515H75.6188C75.6392 48.1643 75.677 47.7945 75.677 47.4073C75.6974 31.3362 62.6542 18.293 46.5831 18.293ZM66.6516 45.0403C65.4696 35.0046 56.9274 27.202 46.5831 27.202C36.2388 27.202 27.6966 35.025 26.5146 45.0403H22.9801C24.165 33.0627 34.2968 23.6879 46.5831 23.6879C58.8693 23.6879 68.9807 33.0627 70.1861 45.0403H66.6516Z" fill="white"/>
<path d="M55.105 43.7188L46.5832 55.9468L38.0614 43.7188L33.211 52.0658H17.8765C20.1095 65.9243 32.0843 76.5219 46.5832 76.5219C61.0821 76.5219 73.0569 65.9243 75.2899 52.0455H59.9554L55.105 43.7188ZM65.0621 55.5595H68.8265C65.4871 64.6228 56.7936 71.127 46.5832 71.127C36.3728 71.127 27.6793 64.6228 24.3398 55.5595H28.1043C31.2487 62.6431 38.3351 67.6129 46.5832 67.6129C54.8313 67.6129 61.9177 62.6431 65.0621 55.5595Z" fill="white"/>
</g>
<defs>
<clipPath id="clip0_342_5956">
<rect width="93.1659" height="93.1659" fill="white" transform="translate(0.00146484 0.824219)"/>
</clipPath>
</defs>
</svg>
