<svg width="94" height="94" viewBox="0 0 94 94" fill="none" xmlns="http://www.w3.org/2000/svg">
<g clip-path="url(#clip0_342_5962)">
<path d="M47.0986 93.9901C72.8256 93.9901 93.6815 73.1342 93.6815 47.4072C93.6815 21.6801 72.8256 0.824219 47.0986 0.824219C21.3715 0.824219 0.515625 21.6801 0.515625 47.4072C0.515625 73.1342 21.3715 93.9901 47.0986 93.9901Z" fill="#104FCA"/>
<path d="M20.8955 28.6807L33.2225 49.3606V70.6985C26.4156 70.6985 20.8955 65.3531 20.8955 58.7587V28.6807Z" fill="white" fill-opacity="0.5"/>
<path d="M60.9717 49.3382L73.2929 28.6699H73.2987V58.7625C73.3016 65.354 67.7815 70.6994 60.9717 70.6994V49.3382Z" fill="white" fill-opacity="0.6"/>
<path d="M47.0897 48.741L40.9262 59.0825C39.6481 58.7622 38.2739 57.5219 36.8036 55.3646L20.8955 28.6813C26.7912 25.3826 34.3318 27.342 37.7352 33.0484L47.0897 48.741Z" fill="white" fill-opacity="0.8"/>
<path d="M56.4622 33.0245C59.8656 27.3123 67.4062 25.3558 73.3019 28.6545L57.3938 55.3377C56.2448 57.0034 54.7064 58.3631 52.9122 59.2988C51.118 60.2344 49.1225 60.7176 47.099 60.7064C45.1828 60.7102 43.291 60.277 41.5673 59.44L40.9268 59.0818L56.4622 33.0245Z" fill="white"/>
</g>
<defs>
<clipPath id="clip0_342_5962">
<rect width="93.1659" height="93.1659" fill="white" transform="translate(0.515625 0.824219)"/>
</clipPath>
</defs>
</svg>
