<svg width="94" height="94" viewBox="0 0 94 94" fill="none" xmlns="http://www.w3.org/2000/svg">
<g clip-path="url(#clip0_342_5974)">
<path d="M47.1254 93.9901C72.8525 93.9901 93.7084 73.1342 93.7084 47.4072C93.7084 21.6801 72.8525 0.824219 47.1254 0.824219C21.3984 0.824219 0.54248 21.6801 0.54248 47.4072C0.54248 73.1342 21.3984 93.9901 47.1254 93.9901Z" fill="white"/>
<path d="M54.8407 1.4822C52.2917 1.04914 49.711 0.829049 47.1254 0.824219C21.3883 0.824219 0.54248 21.6701 0.54248 47.4072C0.54248 57.2886 3.64898 66.4188 8.86918 73.9915C12.0718 69.2866 19.4581 66.0403 28.0206 66.0403C33.9017 66.0403 39.2209 67.5921 43.0319 70.0872L54.8407 1.4822ZM79.5937 14.045C87.638 31.8339 80.5807 41.3368 80.5807 41.3368C75.1218 24.9163 59.3127 22.5173 59.3127 22.5173C59.3127 22.5173 48.913 78.5566 48.913 79.2611C48.913 85.3315 42.4671 90.4614 33.7154 92.0132C38.0652 93.3221 42.583 93.9881 47.1254 93.9901C72.8625 93.9901 93.7084 73.1442 93.7084 47.4072C93.7084 34.3261 88.296 22.5144 79.5937 14.045Z" fill="#FBBF02"/>
</g>
<defs>
<clipPath id="clip0_342_5974">
<rect width="93.1659" height="93.1659" fill="white" transform="translate(0.543457 0.824219)"/>
</clipPath>
</defs>
</svg>
