<svg width="94" height="94" viewBox="0 0 94 94" fill="none" xmlns="http://www.w3.org/2000/svg">
<g clip-path="url(#clip0_342_5978)">
<path d="M46.6406 93.9901C72.3676 93.9901 93.2235 73.1342 93.2235 47.4072C93.2235 21.6801 72.3676 0.824219 46.6406 0.824219C20.9135 0.824219 0.0576172 21.6801 0.0576172 47.4072C0.0576172 73.1342 20.9135 93.9901 46.6406 93.9901Z" fill="#FFAA05"/>
<path fill-rule="evenodd" clip-rule="evenodd" d="M49.0019 34.501V39.925H55.4478L52.5364 43.2673H48.2071V47.4685H52.711L50.5042 50.8108H48.2071V59.3821L44.5008 64.4364V50.8108H39.3767L42.2037 47.4685H44.5008V43.2673H37.2601L40.1715 39.925H44.5008V34.3059C42.3667 31.9972 39.4233 30.8413 35.6704 30.8413C28.4734 30.8413 22.7786 38.5129 22.7786 46.1409C22.7786 51.2243 23.9432 55.539 26.2665 59.0822L22.2487 63.7522C19.1015 59.0881 17.5264 53.7601 17.5264 47.7684C17.5264 34.6116 28.8518 27.0273 36.8612 27.0273C41.764 27.0273 45.5198 29.0828 48.1284 33.1908C53.1186 29.767 58.2224 28.0551 63.4397 28.0551C71.4286 28.0551 75.755 37.8084 75.755 47.125C75.755 59.5219 67.4109 64.3083 64.3655 64.8672C64.2536 64.8878 64.1382 64.8763 64.0326 64.8341C63.927 64.7918 63.8355 64.7206 63.7687 64.6285C63.7239 64.5666 63.6922 64.4963 63.6754 64.4217C63.6586 64.3472 63.6571 64.2701 63.671 64.195C63.6849 64.1198 63.7138 64.0483 63.7561 63.9847C63.7985 63.9211 63.8532 63.8668 63.9171 63.825C68.6308 60.6573 70.9861 55.804 70.9861 49.2678C70.9861 34.9988 63.658 31.6973 58.2719 31.6973C54.9717 31.6881 51.7438 32.6644 49.0019 34.501Z" fill="white"/>
</g>
<defs>
<clipPath id="clip0_342_5978">
<rect width="93.1659" height="93.1659" fill="white" transform="translate(0.0576172 0.824219)"/>
</clipPath>
</defs>
</svg>
