<svg width="94" height="94" viewBox="0 0 94 94" fill="none" xmlns="http://www.w3.org/2000/svg">
<g clip-path="url(#clip0_342_5982)">
<path d="M47.1557 93.9901C72.8827 93.9901 93.7386 73.1342 93.7386 47.4072C93.7386 21.6801 72.8827 0.824219 47.1557 0.824219C21.4286 0.824219 0.572754 21.6801 0.572754 47.4072C0.572754 73.1342 21.4286 93.9901 47.1557 93.9901Z" fill="#4A90E2"/>
<path d="M73.2126 32.8506C70.7146 32.8506 68.6038 34.8682 68.6038 37.4594C68.6038 41.1103 68.0274 42.0682 63.9921 42.0682H63.6078C62.4783 42.1634 61.4261 42.6807 60.661 43.517C59.8958 44.3534 59.4739 45.4474 59.4794 46.5809V46.6799C59.4794 50.2318 58.8098 51.0965 54.8706 51.0965C54.6785 51.0965 54.4863 51.0965 54.3902 51.1926C52.0844 51.4808 50.2618 53.3995 50.2618 55.7053C50.2618 58.2034 52.2765 60.3141 54.8706 60.3141C57.2725 60.3141 59.2873 58.3926 59.3833 56.0896V55.7053C59.3833 52.4416 60.4402 51.1926 63.8961 51.0965H63.9921C66.3941 51.0965 68.4117 49.175 68.5049 46.776V46.4848C68.5049 43.125 69.5617 41.876 73.1166 41.876C75.6117 41.876 77.7254 39.8613 77.7254 37.2672C77.7254 34.8682 75.7077 32.8506 73.2126 32.8506ZM46.1305 42.0682C47.2504 42.1691 48.2958 42.6725 49.0731 43.4851C49.8504 44.2977 50.3068 45.3644 50.3579 46.4877C50.3579 49.0789 48.3403 51.0965 45.7462 51.0965C43.155 51.0965 41.1374 48.9828 41.1374 46.4877C41.1374 43.2211 40.0805 41.975 36.5286 41.975C32.9766 41.975 31.9198 43.2211 31.9198 46.5838V46.872C31.8237 49.175 29.8061 51.0936 27.4071 51.0936C24.8159 51.0936 22.7953 48.9828 22.7953 46.4877C22.7953 44.0858 24.6208 42.1643 26.9267 41.975H27.311C31.3433 41.975 31.9198 41.1103 31.9198 37.4623C31.9622 36.2683 32.4664 35.1374 33.3261 34.3077C34.1857 33.4781 35.3338 33.0144 36.5286 33.0144C37.7233 33.0144 38.8714 33.4781 39.7311 34.3077C40.5908 35.1374 41.0949 36.2683 41.1374 37.4623C41.1374 41.1103 41.7138 42.0682 45.7462 42.0682H46.1305ZM18.2826 60.3141C17.0603 60.3141 15.888 59.8286 15.0237 58.9643C14.1594 58.0999 13.6738 56.9277 13.6738 55.7053C13.6738 54.483 14.1594 53.3107 15.0237 52.4464C15.888 51.5821 17.0603 51.0965 18.2826 51.0965C19.505 51.0965 20.6772 51.5821 21.5415 52.4464C22.4059 53.3107 22.8914 54.483 22.8914 55.7053C22.8914 56.9277 22.4059 58.0999 21.5415 58.9643C20.6772 59.8286 19.505 60.3141 18.2826 60.3141Z" fill="white"/>
</g>
<defs>
<clipPath id="clip0_342_5982">
<rect width="93.1659" height="93.1659" fill="white" transform="translate(0.571777 0.824219)"/>
</clipPath>
</defs>
</svg>
