<svg width="94" height="94" viewBox="0 0 94 94" fill="none" xmlns="http://www.w3.org/2000/svg">
<g clip-path="url(#clip0_342_5986)">
<path d="M46.6674 93.9901C72.3945 93.9901 93.2503 73.1342 93.2503 47.4072C93.2503 21.6801 72.3945 0.824219 46.6674 0.824219C20.9404 0.824219 0.0844727 21.6801 0.0844727 47.4072C0.0844727 73.1342 20.9404 93.9901 46.6674 93.9901Z" fill="#222222"/>
<path fill-rule="evenodd" clip-rule="evenodd" d="M37.147 55.1375L46.3064 73.7182L51.0112 59.822L37.1499 55.1375H37.147ZM20.3975 47.0757L34.2676 51.7835L38.9783 37.896L20.3975 47.0757ZM37.9564 52.9684C38.1747 53.0849 38.265 53.1548 38.3669 53.1897C42.8388 54.7095 47.305 56.2409 51.7886 57.7228C52.1525 57.8393 52.6707 57.7403 53.0289 57.5656C58.1559 55.0647 63.2684 52.5346 68.3808 50.0104C69.8366 49.2913 71.2864 48.5634 72.8732 47.7715C72.5238 47.6376 72.3433 47.5619 72.1541 47.4979C67.8248 46.0276 63.4955 44.5486 59.1516 43.1191C58.6928 42.9838 58.2011 43.0148 57.7628 43.2064C52.3126 45.8558 46.8828 48.5489 41.4501 51.2303C40.3175 51.7893 39.1908 52.3541 37.9564 52.9684ZM56.8778 41.1335C53.5878 34.4546 50.3387 27.8748 47.008 21.1174L36.8762 51.009L56.8778 41.1335ZM14.6416 47.4134C17.8267 45.8383 20.8313 44.3419 23.8417 42.857C28.96 40.3328 34.0783 37.8057 39.2054 35.299C39.4593 35.1876 39.6858 35.022 39.8689 34.8138C40.052 34.6056 40.1872 34.3597 40.2651 34.0936C42.2682 28.1164 44.3004 22.1509 46.3267 16.1825C46.4024 15.9612 46.4927 15.7458 46.6324 15.3818C46.8362 15.7778 46.9876 16.0573 47.1274 16.3397C51.0433 24.2879 54.9533 32.2361 58.9012 40.1669C59.0934 40.5512 59.6 40.8714 60.0338 41.0199C65.9614 43.0637 71.9008 45.0726 77.8372 47.0903C78.0614 47.166 78.2826 47.2475 78.6931 47.393C78.1458 47.6696 77.7411 47.8822 77.3335 48.0831C69.6823 51.8592 62.0339 55.6441 54.371 59.394C54.0254 59.5455 53.7175 59.7716 53.4694 60.0559C53.2213 60.3403 53.039 60.676 52.9357 61.0389C50.9588 66.9608 48.9325 72.8652 46.9207 78.7754C46.8653 78.9384 46.7984 79.0956 46.6674 79.4334C46.152 78.3998 45.7066 77.5177 45.2699 76.6326C41.7063 69.4064 38.1398 62.1802 34.5966 54.9424C34.476 54.6611 34.2951 54.4097 34.0667 54.2059C33.8383 54.0022 33.568 53.8511 33.2748 53.7633C27.3296 51.7748 21.3961 49.7455 15.4597 47.7279C15.2414 47.6522 15.0288 47.5619 14.6416 47.4134Z" fill="white"/>
</g>
<defs>
<clipPath id="clip0_342_5986">
<rect width="93.1659" height="93.1659" fill="white" transform="translate(0.0854492 0.824219)"/>
</clipPath>
</defs>
</svg>
