<svg width="94" height="94" viewBox="0 0 94 94" fill="none" xmlns="http://www.w3.org/2000/svg">
<g clip-path="url(#clip0_342_5994)">
<path d="M46.6972 93.9901C72.4242 93.9901 93.2801 73.1342 93.2801 47.4072C93.2801 21.6801 72.4242 0.824219 46.6972 0.824219C20.9701 0.824219 0.114258 21.6801 0.114258 47.4072C0.114258 73.1342 20.9701 93.9901 46.6972 93.9901Z" fill="#36A9CF"/>
<path fill-rule="evenodd" clip-rule="evenodd" d="M76.7137 54.6131C77.2261 54.8372 77.4154 55.5331 77.1388 56.1678C77.0562 56.3781 76.9201 56.5632 76.7439 56.7047C76.5677 56.8461 76.3576 56.9391 76.1343 56.9742L69.6564 68.9198C69.7136 69.1865 69.7002 69.4636 69.6175 69.7235C69.5348 69.9834 69.3856 70.2172 69.1848 70.4018C69.0247 70.569 68.8299 70.6992 68.6141 70.7832C68.3983 70.8672 68.1668 70.903 67.9358 70.888L55.303 78.4519C55.2048 78.7009 55.0428 78.9197 54.8333 79.0863C54.6238 79.2529 54.3741 79.3614 54.1093 79.401C53.4863 79.5204 52.8924 79.2933 52.6071 78.8711L37.7646 77.8317C37.58 77.9725 37.3663 78.0701 37.1391 78.1175C36.9119 78.1648 36.6769 78.1607 36.4515 78.1054C35.7178 77.9453 35.2112 77.3601 35.2404 76.7574L23.7722 68.4831C23.5327 68.5261 23.2863 68.5115 23.0535 68.4406C22.8207 68.3698 22.608 68.2446 22.433 68.0755C21.9322 67.6213 21.7517 66.9605 21.9438 66.4597L17.2273 55.5214C16.712 55.4195 16.2665 54.9129 16.1501 54.2433C16.054 53.6406 16.252 53.0729 16.6217 52.7701L17.3176 36.2128C17.1609 35.9993 17.0602 35.75 17.0246 35.4876C16.989 35.2252 17.0197 34.958 17.1138 34.7105C17.3467 34.0321 17.9086 33.6042 18.4618 33.6333L30.8412 20.6628C30.7335 20.0514 31.1993 19.4022 31.9301 19.1722C32.1568 19.0948 32.3984 19.0712 32.6358 19.103C32.8732 19.1348 33.1001 19.2213 33.2984 19.3556L51.1106 16.1181C51.3406 15.594 51.9927 15.2854 52.6973 15.4106C53.3378 15.5212 53.8182 15.9609 53.9318 16.4675L62.1595 21.1607C62.3876 21.0878 62.6288 21.0651 62.8665 21.0943C63.1042 21.1234 63.3328 21.2037 63.5366 21.3295C63.7611 21.4602 63.9528 21.6403 64.0971 21.8563C64.2414 22.0722 64.3345 22.3183 64.3692 22.5756L67.9095 24.9572C68.1379 24.8953 68.3775 24.8867 68.6097 24.9321C68.8419 24.9775 69.0606 25.0758 69.2488 25.2192C69.9126 25.6967 70.1514 26.5294 69.7729 27.0825L69.7496 27.1117L74.9407 37.2434C75.4356 37.1765 75.9422 37.5608 76.1227 38.1693C76.3207 38.836 76.047 39.5144 75.5171 39.6832C74.9843 39.8579 74.3933 39.4561 74.1982 38.7923L74.1633 38.6468L63.4813 32.9258C63.3112 33.165 63.0799 33.354 62.8116 33.4731V61.9877C63.1605 62.1416 63.4452 62.4117 63.6172 62.752C63.7892 63.0924 63.8379 63.4818 63.7549 63.854L68.093 68.2735C68.3151 68.1794 68.5581 68.1452 68.7975 68.1745L75.3483 56.5987C75.2353 56.4124 75.1705 56.2009 75.1598 55.9834C75.1492 55.7658 75.1929 55.549 75.2871 55.3526C75.5637 54.7179 76.2042 54.3889 76.7137 54.6131ZM76.7254 55.996C76.836 55.7398 76.7574 55.4632 76.5536 55.3729C76.3498 55.2856 76.0936 55.4166 75.983 55.6699C75.8723 55.9232 75.948 56.1998 76.1547 56.293C76.3585 56.3803 76.6118 56.2493 76.7254 55.996ZM68.9664 69.9476C69.1993 69.7147 69.2401 69.3711 69.0567 69.179C68.8732 68.9868 68.5355 69.0188 68.2997 69.2488C68.0668 69.4818 68.026 69.8282 68.2094 70.0204C68.3928 70.2125 68.7335 70.1805 68.9664 69.9476ZM67.1351 69.2197L67.1671 69.1498L63.0067 64.9166C62.7578 65.0721 62.4704 65.1548 62.1769 65.1554C61.8712 65.1547 61.572 65.0666 61.3146 64.9016C61.0572 64.7365 60.8523 64.5013 60.7241 64.2237H55.14C54.9956 64.527 54.762 64.7789 54.4704 64.9457L55.0148 72.827C55.2303 72.9202 55.4224 73.0541 55.568 73.22L67.1351 69.2197ZM55.0002 77.331L65.0942 71.2868L55.8941 74.4661C55.8331 74.6961 55.7189 74.9084 55.5605 75.086C55.4022 75.2635 55.2043 75.4013 54.9828 75.488L54.7033 77.1301C54.8112 77.1828 54.9112 77.2504 55.0002 77.331ZM54.054 78.8973C54.3743 78.8391 54.5926 78.5771 54.5461 78.3092C54.4995 78.0472 54.1967 77.8783 53.8764 77.9424C53.5591 78.0006 53.3378 78.2626 53.3844 78.5276C53.4339 78.7925 53.7338 78.9585 54.054 78.8973ZM52.5867 77.7386C52.7799 77.4201 53.0819 77.1822 53.4368 77.0689L53.7018 75.5113C53.4657 75.4235 53.2534 75.282 53.0816 75.0979L41.4999 76.967L52.5867 77.7386ZM41.7532 65.1146L37.9858 76.2275L52.5896 73.8693L42.2569 64.9021C42.1023 65.0011 41.932 65.0729 41.7532 65.1146ZM36.9057 75.4647L40.4984 64.87C40.2617 64.7059 40.0728 64.4818 39.951 64.2208H33.3829C33.3425 64.3014 33.2968 64.3792 33.246 64.4537L36.9057 75.4647ZM36.4602 77.6047C36.7805 77.6745 37.0833 77.5173 37.1357 77.2553C37.1939 76.9933 36.9814 76.7225 36.6611 76.6497C36.3409 76.5827 36.0381 76.737 35.9828 76.9991C35.9275 77.2669 36.14 77.5348 36.4602 77.6047ZM24.5612 67.6708L35.6392 75.6656L32.1397 65.1379C31.8873 65.1708 31.6308 65.143 31.3913 65.0569C31.1518 64.9709 30.9363 64.8289 30.7626 64.6429L24.5816 67.336C24.5905 67.4479 24.5846 67.5605 24.5641 67.6708H24.5612ZM23.5247 65.9298C23.6822 65.9993 23.8292 66.0904 23.9615 66.2006L30.3171 63.4347C30.3297 63.1201 30.4306 62.8154 30.6083 62.5554L20.7793 52.3975L23.5247 65.9298ZM23.4578 67.7029C23.6325 67.5049 23.5742 67.1613 23.3326 66.9401C23.088 66.7217 22.7503 66.7042 22.5756 66.9051C22.4009 67.1089 22.4533 67.4525 22.6979 67.6708C22.9425 67.8892 23.2831 67.9038 23.4549 67.7029H23.4578ZM18.2463 55.0876L21.6294 62.9281L19.3614 51.754L18.4676 53.6581C18.5401 53.8977 18.5579 54.1506 18.5196 54.398C18.4813 54.6455 18.3879 54.8811 18.2463 55.0876ZM18.1648 42.452L17.7572 52.2111L18.5666 50.4934C18.4329 50.2399 18.3687 49.9555 18.3805 49.6692C18.3923 49.3828 18.4796 49.1047 18.6335 48.863L18.1648 42.452ZM17.5825 34.7338C17.4719 35.0482 17.5912 35.3743 17.8387 35.4646C18.0891 35.5519 18.3744 35.3714 18.4821 35.057C18.5899 34.7425 18.4763 34.4164 18.2259 34.3262C17.9756 34.2388 17.6902 34.4194 17.5796 34.7338H17.5825ZM20.0398 49.7364C20.0398 49.4045 19.7981 49.1367 19.507 49.1367C19.2129 49.1367 18.9713 49.4045 18.9713 49.7364C18.9713 50.0712 19.2129 50.3391 19.507 50.3391C19.7981 50.3391 20.0398 50.0712 20.0398 49.7364ZM19.3701 35.5111C19.2881 35.7584 19.1518 35.9842 18.9713 36.172L19.8156 47.7887L24.9979 31.4002L19.4516 35.1647C19.4354 35.2825 19.4081 35.3985 19.3701 35.5111ZM28.1801 25.0737L21.0937 32.4978L24.7243 30.0347C24.773 29.7032 24.9166 29.3928 25.1377 29.1409C25.3653 28.8704 25.6733 28.6797 26.0169 28.5965L28.1801 25.0737ZM31.8311 21.5596L27.2106 29.0769C27.3222 29.2846 27.3708 29.5203 27.3504 29.7552L30.7713 30.8063C30.95 30.6147 31.1732 30.4703 31.4211 30.3858C31.6691 30.3014 31.9341 30.2795 32.1925 30.3221C32.4509 30.3648 32.6948 30.4706 32.9025 30.6303C33.1102 30.7899 33.2752 30.9984 33.3829 31.2372H39.1096C39.2159 31.0089 39.3738 30.8085 39.5708 30.6519C39.7679 30.4952 39.9988 30.3866 40.2451 30.3346L43.3574 23.714C43.1897 23.4932 43.0796 23.234 43.0372 22.96L33.5226 20.8521C33.307 21.1655 32.9905 21.3957 32.6259 21.5042C32.3693 21.5863 32.0969 21.6063 31.8311 21.5625V21.5596ZM31.9999 19.6584C31.6884 19.7545 31.4992 20.0427 31.5749 20.2989C31.6535 20.558 31.9679 20.6861 32.2765 20.59C32.588 20.494 32.7802 20.2057 32.7016 19.9495C32.6259 19.6904 32.3144 19.5594 31.9999 19.6584ZM50.1906 17.434L35.8314 20.0485L43.3429 21.7109C43.5455 21.4341 43.8319 21.2299 44.1597 21.1287C44.4874 21.0275 44.8391 21.0346 45.1625 21.149L50.1906 17.434ZM51.952 17.7165L46.5979 21.676L61.286 22.0836L61.3181 21.973L53.5329 17.5359C53.3557 17.6658 53.1534 17.7575 52.9389 17.8051C52.7244 17.8527 52.5023 17.8552 52.2868 17.8125C52.1722 17.7919 52.06 17.7597 51.952 17.7165ZM52.6449 15.9143C52.3246 15.8561 52.0248 16.0249 51.9811 16.2928C51.9374 16.5548 52.1558 16.8168 52.4789 16.8751C52.7992 16.9333 53.0962 16.7644 53.1428 16.4966C53.1893 16.2345 52.9652 15.9725 52.6449 15.9143ZM62.0576 23.8479C61.8588 23.7252 61.6858 23.565 61.5481 23.3763L46.2252 22.9512C46.2135 23.0423 46.193 23.132 46.1641 23.2191L52.3479 30.3492C52.7052 30.2715 53.0783 30.3174 53.4062 30.4792C53.734 30.641 53.9973 30.9092 54.153 31.2401H60.7241C60.8846 30.8984 61.1582 30.6228 61.4986 30.4598L62.0576 23.8479ZM62.174 31.2954C61.8217 31.2954 61.5335 31.5924 61.5335 31.9563C61.5335 32.3202 61.8217 32.6143 62.174 32.6143C62.5321 32.6143 62.8233 32.3202 62.8233 31.9563C62.8233 31.5924 62.5321 31.2954 62.1769 31.2954H62.174ZM62.4623 21.9788C62.3021 22.2583 62.4215 22.6368 62.7301 22.8173C63.0358 23.0036 63.4172 22.925 63.5744 22.6426C63.7375 22.3631 63.6181 21.9875 63.3095 21.8041C63.0009 21.6207 62.6224 21.6993 62.4623 21.9788ZM73.8605 37.4618L63.3007 24.1071L62.768 30.422C63.0506 30.5376 63.2956 30.7295 63.4755 30.9763C63.6555 31.223 63.7633 31.515 63.787 31.8194L73.8605 37.4618ZM67.1846 25.8248L64.8147 24.2352L72.463 34.1923L68.7422 27.5338C68.4312 27.5097 68.1329 27.3998 67.8804 27.2165C67.3855 26.8642 67.1235 26.3139 67.1817 25.8248H67.1846ZM68.2909 25.6588C68.1395 25.8801 68.2327 26.212 68.5006 26.4042C68.7655 26.5934 69.1061 26.5701 69.2575 26.3459C69.4089 26.1276 69.3158 25.7928 69.0508 25.6035C68.7801 25.4143 68.4423 25.4376 68.2939 25.6618L68.2909 25.6588ZM52.0743 31.9563C52.0743 32.3115 52.3508 32.5997 52.7031 32.5997C52.872 32.5974 53.0331 32.5285 53.1514 32.408C53.2697 32.2875 53.3357 32.1252 53.3349 31.9563C53.3365 31.7869 53.2709 31.6238 53.1525 31.5027C53.0341 31.3815 52.8725 31.3122 52.7031 31.3099C52.5338 31.3122 52.3722 31.3815 52.2538 31.5027C52.1354 31.6238 52.0698 31.7869 52.0714 31.9563H52.0743ZM52.4207 45.8526C52.3351 45.8533 52.2504 45.8709 52.1716 45.9044C52.0928 45.9379 52.0213 45.9866 51.9613 46.0477C51.9013 46.1088 51.8539 46.1811 51.8218 46.2605C51.7897 46.3399 51.7736 46.4249 51.7744 46.5105C51.7744 46.8745 52.0655 47.1714 52.4207 47.1714C52.5064 47.1703 52.591 47.1523 52.6696 47.1185C52.7483 47.0846 52.8196 47.0356 52.8793 46.9743C52.9391 46.9129 52.9861 46.8403 53.0179 46.7608C53.0496 46.6812 53.0653 46.5962 53.0641 46.5105C53.0653 46.425 53.0496 46.3401 53.0178 46.2607C52.9861 46.1813 52.9389 46.109 52.8792 46.0479C52.8194 45.9867 52.7481 45.938 52.6694 45.9045C52.5907 45.871 52.5062 45.8533 52.4207 45.8526ZM43.9863 22.4912C43.9863 22.8551 44.2745 23.1492 44.6297 23.1492C44.7154 23.1484 44.8 23.1308 44.8789 23.0973C44.9577 23.0639 45.0292 23.0152 45.0892 22.9541C45.1492 22.893 45.1966 22.8206 45.2287 22.7412C45.2607 22.6618 45.2768 22.5769 45.2761 22.4912C45.2761 22.1273 44.9849 21.8303 44.6297 21.8303C44.5441 21.8315 44.4595 21.8495 44.3808 21.8833C44.3021 21.9171 44.2309 21.9661 44.1711 22.0275C44.1114 22.0889 44.0643 22.1614 44.0326 22.241C44.0009 22.3205 43.9851 22.4056 43.9863 22.4912ZM44.4579 24.3458L41.5058 30.6199C41.8358 30.8625 42.0641 31.2189 42.1464 31.6202C42.2287 32.0214 42.1591 32.439 41.9512 32.7919L51.7919 44.9908C51.8822 44.9533 51.9758 44.9241 52.0714 44.9034V33.4731C51.8554 33.3791 51.6622 33.2399 51.5046 33.0648C51.347 32.8898 51.2288 32.683 51.1579 32.4585C51.087 32.2339 51.0651 31.9967 51.0936 31.7629C51.1221 31.5292 51.2003 31.3042 51.3231 31.1032L45.3256 24.1915C45.0563 24.3226 44.7559 24.376 44.4579 24.3458ZM39.9161 31.9563C39.9161 32.3202 40.2073 32.6143 40.5625 32.6143C40.9147 32.6143 41.2059 32.3202 41.2059 31.9563C41.2059 31.5924 40.9147 31.2954 40.5625 31.2954C40.3892 31.2977 40.224 31.3685 40.1028 31.4924C39.9817 31.6162 39.9146 31.783 39.9161 31.9563ZM31.2983 31.9563C31.2983 32.3115 31.5778 32.5997 31.9271 32.5997C32.2765 32.5997 32.5589 32.3115 32.5589 31.9563C32.5589 31.5982 32.2765 31.3099 31.9271 31.3099C31.5778 31.3099 31.2983 31.6011 31.2983 31.9563ZM31.9271 62.8466C31.8419 62.8477 31.7577 62.8657 31.6793 62.8993C31.601 62.933 31.5301 62.9818 31.4706 63.0429C31.4111 63.104 31.3643 63.1762 31.3327 63.2554C31.3011 63.3347 31.2855 63.4193 31.2866 63.5046C31.2866 63.8685 31.5719 64.1626 31.9271 64.1626C32.0128 64.1618 32.0974 64.1442 32.1763 64.1107C32.2551 64.0772 32.3266 64.0285 32.3866 63.9674C32.4466 63.9063 32.494 63.834 32.5261 63.7546C32.5581 63.6752 32.5742 63.5902 32.5735 63.5046C32.5746 63.4188 32.5588 63.3337 32.5269 63.2541C32.4949 63.1745 32.4476 63.102 32.3875 63.0409C32.3274 62.9797 32.2557 62.931 32.1767 62.8977C32.0977 62.8643 32.0129 62.847 31.9271 62.8466ZM25.5336 29.4816C25.3211 29.7319 25.3036 30.0784 25.5045 30.256C25.6996 30.4307 26.0344 30.3783 26.2498 30.125C26.4653 29.8775 26.4798 29.5311 26.2819 29.3535C26.0839 29.173 25.752 29.2312 25.5336 29.4816ZM20.8026 48.8688C20.9657 49.1286 21.0516 49.4296 21.05 49.7364C21.05 50.0567 20.9627 50.3536 20.8113 50.5953L31.2983 61.4316V33.4731C31.0135 33.3477 30.7702 33.1441 30.5965 32.8859C30.4228 32.6277 30.326 32.3255 30.3171 32.0145L26.7593 30.9227C26.6488 31.023 26.5255 31.1082 26.3925 31.176L20.8026 48.8688ZM53.6843 61.8538C54.3801 61.8538 54.9711 62.3051 55.1982 62.931H60.6659C60.7406 62.7223 60.8571 62.5309 61.0083 62.3688C61.1595 62.2066 61.3422 62.0769 61.5452 61.9877V33.4731C61.3421 33.3841 61.1593 33.2545 61.0081 33.0923C60.8569 32.9301 60.7405 32.7387 60.6659 32.5298H54.2142C54.1387 32.7382 54.0219 32.9291 53.8708 33.0912C53.7197 33.2533 53.5374 33.3832 53.3349 33.4731V45.148C53.5522 45.3023 53.7292 45.5067 53.8508 45.7439C53.9725 45.981 54.0352 46.244 54.0337 46.5105C54.0383 46.9432 53.8711 47.3601 53.5687 47.6696C53.2663 47.9791 52.8534 48.1559 52.4207 48.1613C52.2064 48.159 51.9946 48.1145 51.7974 48.0303C51.6003 47.946 51.4217 47.8238 51.2719 47.6704C51.1221 47.5171 51.004 47.3357 50.9243 47.1367C50.8447 46.9377 50.8051 46.7249 50.8078 46.5105C50.8078 46.3067 50.8427 46.1117 50.9126 45.9282L40.9322 33.5605C40.5465 33.6492 40.1416 33.5933 39.7944 33.4033C39.4472 33.2133 39.1818 32.9025 39.0485 32.5298H33.4411C33.3653 32.7385 33.2481 32.9296 33.0965 33.0917C32.9448 33.2538 32.762 33.3836 32.5589 33.4731V61.9877C32.9665 62.1624 33.2839 62.506 33.4411 62.931H39.8899C39.9657 62.7224 40.0829 62.5313 40.2345 62.3692C40.3861 62.2071 40.569 62.0773 40.7721 61.9877V50.1382C40.5346 49.9891 40.3389 49.7821 40.2035 49.5366C40.068 49.2911 39.9972 49.0153 39.9976 48.7349C39.9949 48.5203 40.0346 48.3073 40.1145 48.108C40.1943 47.9088 40.3127 47.7273 40.4628 47.574C40.6129 47.4206 40.7918 47.2984 40.9893 47.2143C41.1868 47.1302 41.3989 47.086 41.6135 47.0841C41.8781 47.085 42.1386 47.1503 42.3723 47.2744C42.6061 47.3985 42.8061 47.5776 42.9552 47.7963C43.1042 48.015 43.1978 48.2667 43.2278 48.5296C43.2578 48.7926 43.2234 49.0589 43.1274 49.3055L53.2679 61.912C53.4038 61.8756 53.5436 61.8561 53.6843 61.8538ZM54.383 73.6364C54.0337 73.6364 53.7425 73.8984 53.7425 74.2245C53.7425 74.5506 54.0337 74.8097 54.383 74.8097C54.7411 74.8097 55.0323 74.5476 55.0323 74.2274C55.0323 73.9071 54.7411 73.6364 54.3859 73.6364H54.383ZM53.0409 63.5046C53.0409 63.8685 53.3291 64.1626 53.6814 64.1626C53.7673 64.1622 53.8522 64.1448 53.9314 64.1115C54.0106 64.0782 54.0824 64.0296 54.1427 63.9685C54.203 63.9073 54.2507 63.8349 54.2829 63.7553C54.3152 63.6757 54.3314 63.5905 54.3306 63.5046C54.3314 63.4189 54.3153 63.334 54.2832 63.2546C54.2511 63.1751 54.2037 63.1028 54.1437 63.0417C54.0837 62.9806 54.0122 62.9319 53.9334 62.8985C53.8546 62.865 53.7699 62.8474 53.6843 62.8466C53.5118 62.8489 53.3473 62.9194 53.2267 63.0427C53.1061 63.166 53.0393 63.3321 53.0409 63.5046ZM40.9671 48.7349C40.9671 49.0988 41.2583 49.3929 41.6135 49.3929C41.9687 49.3929 42.2569 49.0988 42.2569 48.7349C42.2569 48.368 41.9687 48.0769 41.6135 48.0769C41.2583 48.0769 40.9671 48.368 40.9671 48.7349ZM41.4039 62.8466C41.3182 62.8474 41.2336 62.865 41.1547 62.8985C41.0759 62.9319 41.0044 62.9806 40.9444 63.0417C40.8844 63.1028 40.837 63.1751 40.8049 63.2546C40.7729 63.334 40.7568 63.4189 40.7575 63.5046C40.7575 63.8685 41.0487 64.1626 41.4039 64.1626C41.7591 64.1626 42.0473 63.8685 42.0473 63.5046C42.0484 63.4191 42.0327 63.3342 42.0009 63.2548C41.9692 63.1754 41.9221 63.103 41.8623 63.0419C41.8025 62.9808 41.7312 62.932 41.6526 62.8985C41.5739 62.865 41.4894 62.8474 41.4039 62.8466ZM42.0327 61.9877C42.3803 62.1402 42.6646 62.4081 42.8376 62.746C43.0105 63.0839 43.0615 63.4712 42.9819 63.8423L53.4426 72.9172C53.5378 72.8619 53.6383 72.816 53.7425 72.7804L53.2068 65.0826C52.8749 64.9735 52.5862 64.762 52.3822 64.4785C52.1781 64.1949 52.0693 63.8539 52.0714 63.5046C52.0714 63.2134 52.1441 62.9427 52.2752 62.7098L42.2511 50.2488C42.1804 50.2799 42.1074 50.3052 42.0327 50.3245V61.9877ZM62.8204 63.5017C62.8211 63.4164 62.8051 63.3318 62.7732 63.2528C62.7413 63.1737 62.6941 63.1017 62.6343 63.0409C62.5746 62.98 62.5034 62.9316 62.4249 62.8982C62.3465 62.8649 62.2622 62.8474 62.1769 62.8466C62.0913 62.8474 62.0066 62.865 61.9278 62.8985C61.849 62.9319 61.7775 62.9806 61.7175 63.0417C61.6575 63.1028 61.6101 63.1751 61.578 63.2546C61.5459 63.334 61.5298 63.4189 61.5306 63.5046C61.5306 63.8685 61.8217 64.1626 62.1769 64.1626C62.5321 64.1626 62.8233 63.8685 62.8233 63.5046L62.8204 63.5017ZM17.0817 54.7062C17.3438 54.6626 17.5097 54.3598 17.4544 54.0337C17.3962 53.7047 17.1429 53.4747 16.8838 53.5213C16.6217 53.5649 16.4587 53.8706 16.514 54.1967C16.5664 54.5257 16.8226 54.7557 17.0817 54.7062ZM75.2289 38.0703C75.0193 38.1373 74.9086 38.4109 74.9872 38.6759C75.0658 38.9408 75.3017 39.1009 75.5113 39.034C75.7267 38.967 75.8316 38.6933 75.7559 38.4284C75.6802 38.1605 75.4414 38.0033 75.2318 38.0703H75.2289Z" fill="white"/>
</g>
<defs>
<clipPath id="clip0_342_5994">
<rect width="93.1659" height="93.1659" fill="white" transform="translate(0.113281 0.824219)"/>
</clipPath>
</defs>
</svg>
