<svg width="94" height="94" viewBox="0 0 94 94" fill="none" xmlns="http://www.w3.org/2000/svg">
<g clip-path="url(#clip0_342_5998)">
<path d="M47.2094 93.9901C72.9364 93.9901 93.7923 73.1342 93.7923 47.4072C93.7923 21.6801 72.9364 0.824219 47.2094 0.824219C21.4824 0.824219 0.626465 21.6801 0.626465 47.4072C0.626465 73.1342 21.4824 93.9901 47.2094 93.9901Z" fill="#622FBA"/>
<path fill-rule="evenodd" clip-rule="evenodd" d="M54.7387 51.4131C54.4854 51.4917 54.2408 51.5878 54.0021 51.6984L43.2997 40.5738C43.7234 39.8396 43.9735 39.0181 44.0311 38.1724C44.0887 37.3266 43.9521 36.4788 43.6319 35.6939C43.3116 34.909 42.8161 34.2077 42.1833 33.6436C41.5505 33.0795 40.7971 32.6676 39.9806 32.4393V24.657L37.1158 23.0557L43.7335 19.2272C44.79 18.6159 45.9891 18.2939 47.2097 18.2939C48.4304 18.2939 49.6295 18.6159 50.686 19.2272L63.8428 26.8435L58.6429 29.851C57.7958 29.4752 56.8683 29.3169 55.9445 29.3906C55.0207 29.4642 54.1299 29.7674 53.3531 30.2727C52.5762 30.778 51.9378 31.4693 51.496 32.2839C51.0541 33.0985 50.8227 34.0106 50.8228 34.9373C50.8231 36.1245 51.2034 37.2805 51.9081 38.2361C52.6127 39.1916 53.6046 39.8966 54.7387 40.2478V51.4131ZM58.0519 51.4131V40.2448C58.8475 39.9981 59.5774 39.5759 60.1879 39.0092C60.7984 38.4426 61.2737 37.7461 61.5789 36.9711C61.8841 36.1961 62.0113 35.3624 61.9511 34.5317C61.891 33.701 61.6449 32.8943 61.2312 32.1714L67.1414 28.7534L69.9655 30.3838C71.0142 30.9906 71.8847 31.8626 72.4898 32.9123C73.0949 33.962 73.4131 35.1523 73.4126 36.3639V58.45C73.4126 60.9131 72.0996 63.1899 69.9626 64.4272L58.0548 71.3215V62.0282C59.1857 61.6743 60.174 60.9685 60.8756 60.0135C61.5771 59.0586 61.9553 57.9045 61.955 56.7196C61.9547 55.5346 61.5759 54.3808 60.8738 53.4262C60.1717 52.4717 59.183 51.7663 58.0519 51.4131ZM51.5682 53.9431C51.1521 54.6659 50.9039 55.473 50.842 56.3046C50.7801 57.1363 50.9061 57.9712 51.2105 58.7476C51.515 59.524 51.9902 60.2219 52.6009 60.7898C53.2116 61.3577 53.9423 61.7809 54.7387 62.0282V73.2401L50.686 75.5867C49.6295 76.1981 48.4304 76.52 47.2097 76.52C45.9891 76.52 44.79 76.1981 43.7335 75.5867L29.5664 67.3881L34.8885 63.2306C35.8925 64.0732 37.1618 64.5342 38.4725 64.532C39.2037 64.5332 39.9278 64.3902 40.6037 64.1113C41.2795 63.8324 41.8938 63.423 42.4113 62.9066C42.9288 62.3901 43.3395 61.7767 43.6198 61.1015C43.9001 60.4262 44.0446 59.7023 44.045 58.9712C44.0439 57.7576 43.6457 56.5777 42.9114 55.6115C42.177 54.6453 41.1467 53.9459 39.9777 53.62V43.1446C40.2834 43.0602 40.5804 42.9496 40.8628 42.8156L51.5682 53.9431ZM36.6674 53.7131C35.33 54.1699 34.2166 55.1187 33.5536 56.3669C32.8906 57.615 32.7277 59.0688 33.098 60.4327L26.4862 65.6034L24.4569 64.4301C23.4077 63.8237 22.5365 62.9518 21.9309 61.9021C21.3254 60.8525 21.0066 59.6619 21.0068 58.45V36.3639C21.0068 33.9008 22.3199 31.6241 24.4569 30.3867L33.788 24.9831L36.6703 26.5931V32.5325C35.5744 32.9084 34.6233 33.6172 33.9498 34.56C33.2763 35.5027 32.9141 36.6323 32.9137 37.7909C32.9134 38.9495 33.275 40.0793 33.948 41.0224C34.621 41.9656 35.5717 42.6749 36.6674 43.0515V53.7131ZM38.4754 40.1954C38.1524 40.207 37.8304 40.1534 37.5285 40.0379C37.2266 39.9224 36.951 39.7473 36.7183 39.523C36.4855 39.2988 36.3003 39.0299 36.1736 38.7325C36.047 38.4351 35.9815 38.1153 35.9811 37.7921C35.9807 37.4688 36.0454 37.1488 36.1713 36.8511C36.2973 36.5534 36.4818 36.2841 36.7141 36.0593C36.9463 35.8345 37.2214 35.6587 37.523 35.5425C37.8246 35.4262 38.1466 35.3719 38.4696 35.3828C39.0934 35.4037 39.6846 35.666 40.1187 36.1144C40.5528 36.5627 40.7959 37.1621 40.7966 37.7862C40.7974 38.4103 40.5558 39.0103 40.1228 39.4598C39.6897 39.9092 39.0991 40.1729 38.4754 40.1954ZM38.4754 61.376C38.1524 61.3877 37.8304 61.3341 37.5285 61.2186C37.2266 61.1031 36.951 60.928 36.7183 60.7037C36.4855 60.4795 36.3003 60.2106 36.1736 59.9132C36.047 59.6158 35.9815 59.296 35.9811 58.9727C35.9807 58.6495 36.0454 58.3295 36.1713 58.0318C36.2973 57.7341 36.4818 57.4648 36.7141 57.24C36.9463 57.0152 37.2214 56.8394 37.523 56.7231C37.8246 56.6069 38.1466 56.5526 38.4696 56.5634C39.0934 56.5844 39.6846 56.8467 40.1187 57.295C40.5528 57.7434 40.7959 58.3428 40.7966 58.9669C40.7974 59.591 40.5558 60.191 40.1228 60.6404C39.6897 61.0899 39.0991 61.3536 38.4754 61.376ZM56.3953 37.3421C56.0723 37.3538 55.7502 37.3002 55.4483 37.1847C55.1464 37.0692 54.8709 36.8941 54.6381 36.6698C54.4054 36.4456 54.2201 36.1767 54.0935 35.8793C53.9668 35.5819 53.9014 35.2621 53.901 34.9389C53.9006 34.6156 53.9653 34.2956 54.0912 33.9979C54.2171 33.7002 54.4017 33.4309 54.6339 33.2061C54.8662 32.9813 55.1413 32.8055 55.4429 32.6893C55.7445 32.573 56.0664 32.5187 56.3895 32.5295C57.0132 32.5505 57.6045 32.8128 58.0386 33.2612C58.4727 33.7095 58.7157 34.3089 58.7165 34.933C58.7172 35.5571 58.4756 36.1571 58.0426 36.6066C57.6096 37.056 57.019 37.3197 56.3953 37.3421ZM56.3953 59.1255C55.7567 59.1263 55.144 58.8733 54.6919 58.4223C54.2398 57.9713 53.9854 57.3592 53.9846 56.7206C53.9839 56.0821 54.2368 55.4693 54.6878 55.0173C55.1388 54.5652 55.7509 54.3108 56.3895 54.31C57.0281 54.3092 57.6408 54.5621 58.0929 55.0131C58.545 55.4641 58.7994 56.0763 58.8002 56.7148C58.8009 57.3534 58.548 57.9661 58.097 58.4182C57.646 58.8703 57.0339 59.1247 56.3953 59.1255Z" fill="white"/>
</g>
<defs>
<clipPath id="clip0_342_5998">
<rect width="93.1659" height="93.1659" fill="white" transform="translate(0.627441 0.824219)"/>
</clipPath>
</defs>
</svg>
