<svg width="94" height="94" viewBox="0 0 94 94" fill="none" xmlns="http://www.w3.org/2000/svg">
<g clip-path="url(#clip0_342_6002)">
<path d="M46.7245 93.9901C72.4516 93.9901 93.3075 73.1342 93.3075 47.4072C93.3075 21.6801 72.4516 0.824219 46.7245 0.824219C20.9975 0.824219 0.141602 21.6801 0.141602 47.4072C0.141602 73.1342 20.9975 93.9901 46.7245 93.9901Z" fill="#50479E"/>
<path d="M59.4184 40.5951V54.5234L46.8788 61.4148V47.4923L59.4155 40.6009L59.4184 40.5951ZM74.3832 37.0257V57.7871C74.3832 59.2632 73.9756 60.7073 73.2098 61.9621C72.4529 63.214 71.3553 64.2767 69.9956 65.0249L60.6441 70.1636V56.4624L61.8261 55.8132V39.2791L73.2797 32.9817C73.9901 34.2045 74.3832 35.5874 74.3832 37.0286V37.0257ZM23.4534 65.0249C22.1786 64.3287 21.1016 63.3198 20.3237 62.0931C19.5051 60.8069 19.0689 59.3146 19.0659 57.79V44.4964L31.9461 54.5554V55.1144L31.9665 55.6909L32.968 56.2819L45.8249 63.3509L46.8847 63.9331V76.5222C45.2978 76.5538 43.7302 76.1704 42.337 75.41L23.4534 65.022V65.0249ZM22.9177 30.1139L36.5345 22.6607L45.7929 31.6279L31.9461 39.2646V40.4291L19.095 47.4865L19.0659 37.0228C19.0659 35.5467 19.4735 34.0968 20.245 32.842C20.9205 31.7356 21.8347 30.8039 22.9177 30.111V30.1139ZM69.9956 29.7908C71.3594 30.5356 72.4947 31.6377 73.2797 32.9788L61.8261 39.2762V39.1714L60.6441 38.5222L48.0259 31.5871L60.6441 24.6492L69.9956 29.7908ZM19.095 47.4923L31.9461 40.4262V54.5554L19.095 47.4894V47.4923ZM46.8847 31.0456V18.2935C48.3635 18.316 49.8146 18.6987 51.1121 19.4086L60.6441 24.6492L48.0259 31.5842L46.8847 31.0456ZM45.8249 31.6279L32.9913 24.5764L42.896 19.1291C44.1458 18.554 45.5092 18.2684 46.8847 18.2935V31.0456L45.8249 31.6279ZM46.9662 63.9768L48.0259 63.3945L60.4927 70.248L51.1121 75.4071C49.8142 76.1157 48.3632 76.4975 46.8847 76.5193V63.9331L46.9662 63.9768ZM60.6441 56.4595V70.1636L60.4927 70.248L48.0259 63.3945L60.6441 56.4595Z" fill="white"/>
</g>
<defs>
<clipPath id="clip0_342_6002">
<rect width="93.1659" height="93.1659" fill="white" transform="translate(0.141602 0.824219)"/>
</clipPath>
</defs>
</svg>
