<svg width="94" height="94" viewBox="0 0 94 94" fill="none" xmlns="http://www.w3.org/2000/svg">
<g clip-path="url(#clip0_342_6006)">
<path d="M47.2392 93.9901C72.9662 93.9901 93.8221 73.1342 93.8221 47.4072C93.8221 21.6801 72.9662 0.824219 47.2392 0.824219C21.5121 0.824219 0.65625 21.6801 0.65625 47.4072C0.65625 73.1342 21.5121 93.9901 47.2392 93.9901Z" fill="#58BF00"/>
<path d="M73.4421 66.5645L53.0912 57.0791V36.0585L73.4421 28.8411V66.5645ZM43.8125 76.5216L23.9478 67.2662V29.8164L43.8125 39.0748V76.5216ZM72.9559 27.4844L72.6269 27.6008L53.0912 34.5329L52.6021 34.7076L44.3249 37.6424L24.7309 28.5121L52.6021 18.6249L52.8466 18.5375L53.362 18.3541L53.5425 18.293L73.1364 27.4232L72.953 27.4844H72.9559Z" fill="white"/>
</g>
<defs>
<clipPath id="clip0_342_6006">
<rect width="93.1659" height="93.1659" fill="white" transform="translate(0.655273 0.824219)"/>
</clipPath>
</defs>
</svg>
