<svg width="94" height="94" viewBox="0 0 94 94" fill="none" xmlns="http://www.w3.org/2000/svg">
<g clip-path="url(#clip0_342_6014)">
<path d="M47.2665 93.9901C72.9936 93.9901 93.8495 73.1342 93.8495 47.4072C93.8495 21.6801 72.9936 0.824219 47.2665 0.824219C21.5395 0.824219 0.683594 21.6801 0.683594 47.4072C0.683594 73.1342 21.5395 93.9901 47.2665 93.9901Z" fill="#B3BA00"/>
<path d="M38.9106 31.872L38.5322 32.102L56.0008 59.0531V32.0787L47.2781 27.0273L38.9106 31.872ZM38.5322 62.4449L47.6624 67.7874L56.0008 62.9195L38.5322 35.7616V62.4449ZM29.7979 36.7981V58.0166L35.6207 61.9645V32.8502L29.7979 36.7981ZM58.9122 61.9645L64.7351 57.9264V36.8884L58.9122 32.8502V61.9645Z" fill="white"/>
<path d="M47.2663 12.4697C27.9781 12.4697 12.3291 28.1187 12.3291 47.4069C12.3291 66.6952 27.9781 82.3441 47.2663 82.3441C66.5546 82.3441 82.2035 66.6952 82.2035 47.4069C82.2035 28.1187 66.5546 12.4697 47.2663 12.4697ZM47.1207 69.5921L28.2663 58.4121V36.0873L47.1236 24.9365L65.9781 36.0873V58.4151L47.1236 69.5891L47.1207 69.5921Z" fill="white"/>
</g>
<defs>
<clipPath id="clip0_342_6014">
<rect width="93.1659" height="93.1659" fill="white" transform="translate(0.683594 0.824219)"/>
</clipPath>
</defs>
</svg>
