<svg width="94" height="94" viewBox="0 0 94 94" fill="none" xmlns="http://www.w3.org/2000/svg">
<g clip-path="url(#clip0_342_6020)">
<path d="M46.7812 93.9901C72.5082 93.9901 93.3641 73.1342 93.3641 47.4072C93.3641 21.6801 72.5082 0.824219 46.7812 0.824219C21.0541 0.824219 0.198242 21.6801 0.198242 47.4072C0.198242 73.1342 21.0541 93.9901 46.7812 93.9901Z" fill="#1A4199"/>
<path opacity="0.7" d="M31.2807 21.5691L62.5262 39.5938V57.9911L14.7554 30.4024L30.0841 21.5691C30.27 21.4618 30.4808 21.4053 30.6955 21.4053C30.9101 21.4053 31.121 21.4618 31.3069 21.5691" fill="white"/>
<path opacity="0.9" d="M62.5257 21.2041L46.6089 30.4042L62.5257 39.5927V21.2041Z" fill="white"/>
<path d="M62.5259 21.2041L77.8517 30.0432C78.0444 30.1476 78.2055 30.3018 78.3182 30.4898C78.4309 30.6778 78.491 30.8926 78.4922 31.1117V67.1815L62.5259 57.9901V21.2041Z" fill="white"/>
<path opacity="0.9" d="M78.4606 67.1823L63.1348 76.0127C62.9471 76.1146 62.737 76.168 62.5234 76.168C62.3098 76.168 62.0997 76.1146 61.912 76.0127L30.6665 57.9909V39.5674L78.4606 67.1823Z" fill="white"/>
<path opacity="0.6" d="M14.7554 30.4053V66.4692C14.7561 66.6889 14.8159 66.9043 14.9286 67.0928C15.0413 67.2813 15.2027 67.436 15.3959 67.5406L30.7246 76.3797V39.5676L14.7554 30.4053Z" fill="white"/>
<path opacity="0.7" d="M30.6987 76.3759L46.6097 67.1816L30.6987 57.9902V76.3759Z" fill="white"/>
</g>
<defs>
<clipPath id="clip0_342_6020">
<rect width="93.1659" height="93.1659" fill="white" transform="translate(0.197266 0.824219)"/>
</clipPath>
</defs>
</svg>
