<svg width="94" height="94" viewBox="0 0 94 94" fill="none" xmlns="http://www.w3.org/2000/svg">
<g clip-path="url(#clip0_342_6030)">
<path d="M47.2944 93.9901C73.0214 93.9901 93.8773 73.1342 93.8773 47.4072C93.8773 21.6801 73.0214 0.824219 47.2944 0.824219C21.5673 0.824219 0.711426 21.6801 0.711426 47.4072C0.711426 73.1342 21.5673 93.9901 47.2944 93.9901Z" fill="#F80000"/>
<path d="M60.396 49.8587L40.901 76.5216L41.6201 54.8577H37.1045L38.9503 35.8402L59.5749 32.9986L52.8029 50.2489L60.396 49.8587ZM44.3889 68.7772V63.6822C44.3889 63.3037 44.0686 62.9951 43.6727 62.9951C43.2767 62.9951 42.9536 63.3008 42.9536 63.6793V68.7772C42.9536 69.1557 43.2738 69.4643 43.6727 69.4643C44.0716 69.4643 44.3889 69.1557 44.3889 68.7772ZM39.0552 53.3874H43.1603L42.971 61.2279C42.9681 61.4346 43.0496 61.6355 43.201 61.7811C43.3524 61.9266 43.5591 62.014 43.7746 62.014H43.8095C44.0146 62.018 44.2131 61.9417 44.3627 61.8013C44.5123 61.661 44.6011 61.4677 44.6102 61.2628L44.7994 52.0132H40.6943L42.0714 36.8184C42.086 36.6437 42.0248 36.469 41.8996 36.338C41.7744 36.207 41.5997 36.1342 41.4134 36.1342H41.297C41.1356 36.131 40.9788 36.1879 40.8572 36.2939C40.7355 36.4 40.6578 36.5475 40.639 36.7078L39.0552 53.3874ZM39.0552 34.1719L46.6482 27.9007C47.0558 21.6266 42.9507 20.6454 42.9507 20.6454L43.5679 18.293C50.3399 20.2524 49.315 27.7027 49.315 27.7027L59.1644 31.8195L39.0552 34.1719Z" fill="white"/>
</g>
<defs>
<clipPath id="clip0_342_6030">
<rect width="93.1659" height="93.1659" fill="white" transform="translate(0.711426 0.824219)"/>
</clipPath>
</defs>
</svg>
