<svg width="94" height="94" viewBox="0 0 94 94" fill="none" xmlns="http://www.w3.org/2000/svg">
<g clip-path="url(#clip0_342_6038)">
<path d="M47.3229 93.9901C73.05 93.9901 93.9059 73.1342 93.9059 47.4072C93.9059 21.6801 73.05 0.824219 47.3229 0.824219C21.5959 0.824219 0.73999 21.6801 0.73999 47.4072C0.73999 73.1342 21.5959 93.9901 47.3229 93.9901Z" fill="#F28F01"/>
<path fill-rule="evenodd" clip-rule="evenodd" d="M53.5854 40.7664L47.9343 29.6563C49.1105 27.0943 49.6986 25.6386 49.6986 25.3037C49.6986 24.1013 48.9067 23.2221 47.3258 22.6602H64.643C62.5089 23.6209 60.6107 26.0229 58.9512 29.8689L53.5854 40.7664ZM45.0956 58.0253L42.4608 63.3824H57.9991C65.036 63.3824 69.7409 62.0635 72.1137 59.4228L63.8103 72.1545H21.3471C25.9326 71.2724 30.5589 65.7494 35.223 55.5768C36.7951 52.4499 38.2363 49.5618 39.5523 46.9182L45.0956 58.0253ZM15.2971 59.7809C18.7355 57.74 31.31 35.9887 31.31 29.8689C31.31 28.4277 30.4395 27.0652 28.7014 25.7841H42.2221L53.9639 48.8485L65.3534 25.7841H79.3487C73.4181 27.3447 61.6763 55.3235 61.6763 58.5785C61.6763 59.219 61.7927 59.6208 62.0314 59.7809H49.6957L39.1388 38.6381L28.7014 59.7809H15.2971Z" fill="white"/>
</g>
<defs>
<clipPath id="clip0_342_6038">
<rect width="93.1659" height="93.1659" fill="white" transform="translate(0.739502 0.824219)"/>
</clipPath>
</defs>
</svg>
