<svg width="94" height="94" viewBox="0 0 94 94" fill="none" xmlns="http://www.w3.org/2000/svg">
<g clip-path="url(#clip0_342_6042)">
<path d="M46.8354 93.9901C72.5624 93.9901 93.4183 73.1342 93.4183 47.4072C93.4183 21.6801 72.5624 0.824219 46.8354 0.824219C21.1083 0.824219 0.252441 21.6801 0.252441 47.4072C0.252441 73.1342 21.1083 93.9901 46.8354 93.9901Z" fill="#2AB0FD"/>
<path fill-rule="evenodd" clip-rule="evenodd" d="M74.538 43.9251C75.0184 43.9193 75.3241 43.9834 75.5163 44.158C75.7201 44.3444 75.8016 44.6472 75.8453 45.1217C77.202 60.7823 65.3583 74.9377 49.6482 76.3905C33.449 77.8899 19.3867 66.2005 17.8495 49.9547C16.353 34.1776 28.1996 19.865 44.0116 18.4268C52.9672 17.6116 60.7 20.424 67.2099 26.6254C67.2769 26.6894 67.2624 26.9573 67.1867 27.033C65.7248 28.5223 64.2497 29.9985 62.7613 31.4613C62.6768 31.5428 62.3741 31.5312 62.2809 31.4467C55.5642 25.292 47.782 23.4694 39.2718 26.5701C30.6656 29.7057 25.7424 36.1982 24.7671 45.3401C23.4569 57.7108 32.7939 68.6141 45.249 69.5545C56.5395 70.4046 66.7703 62.4127 68.6424 51.2561C68.6598 51.1455 68.4095 50.8689 68.2814 50.8689C61.3085 50.8485 54.3356 50.8543 47.3656 50.8281C47.1851 50.8281 46.8503 50.4933 46.8445 50.3099C46.8079 48.3614 46.8079 46.4123 46.8445 44.4637C46.8474 44.2891 47.1589 43.9746 47.3307 43.9717C51.9773 43.9455 70.1156 43.9863 74.5351 43.9222L74.538 43.9251Z" fill="white"/>
</g>
<defs>
<clipPath id="clip0_342_6042">
<rect width="93.1659" height="93.1659" fill="white" transform="translate(0.253418 0.824219)"/>
</clipPath>
</defs>
</svg>
