<svg width="94" height="94" viewBox="0 0 94 94" fill="none" xmlns="http://www.w3.org/2000/svg">
<g clip-path="url(#clip0_342_6046)">
<path d="M47.3505 93.9901C73.0776 93.9901 93.9334 73.1342 93.9334 47.4072C93.9334 21.6801 73.0776 0.824219 47.3505 0.824219C21.6235 0.824219 0.767578 21.6801 0.767578 47.4072C0.767578 73.1342 21.6235 93.9901 47.3505 93.9901Z" fill="#186C9D"/>
<path d="M56.8445 69.2428L56.8475 69.237C57.2963 69.2458 57.7445 69.1968 58.1809 69.0914C60.7313 68.4946 62.8887 66.2673 63.4011 63.8625L73.5533 25.7343L65.4828 25.6936L58.8272 50.6387L40.8346 25.6091L40.8229 25.6208L40.8317 25.5917L37.8591 25.5713V25.5742C37.4095 25.5673 36.9607 25.6152 36.5227 25.7169C33.9752 26.3166 31.8179 28.5439 31.3025 30.9458L21.1475 69.0827L29.2209 69.1176L35.8735 44.1724L53.8662 69.2049H53.8749L56.8445 69.2428ZM37.6495 37.5256L39.0557 32.2559L57.0513 57.2914L55.645 62.5611L37.6524 37.5227L37.6495 37.5256Z" fill="white"/>
</g>
<defs>
<clipPath id="clip0_342_6046">
<rect width="93.1659" height="93.1659" fill="white" transform="translate(0.767578 0.824219)"/>
</clipPath>
</defs>
</svg>
