<svg width="94" height="94" viewBox="0 0 94 94" fill="none" xmlns="http://www.w3.org/2000/svg">
<g clip-path="url(#clip0_342_6050)">
<path d="M46.8649 93.9901C72.592 93.9901 93.4479 73.1342 93.4479 47.4072C93.4479 21.6801 72.592 0.824219 46.8649 0.824219C21.1379 0.824219 0.281982 21.6801 0.281982 47.4072C0.281982 73.1342 21.1379 93.9901 46.8649 93.9901Z" fill="#050708"/>
<path d="M46.4424 15.4229C46.761 15.3611 47.0892 15.3691 47.4044 15.4465C47.7196 15.524 48.0142 15.6689 48.2678 15.8713L73.6031 34.6937C74.1854 35.1304 74.5494 35.8583 74.5202 36.5978V58.2123C74.5309 58.6009 74.4444 58.9861 74.2685 59.3329C74.0926 59.6796 73.8328 59.9769 73.5129 60.1979L48.2678 78.9533C47.8524 79.2772 47.3374 79.447 46.8107 79.4337C46.2841 79.4204 45.7784 79.2249 45.3797 78.8805C36.9948 72.6501 28.6128 66.4196 20.2278 60.195C19.911 59.9715 19.6528 59.6748 19.4754 59.3301C19.298 58.9854 19.2065 58.6029 19.2088 58.2152V36.6123C19.2055 36.2254 19.2956 35.8434 19.4715 35.4987C19.6474 35.1541 19.9038 34.8569 20.2191 34.6326L45.3768 15.9412C45.6878 15.6894 46.0523 15.5121 46.4424 15.4229ZM46.1396 73.6924C46.125 74.0301 46.1192 74.3707 46.1163 74.7085L46.1221 76.7377C46.5588 76.7435 46.9955 76.7465 47.4323 76.7377V73.7564C47.0025 73.716 46.5712 73.6946 46.1396 73.6924ZM41.161 71.0197L40.4274 71.0226C40.9514 71.9397 41.4493 72.8713 41.985 73.7797C42.4217 73.7797 42.8584 73.7797 43.3009 73.7506C42.9516 72.784 42.3489 71.9426 41.8976 71.0255C41.4076 71.0183 40.9174 71.0183 40.4274 71.0255L41.161 71.0197ZM49.1005 72.4172C49.0924 72.8616 49.0954 73.3063 49.1092 73.7506H50.3321C50.3874 73.3168 50.3903 72.883 50.3815 72.4463C49.9551 72.4205 49.5277 72.4108 49.1005 72.4172ZM47.7176 65.2638C45.8834 65.2754 44.0463 65.2521 42.2092 65.2783C42.2033 65.6956 42.2033 66.113 42.2092 66.5302C43.8337 66.5681 45.4612 66.539 47.0887 66.5477V69.5436C46.751 69.5465 46.4191 69.5348 46.0872 69.5698C45.9911 69.9657 46.0406 70.3762 46.0348 70.7809C46.6229 70.7984 47.211 70.7955 47.7991 70.7838C47.9767 70.583 48.1601 70.3879 48.3435 70.1899C48.3435 68.7633 48.3406 67.3367 48.3465 65.9101C48.1375 65.694 47.9278 65.4786 47.7176 65.2638ZM57.4534 66.9407C57.0371 66.7369 56.5945 66.044 56.1083 66.4604C54.6614 67.424 53.1707 68.3237 51.7412 69.3136C51.747 69.727 51.7499 70.1404 51.779 70.5509C53.1183 70.5626 54.4546 70.5684 55.791 70.548C55.7968 70.1113 55.7968 69.6746 55.7939 69.2379C55.4659 69.2303 55.1379 69.2264 54.8098 69.2262L54.1926 69.232C55.2553 68.4809 56.3675 67.8084 57.4534 67.0951V66.9407ZM38.4068 67.6628L35.8011 67.6715C35.7924 68.1082 35.7924 68.5449 35.8011 68.9875C37.5363 68.9962 39.2744 69.005 41.0126 68.9817V67.6744C39.2744 67.6541 37.5363 67.6628 35.8011 67.6715L38.4068 67.6628ZM34.0309 65.75L33.3875 65.7529C33.3817 66.1896 33.3788 66.6292 33.3875 67.0689C33.8155 67.0747 34.2464 67.0747 34.6773 67.0689C34.6831 66.6321 34.6831 66.1954 34.6773 65.7587C34.2474 65.7493 33.8174 65.7473 33.3875 65.7529L34.0309 65.75ZM59.0489 61.0509C59.0314 61.7671 59.0372 62.4833 59.0401 63.1996C59.7389 64.2768 60.4231 65.3628 61.1306 66.4342C61.7187 65.5316 62.2951 64.6116 62.892 63.712C63.0026 63.514 63.1802 63.3218 63.1657 63.0773C63.1802 62.4222 63.1715 61.7671 63.154 61.1121C62.6125 61.9942 62.0331 62.8502 61.4945 63.7323C61.3722 63.9012 61.282 64.1167 61.0869 64.204C60.3823 63.1675 59.7331 62.0961 59.0489 61.0509ZM54.871 59.4409C54.0529 59.4438 53.2348 59.4351 52.4137 59.4496C51.9354 61.2381 51.4365 63.0209 50.9172 64.7979L52.1808 64.8067L53.3105 60.6695L53.9975 60.7045C54.3644 62.0699 54.7545 63.4266 55.1126 64.795C55.5319 64.8038 55.9569 64.8038 56.3762 64.8038L54.871 59.4409ZM29.3901 62.4397L28.2459 62.463V63.7556C29.3843 63.776 30.5256 63.8051 31.6639 63.7469C31.7193 63.3189 31.6931 62.8851 31.6843 62.4513C30.5372 62.4455 29.3901 62.4251 28.2459 62.463L29.3901 62.4397ZM38.5611 59.3885C36.9802 60.3696 35.4255 61.3945 33.8679 62.4135C33.8621 62.8327 33.8621 63.252 33.8737 63.6712C36.3281 63.6974 38.7824 63.6858 41.2367 63.677C41.2484 63.2345 41.2484 62.792 41.2396 62.3494C39.5801 62.3261 37.9264 62.3611 36.2698 62.329C37.414 61.6332 38.5204 60.8821 39.6529 60.1658C39.2919 59.9009 38.9251 59.6476 38.5611 59.3885ZM44.0928 58.4161L43.4407 58.419C43.4232 60.0552 43.4407 61.6943 43.432 63.3306L43.825 63.4034C44.1336 63.3742 44.4422 63.3597 44.7508 63.3451C44.7421 61.7031 44.7537 60.061 44.7421 58.419C44.3083 58.4142 43.8745 58.4142 43.4407 58.419L44.0928 58.4161ZM48.1048 59.6272C47.6535 59.6884 47.1964 59.7146 46.7393 59.7146C47.2547 60.6171 47.7642 61.5284 48.2678 62.4426L49.5489 62.4338C49.2723 61.4148 48.6405 60.5239 48.1048 59.6272ZM65.454 60.2474L64.7844 60.259C64.7757 60.6899 64.7757 61.1208 64.7844 61.5517C65.2299 61.5721 65.6782 61.5721 66.1237 61.5604V60.2532C65.6773 60.2432 65.2307 60.2451 64.7844 60.259L65.454 60.2474ZM34.0455 55.0301C33.3322 56.084 32.6859 57.1845 31.9667 58.2297C31.2942 57.17 30.6129 56.1131 29.9316 55.0563C29.9156 55.7811 29.9127 56.5062 29.9229 57.2311C30.6304 58.2618 31.2855 59.3274 31.9609 60.3755C32.6917 59.3303 33.3438 58.2297 34.0571 57.17C34.0513 56.4567 34.0601 55.7434 34.0455 55.0301ZM37.3936 56.413C37.3645 56.8643 37.3674 57.3156 37.3849 57.7668C37.8158 57.7726 38.2467 57.7697 38.6747 57.7668C38.6846 57.3263 38.6846 56.8856 38.6747 56.445C38.2484 56.4145 37.8209 56.4038 37.3936 56.413ZM55.2 52.8494L54.5478 53.4608C54.5478 54.0431 54.5449 54.6225 54.5565 55.2018C54.9729 55.2018 55.3921 55.2018 55.8085 55.196C55.8172 54.8379 55.8201 54.4798 55.8172 54.1188L58.7403 54.1217C58.7257 55.3008 58.7344 56.4771 58.7374 57.6533C59.1595 57.6649 59.5817 57.6678 60.0067 57.6649V53.4637L59.375 52.8523C57.9833 52.8494 56.5916 52.8581 55.2 52.8465V52.8494ZM22.6006 52.0138H21.7796L21.1624 52.6281L21.1566 55.4843L21.174 56.9109C21.2818 57.17 21.5234 57.3942 21.7622 57.5339C23.1888 57.5747 24.6183 57.5339 26.0478 57.5514H26.6446L27.2444 57.5485C27.2473 57.135 27.2473 56.7216 27.2386 56.3082C25.6314 56.2907 24.0214 56.3053 22.4114 56.2995C22.3998 55.2979 22.4114 54.2993 22.4027 53.2978L23.4217 53.2832C23.4254 52.863 23.4245 52.4428 23.4188 52.0226C22.8724 52.0134 22.326 52.0115 21.7796 52.0167L22.6006 52.0138ZM50.7076 53.1202C49.1587 54.1683 47.5633 55.1378 46.0115 56.1859C46.0173 56.611 46.0173 57.0331 46.0784 57.4524C48.524 57.4524 50.9726 57.464 53.4182 57.4495C53.43 56.9915 53.43 56.5333 53.4182 56.0753C51.7878 56.0549 50.1515 56.0869 48.5153 56.0578C49.6071 55.3212 50.7455 54.6545 51.8169 53.8888C51.4413 53.6384 51.0774 53.3764 50.7105 53.1173L50.7076 53.1202ZM68.1442 52.9164C66.5866 53.915 65.029 54.9107 63.4859 55.9326C63.4801 56.3577 63.4801 56.7857 63.4859 57.2136C65.9315 57.2224 68.3742 57.2224 70.8169 57.2136C70.8227 56.7711 70.8227 56.3228 70.8169 55.8802C69.1719 55.8686 67.527 55.8889 65.8849 55.8715L69.2418 53.6966C68.8808 53.4346 68.514 53.1668 68.1442 52.9164ZM39.1754 47.143L38.5291 47.1459C38.5204 49.6352 38.5204 52.1216 38.5291 54.6079C38.9658 54.6196 39.4025 54.6196 39.8363 54.6166C39.8887 52.9571 39.7577 51.2918 39.9179 49.6439C40.8029 51.1608 41.7724 52.6311 42.6983 54.1275L43.1437 54.1188C43.0738 53.4404 43.3388 52.6602 42.8933 52.0779C41.8656 50.4358 40.8262 48.8025 39.816 47.1488C39.387 47.1408 38.958 47.1408 38.5291 47.1488L39.1754 47.143ZM62.9997 49.8332C62.5746 49.7662 62.1408 49.7953 61.7099 49.8041C61.6957 51.3432 61.6957 52.8824 61.7099 54.4216C62.1437 54.4303 62.5775 54.4332 63.0113 54.4216C63.0172 52.8931 63.0405 51.3617 62.9997 49.8332ZM34.1474 51.5655C32.648 51.612 31.137 51.481 29.6405 51.647C29.6376 52.0808 29.6376 52.5117 29.6463 52.9455C31.5358 52.96 33.4195 52.9455 35.312 52.9513V51.6179C34.9251 51.5776 34.5363 51.5601 34.1474 51.5655ZM71.7864 45.6785C70.3697 45.6519 68.9525 45.6499 67.5357 45.6727L66.9622 46.2667C66.9622 46.8315 66.9622 47.4021 66.968 47.9669C67.3843 47.9698 67.8007 47.9669 68.217 47.9611L68.2257 46.9276C69.2156 46.9363 70.2055 46.9159 71.1954 46.9421L71.1925 52.4971L72.4007 52.5C72.3803 52.0983 72.4881 51.7023 72.4648 51.3005C72.4793 50.8056 72.456 50.3136 72.4706 49.8215C72.4619 48.7967 72.4706 47.769 72.4706 46.7441C72.5463 46.2667 72.1445 45.8998 71.7864 45.6785ZM50.4689 50.7037L49.8371 50.7066V52.0313C50.2593 52.0371 50.6785 52.0371 51.0978 52.0313C51.1036 51.5888 51.1036 51.1462 51.0978 50.7095C50.6776 50.7053 50.2573 50.7044 49.8371 50.7066L50.4689 50.7037ZM44.9081 48.095L44.253 48.1038C44.2413 49.1868 44.2442 50.2728 44.2501 51.3558C44.6868 51.3675 45.1235 51.3675 45.5631 51.3617C45.566 50.2728 45.5689 49.1868 45.5631 48.1009C45.1264 48.0921 44.6897 48.0921 44.253 48.1009L44.9081 48.095ZM58.3356 49.6032L56.3383 49.6148C56.3238 50.0515 56.3238 50.4882 56.3325 50.925C57.4592 51.056 58.5976 50.9541 59.7302 50.989C59.9573 50.9657 60.2571 51.0676 60.3852 50.8085C60.4149 50.4081 60.3983 50.0056 60.3357 49.609C59.0023 49.609 57.6718 49.5973 56.3383 49.6148L58.3356 49.6032ZM52.8155 49.5537L52.1721 49.5566C52.1663 49.9991 52.1663 50.4417 52.1721 50.8813C52.6001 50.8842 53.028 50.8871 53.4589 50.8842C53.4669 50.4417 53.4669 49.9991 53.4589 49.5566C53.03 49.5526 52.601 49.5526 52.1721 49.5566L52.8155 49.5537ZM28.505 45.7251H27.1891L27.1862 49.9409H28.5079V45.7251H28.505ZM33.2652 44.0511L32.0453 44.0569C31.5329 45.8416 31.0351 47.6321 30.5314 49.4197L31.795 49.4256C32.1298 48.0485 32.5694 46.7005 32.878 45.3204L33.5768 45.268C34.0047 46.6422 34.3279 48.0455 34.7471 49.4256L35.97 49.4226C35.5041 47.6263 34.9801 45.8474 34.4851 44.0598C33.6699 44.0481 32.8605 44.054 32.0453 44.0598L33.2652 44.0511ZM48.9753 43.6551L48.7744 43.6609H43.7813C43.7771 44.086 43.7771 44.5111 43.7813 44.9361C45.403 44.9798 47.0334 44.8575 48.6492 45.006V47.9436L47.6128 47.9553V49.2363C48.1659 49.2421 48.7162 49.2421 49.2665 49.2421L49.907 48.5434V44.8109C49.9856 44.2024 49.3829 43.5648 48.7744 43.6609L48.9753 43.6551ZM23.0577 46.9014C23.0432 47.3293 23.0432 47.7573 23.0461 48.1853C23.4828 48.194 23.9195 48.1911 24.3533 48.1853V46.9334C23.9221 46.9049 23.4899 46.8942 23.0577 46.9014ZM54.0354 41.5298H53.2056C52.9698 41.8413 52.5127 42.0742 52.5709 42.5284C52.5651 43.7308 52.5651 44.9332 52.5709 46.1386C52.5156 46.5869 52.964 46.8227 53.1969 47.1314C55.0282 47.1255 56.8595 47.1372 58.6879 47.1255C58.6995 46.7005 58.6995 46.2725 58.6966 45.8445C57.0691 45.827 55.4445 45.8445 53.82 45.8329V42.8195L54.8681 42.8108C54.8756 42.3867 54.8737 41.9625 54.8622 41.5385C54.3091 41.5268 53.7559 41.5327 53.2027 41.5298H54.0354ZM39.9644 43.6609H36.7822C36.7648 44.1093 36.7677 44.5576 36.7852 45.006H39.9644C39.9732 44.5577 39.9732 44.1092 39.9644 43.6609ZM65.8558 42.115L63.0143 42.1266C63.0084 42.5633 63.0113 43.0058 63.0143 43.4426C64.9067 43.4688 66.7991 43.4513 68.6916 43.4513C68.6974 43.0088 68.6974 42.5633 68.6945 42.1179C66.802 42.1179 64.9096 42.1004 63.0172 42.1266L65.8558 42.115ZM59.407 42.115L58.7344 42.1266C58.7286 42.5633 58.7286 43 58.7344 43.4367C59.1828 43.4542 59.6312 43.4542 60.0795 43.4367C60.0854 43 60.0883 42.5633 60.0795 42.1266C59.6313 42.1099 59.1827 42.1099 58.7344 42.1266L59.407 42.115ZM24.4232 39.3782L21.1624 39.3869C21.1537 39.8295 21.1537 40.2749 21.1624 40.7175C22.525 40.732 23.8904 40.7175 25.2559 40.7233C24.7318 41.093 24.1874 41.4279 23.6488 41.7714C24.0098 42.0334 24.33 42.3915 24.7522 42.5488C25.7508 41.9461 26.7232 41.2968 27.6927 40.6476L27.6898 39.3899C25.5121 39.3695 23.3343 39.3753 21.1595 39.3869L24.4232 39.3782ZM33.4428 38.3039C32.3976 39.0201 31.3117 39.6752 30.2927 40.4292C31.3029 41.1629 32.3656 41.8151 33.3904 42.5226C34.1008 42.5226 34.8112 42.5284 35.5216 42.5138C34.4677 41.8296 33.4254 41.1192 32.3656 40.4409C33.3962 39.7043 34.4909 39.0609 35.5158 38.3155C34.8228 38.3039 34.1357 38.3155 33.4428 38.3039ZM42.5964 40.6709H39.7723C39.7723 41.1076 39.7723 41.5472 39.7781 41.9898C41.6531 41.9898 43.5251 41.9927 45.403 41.9868C45.4612 41.5501 45.467 41.1134 45.4205 40.6767C43.5397 40.6592 41.656 40.6767 39.7723 40.668L42.5964 40.6709ZM47.3275 40.6709L46.6491 40.6767V41.9752C47.1004 41.981 47.5516 41.981 48.0058 41.9694V40.6825C47.5537 40.6678 47.1013 40.6658 46.6491 40.6767L47.3275 40.6709ZM50.4689 36.7725H49.8371V40.9941H51.1007C51.1007 39.5878 51.1094 38.1816 51.1007 36.7754C50.6795 36.7716 50.2583 36.7716 49.8371 36.7754L50.4689 36.7725ZM66.508 39.1977L65.8529 39.2064C65.8442 39.6461 65.8471 40.0886 65.8529 40.5282C66.2896 40.5399 66.7263 40.5399 67.1572 40.5282C67.17 40.0868 67.171 39.645 67.1601 39.2035C66.7234 39.1948 66.2867 39.1977 65.8529 39.2035L66.508 39.1977ZM62.1292 34.0241C61.314 33.8902 60.49 34.0183 59.6719 34.0241C59.1741 35.8059 58.685 37.5877 58.1667 39.3578C58.5889 39.3607 59.011 39.3636 59.4332 39.3607C59.7884 37.9807 60.2018 36.6182 60.5424 35.2352L61.2354 35.2265C61.6488 36.5978 61.9923 37.9895 62.3912 39.3607H63.6489L62.1292 34.0241ZM54.9088 37.1597L54.2712 37.1626C54.2659 37.6032 54.2659 38.0438 54.2712 38.4844H55.5435C55.5493 38.0477 55.5493 37.6081 55.5464 37.1684C55.1214 37.1577 54.6963 37.1557 54.2712 37.1626L54.9088 37.1597ZM70.3977 35.669C69.9114 35.669 69.4252 35.669 68.9419 35.6778L70.4908 38.4145C70.9304 38.4145 71.3759 38.4145 71.8155 38.3971C71.4574 37.4305 70.8751 36.5745 70.3947 35.669H70.3977ZM46.4657 31.6658L45.8397 31.6746C45.8193 33.3166 45.8339 34.9645 45.831 36.6065C44.8382 36.5832 43.8454 36.6647 42.8584 36.5512C42.8644 36.2212 42.8624 35.8912 42.8526 35.5613H41.6531C41.6531 36.1378 41.6007 36.7201 41.6734 37.2936C41.8423 37.4916 42.0374 37.6663 42.2266 37.8526C43.659 37.8439 45.0915 37.8584 46.5268 37.8439C46.7161 37.6517 46.9082 37.4625 47.1033 37.2762C47.0887 35.407 47.112 33.5379 47.0916 31.6716C46.6743 31.6652 46.257 31.6652 45.8397 31.6716L46.4657 31.6658ZM36.5814 34.7549H35.9496C35.9205 35.7855 35.935 36.8132 35.9379 37.841H37.219C37.219 36.8132 37.2248 35.7855 37.2131 34.7607C36.791 34.7548 36.3688 34.7548 35.9496 34.7578L36.5814 34.7549ZM66.5022 32.9527L65.8529 32.9614C65.8401 34.3715 65.8401 35.7816 65.8529 37.1917C66.2867 37.1975 66.7205 37.2005 67.1543 37.1917C67.1689 35.7826 67.1689 34.3705 67.1543 32.9614C66.7206 32.951 66.2866 32.951 65.8529 32.9614L66.5022 32.9527ZM27.4831 34.6908L24.6503 34.7024C24.6445 35.1392 24.6445 35.5846 24.6503 36.0271C26.5398 36.0388 28.4264 36.0417 30.3159 36.0271C30.3262 35.5856 30.3262 35.1439 30.3159 34.7024C28.4274 34.688 26.5388 34.688 24.6503 34.7024L27.4831 34.6908ZM32.4908 34.7024H31.2039V36.0301C31.6348 36.033 32.0628 36.0359 32.4937 36.0301C32.5031 35.5876 32.5031 35.1449 32.4937 34.7024H32.4908ZM41.8365 29.8054C41.1348 30.8681 40.4594 31.9541 39.7635 33.0225C39.0648 31.9686 38.3952 30.8914 37.7052 29.8287C37.7023 30.5449 37.6498 31.267 37.7226 31.9832C37.9381 32.3413 38.1593 32.6994 38.3864 33.0546L39.7577 35.1712C40.4448 34.091 41.1843 33.0371 41.8248 31.9249C41.8831 31.2204 41.8365 30.51 41.8365 29.8054ZM50.3641 26.6145L49.7352 26.6203C49.7207 29.1067 49.7265 31.593 49.7323 34.0794C50.169 34.0881 50.6057 34.0881 51.0424 34.0794L51.0512 29.0834C52.0119 30.5624 52.9087 32.088 53.8811 33.5612L54.3702 33.6485C54.3819 33.1041 54.3789 32.5596 54.3789 32.0181C53.2347 30.2276 52.1284 28.4137 50.9929 26.6174C50.5737 26.6103 50.1544 26.6113 49.7352 26.6203L50.3641 26.6145ZM34.9277 28.012L33.9902 28.0498C33.6389 28.0454 33.2875 28.0454 32.9362 28.0498C32.9304 28.4865 32.9333 28.9262 32.9421 29.3658C33.4108 29.3716 33.8825 29.3658 34.3541 29.392C33.4224 29.9452 32.5228 30.5478 31.6028 31.1156C31.9405 31.398 32.2579 31.7357 32.6713 31.8958C34.0775 31.0864 35.408 30.149 36.7968 29.3017C36.8026 28.8883 36.8026 28.472 36.7997 28.0586C35.8643 27.9963 34.9259 27.9934 33.9902 28.0498L34.9277 28.012ZM59.9019 30.0005L56.7954 30.0063V31.2902C58.8684 31.2961 60.9355 31.2932 63.0055 31.2902V30.0092C60.9384 29.9976 58.8655 29.9976 56.7954 30.0092L59.9019 30.0005ZM44.6722 28.5331L44.0259 28.5419C44.0172 28.9815 44.0172 29.4211 44.0259 29.8607C44.4568 29.8724 44.8877 29.8724 45.3186 29.8607C45.3273 29.4182 45.3273 28.9815 45.3186 28.5419C44.8878 28.5298 44.4567 28.5298 44.0259 28.5419L44.6722 28.5331ZM55.5959 27.6218L54.9263 27.6306L54.9292 28.9174C55.3747 28.9262 55.8201 28.9262 56.2656 28.9145V27.6335C55.8192 27.6212 55.3727 27.6203 54.9263 27.6306L55.5959 27.6218ZM41.3008 22.2677L40.6312 22.2823C40.6603 24.2096 40.5438 26.1457 40.6894 28.0702C41.1174 28.0702 41.5453 28.0702 41.9733 28.0615C41.9937 26.1341 41.985 24.2067 41.9791 22.2764C41.5289 22.264 41.0784 22.2659 40.6282 22.2823L41.3008 22.2677ZM46.256 25.0045C45.7727 25.0045 45.2894 25.0045 44.8062 25.0132C45.3069 25.9332 45.8135 26.8474 46.3405 27.7499C46.783 27.7499 47.2285 27.7499 47.671 27.7296C47.2983 26.7688 46.7161 25.9186 46.256 25.0045ZM53.8607 24.3465L52.0644 24.3552C52.0585 24.7977 52.0585 25.2432 52.0644 25.6857C53.261 25.7061 54.4576 25.7003 55.6541 25.6857C55.6596 25.2413 55.6596 24.7968 55.6541 24.3523C54.4576 24.3413 53.2609 24.3422 52.0644 24.3552L53.8607 24.3465ZM46.7772 19.9735L44.7799 19.9764C44.3898 19.924 44.1627 20.3258 43.9415 20.5791C43.8628 21.1323 43.9211 21.7 43.9182 22.259H45.1584L45.1672 21.2109H48.0961C48.1834 22.2502 48.0932 23.2925 48.0932 24.3348L48.1892 24.725C48.5823 24.7541 48.9811 24.7337 49.3771 24.7279C49.3713 23.3333 49.3713 21.9387 49.3771 20.5441L48.987 20.1569L48.7715 19.991C47.4439 19.956 46.1105 19.9851 44.7829 19.9764L46.7772 19.9735Z" fill="white"/>
</g>
<defs>
<clipPath id="clip0_342_6050">
<rect width="93.1659" height="93.1659" fill="white" transform="translate(0.281494 0.824219)"/>
</clipPath>
</defs>
</svg>
