<svg width="94" height="94" viewBox="0 0 94 94" fill="none" xmlns="http://www.w3.org/2000/svg">
<g clip-path="url(#clip0_342_6054)">
<path d="M47.0414 93.5047C72.7685 93.5047 93.6244 72.6488 93.6244 46.9218C93.6244 21.1948 72.7685 0.338867 47.0414 0.338867C21.3144 0.338867 0.458496 21.1948 0.458496 46.9218C0.458496 72.6488 21.3144 93.5047 47.0414 93.5047Z" fill="#F5D100"/>
<path d="M46.9602 11.9844C27.7447 11.9844 12.1045 27.6246 12.1045 46.8401C12.1045 66.0555 27.7447 81.7249 46.9893 81.7249C66.231 81.7249 81.8712 66.0846 81.8712 46.8401C81.8712 27.5984 66.2047 11.9844 46.9631 11.9844H46.9602ZM46.9602 79.0347C29.2237 79.0347 14.7655 64.6056 14.7655 46.8401C14.7947 29.1036 29.2237 14.6716 46.9602 14.6716C64.6995 14.6716 79.1577 29.1036 79.1577 46.8692C79.1577 64.6056 64.7257 79.0376 46.9602 79.0376V79.0347Z" fill="white"/>
<path d="M28.9155 31.3628L31.4776 28.7979L45.1264 42.4437L42.5614 45.0058L28.9155 31.3628ZM48.7657 51.2217L51.3307 48.6567L64.9765 62.3026L62.4116 64.8647L48.7657 51.2217ZM44.4131 46.8487L46.9751 44.2867L49.5605 46.8662L46.9984 49.4341L44.4131 46.8487ZM48.8035 42.5544L62.4494 28.9114L65.0115 31.4764L51.3685 45.1223L48.8035 42.5544ZM29.0145 62.3172L42.6575 48.6742L45.2225 51.2363L31.5795 64.8822L29.0145 62.3172Z" fill="white"/>
</g>
<defs>
<clipPath id="clip0_342_6054">
<rect width="93.1659" height="93.1659" fill="white" transform="translate(0.459473 0.337891)"/>
</clipPath>
</defs>
</svg>
