<svg width="95" height="94" viewBox="0 0 95 94" fill="none" xmlns="http://www.w3.org/2000/svg">
<g clip-path="url(#clip0_342_6060)">
<path d="M47.5566 93.5047C73.2836 93.5047 94.1395 72.6488 94.1395 46.9218C94.1395 21.1948 73.2836 0.338867 47.5566 0.338867C21.8295 0.338867 0.973633 21.1948 0.973633 46.9218C0.973633 72.6488 21.8295 93.5047 47.5566 93.5047Z" fill="#82BD39"/>
<path d="M42.9069 56.7034L47.5565 62.829V76.0353L30.0879 68.2822V34.166C30.0879 33.6623 30.3121 33.1819 30.7051 32.8471L32.6936 31.1439C32.8852 30.9782 33.1087 30.8536 33.3503 30.7778C33.5919 30.7019 33.8466 30.6764 34.0984 30.7029C34.3503 30.7294 34.5941 30.8072 34.8147 30.9317C35.0352 31.0561 35.2279 31.2245 35.3809 31.4263L51.2919 52.2838L60.0815 57.6583V28.8934L52.3138 25.0183L51.9353 43.0575L47.8243 37.6044L47.638 17.8066L65.0251 25.8975V59.8565L61.0743 63.1115L48.6308 56.1619L34.819 38.044L34.6297 65.5687L42.8545 69.7815L42.9069 56.7034Z" fill="white"/>
</g>
<defs>
<clipPath id="clip0_342_6060">
<rect width="93.1659" height="93.1659" fill="white" transform="translate(0.973633 0.337891)"/>
</clipPath>
</defs>
</svg>
