<svg width="94" height="94" viewBox="0 0 94 94" fill="none" xmlns="http://www.w3.org/2000/svg">
<g clip-path="url(#clip0_342_6064)">
<path d="M47.0717 93.5047C72.7988 93.5047 93.6546 72.6488 93.6546 46.9218C93.6546 21.1948 72.7988 0.338867 47.0717 0.338867C21.3447 0.338867 0.48877 21.1948 0.48877 46.9218C0.48877 72.6488 21.3447 93.5047 47.0717 93.5047Z" fill="#4099CD"/>
<path fill-rule="evenodd" clip-rule="evenodd" d="M6.32617 69.5139C8.08759 64.3782 11.4823 58.8173 16.2105 53.3264C15.3693 52.2082 14.9588 50.8246 15.0542 49.4286C15.1496 48.0327 15.7445 46.7177 16.73 45.7245C17.7155 44.7312 19.0257 44.126 20.4209 44.0196C21.8161 43.9132 23.2029 44.3128 24.3276 45.1452C28.0826 41.8385 32.0763 38.8131 36.2761 36.0936C56.464 22.9834 77.799 18.7997 88.2044 25.036C91.2023 30.6585 93.0073 36.8394 93.5061 43.1917C90.1463 54.191 79.048 67.3333 63.2331 77.6048C52.3239 84.6883 41.077 89.169 31.4023 90.8023C20.74 86.9795 11.8289 79.4144 6.32617 69.5139ZM17.244 54.389C10.4196 62.2732 7.68581 70.3844 10.9932 75.4794C15.9892 83.1744 32.8872 81.0694 48.7283 70.7833C64.5723 60.4943 73.3648 45.9138 68.3688 38.2189C63.3699 30.524 46.4748 32.629 30.6308 42.9151C28.8752 44.0563 27.2041 45.25 25.6319 46.4816C26.4382 47.6272 26.8046 49.0251 26.6636 50.4189C26.5227 51.8128 25.8839 53.1091 24.8646 54.0701C23.8452 55.0311 22.5135 55.5923 21.1138 55.6509C19.7141 55.7095 18.3402 55.2615 17.244 54.389Z" fill="white"/>
</g>
<defs>
<clipPath id="clip0_342_6064">
<rect width="93.1659" height="93.1659" fill="white" transform="translate(0.487793 0.337891)"/>
</clipPath>
</defs>
</svg>
