<svg width="94" height="94" viewBox="0 0 94 94" fill="none" xmlns="http://www.w3.org/2000/svg">
<g clip-path="url(#clip0_342_6068)">
<path d="M46.5834 93.5047C72.3105 93.5047 93.1664 72.6488 93.1664 46.9218C93.1664 21.1948 72.3105 0.338867 46.5834 0.338867C20.8564 0.338867 0.000488281 21.1948 0.000488281 46.9218C0.000488281 72.6488 20.8564 93.5047 46.5834 93.5047Z" fill="#008FBB"/>
<path fill-rule="evenodd" clip-rule="evenodd" d="M75.9365 49.3464C74.4604 49.3464 73.2638 48.2604 73.2638 46.9212V44.493H59.8362C58.3601 44.493 57.1635 43.4071 57.1635 42.0678C57.1635 40.7286 58.3601 39.6426 59.8362 39.6426H75.9365C77.4126 39.6426 78.6092 40.7286 78.6092 42.0678V46.9212C78.6092 48.2604 77.4155 49.3464 75.9365 49.3464ZM62.6923 49.3464H68.0348C69.5109 49.3464 70.7075 50.4324 70.7075 51.7716C70.7075 53.1109 69.5138 54.1998 68.0348 54.1998H59.8362C59.4105 54.2009 58.9899 54.1074 58.6047 53.9261L43.0227 44.493H38.5333C37.0572 44.493 35.8606 43.4071 35.8606 42.0678C35.8606 40.7286 37.0543 39.6426 38.5333 39.6426H43.8758C44.4522 39.6426 44.985 39.8086 45.4217 40.091L60.6543 49.3493H62.6923V49.3464ZM43.8758 49.3464C45.3518 49.3464 46.5484 50.4324 46.5484 51.7716C46.5484 53.1109 45.3518 54.1998 43.8758 54.1998H38.5333C38.1076 54.2008 37.6869 54.1073 37.3017 53.9261L21.7197 44.493H17.2303C15.7542 44.493 14.5576 43.4071 14.5576 42.0678C14.5576 40.7286 15.7513 39.6426 17.2303 39.6426H22.5728C23.1205 39.6406 23.6572 39.7962 24.1188 40.091L39.3514 49.3493H43.8758V49.3464ZM17.2303 49.3464H22.5728C24.0489 49.3464 25.2455 50.4324 25.2455 51.7745C25.2455 53.1138 24.0489 54.1998 22.5728 54.1998H17.2303C15.7542 54.1998 14.5576 53.1138 14.5576 51.7745C14.5576 50.4353 15.7513 49.3464 17.2303 49.3464Z" fill="white"/>
</g>
<defs>
<clipPath id="clip0_342_6068">
<rect width="93.1659" height="93.1659" fill="white" transform="translate(0.00146484 0.337891)"/>
</clipPath>
</defs>
</svg>
