<svg width="94" height="94" viewBox="0 0 94 94" fill="none" xmlns="http://www.w3.org/2000/svg">
<g clip-path="url(#clip0_342_6072)">
<path d="M47.0986 93.5047C72.8256 93.5047 93.6815 72.6488 93.6815 46.9218C93.6815 21.1948 72.8256 0.338867 47.0986 0.338867C21.3715 0.338867 0.515625 21.1948 0.515625 46.9218C0.515625 72.6488 21.3715 93.5047 47.0986 93.5047Z" fill="#164B79"/>
<path d="M41.5375 54.6888L39.7236 58.561H35.7L46.6266 35.2754L53.914 50.8021H49.7943L46.5335 44.0621L43.2668 50.9156L41.5375 54.6888ZM57.4164 58.4737L65.9469 46.9735L57.3553 35.386H62.0572L68.2906 43.8583L66.0226 46.9735L68.2906 50.0888L62.0601 58.561H53.4336L51.611 54.6888H55.6346L57.4164 58.4737ZM70.5936 46.924L68.2906 43.7593L74.524 35.287H79.1241L70.5936 46.924ZM70.5936 46.924L79.1241 58.5639H74.524L68.2935 50.0917L70.5936 46.924ZM33.7698 38.6497C34.8154 39.7534 35.6328 41.0528 36.1749 42.4732C36.717 43.8937 36.9731 45.4072 36.9287 46.9269C36.9686 49.9868 35.8387 52.9465 33.7698 55.2012C31.6677 57.5566 29.0678 58.5669 26.002 58.5669C24.5438 58.5813 23.0987 58.2892 21.7606 57.7094C20.4224 57.1296 19.2211 56.2751 18.2343 55.2012C16.1317 52.9673 14.9955 49.9938 15.0725 46.9269C15.0257 44.5257 15.7289 42.1697 17.0843 40.187L19.7628 43.0402C18.9243 44.5364 18.5751 46.2575 18.7641 47.9623C18.9531 49.667 19.6709 51.2698 20.8168 52.546C21.4662 53.2814 22.2634 53.8716 23.1564 54.2779C24.0494 54.6843 25.0181 54.8977 25.9991 54.9043C27.9556 54.9043 29.8248 54.0512 31.1815 52.546C31.8774 51.8096 32.4215 50.9434 32.7827 49.9968C33.1439 49.0501 33.315 48.0416 33.2865 47.0288C33.2932 44.991 32.5419 43.0234 31.1786 41.5088C30.5261 40.7853 29.7256 40.2107 28.8314 39.8238C27.9372 39.437 26.9703 39.2471 25.9962 39.267C24.709 39.2316 23.4413 39.5869 22.3598 40.286L19.6813 37.4328C21.4801 36.0105 23.715 35.2535 26.0079 35.2899C27.466 35.2639 28.9128 35.5502 30.2511 36.1298C31.5894 36.7093 32.7882 37.5685 33.7668 38.6497H33.7698Z" fill="white"/>
</g>
<defs>
<clipPath id="clip0_342_6072">
<rect width="93.1659" height="93.1659" fill="white" transform="translate(0.515625 0.337891)"/>
</clipPath>
</defs>
</svg>
