<svg width="94" height="94" viewBox="0 0 94 94" fill="none" xmlns="http://www.w3.org/2000/svg">
<g clip-path="url(#clip0_342_6076)">
<path d="M46.6137 93.5047C72.3407 93.5047 93.1966 72.6488 93.1966 46.9218C93.1966 21.1948 72.3407 0.338867 46.6137 0.338867C20.8867 0.338867 0.0307617 21.1948 0.0307617 46.9218C0.0307617 72.6488 20.8867 93.5047 46.6137 93.5047Z" fill="black"/>
<g clip-path="url(#clip1_342_6076)">
<path d="M46.4271 41.7764C49.1481 41.7937 51.3405 43.9948 51.3492 46.7157C51.3578 49.4627 49.1134 51.6898 46.3491 51.6724C43.6368 51.6551 41.4271 49.4194 41.4444 46.7071C41.4704 43.9688 43.6888 41.7677 46.4271 41.7764Z" fill="white"/>
<path d="M31.9127 29.8359C29.1744 29.8272 26.9474 27.5828 26.9734 24.8618C27.008 22.1149 29.2264 19.9225 31.9647 19.9485C34.6857 19.9658 36.8867 22.1928 36.8781 24.9052C36.8694 27.6435 34.651 29.8445 31.9127 29.8359Z" fill="white"/>
<path d="M46.4184 27.2881C49.1567 27.2968 51.3924 29.5412 51.3577 32.2621C51.323 35.0091 49.096 37.2102 46.3664 37.1928C43.654 37.1755 41.4443 34.9398 41.4443 32.2361C41.453 29.4978 43.68 27.2794 46.4184 27.2881Z" fill="white"/>
<path d="M46.4017 22.4956C43.6634 22.4956 41.4364 20.2599 41.4537 17.5303C41.4624 14.8006 43.7068 12.5736 46.4364 12.5909C49.14 12.5996 51.3584 14.8266 51.3671 17.5389C51.3671 20.2686 49.1314 22.5043 46.4017 22.4956Z" fill="white"/>
<path d="M75.5353 27.2881C78.2736 27.2794 80.5007 29.5065 80.5007 32.2361C80.5007 34.9484 78.2909 37.1755 75.5786 37.1928C72.8403 37.2102 70.6219 35.0091 70.6046 32.2621C70.5873 29.5152 72.7883 27.2968 75.5353 27.2881Z" fill="white"/>
<path d="M31.9296 44.3334C29.1913 44.3334 26.9642 42.0977 26.9815 39.3681C26.9902 36.6384 29.2259 34.4201 31.9642 34.4287C34.6765 34.4374 36.8776 36.6558 36.8949 39.3768C36.8949 42.1064 34.6679 44.3334 31.9296 44.3334Z" fill="white"/>
<path d="M56.1324 24.8704C56.1498 22.1147 58.3595 19.931 61.1064 19.9483C63.8447 19.9657 66.0458 22.21 66.0198 24.9397C65.9938 27.678 63.7581 29.8704 61.0111 29.8357C58.2901 29.8097 56.1151 27.6 56.1324 24.8704Z" fill="white"/>
<path d="M22.1984 32.2448C22.1984 34.9918 19.9801 37.2015 17.2418 37.1928C14.5208 37.1842 12.3024 34.9485 12.3111 32.2101C12.3197 29.4892 14.5294 27.2881 17.2504 27.2881C19.9974 27.2794 22.2071 29.4892 22.1984 32.2448Z" fill="white"/>
<path d="M61.0203 44.3246C58.256 44.2726 56.0896 42.0542 56.133 39.3072C56.1763 36.5343 58.4207 34.3679 61.1936 34.4199C63.8886 34.4719 66.0723 36.7509 66.0203 39.4632C65.9684 42.1928 63.724 44.3766 61.0203 44.3246Z" fill="white"/>
<path d="M17.3802 49.498C15.3611 49.5067 13.706 47.8689 13.6973 45.8499C13.6886 43.8308 15.3264 42.1757 17.3455 42.1583C19.3472 42.141 21.011 43.7961 21.0283 45.8065C21.037 47.8256 19.3906 49.4894 17.3802 49.498Z" fill="white"/>
<path d="M28.1694 53.1725C28.1694 51.1621 29.8246 49.507 31.8436 49.5157C33.854 49.5157 35.5091 51.1794 35.5005 53.1898C35.4918 55.2003 33.8367 56.8554 31.8263 56.8554C29.8159 56.8467 28.1694 55.1829 28.1694 53.1725Z" fill="white"/>
<path d="M60.977 49.5068C62.9874 49.5068 64.6425 51.1706 64.6338 53.181C64.6251 55.1914 62.97 56.8466 60.9596 56.8466C58.9492 56.8379 57.2941 55.1741 57.3028 53.1637C57.3114 51.1533 58.9665 49.5068 60.977 49.5068Z" fill="white"/>
<path d="M71.9908 45.8151C71.9994 43.7874 73.6459 42.1496 75.6563 42.1582C77.6754 42.1756 79.3045 43.8134 79.2958 45.8411C79.2871 47.8688 77.6494 49.498 75.6303 49.4893C73.6112 49.4893 71.9821 47.8428 71.9908 45.8151Z" fill="white"/>
<path d="M46.4967 63.9776C44.4777 63.9776 42.8312 62.3312 42.8399 60.3121C42.8485 58.2931 44.495 56.6553 46.5141 56.6553C48.5418 56.6639 50.1709 58.3017 50.1709 60.3208C50.1623 62.3485 48.5245 63.9863 46.4967 63.9776Z" fill="white"/>
<path d="M48.9663 71.63C48.9663 72.9992 47.8657 74.1083 46.4966 74.1083C45.1361 74.1083 44.0182 72.9818 44.0269 71.6213C44.0356 70.2782 45.1361 69.1777 46.4793 69.169C47.8657 69.1603 48.9663 70.2522 48.9663 71.63Z" fill="white"/>
<path d="M63.4379 64.3074C63.4292 65.6765 62.3287 66.7684 60.9422 66.7597C59.5991 66.7511 58.4985 65.6419 58.4985 64.2987C58.4985 62.9382 59.6251 61.8117 60.9769 61.8204C62.3374 61.8204 63.4466 62.9382 63.4379 64.3074Z" fill="white"/>
<path d="M31.8167 66.7595C30.4388 66.7509 29.3556 65.6504 29.3643 64.2639C29.373 62.9207 30.4735 61.8202 31.8253 61.8115C33.1771 61.8115 34.3037 62.938 34.3037 64.2899C34.3037 65.659 33.1858 66.7595 31.8167 66.7595Z" fill="white"/>
<path d="M14.9014 56.9331C14.9101 55.5726 16.0453 54.4461 17.3971 54.4721C18.7403 54.4981 19.8408 55.6073 19.8408 56.9505C19.8408 58.311 18.7143 59.4288 17.3624 59.4288C15.9846 59.4115 14.8928 58.3023 14.9014 56.9331Z" fill="white"/>
<path d="M78.1084 56.9416C78.117 58.3107 77.0078 59.4286 75.6473 59.4286C74.2869 59.4286 73.1603 58.2934 73.169 56.9416C73.1777 55.5984 74.2868 54.4892 75.6213 54.4719C76.9732 54.4545 78.0997 55.5724 78.1084 56.9416Z" fill="white"/>
<path d="M75.6565 64.4023C76.3498 64.411 76.9217 64.9829 76.9304 65.6675C76.939 66.3694 76.3411 66.9674 75.6305 66.95C74.9373 66.9414 74.3653 66.3694 74.3653 65.6762C74.3567 64.9743 74.9373 64.4023 75.6565 64.4023Z" fill="white"/>
<path d="M47.771 80.356C47.7797 81.0752 47.2164 81.6558 46.4972 81.6558C45.7953 81.6558 45.2407 81.0926 45.232 80.3907C45.2234 79.6714 45.7953 79.0908 46.5059 79.0908C47.1991 79.0908 47.7624 79.6454 47.771 80.356Z" fill="white"/>
<path d="M18.6371 65.7017C18.6285 66.4036 18.0652 66.9582 17.3633 66.9669C16.644 66.9669 16.0808 66.3863 16.0895 65.6671C16.0981 64.9478 16.6787 64.3932 17.4066 64.4106C18.0999 64.4279 18.6458 64.9911 18.6371 65.7017Z" fill="white"/>
<path d="M33.1082 73.0249C33.1082 73.7441 32.5363 74.2987 31.8084 74.2901C31.1065 74.2814 30.5605 73.7181 30.5605 73.0162C30.5605 72.3057 31.1065 71.7597 31.8171 71.7511C32.5363 71.7424 33.1082 72.3057 33.1082 73.0249Z" fill="white"/>
<path d="M60.9684 74.2986C60.2492 74.2986 59.6946 73.7267 59.7032 72.9988C59.7119 72.2969 60.2665 71.751 60.9771 71.751C61.705 71.751 62.2595 72.3229 62.2422 73.0508C62.2336 73.7614 61.679 74.2986 60.9684 74.2986Z" fill="white"/>
</g>
</g>
<defs>
<clipPath id="clip0_342_6076">
<rect width="93.1659" height="93.1659" fill="white" transform="translate(0.0297852 0.337891)"/>
</clipPath>
<clipPath id="clip1_342_6076">
<rect width="68.1805" height="69.0557" fill="white" transform="translate(12.311 12.5908)"/>
</clipPath>
</defs>
</svg>
