<svg width="94" height="94" viewBox="0 0 94 94" fill="none" xmlns="http://www.w3.org/2000/svg">
<g clip-path="url(#clip0_342_6105)">
<path d="M47.1259 93.5048C56.3391 93.5048 65.3455 90.7727 73.006 85.6541C80.6665 80.5355 86.6372 73.2603 90.1629 64.7483C93.6887 56.2364 94.6112 46.8701 92.8138 37.8339C91.0163 28.7977 86.5798 20.4975 80.065 13.9827C73.5503 7.46797 65.25 3.03138 56.2138 1.23397C47.1776 -0.563447 37.8113 0.359051 29.2994 3.8848C20.7875 7.41055 13.5122 13.3812 8.39361 21.0417C3.27501 28.7023 0.542969 37.7086 0.542969 46.9218C0.542969 59.2764 5.4508 71.1249 14.1868 79.8609C22.9228 88.5969 34.7713 93.5048 47.1259 93.5048Z" fill="#1A53F0"/>
<path d="M35.0606 50.6776C31.9148 50.681 28.8827 51.8541 26.5537 53.9688C24.2248 56.0836 22.7655 58.9888 22.4595 62.1197C22.1536 65.2506 23.0229 68.3834 24.8984 70.909C26.7739 73.4346 29.5216 75.1725 32.6072 75.7848C35.6929 76.3971 38.896 75.84 41.5937 74.2219C44.2915 72.6038 46.2911 70.0403 47.2038 67.0298C48.1165 64.0193 47.8771 60.777 46.5321 57.9332C45.1871 55.0894 42.8326 52.8475 39.9264 51.6432C38.3841 51.0033 36.7304 50.6752 35.0606 50.6776ZM35.0606 72.2032C33.0112 72.2082 31.0235 71.5022 29.4364 70.2055C27.8493 68.9089 26.7612 67.1018 26.3574 65.0925C25.9537 63.0833 26.2595 60.9962 27.2225 59.1871C28.1856 57.378 29.7464 55.9591 31.6387 55.1721C33.531 54.3851 35.6377 54.2789 37.5996 54.8715C39.5615 55.4642 41.257 56.719 42.3972 58.422C43.5373 60.125 44.0514 62.1708 43.8518 64.2105C43.6523 66.2502 42.7514 68.1575 41.3028 69.6072C39.647 71.2636 37.4027 72.197 35.0606 72.2032ZM62.1211 23.6299C58.9744 23.628 55.9394 24.7967 53.6067 26.9087C51.274 29.0206 49.8103 31.9248 49.5004 35.0562C49.1904 38.1876 50.0564 41.3224 51.9298 43.8507C53.8032 46.3789 56.5501 48.12 59.6362 48.735C62.7222 49.35 65.9267 48.7952 68.6262 47.1783C71.3258 45.5614 73.3273 42.9981 74.2416 39.9872C75.1558 36.9762 74.9173 33.7327 73.5725 30.8879C72.2277 28.043 69.8727 25.8001 66.9657 24.5954C65.4296 23.9597 63.7836 23.6316 62.1211 23.6299ZM62.1211 45.1554C59.7801 45.1566 57.5344 44.228 55.8779 42.5738C54.2213 40.9196 53.2895 38.6753 53.2873 36.3343C53.2915 34.5911 53.812 32.8882 54.7833 31.4407C55.7546 29.9931 57.1329 28.8658 58.7444 28.201C60.3559 27.5362 62.1282 27.3638 63.8376 27.7055C65.547 28.0473 67.1168 28.8878 68.3488 30.121C69.5809 31.3543 70.4199 32.9249 70.76 34.6346C71.1001 36.3443 70.926 38.1164 70.2596 39.7273C69.5933 41.3381 68.4647 42.7154 67.0162 43.6853C65.5677 44.6551 63.8643 45.1741 62.1211 45.1766V45.1554ZM35.0606 23.6299C32.136 23.6337 29.3028 24.6492 27.0415 26.504C24.7803 28.3589 23.2304 30.9388 22.6547 33.8062C22.0789 36.6736 22.5129 39.6519 23.8829 42.2358C25.2529 44.8197 27.4746 46.8501 30.1711 47.9826C32.8676 49.115 35.8728 49.2798 38.677 48.4489C41.4811 47.618 43.9114 45.8427 45.5557 43.424C47.2 41.0054 47.9569 38.0924 47.6981 35.1792C47.4393 32.2661 46.1807 29.5321 44.1358 27.4412H47.727V23.6299H35.0606ZM43.8945 36.3089C43.8953 38.3549 43.1866 40.3379 41.8891 41.9199C40.5917 43.5019 38.7857 44.585 36.7791 44.9846C34.7725 45.3842 32.6894 45.0756 30.8849 44.1113C29.0803 43.1471 27.666 41.5868 26.883 39.6966C26.1 37.8063 25.9968 35.703 26.5908 33.7452C27.1849 31.7873 28.4396 30.0961 30.141 28.9597C31.8424 27.8233 33.8852 27.3121 35.9213 27.5132C37.9574 27.7143 39.8608 28.6153 41.307 30.0626C42.9621 31.7202 43.8925 33.9664 43.8945 36.3089Z" fill="white"/>
</g>
<defs>
<clipPath id="clip0_342_6105">
<rect width="93.1659" height="93.1659" fill="white" transform="translate(0.543457 0.337891)"/>
</clipPath>
</defs>
</svg>
