<svg width="94" height="94" viewBox="0 0 94 94" fill="none" xmlns="http://www.w3.org/2000/svg">
<g clip-path="url(#clip0_342_6108)">
<path d="M46.6406 93.5047C72.3676 93.5047 93.2235 72.6488 93.2235 46.9218C93.2235 21.1948 72.3676 0.338867 46.6406 0.338867C20.9135 0.338867 0.0576172 21.1948 0.0576172 46.9218C0.0576172 72.6488 20.9135 93.5047 46.6406 93.5047Z" fill="#1C347A"/>
<path d="M29.3613 20.392C25.6516 22.8134 22.4883 25.9826 20.0739 29.6969V20.392H29.3613ZM73.0445 29.4466C70.6506 25.8391 67.5458 22.7581 63.9201 20.392H73.0445V29.4466ZM64.054 73.3626C67.6227 71.0077 70.6803 67.958 73.0445 64.3954V73.3626H64.054ZM20.0739 64.145C22.4588 67.8143 25.5749 70.9522 29.2274 73.3626H20.0739V64.145ZM75.755 46.921C75.755 62.9746 62.6943 76.0353 46.6407 76.0353C30.5871 76.0353 17.5264 62.9746 17.5264 46.921C17.5264 30.8673 30.5871 17.8066 46.6407 17.8066C62.6943 17.8066 75.755 30.8673 75.755 46.921ZM46.6407 68.1511C58.3447 68.1511 67.8709 58.6278 67.8709 46.921C67.8709 35.217 58.3476 25.6908 46.6407 25.6908C34.9367 25.6908 25.4105 35.2141 25.4105 46.921C25.4105 58.6249 34.9338 68.1511 46.6407 68.1511Z" fill="white"/>
</g>
<defs>
<clipPath id="clip0_342_6108">
<rect width="93.1659" height="93.1659" fill="white" transform="translate(0.0576172 0.337891)"/>
</clipPath>
</defs>
</svg>
