<svg width="94" height="94" viewBox="0 0 94 94" fill="none" xmlns="http://www.w3.org/2000/svg">
<g clip-path="url(#clip0_342_6112)">
<path d="M47.1557 93.5047C72.8827 93.5047 93.7386 72.6488 93.7386 46.9218C93.7386 21.1948 72.8827 0.338867 47.1557 0.338867C21.4286 0.338867 0.572754 21.1948 0.572754 46.9218C0.572754 72.6488 21.4286 93.5047 47.1557 93.5047Z" fill="black"/>
<path fill-rule="evenodd" clip-rule="evenodd" d="M46.9897 76.9415C63.7013 76.9415 76.3602 65.7441 78.9864 51.0938H64.7291C62.5979 58.8731 55.9831 64.5679 47.1586 64.5679C38.3981 64.5679 31.6989 58.8323 29.4774 51.0938H15.1299C17.6599 65.7965 30.2111 76.9415 46.9897 76.9415Z" fill="white"/>
<path d="M47.0711 29.6099C51.1343 29.6099 54.4283 26.316 54.4283 22.2527C54.4283 18.1894 51.1343 14.8955 47.0711 14.8955C43.0078 14.8955 39.7139 18.1894 39.7139 22.2527C39.7139 26.316 43.0078 29.6099 47.0711 29.6099Z" fill="white"/>
<path fill-rule="evenodd" clip-rule="evenodd" d="M28.6826 51.0929V50.9473C28.6826 40.4865 36.1766 31.9473 46.981 31.9473C57.7882 31.9473 65.4395 40.6321 65.4569 51.0929H28.6826Z" fill="white"/>
</g>
<defs>
<clipPath id="clip0_342_6112">
<rect width="93.1659" height="93.1659" fill="white" transform="translate(0.571777 0.337891)"/>
</clipPath>
</defs>
</svg>
