<svg width="94" height="94" viewBox="0 0 94 94" fill="none" xmlns="http://www.w3.org/2000/svg">
<g clip-path="url(#clip0_342_6119)">
<path d="M46.6674 93.5047C72.3945 93.5047 93.2503 72.6488 93.2503 46.9218C93.2503 21.1948 72.3945 0.338867 46.6674 0.338867C20.9404 0.338867 0.0844727 21.1948 0.0844727 46.9218C0.0844727 72.6488 20.9404 93.5047 46.6674 93.5047Z" fill="#32A4BE"/>
<path fill-rule="evenodd" clip-rule="evenodd" d="M72.8706 70.845L29.1322 28.0586C33.9766 23.3328 40.4824 20.6972 47.25 20.7189C61.3996 20.7189 72.8706 31.9395 72.8706 45.7834V70.845ZM20.4648 22.9985L64.2033 65.785C59.3589 70.5108 52.8531 73.1464 46.0855 73.1247C31.9359 73.1247 20.4648 61.904 20.4648 48.0602V22.9985Z" fill="white"/>
</g>
<defs>
<clipPath id="clip0_342_6119">
<rect width="93.1659" height="93.1659" fill="white" transform="translate(0.0854492 0.337891)"/>
</clipPath>
</defs>
</svg>
