<svg width="94" height="94" viewBox="0 0 94 94" fill="none" xmlns="http://www.w3.org/2000/svg">
<g clip-path="url(#clip0_342_6123)">
<path d="M47.1825 93.5047C72.9096 93.5047 93.7655 72.6488 93.7655 46.9218C93.7655 21.1948 72.9096 0.338867 47.1825 0.338867C21.4555 0.338867 0.599609 21.1948 0.599609 46.9218C0.599609 72.6488 21.4555 93.5047 47.1825 93.5047Z" fill="#25AAE1"/>
<path fill-rule="evenodd" clip-rule="evenodd" d="M48.1899 73.1041C43.4151 73.1565 39.4061 72.2948 35.6271 70.4169C35.3941 70.3004 35.2195 70.2946 34.9865 70.4256C32.6912 71.7229 30.1712 72.5744 27.5595 72.9353C26.4415 73.0808 25.3118 73.2381 24.188 73.0081C23.496 72.8722 22.8526 72.5548 22.3236 72.0884C21.7947 71.6219 21.3993 71.0232 21.178 70.3536C20.9567 69.684 20.9174 68.9676 21.0641 68.2778C21.2109 67.5881 21.5384 66.9497 22.0132 66.4282C23.3473 64.9127 24.349 63.1344 24.9537 61.208C24.9893 61.1119 25.0007 61.0086 24.987 60.9071C24.9733 60.8056 24.9349 60.709 24.8751 60.6257C22.8141 57.3542 21.5413 53.6485 21.1572 49.801C20.3013 41.2938 22.9478 34.0065 29.0472 28.0322C32.8859 24.2299 37.8535 21.7742 43.2055 21.0331C50.5918 19.953 57.3231 21.6591 63.2362 26.2388C68.5117 30.3264 71.7958 35.7097 72.94 42.2837C74.3899 50.6046 72.2907 58.0171 66.7095 64.3524C62.584 69.034 57.3434 71.8144 51.177 72.8013C50.0066 72.9906 48.8188 73.043 48.1899 73.1041ZM29.4694 66.1516C29.6586 66.0992 29.7692 66.0701 29.877 66.0352C31.5329 65.4758 33.0968 64.6743 34.5178 63.6565C35.5426 62.9345 36.5529 62.8996 37.633 63.5168C39.9505 64.8444 42.434 65.6712 45.0979 65.9537C49.4272 66.4166 53.512 65.5926 57.1658 63.246C63.4837 59.1933 66.628 53.3588 66.2874 45.8036C66.069 40.9648 64.1737 36.7869 60.7411 33.3834C56.6039 29.2842 51.5701 27.415 45.7385 27.8168C41.808 28.0905 38.2561 29.4414 35.2311 31.9656C29.3704 36.8568 27.1082 43.128 28.4067 50.6483C28.8318 53.123 29.8187 55.3939 31.2104 57.4901C31.476 57.8647 31.6579 58.2921 31.7438 58.7432C31.8297 59.1943 31.8176 59.6586 31.7083 60.1046C31.3754 61.5524 30.9076 62.9658 30.3108 64.3262C30.0517 64.9172 29.7722 65.4966 29.4723 66.1516H29.4694ZM47.2029 35.8378L48.8624 39.2063C49.4447 40.4 50.0445 41.5937 50.6093 42.799C50.7549 43.1135 50.9499 43.2241 51.276 43.2678C53.7216 43.6084 56.1643 43.9665 58.607 44.3188C58.6914 44.3333 58.7759 44.3566 58.8807 44.377C58.4294 44.8429 58.0102 45.297 57.5705 45.725C56.1905 47.073 54.8076 48.4152 53.4159 49.7486C53.1743 49.9815 53.0782 50.1999 53.1422 50.558C53.579 53.0123 53.9866 55.4725 54.4 57.9327C54.4087 57.9938 54.4087 58.0578 54.4174 58.1772C54.2835 58.1248 54.1816 58.0928 54.0885 58.0433C51.9282 56.9049 49.765 55.7695 47.6134 54.6136C47.3223 54.4564 47.0952 54.4418 46.7924 54.6049C44.6263 55.7607 42.4515 56.8991 40.2766 58.0404C40.1893 58.0899 40.0961 58.1277 39.9272 58.2092C40.035 57.5483 40.1281 56.9573 40.23 56.3692C40.5736 54.3836 40.9142 52.3951 41.2781 50.4124C41.3306 50.1213 41.1675 49.9844 41.0045 49.8243C39.2709 48.1204 37.5338 46.4201 35.793 44.7235C35.694 44.6245 35.5543 44.5692 35.432 44.4935L35.5222 44.3537L38.1891 43.9694C39.8661 43.7307 41.5402 43.4861 43.2201 43.2561C43.4879 43.2183 43.6102 43.0756 43.7208 42.8485C44.8184 40.6096 45.9277 38.3766 47.0311 36.1406C47.0719 36.062 47.1185 35.9892 47.2058 35.8378H47.2029Z" fill="white"/>
</g>
<defs>
<clipPath id="clip0_342_6123">
<rect width="93.1659" height="93.1659" fill="white" transform="translate(0.599609 0.337891)"/>
</clipPath>
</defs>
</svg>
