<svg width="94" height="94" viewBox="0 0 94 94" fill="none" xmlns="http://www.w3.org/2000/svg">
<g clip-path="url(#clip0_342_6127)">
<path d="M46.6962 93.5047C72.4233 93.5047 93.2792 72.6488 93.2792 46.9218C93.2792 21.1948 72.4233 0.338867 46.6962 0.338867C20.9692 0.338867 0.113281 21.1948 0.113281 46.9218C0.113281 72.6488 20.9692 93.5047 46.6962 93.5047Z" fill="#34445B"/>
<path d="M46.5133 30.0986L52.3653 20.9683C53.8668 21.2118 55.4044 20.8671 56.6582 20.0057C57.912 19.1444 58.7854 17.8328 59.0967 16.3438C59.408 14.8549 59.1332 13.3032 58.3295 12.0117C57.5258 10.7202 56.2551 9.7883 54.7817 9.4099C53.6081 9.16687 52.3884 9.28638 51.2843 9.75258C50.1802 10.2188 49.2439 11.0096 48.5996 12.0202C47.9553 13.0309 47.6336 14.2135 47.6769 15.4112C47.7203 16.6089 48.1268 17.7651 48.8424 18.7265L41.5813 30.0549C38.5511 30.3529 35.6092 31.2452 32.924 32.6807C30.2387 34.1162 27.8627 36.0668 25.9316 38.421C24.0006 40.7752 22.5523 43.4869 21.6697 46.401C20.7872 49.3152 20.4875 52.3747 20.7878 55.4047C21.3935 61.5225 24.4037 67.1495 29.1568 71.0486C33.9098 74.9478 40.0166 76.8 46.1348 76.1982C52.2531 75.5932 57.8808 72.5833 61.7806 67.8302C65.6803 63.0771 67.533 56.9699 66.9312 50.8512C66.4085 45.5809 64.0979 40.6481 60.3835 36.8727C56.669 33.0974 51.7745 30.7069 46.5133 30.0986ZM43.8493 65.3909C42.2341 65.3925 40.6345 65.0755 39.142 64.4582C37.6494 63.8409 36.2932 62.9354 35.151 61.7934C34.0088 60.6515 33.1029 59.2955 32.4853 57.8031C31.8676 56.3107 31.5503 54.7111 31.5514 53.096C31.5499 51.4806 31.8669 49.8807 32.4844 48.388C33.1019 46.8952 34.0077 45.5389 35.15 44.3966C36.2922 43.2544 37.6486 42.3486 39.1413 41.7311C40.634 41.1136 42.2339 40.7965 43.8493 40.7981C46.3475 40.7975 48.7866 41.5584 50.8413 42.9795C52.8959 44.4006 54.4686 46.4143 55.3495 48.7521C54.194 47.264 52.4951 46.2954 50.6259 46.0591C48.7568 45.8227 46.8703 46.3379 45.3807 47.4915C43.892 48.6465 42.9229 50.3455 42.6865 52.2148C42.4501 54.0842 42.9657 55.9709 44.1201 57.4602C44.7831 58.3132 45.632 59.0038 46.602 59.4795C47.572 59.9552 48.6378 60.2035 49.7182 60.2054C50.7986 60.2074 51.8652 59.963 52.8369 59.4908C53.8087 59.0187 54.66 58.3312 55.3262 57.4806C54.4417 59.8079 52.8702 61.811 50.8202 63.2239C48.7703 64.6368 46.339 65.3926 43.8493 65.3909Z" fill="white"/>
<path d="M46.5133 30.0986L52.3653 20.9683C53.8668 21.2118 55.4044 20.8671 56.6582 20.0057C57.912 19.1444 58.7854 17.8328 59.0967 16.3438C59.408 14.8549 59.1332 13.3032 58.3295 12.0117C57.5258 10.7202 56.2551 9.7883 54.7817 9.4099C53.6081 9.16687 52.3884 9.28638 51.2843 9.75258C50.1802 10.2188 49.2439 11.0096 48.5996 12.0202C47.9553 13.0309 47.6336 14.2135 47.6769 15.4112C47.7203 16.6089 48.1268 17.7651 48.8424 18.7265L41.5813 30.0549C38.5511 30.3529 35.6092 31.2452 32.924 32.6807C30.2387 34.1162 27.8627 36.0668 25.9316 38.421C24.0006 40.7752 22.5523 43.4869 21.6697 46.401C20.7872 49.3152 20.4875 52.3747 20.7878 55.4047C21.3935 61.5225 24.4037 67.1495 29.1568 71.0486C33.9098 74.9478 40.0166 76.8 46.1348 76.1982C52.2531 75.5932 57.8808 72.5833 61.7806 67.8302C65.6803 63.0771 67.533 56.9699 66.9312 50.8512C66.4085 45.5809 64.0979 40.6481 60.3835 36.8727C56.669 33.0974 51.7745 30.7069 46.5133 30.0986ZM43.8493 65.3909C42.2341 65.3925 40.6345 65.0755 39.142 64.4582C37.6494 63.8409 36.2932 62.9354 35.151 61.7934C34.0088 60.6515 33.1029 59.2955 32.4853 57.8031C31.8676 56.3107 31.5503 54.7111 31.5514 53.096C31.5499 51.4806 31.8669 49.8807 32.4844 48.388C33.1019 46.8952 34.0077 45.5389 35.15 44.3966C36.2922 43.2544 37.6486 42.3486 39.1413 41.7311C40.634 41.1136 42.2339 40.7965 43.8493 40.7981C46.3475 40.7975 48.7866 41.5584 50.8413 42.9795C52.8959 44.4006 54.4686 46.4143 55.3495 48.7521C54.194 47.264 52.4951 46.2954 50.6259 46.0591C48.7568 45.8227 46.8703 46.3379 45.3807 47.4915C43.892 48.6465 42.9229 50.3455 42.6865 52.2148C42.4501 54.0842 42.9657 55.9709 44.1201 57.4602C44.7831 58.3132 45.632 59.0038 46.602 59.4795C47.572 59.9552 48.6378 60.2035 49.7182 60.2054C50.7986 60.2074 51.8652 59.963 52.8369 59.4908C53.8087 59.0187 54.66 58.3312 55.3262 57.4806C54.4417 59.8079 52.8702 61.811 50.8202 63.2239C48.7703 64.6368 46.339 65.3926 43.8493 65.3909Z" fill="white"/>
</g>
<defs>
<clipPath id="clip0_342_6127">
<rect width="93.1659" height="93.1659" fill="white" transform="translate(0.113281 0.337891)"/>
</clipPath>
</defs>
</svg>
