<svg width="94" height="94" viewBox="0 0 94 94" fill="none" xmlns="http://www.w3.org/2000/svg">
<g clip-path="url(#clip0_342_6133)">
<path d="M47.2094 93.5047C72.9364 93.5047 93.7923 72.6488 93.7923 46.9218C93.7923 21.1948 72.9364 0.338867 47.2094 0.338867C21.4824 0.338867 0.626465 21.1948 0.626465 46.9218C0.626465 72.6488 21.4824 93.5047 47.2094 93.5047Z" fill="#4392CD"/>
<path fill-rule="evenodd" clip-rule="evenodd" d="M49.7076 74.5796H44.7115C40.9616 74.5796 39.8989 71.1034 39.8989 68.4481C39.8989 65.7929 40.0882 64.5905 40.0882 63.391C40.0882 61.4985 39.1332 56.7733 37.4009 54.7935C34.0266 50.9359 31.9012 47.48 31.9012 42.4665C28.9665 40.9496 23.7783 39.558 21.7811 37.2841C19.7838 35.0103 18.0952 31.7815 18.0952 27.164C18.0952 25.9849 18.3456 24.3195 18.8464 22.1709C19.9964 25.7636 21.7665 28.2267 24.1568 29.5659C27.6535 31.5282 31.5955 32.981 34.9641 32.981H59.455C62.8236 32.981 66.7627 31.5253 70.2623 29.5659C72.6497 28.2267 74.4227 25.7636 75.5727 22.1709C76.0735 24.3195 76.3239 25.9849 76.3239 27.164C76.3239 31.7786 74.6353 35.0045 72.638 37.2783C70.6408 39.5522 65.4526 40.9467 62.5179 42.4607C62.5179 47.4771 60.3925 50.9329 57.0182 54.7906C55.2859 56.7704 54.3309 61.4956 54.3309 63.3881C54.3309 64.5876 54.5202 65.79 54.5202 68.4452C54.5202 71.1004 53.4575 74.5767 49.7076 74.5767V74.5796Z" fill="white"/>
</g>
<defs>
<clipPath id="clip0_342_6133">
<rect width="93.1659" height="93.1659" fill="white" transform="translate(0.627441 0.337891)"/>
</clipPath>
</defs>
</svg>
