<svg width="94" height="94" viewBox="0 0 94 94" fill="none" xmlns="http://www.w3.org/2000/svg">
<g clip-path="url(#clip0_342_6137)">
<path d="M46.7245 93.5047C72.4516 93.5047 93.3075 72.6488 93.3075 46.9218C93.3075 21.1948 72.4516 0.338867 46.7245 0.338867C20.9975 0.338867 0.141602 21.1948 0.141602 46.9218C0.141602 72.6488 20.9975 93.5047 46.7245 93.5047Z" fill="#5F45BA"/>
<path d="M30.5454 27.0067C30.2224 27.5512 29.7452 27.9876 29.1741 28.2608C28.603 28.534 27.9637 28.6316 27.3371 28.5413C26.7105 28.451 26.1248 28.1769 25.6541 27.7536C25.1833 27.3303 24.8487 26.7769 24.6926 26.1634C24.5365 25.55 24.5659 24.9039 24.777 24.3071C24.9882 23.7103 25.3716 23.1896 25.8788 22.8107C26.386 22.4319 26.9942 22.2121 27.6264 22.179C28.2586 22.146 28.8863 22.3012 29.4303 22.625C30.9471 23.5276 31.4479 25.487 30.5454 27.0067ZM19.6275 25.586C19.3993 25.9712 19.0619 26.2801 18.658 26.4735C18.2541 26.6668 17.8019 26.736 17.3587 26.6722C16.9155 26.6084 16.5012 26.4144 16.1683 26.115C15.8354 25.8155 15.5988 25.424 15.4886 24.99C15.3783 24.556 15.3994 24.099 15.549 23.677C15.6987 23.255 15.9702 22.8868 16.3293 22.6193C16.6883 22.3517 17.1187 22.1966 17.5659 22.1738C18.0131 22.151 18.457 22.2614 18.8414 22.4911C19.9128 23.1316 20.268 24.5146 19.6275 25.586ZM50.02 71.8778C53.2808 71.4928 56.4332 70.4665 59.2956 68.8579C62.1581 67.2493 64.674 65.0903 66.6983 62.5051C68.7227 59.92 70.2156 56.9599 71.091 53.7952C71.9664 50.6306 72.2069 47.3241 71.7989 44.0661C71.3908 40.8081 70.3421 37.663 68.7132 34.8121C67.0843 31.9611 64.9075 29.4606 62.308 27.4547C59.7085 25.4487 56.7379 23.9769 53.5671 23.124C50.3964 22.2711 47.0882 22.0541 43.8332 22.4853C41.74 22.6811 39.6889 23.1955 37.7512 24.0109C35.4948 25.1172 34.0391 26.9602 34.0391 29.4261C34.0391 32.6287 36.6361 35.2315 39.8445 35.2315C40.3802 35.2315 42.2348 34.6434 42.6773 34.492C44.7672 33.7628 47.005 33.5622 49.1912 33.9082C51.3774 34.2541 53.444 35.1358 55.2066 36.4746C56.9692 37.8135 58.373 39.5677 59.2928 41.581C60.2125 43.5943 60.6197 45.8039 60.4778 48.0127C60.3014 50.8209 59.2465 53.5026 57.4623 55.6783C55.6781 57.8541 53.255 59.4138 50.5357 60.1368C47.8165 60.8599 44.9387 60.7096 42.3095 59.7074C39.6803 58.7051 37.4328 56.9015 35.8849 54.5518V54.5547C33.2064 51.0465 33.8236 45.439 33.8207 45.3662C33.7684 43.978 33.2207 42.6543 32.2768 41.635C31.3328 40.6156 30.0551 39.9679 28.6749 39.8092C27.2948 39.6505 25.9034 39.9913 24.7527 40.7697C23.602 41.5482 22.7682 42.713 22.4021 44.0532C22.2711 44.5394 22.2041 45.9631 22.2245 46.1523C22.0777 49.7502 22.7134 53.3371 24.0878 56.6653C25.4623 59.9935 27.5427 62.9838 30.1853 65.4296C32.828 67.8755 35.9701 69.7187 39.3945 70.832C42.8189 71.9452 46.4442 72.3021 50.02 71.8778ZM27.2176 35.8866C26.7989 36.5915 26.1807 37.1565 25.441 37.51C24.7013 37.8636 23.8734 37.9899 23.0619 37.873C22.2504 37.7561 21.4918 37.4013 20.882 36.8533C20.2721 36.3053 19.8385 35.5888 19.6358 34.7944C19.4331 34 19.4706 33.1633 19.7433 32.3902C20.0161 31.617 20.512 30.9421 21.1683 30.4507C21.8246 29.9594 22.6118 29.6736 23.4305 29.6296C24.2492 29.5856 25.0625 29.7853 25.7677 30.2035C27.7358 31.3739 28.3822 33.9185 27.2147 35.8866" fill="white"/>
</g>
<defs>
<clipPath id="clip0_342_6137">
<rect width="93.1659" height="93.1659" fill="white" transform="translate(0.141602 0.337891)"/>
</clipPath>
</defs>
</svg>
