<svg width="94" height="94" viewBox="0 0 94 94" fill="none" xmlns="http://www.w3.org/2000/svg">
<g clip-path="url(#clip0_342_6141)">
<path d="M47.2392 93.5047C72.9662 93.5047 93.8221 72.6488 93.8221 46.9218C93.8221 21.1948 72.9662 0.338867 47.2392 0.338867C21.5121 0.338867 0.65625 21.1948 0.65625 46.9218C0.65625 72.6488 21.5121 93.5047 47.2392 93.5047Z" fill="#03E8B0"/>
<path d="M45.5618 18.3108C47.4368 17.4956 48.7761 19.225 49.9348 20.3837C52.0019 22.1393 53.9701 24.0055 55.8334 25.9737C56.9019 27.1411 56.4681 29.2752 55.0153 29.9245C53.8973 30.5359 52.5318 30.0759 51.6759 29.2257C49.4253 27.0713 47.2738 24.8091 44.9388 22.7507C43.4889 21.5657 43.7859 18.9949 45.5618 18.3108ZM66.0409 24.2821C67.3132 23.5979 69.3512 24.154 69.7035 25.6709C70.2421 27.0189 69.3774 28.3494 68.4282 29.249C66.3466 31.3016 64.3231 33.4124 62.2997 35.5261C61.5631 36.417 60.2617 36.6557 59.2194 36.1753C57.7142 35.5523 57.3066 33.293 58.442 32.1459C60.9954 29.5489 63.2488 26.6375 66.0409 24.285V24.2821ZM25.374 24.7014C26.6987 23.9007 28.3378 24.4306 29.319 25.5166C31.5258 27.7438 33.8026 29.8954 36.0298 32.0877C37.5059 33.4502 36.4753 36.3384 34.4169 36.35C32.6933 36.612 31.7791 34.9088 30.6262 33.9772C28.6057 32.3031 26.754 30.4398 24.9198 28.5619C23.8833 27.4934 24.1919 25.5311 25.3769 24.7014H25.374ZM27.0859 37.861C29.3073 37.0022 31.4763 39.803 30.0905 41.7332C28.4514 43.8702 26.3173 45.5909 24.5297 47.6085C23.4728 48.6945 22.4917 50.3656 20.7302 50.1531C18.6719 50.0745 17.6383 47.2126 19.1348 45.8238C21.8395 43.2355 23.9852 39.9631 27.0888 37.8581L27.0859 37.861ZM72.1432 44.0537C73.6717 43.055 75.9776 44.1905 76.0271 46.0334C76.2513 47.7628 74.5335 48.677 73.5873 49.8416C71.922 51.8447 70.0936 53.7138 68.207 55.5131C66.827 56.8145 64.2533 55.9003 64.0058 54.0137C63.6826 52.0659 65.511 50.8577 66.6639 49.6116C68.5738 47.8385 70.1868 45.751 72.1432 44.0537ZM32.8826 57.7519C34.3674 56.864 36.6179 57.9179 36.6529 59.7201C36.9295 61.4611 35.2088 62.384 34.2684 63.5457C32.6089 65.5546 30.7572 67.3975 28.8881 69.2172C27.674 70.4458 25.0828 69.8548 24.7393 68.0934C24.1512 66.3902 25.5952 65.0189 26.6958 63.9504C28.8298 61.9532 30.6844 59.6706 32.8826 57.7519ZM59.266 57.685C60.087 57.4026 61.1293 57.3793 61.8222 57.9732C64.393 60.4159 67.1297 62.6839 69.5462 65.2926C70.2916 66.0495 70.3585 67.316 69.8636 68.2244C69.1648 69.8577 66.7716 69.8985 65.61 68.7426C63.2634 66.5299 61.0099 64.2037 58.6517 61.9997C57.2251 60.8934 57.5599 58.3255 59.2631 57.685H59.266ZM39.4682 63.93C40.691 63.2691 42.1293 63.8951 43.0085 64.8267C45.2115 67.0414 47.4577 69.2128 49.7456 71.3396C51.2595 72.7779 50.2347 75.698 48.1006 75.7213C46.377 75.9251 45.4803 74.2132 44.3245 73.2757C42.3295 71.5916 40.4339 69.7932 38.6472 67.8896C37.5583 66.7308 38.0009 64.5705 39.4682 63.93ZM35.5378 20.5293C35.5378 21.1995 35.2715 21.8423 34.7976 22.3162C34.3237 22.7901 33.6809 23.0564 33.0107 23.0564C32.3404 23.0564 31.6976 22.7901 31.2237 22.3162C30.7498 21.8423 30.4835 21.1995 30.4835 20.5293C30.5058 19.8743 30.7816 19.2535 31.2528 18.798C31.7241 18.3425 32.3538 18.0879 33.0092 18.0879C33.6646 18.0879 34.2943 18.3425 34.7656 18.798C35.2368 19.2535 35.5126 19.8743 35.5349 20.5293H35.5378ZM42.8979 27.2489C42.8979 27.9187 42.6318 28.5611 42.1581 29.0348C41.6845 29.5084 41.0421 29.7745 40.3722 29.7745C39.7024 29.7745 39.06 29.5084 38.5863 29.0348C38.1126 28.5611 37.8466 27.9187 37.8466 27.2489C37.8466 26.579 38.1126 25.9366 38.5863 25.4629C39.06 24.9893 39.7024 24.7232 40.3722 24.7232C41.0421 24.7232 41.6845 24.9893 42.1581 25.4629C42.6318 25.9366 42.8979 26.579 42.8979 27.2489ZM23.1758 33.4211C23.1873 33.76 23.1305 34.0977 23.0088 34.4142C22.887 34.7307 22.7029 35.0194 22.4672 35.2632C22.2315 35.507 21.9492 35.7009 21.637 35.8333C21.3249 35.9657 20.9893 36.034 20.6502 36.034C20.3111 36.034 19.9755 35.9657 19.6633 35.8333C19.3511 35.7009 19.0688 35.507 18.8332 35.2632C18.5975 35.0194 18.4133 34.7307 18.2916 34.4142C18.1698 34.0977 18.113 33.76 18.1245 33.4211C18.1467 32.7661 18.4226 32.1453 18.8938 31.6898C19.365 31.2344 19.9948 30.9797 20.6502 30.9797C21.3056 30.9797 21.9353 31.2344 22.4065 31.6898C22.8778 32.1453 23.1536 32.7661 23.1758 33.4211ZM63.2721 20.3284C63.2721 20.9986 63.0058 21.6414 62.5319 22.1153C62.058 22.5893 61.4152 22.8555 60.745 22.8555C60.0747 22.8555 59.4319 22.5893 58.958 22.1153C58.4841 21.6414 58.2178 20.9986 58.2178 20.3284C58.2178 19.6578 58.4842 19.0146 58.9585 18.5404C59.4327 18.0662 60.0758 17.7998 60.7464 17.7998C61.417 17.7998 62.0602 18.0662 62.5344 18.5404C63.0086 19.0146 63.275 19.6578 63.275 20.3284H63.2721ZM76.3532 32.7893C76.3532 33.4592 76.0871 34.1016 75.6134 34.5752C75.1398 35.0489 74.4973 35.315 73.8275 35.315C73.1576 35.315 72.5152 35.0489 72.0416 34.5752C71.5679 34.1016 71.3018 33.4592 71.3018 32.7893C71.3018 32.1195 71.5679 31.4771 72.0416 31.0034C72.5152 30.5297 73.1576 30.2636 73.8275 30.2636C74.4973 30.2636 75.1398 30.5297 75.6134 31.0034C76.0871 31.4771 76.3532 32.1195 76.3532 32.7893ZM69.4502 40.0446C69.4502 40.7145 69.1841 41.3569 68.7104 41.8305C68.2368 42.3042 67.5943 42.5703 66.9245 42.5703C66.2546 42.5703 65.6122 42.3042 65.1386 41.8305C64.6649 41.3569 64.3988 40.7145 64.3988 40.0446C64.3988 39.3748 64.6649 38.7323 65.1386 38.2587C65.6122 37.785 66.2546 37.5189 66.9245 37.5189C67.5943 37.5189 68.2368 37.785 68.7104 38.2587C69.1841 38.7323 69.4502 39.3748 69.4502 40.0446ZM76.3415 60.4421C76.3415 61.112 76.0754 61.7544 75.6018 62.228C75.1281 62.7017 74.4857 62.9678 73.8159 62.9678C73.146 62.9678 72.5036 62.7017 72.0299 62.228C71.5563 61.7544 71.2902 61.112 71.2902 60.4421C71.2902 59.7723 71.5563 59.1299 72.0299 58.6562C72.5036 58.1825 73.146 57.9165 73.8159 57.9165C74.4857 57.9165 75.1281 58.1825 75.6018 58.6562C76.0754 59.1299 76.3415 59.7723 76.3415 60.4421ZM56.6428 66.6027C56.6543 66.9416 56.5975 67.2793 56.4757 67.5958C56.354 67.9123 56.1698 68.201 55.9341 68.4448C55.6984 68.6886 55.4161 68.8825 55.104 69.0149C54.7918 69.1474 54.4562 69.2156 54.1171 69.2156C53.778 69.2156 53.4424 69.1474 53.1302 69.0149C52.8181 68.8825 52.5357 68.6886 52.3001 68.4448C52.0644 68.201 51.8802 67.9123 51.7585 67.5958C51.6367 67.2793 51.5799 66.9416 51.5914 66.6027C51.6137 65.9477 51.8895 65.327 52.3607 64.8715C52.832 64.416 53.4617 64.1613 54.1171 64.1613C54.7725 64.1613 55.4022 64.416 55.8735 64.8715C56.3447 65.327 56.6205 65.9477 56.6428 66.6027ZM63.9097 73.5086C63.9212 73.8475 63.8644 74.1853 63.7427 74.5017C63.6209 74.8182 63.4367 75.1069 63.201 75.3508C62.9654 75.5946 62.6831 75.7884 62.3709 75.9209C62.0587 76.0533 61.7231 76.1215 61.384 76.1215C61.0449 76.1215 60.7093 76.0533 60.3972 75.9209C60.085 75.7884 59.8027 75.5946 59.567 75.3508C59.3314 75.1069 59.1472 74.8182 59.0254 74.5017C58.9037 74.1853 58.8469 73.8475 58.8584 73.5086C58.8806 72.8536 59.1564 72.2329 59.6277 71.7774C60.0989 71.3219 60.7286 71.0673 61.384 71.0673C62.0394 71.0673 62.6692 71.3219 63.1404 71.7774C63.6116 72.2329 63.8875 72.8536 63.9097 73.5086ZM36.2511 73.5086C36.2511 74.1789 35.9848 74.8217 35.5109 75.2956C35.037 75.7695 34.3942 76.0358 33.724 76.0358C33.0537 76.0358 32.4109 75.7695 31.937 75.2956C31.4631 74.8217 31.1968 74.1789 31.1968 73.5086C31.2191 72.8536 31.4949 72.2329 31.9661 71.7774C32.4374 71.3219 33.0671 71.0673 33.7225 71.0673C34.3779 71.0673 35.0076 71.3219 35.4789 71.7774C35.9501 72.2329 36.2259 72.8536 36.2482 73.5086H36.2511ZM30.0876 53.7283C30.0991 54.0672 30.0423 54.405 29.9205 54.7215C29.7988 55.0379 29.6146 55.3267 29.3789 55.5705C29.1433 55.8143 28.8609 56.0082 28.5488 56.1406C28.2366 56.273 27.901 56.3412 27.5619 56.3412C27.2228 56.3412 26.8872 56.273 26.575 56.1406C26.2629 56.0082 25.9806 55.8143 25.7449 55.5705C25.5092 55.3267 25.325 55.0379 25.2033 54.7215C25.0815 54.405 25.0247 54.0672 25.0362 53.7283C25.0585 53.0733 25.3343 52.4526 25.8056 51.9971C26.2768 51.5416 26.9065 51.287 27.5619 51.287C28.2173 51.287 28.847 51.5416 29.3183 51.9971C29.7895 52.4526 30.0653 53.0733 30.0876 53.7283ZM23.1758 61.0681C23.1873 61.407 23.1305 61.7447 23.0088 62.0612C22.887 62.3777 22.7029 62.6664 22.4672 62.9102C22.2315 63.154 21.9492 63.3479 21.637 63.4803C21.3249 63.6127 20.9893 63.681 20.6502 63.681C20.3111 63.681 19.9755 63.6127 19.6633 63.4803C19.3511 63.3479 19.0688 63.154 18.8332 62.9102C18.5975 62.6664 18.4133 62.3777 18.2916 62.0612C18.1698 61.7447 18.113 61.407 18.1245 61.0681C18.1467 60.4131 18.4226 59.7923 18.8938 59.3368C19.365 58.8813 19.9948 58.6267 20.6502 58.6267C21.3056 58.6267 21.9353 58.8813 22.4065 59.3368C22.8778 59.7923 23.1536 60.4131 23.1758 61.0681Z" fill="white"/>
</g>
<defs>
<clipPath id="clip0_342_6141">
<rect width="93.1659" height="93.1659" fill="white" transform="translate(0.655273 0.337891)"/>
</clipPath>
</defs>
</svg>
