<svg width="94" height="94" viewBox="0 0 94 94" fill="none" xmlns="http://www.w3.org/2000/svg">
<g clip-path="url(#clip0_342_6145)">
<path d="M46.7519 93.5047C72.4789 93.5047 93.3348 72.6488 93.3348 46.9218C93.3348 21.1948 72.4789 0.338867 46.7519 0.338867C21.0248 0.338867 0.168945 21.1948 0.168945 46.9218C0.168945 72.6488 21.0248 93.5047 46.7519 93.5047Z" fill="#F7931E"/>
<path d="M46.7521 11.9844C27.4581 11.9844 11.8149 27.6275 11.8149 46.9216C11.8149 66.2156 27.4581 81.8588 46.7521 81.8588C66.0462 81.8588 81.6893 66.2156 81.6893 46.9216C81.6893 37.6557 78.0085 28.7692 71.4565 22.2172C64.9045 15.6652 56.0181 11.9844 46.7521 11.9844ZM64.2207 28.9085C65.9581 28.9085 67.6243 29.5987 68.8528 30.8272C70.0813 32.0557 70.7715 33.7219 70.7715 35.4593V45.2824C70.7715 47.0198 70.0813 48.686 68.8528 49.9145C67.6243 51.143 65.9581 51.8332 64.2207 51.8332H56.1095L55.5854 54.2904C55.5141 54.5915 55.3463 54.8611 55.1078 55.0581C54.8692 55.2552 54.5728 55.369 54.2636 55.3822H52.6245C52.4889 55.388 52.354 55.3614 52.2307 55.3047C52.1074 55.248 51.9994 55.1629 51.9155 55.0562C51.8316 54.9496 51.7743 54.8246 51.7482 54.6914C51.7222 54.5582 51.7281 54.4208 51.7656 54.2904L52.2897 51.8361H48.467L47.9429 54.2904C47.8716 54.5915 47.7038 54.8611 47.4653 55.0581C47.2267 55.2552 46.9303 55.369 46.6211 55.3822H44.982C44.8464 55.388 44.7115 55.3614 44.5882 55.3047C44.4649 55.248 44.3569 55.1629 44.273 55.0562C44.1891 54.9496 44.1318 54.8246 44.1057 54.6914C44.0796 54.5582 44.0856 54.4208 44.1231 54.2904L44.6472 51.8361H40.5508L36.9523 68.7573H28.218L34.5998 38.7317H43.3341L41.9425 45.2824H58.7618C60.5698 45.2824 62.0372 43.818 62.0372 42.01V38.7317C62.0372 36.9266 60.5698 35.4593 58.7618 35.4593H22.7328L28.1918 28.9085H49.5209L50.0421 26.4513C50.1134 26.1502 50.2812 25.8806 50.5197 25.6836C50.7583 25.4865 51.0547 25.3727 51.3639 25.3595H53.003C53.1385 25.3538 53.2735 25.3803 53.3968 25.437C53.5201 25.4937 53.6281 25.5788 53.712 25.6855C53.7959 25.7921 53.8532 25.9172 53.8793 26.0503C53.9053 26.1835 53.8994 26.3209 53.8619 26.4513L53.3407 28.9085H57.1634L57.6846 26.4513C57.7559 26.1502 57.9237 25.8806 58.1622 25.6836C58.4008 25.4865 58.6972 25.3727 59.0064 25.3595H60.6455C60.7811 25.3538 60.916 25.3803 61.0393 25.437C61.1626 25.4937 61.2706 25.5788 61.3545 25.6855C61.4384 25.7921 61.4957 25.9172 61.5218 26.0503C61.5478 26.1835 61.5419 26.3209 61.5044 26.4513L60.9832 28.9085H64.2207Z" fill="white"/>
</g>
<defs>
<clipPath id="clip0_342_6145">
<rect width="93.1659" height="93.1659" fill="white" transform="translate(0.169922 0.337891)"/>
</clipPath>
</defs>
</svg>
