<svg width="94" height="94" viewBox="0 0 94 94" fill="none" xmlns="http://www.w3.org/2000/svg">
<g clip-path="url(#clip0_342_6149)">
<path d="M47.2665 93.5047C72.9936 93.5047 93.8495 72.6488 93.8495 46.9218C93.8495 21.1948 72.9936 0.338867 47.2665 0.338867C21.5395 0.338867 0.683594 21.1948 0.683594 46.9218C0.683594 72.6488 21.5395 93.5047 47.2665 93.5047Z" fill="#00ACFF"/>
<path fill-rule="evenodd" clip-rule="evenodd" d="M44.5884 59.0217C44.7693 58.9466 44.9634 58.908 45.1593 58.9082C45.3552 58.9084 45.5491 58.9474 45.7299 59.0229C45.9107 59.0984 46.0748 59.209 46.2126 59.3482C46.3505 59.4874 46.4595 59.6525 46.5332 59.834C46.684 60.2001 46.6838 60.611 46.5327 60.977C46.3816 61.343 46.0919 61.6344 45.7268 61.7875L35.8104 65.9043L34.4944 73.1247H27.67L28.4183 68.973L24.3947 70.6412C24.2137 70.7163 24.0197 70.7549 23.8238 70.7547C23.6279 70.7545 23.4339 70.7155 23.2531 70.64C23.0724 70.5645 22.9083 70.4539 22.7704 70.3147C22.6326 70.1755 22.5236 70.0104 22.4498 69.8289C22.3 69.4631 22.3006 69.0529 22.4517 68.6876C22.6027 68.3223 22.8919 68.0314 23.2563 67.8783L29.0501 65.4734L29.4868 63.0307L21.6638 66.277C21.483 66.3516 21.2892 66.3898 21.0936 66.3894C20.898 66.389 20.7044 66.3499 20.524 66.2744C20.3435 66.1989 20.1798 66.0885 20.0421 65.9496C19.9045 65.8106 19.7956 65.6458 19.7218 65.4647C19.5711 65.0985 19.5712 64.6876 19.7223 64.3216C19.8734 63.9556 20.1632 63.6643 20.5283 63.5111L30.1156 59.5312L37.0973 20.748H56.8164C68.8901 20.3316 74.9255 24.364 74.9255 32.845C74.9255 43.6027 67.0588 51.9236 53.7157 51.9236H38.3579L37.534 56.4538L41.8633 54.6574C42.0441 54.5828 42.2378 54.5446 42.4334 54.545C42.629 54.5455 42.8226 54.5845 43.0031 54.66C43.1835 54.7355 43.3473 54.8459 43.4849 54.9848C43.6226 55.1238 43.7314 55.2886 43.8052 55.4697C43.9551 55.8355 43.9544 56.2457 43.8034 56.611C43.6523 56.9763 43.3632 57.2672 42.9987 57.4204L36.8935 59.9562L36.448 62.4019L44.5884 59.0217ZM42.9289 26.8591L39.5167 45.565H54.7085C64.0601 45.565 67.6062 39.2035 67.6062 34.5889C67.6062 29.9772 65.376 26.8591 57.9344 26.8591H42.9289Z" fill="white"/>
</g>
<defs>
<clipPath id="clip0_342_6149">
<rect width="93.1659" height="93.1659" fill="white" transform="translate(0.683594 0.337891)"/>
</clipPath>
</defs>
</svg>
