<svg width="94" height="94" viewBox="0 0 94 94" fill="none" xmlns="http://www.w3.org/2000/svg">
<g clip-path="url(#clip0_342_6153)">
<path d="M46.7812 93.5047C72.5082 93.5047 93.3641 72.6488 93.3641 46.9218C93.3641 21.1948 72.5082 0.338867 46.7812 0.338867C21.0541 0.338867 0.198242 21.1948 0.198242 46.9218C0.198242 72.6488 21.0541 93.5047 46.7812 93.5047Z" fill="#EDE708"/>
<path d="M78.4577 39.2056L79.9134 41.3892C82.8248 34.0524 82.1552 28.3169 79.5349 25.813C74.8184 21.2712 67.8892 23.8041 60.3777 20.6598C54.1181 16.0597 50.3332 14.8369 45.1218 14.8369C41.5621 15.4493 38.2669 17.1121 35.6596 19.6117C33.5574 19.4887 31.4536 19.8233 29.4933 20.5924C27.533 21.3614 25.7628 22.5466 24.305 24.0662C21.2189 27.7054 20.5202 37.6917 20.0543 40.2246C19.5885 42.7576 14.2315 52.9767 14.7846 58.5666C15.3378 64.1566 19.4429 70.2124 31.0596 71.639C33.2133 74.1405 35.9007 76.127 38.9239 77.4521C41.9472 78.7773 45.2291 79.4074 48.5282 79.2961C54.6131 78.6555 63.0853 69.339 68.0056 65.6414C72.926 61.9439 90.4528 58.7413 80.0008 41.5348C79.5527 40.7828 79.0669 40.054 78.545 39.3512L78.4577 39.2056ZM51.8763 64.8262C47.4505 65.6847 42.864 64.9742 38.9054 62.8169C34.9468 60.6596 31.8636 57.1903 30.1861 53.0058C29.5456 50.502 28.2937 37.7499 38.9204 31.4321C46.8395 26.9485 57.9903 26.3371 62.6777 36.7891C67.3651 47.2412 65.6474 61.8857 51.8763 64.8262Z" fill="white"/>
</g>
<defs>
<clipPath id="clip0_342_6153">
<rect width="93.1659" height="93.1659" fill="white" transform="translate(0.197266 0.337891)"/>
</clipPath>
</defs>
</svg>
