<svg width="94" height="94" viewBox="0 0 94 94" fill="none" xmlns="http://www.w3.org/2000/svg">
<g clip-path="url(#clip0_342_6157)">
<path d="M47.2948 93.5047C73.0219 93.5047 93.8778 72.6488 93.8778 46.9218C93.8778 21.1948 73.0219 0.338867 47.2948 0.338867C21.5678 0.338867 0.711914 21.1948 0.711914 46.9218C0.711914 72.6488 21.5678 93.5047 47.2948 93.5047Z" fill="#302C2C"/>
<path d="M79.0582 46.036C78.8985 45.7127 78.6871 45.4177 78.4322 45.1625C72.8947 38.8913 61.6245 26.541 61.6245 26.541L47.309 42.1987L32.8101 26.6895C32.8101 26.6895 21.4089 39.1475 15.8219 45.4857C15.094 46.2019 15.094 47.4946 15.7462 48.2574C18.6489 51.5648 32.9061 67.2865 32.9061 67.2865L47.2886 51.524L61.5721 67.3011L78.7991 48.2428C78.7991 48.2428 79.163 47.8644 79.2416 47.6111C79.4105 47.087 79.2882 46.5164 79.0582 46.036ZM23.7642 47.7799C23.2984 47.2297 23.4556 46.365 23.8894 45.8438C25.712 43.768 33.0051 35.9449 33.0051 35.9449L43.166 46.7318L32.9877 57.8651C32.9877 57.8651 26.7572 51.2154 23.7642 47.7799ZM70.3122 48.1468C70.0977 48.5145 69.8481 48.8606 69.5669 49.1803L61.6769 57.7545L51.4869 46.921L61.5139 35.9304C61.5139 35.9304 67.2902 41.9134 69.9367 45.1305C70.1609 45.41 70.4258 45.675 70.5393 46.0302C70.781 46.726 70.6267 47.5004 70.3093 48.1439" fill="white"/>
</g>
<defs>
<clipPath id="clip0_342_6157">
<rect width="93.1659" height="93.1659" fill="white" transform="translate(0.711426 0.337891)"/>
</clipPath>
</defs>
</svg>
