<svg width="94" height="94" viewBox="0 0 94 94" fill="none" xmlns="http://www.w3.org/2000/svg">
<g clip-path="url(#clip0_342_6161)">
<path d="M46.8085 93.5047C72.5356 93.5047 93.3915 72.6488 93.3915 46.9218C93.3915 21.1948 72.5356 0.338867 46.8085 0.338867C21.0815 0.338867 0.225586 21.1948 0.225586 46.9218C0.225586 72.6488 21.0815 93.5047 46.8085 93.5047Z" fill="#663300"/>
<path d="M34.2544 29.6365L37.8937 20.7188L62.8214 20.809C66.4607 21.0827 70.8278 21.0827 73.2851 24.1775C76.1965 27.5431 75.5589 32.3645 74.1032 36.1843C72.7001 40.2951 70.2649 43.9768 67.0308 46.8765C63.7967 49.7762 59.8721 51.7967 55.6331 52.7445C49.6297 53.6558 43.5331 53.3821 37.4366 53.3821C38.6507 50.4212 39.8647 47.4486 41.0759 44.4644C46.0806 44.4644 51.1756 44.7381 56.2707 43.92C60.9115 42.7379 65.1884 38.0971 64.4605 33.0021C64.0034 30.8185 61.5491 29.817 59.4529 29.817C51.0854 29.453 42.7121 29.817 34.3446 29.6336H34.2544V29.6365Z" fill="white"/>
<path d="M23.5172 32.0898H53.0857L49.1757 42.1896H19.5111L23.5172 32.1801V32.0928V32.0898ZM28.2483 44.4634H38.5286L27.797 71.7581H17.6943L28.3385 44.4634H28.2483Z" fill="white"/>
</g>
<defs>
<clipPath id="clip0_342_6161">
<rect width="93.1659" height="93.1659" fill="white" transform="translate(0.225586 0.337891)"/>
</clipPath>
</defs>
</svg>
