<svg width="94" height="94" viewBox="0 0 94 94" fill="none" xmlns="http://www.w3.org/2000/svg">
<g clip-path="url(#clip0_342_6167)">
<path d="M47.3229 93.5047C73.05 93.5047 93.9059 72.6488 93.9059 46.9218C93.9059 21.1948 73.05 0.338867 47.3229 0.338867C21.5959 0.338867 0.73999 21.1948 0.73999 46.9218C0.73999 72.6488 21.5959 93.5047 47.3229 93.5047Z" fill="#ED79AA"/>
<path opacity="0.5" fill-rule="evenodd" clip-rule="evenodd" d="M69.0187 26.3342L63.5744 31.8165C61.6128 29.8326 59.2768 28.2579 56.7019 27.1839C54.1271 26.1099 51.3645 25.5578 48.5747 25.5598C37.1764 25.5598 27.8744 34.6144 27.3852 45.9689H27.3619V66.7042C22.3984 61.3131 19.6497 54.249 19.6641 46.921C19.6641 30.8411 32.6084 17.8066 48.5747 17.8066C52.3772 17.8039 56.1424 18.5564 59.6519 20.0202C63.1614 21.4841 66.3452 23.6303 69.0187 26.3342ZM69.0187 67.5077C63.7339 72.8546 56.5633 75.9163 49.0463 76.0353V68.2793C54.5169 68.1609 59.7269 65.9192 63.5744 62.0284L69.0187 67.5077Z" fill="white"/>
<path fill-rule="evenodd" clip-rule="evenodd" d="M34.748 72.4955V45.9723H34.7684C35.176 38.388 41.4123 32.3643 49.0461 32.3643C56.9419 32.3643 63.3442 38.8102 63.3442 46.7642C63.3442 54.7153 56.9419 61.1612 49.049 61.1612C46.506 61.1655 44.0088 60.4846 41.8199 59.1902V75.2351C39.3516 74.6408 36.9734 73.7205 34.748 72.4984V72.4955ZM49.0461 54.0428C49.9987 54.0397 50.9415 53.849 51.8204 53.4816C52.6993 53.1141 53.4972 52.577 54.1685 51.9011C54.8398 51.2252 55.3714 50.4237 55.7329 49.5422C56.0944 48.6608 56.2786 47.7169 56.2752 46.7642C56.2752 42.7435 53.0377 39.4856 49.0461 39.4856C48.0937 39.4891 47.1513 39.6801 46.2727 40.0477C45.3941 40.4153 44.5966 40.9524 43.9256 41.6283C43.2545 42.3042 42.7232 43.1056 42.3619 43.9868C42.0006 44.8681 41.8165 45.8118 41.8199 46.7642C41.8199 50.782 45.0545 54.0428 49.0461 54.0428Z" fill="white"/>
</g>
<defs>
<clipPath id="clip0_342_6167">
<rect width="93.1659" height="93.1659" fill="white" transform="translate(0.739502 0.337891)"/>
</clipPath>
</defs>
</svg>
