<svg width="94" height="94" viewBox="0 0 94 94" fill="none" xmlns="http://www.w3.org/2000/svg">
<g clip-path="url(#clip0_342_6173)">
<path d="M46.8354 93.5047C72.5624 93.5047 93.4183 72.6488 93.4183 46.9218C93.4183 21.1948 72.5624 0.338867 46.8354 0.338867C21.1083 0.338867 0.252441 21.1948 0.252441 46.9218C0.252441 72.6488 21.1083 93.5047 46.8354 93.5047Z" fill="#96B73D"/>
<path d="M34.0082 47.2268C34.2586 47.978 34.6284 48.6826 35.1058 49.3172L27.8476 41.9863C27.0913 41.2234 26.667 40.1927 26.667 39.1185C26.667 38.0443 27.0913 37.0136 27.8476 36.2507L37.0041 27.0885C37.1933 26.9487 37.3738 26.7973 37.5485 26.6401L37.8135 26.4072L45.2289 18.9859C45.6018 18.6114 46.0452 18.3144 46.5335 18.112C47.0217 17.9096 47.5452 17.8058 48.0737 17.8066C48.6023 17.8075 49.1254 17.9128 49.613 18.1167C50.1007 18.3206 50.5431 18.619 50.9149 18.9947L75.205 43.4594C75.7586 44.2461 76.0179 45.2025 75.9375 46.161C75.8572 47.1196 75.4422 48.0194 74.7654 48.7029C74.0972 49.3768 73.218 49.8008 72.2747 49.9041C71.3314 50.0075 70.3812 49.7838 69.583 49.2707L48.1258 27.6096L48.1025 27.5805L48.0326 27.5048L36.5528 38.9875L36.3781 39.1331C36.3715 39.1409 36.3647 39.1487 36.3578 39.1563L47.7007 50.5895C48.2001 51.0942 48.5589 51.7207 48.7416 52.4068C48.9242 53.0929 48.9243 53.8149 48.7419 54.501C48.5594 55.1872 48.2008 55.8138 47.7015 56.3186C47.2023 56.8234 46.5797 57.189 45.8956 57.379C45.2118 57.5633 44.4913 57.5631 43.8076 57.3784C43.1238 57.1938 42.5012 56.8314 42.003 56.328L36.1918 50.476C36.1074 50.4003 36.0229 50.3013 35.9181 50.1965L35.6503 49.9287C35.4555 49.7094 35.2737 49.479 35.1058 49.2386L35.2369 49.3929L35.1495 49.2794C34.6618 48.6606 34.2765 47.9676 34.0082 47.2268ZM57.7248 54.718L46.3673 43.2789C45.6109 42.5161 45.1866 41.4854 45.1866 40.4112C45.1866 39.337 45.6109 38.3062 46.3673 37.5434C46.741 37.1685 47.1852 36.8712 47.6743 36.6687C48.1634 36.4662 48.6877 36.3625 49.2171 36.3636C49.7464 36.3647 50.2704 36.4705 50.7586 36.675C51.2469 36.8795 51.6899 37.1786 52.062 37.5551L57.8762 43.407C57.9577 43.4798 58.0421 43.5817 58.1498 43.6836L58.4148 43.9515C58.5662 44.1203 58.7059 44.3008 58.834 44.4843L58.8981 44.5629C58.8163 44.4462 58.7329 44.3307 58.6477 44.2164L66.2465 51.8648C67.0039 52.6282 67.4289 53.66 67.4289 54.7354C67.4289 55.8108 67.0039 56.8427 66.2465 57.6061L57.0843 66.7713C56.8925 66.9083 56.7078 67.055 56.5311 67.2109L48.8915 74.8505C48.5191 75.226 48.076 75.5241 47.5877 75.7275C47.0995 75.9309 46.5759 76.0356 46.047 76.0356C45.5181 76.0356 44.9945 75.9309 44.5063 75.7275C44.0181 75.5241 43.575 75.226 43.2025 74.8505L18.5223 49.9665C17.921 49.1506 17.6432 48.1408 17.7427 47.1321C17.8422 46.1235 18.3118 45.1874 19.0609 44.5047C19.8077 43.8255 20.7823 43.4515 21.7917 43.4569C22.8011 43.4623 23.7717 43.8466 24.5111 44.5338L46.0092 66.2385L46.0819 66.3258L57.5384 54.8723L57.7073 54.7354C57.7131 54.7295 57.7189 54.7237 57.7248 54.718Z" fill="white"/>
</g>
<defs>
<clipPath id="clip0_342_6173">
<rect width="93.1659" height="93.1659" fill="white" transform="translate(0.253418 0.337891)"/>
</clipPath>
</defs>
</svg>
