<svg width="94" height="94" viewBox="0 0 94 94" fill="none" xmlns="http://www.w3.org/2000/svg">
<g clip-path="url(#clip0_342_6177)">
<path d="M47.3505 93.5047C73.0776 93.5047 93.9334 72.6488 93.9334 46.9218C93.9334 21.1948 73.0776 0.338867 47.3505 0.338867C21.6235 0.338867 0.767578 21.1948 0.767578 46.9218C0.767578 72.6488 21.6235 93.5047 47.3505 93.5047Z" fill="#5E4778"/>
<path fill-rule="evenodd" clip-rule="evenodd" d="M31.3376 35.9773H49.2517V39.6311H31.3376V35.9773ZM66.2748 37.695C66.2748 46.3536 60.1317 51.9465 51.6362 51.9465H39.8681V70.2128H35.2099V47.8152H51.0044C57.3367 47.8152 61.471 44.0536 61.471 37.695C61.471 31.4121 57.3368 27.7583 51.0772 27.7583H46.1627L34.3917 27.7961V23.6299H51.5983C60.1288 23.6299 66.2719 29.0364 66.2719 37.695H66.2748Z" fill="white" stroke="white" stroke-width="0.423481"/>
</g>
<defs>
<clipPath id="clip0_342_6177">
<rect width="93.1659" height="93.1659" fill="white" transform="translate(0.767578 0.337891)"/>
</clipPath>
</defs>
</svg>
