<svg width="94" height="94" viewBox="0 0 94 94" fill="none" xmlns="http://www.w3.org/2000/svg">
<g clip-path="url(#clip0_342_6181)">
<path d="M46.8649 93.5047C72.592 93.5047 93.4479 72.6488 93.4479 46.9218C93.4479 21.1948 72.592 0.338867 46.8649 0.338867C21.1379 0.338867 0.281982 21.1948 0.281982 46.9218C0.281982 72.6488 21.1379 93.5047 46.8649 93.5047Z" fill="#00BFFF"/>
<path d="M24.767 61.1935H24.4817V73.1246H17.7505V32.7284H24.3303V34.5917H24.5894C26.8866 32.3907 29.8126 32.3295 31.4546 32.3295C38.3372 32.3295 42.85 38.889 42.85 47.6495V48.785C42.85 57.9007 37.6268 63.3334 31.3381 63.3334C28.3947 63.3421 26.214 62.6696 24.767 61.1935ZM36.5991 49.3265V47.338C36.5991 41.6316 34.4243 37.8147 30.5491 37.8147C26.3625 37.8147 24.1178 42.2517 24.1178 47.338V49.3178C24.1178 54.1653 26.3276 57.8774 30.6656 57.8774C34.0807 57.8657 36.5991 55.2047 36.5991 49.3265ZM46.1078 20.7188H52.8478V63.1558H46.1078V20.7188ZM72.104 39.3781C68.325 39.3781 64.5722 42.3769 64.5722 46.1676V63.182H57.87V33.0137H64.0801V34.8683H64.3334C65.8415 33.2787 69.5303 32.5333 72.564 32.577C72.8668 32.577 72.6164 32.5858 72.9105 32.5858L72.9454 39.3781H72.104ZM69.2741 55.9325H75.9792V63.1558H69.2741V55.9325Z" fill="white"/>
</g>
<defs>
<clipPath id="clip0_342_6181">
<rect width="93.1659" height="93.1659" fill="white" transform="translate(0.281494 0.337891)"/>
</clipPath>
</defs>
</svg>
