<svg width="94" height="95" viewBox="0 0 94 95" fill="none" xmlns="http://www.w3.org/2000/svg">
<g clip-path="url(#clip0_342_6185)">
<path d="M47.0414 94.0184C72.7685 94.0184 93.6244 73.1625 93.6244 47.4355C93.6244 21.7084 72.7685 0.852539 47.0414 0.852539C21.3144 0.852539 0.458496 21.7084 0.458496 47.4355C0.458496 73.1625 21.3144 94.0184 47.0414 94.0184Z" fill="#444FA1"/>
<path d="M15.0156 70.7264L47.0414 15.4092L79.0672 70.7264H15.0156ZM35.023 42.5554C38.7642 40.0574 42.7761 38.7967 47.0414 38.7967C51.3066 38.7967 55.3186 40.0574 59.0598 42.5554L47.0414 21.7969L35.023 42.5554ZM29.3428 52.3669L20.6172 67.4394H73.4656L64.74 52.3698C59.4703 58.1607 53.5514 61.1012 47.0414 61.1012C40.5314 61.1012 34.6096 58.1607 29.3399 52.3669H29.3428ZM47.0414 57.8142C52.6838 57.8142 57.8457 55.223 62.5826 49.9533C57.8457 44.6749 52.6838 42.0866 47.0414 42.0866C41.399 42.0866 36.2371 44.6778 31.5002 49.9504C36.2371 55.2259 41.399 57.8171 47.0414 57.8171V57.8142ZM47.0414 56.408C43.6641 56.408 40.9245 53.5693 40.9245 50.0669C40.9245 46.5673 43.6612 43.7287 47.0414 43.7287C50.4216 43.7287 53.1583 46.5673 53.1583 50.0669C53.1583 53.5693 50.4216 56.408 47.0414 56.408ZM47.0414 53.1181C48.6689 53.1181 49.9878 51.7526 49.9878 50.0669C49.9878 48.3812 48.6689 47.0157 47.0414 47.0157C45.4139 47.0157 44.095 48.3841 44.095 50.0669C44.095 51.7555 45.4139 53.121 47.0414 53.121V53.1181Z" fill="white"/>
</g>
<defs>
<clipPath id="clip0_342_6185">
<rect width="93.1659" height="93.1659" fill="white" transform="translate(0.459473 0.852539)"/>
</clipPath>
</defs>
</svg>
