<svg width="95" height="95" viewBox="0 0 95 95" fill="none" xmlns="http://www.w3.org/2000/svg">
<g clip-path="url(#clip0_342_6189)">
<path d="M47.5566 94.0184C73.2836 94.0184 94.1395 73.1625 94.1395 47.4355C94.1395 21.7084 73.2836 0.852539 47.5566 0.852539C21.8295 0.852539 0.973633 21.7084 0.973633 47.4355C0.973633 73.1625 21.8295 94.0184 47.5566 94.0184Z" fill="#DCD6CC"/>
<path d="M73.055 23.3633C70.7148 21.0577 67.5593 19.7687 64.2742 19.7764C60.9406 19.7764 57.837 21.0574 55.4933 23.3633L26.7982 51.6217C26.6535 51.7669 26.5411 51.941 26.4683 52.1327C26.3956 52.3243 26.3641 52.5292 26.376 52.7338V67.2794L18.4424 75.0936H22.8183L28.6935 69.3086H43.3788C43.5849 69.3107 43.7892 69.2698 43.9787 69.1886C44.1682 69.1074 44.3387 68.9877 44.4793 68.837L73.0288 40.7183L73.058 40.6892C74.2003 39.5638 75.1079 38.2228 75.7281 36.7439C76.3483 35.2651 76.6688 33.6779 76.671 32.0743C76.679 30.4555 76.3631 28.8515 75.7422 27.3565C75.1212 25.8616 74.2076 24.5059 73.055 23.3691V23.3633ZM56.3667 26.6474L57.5808 25.4537C59.364 23.6963 61.7705 22.7166 64.2742 22.7286C66.7867 22.7286 69.1595 23.701 70.9676 25.4537C70.9967 25.4828 71.0258 25.5352 71.0811 25.5643C72.8018 27.317 73.7334 29.5967 73.7334 32.0452C73.7334 34.5199 72.7435 36.8549 70.9676 38.6367L69.7244 39.8595H58.626L65.9133 32.6828C66.1919 32.4108 66.3535 32.0409 66.3638 31.6517C66.3742 31.2625 66.2324 30.8846 65.9686 30.5982C65.9395 30.5691 65.9395 30.54 65.9104 30.5138C65.6182 30.2337 65.2292 30.0773 64.8244 30.0773C64.4197 30.0773 64.0306 30.2337 63.7385 30.5138L56.3958 37.7458V26.6445L56.3667 26.6474ZM31.6894 66.3622L37.6753 60.4637H48.7737L42.7878 66.3622H31.6894ZM49.1114 49.1731L56.2008 42.1915H67.2991L60.2098 49.1731H49.1114ZM57.7817 51.5663L51.1727 58.0734H40.0743L46.6833 51.5663H57.7817ZM46.8551 36.0193L53.9706 29.0086V40.0778L46.8551 47.1148V36.0193ZM37.818 44.9166L44.4269 38.4096V49.4788L37.818 55.9859V44.9166ZM29.3457 53.2608L35.416 47.3098V58.3791L29.3457 64.3301V53.2608Z" fill="white"/>
</g>
<defs>
<clipPath id="clip0_342_6189">
<rect width="93.1659" height="93.1659" fill="white" transform="translate(0.973633 0.852539)"/>
</clipPath>
</defs>
</svg>
