<svg width="94" height="95" viewBox="0 0 94 95" fill="none" xmlns="http://www.w3.org/2000/svg">
<g clip-path="url(#clip0_342_6193)">
<path d="M47.0717 94.0184C72.7988 94.0184 93.6546 73.1625 93.6546 47.4355C93.6546 21.7084 72.7988 0.852539 47.0717 0.852539C21.3447 0.852539 0.48877 21.7084 0.48877 47.4355C0.48877 73.1625 21.3447 94.0184 47.0717 94.0184Z" fill="#2C3E50"/>
<path d="M75.1259 66.8834V63.972C75.1259 63.3955 74.7387 63.0112 74.1506 63.0112H72.2145V60.0881C72.2145 59.5088 71.8273 59.1157 71.2508 59.1157H69.3118V37.7312H71.2392C71.8186 37.7312 72.2145 37.3469 72.2145 36.7588V33.8474H74.1506C74.3787 33.857 74.6024 33.783 74.7799 33.6393C74.9573 33.4957 75.0762 33.2922 75.1143 33.0671C75.2133 32.5838 75.0182 32.1995 74.6339 31.9957L47.5052 18.3935C47.224 18.2972 46.9188 18.2972 46.6376 18.3935L18.5364 31.9957C18.3519 32.0962 18.205 32.2538 18.1179 32.4449C18.0307 32.636 18.008 32.8503 18.0531 33.0555C18.0531 33.5504 18.4403 33.8474 18.9207 33.8474H21.8321V36.7588C21.8321 37.3353 22.2194 37.7196 22.7958 37.7196H24.7348V59.1157H22.8075C22.2252 59.1157 21.8321 59.5 21.8321 60.0765V62.9996H19.896C19.3138 62.9996 18.9295 63.3839 18.9295 63.9632V66.8834C18.353 66.8834 17.957 67.2706 17.957 67.8587C17.957 68.4469 18.3413 68.8312 18.9207 68.8312H75.1259C75.7024 68.8312 76.0984 68.4469 76.0984 67.8704C76.0984 67.2881 75.714 66.8834 75.1376 66.8834H75.1259ZM23.7595 35.7835V33.8474H70.2668V35.7835H23.7595ZM63.4802 37.7341V59.1157H59.6138V37.7312H63.4802V37.7341ZM53.791 37.7341V59.1157H49.9158V37.7312H53.788L53.791 37.7341ZM44.1017 37.7341V59.1157H40.2353V37.7312H44.1017V37.7341ZM34.4125 37.7341V59.1157H30.549V37.7312H34.4125V37.7341ZM70.2668 62.9996H23.7712V61.0518H70.2755V62.9996H70.2668Z" fill="white"/>
</g>
<defs>
<clipPath id="clip0_342_6193">
<rect width="93.1659" height="93.1659" fill="white" transform="translate(0.487793 0.852539)"/>
</clipPath>
</defs>
</svg>
