<svg width="94" height="95" viewBox="0 0 94 95" fill="none" xmlns="http://www.w3.org/2000/svg">
<g clip-path="url(#clip0_342_6197)">
<path d="M46.5834 94.0184C72.3105 94.0184 93.1664 73.1625 93.1664 47.4355C93.1664 21.7084 72.3105 0.852539 46.5834 0.852539C20.8564 0.852539 0.000488281 21.7084 0.000488281 47.4355C0.000488281 73.1625 20.8564 94.0184 46.5834 94.0184Z" fill="#4C5A95"/>
<path d="M78.6092 33.6439L78.481 31.5856L77.8464 33.312L74.2769 36.3108L70.1893 36.9193L68.9665 35.7868L72.5505 31.0324L76.2189 29.9668L72.2477 30.0483L66.4743 34.0719L61.0619 33.6993L53.4631 29.9668L48.9737 30.8373L34.9668 42.0347L28.2181 44.1222L25.4406 46.8327L20.4736 46.8997L18.0135 51.296L14.5576 52.2509L17.8242 52.6789L20.8609 48.7397L25.5541 49.6801L25.4668 53.8959L23.1231 59.9633L21.7838 65.5765L20.3426 67.8154L23.9994 67.041L23.5831 64.7468L26.6925 58.5804L32.6784 56.26L34.9959 52.5683L38.9118 49.8315L46.6853 50.9233L54.5141 47.6188L53.1894 52.8448L49.7074 53.1476L48.7146 57.4333L51.6929 55.5263L56.6307 53.4679L60.4884 47.6479L60.733 44.8966L62.8059 46.955L68.8355 50.5914L72.2622 49.028L72.0613 41.3447L71.0656 38.3721L75.5434 37.2803L78.6092 33.6439Z" fill="white"/>
</g>
<defs>
<clipPath id="clip0_342_6197">
<rect width="93.1659" height="93.1659" fill="white" transform="translate(0.00146484 0.852539)"/>
</clipPath>
</defs>
</svg>
