<svg width="94" height="95" viewBox="0 0 94 95" fill="none" xmlns="http://www.w3.org/2000/svg">
<g clip-path="url(#clip0_342_6201)">
<path d="M47.0986 94.0184C72.8256 94.0184 93.6815 73.1625 93.6815 47.4355C93.6815 21.7084 72.8256 0.852539 47.0986 0.852539C21.3715 0.852539 0.515625 21.7084 0.515625 47.4355C0.515625 73.1625 21.3715 94.0184 47.0986 94.0184Z" fill="#105B2F"/>
<path fill-rule="evenodd" clip-rule="evenodd" d="M35.5489 53.7824L34.4135 59.5674L32.3464 70.197C32.2881 70.5173 32.2066 70.7327 31.799 70.7269C29.2311 70.6891 26.6632 70.6687 24.0954 70.6396C24.0342 70.6396 23.9702 70.5988 23.8071 70.5377L29.6009 41.598H24.7184C24.7301 41.3826 24.7242 41.2545 24.7475 41.1322C25.0474 39.5688 25.3706 38.0082 25.6413 36.439C25.717 36.0022 25.9121 35.8916 26.3197 35.8945C27.5134 35.9062 28.7071 35.8625 29.8949 35.9033C30.4627 35.9207 30.681 35.7577 30.7917 35.1987C31.4555 31.7399 32.1659 28.2928 32.8471 24.8398C32.9286 24.4293 33.0189 24.1469 33.5546 24.1469C39.4008 24.1644 45.2498 24.109 51.096 24.1847C54.5082 24.2284 57.9291 24.4031 61.286 25.0931C62.4418 25.3318 63.6152 25.6405 64.6866 26.1179C67.7669 27.4863 69.6214 29.8562 70.1368 33.1374C70.9374 38.2353 69.8573 42.9198 66.5848 47.0016C64.1683 50.0062 60.8551 51.692 57.1547 52.7168C54.22 53.5291 51.2095 53.7824 48.1758 53.7882C44.2308 53.7969 40.2858 53.7882 36.3408 53.7853H35.5489V53.7824ZM37.1648 45.8109H37.9887C42.1608 45.8109 46.3329 45.8196 50.5079 45.805C51.3959 45.805 52.2955 45.7672 53.1777 45.6595C56.5462 45.2577 59.1053 43.6418 60.7416 40.71C61.4436 39.4386 61.6795 37.9619 61.4083 36.535C61.0647 34.5058 59.8536 33.1811 57.7952 32.8084C56.2882 32.5212 54.7606 32.3557 53.2272 32.3135C48.9415 32.2349 44.6559 32.2669 40.3674 32.2552C40.2131 32.2552 40.0587 32.2785 39.852 32.296L39.1416 35.9295H51.0494L49.9547 41.5718H38.0091L37.1648 45.8109Z" fill="white"/>
</g>
<defs>
<clipPath id="clip0_342_6201">
<rect width="93.1659" height="93.1659" fill="white" transform="translate(0.515625 0.852539)"/>
</clipPath>
</defs>
</svg>
