<svg width="94" height="95" viewBox="0 0 94 95" fill="none" xmlns="http://www.w3.org/2000/svg">
<g clip-path="url(#clip0_342_6205)">
<path d="M46.6137 94.0184C72.3407 94.0184 93.1966 73.1625 93.1966 47.4355C93.1966 21.7084 72.3407 0.852539 46.6137 0.852539C20.8867 0.852539 0.0307617 21.7084 0.0307617 47.4355C0.0307617 73.1625 20.8867 94.0184 46.6137 94.0184Z" fill="#05BCA9"/>
<path fill-rule="evenodd" clip-rule="evenodd" d="M81.5367 47.3016C81.566 47.4347 81.5491 47.5739 81.4888 47.6962C81.4285 47.8184 81.3283 47.9165 81.2048 47.9741L80.9835 48.079L74.2697 54.8102L76.8725 64.5489C76.9135 64.7022 76.8921 64.8654 76.813 65.003C76.7338 65.1405 76.6035 65.241 76.4504 65.2826L67.1076 67.7894L64.531 77.4262C64.4906 77.579 64.3913 77.7095 64.2549 77.7892C64.1185 77.8689 63.956 77.8912 63.8031 77.8513L53.9333 75.2019L46.9517 82.198C46.8965 82.2539 46.8308 82.2982 46.7583 82.3284C46.6858 82.3586 46.6081 82.3742 46.5296 82.3742C46.4511 82.3742 46.3733 82.3586 46.3009 82.3284C46.2284 82.2982 46.1626 82.2539 46.1074 82.198L39.2102 75.2834L29.6549 77.8513C29.5794 77.8715 29.5006 77.8766 29.4231 77.8663C29.3456 77.856 29.271 77.8305 29.2033 77.7913C29.1357 77.7521 29.0765 77.6999 29.0291 77.6378C28.9817 77.5756 28.947 77.5047 28.927 77.4291L26.3475 67.7923L17.0076 65.2826C16.9316 65.2624 16.8604 65.2273 16.798 65.1794C16.7356 65.1315 16.6832 65.0717 16.644 65.0036C16.6048 64.9354 16.5794 64.8601 16.5694 64.7821C16.5593 64.7041 16.5648 64.6248 16.5855 64.5489L19.1039 55.1246L11.8544 47.8548C11.7431 47.7425 11.6807 47.5907 11.6807 47.4326C11.6807 47.2745 11.7431 47.1228 11.8544 47.0105L18.903 39.9386L16.3846 30.5172C16.3437 30.3635 16.3655 30.1999 16.4452 30.0623C16.525 29.9248 16.656 29.8245 16.8097 29.7835L26.5775 27.1574L29.1221 17.637C29.1631 17.4834 29.2634 17.3523 29.401 17.2726C29.5385 17.1929 29.7021 17.1711 29.8558 17.2119L39.0967 19.6954L46.1074 12.6672C46.2212 12.5586 46.3723 12.498 46.5296 12.498C46.6868 12.498 46.838 12.5586 46.9517 12.6672L54.0469 19.7769L63.6022 17.209C63.6781 17.1888 63.7573 17.1838 63.8351 17.1942C63.9129 17.2047 63.9879 17.2304 64.0558 17.2699C64.1237 17.3094 64.1832 17.3619 64.2307 17.4244C64.2783 17.4869 64.313 17.5581 64.333 17.6341L64.4 17.8845C64.4146 17.9221 64.4253 17.9611 64.432 18.0009L66.8776 27.1545L76.6484 29.7806C76.9686 29.8679 77.1549 30.194 77.0705 30.5143L74.4677 40.2501L81.0388 46.8387C81.1586 46.8558 81.2704 46.909 81.3594 46.9911C81.4483 47.0733 81.5101 47.1806 81.5367 47.2987V47.3016ZM73.9116 53.4738L77.8304 49.5492L73.4137 51.6076L73.9116 53.4768V53.4738ZM75.3411 63.4513L73.2944 55.7884L69.2271 59.8644V59.8673L75.3411 63.4513ZM68.9069 61.0639L67.4657 66.4559L74.7588 64.4965L68.9069 61.0669V61.0639ZM63.6721 76.0171L65.7771 68.1475L60.0299 69.6905L63.6721 76.0171ZM56.3819 72.7417L54.9058 74.2236L60.6966 75.7783L56.3819 72.7417ZM47.1264 80.3289L52.5999 74.8409L47.1264 73.3706V80.3289ZM45.9327 73.4783L40.5437 74.9253L45.9298 80.3289V73.4783H45.9327ZM30.8253 76.2966L38.2378 74.3081L34.2666 70.3252L30.8253 76.2966ZM27.681 68.1475L29.3259 74.3022L29.8209 68.7239L27.681 68.1475ZM18.6846 64.4936L25.9923 66.4559L24.5366 61.0203L18.6846 64.4936ZM23.9456 59.9809L20.0792 56.1029L18.1169 63.4397L23.9456 59.9809ZM13.8138 48.1314L19.462 53.7912L20.973 48.1314H13.8138ZM19.8696 43.5458L19.2611 41.2749L14.5038 46.0439L19.8696 43.5458ZM17.9131 31.6032L19.8783 38.9603L23.8087 35.0212L17.9131 31.6032ZM24.72 34.107L26.2223 28.4937L18.507 30.5667L24.6822 34.1448L24.72 34.107ZM29.8791 19.4334L27.911 26.7993L33.2884 25.3552L29.8791 19.4363V19.4334ZM36.6977 22.1002L38.1214 20.6736L32.543 19.1742L36.6977 22.1002ZM45.9327 14.5363L40.4301 20.0535L45.9327 21.5325V14.5363ZM47.1264 21.6402L52.7164 20.1379L47.1264 14.5363V21.6402ZM62.8365 18.6589L55.0222 20.7551L59.2089 24.9563L62.8365 18.6589ZM63.7187 26.3102L65.5471 26.7993L64.1408 21.5383L63.7187 26.3102ZM74.9277 30.5609L67.2357 28.4937L68.7205 34.0604L74.9248 30.5579L74.9277 30.5609ZM69.3232 35.094L73.4924 39.2719L75.5507 31.577L69.3232 35.094ZM79.3443 46.8299L74.1125 41.5865L72.7092 46.8299H79.3443ZM72.4559 48.0265L73.0964 50.4285L78.2526 48.0265H72.4588H72.4559ZM71.5533 51.1476L71.9988 50.9438L71.8037 50.2159L71.5563 51.1476H71.5533ZM71.1516 52.6557L69.8414 57.5499L72.9363 54.4492L72.3132 52.1142L71.1516 52.6557ZM67.5385 61.556L60.8917 68.2173L66.1323 66.8111L67.5385 61.556ZM59.1914 68.2319L68.1557 59.2443L69.7395 53.3137L54.6496 60.3448L59.1914 68.2319ZM58.9352 70.1826L57.2407 71.8799L61.736 75.0446L58.9352 70.1826ZM55.7588 70.8376L56.2479 71.1812L56.8972 70.529L55.7588 70.8376ZM54.2536 71.2394L49.0363 72.6427L53.5752 73.8626L55.392 72.0401L54.2565 71.2394H54.2536ZM44.4217 72.6427L36.0164 70.3834L39.5683 73.947L44.4217 72.6427ZM31.1543 67.2042L31.0961 67.8243L32.019 68.0718L31.1543 67.2042ZM30.0509 66.0978L26.0651 62.1092L27.3228 66.8169L29.9286 67.5157L30.0509 66.1036V66.0978ZM23.7593 58.1001L21.6514 50.2159L20.4344 54.7665L23.7593 58.1001ZM20.775 46.9348L20.1811 44.7192L15.4267 46.9318H20.775V46.9348ZM22.1259 43.8108L21.2816 44.2067L21.6514 45.5926L22.1259 43.8108ZM22.5306 42.3056L24.1028 36.4187L20.2364 40.2967L20.9672 43.0334L22.5306 42.3056ZM26.4087 32.4125L31.821 26.9885L27.5529 28.1356L26.4087 32.4154V32.4125ZM34.2229 24.5808L35.8417 22.9591L31.5444 19.9341L34.2229 24.5808ZM37.6002 24.1965L36.8345 23.6578L35.8155 24.6768L37.6002 24.1965ZM39.1054 23.7918L44.4217 22.3652L39.4548 21.0317L37.6905 22.7961L39.1054 23.7918ZM49.0334 22.3652L57.0981 24.5313L53.6917 21.1162L49.0334 22.3652ZM62.359 28.1123L62.4406 27.204L61.0926 26.843L62.359 28.1123ZM63.4596 29.2187L67.192 32.9599L65.9023 28.1356L63.611 27.5184L63.4596 29.2187ZM69.4979 36.9631L71.8037 45.5926L73.1372 40.6111L69.4979 36.966V36.9631ZM52.6873 56.9384L54.0498 59.3054L70.1442 51.8085L71.1545 48.0295H61.7942L61.3197 53.369C61.3083 53.4945 61.2576 53.6131 61.1748 53.708C61.0919 53.8029 60.9812 53.8691 60.8584 53.8972C60.7356 53.9254 60.6071 53.9139 60.4912 53.8645C60.3754 53.8151 60.2781 53.7304 60.2133 53.6223L57.3077 48.702L52.6873 56.9384ZM50.4047 61.0057L52.9638 59.812L52.006 58.1525L50.4047 61.0057ZM40.2554 59.9285L54.4836 69.9438L58.219 68.9394L53.5607 60.8543L49.2285 62.8749C49.1134 62.9292 48.9841 62.9453 48.8592 62.9209C48.7343 62.8966 48.6205 62.8329 48.5344 62.7393C48.4483 62.6457 48.3943 62.527 48.3804 62.4005C48.3664 62.2741 48.3933 62.1465 48.4569 62.0364L51.1733 57.1946L41.7694 57.2995L40.2554 59.9256V59.9285ZM39.6557 60.9679L35.0847 68.8986L46.7305 72.0255L52.9784 70.3456L39.6557 60.9679ZM40.3806 57.314L36.6045 57.3577L39.2743 59.2356L40.3806 57.314ZM32.84 48.1314L31.2911 65.6524L34.0104 68.3746L38.6745 60.2749L34.4005 57.2703C34.2974 57.1972 34.22 57.0933 34.1795 56.9735C34.1389 56.8538 34.1372 56.7243 34.1747 56.6035C34.2122 56.4827 34.2868 56.3769 34.388 56.3011C34.4893 56.2253 34.6118 56.1834 34.7383 56.1815L40.5146 56.1145L35.798 48.1314H32.8429H32.84ZM31.6463 48.1314H22.3297L25.445 59.7916L30.1906 64.546L31.6463 48.1314ZM35.0876 46.9348L33.2272 43.7846L32.9477 46.9348H35.0876ZM39.3092 35.8073L23.5409 43.1557L22.5306 46.9348H31.7511L32.2024 41.8281C32.2155 41.7037 32.2671 41.5865 32.35 41.4929C32.433 41.3993 32.5431 41.3339 32.665 41.306C32.787 41.2781 32.9146 41.289 33.03 41.3372C33.1454 41.3854 33.2429 41.4685 33.3088 41.5748L36.2289 46.5155L40.7911 38.3839L39.3063 35.8073H39.3092ZM38.7095 34.7679L33.9638 26.5314L25.7914 34.7271L23.9427 41.6476L38.7095 34.7679ZM53.287 35.2395L38.8754 25.0932L35.1022 26.1093L39.7954 34.2613L44.4537 32.0894C44.5688 32.035 44.6981 32.0189 44.823 32.0433C44.9479 32.0677 45.0617 32.1313 45.1478 32.2249C45.2339 32.3185 45.2879 32.4372 45.3018 32.5637C45.3158 32.6901 45.2889 32.8177 45.2253 32.9279L42.5002 37.7841L51.8808 37.6793L53.287 35.2395ZM53.8868 34.1972L58.5189 26.1529L46.7276 22.9853L40.3806 24.6914L53.8868 34.1972ZM53.2695 37.6618L56.6759 37.6269L54.2682 35.9295L53.2695 37.6648V37.6618ZM60.5947 48.0295H58.2947L60.2948 51.4125L60.5947 48.0295ZM41.4724 37.1698L43.2775 33.9585L40.3952 35.3007L41.4724 37.1727V37.1698ZM51.8459 55.9981L56.6031 47.5141L51.5227 38.9138L51.5081 38.8817L41.8218 38.9895L36.9306 47.7063L41.8946 56.1L51.7876 55.9893C51.808 55.9893 51.8255 55.9951 51.8459 55.9981ZM63.3227 30.7734L61.899 46.8329H70.9012L67.8092 35.2745L63.3227 30.7734ZM60.7024 46.8329L62.2222 29.667L59.4651 26.9041L54.865 34.8872L58.8828 37.7113C58.9872 37.7841 59.0657 37.8881 59.1071 38.0084C59.1484 38.1287 59.1504 38.2591 59.1128 38.3806C59.0752 38.5022 59 38.6086 58.8979 38.6846C58.7958 38.7605 58.6723 38.802 58.5451 38.8031L52.8823 38.8643L57.5901 46.8329H60.6995H60.7024ZM62.5454 25.9957L63.0112 20.7464L60.3327 25.3989L62.5454 25.9957ZM30.9913 69.0384L30.5109 74.4478L33.2767 69.6498L30.9913 69.0384Z" fill="white"/>
</g>
<defs>
<clipPath id="clip0_342_6205">
<rect width="93.1659" height="93.1659" fill="white" transform="translate(0.0297852 0.852539)"/>
</clipPath>
</defs>
</svg>
