<svg width="94" height="95" viewBox="0 0 94 95" fill="none" xmlns="http://www.w3.org/2000/svg">
<g clip-path="url(#clip0_342_6209)">
<path d="M47.1254 94.0184C72.8525 94.0184 93.7084 73.1625 93.7084 47.4355C93.7084 21.7084 72.8525 0.852539 47.1254 0.852539C21.3984 0.852539 0.54248 21.7084 0.54248 47.4355C0.54248 73.1625 21.3984 94.0184 47.1254 94.0184Z" fill="#3CB054"/>
<path fill-rule="evenodd" clip-rule="evenodd" d="M26.7456 22.6885C61.9536 23.9899 75.5296 45.124 68.7139 63.9813C66.7836 69.2307 64.7311 72.1042 60.4163 75.0943C60.591 74.3373 60.7715 73.5803 60.9113 72.803C63.4617 58.0915 58.6258 40.3871 34.9646 30.6076C53.7899 41.8108 61.3858 61.7454 52.6079 74.6139C37.6635 76.9634 26.7456 64.2026 26.7456 49.4999V22.6885Z" fill="white"/>
</g>
<defs>
<clipPath id="clip0_342_6209">
<rect width="93.1659" height="93.1659" fill="white" transform="translate(0.543457 0.852539)"/>
</clipPath>
</defs>
</svg>
