<svg width="94" height="95" viewBox="0 0 94 95" fill="none" xmlns="http://www.w3.org/2000/svg">
<g clip-path="url(#clip0_342_6213)">
<path d="M46.6406 94.0184C72.3676 94.0184 93.2235 73.1625 93.2235 47.4355C93.2235 21.7084 72.3676 0.852539 46.6406 0.852539C20.9135 0.852539 0.0576172 21.7084 0.0576172 47.4355C0.0576172 73.1625 20.9135 94.0184 46.6406 94.0184Z" fill="#348F8D"/>
<path d="M67.9288 21.3599C68.6244 22.0816 69.0131 23.0448 69.0131 24.0471C69.0131 25.0495 68.6244 26.0127 67.9288 26.7344L58.816 36.0772C58.5265 36.373 58.1901 36.619 57.8203 36.805C57.1514 37.1825 56.3761 37.3269 55.6161 37.2157C54.8562 37.1045 54.1547 36.744 53.622 36.1907L44.5442 26.8916L27.061 44.8231L31.2826 49.1408C31.8884 49.7777 32.2245 50.6241 32.2207 51.5032C32.2169 52.3822 31.8735 53.2257 31.2622 53.8573C30.9639 54.1659 30.6068 54.4116 30.212 54.5801C29.8173 54.7486 29.3928 54.8363 28.9636 54.8382C28.5344 54.8401 28.1091 54.7561 27.7129 54.5912C27.3166 54.4262 26.9574 54.1836 26.6563 53.8777L19.9426 47.0271C19.3264 46.3897 18.9819 45.5379 18.9819 44.6514C18.9819 43.7648 19.3264 42.913 19.9426 42.2756L19.9891 42.232C20.0035 42.2181 20.0171 42.2035 20.0299 42.1883L42.2267 19.4209H42.2296L42.2325 19.418L42.3053 19.3423C42.8593 18.7666 43.6013 18.4086 44.3967 18.3332C45.1921 18.2579 45.9882 18.4703 46.6404 18.9318C46.85 19.0744 47.048 19.2345 47.2227 19.418L55.9104 28.3066L62.6853 21.3599C63.0259 21.0086 63.4337 20.7293 63.8843 20.5386C64.3349 20.3478 64.8192 20.2496 65.3085 20.2496C65.7978 20.2496 66.2822 20.3478 66.7328 20.5386C67.1834 20.7293 67.5911 21.0086 67.9317 21.3599H67.9288ZM73.3383 47.8598C73.9566 48.4929 74.303 49.3426 74.3036 50.2276C74.3041 51.1126 73.9588 51.9628 73.3412 52.5967L73.2946 52.6403C73.2793 52.6541 73.2647 52.6687 73.2509 52.684L50.9668 75.53C50.6281 75.8811 50.2167 76.1538 49.7614 76.3289C49.3061 76.504 48.818 76.5774 48.3314 76.5438C47.8447 76.5102 47.3713 76.3706 46.9444 76.1346C46.5175 75.8986 46.1474 75.572 45.8601 75.1777L37.3675 66.49L30.6333 73.4134C29.6959 74.38 28.3275 74.7614 27.0435 74.4091C25.7596 74.0568 24.7552 73.032 24.4116 71.716C24.071 70.403 24.4407 68.9997 25.3869 68.0418L34.4968 58.7019C35.0151 58.1604 35.6818 57.7936 36.4096 57.648C37.5858 57.386 38.8145 57.7528 39.6675 58.6262L48.7687 67.937L66.2198 50.0492L61.9982 45.7315C61.3924 45.0946 61.0563 44.2481 61.0601 43.3691C61.0639 42.4901 61.4073 41.6466 62.0186 41.015C62.3169 40.7064 62.674 40.4607 63.0688 40.2922C63.4636 40.1237 63.888 40.036 64.3172 40.0341C64.7465 40.0322 65.1717 40.1162 65.568 40.2811C65.9642 40.4461 66.3234 40.6887 66.6245 40.9946L73.2422 47.7637L73.248 47.7695L73.2567 47.7753L73.3383 47.8598Z" fill="white"/>
</g>
<defs>
<clipPath id="clip0_342_6213">
<rect width="93.1659" height="93.1659" fill="white" transform="translate(0.0576172 0.852539)"/>
</clipPath>
</defs>
</svg>
