<svg width="94" height="95" viewBox="0 0 94 95" fill="none" xmlns="http://www.w3.org/2000/svg">
<g clip-path="url(#clip0_342_6217)">
<path d="M47.1557 94.0184C72.8827 94.0184 93.7386 73.1625 93.7386 47.4355C93.7386 21.7084 72.8827 0.852539 47.1557 0.852539C21.4286 0.852539 0.572754 21.7084 0.572754 47.4355C0.572754 73.1625 21.4286 94.0184 47.1557 94.0184Z" fill="#152743"/>
<path d="M47.2985 25.0642C43.467 25.0642 40.3605 22.9301 40.3605 20.2953C40.3605 17.6604 43.467 15.5264 47.2985 15.5264C51.1299 15.5264 54.2335 17.6604 54.2335 20.2953C54.2335 22.9301 51.1299 25.0642 47.2985 25.0642ZM43.7087 78.2969V27.3584H59.1742C59.7478 27.3584 60.1525 27.7864 60.1525 28.36V56.6242C60.1525 57.1948 59.7449 57.6839 59.1742 57.6839H50.6495V78.2969C50.6495 78.8704 50.2128 79.3916 49.6393 79.3916H44.783C44.4986 79.3805 44.2291 79.2614 44.0295 79.0586C43.8299 78.8557 43.7151 78.5843 43.7087 78.2998V78.2969ZM41.1 57.681H35.2481C34.9651 57.6782 34.6941 57.5665 34.4914 57.3692C34.2886 57.1719 34.1696 56.904 34.1592 56.6213V28.36C34.1592 27.7864 34.6745 27.3584 35.2451 27.3584H41.1V57.6839V57.681Z" fill="white"/>
</g>
<defs>
<clipPath id="clip0_342_6217">
<rect width="93.1659" height="93.1659" fill="white" transform="translate(0.571777 0.852539)"/>
</clipPath>
</defs>
</svg>
