<svg width="94" height="95" viewBox="0 0 94 95" fill="none" xmlns="http://www.w3.org/2000/svg">
<g clip-path="url(#clip0_342_6221)">
<path d="M46.6674 94.0184C72.3945 94.0184 93.2503 73.1625 93.2503 47.4355C93.2503 21.7084 72.3945 0.852539 46.6674 0.852539C20.9404 0.852539 0.0844727 21.7084 0.0844727 47.4355C0.0844727 73.1625 20.9404 94.0184 46.6674 94.0184Z" fill="#3A8CBD"/>
<path d="M39.3022 53.3899H44.1876C45.5835 53.3944 46.9629 53.0881 48.2257 52.4932C49.4194 51.9022 50.485 51.0841 51.3613 50.0825C52.2319 49.0461 52.9044 47.8611 53.3528 46.5859C53.8357 45.2936 54.0804 43.9244 54.0748 42.5448C54.0825 41.1986 53.815 39.8651 53.2887 38.626C52.7837 37.3707 52.0712 36.2094 51.1808 35.1905C50.2836 34.17 49.1982 33.3318 47.9841 32.7216C46.739 32.0781 45.3562 31.7464 43.9547 31.755H31.1152V62.9161H39.3138L39.3022 53.3899ZM39.3022 39.2811H43.4568C44.0342 39.319 44.5746 39.5788 44.9649 40.006C45.4482 40.4864 45.751 41.3337 45.751 42.6584C45.751 43.9831 45.4511 44.7692 45.0232 45.1971C44.665 45.6193 44.1818 45.9192 43.6402 45.9192H39.3022V39.284V39.2811Z" fill="white"/>
<path d="M20.5322 24.2312V70.488C20.5322 72.1475 21.8744 73.4868 23.531 73.4868H69.7879C71.4445 73.4868 72.7866 72.1475 72.7866 70.488V24.2312C72.787 23.8371 72.7097 23.4469 72.5592 23.0827C72.4087 22.7185 72.1878 22.3876 71.9093 22.1088C71.6308 21.8301 71.3001 21.6089 70.9361 21.458C70.5721 21.3072 70.1819 21.2295 69.7879 21.2295H23.531C23.1372 21.2295 22.7472 21.3071 22.3834 21.4578C22.0196 21.6085 21.689 21.8294 21.4105 22.1078C21.1321 22.3863 20.9112 22.7169 20.7605 23.0807C20.6098 23.4445 20.5322 23.8345 20.5322 24.2283V24.2312ZM63.6302 67.332H29.6246C29.2306 67.3324 28.8403 67.2551 28.4762 67.1046C28.112 66.9541 27.7811 66.7332 27.5023 66.4547C27.2235 66.1762 27.0024 65.8455 26.8515 65.4815C26.7006 65.1175 26.6229 64.7273 26.6229 64.3333V30.3277C26.6226 29.9334 26.6999 29.5429 26.8507 29.1786C27.0014 28.8142 27.2225 28.4832 27.5013 28.2044C27.7801 27.9255 28.1111 27.7045 28.4755 27.5537C28.8398 27.403 29.2303 27.3257 29.6246 27.326H63.6302C65.2897 27.326 66.629 28.6682 66.629 30.3248V64.3303C66.629 65.9899 65.2897 67.332 63.6302 67.332Z" fill="white"/>
<path d="M42.979 57.0684H62.2148V62.9786H42.979V57.0684Z" fill="white"/>
</g>
<defs>
<clipPath id="clip0_342_6221">
<rect width="93.1659" height="93.1659" fill="white" transform="translate(0.0854492 0.852539)"/>
</clipPath>
</defs>
</svg>
