<svg width="94" height="95" viewBox="0 0 94 95" fill="none" xmlns="http://www.w3.org/2000/svg">
<g clip-path="url(#clip0_342_6228)">
<path d="M47.1825 94.0184C72.9096 94.0184 93.7655 73.1625 93.7655 47.4355C93.7655 21.7084 72.9096 0.852539 47.1825 0.852539C21.4555 0.852539 0.599609 21.7084 0.599609 47.4355C0.599609 73.1625 21.4555 94.0184 47.1825 94.0184Z" fill="#1061E3"/>
<path fill-rule="evenodd" clip-rule="evenodd" d="M71.292 61.6048C71.5365 64.1115 70.7533 66.5862 68.3281 68.1933C67.1665 68.9649 65.8709 69.2706 64.4792 69.2706C52.9499 69.2648 41.4206 69.2677 29.8914 69.2648C29.6389 69.2648 29.3865 69.258 29.1344 69.2444C26.6073 69.1075 24.2199 67.2762 23.4047 64.886C23.0437 63.8291 22.9884 62.7461 23.032 61.6048H30.0486C30.724 61.6019 31.1724 61.1098 31.021 60.4955C30.9418 60.2574 30.8024 60.0438 30.6163 59.8754C27.7544 57.0164 24.8837 54.169 22.0159 51.3158L19.3898 48.7013C18.4029 47.726 17.9283 46.5468 18.103 45.1726C18.1903 44.4972 18.4087 43.8334 18.627 43.1812C19.8526 39.4871 21.7991 36.073 24.3538 33.1368C27.9726 28.9255 32.6927 25.8053 37.9851 24.1259C41.4305 22.9982 45.0568 22.5271 48.6759 22.7371C57.2239 23.2495 64.3424 26.7258 69.9847 33.1339C72.8714 36.4109 74.9724 40.3032 76.1278 44.5147C76.5646 46.0839 76.1511 47.496 74.9895 48.6518C72.8059 50.8296 70.6049 52.9898 68.4125 55.1589C66.8025 56.7514 65.1954 58.3498 63.5883 59.9482C63.0584 60.4722 63.1108 61.171 63.7164 61.4825C63.8911 61.5698 64.1094 61.5989 64.3074 61.5989C66.5201 61.6077 68.7357 61.6048 70.9513 61.6048H71.292ZM25.1778 63.1769C25.2098 64.1144 25.4602 64.9471 26.0075 65.675C26.9159 66.8861 28.1416 67.4567 29.6614 67.4538H64.6801C64.8169 67.4538 64.9538 67.448 65.0877 67.4393C65.7325 67.4147 66.363 67.2416 66.9301 66.9336C67.4972 66.6255 67.9855 66.1909 68.3572 65.6633C68.8988 64.9355 69.152 64.1028 69.1666 63.1799L25.1778 63.1769ZM55.0723 40.6221C55.1568 40.6774 55.2179 40.7094 55.2674 40.7473C58.1439 42.8901 59.9665 45.6967 60.6594 49.2108C61.0379 51.1207 60.9855 53.0248 60.5371 54.9201C60.1285 56.6419 59.3866 58.2669 58.3535 59.7036C58.2563 59.8257 58.188 59.9682 58.1537 60.1205C58.1194 60.2728 58.12 60.4309 58.1556 60.5829C58.3564 61.3748 59.2561 61.631 59.85 61.0516C60.7234 60.2044 61.5765 59.3397 62.4412 58.4837C65.9233 55.0191 69.4053 51.5574 72.8903 48.0986C73.6473 47.3475 73.9792 46.4508 73.7929 45.4026C73.7084 44.9485 73.5454 44.5059 73.3911 44.0692C72.2605 40.788 70.5993 37.7144 68.4737 34.971C66.8475 32.8655 64.914 31.0165 62.7382 29.4858C62.6273 29.4061 62.5504 29.2877 62.5227 29.1539C62.4908 28.8451 62.3869 28.5481 62.2193 28.2867C62.0518 28.0253 61.8253 27.8068 61.558 27.6489C61.2907 27.4909 60.9902 27.3978 60.6804 27.377C60.3706 27.3563 60.0603 27.4084 59.7743 27.5294C59.6557 27.5763 59.5239 27.5773 59.4046 27.5323C56.3356 26.0715 53.0147 25.2136 49.6221 25.0051C46.9256 24.8025 44.2142 24.9552 41.5575 25.4593C39.3377 25.8822 37.1825 26.5928 35.1465 27.573C35.0689 27.6172 34.9811 27.6404 34.8918 27.6404C34.8024 27.6404 34.7146 27.6172 34.637 27.573C34.3457 27.4295 34.023 27.3615 33.6985 27.3752C33.3741 27.3889 33.0583 27.4838 32.7801 27.6513C32.5018 27.8188 32.2702 28.0535 32.1063 28.3339C31.9424 28.6142 31.8515 28.9312 31.842 29.2558C31.842 29.4305 31.778 29.5324 31.644 29.6372C30.7532 30.3447 29.8273 31.0173 28.9946 31.7888C25.0817 35.4135 22.4206 39.836 20.7116 44.8524C20.2807 46.1218 20.566 47.2106 21.5123 48.151L31.877 58.4546C32.7446 59.3193 33.6093 60.184 34.4856 61.0429C34.9893 61.5378 35.7492 61.4505 36.0782 60.8653C36.3023 60.4606 36.247 60.0617 35.9821 59.689C34.589 57.7608 33.733 55.4971 33.5015 53.1296C33.2987 51.1831 33.5273 49.2159 34.1712 47.3679C34.3167 46.9457 34.4973 46.5323 34.669 46.0956L38.78 48.5121C37.9267 50.5759 37.8655 52.8821 38.608 54.9883C39.3506 57.0946 40.8446 58.8525 42.8036 59.9249C44.653 60.9378 46.7967 61.2773 48.8686 60.8854C50.9406 60.4935 52.8122 59.3946 54.164 57.7762C55.5032 56.1837 56.2136 54.3349 56.2544 52.2533C56.3126 49.1497 55.0287 46.6749 52.6151 44.7476L55.0723 40.6221ZM68.6542 49.4728C68.5785 48.9895 68.5086 48.5441 68.4329 48.0986C68.1526 46.4544 67.6716 44.8509 67.0005 43.3239C66.9277 43.1492 66.9102 43.0153 66.9976 42.8348C67.1124 42.5925 67.1757 42.329 67.1832 42.061C67.1908 41.793 67.1425 41.5264 67.0415 41.278C66.9404 41.0297 66.7888 40.8051 66.5963 40.6185C66.4038 40.4319 66.1746 40.2874 65.9233 40.1941C65.6768 40.101 65.4141 40.0583 65.1508 40.0684C64.8875 40.0786 64.6289 40.1414 64.3903 40.2533C64.1517 40.3651 63.938 40.5236 63.7617 40.7195C63.5855 40.9154 63.4503 41.1446 63.3641 41.3936C63.2784 41.6426 63.2448 41.9065 63.2653 42.169C63.2859 42.4315 63.3602 42.687 63.4836 42.9196C63.607 43.1522 63.7768 43.3569 63.9827 43.5211C64.1885 43.6853 64.4259 43.8055 64.6801 43.8741C64.818 43.9004 64.9464 43.9631 65.0518 44.0558C65.1573 44.1485 65.236 44.2677 65.2798 44.4011C66.1649 46.5701 66.6569 48.8178 66.7268 51.1556C66.7326 51.2951 66.687 51.4318 66.5987 51.5399C65.2682 52.8792 63.926 54.2068 62.5897 55.5373C62.5431 55.581 62.4878 55.616 62.4674 55.6363C63.7426 49.3185 62.1908 43.8421 57.1162 39.7195C51.8436 35.4397 45.9683 35.1107 39.799 37.8941L37.9153 34.642C38.5878 34.3421 39.2342 34.0306 39.8951 33.7569C41.5973 33.0773 43.3854 32.6364 45.2084 32.4468C45.4442 32.4206 45.616 32.4584 45.7994 32.6447C45.9797 32.8305 46.1957 32.9779 46.4344 33.0781C46.6731 33.1783 46.9295 33.2293 47.1884 33.2279C47.4472 33.2266 47.7032 33.1729 47.9408 33.0702C48.1784 32.9675 48.3928 32.8178 48.5711 32.6302C48.6326 32.5584 48.7115 32.5037 48.8001 32.471C48.8888 32.4384 48.9844 32.4291 49.0777 32.4439C53.5409 32.9272 57.4131 34.6798 60.6798 37.7456C60.9418 37.993 61.1893 38.2522 61.4426 38.5084C61.8938 38.9626 62.3917 38.9742 62.8517 38.5317L65.9116 35.5707L66.1969 35.3C66.5638 35.7658 66.9335 36.2142 67.2771 36.68C69.2653 39.368 70.7905 42.3693 71.7898 45.5599C71.8595 45.7475 71.8715 45.9517 71.8242 46.1463C71.777 46.3408 71.6728 46.5168 71.5249 46.6516L68.8347 49.3273C68.7881 49.3709 68.7328 49.4059 68.6542 49.4728ZM64.9683 34.0131L62.3538 36.5432C62.2752 36.4762 62.2024 36.415 62.1355 36.351C59.4136 33.7319 56.0447 31.8831 52.3735 30.994C51.3457 30.7436 50.283 30.6271 49.2378 30.4583C49.0544 30.4291 48.9292 30.3913 48.8157 30.2166C48.6356 29.943 48.3903 29.7185 48.1018 29.5634C47.8134 29.4082 47.4909 29.3273 47.1633 29.3279C46.8358 29.3285 46.5136 29.4105 46.2256 29.5667C45.9377 29.7229 45.6932 29.9482 45.5141 30.2224C45.4268 30.34 45.2975 30.4193 45.1531 30.4437C38.416 31.1832 33.1289 34.3392 29.2567 39.8535C29.2133 39.9211 29.1551 39.978 29.0865 40.0199C29.0179 40.0618 28.9407 40.0875 28.8607 40.0951C27.504 40.3164 26.814 41.6382 27.3759 42.8901C27.42 43.0024 27.42 43.1272 27.3759 43.2394C26.5612 45.0961 26.017 47.0599 25.76 49.0711C25.7426 49.1962 25.7164 49.3185 25.6873 49.4903L25.4369 49.2574C24.6042 48.4276 23.7774 47.5891 22.933 46.771C22.5429 46.3925 22.4148 45.9908 22.5982 45.4609C24.5576 39.8418 27.6729 35.0321 32.5262 31.4423C32.5815 31.4016 32.6398 31.3666 32.6922 31.323C32.8669 31.1686 33.027 31.125 33.2861 31.1949C33.5471 31.2677 33.8204 31.2853 34.0885 31.2467C34.3567 31.2081 34.6139 31.114 34.8437 30.9705C35.0735 30.8269 35.2709 30.6371 35.4233 30.4131C35.5757 30.189 35.6797 29.9357 35.7288 29.6693C35.7435 29.6122 35.7693 29.5587 35.8048 29.5117C35.8402 29.4648 35.8847 29.4253 35.9355 29.3956C37.1928 28.7755 38.5046 28.2726 39.8543 27.8933C43.0423 26.9878 46.2973 26.752 49.5872 26.9878C52.6176 27.1801 55.5851 27.9385 58.3361 29.2238C58.5108 29.3053 58.5981 29.3985 58.6272 29.6023C58.6693 29.8968 58.7782 30.1777 58.9456 30.4236C59.1129 30.6695 59.3343 30.8739 59.5928 31.0211C59.8513 31.1684 60.14 31.2545 60.4369 31.273C60.7338 31.2915 61.031 31.2419 61.3057 31.1279C61.3989 31.093 61.5474 31.09 61.6202 31.1395C62.8109 31.9606 63.9056 32.8922 64.9159 33.92C64.9363 33.9403 64.945 33.9694 64.9683 34.0131ZM54.3008 52.0058C54.3212 55.8809 51.1274 59.0747 47.2086 59.098C45.3246 59.1035 43.515 58.3631 42.1752 57.0385C40.8354 55.714 40.0742 53.913 40.0581 52.0291C40.0406 48.1481 43.2286 44.963 47.1562 44.9426C49.0397 44.9318 50.8505 45.6695 52.1903 46.9934C53.5301 48.3174 54.2893 50.1193 54.3008 52.0029V52.0058ZM31.8886 55.6858L30.0486 53.8371C29.2916 53.0801 28.5288 52.3348 27.7777 51.572C27.68 51.4727 27.6221 51.3412 27.6146 51.2022C27.6842 48.7945 28.2057 46.4212 29.1519 44.206C29.1761 44.1342 29.2196 44.0704 29.2776 44.0216C29.3356 43.9729 29.4059 43.941 29.4809 43.9295C30.7881 43.6238 31.3966 42.4825 30.9337 41.2364C30.9045 41.149 30.9045 41.018 30.9482 40.9452C32.3789 38.829 34.2156 37.018 36.3518 35.6173C36.3606 35.6115 36.3693 35.6115 36.4101 35.5998L37.1816 36.9158L38.8004 39.7108C39.1264 40.2814 39.5515 40.4066 40.1134 40.066C41.5821 39.1754 43.2095 38.5782 44.9056 38.3075C47.8217 37.8141 50.8191 38.2768 53.4507 39.6264C53.4769 39.6409 53.4973 39.6613 53.5497 39.7021L51.107 43.7984C46.4924 42.0661 42.6784 43.0997 39.5981 46.9341L35.5017 44.5263C35.8685 44.0343 36.2179 43.5597 36.576 43.0939C36.7216 42.9017 36.8905 42.727 37.0535 42.5465C37.3039 42.267 37.3039 42.1098 37.0477 41.8478C36.8223 41.619 36.5952 41.3919 36.3664 41.1665C36.0578 40.8637 35.9064 40.8637 35.6152 41.1782C34.373 42.5077 33.3756 44.0462 32.6689 45.7229C31.667 48.0718 31.2687 50.634 31.5101 53.1762C31.5858 53.9914 31.7518 54.7978 31.8886 55.6858ZM47.1678 32.3652C46.8788 32.3593 46.6034 32.2416 46.3993 32.037C46.1952 31.8323 46.0783 31.5566 46.0731 31.2676C46.0828 30.9789 46.203 30.7049 46.4089 30.5023C46.6147 30.2996 46.8906 30.1838 47.1795 30.1788C47.4684 30.1855 47.7435 30.3039 47.9471 30.5091C48.1506 30.7142 48.2668 30.9903 48.2712 31.2793C48.2652 31.5687 48.1465 31.8443 47.9405 32.0476C47.7345 32.251 47.4573 32.3659 47.1678 32.3682V32.3652ZM33.7752 28.2485C33.919 28.2446 34.0622 28.2694 34.1964 28.3213C34.3306 28.3732 34.4531 28.4513 34.5568 28.551C34.6606 28.6507 34.7435 28.77 34.8007 28.902C34.858 29.034 34.8884 29.176 34.8903 29.3199C34.8903 29.6118 34.7743 29.8917 34.568 30.0981C34.3616 30.3045 34.0817 30.4204 33.7898 30.4204C33.4979 30.4204 33.218 30.3045 33.0116 30.0981C32.8052 29.8917 32.6893 29.6118 32.6893 29.3199C32.6923 29.0342 32.8082 28.7612 33.0116 28.5605C33.215 28.3599 33.4895 28.2477 33.7752 28.2485ZM65.2216 43.0968C64.9442 43.0852 64.6817 42.9676 64.4886 42.7681C64.2954 42.5686 64.1862 42.3025 64.1836 42.0249C64.181 41.7472 64.2851 41.4791 64.4745 41.276C64.6639 41.073 64.924 40.9504 65.2012 40.9336C65.3433 40.9323 65.4842 40.9589 65.6159 41.012C65.7477 41.0651 65.8676 41.1437 65.969 41.2432C66.0704 41.3427 66.1512 41.4612 66.2068 41.5919C66.2624 41.7226 66.2917 41.863 66.293 42.005C66.2944 42.147 66.2677 42.2879 66.2146 42.4197C66.1615 42.5514 66.0829 42.6714 65.9834 42.7728C65.8839 42.8742 65.7655 42.955 65.6347 43.0106C65.504 43.0662 65.3636 43.0955 65.2216 43.0968ZM60.5546 28.2485C61.1747 28.2485 61.6464 28.7143 61.6435 29.3315C61.6427 29.6165 61.5294 29.8896 61.3281 30.0914C61.1269 30.2932 60.8541 30.4072 60.5691 30.4088C60.4257 30.4111 60.2831 30.385 60.1498 30.332C60.0164 30.2791 59.8948 30.2003 59.792 30.1002C59.6892 30.0001 59.6072 29.8806 59.5507 29.7487C59.4942 29.6168 59.4643 29.475 59.4628 29.3315C59.4608 29.1879 59.4877 29.0453 59.542 28.9123C59.5962 28.7792 59.6767 28.6585 59.7785 28.5572C59.8804 28.4558 60.0016 28.376 60.1349 28.3225C60.2682 28.269 60.4109 28.2428 60.5546 28.2456V28.2485ZM30.2233 42.0137C30.2241 42.1572 30.1962 42.2993 30.1413 42.4318C30.0864 42.5644 30.0057 42.6846 29.9037 42.7855C29.8017 42.8864 29.6806 42.9659 29.5475 43.0193C29.4144 43.0728 29.272 43.0991 29.1286 43.0968C28.9849 43.0988 28.8423 43.0718 28.7093 43.0176C28.5763 42.9634 28.4555 42.8829 28.3542 42.7811C28.2529 42.6792 28.1731 42.558 28.1196 42.4247C28.066 42.2914 28.0399 42.1486 28.0426 42.005C28.0441 41.7198 28.1587 41.4469 28.3612 41.246C28.5637 41.0452 28.8376 40.9328 29.1227 40.9336C29.2663 40.9309 29.409 40.9568 29.5424 41.0099C29.6758 41.063 29.7973 41.1421 29.8997 41.2427C30.0022 41.3432 30.0836 41.4632 30.1391 41.5956C30.1947 41.728 30.2233 41.8702 30.2233 42.0137Z" fill="white"/>
</g>
<defs>
<clipPath id="clip0_342_6228">
<rect width="93.1659" height="93.1659" fill="white" transform="translate(0.599609 0.852539)"/>
</clipPath>
</defs>
</svg>
