<svg width="94" height="95" viewBox="0 0 94 95" fill="none" xmlns="http://www.w3.org/2000/svg">
<g clip-path="url(#clip0_342_6232)">
<path d="M46.6967 94.0184C72.4238 94.0184 93.2796 73.1625 93.2796 47.4355C93.2796 21.7084 72.4238 0.852539 46.6967 0.852539C20.9697 0.852539 0.11377 21.7084 0.11377 47.4355C0.11377 73.1625 20.9697 94.0184 46.6967 94.0184Z" fill="#1A53F0"/>
<path d="M57.9701 33.8838C57.7076 33.8838 57.4704 33.8161 57.2544 33.8161C53.4981 33.8161 49.7376 33.8161 45.9814 33.7907C45.1937 33.7907 44.9311 34.0278 44.9311 34.8112C44.9565 39.1646 44.9819 43.518 44.9311 47.8502C44.9311 48.6972 45.2657 48.9216 46.0534 48.9216C50.2374 48.9216 54.4256 48.9894 58.6096 48.9216C59.7784 48.8962 60.1807 49.3451 60.1807 50.3954V57.1499C60.1807 58.4838 59.0627 57.7682 58.4444 58.1747C58.3978 58.5982 58.3258 59.0767 58.2538 59.7204H36.5335C35.4155 59.7204 34.3187 59.839 34.7972 58.1027C34.2001 58.0307 33.7978 57.9841 33.2473 57.9333V35.006C33.7724 34.9341 34.2721 34.8875 34.8438 34.8155V28.2261H28.2333V34.7901C28.4892 34.866 28.7541 34.9073 29.0209 34.9129C29.6138 34.8875 29.8679 35.0992 29.8679 35.7598C29.8425 38.7581 29.8679 41.7775 29.8213 44.7758C29.8213 45.0637 29.3978 45.5846 29.1522 45.5846C24.2525 45.61 19.3529 45.5846 14.4532 45.5592C14.342 45.5332 14.237 45.4857 14.144 45.4195C14.2372 29.9327 28.7033 14.9288 44.9481 14.8018V16.3009C44.9481 20.4171 44.9947 24.5334 44.9481 28.6242C44.9481 29.6702 45.2826 29.9793 46.3032 29.9793C49.7758 29.9313 53.2568 29.9313 56.7463 29.9793C57.6525 29.9793 58.1988 29.8142 58.0802 28.7682C57.9828 27.9593 58.4614 27.7688 59.1728 27.7899C60.9091 27.8407 62.6453 27.8873 64.3816 27.8873C65.1905 27.8873 65.4996 28.1711 65.4784 29.0053C65.4319 31.0253 65.4319 33.0496 65.4784 35.0484C65.4784 35.8954 65.1227 36.0224 64.407 35.997C62.7131 35.9504 61.0192 35.925 59.3253 35.997C58.2793 36.0478 57.8515 35.6879 58.0548 34.6419C58.0692 34.3862 58.0406 34.13 57.9701 33.8838Z" fill="white"/>
<path d="M58.2995 62.956C58.3503 63.5743 58.3715 64.074 58.4181 64.65H65.0074V58.0225C63.2034 58.4036 63.394 57.1755 63.4152 56.0491C63.4406 54.0248 63.4406 52.0048 63.4152 50.006C63.4152 49.2437 63.6311 48.9346 64.4146 48.9346C69.0305 48.96 73.6676 48.96 78.2836 48.9346C79.6853 48.9346 79.2576 49.934 79.1856 50.5989C78.7218 55.2843 77.2108 59.8055 74.7645 63.8284C69.1491 72.9629 60.9886 78.2268 50.3804 79.764C50.1898 79.7894 49.9569 79.7894 49.7833 79.8106C48.3096 79.8614 48.335 79.8614 48.335 78.3835C48.3548 73.7195 48.3548 69.0612 48.335 64.4086C48.335 63.2906 48.5721 62.7909 49.8553 62.8629C52.1421 62.9814 54.4458 62.8883 56.7326 62.8883C57.2535 62.884 57.7532 62.9349 58.2995 62.956Z" fill="white"/>
<path d="M28.0629 64.6715H34.7031C34.694 64.3478 34.7427 64.0251 34.8471 63.7186C35.0588 63.3883 35.4188 62.9352 35.7279 62.9352C38.5314 62.8646 41.3376 62.8646 44.1467 62.9352C44.3264 62.9821 44.491 63.0746 44.6245 63.2036C44.758 63.3327 44.856 63.494 44.909 63.672C44.9288 68.926 44.9288 74.1829 44.909 79.4425C44.8566 79.666 44.777 79.8821 44.6719 80.0862C42.3851 79.6331 39.9839 79.3705 37.7225 78.659C26.1149 75.0425 18.5981 67.3098 15.1256 55.681C14.5539 53.8473 14.4141 51.895 14.088 49.9767C13.9441 49.1932 14.232 48.8333 15.1086 48.8587C19.7034 48.9053 24.2685 48.9307 28.8591 48.9053C29.706 48.9053 29.9559 49.2144 29.9305 50.0233C29.8839 51.9501 29.9051 53.9023 29.9051 55.8292C29.9051 57.756 29.9051 57.756 28.0756 58.0863L28.0629 64.6715Z" fill="white"/>
</g>
<defs>
<clipPath id="clip0_342_6232">
<rect width="93.1659" height="93.1659" fill="white" transform="translate(0.113281 0.852539)"/>
</clipPath>
</defs>
</svg>
