<svg width="94" height="95" viewBox="0 0 94 95" fill="none" xmlns="http://www.w3.org/2000/svg">
<g clip-path="url(#clip0_342_6237)">
<path d="M47.2099 94.0184C72.9369 94.0184 93.7928 73.1625 93.7928 47.4355C93.7928 21.7084 72.9369 0.852539 47.2099 0.852539C21.4828 0.852539 0.626953 21.7084 0.626953 47.4355C0.626953 73.1625 21.4828 94.0184 47.2099 94.0184Z" fill="#015CC6"/>
<path d="M45.0665 10.8096V48.9319C45.0665 49.5979 45.0665 49.5979 45.7326 49.5979H61.3271C61.5169 49.5979 61.7068 49.5979 61.8999 49.5979C62.093 49.5979 62.0897 49.6711 62.0897 49.811C62.0897 50.4337 62.0897 51.0531 62.0897 51.6725V59.3982C62.0897 59.5147 62.0897 59.6346 62.0897 59.7545C62.0897 60.0642 61.9765 60.1807 61.6801 60.1841C61.1806 60.1841 60.6811 60.1841 60.1783 60.1841C59.9951 60.1841 59.9352 60.234 59.9385 60.4238C59.9385 60.9233 59.9385 61.4228 59.9385 61.9257C59.9385 62.222 59.8219 62.3219 59.5122 62.3353H59.1526C51.1894 62.3353 43.2261 62.3353 35.2629 62.3353C34.5236 62.3353 34.4437 62.3353 34.4704 61.566C34.4704 61.1864 34.4704 60.8035 34.4704 60.4205C34.4704 60.2373 34.4204 60.1741 34.2339 60.1807C33.7544 60.1807 33.2782 60.1807 32.802 60.1807C32.4057 60.1807 32.3291 60.0908 32.3192 59.6779C32.3192 59.5114 32.3192 59.3449 32.3192 59.1784C32.3192 51.2862 32.3192 43.3951 32.3192 35.5051C32.3192 34.7625 32.3192 34.6826 33.0884 34.7093C33.4913 34.7093 33.8976 34.7093 34.3039 34.7093C34.3605 34.7093 34.4404 34.616 34.4637 34.5494C34.4771 34.4555 34.4771 34.3602 34.4637 34.2664V26.6073C34.4637 26.2743 34.527 26.2743 34.1307 26.2743C31.5333 26.2743 28.9325 26.2743 26.3351 26.2743C26.0653 26.2743 26.0287 26.3542 26.0287 26.6073C26.0287 29.2047 26.0287 31.8021 26.0287 34.4029C26.0287 34.7359 26.0287 34.7359 26.3817 34.7359H27.6671C28.1699 34.7359 28.1733 34.7359 28.1733 35.2021V44.8592C28.1682 44.9546 28.1682 45.0502 28.1733 45.1456C28.1733 45.3154 28.0867 45.3354 27.9501 45.3288C27.8136 45.3221 27.6171 45.3288 27.4506 45.3288H10.584V43.7203C10.6239 43.7203 10.7005 43.687 10.7005 43.6704C10.7005 43.1609 10.897 42.6714 10.8937 42.1652C10.8937 41.8122 11.0535 41.4526 11.0136 41.083C11.3066 40.8798 11.0136 40.5235 11.2134 40.3104C11.4132 40.0973 11.2134 39.731 11.4232 39.4579C11.573 39.2747 11.5231 38.9384 11.5897 38.6753C11.7029 38.2025 11.8194 37.7263 11.9693 37.2601C12.219 36.4842 12.4555 35.7016 12.7219 34.929C13.0282 34.0333 13.4378 33.1774 13.7842 32.2983C13.9373 31.9087 14.1505 31.5457 14.3369 31.1694C14.5234 30.7931 14.6966 30.4102 14.8931 30.0405C15.1608 29.4818 15.4668 28.9421 15.8088 28.4255C16.5181 27.4598 17.1408 26.4275 17.8468 25.4684C18.6112 24.4343 19.4327 23.4437 20.3077 22.5013C21.4806 21.2186 22.7509 20.0285 24.1073 18.9415C24.6634 18.5053 25.2195 18.0757 25.8056 17.6794C26.8279 16.9868 27.8436 16.2908 28.8859 15.6281C29.4396 15.2609 30.0259 14.9455 30.6375 14.6857C31.4567 14.3527 32.2292 13.9331 33.0384 13.5868C33.791 13.2538 34.5936 13.0807 35.3029 12.6711C36.1021 12.6444 36.7947 12.2315 37.5573 12.055C38.4398 11.8519 39.3189 11.5788 40.2213 11.409C40.9731 11.1995 41.7487 11.0876 42.5291 11.076C42.6722 11.076 42.8188 10.9761 42.9686 10.9428C43.1185 10.9095 43.3149 10.9061 43.4948 10.8795C43.4965 10.8562 43.4965 10.8328 43.4948 10.8096H45.0665Z" fill="white"/>
<path d="M10.584 49.5879H27.4673C27.6338 49.5879 27.8003 49.5879 27.9668 49.5879C28.1333 49.5879 28.1966 49.5879 28.1866 49.7744C28.1866 49.8909 28.1866 50.0108 28.1866 50.1307V59.6446C28.1816 59.7167 28.1816 59.789 28.1866 59.8611C28.2165 60.0908 28.1866 60.1941 27.8869 60.1941C27.3407 60.1641 26.7913 60.1941 26.2418 60.1941C26.0953 60.1941 26.0287 60.234 26.0354 60.3939C26.0354 60.6536 26.0354 60.9167 26.0354 61.1798C26.0354 63.5396 26.0354 65.9006 26.0354 68.2628C26.0354 68.679 25.9987 68.6424 26.415 68.6424H34.1407C34.4737 68.6424 34.4737 68.6424 34.4737 68.3094C34.4737 67.8065 34.497 67.3104 34.4737 66.8075C34.4737 66.5211 34.5703 66.5045 34.8067 66.5045C38.1234 66.5045 41.4379 66.5045 44.7502 66.5045C45.0832 66.5045 45.0832 66.5045 45.0832 66.8641C45.0832 72.6096 45.0832 78.3561 45.0832 84.1037H43.4948C43.4948 84.0638 43.4615 83.9872 43.4448 83.9872C42.9353 83.9872 42.4458 83.7308 41.9396 83.814C41.8531 83.814 41.7232 83.814 41.6766 83.7741C41.5134 83.6076 41.3169 83.7075 41.1404 83.6708C40.9639 83.6342 40.8074 83.561 40.6276 83.5343C40.2403 83.5095 39.8553 83.4572 39.4754 83.3778C38.4364 83.0448 37.3608 82.875 36.3285 82.5253C35.5992 82.2756 34.8533 82.0624 34.1307 81.7927C33.0642 81.3764 32.0204 80.904 31.0038 80.3774C29.8034 79.7967 28.6441 79.1347 27.5339 78.3961C26.5349 77.7301 25.5359 77.0907 24.6001 76.3281C23.7776 75.6621 22.9351 74.9961 22.1725 74.2835C20.9746 73.1938 19.8717 72.004 18.8758 70.727C18.4495 70.1542 17.9201 69.6547 17.5438 69.062C16.6979 67.7999 15.8321 66.5511 15.1162 65.2124C14.4368 63.947 13.813 62.6572 13.2447 61.3429C13.1048 61.0099 13.0083 60.6769 12.8884 60.3439C12.4775 59.2712 12.124 58.1774 11.8294 57.0672C11.6529 56.3279 11.4398 55.6019 11.2999 54.8527C11.2333 54.5197 11.2833 54.1201 11.1401 53.8537C10.9969 53.5873 11.1401 53.2942 10.9736 53.0611C10.8071 52.828 10.917 52.485 10.867 52.2153C10.8038 51.8623 10.7272 51.5127 10.6539 51.1597C10.6306 51.1579 10.6073 51.1579 10.584 51.1597V49.5879Z" fill="white"/>
<path d="M49.3623 84.0705V67.1872C49.3623 67.0207 49.3623 66.8542 49.3623 66.6877C49.3623 66.5212 49.3623 66.4579 49.5488 66.4679C49.6653 66.4679 49.7852 66.4679 49.9051 66.4679H59.419C59.4911 66.4729 59.5634 66.4729 59.6355 66.4679C59.8652 66.4379 59.9685 66.4679 59.9685 66.7676C59.9385 67.3137 59.9685 67.8632 59.9685 68.4126C59.9685 68.5592 60.0084 68.6258 60.1683 68.6191C60.428 68.6191 60.6911 68.6191 60.9542 68.6191H68.0372C68.4534 68.6191 68.4168 68.6557 68.4168 68.2395C68.4168 65.662 68.4168 63.0879 68.4168 60.5138C68.4168 60.1808 68.4168 60.1808 68.0838 60.1808C67.5809 60.1808 67.0848 60.1575 66.5819 60.1808C66.2956 60.1808 66.2789 60.0842 66.2789 59.8478C66.2789 56.5311 66.2789 53.2166 66.2789 49.9043C66.2789 49.5713 66.2789 49.5713 66.6385 49.5713C72.384 49.5713 78.1305 49.5713 83.8782 49.5713V51.1431C83.8382 51.1431 83.7616 51.1764 83.7616 51.193C83.7616 51.7025 83.5052 52.192 83.5884 52.6982C83.5938 52.7894 83.5825 52.8808 83.5551 52.9679C83.4362 53.3538 83.3515 53.7494 83.3021 54.1501C83.2895 54.5146 83.2359 54.8765 83.1422 55.229C82.9591 55.8018 82.8359 56.3879 82.6927 56.9706C82.5495 57.5534 82.343 58.1095 82.1599 58.6789C81.6899 60.171 81.1169 61.6286 80.4449 63.0413C79.8481 64.3492 79.1616 65.6143 78.3903 66.8276C77.6937 67.9437 76.9321 69.0178 76.1092 70.0444C75.5198 70.7404 74.9703 71.4896 74.3509 72.1556C73.1785 73.4574 71.8985 74.6582 70.5247 75.7454C69.6955 76.3881 68.893 77.0774 68.0238 77.6535C67.0331 78.3416 66.0083 78.9796 64.9536 79.565C63.6948 80.231 62.3994 80.8637 61.0874 81.4398C60.8106 81.5714 60.5245 81.6827 60.2316 81.7728C58.8995 82.1058 57.6375 82.6619 56.2921 82.9683C55.2665 83.2014 54.2408 83.4145 53.2152 83.6343C52.9521 83.6909 52.6857 83.7408 52.416 83.7741C51.8931 83.8374 51.367 83.8873 50.8442 83.9473C50.8209 83.9473 50.8075 84.0239 50.7909 84.0638L49.3623 84.0705Z" fill="white"/>
<path d="M60.6578 23.1239C60.6578 24.9121 60.6578 26.7004 60.6578 28.4886C60.6578 28.7017 60.7077 28.7683 60.9309 28.7683C62.8623 28.7683 64.7937 28.7683 66.7218 28.7683H67.2246C67.3978 28.7683 67.4344 28.8882 67.3678 28.9948C67.1647 29.3278 66.9449 29.6375 66.7018 29.9405C66.0358 30.823 65.4131 31.752 64.7404 32.6378C64.0678 33.5236 63.5483 34.3861 62.9355 35.2453C62.3694 36.0411 61.77 36.8137 61.1939 37.6029C60.8609 38.0758 60.5279 38.562 60.1949 39.0415L58.8329 40.9796C58.0404 42.1051 57.1879 43.1907 56.452 44.3562C56.3932 44.4312 56.3261 44.4993 56.2522 44.5594C56.2222 44.5893 56.1856 44.616 56.1523 44.646C56.1289 44.606 56.0923 44.5694 56.089 44.5294C56.089 44.3396 56.089 44.1464 56.089 43.9566V33.7168C56.089 33.3238 56.1523 33.3338 55.7127 33.3338H49.9084C49.7667 33.3472 49.624 33.3472 49.4822 33.3338C49.4472 33.3156 49.4177 33.2884 49.3966 33.2551C49.3756 33.2217 49.3637 33.1834 49.3623 33.144C49.377 33.0337 49.4245 32.9304 49.4988 32.8476C50.1648 32.145 50.6077 31.2925 51.2071 30.5466C51.5734 30.0903 51.8732 29.5908 52.2228 29.1113C52.6957 28.4453 53.1752 27.7793 53.6381 27.1133C54.4073 26.0011 55.1865 24.8922 55.9691 23.7833C56.7517 22.6744 57.5642 21.5188 58.4167 20.4232C59.0627 19.5941 59.6155 18.685 60.2116 17.8125C60.3142 17.6731 60.4475 17.5592 60.6012 17.4795C60.6198 17.5436 60.6321 17.6094 60.6378 17.676C60.6378 18.9147 60.6378 20.1568 60.6378 21.3956L60.6578 23.1239Z" fill="white"/>
</g>
<defs>
<clipPath id="clip0_342_6237">
<rect width="93.1659" height="93.1659" fill="white" transform="translate(0.627441 0.852539)"/>
</clipPath>
</defs>
</svg>
