<svg width="94" height="95" viewBox="0 0 94 95" fill="none" xmlns="http://www.w3.org/2000/svg">
<g clip-path="url(#clip0_342_6243)">
<path d="M46.7245 94.0184C72.4516 94.0184 93.3075 73.1625 93.3075 47.4355C93.3075 21.7084 72.4516 0.852539 46.7245 0.852539C20.9975 0.852539 0.141602 21.7084 0.141602 47.4355C0.141602 73.1625 20.9975 94.0184 46.7245 94.0184Z" fill="#22B573"/>
<path d="M44.4534 78.8891C47.0067 79.0346 50.0375 78.8832 52.2153 78.496C56.9405 77.6808 61.7881 75.57 65.7651 72.5945C67.5498 71.2524 70.6097 68.1924 71.9373 66.4223C74.9303 62.4278 76.9013 57.9588 77.9203 52.8259C78.2959 50.884 78.3454 44.1877 78.0077 42.1992C76.1356 31.6743 69.7101 23.106 60.2916 18.5845C60.0433 18.4657 59.7939 18.3493 59.5434 18.2352L60.7662 22.579C61.4649 24.9926 62.8915 30.076 63.9629 33.8492C66.8016 43.8296 66.7695 43.6607 66.8714 46.1937C66.9209 47.5184 66.8889 48.9974 66.7695 49.8999C65.5613 58.9603 58.37 66.1341 49.2718 67.3598C47.4201 67.6131 44.2933 67.4966 42.5435 67.121C41.8972 66.9667 41.3352 66.8823 41.2828 66.9172C41.2333 66.9842 44.0371 77.1014 44.4796 78.4611C44.5728 78.7406 44.6048 78.8512 44.4505 78.8891H44.4534ZM34.0305 76.3474C34.0103 76.3328 33.9909 76.3172 33.9722 76.3008C33.8703 76.1843 33.0901 73.7009 32.2545 70.7603C31.4247 67.8198 29.8758 62.3754 28.8394 58.6895C27.7854 55.0007 26.8305 51.3964 26.6966 50.6977C26.4258 49.1691 26.3909 45.5968 26.6471 44.0683C26.9672 42.1864 27.5391 40.3562 28.3473 38.6268C31.186 32.6759 36.1849 28.7484 42.7793 27.3043C44.564 26.9142 48.6954 26.9142 50.4975 27.3043C51.2283 27.4761 51.895 27.543 51.962 27.4586C52.0289 27.3887 51.3302 24.6869 50.4131 21.4552C49.846 19.5182 49.3103 17.5721 48.806 15.6178C48.1849 15.6101 47.5638 15.6072 46.9427 15.6091C43.1549 15.5916 42.1854 15.6935 39.2594 16.3719C32.9358 17.8509 26.8159 21.627 22.5827 26.6085C15.5603 34.8711 13.1992 46.1442 16.326 56.3924C17.4644 60.1685 18.8765 62.9402 21.2405 66.1515C24.5485 70.6008 28.9558 74.1143 34.0305 76.3474ZM41.5216 81.8937C40.6045 81.7597 39.7194 81.6054 39.568 81.5385C39.0285 81.3786 38.4837 81.2369 37.9347 81.1134C32.5282 79.8033 26.7839 76.5919 22.4808 72.4752C19.1996 69.3308 15.9184 64.5706 14.5413 60.9837C14.355 60.5237 14.1337 59.9793 14.0464 59.793C13.5893 58.8235 12.7741 55.9848 12.3141 53.6906C11.8191 51.2945 11.7871 50.8665 11.7871 47.3815C11.7871 45.2416 11.8745 43.2007 11.9734 42.6213C12.0928 42.0623 12.3141 40.8192 12.5004 39.8846C12.6722 38.9325 12.9255 37.9805 13.0448 37.7592C13.1247 37.6341 13.1828 37.4962 13.2166 37.3516C13.1293 37.3516 13.9125 34.8187 14.0493 34.6324C14.1163 34.545 14.3201 34.0879 14.4889 33.6134C14.7801 32.8127 15.7321 30.8766 16.0902 30.2943C16.1892 30.1604 16.6317 29.4122 17.0917 28.6465C17.5663 27.8662 18.0263 27.1325 18.1107 27.0335C18.2126 26.9142 18.7745 26.2008 19.3539 25.4526C24.4198 19.0067 32.1206 14.3484 40.2289 12.8374C42.6279 12.3774 50.8032 12.3948 53.2343 12.8548C57.1298 13.5827 61.2786 15.1985 64.7956 17.3414C66.4959 18.3953 66.6152 18.4652 68.5368 19.9937C70.1672 21.2863 72.8719 24.0056 74.0452 25.537C74.5052 26.1484 75.0817 26.8792 75.3204 27.1674C75.5592 27.4761 75.763 27.7643 75.763 27.8313C75.763 27.9186 75.9493 28.2068 76.1705 28.4951C76.3918 28.7862 76.9188 29.7179 77.3613 30.5505C77.7864 31.4007 78.2115 32.1664 78.2784 32.2508C78.3454 32.3527 78.6686 33.0515 78.9772 33.8317C81.2714 39.6313 82.0691 45.1572 81.4402 51.1256C81.184 53.6877 80.0282 58.2295 79.146 60.1685C78.9743 60.5761 78.8229 60.9488 78.8229 61.0012C78.8229 61.1526 77.3613 64.0786 76.9188 64.8094C73.3319 70.7603 68.2485 75.5526 62.5014 78.4087C61.5144 78.9036 60.5798 79.3607 60.411 79.4481C59.2697 80.042 55.5139 81.1804 52.7248 81.7597C50.9925 82.1149 43.7314 82.2023 41.5216 81.8937ZM49.1554 57.5832C52.8441 56.6486 56.0409 53.5043 56.958 49.9174C57.2986 48.5723 57.3161 45.9724 56.9755 44.6623C55.5634 39.0869 49.7668 35.532 44.3107 36.9091C42.066 37.471 40.8752 38.1319 39.2943 39.7157C37.0351 41.9779 36.0976 44.2197 36.115 47.3815C36.1325 52.1941 39.2594 56.2585 43.9526 57.5133C45.3647 57.8918 47.8132 57.9209 49.1554 57.5832Z" fill="#FEFFFF"/>
</g>
<defs>
<clipPath id="clip0_342_6243">
<rect width="93.1659" height="93.1659" fill="white" transform="translate(0.141602 0.852539)"/>
</clipPath>
</defs>
</svg>
