<svg width="94" height="95" viewBox="0 0 94 95" fill="none" xmlns="http://www.w3.org/2000/svg">
<g clip-path="url(#clip0_342_6247)">
<path d="M47.2392 94.0184C72.9662 94.0184 93.8221 73.1625 93.8221 47.4355C93.8221 21.7084 72.9662 0.852539 47.2392 0.852539C21.5121 0.852539 0.65625 21.7084 0.65625 47.4355C0.65625 73.1625 21.5121 94.0184 47.2392 94.0184Z" fill="#333333"/>
<path d="M33.2409 24.1436H55.8452C62.099 24.5133 68.9787 27.0841 71.7417 33.0525C75.1975 40.6543 73.4798 51.3451 65.6946 55.6831C58.515 59.7882 49.9263 58.1695 42.0421 58.5072C41.8296 62.3911 42.9156 66.9096 40.2079 70.1937C39.119 71.7659 34.1259 73.6379 34.1259 73.6379C34.1259 73.6379 33.6659 69.4193 33.4971 59.9251C33.3893 57.3048 33.8173 54.3642 36.0679 52.661C38.7027 50.396 42.4381 51.1034 45.6377 50.987C50.4707 50.8589 55.5483 51.5984 60.1367 49.7351C66.8679 46.9838 67.1125 35.7485 60.3288 32.9157C53.4025 30.2314 45.7542 32.6741 38.6387 31.1892C35.407 30.2838 33.9542 27.1016 33.2409 24.1436ZM21.0361 37.0412C26.9463 37.1489 32.8682 36.8345 38.7668 37.1897C43.0553 37.5187 45.8707 41.4025 46.319 45.3737C40.3681 45.3446 34.4025 45.563 28.4486 45.3009C24.7919 45.0884 22.093 42.1187 21.0361 38.8434V37.0441V37.0412Z" fill="white"/>
</g>
<defs>
<clipPath id="clip0_342_6247">
<rect width="93.1659" height="93.1659" fill="white" transform="translate(0.655273 0.852539)"/>
</clipPath>
</defs>
</svg>
