<svg width="94" height="95" viewBox="0 0 94 95" fill="none" xmlns="http://www.w3.org/2000/svg">
<g clip-path="url(#clip0_342_6251)">
<path d="M46.7519 94.0184C72.4789 94.0184 93.3348 73.1625 93.3348 47.4355C93.3348 21.7084 72.4789 0.852539 46.7519 0.852539C21.0248 0.852539 0.168945 21.7084 0.168945 47.4355C0.168945 73.1625 21.0248 94.0184 46.7519 94.0184Z" fill="#1347E8"/>
<path d="M46.7518 15.4092C29.0649 15.4092 14.7261 29.748 14.7261 47.4349C14.7261 65.1219 29.0649 79.4607 46.7518 79.4607C64.4388 79.4607 78.7776 65.1219 78.7776 47.4349C78.7776 29.748 64.4388 15.4092 46.7518 15.4092ZM77.1472 46.1248L74.556 46.151L74.5444 45.065L77.1385 45.0417L77.1501 46.1248H77.1472ZM76.4834 40.5261L73.9126 40.8842L73.7641 39.807L76.332 39.4518L76.4834 40.529V40.5261ZM74.2707 33.7075L74.7191 34.6974L72.3579 35.7688L71.9095 34.7819L74.2678 33.7075H74.2707ZM71.0332 28.7727L71.7494 29.5879L69.7988 31.2998L69.0854 30.4846L71.0332 28.7727ZM67.2338 24.717L68.0548 25.4274L66.3633 27.3897L65.5393 26.6822L67.2338 24.717ZM62.7065 21.0515L63.6149 21.6426L62.2028 23.8174L61.2945 23.2293L62.7065 21.0515ZM57.5533 18.5099L58.6043 18.7864L57.9463 21.2932L56.8953 21.0166L57.5562 18.5128L57.5533 18.5099ZM51.8905 17.1182L52.9707 17.2055L52.7552 19.7909L51.6751 19.7006L51.8905 17.1182ZM46.0269 16.434H47.1099V19.0281H46.0269V16.434ZM41.2114 17.1182L41.4268 19.7006L40.3438 19.7938L40.1283 17.2084L41.2114 17.1182ZM35.5457 18.5099L36.2037 21.0166L35.1556 21.2932L34.4947 18.7894L35.5428 18.5099H35.5457ZM30.3954 21.0515L31.8075 23.2293L30.8962 23.8174L29.4841 21.6426L30.3954 21.0515ZM25.8681 24.7199L27.5597 26.6822L26.7386 27.3897L25.0471 25.4274L25.8681 24.717V24.7199ZM22.0716 28.7668L24.0223 30.4788L23.3032 31.294L21.3554 29.585L22.0716 28.7697V28.7668ZM18.837 33.7046L21.1953 34.7789L20.7498 35.7688L18.3887 34.6916L18.837 33.7046ZM16.7728 39.4489L19.3436 39.8041L19.1922 40.8813L16.6243 40.5232L16.7728 39.446V39.4489ZM15.9693 45.0388L18.5604 45.0621L18.5517 46.1481L15.9605 46.1219L15.9693 45.0388ZM16.208 51.1296L18.7875 50.8675L18.8952 51.9448L16.3157 52.2068L16.208 51.1296ZM17.3813 56.6438L19.9084 56.0557L20.1559 57.1126L17.6288 57.7007L17.3813 56.6438ZM20.2083 63.2324L19.6726 62.2891L21.9231 61.0022L22.4618 61.9455L20.2083 63.2324ZM23.8825 67.8528L23.0935 67.1075L24.8782 65.2238L25.6643 65.9691L23.8825 67.8528ZM28.0313 71.5416L27.1492 70.9127L28.6544 68.799L29.5365 69.4308L28.0313 71.5416ZM32.876 74.7762L31.9152 74.2725L33.1205 71.9783L34.0813 72.482L32.876 74.7762ZM38.2359 76.8375L37.1645 76.657L37.5925 74.1008L38.6639 74.2813L38.2359 76.8375ZM42.9204 77.7168L42.9 75.1227L43.986 75.111L44.0064 77.7051L42.9204 77.7168ZM19.792 47.4349C19.792 32.5692 31.8861 20.4751 46.7518 20.4751C61.6176 20.4751 73.7117 32.5692 73.7117 47.4349C73.7117 62.3007 61.6176 74.3948 46.7518 74.3948C31.8861 74.3948 19.792 62.3007 19.792 47.4349ZM48.8655 77.9497L48.8306 77.9526L48.5948 75.3731L49.6749 75.2741L49.7099 75.2682L49.9457 77.8507L48.8655 77.9497ZM54.6447 76.7327L54.1935 74.1794L55.262 73.9901L55.7132 76.5464L54.6447 76.7327ZM60.159 74.8286L59.271 72.3918L60.29 72.022L61.178 74.4589L60.159 74.8286ZM65.0531 71.8298L63.4518 69.7918L64.302 69.1164L65.9062 71.1544L65.0531 71.8269V71.8298ZM69.2281 67.7626L67.3648 65.9633L68.1159 65.1801L69.9793 66.9852L69.2281 67.7626ZM72.6403 63.3809L70.5441 61.8524L71.1846 60.976L73.2808 62.5016L72.6403 63.3809ZM75.412 58.1694L72.9606 57.3134L73.3187 56.2886L75.7672 57.1446L75.412 58.1665V58.1694ZM76.9405 52.2592L74.3493 52.1427L74.3988 51.0568L76.99 51.1761L76.9405 52.2592ZM57.0467 61.2119H57.0438C57.4776 61.6777 57.4892 62.3881 57.0612 62.8131C56.6332 63.2353 55.9258 63.2149 55.4629 62.7724V62.7753L54.6535 61.9601L52.8134 60.0939C51.6194 60.6633 50.3036 60.9303 48.982 60.8712H43.9219C39.3393 61.0401 35.1061 58.7517 35.4497 51.3101C35.4613 50.9985 35.4293 46.9924 35.4293 46.6751L35.438 43.6705C35.4293 36.2463 37.2431 32.8807 42.2449 31.6899C42.8127 31.5531 45.9075 31.4861 46.4985 31.4861H46.7635C47.3574 31.4861 50.0883 31.5531 50.6561 31.6899C55.6579 32.8807 57.4717 36.2463 57.463 43.6705L57.4717 46.678C57.4717 46.9953 57.4397 50.9985 57.4543 51.313C57.6406 55.3308 56.4877 57.0776 54.668 58.807L56.2402 60.3937L57.0467 61.2119ZM49.3052 58.51C49.8845 58.51 50.4581 58.4285 51.0113 58.2655L49.9748 57.2174L49.1654 56.3963C48.7287 55.9305 48.72 55.223 49.148 54.8009C49.5759 54.3758 50.2834 54.3962 50.7463 54.8358L51.5528 55.651L53.0056 57.1242C53.0803 57.0563 53.1522 56.9854 53.221 56.9117C54.5778 55.4909 55.2241 54.303 55.0931 51.4207C55.0844 51.2169 55.0815 51.214 55.1018 47.598L55.1077 46.6751L55.1047 44.6429C55.1018 43.4026 55.0989 43.8393 55.0989 43.6676C55.1018 40.3776 54.7292 37.5186 53.9285 36.2288C53.454 35.4602 52.6329 34.5984 50.1495 33.9987C49.0241 33.9063 47.8956 33.8568 46.7664 33.8502H46.4985C45.7503 33.8502 43.2465 33.9259 42.7574 33.9987C40.271 34.5984 39.45 35.4602 38.9754 36.2288C38.1748 37.5186 37.8021 40.3776 37.8079 43.6676C37.8079 43.8422 37.805 43.4026 37.8021 44.6429C37.8013 45.6279 37.8013 46.613 37.8021 47.598C37.8225 51.214 37.8225 51.2198 37.8108 51.4207C37.6798 54.303 38.3291 55.4909 39.6858 56.9117C40.9464 58.2335 42.5099 58.513 43.5988 58.513L43.8346 58.5071L43.8783 58.5042H49.0693C49.1479 58.51 49.2266 58.51 49.3052 58.51Z" fill="white"/>
</g>
<defs>
<clipPath id="clip0_342_6251">
<rect width="93.1659" height="93.1659" fill="white" transform="translate(0.169922 0.852539)"/>
</clipPath>
</defs>
</svg>
