<svg width="94" height="95" viewBox="0 0 94 95" fill="none" xmlns="http://www.w3.org/2000/svg">
<g clip-path="url(#clip0_342_6255)">
<path d="M47.2665 94.0184C72.9936 94.0184 93.8495 73.1625 93.8495 47.4355C93.8495 21.7084 72.9936 0.852539 47.2665 0.852539C21.5395 0.852539 0.683594 21.7084 0.683594 47.4355C0.683594 73.1625 21.5395 94.0184 47.2665 94.0184Z" fill="#FF8C00"/>
<path d="M66.4527 57.4655C66.6012 58.633 66.2693 59.0843 65.8995 59.0843C65.5298 59.0843 65.0116 58.633 64.4584 57.7304C63.9052 56.8279 63.681 55.8089 63.978 55.2848C64.1614 54.9442 64.569 54.7928 65.0494 54.9821C66.0102 55.3605 66.3799 56.825 66.4527 57.4655ZM61.2791 60.0276C62.4233 61.0058 62.7581 62.1325 62.1642 62.9623C61.9777 63.1801 61.7451 63.3537 61.4833 63.4705C61.2214 63.5874 60.9369 63.6445 60.6502 63.6377C60.012 63.6441 59.3936 63.4162 58.9121 62.9972C57.8786 62.0947 57.5816 60.5895 58.2454 59.7626C58.3871 59.5872 58.5684 59.448 58.7744 59.3564C58.9804 59.2648 59.2052 59.2234 59.4303 59.2357C60.0214 59.2357 60.6881 59.4977 61.2791 60.0247V60.0276ZM21.0635 44.2156C21.0635 29.9117 32.4472 18.3213 46.4919 18.3213C60.5396 18.3213 71.9233 29.9146 71.9233 44.2156C71.9236 48.8837 70.687 53.4685 68.3393 57.5034C68.2636 57.6169 68.0773 57.5791 68.0424 57.4277C67.1573 51.0662 63.3491 47.5666 57.8058 46.5127C57.3225 46.437 57.2497 46.1342 57.8786 46.0614C59.5788 45.91 61.9808 45.9479 63.2356 46.175C63.3122 45.512 63.3501 44.8451 63.3491 44.1777C63.3491 34.7301 55.8085 27.0527 46.5298 27.0527C37.254 27.0527 29.7133 34.7301 29.7133 44.1777C29.7133 53.6282 37.254 61.3057 46.5298 61.3057H47.3071C47.0432 59.7774 46.931 58.2268 46.9723 56.6765C47.0102 55.6226 47.2344 55.4712 47.6769 56.298C50.006 60.4031 53.3309 64.0919 59.8379 65.5564C65.16 66.7646 70.4821 68.1563 76.2118 75.5717C76.7272 76.2122 75.9527 76.8877 75.3617 76.3607C69.5214 71.091 64.1993 69.3587 59.3576 69.3587C53.9219 69.3995 50.2273 70.1157 46.4919 70.1157C32.4472 70.1157 21.0635 58.5165 21.0635 44.2127V44.2156Z" fill="white"/>
</g>
<defs>
<clipPath id="clip0_342_6255">
<rect width="93.1659" height="93.1659" fill="white" transform="translate(0.683594 0.852539)"/>
</clipPath>
</defs>
</svg>
