<svg width="94" height="95" viewBox="0 0 94 95" fill="none" xmlns="http://www.w3.org/2000/svg">
<g clip-path="url(#clip0_342_6259)">
<path d="M46.7812 94.0184C72.5082 94.0184 93.3641 73.1625 93.3641 47.4355C93.3641 21.7084 72.5082 0.852539 46.7812 0.852539C21.0541 0.852539 0.198242 21.7084 0.198242 47.4355C0.198242 73.1625 21.0541 94.0184 46.7812 94.0184Z" fill="#610089"/>
<path fill-rule="evenodd" clip-rule="evenodd" d="M48.2081 15.4174C63.1437 16.221 75.232 26.5857 78.1987 41.236C78.5889 43.1692 78.6937 45.1694 78.8014 47.1462C78.8975 48.8931 77.7591 50.0722 76.184 50.0693C74.641 50.0693 73.6307 48.9513 73.5928 47.2161C73.3104 34.4436 64.6839 23.9101 52.2287 21.2461C50.3654 20.8502 48.4206 20.8443 46.5165 20.6289C45.0666 20.4659 44.1059 19.3508 44.1466 17.9358C44.1874 16.5354 45.2355 15.4931 46.697 15.4203C47.2007 15.3971 47.7044 15.4174 48.2081 15.4174ZM45.4189 79.4602C31.0859 79.0293 18.1941 68.1639 15.4748 54.0958C15.0614 51.9414 14.9042 49.7316 14.7615 47.5393C14.6742 46.2 15.5272 45.2392 16.7704 44.919C17.801 44.6511 19.0006 45.0908 19.5246 46.0719C19.7866 46.5698 19.9118 47.1986 19.9235 47.7722C20.136 60.0119 28.4132 70.5454 40.2919 73.4743C42.4347 74.0042 44.694 74.0886 46.9066 74.3245C48.1702 74.4555 49.1834 75.3143 49.3522 76.5459C49.5124 77.7105 48.7787 79.0119 47.6636 79.2885C46.9445 79.466 46.1671 79.4107 45.4189 79.4602ZM46.7349 35.78C53.0731 35.7596 58.3952 40.9565 58.4388 47.2074C58.4534 49.3618 56.4794 50.7186 54.654 49.7898C53.6641 49.289 53.239 48.4506 53.1983 47.3355C53.1678 45.8265 52.606 44.3767 51.6117 43.2413C50.6174 42.1058 49.2543 41.3576 47.7626 41.1283C44.4086 40.5577 41.1478 42.8344 40.4957 46.2029C39.829 49.6442 41.9834 52.9953 45.3374 53.7202C45.7974 53.8192 46.269 53.8746 46.7349 53.9008C48.2954 53.9823 49.3901 55.0566 49.3785 56.521C49.3668 58.0059 48.1935 59.1064 46.6039 59.121C41.6078 59.1646 36.8971 55.5195 35.5346 50.5584C33.4995 43.1488 39.0662 35.8033 46.7349 35.78ZM68.7307 46.7183C68.6725 47.2132 68.6929 47.8333 68.5124 48.3865C68.1339 49.5627 66.882 50.244 65.6592 50.046C64.3869 49.8364 63.4814 48.7941 63.4669 47.3675C63.4465 45.1956 63.0942 43.0877 62.2033 41.1167C59.254 34.6096 54.2085 31.1188 47.0522 30.7811C45.3024 30.6937 44.1408 29.6689 44.1524 28.1025C44.167 26.5362 45.3374 25.5143 47.1134 25.5201C57.7983 25.5405 67.1353 33.809 68.4891 44.4561C68.5823 45.1752 68.6434 45.8943 68.7307 46.7183ZM24.8817 48.0604C24.7332 46.8755 25.036 45.708 26.3898 45.0849C28.1716 44.261 30.0378 45.5362 30.0727 47.6295C30.1077 49.6355 30.4512 51.5658 31.1733 53.4349C32.3479 56.5271 34.4181 59.1988 37.1191 61.1083C39.82 63.0179 43.0291 64.0786 46.336 64.1548C48.5953 64.2131 49.9083 65.8493 49.1892 67.7068C48.7874 68.7549 47.9024 69.3634 46.6912 69.3517C40.2802 69.2935 34.8737 66.8916 30.5502 62.1838C26.989 58.3339 24.971 53.307 24.8817 48.0633V48.0604ZM58.4621 56.2707C58.3544 57.5721 57.909 58.396 56.9307 58.8531C55.9583 59.3073 54.9713 59.2374 54.194 58.5183C52.7854 57.2125 51.4248 55.8559 50.115 54.451C49.2125 53.4844 49.2998 51.9617 50.1849 51.0097C51.0875 50.0402 52.7004 49.8393 53.6874 50.7448C55.1489 52.0782 56.5318 53.5048 57.8798 54.9576C58.235 55.3419 58.334 55.9621 58.4621 56.2678V56.2707Z" fill="white"/>
</g>
<defs>
<clipPath id="clip0_342_6259">
<rect width="93.1659" height="93.1659" fill="white" transform="translate(0.197266 0.852539)"/>
</clipPath>
</defs>
</svg>
