<svg width="94" height="95" viewBox="0 0 94 95" fill="none" xmlns="http://www.w3.org/2000/svg">
<g clip-path="url(#clip0_342_6263)">
<path d="M47.2944 94.0184C73.0214 94.0184 93.8773 73.1625 93.8773 47.4355C93.8773 21.7084 73.0214 0.852539 47.2944 0.852539C21.5673 0.852539 0.711426 21.7084 0.711426 47.4355C0.711426 73.1625 21.5673 94.0184 47.2944 94.0184Z" fill="#252525"/>
<path d="M75.3258 62.6013C75.6172 62.6074 75.8944 62.7283 76.0972 62.9376C76.3 63.147 76.412 63.4279 76.4088 63.7193V69.2714H58.128L58.0581 64.4384C58.0591 64.2808 58.0943 64.1253 58.1611 63.9826C58.2279 63.8399 58.3249 63.7133 58.4453 63.6116C58.5175 63.5186 58.5995 63.4337 58.6899 63.3583C66.7458 57.7392 69.8406 47.0397 66.0907 37.7843C62.3379 28.5288 52.7796 23.2911 43.2447 25.2651C33.7127 27.2361 26.8504 35.8744 26.8475 45.9072C26.8417 52.7636 30.1083 59.1833 35.5847 63.0701C35.704 63.1369 35.8011 63.237 35.8642 63.3583C36.0631 63.4512 36.2315 63.5988 36.3496 63.7839C36.4676 63.969 36.5306 64.1839 36.5309 64.4035L36.4611 69.2365H18.1802V63.6815C18.1802 63.0642 18.6664 62.5635 19.2632 62.5635C19.8601 62.5635 20.3463 63.0642 20.3463 63.6815V67.0354H34.327L34.3619 64.945H34.327C26.2885 59.1163 22.8385 48.5886 25.7965 38.9226C28.7632 29.2567 37.4539 22.6885 47.28 22.6885C57.106 22.6885 65.7967 29.2567 68.7576 38.9226C71.7185 48.5886 68.2685 59.1163 60.2271 64.945L60.2649 67.0704H74.2456V63.7193C74.2425 63.4279 74.3545 63.147 74.5573 62.9376C74.7601 62.7283 75.0373 62.6074 75.3287 62.6013H75.3258ZM60.8909 47.5317C63.3016 50.5975 64.0352 53.3371 62.9871 55.1393C62.1836 56.5455 60.4717 57.3025 57.9882 57.3025C56.4287 57.2645 54.8798 57.0347 53.3765 56.6183C52.0139 61.3785 49.81 64.4443 47.2945 64.4443C44.779 64.4443 42.578 61.3785 41.2475 56.6183C39.7441 57.0347 38.1952 57.2645 36.6357 57.3025C34.1523 57.3025 32.4404 56.5455 31.6368 55.1393C30.3441 52.9033 31.8115 49.4067 35.1655 45.8373C34.6583 45.3105 34.1801 44.7565 33.7331 44.1778C31.3224 41.112 30.5887 38.4073 31.6368 36.5323C32.4404 35.1261 34.1523 34.3691 36.6357 34.3691C38.1954 34.4081 39.7442 34.6389 41.2475 35.0562C42.61 30.2961 44.814 27.2303 47.3294 27.2303C49.8449 27.2303 52.046 30.2961 53.3765 35.0912C54.8798 34.6748 56.4287 34.445 57.9882 34.407C60.4717 34.407 62.1836 35.164 62.9871 36.5702C64.0352 38.4452 63.3016 41.1499 60.8909 44.2156C60.4434 44.794 59.9653 45.3479 59.4585 45.8751C59.9651 46.3992 60.4425 46.9524 60.8909 47.5317ZM58.0231 35.7404C56.5726 35.7861 55.1315 35.9911 53.7259 36.3518C54.1014 38.0638 54.3664 39.799 54.5294 41.5458C55.9094 42.5648 57.2283 43.6741 58.4802 44.8649C58.9694 44.3583 59.4235 43.8167 59.8428 43.3131C61.8342 40.751 62.5679 38.5529 61.8342 37.2194C61.1704 35.9937 59.3886 35.7404 58.0231 35.7404ZM50.337 51.2817C51.3501 50.6703 52.3284 50.021 53.2367 49.3718C53.3416 48.2159 53.3765 47.063 53.3765 45.8373C53.3765 44.6116 53.3066 43.4208 53.2367 42.3028C52.2932 41.6414 51.3249 41.0159 50.334 40.4278C49.336 39.8593 48.3225 39.3186 47.2945 38.8062C46.2522 39.2895 45.239 39.831 44.255 40.4278C43.2069 41.0392 42.2606 41.6536 41.3523 42.3028C41.2475 43.4208 41.2125 44.6116 41.2125 45.8373C41.2125 47.0601 41.2824 48.2538 41.3523 49.3718C43.2408 50.6976 45.2273 51.8781 47.2945 52.9033C48.3368 52.42 49.35 51.8785 50.334 51.2817H50.337ZM53.097 51.1739C52.3983 51.6048 51.7344 52.0386 51.0357 52.4724C50.337 52.9033 49.6382 53.3022 48.9395 53.6603C50.0866 54.1785 51.2657 54.624 52.4681 54.9967C52.7127 53.8059 52.9223 52.5423 53.097 51.1739ZM45.7223 53.6603L43.6261 52.4724C42.9274 52.0386 42.2286 51.6048 41.5619 51.1739C41.6871 52.4608 41.8967 53.736 42.1908 54.9967C43.3903 54.6182 44.5694 54.1727 45.7223 53.6603ZM39.9897 48.3236C39.948 47.4955 39.9247 46.6665 39.9198 45.8373C39.9198 44.9726 39.9548 44.1778 39.9897 43.348C38.9736 44.1166 38.0041 44.9464 37.0899 45.8373C38.0099 46.7194 38.9795 47.5521 39.9897 48.3236ZM41.5619 40.5734C42.2187 40.1121 42.8947 39.6789 43.5883 39.2749C44.3248 38.8411 45.0236 38.4452 45.7223 38.0841C44.5723 37.5659 43.3932 37.1234 42.1908 36.7507C41.9462 37.9386 41.7366 39.2021 41.5619 40.5734ZM48.9016 38.0841C49.6004 38.4452 50.2991 38.8411 50.9978 39.2749C51.6966 39.7058 52.3953 40.1396 53.0621 40.5734C52.9382 39.2865 52.7281 38.0094 52.4332 36.7507C51.2337 37.1292 50.0545 37.5717 48.9016 38.0841ZM54.6692 43.3829C54.7041 44.2156 54.739 45.0075 54.739 45.8722C54.739 46.7369 54.7041 47.5667 54.6692 48.3615C55.6824 47.5317 56.6606 46.702 57.534 45.8722C56.6355 44.9806 55.6784 44.1499 54.6692 43.3859V43.3829ZM47.3294 28.6016C45.5476 28.6016 43.7309 31.1258 42.5401 35.4144C44.1764 35.9297 45.7747 36.5556 47.3294 37.2864C48.8822 36.5567 50.4822 35.9323 52.1188 35.4173C50.928 31.1258 49.0763 28.6016 47.3294 28.6016ZM32.8247 37.2194C32.0561 38.5529 32.7897 40.7889 34.8161 43.2752C35.2354 43.8138 35.6895 44.3175 36.1787 44.859C37.4247 43.6654 38.7407 42.559 40.1295 41.5458C40.2896 39.799 40.5575 38.0638 40.933 36.3547C39.5297 35.9763 38.0856 35.7725 36.6357 35.7404C35.2703 35.7404 33.5234 35.9937 32.8247 37.2194ZM36.6357 55.9691C38.0886 55.94 39.5326 55.7216 40.933 55.3169C40.5583 53.6058 40.29 51.8731 40.1295 50.1287C38.7232 49.1272 37.3927 48.0179 36.1437 46.8097C33.1391 50.021 31.9513 52.9033 32.8247 54.4901C33.4885 55.7158 35.2703 55.9691 36.6357 55.9691ZM47.3294 63.1079C49.0763 63.1079 50.928 60.5837 52.1188 56.2952C50.4821 55.7783 48.882 55.1519 47.3294 54.4202C45.7763 55.1505 44.1763 55.7768 42.5401 56.2952C43.7309 60.5837 45.5826 63.1079 47.3294 63.1079ZM61.8342 54.4901C62.5679 53.1916 61.8342 50.9585 59.8428 48.3964C59.4085 47.863 58.9539 47.3463 58.4802 46.8476C57.2341 48.0412 55.9182 49.1476 54.5294 50.1666C54.3695 51.9119 54.1011 53.6456 53.7259 55.3577C55.1292 55.7332 56.5732 55.94 58.0231 55.9691C59.3886 55.9691 61.1355 55.7158 61.8342 54.4901ZM47.3294 40.5734C50.1535 40.5734 52.4477 42.9229 52.4681 45.8373C52.4681 48.74 50.1885 51.0953 47.376 51.1012C44.5636 51.107 42.2752 48.7633 42.2606 45.8606C42.249 42.9579 44.517 40.5909 47.3294 40.5734ZM47.3294 49.7677C49.4082 49.7503 51.0881 48.0179 51.1056 45.8722C51.1056 43.7207 49.4169 41.9796 47.3294 41.9796C45.2419 41.9796 43.5533 43.7207 43.5533 45.8722C43.5533 48.0238 45.2449 49.7677 47.3294 49.7677Z" fill="white"/>
</g>
<defs>
<clipPath id="clip0_342_6263">
<rect width="93.1659" height="93.1659" fill="white" transform="translate(0.711426 0.852539)"/>
</clipPath>
</defs>
</svg>
