<svg width="94" height="95" viewBox="0 0 94 95" fill="none" xmlns="http://www.w3.org/2000/svg">
<g clip-path="url(#clip0_342_6267)">
<path d="M46.8085 94.0184C72.5356 94.0184 93.3915 73.1625 93.3915 47.4355C93.3915 21.7084 72.5356 0.852539 46.8085 0.852539C21.0815 0.852539 0.225586 21.7084 0.225586 47.4355C0.225586 73.1625 21.0815 94.0184 46.8085 94.0184Z" fill="#454545"/>
<path fill-rule="evenodd" clip-rule="evenodd" d="M33.7069 47.4353C33.7069 40.2121 39.5851 34.3339 46.8084 34.3339C54.0316 34.3339 59.9098 40.2121 59.9098 47.4353C59.9098 49.3365 59.4935 51.1387 58.7627 52.772L50.1158 44.125L43.501 50.7427L52.1479 59.3897C50.4693 60.1456 48.6493 60.5365 46.8084 60.5368C43.3348 60.5329 40.0047 59.1514 37.5485 56.6952C35.0923 54.239 33.7108 50.9089 33.7069 47.4353ZM68.0997 47.4353C68.1034 43.3231 66.9097 39.2987 64.6642 35.8536L73.0113 27.5037L66.74 21.2324L58.3901 29.5824C55.0536 27.4134 51.0824 26.144 46.8084 26.144C42.5344 26.144 38.5632 27.4134 35.2267 29.5795L26.8767 21.2324L20.6055 27.5037L28.9555 35.8536C26.7864 39.1901 25.5171 43.1613 25.5171 47.4353C25.5171 51.7093 26.7894 55.6805 28.9555 59.017L20.6055 67.367L26.8767 73.6382L35.2267 65.2882C38.5632 67.4573 42.5344 68.7266 46.8084 68.7266C51.0824 68.7266 55.0536 67.4573 58.3901 65.2882L66.74 73.6382L73.0113 67.367L64.6613 59.017C66.9079 55.5723 68.1027 51.5479 68.0997 47.4353Z" fill="white"/>
</g>
<defs>
<clipPath id="clip0_342_6267">
<rect width="93.1659" height="93.1659" fill="white" transform="translate(0.225586 0.852539)"/>
</clipPath>
</defs>
</svg>
