<svg width="94" height="95" viewBox="0 0 94 95" fill="none" xmlns="http://www.w3.org/2000/svg">
<g clip-path="url(#clip0_342_6271)">
<path d="M47.3229 94.0184C73.05 94.0184 93.9059 73.1625 93.9059 47.4355C93.9059 21.7084 73.05 0.852539 47.3229 0.852539C21.5959 0.852539 0.73999 21.7084 0.73999 47.4355C0.73999 73.1625 21.5959 94.0184 47.3229 94.0184Z" fill="#2E9AD0"/>
<path d="M74.4372 69.6673L68.6929 64.5549L57.0705 73.2746C57.2092 73.579 57.2807 73.9096 57.2801 74.2441C57.2848 74.85 57.0489 75.4331 56.6243 75.8653C56.1997 76.2976 55.6209 76.5438 55.015 76.55C54.4829 76.5469 53.9686 76.3577 53.5613 76.0153C53.154 75.6728 52.8793 75.1987 52.7849 74.675H40.2366C40.1422 75.1982 39.868 75.672 39.4613 76.0143C39.0546 76.3567 38.541 76.5462 38.0094 76.55C37.4029 76.5446 36.8235 76.2987 36.3982 75.8664C35.9729 75.434 35.7367 74.8505 35.7413 74.2441C35.7407 73.9118 35.8112 73.5832 35.9481 73.2804L25.6241 65.5942C25.2127 65.9672 24.6772 66.1737 24.1218 66.1736C23.5154 66.1682 22.9359 65.9224 22.5107 65.49C22.0854 65.0576 21.8492 64.4742 21.8538 63.8678C21.8538 62.9943 22.3313 62.2344 23.0359 61.8414L19.2423 49.7298C18.9248 49.7578 18.605 49.7192 18.3033 49.6164C18.0017 49.5136 17.7248 49.349 17.4905 49.133C17.2561 48.917 17.0695 48.6545 16.9425 48.3622C16.8155 48.0699 16.7509 47.7543 16.753 47.4356C16.7511 47.1109 16.8183 46.7894 16.9502 46.4927C17.0821 46.1959 17.2756 45.9306 17.518 45.7144C17.7603 45.4982 18.0459 45.3361 18.3558 45.2388C18.6656 45.1415 18.9926 45.1113 19.315 45.1501L23.0446 33.0357C22.6822 32.8348 22.3805 32.5401 22.171 32.1826C21.9615 31.8251 21.8519 31.4179 21.8538 31.0035C21.8538 29.7312 22.8699 28.6976 24.1218 28.6976C24.7099 28.6976 25.2456 28.9247 25.6474 29.2974L36.05 21.7859C35.8476 21.4333 35.7412 21.0337 35.7413 20.6271C35.7413 19.3548 36.7574 18.3213 38.0094 18.3213C39.1157 18.3213 40.0386 19.1278 40.2366 20.1963H52.7849C52.8793 19.6726 53.154 19.1984 53.5613 18.856C53.9686 18.5136 54.4829 18.3244 55.015 18.3213C56.267 18.3213 57.2801 19.3548 57.2801 20.6271C57.281 21.0131 57.186 21.3933 57.0035 21.7335L67.3391 29.3323C67.7577 28.9252 68.3187 28.6975 68.9026 28.6976C70.1545 28.6976 71.1677 29.7312 71.1677 31.0035C71.1694 31.3863 71.0761 31.7635 70.8962 32.1014C70.7164 32.4393 70.4555 32.7273 70.137 32.9396L73.852 45.1356C74.165 45.1141 74.4791 45.158 74.7742 45.2645C75.0693 45.3709 75.3391 45.5376 75.5664 45.7539C75.7936 45.9702 75.9734 46.2314 76.0943 46.5209C76.2151 46.8104 76.2745 47.1219 76.2685 47.4356C76.2709 47.7421 76.2118 48.0459 76.0945 48.329C75.9773 48.6122 75.8044 48.8689 75.5861 49.084C75.3678 49.299 75.1085 49.468 74.8236 49.581C74.5387 49.6939 74.2341 49.7485 73.9277 49.7415L69.5693 63.8037L75.1505 68.7706C75.7676 68.2112 76.571 67.9018 77.404 67.903C79.2818 67.903 80.8045 69.4519 80.8045 71.3618C80.8045 73.2717 79.2818 74.8206 77.404 74.8206C76.9536 74.8168 76.5083 74.7243 76.0937 74.5484C75.679 74.3725 75.3031 74.1167 74.9873 73.7955C74.6715 73.4743 74.4221 73.0941 74.2533 72.6765C74.0845 72.2589 73.9996 71.8122 74.0034 71.3618C74.0034 70.7446 74.1606 70.1681 74.4401 69.6673H74.4372ZM55.2072 71.947L59.5365 62.1966C59.1809 61.9028 58.9213 61.5094 58.7912 61.067L48.7467 62.5285C48.6754 62.9555 48.4858 63.3539 48.1994 63.6785L54.1591 72.1071C54.4905 71.9701 54.85 71.9152 55.2072 71.947ZM56.3514 72.3837L67.6157 63.9318L62.7594 61.8181C62.509 62.1497 62.1715 62.4055 61.7846 62.5571C61.3976 62.7087 60.9762 62.7502 60.5671 62.677L56.2786 72.3313C56.3032 72.3473 56.3274 72.3638 56.3514 72.3808V72.3837ZM53.2507 72.7942L47.2532 64.3161C46.7727 64.4857 46.2487 64.4857 45.7683 64.3161L39.7708 72.7942C39.9444 73.0113 40.0776 73.2578 40.1638 73.5221H52.8577C52.9439 73.2578 53.077 73.0113 53.2507 72.7942ZM72.8388 49.4154C72.5004 49.2079 72.2211 48.9168 72.0278 48.57C71.8346 48.2233 71.7339 47.8326 71.7354 47.4356C71.7354 46.6204 72.1488 45.9071 72.7748 45.4966L69.2636 33.9673L68.4775 45.2462C69.38 45.549 70.0351 46.4137 70.0351 47.4356C70.0373 47.9146 69.8902 48.3823 69.6141 48.7736C69.3381 49.165 68.9469 49.4606 68.495 49.6192L69.2694 60.933L72.8388 49.4154ZM66.2765 45.6975L61.6648 36.6575C61.2891 36.7818 60.8872 36.8039 60.5002 36.7215L56.4475 45.6509C56.7088 45.869 56.9189 46.142 57.0628 46.4504C57.2067 46.7589 57.2809 47.0952 57.2801 47.4356C57.2808 47.7815 57.2039 48.1232 57.0553 48.4355C56.9067 48.7479 56.6901 49.023 56.4213 49.2407L60.5992 58.1322C60.8993 58.0826 61.2063 58.0945 61.5017 58.1672L66.2153 49.1126C65.9887 48.896 65.8084 48.6358 65.6853 48.3475C65.5622 48.0593 65.4989 47.7491 65.4991 47.4356C65.4991 46.7427 65.8019 46.1197 66.2765 45.6975ZM67.3653 49.7065C67.3125 49.6968 67.2601 49.6851 67.2081 49.6716L62.5003 58.7087C62.7764 58.9668 62.9853 59.2884 63.1086 59.6457C63.2319 60.0029 63.2659 60.3849 63.2078 60.7583L68.2737 62.9652L67.3653 49.7065ZM67.3479 45.1705L68.1805 33.1929C67.7419 33.042 67.3599 32.7606 67.0858 32.3864L63.1903 34.0139C63.2586 34.3721 63.2428 34.7413 63.1443 35.0924C63.0458 35.4435 62.8672 35.7669 62.6226 36.0374L67.2925 45.1793C67.3109 45.1761 67.3294 45.1732 67.3479 45.1705ZM55.3877 49.7124C55.0627 49.7667 54.7297 49.7488 54.4124 49.66L48.2314 60.6361C48.4164 60.8545 48.5595 61.1052 48.6536 61.3756L58.7504 59.9082C58.8669 59.3812 59.158 58.9183 59.5598 58.5981L55.3877 49.7065V49.7124ZM55.4168 45.1676L59.4841 36.2091C59.0708 35.846 58.8003 35.3474 58.7213 34.8029L48.6041 33.3326C48.4928 33.6043 48.3307 33.8524 48.1266 34.0634L54.3541 45.2288C54.6992 45.1225 55.0648 45.1016 55.4197 45.1676H55.4168ZM53.4312 49.0864C53.2136 48.8702 53.0411 48.613 52.9236 48.3296C52.8062 48.0462 52.7462 47.7424 52.747 47.4356C52.747 46.8126 52.9916 46.2448 53.3875 45.8314L47.1571 34.6573C46.8097 34.7626 46.442 34.7816 46.0857 34.7127L39.6601 45.8547C40.0581 46.2848 40.2786 46.8496 40.2774 47.4356C40.2792 48.0438 40.0418 48.6284 39.6165 49.0631L45.9285 59.9082C46.3803 59.7868 46.8589 59.8102 47.2968 59.9752L53.4312 49.0864ZM20.3078 49.3339L23.9238 60.8806L24.7769 49.6891C24.2671 49.5726 23.8123 49.2859 23.4874 48.8763C23.1624 48.4666 22.9867 47.9585 22.9893 47.4356C22.9866 46.906 23.1668 46.3917 23.4993 45.9796C23.8319 45.5675 24.2965 45.2827 24.8147 45.1734L23.9326 34.011L20.3719 45.584C20.6577 45.8005 20.8894 46.0804 21.0485 46.4018C21.2077 46.7231 21.29 47.077 21.289 47.4356C21.289 48.2217 20.8989 48.9205 20.3078 49.3339ZM31.6275 58.1439C31.9635 58.078 32.31 58.09 32.6407 58.1788L36.6293 49.2669C36.3517 49.0494 36.1274 48.7713 35.9736 48.454C35.8197 48.1366 35.7403 47.7883 35.7413 47.4356C35.7413 46.7136 36.0674 46.0702 36.5769 45.648L32.5242 36.7215C32.2444 36.7806 31.9558 36.7855 31.6741 36.7361L26.7858 45.7353C27.0194 45.9526 27.2057 46.2157 27.333 46.5083C27.4602 46.8009 27.5257 47.1166 27.5253 47.4356C27.5262 47.7458 27.4648 48.0531 27.3448 48.3392C27.2248 48.6252 27.0485 48.8843 26.8265 49.101L31.6304 58.1439H31.6275ZM32.5708 62.6566C32.1559 62.754 31.7218 62.731 31.3195 62.5902C30.9172 62.4494 30.5635 62.1967 30.2999 61.8618L26.3694 63.5737C26.414 63.9317 26.3762 64.2952 26.2588 64.6364L36.6672 72.3866C36.6977 72.3635 36.7287 72.3412 36.7603 72.3196L32.5679 62.6537L32.5708 62.6566ZM29.8253 60.8137C29.7529 60.4144 29.7866 60.0031 29.923 59.6209C30.0594 59.2387 30.2938 58.8991 30.6027 58.6359L25.9065 49.7997L24.9952 61.7366C25.3773 61.9001 25.7075 62.1649 25.9502 62.5023L29.8253 60.8137ZM34.2798 59.9431L44.3679 61.3814C44.4851 61.0378 44.6816 60.7266 44.9415 60.473L38.6411 49.6512C38.3277 49.744 37.9978 49.7669 37.6745 49.7182L33.6276 58.7465C33.9609 59.0704 34.1883 59.4876 34.2798 59.9431ZM34.2216 61.099C34.1001 61.4899 33.8771 61.8415 33.5752 62.118L37.8347 71.9441C38.1853 71.9177 38.5372 71.9735 38.8624 72.1071L44.825 63.6785C44.5396 63.3555 44.35 62.9592 44.2777 62.5343L34.2216 61.099ZM29.8457 33.9586L25.9706 32.3398C25.7275 32.689 25.3917 32.9633 25.0011 33.1318L25.9327 44.926L30.6376 36.2615C30.3054 35.9892 30.0555 35.6299 29.9156 35.2238C29.7758 34.8176 29.7516 34.3806 29.8457 33.9615V33.9586ZM32.6116 32.2263L36.6148 22.7933L26.2705 30.264C26.3773 30.5853 26.4131 30.9261 26.3753 31.2626L30.3639 32.9309C30.6365 32.6167 30.991 32.3845 31.3879 32.2601C31.7848 32.1357 32.2084 32.124 32.6116 32.2263ZM34.306 34.768C34.2342 35.3254 33.962 35.8376 33.5403 36.2091L37.6047 45.1676C37.9718 45.0999 38.3501 45.1249 38.7052 45.2404L45.0579 34.2177C44.776 33.9765 44.5563 33.6709 44.4174 33.3268L34.306 34.768ZM33.6073 32.7824C33.8518 33.0153 34.044 33.3035 34.1692 33.6238L44.2573 32.1855C44.3036 31.7639 44.4647 31.3631 44.7231 31.0268L38.9294 22.735C38.574 22.8965 38.1824 22.9618 37.7939 22.9243L33.6102 32.7824H33.6073ZM60.7506 32.1681C61.1159 32.1343 61.4839 32.19 61.8228 32.3306C62.1617 32.4711 62.4612 32.6921 62.6954 32.9745L66.6549 31.3208C66.6098 30.9819 66.6386 30.6373 66.7394 30.3106L56.4649 22.7583L60.7476 32.1681H60.7506ZM58.8407 33.6529C59.0042 33.2114 59.2988 32.8304 59.685 32.5611L55.2887 22.9155C54.8818 22.965 54.4691 22.9026 54.095 22.735L48.3013 31.0268C48.5588 31.3658 48.7198 31.7682 48.7671 32.1914L58.8407 33.6558V33.6529ZM53.2041 22.0188C53.0538 21.8158 52.9378 21.5896 52.8606 21.3492H40.1609C40.0828 21.5898 39.9657 21.816 39.8144 22.0188L45.6198 30.3251C45.9 30.2033 46.2023 30.1405 46.5078 30.1405C46.8134 30.1405 47.1156 30.2033 47.3958 30.3251L53.2041 22.0188Z" fill="white"/>
</g>
<defs>
<clipPath id="clip0_342_6271">
<rect width="93.1659" height="93.1659" fill="white" transform="translate(0.739502 0.852539)"/>
</clipPath>
</defs>
</svg>
