<svg width="94" height="95" viewBox="0 0 94 95" fill="none" xmlns="http://www.w3.org/2000/svg">
<g clip-path="url(#clip0_342_6279)">
<path d="M47.3505 94.0184C73.0776 94.0184 93.9334 73.1625 93.9334 47.4355C93.9334 21.7084 73.0776 0.852539 47.3505 0.852539C21.6235 0.852539 0.767578 21.7084 0.767578 47.4355C0.767578 73.1625 21.6235 94.0184 47.3505 94.0184Z" fill="#9D4BEF"/>
<path d="M34.1619 23.1572C37.1023 23.1572 39.9223 24.3253 42.0014 26.4045C44.0806 28.4836 45.2487 31.3036 45.2487 34.244C45.2487 37.1844 44.0806 40.0043 42.0014 42.0835C39.9223 44.1626 37.1023 45.3307 34.1619 45.3307C31.2215 45.3307 28.4016 44.1626 26.3224 42.0835C24.2432 40.0043 23.0752 37.1844 23.0752 34.244C23.0752 31.3036 24.2432 28.4836 26.3224 26.4045C28.4016 24.3253 31.2215 23.1572 34.1619 23.1572ZM45.2458 60.6274C45.2458 62.8201 44.5955 64.9636 43.3773 66.7868C42.1591 68.61 40.4276 70.0311 38.4017 70.8702C36.3759 71.7093 34.1467 71.9289 31.9961 71.5011C29.8455 71.0733 27.87 70.0174 26.3195 68.4669C24.769 66.9164 23.7131 64.9409 23.2853 62.7903C22.8575 60.6397 23.0771 58.4105 23.9162 56.3847C24.7553 54.3588 26.1763 52.6273 27.9995 51.4091C29.8228 50.1909 31.9663 49.5406 34.159 49.5406C38.2152 49.5406 42.1052 47.9293 44.9733 45.0612C47.8415 42.1931 49.4528 38.303 49.4528 34.2469C49.4528 32.0541 50.103 29.9106 51.3212 28.0874C52.5394 26.2642 54.271 24.8432 56.2968 24.0041C58.3226 23.1649 60.5518 22.9454 62.7024 23.3732C64.853 23.801 66.8285 24.8569 68.379 26.4074C69.9295 27.9579 70.9854 29.9333 71.4132 32.084C71.841 34.2346 71.6215 36.4638 70.7823 38.4896C69.9432 40.5154 68.5222 42.2469 66.699 43.4652C64.8758 44.6834 62.7323 45.3336 60.5395 45.3336C56.4839 45.3344 52.5946 46.946 49.7271 49.8141C46.8596 52.6821 45.2487 56.5717 45.2487 60.6274H45.2458ZM60.5395 71.7141C57.5991 71.7141 54.7792 70.5461 52.7 68.4669C50.6208 66.3877 49.4528 63.5678 49.4528 60.6274C49.4528 57.687 50.6208 54.867 52.7 52.7879C54.7792 50.7087 57.5991 49.5406 60.5395 49.5406C63.4799 49.5406 66.2999 50.7087 68.379 52.7879C70.4582 54.867 71.6263 57.687 71.6263 60.6274C71.6263 63.5678 70.4582 66.3877 68.379 68.4669C66.2999 70.5461 63.4799 71.7141 60.5395 71.7141ZM60.5395 63.9697C61.426 63.9697 62.2761 63.6176 62.9029 62.9908C63.5297 62.3639 63.8818 61.5138 63.8818 60.6274C63.8818 59.7409 63.5297 58.8908 62.9029 58.264C62.2761 57.6372 61.426 57.285 60.5395 57.285C59.6531 57.285 58.8029 57.6372 58.1761 58.264C57.5493 58.8908 57.1972 59.7409 57.1972 60.6274C57.1972 61.5138 57.5493 62.3639 58.1761 62.9908C58.8029 63.6176 59.6531 63.9697 60.5395 63.9697ZM34.1619 63.9697C35.0484 63.9697 35.8985 63.6176 36.5253 62.9908C37.1521 62.3639 37.5042 61.5138 37.5042 60.6274C37.5042 59.7409 37.1521 58.8908 36.5253 58.264C35.8985 57.6372 35.0484 57.285 34.1619 57.285C33.2755 57.285 32.4253 57.6372 31.7985 58.264C31.1717 58.8908 30.8196 59.7409 30.8196 60.6274C30.8196 61.5138 31.1717 62.3639 31.7985 62.9908C32.4253 63.6176 33.2755 63.9697 34.1619 63.9697ZM60.5395 37.5863C61.426 37.5863 62.2761 37.2342 62.9029 36.6073C63.5297 35.9805 63.8818 35.1304 63.8818 34.244C63.8818 33.3575 63.5297 32.5074 62.9029 31.8806C62.2761 31.2538 61.426 30.9016 60.5395 30.9016C59.6531 30.9016 58.8029 31.2538 58.1761 31.8806C57.5493 32.5074 57.1972 33.3575 57.1972 34.244C57.1972 35.1304 57.5493 35.9805 58.1761 36.6073C58.8029 37.2342 59.6531 37.5863 60.5395 37.5863ZM34.1619 37.5863C35.0484 37.5863 35.8985 37.2342 36.5253 36.6073C37.1521 35.9805 37.5042 35.1304 37.5042 34.244C37.5042 33.3575 37.1521 32.5074 36.5253 31.8806C35.8985 31.2538 35.0484 30.9016 34.1619 30.9016C33.2755 30.9016 32.4253 31.2538 31.7985 31.8806C31.1717 32.5074 30.8196 33.3575 30.8196 34.244C30.8196 35.1304 31.1717 35.9805 31.7985 36.6073C32.4253 37.2342 33.2755 37.5863 34.1619 37.5863Z" fill="white"/>
</g>
<defs>
<clipPath id="clip0_342_6279">
<rect width="93.1659" height="93.1659" fill="white" transform="translate(0.767578 0.852539)"/>
</clipPath>
</defs>
</svg>
