<svg width="94" height="95" viewBox="0 0 94 95" fill="none" xmlns="http://www.w3.org/2000/svg">
<g clip-path="url(#clip0_342_6283)">
<path d="M46.8649 94.0184C72.592 94.0184 93.4479 73.1625 93.4479 47.4355C93.4479 21.7084 72.592 0.852539 46.8649 0.852539C21.1379 0.852539 0.281982 21.7084 0.281982 47.4355C0.281982 73.1625 21.1379 94.0184 46.8649 94.0184Z" fill="black"/>
<path d="M36.6108 19.5878V76.2967H26.4849V18.3213H36.6108V19.5878ZM43.8283 18.3213H49.523C61.2969 18.3213 69.1461 25.7891 69.1461 36.4217C69.1461 45.0308 64.4587 51.6135 55.9777 53.7651L70.7881 76.2967H58.8891L38.6372 44.9027H48.3847C54.8393 44.9027 58.8891 41.9912 58.8891 36.2965C58.8891 30.5988 54.8422 27.6874 48.3847 27.6874H43.9535V18.3213H43.8283Z" fill="white"/>
</g>
<defs>
<clipPath id="clip0_342_6283">
<rect width="93.1659" height="93.1659" fill="white" transform="translate(0.281494 0.852539)"/>
</clipPath>
</defs>
</svg>
