<svg width="94" height="94" viewBox="0 0 94 94" fill="none" xmlns="http://www.w3.org/2000/svg">
<g clip-path="url(#clip0_342_6287)">
<path d="M47.0414 93.5321C72.7685 93.5321 93.6244 72.6762 93.6244 46.9491C93.6244 21.2221 72.7685 0.366211 47.0414 0.366211C21.3144 0.366211 0.458496 21.2221 0.458496 46.9491C0.458496 72.6762 21.3144 93.5321 47.0414 93.5321Z" fill="#3555F9"/>
<path d="M42.2668 19.6606C44.7415 19.2006 47.2745 19.253 49.7783 19.3782C52.6665 19.7159 55.5604 20.3215 58.2157 21.5152C63.5188 23.7312 68.0137 27.5218 71.0929 32.3748C72.2371 34.0431 73.0057 35.9122 73.7773 37.7668C74.4935 36.6255 75.134 35.4377 75.7571 34.244C76.0249 33.6821 76.5868 33.2483 77.2419 33.2774C77.6776 33.2434 78.1097 33.3788 78.4481 33.6554C78.7865 33.9319 79.0052 34.3284 79.0586 34.7622C79.1314 35.461 78.6918 36.0636 78.4035 36.6692C77.4952 38.5034 76.3219 40.1979 75.1078 41.8516C74.8836 42.0903 74.9768 42.4222 75.003 42.7133C76.3539 50.6819 73.7831 59.1629 68.3067 65.1663C65.1495 68.6754 61.1711 71.3464 56.7279 72.9398C51.6096 74.7304 45.9731 75.1351 40.6801 73.8832C33.0056 72.2207 26.2161 67.1607 22.3555 60.4469C21.5112 59.0872 20.9726 57.5762 20.3059 56.1321C19.578 57.253 18.9608 58.4322 18.3407 59.6084C18.195 59.8999 17.9757 60.1483 17.7046 60.329C17.4334 60.5098 17.1198 60.6167 16.7947 60.639C15.6854 60.639 14.6781 59.4454 15.1235 58.3827C16.0785 56.1875 17.3857 54.1553 18.8502 52.257C19.1646 51.928 19.1209 51.4622 19.0627 51.0517C18.5189 47.5482 18.6773 43.9715 19.5285 40.5298C21.7703 30.8522 29.8059 22.77 39.5446 20.2516C40.4472 20.0391 41.3497 19.8149 42.2668 19.6606ZM35.39 25.5126C30.2281 28.2261 26.0734 32.765 23.919 38.1249C22.6729 41.3624 22.0382 44.8445 22.2303 48.3091C22.7771 47.8987 23.2982 47.4554 23.7909 46.9815C26.6878 44.3962 30.0796 42.3931 33.6257 40.7976C40.2143 37.8018 47.4696 36.512 54.6783 36.1626C52.2414 33.6355 49.5978 31.3034 47.161 28.7763C47.9296 27.932 48.7622 27.1517 49.5949 26.3715C50.5411 27.2274 51.4146 28.1562 52.3404 29.0325C55.3392 32.0167 58.4282 34.9136 61.3775 37.9386C58.2331 41.0742 55.0073 44.1312 51.8629 47.2668C51.5979 47.5161 51.32 47.7513 51.0302 47.9714C50.2383 47.1737 49.3183 46.4749 48.6836 45.5403C50.6168 43.514 52.8179 41.738 54.6725 39.6389C51.3476 39.6855 48.0402 40.1571 44.7852 40.8034C42.1562 41.2722 39.6291 42.1602 37.1049 43.0074C31.8177 44.9872 26.941 48.1432 23.2231 52.3647C23.0019 52.5831 23.0339 52.9063 23.0921 53.1799C23.5318 55.0666 24.3615 56.8309 25.2699 58.537C28.2687 63.9435 33.451 68.1214 39.4049 70.008C42.887 71.0794 46.602 71.4929 50.2238 70.9892C55.2866 70.3531 60.0339 68.1842 63.8289 64.7733C69.2587 59.9869 72.3041 52.6937 71.8354 45.5345C71.2618 45.98 70.7494 46.4866 70.2137 46.9699C66.5718 50.103 62.383 52.537 57.8576 54.1495C51.9765 56.333 45.7111 57.4627 39.4369 57.6403C39.9843 58.3565 40.6597 58.9562 41.2973 59.5938C43.1752 61.4222 45.0269 63.2739 46.9339 65.0732C46.2002 65.9379 45.3442 66.6919 44.5348 67.4838C43.7225 66.8229 43.0209 66.0543 42.2639 65.3294C39.4282 62.581 36.6216 59.7976 33.7916 57.0376C33.3998 56.6811 33.0394 56.2914 32.7144 55.873C33.9401 54.5571 35.3493 53.4216 36.6041 52.1347C38.7586 50.0531 40.8548 47.9103 43.0354 45.8548C43.8506 46.6467 44.7066 47.4037 45.4316 48.28C43.4925 50.2889 41.4283 52.1784 39.4631 54.1611C41.6176 54.2688 43.7429 53.8991 45.8799 53.6953C47.423 53.5322 48.9398 53.1829 50.4625 52.8655C58.2797 51.0604 65.8931 47.3483 71.1395 41.2314C69.1306 32.5437 61.7443 25.3932 52.9547 23.3727C47.0998 21.885 40.715 22.7322 35.39 25.5126Z" fill="white"/>
</g>
<defs>
<clipPath id="clip0_342_6287">
<rect width="93.1659" height="93.1659" fill="white" transform="translate(0.459473 0.366211)"/>
</clipPath>
</defs>
</svg>
