<svg width="95" height="94" viewBox="0 0 95 94" fill="none" xmlns="http://www.w3.org/2000/svg">
<g clip-path="url(#clip0_342_6291)">
<path d="M47.5566 93.5321C73.2836 93.5321 94.1395 72.6762 94.1395 46.9491C94.1395 21.2221 73.2836 0.366211 47.5566 0.366211C21.8295 0.366211 0.973633 21.2221 0.973633 46.9491C0.973633 72.6762 21.8295 93.5321 47.5566 93.5321Z" fill="#E30613"/>
<path opacity="0.75" fill-rule="evenodd" clip-rule="evenodd" d="M45.6956 78.9761C29.0393 78.9761 15.5303 65.6039 15.5303 49.1106C15.5303 32.6173 29.0364 19.2451 45.6956 19.2451C62.3578 19.2451 75.8639 32.6173 75.8639 49.1106C75.8639 65.6039 62.3549 78.9761 45.6927 78.9761H45.6956ZM50.9042 27.8018C57.9382 30.6812 62.9925 36.0994 66.5794 43.4013L69.287 41.5176C66.2475 34.2041 60.6313 28.4569 51.5971 24.7303L50.9042 27.8018Z" fill="white"/>
<path d="M79.5584 27.5041C79.5584 20.5575 73.8666 14.9238 66.85 14.9238C59.8335 14.9238 54.1416 20.5575 54.1416 27.5041C54.1416 28.1679 54.194 28.8288 54.2988 29.4839C58.5291 31.947 61.9268 35.4815 64.6431 39.8952C65.371 40.0204 66.1105 40.0873 66.85 40.0873C73.8666 40.0873 79.5584 34.4537 79.5584 27.5041Z" fill="white"/>
</g>
<defs>
<clipPath id="clip0_342_6291">
<rect width="93.1659" height="93.1659" fill="white" transform="translate(0.973633 0.366211)"/>
</clipPath>
</defs>
</svg>
