<svg width="94" height="94" viewBox="0 0 94 94" fill="none" xmlns="http://www.w3.org/2000/svg">
<g clip-path="url(#clip0_342_6297)">
<path d="M47.0717 93.5321C72.7988 93.5321 93.6546 72.6762 93.6546 46.9491C93.6546 21.2221 72.7988 0.366211 47.0717 0.366211C21.3447 0.366211 0.48877 21.2221 0.48877 46.9491C0.48877 72.6762 21.3447 93.5321 47.0717 93.5321Z" fill="#2A2A2A"/>
<path d="M29.603 17.8524H53.2177C53.503 17.765 53.6486 18.0271 53.8349 18.1726C56.0608 20.2751 58.0576 22.6075 59.7917 25.131C62.2556 28.6599 64.1899 32.5304 65.533 36.6195C66.9363 40.9401 67.6001 45.511 67.4255 50.0528H55.3867C55.4459 49.4492 55.4673 48.8424 55.4507 48.2361C55.3255 43.9534 54.0038 39.7522 51.9221 36.0314C49.6948 32.0456 46.5854 28.6072 43.0509 25.7511C39.202 22.6388 34.8698 20.1815 30.3571 18.1959C30.1067 18.0795 29.8447 17.9863 29.603 17.8524ZM38.3432 39.1845C42.3822 46.4914 46.4145 53.802 50.4402 61.1163C51.4097 62.8806 52.3908 64.6391 53.3516 66.4064C48.341 69.6148 43.345 72.8523 38.3373 76.0636V39.1845H38.3432Z" fill="white"/>
</g>
<defs>
<clipPath id="clip0_342_6297">
<rect width="93.1659" height="93.1659" fill="white" transform="translate(0.487793 0.366211)"/>
</clipPath>
</defs>
</svg>
