<svg width="94" height="94" viewBox="0 0 94 94" fill="none" xmlns="http://www.w3.org/2000/svg">
<g clip-path="url(#clip0_342_6301)">
<path d="M46.5834 93.5321C72.3105 93.5321 93.1664 72.6762 93.1664 46.9491C93.1664 21.2221 72.3105 0.366211 46.5834 0.366211C20.8564 0.366211 0.000488281 21.2221 0.000488281 46.9491C0.000488281 72.6762 20.8564 93.5321 46.5834 93.5321Z" fill="#080817"/>
<path d="M27.4844 28.7645L32.0379 26.1413L32.6842 27.1981L49.5706 17.4448L48.3274 16.7082L47.0813 16.0211L46.4844 15.6514L18.9248 31.574V32.2611L26.8381 27.7047L27.4844 28.7645ZM27.4844 38.7914L40.7314 31.1547L41.3283 32.2174L58.2641 22.4583L57.0238 21.7217L55.7806 21.0346L55.178 20.6649L18.9248 41.5515V42.2881L26.8381 37.7346L27.4844 38.7914ZM27.4844 43.8049L45.0578 33.644L45.6547 34.7009L62.5905 24.9476L61.3502 24.2547L60.0983 23.5151L59.5044 23.1483L18.9248 46.5708V47.2987L26.8381 42.7044L27.4844 43.8049ZM27.4844 48.7777L49.5181 36.0751L50.1237 37.1407L66.9169 27.431L65.6679 26.7352L64.4276 26.0073L63.8308 25.6783L18.9248 51.5872V52.2743L26.8381 47.7208L27.4844 48.7777ZM27.4844 53.7911L53.8445 38.5643L54.4472 39.6707L71.2433 29.964L69.9914 29.2245L68.8035 28.5315L68.1571 28.1676L18.9248 56.6007V57.2878L26.8381 52.7343L27.4844 53.7911ZM73.1211 31.0208L72.4806 30.6511L18.9248 61.6142V62.3013L26.8381 57.7478L27.4844 58.8046L53.8445 43.5778L54.4472 44.6376L74.0412 33.3674V31.574L73.1211 31.0208ZM22.3312 65.3437L26.7478 62.8108L27.3913 63.8705L53.7106 48.6437L54.3511 49.7413L74.0441 38.3314V34.7911L21.7343 64.9769L22.3312 65.3437ZM53.7106 53.6572L54.3511 54.7636L74.0441 43.3507V39.8075L26.0578 67.504L26.6518 67.8737L31.1645 65.2505L31.8021 66.3074L53.7106 53.6572ZM30.9811 70.3572L35.5345 67.7369L36.1285 68.8433L53.7135 58.6707L54.3482 59.7276L74.0441 48.3671V44.7803L30.3784 69.9904L30.9811 70.3572ZM35.3511 72.8407L39.8609 70.2669L40.4549 71.3238L53.7106 63.6842L54.3511 64.741L74.0441 53.3806V49.7908L34.7048 72.5204L35.3511 72.8407ZM39.0312 75.0038L39.6746 75.3736L44.1873 72.7475L44.7812 73.8538L53.7106 68.7006L54.3511 69.7633L74.0441 58.3941V54.8102L39.0312 75.0038ZM44.001 77.8541L48.5137 75.2804L49.1513 76.3373L53.7106 73.6704L54.3511 74.7768L74.0441 63.4076V59.8207L43.3983 77.5368L44.001 77.8541ZM53.9377 19.9283L52.6974 19.2412L51.4543 18.5017L50.8108 18.1348L18.9248 36.5846V37.2717L26.8381 32.7182L27.4844 33.775L36.4051 28.6276L37.0106 29.6845L53.9377 19.9283Z" fill="white"/>
</g>
<defs>
<clipPath id="clip0_342_6301">
<rect width="93.1659" height="93.1659" fill="white" transform="translate(0.00146484 0.366211)"/>
</clipPath>
</defs>
</svg>
