<svg width="94" height="94" viewBox="0 0 94 94" fill="none" xmlns="http://www.w3.org/2000/svg">
<g clip-path="url(#clip0_342_6305)">
<path d="M47.0986 93.5321C72.8256 93.5321 93.6815 72.6762 93.6815 46.9491C93.6815 21.2221 72.8256 0.366211 47.0986 0.366211C21.3715 0.366211 0.515625 21.2221 0.515625 46.9491C0.515625 72.6762 21.3715 93.5321 47.0986 93.5321Z" fill="#602A52"/>
<path fill-rule="evenodd" clip-rule="evenodd" d="M60.4389 47.858C59.6286 45.5983 58.1829 43.6208 56.2756 42.1632L56.2552 42.1399C56.0531 41.987 55.8463 41.8404 55.6351 41.7003L55.5943 41.6712C55.3862 41.5346 55.1746 41.4036 54.9596 41.2782L54.9014 41.2432C54.6906 41.121 54.4739 41.0093 54.2521 40.9084L54.1881 40.8735C53.9612 40.7669 53.7321 40.665 53.501 40.5678L53.4253 40.5387C52.6773 40.2281 51.9013 39.9902 51.1078 39.8283C50.6505 40.6575 50.0627 41.4076 49.3667 42.0497C51.0011 42.1801 52.58 42.7024 53.9697 43.5724L54.0483 43.619L54.4326 43.881L54.6073 44.0033C54.7238 44.0906 54.8315 44.1779 54.9509 44.2653L55.1459 44.4225C55.2507 44.5099 55.3468 44.5972 55.4458 44.6874L55.6438 44.8767L55.9146 45.1504L56.1125 45.3629L56.3542 45.6453L56.5434 45.8811L56.7618 46.1723C56.8346 46.2684 56.8841 46.3441 56.9423 46.4285C57.0005 46.5129 57.0762 46.6236 57.1374 46.7255L57.3062 47.0049C57.3586 47.0981 57.4227 47.2029 57.4751 47.3019C57.5333 47.398 57.5799 47.5057 57.6323 47.6105C57.6818 47.7153 57.7313 47.8027 57.775 47.9017C57.8294 48.0309 57.8818 48.1609 57.9322 48.2918C58.2084 48.9812 58.4038 49.7002 58.5145 50.4346L58.8318 51.6108C58.9657 52.1 60.2031 56.4322 63.0709 57.8908C66.3579 59.5765 70.7105 61.6582 72.4224 62.4821L49.8122 75.7583V66.66C49.8122 65.2247 52.7236 63.5448 54.0716 62.9538L54.1502 62.9101C54.4268 62.7733 54.7034 62.6248 54.9654 62.4676L55.079 62.4093C55.6621 62.0581 56.2169 61.6619 56.7385 61.2244L56.8782 61.0992L57.0384 60.9565C57.2023 60.8092 57.3625 60.6578 57.5188 60.5024L57.6003 60.4237C57.7721 60.252 57.9438 60.0889 58.0952 59.888L58.2379 59.725C58.366 59.5736 58.4883 59.4193 58.6076 59.2621L58.7124 59.1311C58.858 58.9389 58.9919 58.7409 59.1259 58.5401L59.1724 58.4818C59.353 58.1994 59.5131 57.917 59.682 57.6229C59.0479 56.8576 58.5047 56.0212 58.0632 55.1308C57.8827 55.6344 57.6556 56.1236 57.3936 56.5923C57.2829 56.7961 57.1665 56.9941 57.05 57.1862L56.9976 57.2648C56.8877 57.4282 56.7732 57.5884 56.6541 57.7452L56.5492 57.8792C56.4306 58.0322 56.3063 58.1808 56.1766 58.3246L56.1067 58.4061C55.2644 59.326 54.2584 60.0813 53.14 60.6334L52.9274 60.7411C52.3539 60.9944 47.2996 63.2362 47.2996 66.6455V75.7466L24.6196 62.4472C26.0782 61.5563 30.3405 59.0758 33.8459 57.984C35.2172 57.5647 38.1286 59.3611 39.7794 60.68L39.8784 60.7673C40.0967 60.9711 40.3267 61.1662 40.5655 61.3496L40.647 61.4224C41.1711 61.8416 41.7301 62.2172 42.3153 62.5491L42.7083 62.7616L42.7869 62.8024C43.1683 62.9945 43.5584 63.1692 43.9573 63.3235L44.132 63.3905L44.2484 63.4371C44.822 63.6467 45.413 63.8097 46.0099 63.932C46.4796 63.0924 47.0857 62.3368 47.8033 61.696C46.8465 61.6252 45.9045 61.4194 45.0054 61.0846L44.8511 61.0264L44.5541 60.907L44.4027 60.843L44.1145 60.7091C43.447 60.3853 42.8172 59.9889 42.2366 59.527L41.3341 58.7235C40.5054 58.0099 39.6082 57.3799 38.6556 56.8427C36.4138 55.5908 34.5388 55.1832 33.1006 55.6257C30.1018 56.5515 26.7245 58.3508 24.6632 59.5387L47.3084 19.6025V37.0915C47.3084 37.7117 46.3767 39.3304 43.2644 40.7046L43.0489 40.8211C42.7461 40.9666 42.4521 41.1239 42.1639 41.2927L42.1056 41.3218C41.1473 41.8864 40.2681 42.5756 39.4912 43.3715L39.462 43.4006C39.1675 43.7035 38.8886 44.0213 38.6265 44.3526L38.5944 44.3963C38.4679 44.5578 38.3446 44.7219 38.2247 44.8883L38.1839 44.9466C38.076 45.1036 37.9711 45.2628 37.8695 45.424L37.8346 45.4735C37.732 45.6388 37.634 45.8067 37.5405 45.9772L37.4735 46.0966C37.3891 46.2596 37.3047 46.4343 37.2202 46.5857L37.1824 46.6643C37.1074 46.8177 37.0365 46.973 36.9699 47.1301L36.8971 47.3048C36.8301 47.4679 36.769 47.6426 36.7078 47.7998L36.6496 47.9745C36.6051 48.0994 36.5643 48.2256 36.5273 48.3529C36.5069 48.4228 36.4836 48.4898 36.4662 48.5626C36.2991 49.1472 36.1774 49.7439 36.1022 50.3473L36.0731 50.618C36.0594 50.741 36.0487 50.8643 36.0411 50.9878C36.0353 51.113 36.0411 51.2353 36.0207 51.3575C36.0003 51.4827 36.0207 51.5089 36.0207 51.5905V51.867C36.0207 52.4784 36.0673 53.0898 36.1605 53.6983C37.1358 53.9363 38.0797 54.2881 38.9729 54.7464C38.6987 53.8674 38.5517 52.9537 38.5362 52.033V51.867C38.5362 51.6458 38.5362 51.4274 38.5624 51.1945V51.0198C38.5624 50.8306 38.6003 50.6384 38.6265 50.4492V50.3677C38.6566 50.1571 38.6974 49.9481 38.7487 49.7417L38.7837 49.5816C38.8274 49.4069 38.871 49.238 38.9263 49.0662L38.9613 48.9556C39.0195 48.7547 39.0923 48.5597 39.168 48.3646L39.2262 48.2336C39.2903 48.0734 39.3601 47.9133 39.4329 47.7532L39.4882 47.6309C39.5785 47.4417 39.6775 47.2582 39.7794 47.0748L39.8347 46.9846C39.9264 46.8266 40.0226 46.6713 40.1229 46.5187L40.1957 46.411C40.3151 46.2363 40.4374 46.0733 40.5684 45.8928L40.5917 45.8637C40.7169 45.7035 40.8479 45.5492 40.9818 45.3978L41.0546 45.3105C41.6689 44.635 42.3735 44.044 43.1508 43.5549L44.2222 43.06C44.7958 42.8067 49.8267 40.5037 49.8267 37.0915V19.6025L72.6495 59.8385C70.6115 58.8574 67.0304 57.1251 64.2354 55.7043C62.64 54.8891 61.5511 52.0155 61.2716 50.9849L60.963 49.7766C60.8487 49.1283 60.6813 48.4905 60.4622 47.8696L60.4389 47.858ZM75.8986 60.5227L50.7439 16.1933C50.5217 15.8055 50.2006 15.4837 49.8134 15.2607C49.4262 15.0377 48.9867 14.9214 48.5399 14.9239C48.094 14.9225 47.6558 15.0392 47.2697 15.2622C46.8836 15.4851 46.5634 15.8064 46.3418 16.1933L21.2161 60.5256C20.8998 61.0845 20.8172 61.7457 20.9863 62.3652C21.1553 62.9847 21.5623 63.5123 22.1186 63.833L47.2647 78.6231C47.6569 78.8523 48.1031 78.9731 48.5574 78.9731C49.0117 78.9731 49.4578 78.8523 49.85 78.6231L74.9932 63.8447C75.5492 63.5244 75.9563 62.9976 76.1258 62.3788C76.2954 61.7599 76.2138 61.0991 75.8986 60.5402L75.9045 60.5227H75.8986Z" fill="white"/>
</g>
<defs>
<clipPath id="clip0_342_6305">
<rect width="93.1659" height="93.1659" fill="white" transform="translate(0.515625 0.366211)"/>
</clipPath>
</defs>
</svg>
