<svg width="94" height="94" viewBox="0 0 94 94" fill="none" xmlns="http://www.w3.org/2000/svg">
<g clip-path="url(#clip0_342_6309)">
<path d="M46.6137 93.5321C72.3407 93.5321 93.1966 72.6762 93.1966 46.9491C93.1966 21.2221 72.3407 0.366211 46.6137 0.366211C20.8867 0.366211 0.0307617 21.2221 0.0307617 46.9491C0.0307617 72.6762 20.8867 93.5321 46.6137 93.5321Z" fill="#0E0E21"/>
<path fill-rule="evenodd" clip-rule="evenodd" d="M33.6575 44.7515L30.0473 42.4078C29.8898 42.3055 29.7779 42.1463 29.735 41.9634C29.6922 41.7806 29.7216 41.5883 29.8173 41.4266L43.7456 17.812C43.8708 17.5986 44.0494 17.4214 44.2638 17.2979C44.4781 17.1744 44.721 17.1087 44.9684 17.1074H48.2554C48.5028 17.1087 48.7456 17.1744 48.96 17.2979C49.1744 17.4214 49.353 17.5986 49.4782 17.812L63.4065 41.4266C63.5021 41.5883 63.5316 41.7806 63.4887 41.9634C63.4459 42.1463 63.334 42.3055 63.1765 42.4078L59.5663 44.7515C59.4859 44.8026 59.396 44.8369 59.3021 44.8526C59.2081 44.8682 59.1119 44.8648 59.0193 44.8425C58.9267 44.8203 58.8395 44.7796 58.7629 44.7229C58.6863 44.6663 58.6219 44.5948 58.5735 44.5127L46.919 24.7558C46.8876 24.7026 46.8429 24.6586 46.7893 24.6281C46.7357 24.5975 46.675 24.5814 46.6133 24.5814C46.5516 24.5814 46.491 24.5975 46.4374 24.6281C46.3838 24.6586 46.3391 24.7026 46.3076 24.7558L34.6532 44.5127C34.6051 44.5955 34.5407 44.6677 34.4639 44.7248C34.3871 44.782 34.2995 44.823 34.2064 44.8453C34.1133 44.8676 34.0167 44.8708 33.9223 44.8547C33.828 44.8385 33.7379 44.8034 33.6575 44.7515ZM67.072 47.6484L72.6153 57.0465C72.8046 57.3694 72.8633 57.7525 72.7794 58.1172C72.6955 58.482 72.4754 58.8009 72.1641 59.0088L47.3878 75.109C47.1584 75.2591 46.8903 75.339 46.6162 75.339C46.3422 75.339 46.0741 75.2591 45.8447 75.109L21.0684 59.0088C20.7544 58.8033 20.5318 58.4845 20.4472 58.1189C20.3625 57.7532 20.4224 57.369 20.6142 57.0465L26.1576 47.6484C26.2057 47.5656 26.2701 47.4934 26.3469 47.4363C26.4237 47.3791 26.5113 47.3382 26.6044 47.3158C26.6974 47.2935 26.7941 47.2903 26.8885 47.3064C26.9828 47.3226 27.0729 47.3577 27.1533 47.4096L30.7606 49.7533C30.9181 49.8556 31.03 50.0148 31.0728 50.1977C31.1157 50.3805 31.0862 50.5728 30.9906 50.7345L27.8229 56.1061C27.7771 56.1873 27.7636 56.2828 27.7852 56.3735C27.8068 56.4642 27.8619 56.5434 27.9394 56.5952L46.4212 68.6049C46.5376 68.6835 46.6832 68.6835 46.8026 68.6049L65.2902 56.5952C65.3688 56.5443 65.4248 56.4651 65.4465 56.374C65.4681 56.2829 65.4539 56.1869 65.4066 56.1061L62.239 50.7345C62.1433 50.5728 62.1139 50.3805 62.1567 50.1977C62.1996 50.0148 62.3115 49.8556 62.469 49.7533L66.0792 47.4096C66.1595 47.3581 66.2493 47.3234 66.3434 47.3076C66.4375 47.2917 66.5337 47.295 66.6265 47.3173C66.7192 47.3396 66.8065 47.3804 66.883 47.4373C66.9596 47.4942 67.0239 47.566 67.072 47.6484Z" fill="white"/>
</g>
<defs>
<clipPath id="clip0_342_6309">
<rect width="93.1659" height="93.1659" fill="white" transform="translate(0.0297852 0.366211)"/>
</clipPath>
</defs>
</svg>
