<svg width="94" height="94" viewBox="0 0 94 94" fill="none" xmlns="http://www.w3.org/2000/svg">
<g clip-path="url(#clip0_342_6313)">
<path d="M47.1254 93.5321C72.8525 93.5321 93.7084 72.6762 93.7084 46.9491C93.7084 21.2221 72.8525 0.366211 47.1254 0.366211C21.3984 0.366211 0.54248 21.2221 0.54248 46.9491C0.54248 72.6762 21.3984 93.5321 47.1254 93.5321Z" fill="#00E6A0"/>
<path d="M67.7178 22.2026C67.9751 22.1969 68.2308 22.2436 68.4695 22.3397C68.7082 22.4357 68.925 22.5793 69.1066 22.7616L69.0891 22.7441C69.3767 23.0308 69.5646 23.4023 69.6248 23.8039L69.651 24.1067L69.6306 34.0551C69.6306 35.3623 69.1124 36.6171 68.1866 37.54L55.8421 49.8467L69.0513 63.0151C69.5158 63.4691 69.8858 64.0106 70.1399 64.6084C70.3939 65.2063 70.5271 65.8485 70.5315 66.498C70.536 67.1476 70.4117 67.7915 70.1659 68.3928C69.9201 68.994 69.5576 69.5406 69.0994 70.001C68.6411 70.4614 68.0962 70.8264 67.4961 71.075C66.896 71.3235 66.2526 71.4508 65.603 71.4493C64.9535 71.4478 64.3106 71.3176 63.7117 71.0663C63.1127 70.815 62.5694 70.4475 62.1133 69.9851L45.4162 53.3404C44.9558 52.884 44.5903 52.341 44.3408 51.7426C44.0914 51.1441 43.963 50.5023 43.963 49.8539C43.963 49.2056 44.0914 48.5638 44.3408 47.9654C44.5903 47.3669 44.9558 46.8239 45.4162 46.3675L60.0374 31.7754H35.2961V66.3894C35.3071 67.0493 35.1853 67.7047 34.9378 68.3165C34.6903 68.9284 34.3223 69.4842 33.8556 69.9508C33.389 70.4175 32.8332 70.7855 32.2213 71.033C31.6095 71.2805 30.9541 71.4023 30.2942 71.3913L29.7993 71.3738C28.5572 71.2659 27.4019 70.692 26.5654 69.7675C25.7288 68.8429 25.273 67.6361 25.2895 66.3894V27.58C25.2895 24.4764 27.5109 22.2026 30.5184 22.2026H67.7178Z" fill="white"/>
</g>
<defs>
<clipPath id="clip0_342_6313">
<rect width="93.1659" height="93.1659" fill="white" transform="translate(0.543457 0.366211)"/>
</clipPath>
</defs>
</svg>
