<svg width="94" height="94" viewBox="0 0 94 94" fill="none" xmlns="http://www.w3.org/2000/svg">
<g clip-path="url(#clip0_342_6317)">
<path d="M46.6406 93.5321C72.3676 93.5321 93.2235 72.6762 93.2235 46.9491C93.2235 21.2221 72.3676 0.366211 46.6406 0.366211C20.9135 0.366211 0.0576172 21.2221 0.0576172 46.9491C0.0576172 72.6762 20.9135 93.5321 46.6406 93.5321Z" fill="#CC1E46"/>
<path d="M34.4591 27.2682C39.332 23.6062 45.1356 21.3868 51.2086 20.8631C51.8258 20.7379 52.4954 21.128 52.4751 21.8093C52.5333 23.4397 52.4925 25.0701 52.4925 26.7005C52.5333 27.2071 52.2654 27.8651 51.6831 27.8796C46.3086 28.4736 41.202 30.6688 36.765 33.7025C36.3457 33.9383 36.4389 34.4828 36.4738 34.8787C36.7824 37.7377 36.5728 40.6172 36.6572 43.4849C51.1387 43.5257 65.626 43.4791 80.1133 43.5082C80.8033 43.45 81.5312 43.843 81.4758 44.6145C81.5486 49.4912 81.4904 54.3679 81.505 59.2416C81.5166 61.891 80.9518 64.6336 79.3476 66.7997C76.8146 70.2031 72.3601 72.2441 68.1269 71.4929C65.1281 71.0445 62.537 69.1841 60.7202 66.823C55.775 70.5425 49.8741 72.779 43.7058 73.2718C43.0799 73.2805 42.6111 72.6662 42.7072 72.0665C42.7276 70.3604 42.6723 68.6484 42.7363 66.9423C42.8819 66.0398 43.994 66.2145 44.6549 66.066C49.7325 65.2741 54.5888 63.1458 58.7346 60.1267C58.5209 56.959 58.4461 53.7834 58.5105 50.6092C43.9766 50.516 29.4369 50.6034 14.903 50.5626C14.2625 50.6354 13.6453 50.155 13.7064 49.4766C13.6948 44.3438 13.6977 39.208 13.7122 34.0752C13.7413 31.3908 14.5886 28.6774 16.3675 26.6306C18.7112 23.9637 22.2456 22.2606 25.8325 22.4702C29.268 22.607 32.4211 24.5606 34.4591 27.2682ZM19.5642 34.9602C19.5584 37.9677 19.5555 40.9782 19.57 43.9915C23.1627 43.9886 26.7496 44.041 30.3394 43.9624C30.3452 41.0277 30.3831 38.0958 30.322 35.1611C30.2666 32.3487 27.725 29.8623 24.9009 29.9205C22.1437 29.807 19.6312 32.2206 19.5642 34.9573V34.9602ZM65.2999 50.3617C65.2708 53.2207 65.2941 56.0827 65.2825 58.9417C65.265 60.0859 65.6114 61.2039 66.2723 62.1356C67.6524 64.1066 70.4008 64.9684 72.6484 64.0979C74.7242 63.3292 76.0955 61.1573 76.0722 58.9737C76.0722 56.1031 76.0868 53.2382 76.0606 50.3675C72.4737 50.3384 68.8868 50.353 65.2999 50.3588V50.3617Z" fill="white"/>
</g>
<defs>
<clipPath id="clip0_342_6317">
<rect width="93.1659" height="93.1659" fill="white" transform="translate(0.0576172 0.366211)"/>
</clipPath>
</defs>
</svg>
