<svg width="94" height="94" viewBox="0 0 94 94" fill="none" xmlns="http://www.w3.org/2000/svg">
<g clip-path="url(#clip0_342_6321)">
<path d="M47.1557 93.5321C72.8827 93.5321 93.7386 72.6762 93.7386 46.9491C93.7386 21.2221 72.8827 0.366211 47.1557 0.366211C21.4286 0.366211 0.572754 21.2221 0.572754 46.9491C0.572754 72.6762 21.4286 93.5321 47.1557 93.5321Z" fill="#60E4DD"/>
<path fill-rule="evenodd" clip-rule="evenodd" d="M30.1062 58.6646C30.9796 57.3399 31.8065 56.0996 32.5867 54.938H23.6661C23.5943 54.938 23.5254 54.9094 23.4746 54.8587C23.4239 54.8079 23.3953 54.739 23.3953 54.6672V52.8155C23.3953 52.667 23.5176 52.5448 23.6661 52.5448H34.2113C39.8508 44.3083 42.669 40.9165 42.669 40.57C42.669 40.0373 42.5526 39.7723 40.631 39.7723C36.8345 39.7723 30.5895 37.0618 30.5895 29.6609C30.5895 25.6344 37.1024 20.7461 40.9047 20.7461C42.669 20.7461 42.9398 21.4943 42.1275 21.5438C39.9556 21.6778 35.2041 26.0158 35.2041 30.1908C35.2041 32.9858 37.6846 37.7751 43.2105 37.7751C49.738 37.7751 55.3134 27.3987 68.8661 27.3987C77.0094 27.3987 79.1813 33.7689 79.1813 35.5158C79.1813 37.2627 76.6396 38.1768 73.21 38.1768C69.7803 38.1768 69.6522 32.0541 62.7579 32.0541C51.9332 32.0541 42.7156 43.7755 38.2873 52.5448H45.9269C46.0783 52.5448 46.1977 52.667 46.1977 52.8155V54.6672C46.1981 54.703 46.1913 54.7385 46.1779 54.7717C46.1645 54.8049 46.1446 54.8351 46.1194 54.8605C46.0942 54.886 46.0642 54.9062 46.0312 54.92C45.9982 54.9338 45.9627 54.9409 45.9269 54.9409H37.1635C36.5579 56.3384 36.1066 57.6048 35.8242 58.6675H43.4813C43.6327 58.6675 43.755 58.784 43.755 58.9354V60.7899C43.755 60.8618 43.7265 60.9306 43.6757 60.9814C43.6249 61.0322 43.556 61.0607 43.4842 61.0607H35.4807C35.6233 64.4554 38.4707 67.5154 44.0287 70.2405H22.717C24.627 67.1611 26.5681 64.101 28.5398 61.0607H21.2263C21.1905 61.0611 21.155 61.0544 21.1218 61.0409C21.0886 61.0275 21.0584 61.0076 21.033 60.9824C21.0075 60.9573 20.9873 60.9273 20.9735 60.8942C20.9597 60.8612 20.9526 60.8258 20.9526 60.7899V58.9354C20.9526 58.7869 21.0749 58.6646 21.2234 58.6646H30.1062Z" fill="white"/>
</g>
<defs>
<clipPath id="clip0_342_6321">
<rect width="93.1659" height="93.1659" fill="white" transform="translate(0.571777 0.366211)"/>
</clipPath>
</defs>
</svg>
