<svg width="94" height="94" viewBox="0 0 94 94" fill="none" xmlns="http://www.w3.org/2000/svg">
<g clip-path="url(#clip0_342_6325)">
<path d="M46.6674 93.5321C72.3945 93.5321 93.2503 72.6762 93.2503 46.9491C93.2503 21.2221 72.3945 0.366211 46.6674 0.366211C20.9404 0.366211 0.0844727 21.2221 0.0844727 46.9491C0.0844727 72.6762 20.9404 93.5321 46.6674 93.5321Z" fill="#F49352"/>
<path fill-rule="evenodd" clip-rule="evenodd" d="M36.7835 27.0205C34.2884 27.0205 32.265 24.9651 32.265 22.4292C32.265 19.8933 34.2884 17.835 36.7835 17.835C39.2815 17.835 41.305 19.8904 41.305 22.4292C41.305 24.968 39.2815 27.0205 36.7835 27.0205ZM56.7035 76.0636C56.1052 76.0587 55.5137 75.9359 54.9627 75.7024C54.4118 75.4688 53.9123 75.129 53.4927 74.7024C53.0731 74.2758 52.7417 73.7707 52.5173 73.216C52.2929 72.6612 52.18 72.0677 52.185 71.4694C52.185 68.9364 54.2084 66.8781 56.7035 66.8781C59.2015 66.8781 61.225 68.9335 61.225 71.4694C61.225 74.0082 59.2015 76.0636 56.7035 76.0636ZM38.6381 41.7378C38.216 42.0666 37.7324 42.3077 37.2158 42.447C36.6993 42.5863 36.1601 42.6211 35.6299 42.5492C35.0997 42.4773 34.5892 42.3003 34.1284 42.0285C33.6675 41.7567 33.2656 41.3955 32.9462 40.9663C32.2915 40.0948 32.0042 39.0016 32.1456 37.9209C32.2871 36.8401 32.8462 35.8577 33.7032 35.1842L54.5433 18.9908C54.9654 18.6621 55.4489 18.421 55.9655 18.2816C56.4821 18.1423 57.0213 18.1076 57.5515 18.1794C58.0816 18.2513 58.5921 18.4283 59.053 18.7002C59.5138 18.972 59.9157 19.3331 60.2351 19.7623C60.8907 20.634 61.1786 21.7278 61.0371 22.8093C60.8956 23.8908 60.3359 24.8737 59.4781 25.5473L38.6381 41.7378ZM38.7924 58.2427C38.3703 58.5715 37.8867 58.8126 37.3702 58.9519C36.8536 59.0912 36.3144 59.126 35.7842 59.0541C35.254 58.9822 34.7435 58.8052 34.2827 58.5334C33.8219 58.2616 33.4199 57.9005 33.1005 57.4712C32.4449 56.5996 32.157 55.5057 32.2985 54.4242C32.44 53.3428 32.9997 52.3598 33.8575 51.6862L54.6976 35.4957C55.1197 35.167 55.6032 34.9259 56.1198 34.7866C56.6364 34.6472 57.1756 34.6125 57.7058 34.6844C58.2359 34.7562 58.7464 34.9333 59.2073 35.2051C59.6681 35.4769 60.07 35.838 60.3894 36.2672C61.0441 37.1387 61.3315 38.2319 61.19 39.3127C61.0485 40.3934 60.4894 41.3758 59.6324 42.0494L38.7924 58.2427ZM38.7924 75.2135C38.3703 75.5422 37.8867 75.7833 37.3702 75.9226C36.8536 76.062 36.3144 76.0967 35.7842 76.0249C35.254 75.953 34.7435 75.776 34.2827 75.5041C33.8219 75.2323 33.4199 74.8712 33.1005 74.442C32.4449 73.5703 32.157 72.4764 32.2985 71.395C32.44 70.3135 32.9997 69.3306 33.8575 68.6569L54.6976 52.4665C55.1197 52.1377 55.6032 51.8966 56.1198 51.7573C56.6364 51.618 57.1756 51.5832 57.7058 51.6551C58.2359 51.727 58.7464 51.904 59.2073 52.1758C59.6681 52.4476 60.07 52.8088 60.3894 53.238C61.0441 54.1094 61.3315 55.2026 61.19 56.2834C61.0485 57.3642 60.4894 58.3465 59.6324 59.0201L38.7924 75.2135Z" fill="white"/>
</g>
<defs>
<clipPath id="clip0_342_6325">
<rect width="93.1659" height="93.1659" fill="white" transform="translate(0.0854492 0.366211)"/>
</clipPath>
</defs>
</svg>
