<svg width="94" height="94" viewBox="0 0 94 94" fill="none" xmlns="http://www.w3.org/2000/svg">
<g clip-path="url(#clip0_342_6329)">
<path d="M47.1825 93.5321C72.9096 93.5321 93.7655 72.6762 93.7655 46.9491C93.7655 21.2221 72.9096 0.366211 47.1825 0.366211C21.4555 0.366211 0.599609 21.2221 0.599609 46.9491C0.599609 72.6762 21.4555 93.5321 47.1825 93.5321Z" fill="#FFD800"/>
<path fill-rule="evenodd" clip-rule="evenodd" d="M69.5511 37.8834C69.7171 37.7174 70.0461 37.7174 70.3692 37.7174C75.2808 37.7174 79.2083 41.875 79.2083 46.8681C79.2083 51.5264 75.7729 55.186 71.3533 56.0158H70.3692C68.733 56.0158 67.0968 55.5179 65.6236 54.6853C65.1455 54.3486 64.572 54.1741 63.9874 54.1874C63.3323 54.1874 62.6772 54.3534 62.1881 54.6853C61.041 55.352 60.5519 56.5166 60.5519 57.8471V59.3436C60.3793 61.3988 59.5036 63.3317 58.0723 64.8166C56.6409 66.3016 54.7414 67.2477 52.6939 67.4956H51.7128C50.0765 67.4956 48.4403 66.9977 46.9671 66.1651C46.3121 65.8332 45.8229 65.6672 45.1679 65.6672C44.5128 65.6672 43.8577 65.8332 43.3657 66.1651C42.2215 66.8318 41.7295 67.9963 41.7295 69.3269V70.8234C41.4034 75.1497 37.965 78.4775 33.7114 78.9754H32.8933C27.9817 78.9754 24.0542 74.8149 24.0542 69.8247C24.2172 65.1664 27.4896 61.3408 31.9092 60.84H32.8933C34.5295 60.84 36.1657 61.3408 37.6389 62.1735C38.117 62.5102 38.6905 62.6847 39.2751 62.6713C39.9302 62.6713 40.5853 62.5054 41.0744 62.1735C42.2215 61.5068 42.7106 60.3422 42.7106 59.0117C42.3845 54.1874 45.8229 49.861 50.5686 49.3632H51.5497C53.186 49.3632 54.8222 49.861 56.2954 50.6937C56.9504 51.0256 57.4425 51.1916 58.0975 51.1916C58.7497 51.1916 59.4077 51.0256 59.8968 50.6937C61.041 50.027 61.533 48.8624 61.533 47.5319C61.207 42.7076 64.8055 38.3812 69.5511 37.8834ZM50.7345 26.4036C51.0606 26.2377 51.2266 26.2377 51.7157 26.2377C56.6273 26.2377 60.5548 30.3952 60.5548 35.3883C60.3918 40.0466 57.1193 43.8722 52.6968 44.3701H51.7157C50.0795 44.3701 48.4432 43.8722 46.97 43.0395C46.4919 42.7029 45.9184 42.5284 45.3338 42.5417C44.6787 42.5417 44.0237 42.7076 43.5346 43.0395C42.3874 43.7063 41.8954 44.8708 41.8954 46.2014V47.6978C41.5693 52.0213 38.1338 55.3491 33.8773 55.8498H33.0592C28.1505 55.8498 24.2201 51.6923 24.2201 46.6992C24.2201 42.2098 27.4955 38.5472 31.9121 37.8834H32.8962C34.5324 37.8834 36.1686 38.3812 37.6418 39.2139C38.1199 39.5506 38.6934 39.7251 39.278 39.7118C39.9331 39.7118 40.5882 39.5458 41.0773 39.2139C42.2244 38.5472 42.7135 37.3826 42.7135 36.0521C42.3875 31.2279 45.9889 26.9015 50.7345 26.4036ZM32.7302 14.9238C37.6098 14.9238 41.5664 18.9474 41.5664 23.9085C41.5664 28.8696 37.6069 32.8903 32.7302 32.8903C27.8478 32.8903 23.8911 28.8696 23.8911 23.9085C23.8911 18.9474 27.8507 14.9238 32.7302 14.9238Z" fill="white"/>
</g>
<defs>
<clipPath id="clip0_342_6329">
<rect width="93.1659" height="93.1659" fill="white" transform="translate(0.599609 0.366211)"/>
</clipPath>
</defs>
</svg>
