<svg width="94" height="94" viewBox="0 0 94 94" fill="none" xmlns="http://www.w3.org/2000/svg">
<g clip-path="url(#clip0_342_6333)">
<path d="M46.6972 93.5321C72.4242 93.5321 93.2801 72.6762 93.2801 46.9491C93.2801 21.2221 72.4242 0.366211 46.6972 0.366211C20.9701 0.366211 0.114258 21.2221 0.114258 46.9491C0.114258 72.6762 20.9701 93.5321 46.6972 93.5321Z" fill="#8D181B"/>
<path d="M74.9261 46.1693C77.0223 46.1693 78.7226 47.8288 78.7226 49.8814C78.7226 51.9339 77.0223 53.5935 74.9261 53.5935C73.3248 53.5935 71.9535 52.621 71.3975 51.2498H60.5669L56.5724 58.3537C55.9145 59.5241 54.1123 59.1776 53.9551 57.8529L53.0583 50.2628L49.7393 74.876C49.518 76.5123 47.0695 76.4366 46.956 74.7887L44.2338 34.9981L41.3515 61.3583C41.1768 62.9304 38.868 63.012 38.5856 61.4543L35.5344 44.6961L34.1253 50.2133C34.0459 50.512 33.8696 50.7758 33.6241 50.9634C33.3785 51.151 33.0776 51.2517 32.7686 51.2498H18.98C18.2085 51.2498 17.5825 50.6384 17.5825 49.8814C17.5825 49.1244 18.2085 48.513 18.98 48.513H31.6739L34.4077 37.8251C34.7745 36.3927 36.8766 36.4655 37.1444 37.9183L39.6162 51.5118L43.1653 19.058C43.3487 17.3956 45.838 17.4422 45.9515 19.1104L48.8076 60.8604L51.7598 38.9548C51.9753 37.3564 54.3481 37.3739 54.5373 38.9752L56.2318 53.2849L58.5144 49.2205C58.6377 49.0045 58.8161 48.8252 59.0315 48.7009C59.2469 48.5766 59.4914 48.5118 59.7401 48.513H71.3975C71.6862 47.8159 72.176 47.2207 72.8045 46.8033C73.433 46.3858 74.1716 46.1651 74.9261 46.1693Z" fill="white"/>
</g>
<defs>
<clipPath id="clip0_342_6333">
<rect width="93.1659" height="93.1659" fill="white" transform="translate(0.113281 0.366211)"/>
</clipPath>
</defs>
</svg>
