<svg width="94" height="94" viewBox="0 0 94 94" fill="none" xmlns="http://www.w3.org/2000/svg">
<g clip-path="url(#clip0_342_6337)">
<path d="M47.2094 93.5321C72.9364 93.5321 93.7923 72.6762 93.7923 46.9491C93.7923 21.2221 72.9364 0.366211 47.2094 0.366211C21.4824 0.366211 0.626465 21.2221 0.626465 46.9491C0.626465 72.6762 21.4824 93.5321 47.2094 93.5321Z" fill="#64D1FF"/>
<path fill-rule="evenodd" clip-rule="evenodd" d="M31.1968 44.7305H36.3325V20.7461H49.5708C52.0281 20.7461 54.2699 21.0343 56.2962 21.6108C58.3226 22.1873 60.0578 23.0665 61.5048 24.2427C62.9518 25.4189 64.0843 26.9125 64.9053 28.7147C65.7235 30.5198 66.134 32.6742 66.134 35.181C66.134 37.6877 65.6973 39.8684 64.8326 41.723C64.0145 43.5119 62.8021 45.0925 61.2864 46.3463C59.7296 47.6074 57.9343 48.5412 56.008 49.0918C53.8689 49.7093 51.6516 50.0133 49.4253 49.9944H42.1176V57.5874H53.7633V62.5514H42.1176V73.1519H36.3325V62.5514H31.1968V57.5874H36.3325V49.9944H31.1968V44.7305ZM49.5679 44.7305C52.8957 44.7305 55.5131 43.9415 57.4171 42.3635C59.3212 40.7826 60.2762 38.3894 60.2762 35.181C60.2762 31.9755 59.3212 29.6434 57.4171 28.1906C55.5131 26.7349 52.8957 26.0071 49.5708 26.0071H42.1176V44.7305H49.5679Z" fill="white"/>
</g>
<defs>
<clipPath id="clip0_342_6337">
<rect width="93.1659" height="93.1659" fill="white" transform="translate(0.627441 0.366211)"/>
</clipPath>
</defs>
</svg>
