<svg width="94" height="94" viewBox="0 0 94 94" fill="none" xmlns="http://www.w3.org/2000/svg">
<g clip-path="url(#clip0_342_6341)">
<path d="M46.7245 93.5321C72.4516 93.5321 93.3075 72.6762 93.3075 46.9491C93.3075 21.2221 72.4516 0.366211 46.7245 0.366211C20.9975 0.366211 0.141602 21.2221 0.141602 46.9491C0.141602 72.6762 20.9975 93.5321 46.7245 93.5321Z" fill="#384182"/>
<path fill-rule="evenodd" clip-rule="evenodd" d="M27.8003 78.9754L38.3339 30.0953L44.2441 66.7794L27.8003 78.9754ZM38.5377 29.8158L54.5418 66.8172L44.5177 66.6425L38.5377 29.8129V29.8158ZM38.7764 29.5363L59.7387 32.5147L54.8824 66.8172L38.7764 29.5363ZM55.2551 66.2902L59.9804 32.8291L63.0723 36.7538L55.2551 66.2902ZM59.6718 32.1974L39.216 29.2888L57.6337 23.2272L59.6718 32.1974ZM39.117 28.9744L51.6537 20.2838L57.6337 22.9128L39.117 28.9744ZM38.8084 28.8696L41.2249 24.2433L51.4499 20.144L38.8084 28.8696ZM41.2249 24.0366L42.3778 20.4264L50.8035 20.144L41.2249 24.0337V24.0366ZM42.3109 20.144L45.0272 17.2355L50.8734 19.8645L42.3109 20.144ZM45.199 17.0608L49.275 15.0636L54.5447 21.23L45.199 17.0608ZM49.8544 15.3081L55.9364 17.9721L54.8475 21.2649L49.8544 15.3081ZM55.0513 21.3697L56.1722 18.007L57.5318 22.6333L55.0513 21.3697ZM49.4119 14.9238H53.8634L56.0674 17.3753C56.0878 17.3989 56.0997 17.4288 56.1012 17.46C56.1027 17.4912 56.0937 17.522 56.0755 17.5475C56.0574 17.573 56.0313 17.5917 56.0013 17.6006C55.9713 17.6095 55.9393 17.608 55.9102 17.5965L49.4119 14.9238ZM56.4459 17.7275L65.5004 20.2547C65.5462 20.2657 65.5869 20.2918 65.616 20.3287C65.6452 20.3657 65.661 20.4114 65.661 20.4585C65.661 20.5055 65.6452 20.5512 65.616 20.5882C65.5869 20.6252 65.5462 20.6512 65.5004 20.6623L57.8055 22.7731L56.4459 17.7275Z" fill="white"/>
</g>
<defs>
<clipPath id="clip0_342_6341">
<rect width="93.1659" height="93.1659" fill="white" transform="translate(0.141602 0.366211)"/>
</clipPath>
</defs>
</svg>
