<svg width="94" height="94" viewBox="0 0 94 94" fill="none" xmlns="http://www.w3.org/2000/svg">
<g clip-path="url(#clip0_342_6345)">
<path d="M47.2392 93.5321C72.9662 93.5321 93.8221 72.6762 93.8221 46.9491C93.8221 21.2221 72.9662 0.366211 47.2392 0.366211C21.5121 0.366211 0.65625 21.2221 0.65625 46.9491C0.65625 72.6762 21.5121 93.5321 47.2392 93.5321Z" fill="#3D58B0"/>
<path d="M47.1977 12.0117C27.9531 12.0117 12.3013 27.6636 12.3013 46.9082C12.3013 66.1527 27.9531 81.7988 47.1977 81.7988C66.4423 81.7988 82.0883 66.1498 82.0883 46.9082C82.0912 27.6636 66.4394 12.0117 47.1977 12.0117ZM47.1977 16.7632C51.1577 16.7582 55.0797 17.5345 58.7391 19.0477C62.3986 20.5609 65.7235 22.7813 68.5235 25.5815C71.3235 28.3818 73.5435 31.7069 75.0563 35.3665C76.5692 39.0261 77.3451 42.9482 77.3398 46.9082C77.3448 50.8679 76.5685 54.7897 75.0555 58.4489C73.5425 62.1082 71.3224 65.433 68.5225 68.2329C65.7225 71.0329 62.3977 73.2529 58.7385 74.7659C55.0792 76.279 51.1574 77.0552 47.1977 77.0502C43.2378 77.0556 39.3156 76.2796 35.6561 74.7668C31.9965 73.2539 28.6713 71.0339 25.8711 68.234C23.0708 65.434 20.8505 62.109 19.3373 58.4496C17.8241 54.7902 17.0477 50.8681 17.0527 46.9082C17.0477 42.9481 17.8241 39.0259 19.3372 35.3663C20.8504 31.7067 23.0707 28.3815 25.8709 25.5813C28.6711 22.7811 31.9962 20.5608 35.6558 19.0477C39.3154 17.5345 43.2376 16.7582 47.1977 16.7632Z" fill="white"/>
<path d="M34.2329 34.0215V59.7877H60.1592V34.0215H34.2329ZM38.4545 38.2431H55.9347V55.5661H38.4574V38.2431H38.4545Z" fill="white"/>
</g>
<defs>
<clipPath id="clip0_342_6345">
<rect width="93.1659" height="93.1659" fill="white" transform="translate(0.655273 0.366211)"/>
</clipPath>
</defs>
</svg>
