<svg width="94" height="94" viewBox="0 0 94 94" fill="none" xmlns="http://www.w3.org/2000/svg">
<g clip-path="url(#clip0_342_6351)">
<path d="M46.7519 93.5321C72.4789 93.5321 93.3348 72.6762 93.3348 46.9491C93.3348 21.2221 72.4789 0.366211 46.7519 0.366211C21.0248 0.366211 0.168945 21.2221 0.168945 46.9491C0.168945 72.6762 21.0248 93.5321 46.7519 93.5321Z" fill="#00688C"/>
<path d="M78.7457 66.3717V29.4751L46.7082 11.0225L46.6646 11.0458L14.7378 29.4955V66.3834L46.6908 84.7895L46.6937 84.7924L78.7428 66.3746L78.7457 66.3717ZM64.567 60.4732L59.1022 57.3405L46.9091 64.4182C46.8738 64.4389 46.8336 64.4498 46.7927 64.4498C46.7517 64.4498 46.7115 64.4389 46.6762 64.4182L32.6868 56.3098L32.681 42.2039L20.3918 35.1582L46.5889 19.8004C46.5994 19.794 46.6115 19.7906 46.6238 19.7906C46.6361 19.7906 46.6482 19.794 46.6588 19.8004L70.9896 33.7113L66.6865 36.2005L46.6704 24.6829L28.9194 35.1029L35.0771 38.6403L46.682 31.8916L46.6879 31.8858L60.8665 39.9941L60.8607 53.4158L72.9461 60.3363L72.9432 60.5401L46.6937 75.8659L22.3599 61.9725L26.6194 59.4774L46.6529 70.9689L64.567 60.4702V60.4732Z" fill="white"/>
<path d="M50.5513 44.46V44.361L50.5484 44.297L50.5455 44.262L50.5397 44.1892V44.1659L50.531 44.0873V44.067L50.5193 43.9854V43.9709L50.5077 43.8864V43.8748L50.4931 43.7875L50.4902 43.7816L50.4727 43.6943L50.4698 43.6856L50.4494 43.5982V43.5924C50.4439 43.563 50.4371 43.5339 50.4291 43.5051V43.4992L50.4029 43.4119V43.409L50.3767 43.3158C50.3611 43.2564 50.3417 43.198 50.3184 43.1411V43.1382L50.2835 43.0509C50.2728 43.0214 50.2612 42.9922 50.2486 42.9635L50.2107 42.8762L50.1729 42.7947L50.1321 42.7073L50.0913 42.6258L50.0448 42.5443C50.0289 42.5183 50.0133 42.4921 49.9982 42.4657V42.4628L49.9516 42.3871L49.9487 42.3841C49.933 42.3594 49.9164 42.3351 49.8992 42.3114V42.3055L49.8497 42.2357C49.8497 42.2357 49.8497 42.2298 49.8439 42.2298L49.7944 42.16L49.7885 42.1541C49.7711 42.1309 49.7594 42.1076 49.7391 42.0843L49.7361 42.0784L49.6808 42.0115L49.675 42.0057L49.6226 41.9416L49.6168 41.9358L49.5585 41.8746C49.5561 41.8721 49.5541 41.8692 49.5527 41.8659L49.4974 41.8048C49.495 41.8022 49.493 41.7993 49.4916 41.796L49.4363 41.7378C49.4139 41.7155 49.3916 41.6932 49.3693 41.6708L49.3606 41.6621L49.3023 41.6039C49.28 41.5845 49.2577 41.5651 49.2354 41.5457L49.2266 41.5369C49.2068 41.5179 49.1864 41.4995 49.1655 41.4816L49.1568 41.4729C49.1369 41.4557 49.1165 41.4392 49.0956 41.4234L49.0869 41.4176L49.0228 41.3651L49.0141 41.3593L48.9471 41.3098L48.9384 41.304L48.8715 41.2545L48.8627 41.2487L48.7958 41.2021L48.787 41.1992L48.7171 41.1526L48.7113 41.1468L48.6385 41.1031H48.6327L48.557 41.0565H48.5512L48.4726 41.01H48.4697C47.5404 40.6175 46.4954 40.5997 45.5533 40.9602C44.6112 41.3207 43.8451 42.0315 43.4151 42.944C42.9852 43.8565 42.9249 44.8999 43.2467 45.8559C43.5685 46.8119 44.2476 47.6064 45.1419 48.0731L43.4533 55.7942H49.841L48.1378 48.0789C49.5993 47.4675 50.5513 46.0409 50.5513 44.46Z" fill="white"/>
</g>
<defs>
<clipPath id="clip0_342_6351">
<rect width="93.1659" height="93.1659" fill="white" transform="translate(0.169922 0.366211)"/>
</clipPath>
</defs>
</svg>
