<svg width="94" height="94" viewBox="0 0 94 94" fill="none" xmlns="http://www.w3.org/2000/svg">
<g clip-path="url(#clip0_342_6357)">
<path d="M47.2665 93.5321C72.9936 93.5321 93.8495 72.6762 93.8495 46.9491C93.8495 21.2221 72.9936 0.366211 47.2665 0.366211C21.5395 0.366211 0.683594 21.2221 0.683594 46.9491C0.683594 72.6762 21.5395 93.5321 47.2665 93.5321Z" fill="#B68900"/>
<path d="M78.2238 46.4168L46.7337 14.9238L15.2407 46.4168L46.7337 58.0509L78.2238 46.4168ZM25.0348 43.747L46.3843 21.9171C46.3843 21.9171 67.2564 43.2666 68.1356 43.6946C69.0178 44.1197 53.7794 43.6946 53.7794 43.6946L46.7337 36.4888L39.6065 43.747H25.0348ZM46.7337 60.2665L78.2238 48.5509L46.7337 77.9069L15.2407 48.711L46.7337 60.2694V60.2665Z" fill="white"/>
</g>
<defs>
<clipPath id="clip0_342_6357">
<rect width="93.1659" height="93.1659" fill="white" transform="translate(0.683594 0.366211)"/>
</clipPath>
</defs>
</svg>
