<svg width="94" height="94" viewBox="0 0 94 94" fill="none" xmlns="http://www.w3.org/2000/svg">
<g clip-path="url(#clip0_342_6365)">
<path d="M47.2944 93.5321C73.0214 93.5321 93.8773 72.6762 93.8773 46.9491C93.8773 21.2221 73.0214 0.366211 47.2944 0.366211C21.5673 0.366211 0.711426 21.2221 0.711426 46.9491C0.711426 72.6762 21.5673 93.5321 47.2944 93.5321Z" fill="#2B77B3"/>
<path d="M79.3207 47.0639C79.1838 64.8469 64.7722 79.1071 47.0707 78.9732C29.3546 78.8422 15.1265 64.3665 15.2691 46.6213C15.4147 29.045 29.8671 14.8081 47.4405 14.9245C65.142 15.0439 79.4488 29.4701 79.3207 47.0668V47.0639ZM17.5866 46.9619C17.6187 63.3242 30.8569 76.5334 47.2512 76.5712C63.663 76.6003 77.0527 63.3009 76.9973 46.9212C76.9362 29.8602 62.8041 16.9917 46.5379 17.2712C30.8104 17.539 17.5546 30.9083 17.5866 46.9619ZM55.1004 33.0569L53.9155 36.8476C51.7086 36.4837 49.6648 36.0499 47.5948 35.8461C46.3662 35.7267 45.0909 36.047 44.6164 37.4299C44.1273 38.8478 44.069 40.3588 45.2423 41.4535C46.4477 42.5744 47.8626 43.4624 49.1844 44.4581C50.3985 45.3723 51.7348 46.17 52.7946 47.2385C55.6682 50.1383 56.1777 53.6553 54.9986 57.446C54.2998 59.6936 52.6345 61.1144 50.5033 61.9762C47.2425 63.298 41.6904 62.6458 38.5722 60.5496L39.9406 56.5784C41.9262 57.1025 43.7429 57.7313 45.6121 58.0283C47.3939 58.3107 49.2601 58.037 50.1743 56.2174C51.0943 54.3832 50.8032 52.4529 49.362 50.9797C48.2498 49.8443 46.8553 48.9796 45.5539 48.0334C44.6863 47.4045 43.7167 46.9095 42.8724 46.2516C41.2354 44.9999 40.0697 43.2313 39.5649 41.2333C39.0602 39.2354 39.2459 37.1254 40.092 35.2463C40.4649 34.349 41.0486 33.5548 41.7936 32.931C42.5386 32.3071 43.423 31.8719 44.3718 31.6624C48.0257 30.7948 51.5689 31.1878 55.1004 33.0599V33.0569ZM31.5761 46.4204C31.5761 47.3945 31.1918 48.3293 30.5065 49.0217C29.8212 49.714 28.8905 50.108 27.9164 50.1179C25.8784 50.1267 24.1374 48.3507 24.1839 46.3214C24.2223 45.3479 24.636 44.4271 25.3383 43.7519C26.0407 43.0767 26.9771 42.6996 27.9513 42.6996C29.9893 42.7287 31.5906 44.3737 31.579 46.4204H31.5761ZM66.784 42.8015C68.8162 42.7986 70.3302 44.298 70.3564 46.3418C70.3677 46.8356 70.2798 47.3267 70.0978 47.7859C69.9159 48.2452 69.6437 48.6632 69.2973 49.0154C68.9509 49.3675 68.5373 49.6465 68.0811 49.8359C67.6249 50.0253 67.1353 50.1212 66.6414 50.1179C65.6665 50.1019 64.7373 49.7023 64.055 49.0058C63.3727 48.3094 62.9923 47.3721 62.9963 46.3971C62.9963 44.266 64.5393 42.8015 66.784 42.8015Z" fill="white"/>
</g>
<defs>
<clipPath id="clip0_342_6365">
<rect width="93.1659" height="93.1659" fill="white" transform="translate(0.711426 0.366211)"/>
</clipPath>
</defs>
</svg>
