<svg width="94" height="94" viewBox="0 0 94 94" fill="none" xmlns="http://www.w3.org/2000/svg">
<g clip-path="url(#clip0_342_6369)">
<path d="M46.8085 93.5321C72.5356 93.5321 93.3915 72.6762 93.3915 46.9491C93.3915 21.2221 72.5356 0.366211 46.8085 0.366211C21.0815 0.366211 0.225586 21.2221 0.225586 46.9491C0.225586 72.6762 21.0815 93.5321 46.8085 93.5321Z" fill="#4BA2F2"/>
<path d="M28.9611 24.3249C29.5899 24.4326 28.0236 28.6047 28.897 33.3707C29.654 37.4554 39.1074 53.2733 38.7173 58.7002C38.4145 62.1065 30.6526 70.0984 29.8345 69.5656C28.9407 69.3182 32.1928 63.8883 30.9874 59.364C29.5841 54.0885 21.2632 40.4513 21.272 34.4305C21.272 30.0255 28.3992 24.0396 28.9582 24.3249H28.9611ZM46.747 18.0944C47.5448 18.2312 45.5533 23.5563 46.6655 29.6208C47.6263 34.8381 59.6883 55.0085 59.1876 61.9231C58.7975 66.2728 48.9044 76.4541 47.8563 75.7815C46.7208 75.47 50.8667 68.5437 49.3295 62.7733C47.5448 56.0537 36.9326 38.6608 36.9413 30.9833C36.9413 25.3613 46.0308 17.7363 46.747 18.0973V18.0944ZM65.1036 24.3249C65.7325 24.4326 64.169 28.6047 65.0396 33.3707C65.7965 37.4554 75.25 53.2733 74.8627 58.7002C74.5629 62.1065 66.7981 70.0984 65.977 69.5656C65.0861 69.3182 68.3353 63.8883 67.13 59.364C65.7296 54.0885 57.4058 40.4513 57.4145 34.4305C57.4145 30.0255 64.5475 24.0396 65.1036 24.3249Z" fill="white"/>
</g>
<defs>
<clipPath id="clip0_342_6369">
<rect width="93.1659" height="93.1659" fill="white" transform="translate(0.225586 0.366211)"/>
</clipPath>
</defs>
</svg>
