<svg width="94" height="94" viewBox="0 0 94 94" fill="none" xmlns="http://www.w3.org/2000/svg">
<g clip-path="url(#clip0_342_6373)">
<path d="M47.3229 93.5321C73.05 93.5321 93.9059 72.6762 93.9059 46.9491C93.9059 21.2221 73.05 0.366211 47.3229 0.366211C21.5959 0.366211 0.73999 21.2221 0.73999 46.9491C0.73999 72.6762 21.5959 93.5321 47.3229 93.5321Z" fill="#48B254"/>
<path fill-rule="evenodd" clip-rule="evenodd" d="M66.7742 21.8178L69.5255 24.3158L34.7863 44.1485L17.9698 34.468L19.542 31.344L34.7863 40.0113L66.7742 21.8149V21.8178ZM59.7809 17.835L63.4726 19.7099L34.7863 36.1071L21.4286 28.5316L23.7053 25.8006L34.7863 32.1243L59.7838 17.835H59.7809ZM71.9624 26.8924L74.0033 29.6263L34.7863 52.0356L15.8474 41.2604L16.7121 37.8249L34.7863 48.1313L71.9624 26.8924ZM77.6193 36.966C78.7722 40.1948 79.3487 43.5749 79.3487 47.1152C79.3487 50.6555 78.7722 54.094 77.6193 57.4217L76.8332 59.5325C75.219 63.3186 72.8991 66.763 69.9971 69.6818C67.0608 72.5649 63.5894 74.8466 59.778 76.3984C55.7457 78.1162 51.5823 78.9751 47.285 78.9751C42.9354 78.9751 38.7691 78.1162 34.7863 76.3984C31.0204 74.8065 27.5829 72.529 24.6487 69.6818C21.7134 66.7905 19.3888 63.3392 17.8126 59.5325C16.1531 55.6021 15.2942 51.3805 15.2971 47.1152V45.0074L34.7863 56.0184L75.8899 32.593L77.6193 36.966Z" fill="white"/>
</g>
<defs>
<clipPath id="clip0_342_6373">
<rect width="93.1659" height="93.1659" fill="white" transform="translate(0.739502 0.366211)"/>
</clipPath>
</defs>
</svg>
