<svg width="94" height="94" viewBox="0 0 94 94" fill="none" xmlns="http://www.w3.org/2000/svg">
<g clip-path="url(#clip0_342_6377)">
<path d="M46.8354 93.5321C72.5624 93.5321 93.4183 72.6762 93.4183 46.9491C93.4183 21.2221 72.5624 0.366211 46.8354 0.366211C21.1083 0.366211 0.252441 21.2221 0.252441 46.9491C0.252441 72.6762 21.1083 93.5321 46.8354 93.5321Z" fill="#20EE82"/>
<path fill-rule="evenodd" clip-rule="evenodd" d="M46.8356 22.2021C53.3989 22.2021 59.6935 24.8094 64.3345 29.4504C68.9755 34.0914 71.5827 40.386 71.5827 46.9493V71.6965H46.8356C40.2722 71.6965 33.9777 69.0892 29.3367 64.4482C24.6957 59.8072 22.0884 53.5127 22.0884 46.9493C22.0884 40.386 24.6957 34.0914 29.3367 29.4504C33.9777 24.8094 40.2722 22.2021 46.8356 22.2021ZM61.6839 61.7976V47.1735C61.6839 38.9633 55.1186 32.1418 46.9113 32.101C44.9493 32.0933 43.0051 32.4741 41.191 33.2214C39.3769 33.9686 37.7286 35.0676 36.3412 36.455C34.9539 37.8424 33.8549 39.4906 33.1076 41.3048C32.3603 43.1189 31.9796 45.063 31.9873 47.025C32.028 55.2324 38.8524 61.7976 47.0597 61.7976H61.6839Z" fill="white"/>
</g>
<defs>
<clipPath id="clip0_342_6377">
<rect width="93.1659" height="93.1659" fill="white" transform="translate(0.253418 0.366211)"/>
</clipPath>
</defs>
</svg>
