<svg width="94" height="94" viewBox="0 0 94 94" fill="none" xmlns="http://www.w3.org/2000/svg">
<g clip-path="url(#clip0_342_6381)">
<path d="M93.9335 47.5888C93.9335 56.802 91.2014 65.8084 86.0828 73.4689C80.9642 81.1294 73.689 87.1001 65.1771 90.6258C56.6651 94.1516 47.2989 95.0741 38.2627 93.2766C29.2264 91.4792 20.9262 87.0426 14.4114 80.5279C7.89668 74.0132 3.46009 65.7129 1.66268 56.6767C-0.134736 47.6405 0.787762 38.2742 4.31351 29.7623C7.83927 21.2504 13.8099 13.9751 21.4704 8.8565C29.131 3.7379 38.1373 1.00586 47.3505 1.00586C59.7051 1.00586 71.5536 5.91369 80.2896 14.6497C89.0256 23.3857 93.9335 35.2342 93.9335 47.5888Z" fill="#006AA8"/>
<path d="M43.8397 56.5036C43.8625 57.9267 43.5552 59.3356 42.9419 60.6199C42.3608 61.82 41.503 62.865 40.4391 63.6689C39.2434 64.5551 37.8894 65.2047 36.4499 65.5831C34.723 66.0301 32.9443 66.2451 31.1607 66.2225C29.3803 66.2324 27.6023 66.0907 25.846 65.7991C24.4238 65.5954 23.0378 65.1905 21.7297 64.5964V60.387C22.3099 60.6368 22.9663 60.8909 23.6989 61.1408C24.4315 61.3906 25.2319 61.5939 26.0492 61.7802C26.8666 61.9666 27.7093 62.1275 28.5901 62.2545C29.4469 62.3637 30.3097 62.4188 31.1734 62.4197C33.9006 62.4197 35.9107 61.9468 37.2037 61.001C37.8464 60.5427 38.3635 59.9302 38.7076 59.2198C39.0517 58.5094 39.2117 57.724 39.1729 56.9356C39.1893 56.1769 39.0599 55.4222 38.7918 54.7123C38.5154 54.0323 38.0657 53.4366 37.4875 52.9845C36.7355 52.3596 35.9003 51.8423 35.0059 51.4473C33.9698 50.9447 32.6584 50.4013 31.0717 49.8169C29.7019 49.3303 28.3758 48.7282 27.1079 48.0171C26.0825 47.4204 25.1531 46.6723 24.3511 45.798C23.6382 44.9807 23.0903 44.033 22.7376 43.0073C22.3827 41.8585 22.2112 40.6608 22.2294 39.4585C22.2061 38.1735 22.4861 36.9011 23.0468 35.7446C23.5837 34.6647 24.3653 33.7251 25.3293 33.0004C26.3882 32.2106 27.5863 31.6273 28.8612 31.2811C30.3425 30.8747 31.8733 30.6765 33.4093 30.6925C35.2472 30.6691 37.082 30.848 38.8807 31.226C40.3617 31.5303 41.8087 31.9815 43.2002 32.5727L41.5063 36.2612C40.2725 35.7692 39.0007 35.3783 37.7034 35.0924C36.2878 34.7394 34.8345 34.5602 33.3755 34.5588C31.2976 34.5588 29.6869 35.0091 28.5435 35.9097C27.9935 36.3283 27.5524 36.8731 27.2576 37.4982C26.9627 38.1233 26.8228 38.8102 26.8496 39.5009C26.8317 40.2986 26.9624 41.0928 27.235 41.8427C27.5149 42.5248 27.9499 43.1323 28.5054 43.6171C29.2142 44.2124 29.9971 44.7135 30.8346 45.1078C31.8199 45.5651 33.0296 46.0535 34.4638 46.573C35.8526 47.0711 37.2089 47.6552 38.525 48.322C39.599 48.8519 40.5892 49.5367 41.464 50.3547C42.2338 51.0933 42.8361 51.9887 43.2299 52.9803C43.6597 54.1041 43.8668 55.3008 43.8397 56.5036Z" fill="white"/>
<path d="M55.9471 52.3397L59.3985 48.3209L66.8898 39.7835H72.2808L62.0325 51.0185L72.971 65.7471H67.6309L59.0427 53.8304L56.2435 55.7699V65.7471H51.6572V28.9551H56.2435V45.8393L55.82 52.3397H55.9471Z" fill="white"/>
</g>
<defs>
<clipPath id="clip0_342_6381">
<rect width="93.1659" height="93.1659" fill="white" transform="translate(0.767578 0.366211)"/>
</clipPath>
</defs>
</svg>
