<svg width="94" height="94" viewBox="0 0 94 94" fill="none" xmlns="http://www.w3.org/2000/svg">
<g clip-path="url(#clip0_342_6385)">
<path d="M46.8649 93.5321C72.592 93.5321 93.4479 72.6762 93.4479 46.9491C93.4479 21.2221 72.592 0.366211 46.8649 0.366211C21.1379 0.366211 0.281982 21.2221 0.281982 46.9491C0.281982 72.6762 21.1379 93.5321 46.8649 93.5321Z" fill="#964B9C"/>
<path opacity="0.6" d="M59.9872 48.1318L46.9673 61.1489H73.0013L59.9872 48.1318Z" fill="white"/>
<path opacity="0.7" d="M33.8451 48.144L46.8651 35.1299H20.8281L33.8481 48.1469L33.8451 48.144Z" fill="white"/>
<path opacity="0.4" d="M46.967 61.1503L59.952 48.1653L46.9088 35.1162L20.8718 61.1503L46.9059 87.1872L72.9428 61.1503H72.937H46.967Z" fill="white"/>
<path opacity="0.8" d="M47.0278 9.10059L21.0083 35.1201H46.8647L33.9205 48.0643L47.0278 61.1687L73.0618 35.1346L47.0278 9.10059Z" fill="white"/>
</g>
<defs>
<clipPath id="clip0_342_6385">
<rect width="93.1659" height="93.1659" fill="white" transform="translate(0.281494 0.366211)"/>
</clipPath>
</defs>
</svg>
