<svg width="94" height="95" viewBox="0 0 94 95" fill="none" xmlns="http://www.w3.org/2000/svg">
<g clip-path="url(#clip0_342_6393)">
<path d="M47.0414 94.0458C72.7685 94.0458 93.6244 73.1899 93.6244 47.4628C93.6244 21.7358 72.7685 0.879883 47.0414 0.879883C21.3144 0.879883 0.458496 21.7358 0.458496 47.4628C0.458496 73.1899 21.3144 94.0458 47.0414 94.0458Z" fill="#057BC1"/>
<path d="M47.0417 12.5264C27.7476 12.5264 12.1045 28.1695 12.1045 47.4636C12.1045 66.7576 27.7476 82.4008 47.0417 82.4008C66.3358 82.4008 81.9789 66.7576 81.9789 47.4636C81.9789 38.1976 78.298 29.3112 71.746 22.7592C65.194 16.2072 56.3076 12.5264 47.0417 12.5264ZM59.1998 60.6436H57.7791V68.5977H53.0043V60.6436H45.7345V57.6885H53.1208V52.349C49.2857 54.4861 44.8222 55.2094 40.5084 54.3928C38.1211 53.825 35.7366 52.5207 34.4876 50.3604C33.3009 48.2482 32.7111 45.853 32.7815 43.4312V30.8189H37.6116V43.8854C37.7251 46.7241 39.5418 49.5656 42.3281 50.4187C45.9922 51.26 49.8398 50.6485 53.0625 48.7126C53.0625 44.7356 53.0043 38.7729 53.0625 30.8189H57.9479V57.6914H59.1998V60.6436Z" fill="white"/>
</g>
<defs>
<clipPath id="clip0_342_6393">
<rect width="93.1659" height="93.1659" fill="white" transform="translate(0.459473 0.880859)"/>
</clipPath>
</defs>
</svg>
