<svg width="95" height="95" viewBox="0 0 95 95" fill="none" xmlns="http://www.w3.org/2000/svg">
<g clip-path="url(#clip0_342_6397)">
<path d="M47.5566 94.0467C73.2836 94.0467 94.1395 73.1908 94.1395 47.4638C94.1395 21.7367 73.2836 0.880859 47.5566 0.880859C21.8295 0.880859 0.973633 21.7367 0.973633 47.4638C0.973633 73.1908 21.8295 94.0467 47.5566 94.0467Z" fill="#F5342E"/>
<path d="M18.4449 47.8238C18.4117 44.5804 18.9104 41.3535 19.921 38.2714C21.062 34.7763 22.8551 31.529 25.2053 28.7015C27.8717 25.4574 31.2221 22.8427 35.0168 21.0444C37.5317 19.8479 40.2135 19.04 42.9708 18.6483C44.6281 18.4031 46.3042 18.3095 47.9785 18.3688C51.2848 18.4897 54.5436 19.1955 57.6037 20.4534C57.6503 20.4738 57.7056 20.4942 57.7114 20.5524C57.7172 20.6281 57.6503 20.6514 57.595 20.6747L56.5468 21.0823C54.2634 21.9693 52.0316 22.9841 49.8622 24.1218C47.4544 25.3941 45.1428 26.8207 42.997 28.5239C41.1337 30.0058 39.4305 31.6537 38.0476 33.6277C37.1159 34.9553 36.3823 36.3819 35.9805 37.9744C35.4681 39.9891 35.5933 41.9835 36.1755 43.9603C36.6035 45.4219 37.247 46.7902 37.9573 48.1237C38.8541 49.8123 39.8702 51.4282 40.8047 53.0935C41.6549 54.6074 42.4468 56.1505 42.9708 57.8246C43.3348 58.9921 43.5531 60.1887 43.5298 61.4173C43.4906 63.0107 43.0799 64.5729 42.3303 65.9795C41.4482 67.6798 40.2399 69.1122 38.8948 70.434C37.6516 71.6539 36.3007 72.7282 34.9062 73.753C34.7024 73.9044 34.5422 73.8986 34.3297 73.788C32.2979 72.7555 30.3969 71.4839 28.667 70.0002C26.5691 68.2013 24.7387 66.1121 23.2313 63.7959C20.7564 59.9927 19.1885 55.6715 18.6487 51.1661C18.5047 50.058 18.4366 48.9413 18.4449 47.8238Z" fill="white"/>
<path d="M36.0479 74.3664C36.1003 74.2412 36.2313 74.2383 36.3303 74.2034C38.3645 73.4597 40.3656 72.6282 42.3278 71.7112C44.6278 70.6281 46.8667 69.4286 48.9863 68.0282C50.6417 66.9527 52.2004 65.735 53.6446 64.3889C55.0653 63.0497 56.3231 61.5823 57.3013 59.8937C58.0932 58.5253 58.6289 57.0667 58.8036 55.4916C58.9482 54.0593 58.8127 52.6127 58.4048 51.2322C57.968 49.692 57.2838 48.2567 56.5152 46.8563C55.5952 45.1764 54.55 43.5664 53.5863 41.9127C52.7682 40.5064 52.0054 39.074 51.4522 37.5397C50.8946 36.0655 50.6583 34.4892 50.7593 32.9163C50.8379 31.8391 51.1174 30.8026 51.5512 29.8069C52.2034 28.3104 53.1438 27.0032 54.2356 25.7979C55.831 24.0306 57.6856 22.5662 59.6188 21.1862C59.8314 21.0319 60.009 21.0144 60.2448 21.1338C62.3002 22.1644 64.2218 23.393 65.9949 24.8517C67.8087 26.3452 69.4216 28.0251 70.8278 29.8972C74.1675 34.3165 76.1611 39.6056 76.5692 45.1298C76.6332 46.0469 76.6915 46.964 76.6653 47.884C76.6027 50.5615 76.1796 53.2183 75.4075 55.7827C73.9018 60.7149 71.1161 65.1601 67.3341 68.6658C63.1631 72.5329 57.9687 75.12 52.3693 76.1191C50.3976 76.4653 48.3964 76.6154 46.3951 76.5675C42.9494 76.4795 39.545 75.7948 36.3332 74.544C36.2284 74.4974 36.1061 74.4858 36.0479 74.3693V74.3664Z" fill="white"/>
</g>
<defs>
<clipPath id="clip0_342_6397">
<rect width="93.1659" height="93.1659" fill="white" transform="translate(0.973633 0.880859)"/>
</clipPath>
</defs>
</svg>
