<svg width="94" height="95" viewBox="0 0 94 95" fill="none" xmlns="http://www.w3.org/2000/svg">
<g clip-path="url(#clip0_342_6403)">
<path d="M47.0717 94.0467C72.7988 94.0467 93.6546 73.1908 93.6546 47.4638C93.6546 21.7367 72.7988 0.880859 47.0717 0.880859C21.3447 0.880859 0.48877 21.7367 0.48877 47.4638C0.48877 73.1908 21.3447 94.0467 47.0717 94.0467Z" fill="#0072FF"/>
<path d="M70.4417 38.1555L56.4319 69.2991H50.8332L65.5797 36.5163C67.2794 36.7919 68.9221 37.3457 70.4417 38.1555ZM45.9275 19.86L24.3741 67.7793C18.8773 65.1706 15.0459 59.4555 15.0459 52.8C15.0459 43.6872 22.2138 36.3038 31.0588 36.3038C31.0588 27.584 37.6212 20.4656 45.9275 19.86ZM63.0875 36.3038L48.2421 69.2991H42.1775L60.8165 27.8694C62.2519 30.3383 63.0875 33.2147 63.0875 36.3038ZM68.6017 68.2771L78.1105 47.1518C78.7393 48.9219 79.0974 50.8202 79.0974 52.8087C79.0974 59.9068 74.7303 65.9538 68.6017 68.2771ZM72.8 39.7043C74.1276 40.7525 75.3038 41.9985 76.253 43.4281L64.648 69.2175C64.1296 69.2725 63.6087 69.2997 63.0875 69.2991H59.4889L72.8 39.7043ZM47.1299 19.8047C49.4008 19.8134 51.5524 20.3113 53.5059 21.2051L31.874 69.2991H31.0588C29.0499 69.2991 27.1283 68.9031 25.3611 68.2014L47.1299 19.8047ZM59.553 25.9711L40.0609 69.2991H33.5219L54.8539 21.8864C56.6648 22.9287 58.2603 24.3203 59.553 25.9711Z" fill="white"/>
</g>
<defs>
<clipPath id="clip0_342_6403">
<rect width="93.1659" height="93.1659" fill="white" transform="translate(0.487793 0.880859)"/>
</clipPath>
</defs>
</svg>
