<svg width="94" height="95" viewBox="0 0 94 95" fill="none" xmlns="http://www.w3.org/2000/svg">
<g clip-path="url(#clip0_342_6407)">
<path d="M46.5834 94.0467C72.3105 94.0467 93.1664 73.1908 93.1664 47.4638C93.1664 21.7367 72.3105 0.880859 46.5834 0.880859C20.8564 0.880859 0.000488281 21.7367 0.000488281 47.4638C0.000488281 73.1908 20.8564 94.0467 46.5834 94.0467Z" fill="#FDA616"/>
<path d="M34.7079 64.9316C35.0486 65.9913 39.2643 70.3585 43.6518 70.3585C50.156 70.3585 53.9554 66.4339 53.9554 60.7566C53.9554 55.4985 51.3235 52.4939 44.6738 49.5708C36.6353 46.3159 31.6655 41.5557 31.6655 33.6249C31.6655 24.8615 38.024 18.3486 47.5968 18.3486C52.6394 18.3486 57.749 21.5221 59.4435 23.6416L55.3762 27.8778C53.7691 26.8762 51.8388 24.3578 47.3785 24.3578C40.656 24.3578 38.0968 28.9492 38.0968 32.7893C38.0968 38.0503 41.0956 40.6386 47.888 43.6432C56.2205 47.3174 60.4595 51.9087 60.4595 60.1714C60.4595 68.8562 54.7997 76.5773 43.1802 76.5773C38.4287 76.5773 33.3541 73.4038 30.3029 69.52L34.7079 64.9316ZM40.129 34.9351C39.1129 32.8185 39.7913 30.7018 39.7913 30.7018C65.54 26.4657 60.7973 51.5186 60.7973 51.5186C58.7651 47.6406 56.7329 46.9331 56.7329 46.9331C57.0706 32.4633 40.129 34.9351 40.129 34.9351ZM51.6495 57.8743C52.6685 60.3461 51.4923 62.9169 51.4923 62.9169C22.1742 66.6959 30.0933 39.8874 30.0846 39.8874C31.6393 44.0042 33.5725 44.9679 33.5725 44.9679C33.0193 61.7552 51.6495 57.8743 51.6495 57.8743Z" fill="white"/>
</g>
<defs>
<clipPath id="clip0_342_6407">
<rect width="93.1659" height="93.1659" fill="white" transform="translate(0.00146484 0.880859)"/>
</clipPath>
</defs>
</svg>
