<svg width="94" height="95" viewBox="0 0 94 95" fill="none" xmlns="http://www.w3.org/2000/svg">
<g clip-path="url(#clip0_342_6411)">
<path d="M47.0986 94.0467C72.8256 94.0467 93.6815 73.1908 93.6815 47.4638C93.6815 21.7367 72.8256 0.880859 47.0986 0.880859C21.3715 0.880859 0.515625 21.7367 0.515625 47.4638C0.515625 73.1908 21.3715 94.0467 47.0986 94.0467Z" fill="#8E9495"/>
<path d="M22.7093 61.179C22.0425 59.741 21.548 58.2292 21.2361 56.675C21.0565 55.8566 20.9426 55.0252 20.8955 54.1887H23.4983C23.5578 54.8613 23.655 55.53 23.7895 56.1917C24.0719 57.5572 24.497 58.9139 25.0792 60.1513C26.6398 63.4587 29.0097 65.3453 32.451 65.3453C35.1412 65.3453 37.2257 64.2681 38.6931 62.3698C39.9392 60.7656 40.6438 58.6373 40.6438 56.8497C40.6438 54.5584 39.7762 52.8698 38.0439 51.4403C36.6347 50.2757 35.0131 49.4605 31.6649 48.0688L31.0739 47.8243C27.5918 46.3831 25.9847 45.5912 24.4213 44.3568C22.261 42.6506 21.1139 40.534 21.1139 37.8235C21.1139 34.5772 22.2814 31.8259 24.3718 29.8811C26.3541 28.0665 28.9484 27.0673 31.6358 27.0832C35.3624 27.0832 38.2069 28.635 40.0993 31.3543V27.6568H48.5075V64.7688H51.0056V54.3546C51.0014 54.2693 51.0014 54.1838 51.0056 54.0984L53.6084 54.1858V54.3168C53.6597 54.9482 53.7471 55.5762 53.8704 56.1976C54.1412 57.5514 54.5604 58.911 55.1427 60.1484C56.6945 63.4528 59.0673 65.3424 62.5057 65.3424C65.1959 65.3424 67.2805 64.2651 68.7478 62.3669C69.9939 60.7627 70.6985 58.6344 70.6985 56.8468C70.6985 54.5555 69.8309 52.8669 68.0986 51.4374C66.6894 50.2728 65.0678 49.4576 61.7196 48.0659L61.1286 47.8214C57.6465 46.3802 56.0394 45.5883 54.476 44.3538C52.3157 42.6477 51.1686 40.5311 51.1686 37.8206C51.1686 34.5743 52.3361 31.823 54.4265 29.8782C56.4093 28.0647 59.0035 27.0665 61.6905 27.0832C65.4171 27.0832 68.2616 28.635 70.1541 31.3543V27.814H72.7598V40.6883H70.1541C70.1541 37.9982 69.5368 35.2731 68.3228 33.2613C66.8903 30.8826 64.7359 29.5841 61.6905 29.5841C59.6744 29.5695 57.7271 30.316 56.2374 31.6745C54.6652 33.1419 53.7714 35.2411 53.7714 37.8206C53.7714 39.7421 54.5459 41.1687 56.1297 42.4206C57.4398 43.4542 58.9072 44.1762 62.1593 45.5242L62.7503 45.7688C66.3401 47.2565 68.119 48.1562 69.7959 49.5391C72.0872 51.4315 73.3013 53.8014 73.3013 56.8468C73.3013 59.1643 72.4221 61.8137 70.8382 63.8634C68.8905 66.3759 66.046 67.8433 62.5057 67.8433C60.0514 67.8433 57.9464 67.098 56.217 65.7179C55.182 64.881 54.2995 63.8714 53.6084 62.7337V67.2697H45.9047V30.1577H42.7021V40.6883H40.0993C40.0993 37.9982 39.4821 35.2731 38.268 33.2613C36.8356 30.8826 34.6811 29.5841 31.6358 29.5841C29.6197 29.5695 27.6723 30.316 26.1827 31.6745C24.6105 33.1419 23.7167 35.2411 23.7167 37.8206C23.7167 39.7421 24.4911 41.1687 26.0749 42.4206C27.3851 43.4542 28.8525 44.1762 32.1045 45.5242L32.6955 45.7688C36.2853 47.2565 38.0642 48.1562 39.7412 49.5391C42.0325 51.4315 43.2466 53.8014 43.2466 56.8468C43.2466 59.1643 42.3673 61.8137 40.7835 63.8634C38.8358 66.3759 35.9913 67.8433 32.451 67.8433C29.9966 67.8433 27.8917 67.098 26.1623 65.7179C25.1013 64.8602 24.1996 63.8225 23.4983 62.6522V67.1125H20.8955V54.1858H23.4983V62.6522C23.2089 62.1757 22.9456 61.684 22.7093 61.179Z" fill="white"/>
</g>
<defs>
<clipPath id="clip0_342_6411">
<rect width="93.1659" height="93.1659" fill="white" transform="translate(0.515625 0.880859)"/>
</clipPath>
</defs>
</svg>
