<svg width="94" height="95" viewBox="0 0 94 95" fill="none" xmlns="http://www.w3.org/2000/svg">
<g clip-path="url(#clip0_342_6415)">
<path d="M46.6137 94.0458C72.3407 94.0458 93.1966 73.1899 93.1966 47.4628C93.1966 21.7358 72.3407 0.879883 46.6137 0.879883C20.8867 0.879883 0.0307617 21.7358 0.0307617 47.4628C0.0307617 73.1899 20.8867 94.0458 46.6137 94.0458Z" fill="#FEC60D"/>
<path d="M77.6695 30.4221L67.66 24.6604C67.3165 24.4566 66.9991 24.279 66.6585 24.0839C66.3266 23.8946 66.0034 23.6908 65.6657 23.4958C63.6597 22.3487 61.6479 21.2365 59.6652 20.0486L50.1565 14.5577C49.6033 14.2229 46.7443 12.543 46.622 12.543C46.5725 12.543 46.2115 12.7759 46.1329 12.8254L33.1421 20.3078C32.9528 20.4155 32.8218 20.4999 32.6297 20.6047C32.4645 20.6962 32.3015 20.7913 32.1405 20.89L31.1448 21.4723C30.9754 21.5746 30.8046 21.6746 30.6324 21.7722L29.6542 22.337C29.3106 22.5408 28.9875 22.7155 28.6497 22.9106L26.6379 24.0606C26.4632 24.1509 26.3177 24.2469 26.1488 24.343L23.6333 25.7987C23.284 26.0025 22.9608 26.1714 22.6202 26.3665L20.6316 27.5398C19.633 28.1104 18.6315 28.7189 17.6183 29.2692C17.1729 29.5079 14.835 30.9345 14.605 30.9956V68.0116C14.7913 68.0291 17.3476 69.5518 17.6125 69.709L21.6186 72.0265C21.9534 72.2303 22.2883 72.4137 22.6202 72.6058L24.5999 73.7471C24.7688 73.8345 24.9202 73.9335 25.0949 74.0295C25.287 74.1343 25.4122 74.2246 25.6073 74.3207C26.1168 74.5827 26.6059 74.8942 27.0921 75.1883L29.6134 76.6411C29.7881 76.7372 29.9279 76.8216 30.0996 76.9235C31.0837 77.5174 32.1056 78.0502 33.0868 78.6412L36.6009 80.6793C38.9213 82.0505 41.2883 83.3287 43.597 84.7145L46.3425 86.3041C46.7792 86.5982 46.9394 86.2663 47.6265 85.8907L53.6415 82.4203C53.9734 82.2281 54.2966 82.0418 54.6459 81.8467L55.6271 81.2848C55.793 81.1946 55.9473 81.0985 56.1133 80.9966L61.6305 77.8027C63.2783 76.8158 64.9786 75.922 66.6265 74.9321L77.6113 68.5677C77.7714 68.4716 77.9316 68.3755 78.1004 68.2824C78.2751 68.1892 78.4411 68.0582 78.639 68.0145V30.9956C78.3275 30.786 78.0044 30.6259 77.6695 30.4221ZM57.9009 66.652H48.5406V69.1034C48.5406 69.1325 48.529 69.1412 48.4999 69.1412H43.9872V66.652H35.3431V59.7228C35.3431 59.65 35.4305 59.5888 35.4741 59.5481L36.3505 58.6018C36.3763 58.5782 36.4006 58.5529 36.4233 58.5261C36.4435 58.4982 36.4659 58.4719 36.4902 58.4475L36.9997 57.906L37.0055 57.8973L37.1569 57.743L37.2239 57.6615L37.3869 57.4897L37.4044 57.4693L37.9489 56.8812C38.0653 56.7618 38.1818 56.6483 38.2924 56.5173L38.2982 56.5114L38.3157 56.4881L38.6825 56.098C38.7349 56.0398 38.7757 56.0078 38.8252 55.9437L39.2677 55.4721L39.3405 55.3993C39.3646 55.3736 39.3869 55.3463 39.4075 55.3178L40.1499 54.5258L40.1557 54.52L40.1732 54.4996L40.2867 54.3832C40.4323 54.1968 40.6943 53.9639 40.8486 53.7776L40.8661 53.7543C40.9156 53.6961 40.9709 53.6553 41.0175 53.6L41.3057 53.2885C41.5095 53.0847 41.6842 52.8634 41.888 52.6596L42.5431 51.955L42.6159 51.8823L42.9012 51.5678C42.9565 51.5125 43.0089 51.4717 43.0526 51.4135C43.0963 51.3553 43.1516 51.3145 43.2011 51.2563L43.4893 50.9448C43.5184 50.9157 43.5417 50.8953 43.5679 50.8633L43.7863 50.6274C43.83 50.5692 43.8853 50.5284 43.9348 50.4702C44.0629 50.3276 44.4297 49.952 44.5083 49.8472C44.5549 49.7889 44.6102 49.754 44.651 49.6958C44.5358 49.5546 44.4123 49.4205 44.2812 49.294L43.9959 48.9796L43.9202 48.9068C43.8911 48.8718 43.8824 48.8544 43.8474 48.8194C43.6232 48.5923 43.4165 48.3507 43.1894 48.1207L42.8255 47.7276C42.8044 47.6996 42.781 47.6733 42.7556 47.649L39.4075 44.0563C39.3851 44.0257 39.3608 43.9965 39.3347 43.969L38.8398 43.4362L38.8339 43.4304L37.7363 42.2483C37.713 42.2192 37.6897 42.2017 37.6635 42.1755L37.3724 41.8553C37.1744 41.6515 36.9852 41.4302 36.7843 41.2293L36.7202 41.1595L36.7144 41.1536L36.499 40.9178C36.4 40.8101 36.2952 40.7111 36.1991 40.6034C36.1671 40.5684 36.1612 40.551 36.1263 40.516C35.9283 40.3151 35.7478 40.0968 35.544 39.8988C35.5207 39.8697 35.4974 39.8522 35.4741 39.826C35.4479 39.7969 35.3431 39.695 35.3431 39.663V32.7076H43.9843V29.8194C45.504 29.8194 47.0063 29.8485 48.5261 29.8485V32.6144C48.5261 32.6464 48.5348 32.6581 48.5668 32.6581H57.9009V39.6775H45.0236C45.0993 39.794 45.2158 39.8901 45.306 39.9949L46.0223 40.781C46.0659 40.8392 46.1125 40.88 46.162 40.9382C46.2843 41.0838 46.4211 41.2089 46.5405 41.3545L47.5828 42.4987C47.7866 42.6967 47.9613 42.9209 48.1563 43.1247L50.8145 46.0448L50.8319 46.0681L51.784 47.1162L51.8568 47.1861C51.9849 47.3142 52.0897 47.4598 52.2178 47.5879L53.9297 49.4599C53.9996 49.5356 54.0753 49.6055 54.1335 49.6929C54.1073 49.7336 54.0869 49.7453 54.0549 49.7802C54.0342 49.8078 54.0119 49.834 53.9879 49.8588L53.6298 50.246C53.6092 50.2736 53.5868 50.2999 53.5629 50.3246L52.704 51.265C52.6458 51.3204 52.6167 51.3669 52.5584 51.4223C52.442 51.5387 52.2673 51.7571 52.1304 51.8881L51.5307 52.5548C51.4113 52.6975 51.0911 53.0148 50.995 53.1371L50.1419 54.0687C49.9585 54.2929 49.7518 54.4851 49.5655 54.7064L49.2161 55.0848C49.0414 55.2624 48.89 55.4517 48.7212 55.6322C48.692 55.6613 48.6688 55.6817 48.6425 55.7137C48.4446 55.9379 48.2291 56.1504 48.0341 56.3833L48.0049 56.4183L47.2567 57.2306L47.2392 57.2509L47.213 57.2801L47.2072 57.2888L46.8637 57.6673C46.8394 57.6907 46.817 57.716 46.7967 57.743C46.7742 57.7698 46.7498 57.7951 46.7239 57.8187C46.5754 57.9642 46.4473 58.1389 46.2988 58.2845C46.2749 58.3092 46.2525 58.3355 46.2319 58.3631L45.9466 58.6775C45.9233 58.7067 45.9 58.7241 45.8738 58.7503L45.0236 59.6878H57.5428C57.6622 59.6878 57.9009 59.6587 57.9009 59.7257V66.6549V66.652Z" fill="white"/>
</g>
<defs>
<clipPath id="clip0_342_6415">
<rect width="93.1659" height="93.1659" fill="white" transform="translate(0.0297852 0.880859)"/>
</clipPath>
</defs>
</svg>
