<svg width="94" height="95" viewBox="0 0 94 95" fill="none" xmlns="http://www.w3.org/2000/svg">
<g clip-path="url(#clip0_342_6419)">
<path d="M47.1254 94.0467C72.8525 94.0467 93.7084 73.1908 93.7084 47.4638C93.7084 21.7367 72.8525 0.880859 47.1254 0.880859C21.3984 0.880859 0.54248 21.7367 0.54248 47.4638C0.54248 73.1908 21.3984 94.0467 47.1254 94.0467Z" fill="#B30D23"/>
<path d="M49.7835 62.7022L47.0701 67.7564L44.3566 62.7022C27.9652 61.4299 15.0996 49.2077 15.0996 49.2077C15.0996 49.1786 27.6013 37.3348 43.6579 35.7743L45.7832 32.135L47.0701 29.9951L49.2536 33.6344L50.4823 35.7743C66.5359 37.3057 79.0405 49.2077 79.0405 49.2077C79.0405 49.2077 66.172 61.4299 49.7806 62.7022H49.7835ZM17.8131 49.2077C17.784 49.2077 30.175 57.6741 42.6214 59.4646L36.554 48.1101L38.2018 45.251L39.7158 48.0809L39.6867 48.1101L45.5881 59.7267C46.0627 59.7558 46.5373 59.7558 47.0147 59.7558C47.4893 59.7558 47.9377 59.7558 48.4122 59.7267L52.7474 51.0855L55.9092 45.1928L57.557 48.0518L51.4896 59.4355C63.936 57.6741 76.3241 49.4115 76.3241 49.1786C76.3241 48.9748 64.5241 41.0906 52.3834 39.0671L54.2293 42.2755L52.692 45.3646L48.6917 38.6625C48.1518 38.6286 47.611 38.6092 47.0701 38.6042C46.5373 38.6042 45.9783 38.6333 45.4193 38.6625L41.3345 45.3646L39.8264 42.4182L41.7538 39.0963C29.616 41.1488 17.8131 49.2077 17.8131 49.2077Z" fill="white"/>
</g>
<defs>
<clipPath id="clip0_342_6419">
<rect width="93.1659" height="93.1659" fill="white" transform="translate(0.543457 0.880859)"/>
</clipPath>
</defs>
</svg>
