<svg width="94" height="95" viewBox="0 0 94 95" fill="none" xmlns="http://www.w3.org/2000/svg">
<g clip-path="url(#clip0_342_6423)">
<path d="M46.6406 94.0467C72.3676 94.0467 93.2235 73.1908 93.2235 47.4638C93.2235 21.7367 72.3676 0.880859 46.6406 0.880859C20.9135 0.880859 0.0576172 21.7367 0.0576172 47.4638C0.0576172 73.1908 20.9135 94.0467 46.6406 94.0467Z" fill="#0B1C26"/>
<path d="M46.6405 79.489C28.9739 79.4366 14.6147 65.0978 14.6147 47.4633C14.6147 29.8287 28.9739 15.4899 46.6405 15.4375C64.3071 15.4899 78.6663 29.8287 78.6663 47.4633C78.6663 65.0978 64.3071 79.4541 46.6405 79.489ZM75.0415 52.5583C74.7035 53.3378 74.0732 53.9538 73.2861 54.2738C72.499 54.5939 71.6178 54.5926 70.8316 54.2702C71.9642 55.4522 72.6716 57.039 72.6716 58.7829C72.6716 59.2953 72.6018 59.7728 72.497 60.2503C73.6965 57.8163 74.5553 55.2281 75.0415 52.5612V52.5583ZM72.0719 52.8785C72.4981 52.8793 72.9072 52.7107 73.2091 52.4099C73.5111 52.109 73.6811 51.7006 73.6819 51.2743C73.6827 50.8481 73.5141 50.439 73.2133 50.1371C72.9124 49.8351 72.5039 49.6651 72.0777 49.6643C71.8667 49.6637 71.6576 49.7047 71.4624 49.785C71.2672 49.8652 71.0897 49.9831 70.94 50.1319C70.6378 50.4325 70.4674 50.8408 70.4662 51.2671C70.4651 51.6933 70.6333 52.1025 70.9339 52.4047C71.2344 52.7069 71.6427 52.8774 72.069 52.8785H72.0719ZM72.7939 35.3313C73.587 37.5505 73.7822 39.9394 73.3601 42.2579C72.938 44.5765 71.9134 46.7432 70.3891 48.5405C70.8916 48.2354 71.4666 48.0705 72.0544 48.063C73.7343 48.063 75.1114 49.3499 75.2541 51.0094C75.3967 49.8448 75.4841 48.6802 75.4841 47.4807C75.5038 43.2811 74.5847 39.1301 72.7939 35.3313ZM71.1519 39.8266C71.1449 36.8766 69.9678 34.0499 67.8788 31.9669C65.7899 29.884 62.9598 28.715 60.0098 28.7165C57.0598 28.715 54.2298 29.884 52.1408 31.9669C50.0518 34.0499 48.8747 36.8766 48.8678 39.8266C48.8747 42.7766 50.0518 45.6033 52.1408 47.6862C54.2298 49.7692 57.0598 50.9382 60.0098 50.9366C62.9589 50.9351 65.7872 49.7651 67.8754 47.6828C69.9637 45.6005 71.1419 42.7756 71.1519 39.8266ZM59.5673 58.7887C59.5673 56.3723 60.9065 54.1508 63.0523 53.0241C60.3341 53.6555 57.4872 53.4329 54.9002 52.3865C57.1 54.073 58.729 56.3941 59.5673 59.0362C59.5847 58.9285 59.5673 58.8586 59.5673 58.7887ZM60.2049 63.0918C60.2015 64.1614 60.0705 65.2268 59.8148 66.2653C60.3446 65.2085 61.4248 64.5388 62.6097 64.5388C62.7761 64.5379 62.9421 64.5554 63.1047 64.5912C61.7423 63.891 60.6665 62.738 60.0622 61.3304C60.1554 61.9127 60.202 62.5008 60.2049 63.0918ZM66.1093 62.8968C67.2022 62.8983 68.2513 62.467 69.0271 61.6972C69.803 60.9274 70.2424 59.8817 70.2493 58.7887C70.2493 56.5149 68.3918 54.6807 66.1093 54.6807C63.8267 54.6807 61.9896 56.5324 61.9896 58.7858C61.9896 61.0626 63.8471 62.8968 66.1122 62.8968H66.1093ZM68.8315 51.2947C68.8373 50.7503 68.977 50.2175 69.2391 49.74C68.064 50.8252 66.7121 51.7016 65.2417 52.3312C65.527 52.2992 65.8094 52.2642 66.1093 52.2642C67.2859 52.2614 68.4412 52.5784 69.4516 53.1813C69.0488 52.6338 68.8325 51.9715 68.8344 51.2918L68.8315 51.2947ZM46.6376 49.5479C48.3845 49.5479 50.1139 49.8827 51.7326 50.5348C49.0143 48.4527 47.1922 45.4124 46.6376 42.0334C46.0807 45.4108 44.2603 48.45 41.5455 50.5348C43.1669 49.8888 44.8952 49.553 46.6405 49.5449L46.6376 49.5479ZM46.6376 31.5756C45.4051 31.5781 44.1974 31.2297 43.1555 30.5711C44.9911 32.5088 46.2048 34.9515 46.6405 37.5848C47.0869 34.9541 48.2991 32.5135 50.1255 30.5682C49.0828 31.2273 47.874 31.5757 46.6405 31.5727L46.6376 31.5756ZM53.2524 24.9812C53.2524 26.4573 52.7545 27.8926 51.8374 29.0572C53.2122 28.0169 54.7738 27.2499 56.4375 26.7979C56.3647 26.7979 56.3123 26.8154 56.2599 26.8154C54.8973 26.8154 53.7269 25.9711 53.2524 24.7686C53.2378 24.8385 53.2524 24.9113 53.2524 24.9812ZM58.2746 21.0857C59.0025 21.6854 59.477 22.5647 59.477 23.572C59.477 24.8473 58.7201 26.0031 57.5497 26.5155C59.8951 26.0835 62.313 26.2767 64.5602 27.0755C66.8074 27.8743 68.8046 29.2506 70.3512 31.0661C67.3102 26.7015 63.1357 23.2497 58.2775 21.0828L58.2746 21.0857ZM56.2424 21.9853C56.0314 21.9847 55.8223 22.0257 55.6271 22.106C55.4319 22.1862 55.2544 22.3041 55.1047 22.4529C54.9551 22.6018 54.8362 22.7786 54.7549 22.9734C54.6737 23.1681 54.6315 23.377 54.6309 23.5881C54.6304 23.7991 54.6714 24.0082 54.7516 24.2034C54.8318 24.3986 54.9497 24.5761 55.0986 24.7257C55.2474 24.8754 55.4242 24.9942 55.619 25.0755C55.8138 25.1568 56.0226 25.199 56.2337 25.1995C56.6603 25.2007 57.0699 25.0323 57.3724 24.7315C57.6749 24.4306 57.8455 24.022 57.8466 23.5953C57.8478 23.1687 57.6794 22.7591 57.3786 22.4566C57.0777 22.1541 56.669 21.9836 56.2424 21.9824V21.9853ZM48.6378 18.6867C49.7022 19.0245 50.6633 19.6274 51.4308 20.4387C52.1983 21.25 52.747 22.243 53.0253 23.3246C53.0848 22.5154 53.4478 21.7585 54.0417 21.2056C54.6356 20.6528 55.4165 20.3448 56.2279 20.3433C56.3334 20.3464 56.4386 20.3581 56.5423 20.3782C53.9985 19.4511 51.3382 18.8818 48.6378 18.6867ZM42.4655 24.9812C42.4943 26.069 42.9466 27.1026 43.7261 27.8618C44.5057 28.6211 45.5509 29.0459 46.6391 29.0459C47.7272 29.0459 48.7724 28.6211 49.552 27.8618C50.3315 27.1026 50.7839 26.069 50.8126 24.9812C50.7723 23.9016 50.3151 22.8798 49.537 22.1303C48.759 21.3808 47.7208 20.9621 46.6405 20.9621C45.5602 20.9621 44.522 21.3808 43.744 22.1303C42.966 22.8798 42.5088 23.9016 42.4684 24.9812H42.4655ZM36.7213 20.3782C36.8259 20.3579 36.932 20.3462 37.0386 20.3433C37.851 20.3413 38.6338 20.6482 39.2284 21.2017C39.823 21.7553 40.1851 22.5141 40.2412 23.3246C40.5192 22.2434 41.0675 21.2505 41.8344 20.4393C42.6014 19.628 43.5619 19.0249 44.6258 18.6867C41.8658 18.8963 39.2105 19.4611 36.7213 20.3782ZM40.0257 24.9812C40.0227 24.9099 40.0285 24.8385 40.0432 24.7686C39.8048 25.3714 39.391 25.8887 38.8553 26.2536C38.3196 26.6185 37.6868 26.8142 37.0386 26.8154C36.9658 26.8154 36.9134 26.7979 36.861 26.7979C38.5205 27.2521 40.084 28.0207 41.4611 29.0543C40.5319 27.9001 40.0254 26.4629 40.0257 24.9812ZM35.4286 23.5866C35.4288 23.7977 35.4705 24.0066 35.5515 24.2015C35.6324 24.3964 35.751 24.5735 35.9003 24.7226C36.0497 24.8717 36.227 24.9899 36.422 25.0705C36.6171 25.1511 36.8261 25.1924 37.0372 25.1923C37.2482 25.1921 37.4571 25.1503 37.6521 25.0694C37.847 24.9884 38.024 24.8699 38.1731 24.7205C38.3222 24.5711 38.4404 24.3939 38.521 24.1988C38.6016 24.0038 38.643 23.7947 38.6428 23.5837C38.6424 23.1575 38.4727 22.7488 38.1711 22.4477C37.8694 22.1466 37.4605 21.9776 37.0342 21.978C36.608 21.9784 36.1994 22.1481 35.8983 22.4498C35.5971 22.7514 35.4282 23.1604 35.4286 23.5866ZM22.9269 31.0835C24.4699 29.2636 26.4668 27.884 28.715 27.0848C30.9633 26.2857 33.3829 26.0953 35.7285 26.533C35.2233 26.3127 34.7835 25.9657 34.4516 25.5256C34.1198 25.0856 33.9071 24.5673 33.8342 24.021C33.7613 23.4747 33.8307 22.9188 34.0355 22.4071C34.2403 21.8955 34.5738 21.4453 35.0035 21.1002C30.1372 23.2552 25.9587 26.7094 22.9269 31.0835ZM22.1292 39.8295C22.1361 42.7795 23.3132 45.6062 25.4022 47.6891C27.4911 49.7721 30.3212 50.9411 33.2712 50.9395C36.2212 50.9411 39.0513 49.7721 41.1402 47.6891C43.2292 45.6062 44.4063 42.7795 44.4133 39.8295C44.4063 36.8795 43.2292 34.0528 41.1402 31.9699C39.0513 29.8869 36.2212 28.7179 33.2712 28.7195C27.1339 28.7369 22.1292 33.7097 22.1292 39.8295ZM33.7138 58.7887C33.7138 58.8586 33.6963 58.9489 33.6963 59.0187C34.5393 56.379 36.1674 54.0592 38.3633 52.369C35.776 53.4144 32.9292 53.6361 30.2113 53.0037C31.2663 53.558 32.15 54.3896 32.7672 55.4091C33.3844 56.4285 33.7117 57.597 33.7138 58.7887ZM24.4467 51.2918C24.4496 51.976 24.2254 52.6398 23.8091 53.1784C24.82 52.5771 25.9751 52.2611 27.1514 52.2642C27.4425 52.2613 27.7337 52.2846 28.019 52.3341C26.5416 51.7177 25.1875 50.8399 24.0216 49.7429C24.3011 50.2088 24.4467 50.7474 24.4467 51.2918ZM23.0317 58.7887C23.0317 59.8813 23.4657 60.9292 24.2383 61.7018C25.0109 62.4744 26.0588 62.9084 27.1514 62.9084C28.244 62.9084 29.2918 62.4744 30.0644 61.7018C30.837 60.9292 31.2711 59.8813 31.2711 58.7887C31.2711 56.512 29.4165 54.6778 27.1514 54.6778C26.6106 54.6759 26.0747 54.7808 25.5746 54.9866C25.0745 55.1925 24.62 55.4951 24.2371 55.8771C23.8543 56.2591 23.5508 56.7129 23.3439 57.2126C23.137 57.7123 23.0309 58.2479 23.0317 58.7887ZM30.1589 64.5912C30.319 64.5738 30.4791 64.5359 30.6538 64.5359C31.8388 64.5388 32.9189 65.2055 33.4488 66.2653C33.1931 65.2268 33.0621 64.1614 33.0587 63.0918C33.0645 62.495 33.1053 61.8982 33.1839 61.31C32.5928 62.725 31.5244 63.8867 30.1589 64.5912ZM18.0095 50.9948C18.0792 50.1926 18.4465 49.4455 19.0391 48.9003C19.6317 48.3551 20.4068 48.0513 21.2121 48.0485C21.7973 48.0514 22.3737 48.2173 22.8716 48.5259C21.3473 46.7286 20.3226 44.5619 19.9005 42.2433C19.4784 39.9248 19.6737 37.536 20.4667 35.3168C18.1805 40.2039 17.3284 45.6396 18.0095 50.9919V50.9948ZM21.2121 49.6876C21.001 49.6872 20.7919 49.7284 20.5968 49.8088C20.4017 49.8892 20.2243 50.0073 20.0748 50.1563C19.9253 50.3052 19.8066 50.4822 19.7255 50.677C19.6444 50.8718 19.6024 51.0808 19.602 51.2918C19.6016 51.5029 19.6428 51.7119 19.7233 51.907C19.8037 52.1022 19.9217 52.2796 20.0707 52.4291C20.2196 52.5786 20.3966 52.6973 20.5914 52.7784C20.7863 52.8595 20.9952 52.9014 21.2062 52.9018C21.6325 52.9026 22.0415 52.734 22.3435 52.4332C22.6454 52.1323 22.8155 51.7239 22.8163 51.2976C22.817 50.8714 22.6484 50.4623 22.3476 50.1604C22.0468 49.8584 21.6383 49.6884 21.2121 49.6876ZM20.6123 58.7887C20.6123 57.1001 21.2703 55.4814 22.4494 54.276C21.6632 54.5976 20.7822 54.5986 19.9953 54.2786C19.2084 53.9586 18.5781 53.3431 18.2395 52.5641C18.7344 55.2776 19.5875 57.8542 20.787 60.2503C20.6742 59.7712 20.6156 59.2809 20.6123 58.7887ZM28.8866 65.0833C27.8137 65.3765 26.6838 65.391 25.6037 65.1256C24.5236 64.8602 23.5291 64.3235 22.7144 63.5664C24.2574 65.8461 26.1149 67.8928 28.2315 69.6513C27.7684 69.0972 27.5121 68.3995 27.5066 67.6774C27.5066 66.638 28.0248 65.6685 28.8866 65.0862V65.0833ZM29.1341 67.6744C29.1341 68.0775 29.2942 68.4641 29.5792 68.7491C29.8642 69.0341 30.2508 69.1942 30.6538 69.1942C31.0569 69.1942 31.4435 69.0341 31.7285 68.7491C32.0135 68.4641 32.1736 68.0775 32.1736 67.6744C32.1736 67.2714 32.0135 66.8848 31.7285 66.5998C31.4435 66.3148 31.0569 66.1547 30.6538 66.1547C30.2508 66.1547 29.8642 66.3148 29.5792 66.5998C29.2942 66.8848 29.1341 67.2714 29.1341 67.6744ZM42.7334 76.0535C40.6607 75.4263 38.7677 74.3134 37.2116 72.8075C35.6555 71.3015 34.4813 69.4459 33.7865 67.3949C33.7865 67.4823 33.8215 67.5696 33.8215 67.6774C33.8209 68.2091 33.6853 68.7319 33.4274 69.197C33.1696 69.662 32.798 70.054 32.3473 70.3362C31.8967 70.6184 31.3817 70.7816 30.8508 70.8105C30.3199 70.8394 29.7903 70.7331 29.3117 70.5014C33.239 73.4662 37.8593 75.3774 42.7334 76.0535ZM57.7651 63.0918C57.7651 60.1418 56.5932 57.3126 54.5072 55.2266C52.4212 53.1406 49.592 51.9687 46.642 51.9687C43.6919 51.9687 40.8627 53.1406 38.7767 55.2266C36.6907 57.3126 35.5188 60.1418 35.5188 63.0918C35.525 66.0383 36.6992 68.862 38.784 70.9441C40.8688 73.0262 43.6941 74.1967 46.6405 74.199C49.5865 74.1936 52.4105 73.0217 54.4947 70.9397C56.5789 68.8576 57.7537 66.0349 57.7622 63.0889L57.7651 63.0918ZM63.9897 70.4985C63.5106 70.7319 62.98 70.8396 62.4478 70.8116C61.9156 70.7836 61.3993 70.6207 60.9473 70.3384C60.4964 70.0564 60.125 69.664 59.8683 69.1983C59.6115 68.7326 59.4778 68.2091 59.4799 67.6774C59.4828 67.5823 59.4945 67.4878 59.5149 67.3949C58.8198 69.4463 57.6451 71.302 56.0885 72.808C54.5319 74.314 52.6383 75.4267 50.5651 76.0535C55.4376 75.3694 60.0561 73.4579 63.9868 70.4985H63.9897ZM64.1499 67.6744C64.1499 67.374 64.0608 67.0803 63.8939 66.8304C63.7271 66.5805 63.4899 66.3857 63.2124 66.2706C62.9348 66.1555 62.6294 66.1253 62.3347 66.1837C62.04 66.2421 61.7692 66.3865 61.5565 66.5988C61.3438 66.811 61.1989 67.0816 61.1399 67.3762C61.0809 67.6708 61.1106 67.9763 61.2252 68.254C61.3398 68.5318 61.5341 68.7693 61.7837 68.9367C62.0332 69.104 62.3267 69.1936 62.6272 69.1942C63.0288 69.1912 63.4132 69.0305 63.6975 68.7467C63.9817 68.463 64.1432 68.079 64.147 67.6774L64.1499 67.6744ZM70.5667 63.5693C69.7519 64.3264 68.7573 64.8628 67.6771 65.1278C66.597 65.3927 65.467 65.3774 64.3944 65.0833C65.2562 65.6656 65.7745 66.638 65.7745 67.6744C65.7745 68.4343 65.492 69.104 65.0495 69.6513C67.1667 67.8938 69.0243 65.8451 70.5667 63.5664V63.5693Z" fill="white"/>
</g>
<defs>
<clipPath id="clip0_342_6423">
<rect width="93.1659" height="93.1659" fill="white" transform="translate(0.0576172 0.880859)"/>
</clipPath>
</defs>
</svg>
