<svg width="94" height="95" viewBox="0 0 94 95" fill="none" xmlns="http://www.w3.org/2000/svg">
<g clip-path="url(#clip0_342_6427)">
<path d="M47.1557 94.0458C72.8827 94.0458 93.7386 73.1899 93.7386 47.4628C93.7386 21.7358 72.8827 0.879883 47.1557 0.879883C21.4286 0.879883 0.572754 21.7358 0.572754 47.4628C0.572754 73.1899 21.4286 94.0458 47.1557 94.0458Z" fill="#5B6DEE"/>
<path d="M39.2949 44.6107C37.6706 44.6024 36.0489 44.7427 34.4502 45.03C35.7662 32.8602 45.9096 23.6426 57.9863 23.6426C65.3813 23.6426 70.4472 27.2644 70.4472 34.7584C70.4472 42.2554 64.3652 45.8772 55.4941 45.8772C48.9433 45.8772 45.8456 44.6136 39.2949 44.6136V44.6107ZM38.8174 49.0507C29.9462 49.0507 23.8643 52.6754 23.8643 60.1694C23.8643 67.6634 28.9302 71.2853 36.3252 71.2853C48.4018 71.2853 58.5453 62.0706 59.8612 49.8979C58.2625 50.1851 56.6409 50.3255 55.0166 50.3171C48.4659 50.3171 45.3652 49.0507 38.8174 49.0507Z" fill="white"/>
</g>
<defs>
<clipPath id="clip0_342_6427">
<rect width="93.1659" height="93.1659" fill="white" transform="translate(0.571777 0.880859)"/>
</clipPath>
</defs>
</svg>
