<svg width="94" height="95" viewBox="0 0 94 95" fill="none" xmlns="http://www.w3.org/2000/svg">
<g clip-path="url(#clip0_342_6431)">
<path d="M46.6619 94.0367C72.3862 94.0367 93.2398 73.183 93.2398 47.4588C93.2398 21.7345 72.3862 0.880859 46.6619 0.880859C20.9376 0.880859 0.0839844 21.7345 0.0839844 47.4588C0.0839844 73.183 20.9376 94.0367 46.6619 94.0367Z" fill="url(#paint0_linear_342_6431)"/>
<path d="M31.3207 35.878C30.9484 35.4158 30.3835 35.1591 29.7801 35.1591H17.3396C17.2369 35.1591 17.147 35.1206 17.07 35.0564C17.0058 34.9922 16.9673 34.9151 16.9673 34.8253V26.4418C16.9673 26.3519 17.0058 26.2749 17.07 26.2107C17.147 26.1336 17.2369 26.0951 17.3396 26.108H30.4862C33.7985 26.108 36.6615 27.4688 39.0751 30.1777L42.2719 34.0806L36.0452 41.6682L31.3207 35.878ZM54.3015 30.1392C56.7023 27.456 59.5781 26.108 62.9289 26.108H76.037C76.1269 26.0951 76.2167 26.1336 76.2809 26.185C76.3451 26.2492 76.3708 26.339 76.358 26.4418V34.8253C76.358 34.9151 76.3323 34.9922 76.2809 35.0564C76.2167 35.1334 76.1269 35.1719 76.037 35.1591H63.5965C63.006 35.1462 62.4411 35.4158 62.0559 35.878L52.8893 47.0346L62.0944 58.2683C62.4668 58.6919 63.0188 58.9487 63.5837 58.9359H76.0242C76.114 58.923 76.2167 58.9744 76.2681 59.0386C76.3195 59.1156 76.358 59.2183 76.3451 59.3082V67.6917C76.3451 67.7816 76.3195 67.8586 76.2681 67.9228C76.2039 67.9998 76.114 68.0383 76.0242 68.0255H62.9289C59.5781 68.0255 56.728 66.6646 54.34 63.9557L46.714 54.6478L39.0879 63.9557C36.6871 66.6646 33.8113 68.0255 30.4605 68.0255H17.3396C17.2497 68.0383 17.147 67.987 17.0957 67.9228C17.0315 67.8458 17.0058 67.743 17.0186 67.6532V59.2697C17.0186 59.1798 17.0443 59.1028 17.0957 59.0386C17.1599 58.9616 17.2497 58.923 17.3396 58.9359H29.7801C30.3706 58.9359 30.9355 58.6663 31.3207 58.2169L40.3204 47.2272L54.3015 30.1392Z" fill="#00D1FF"/>
</g>
<defs>
<linearGradient id="paint0_linear_342_6431" x1="46.6683" y1="0.88059" x2="46.6683" y2="25.5304" gradientUnits="userSpaceOnUse">
<stop stop-color="#090220"/>
<stop offset="1" stop-color="#170659"/>
</linearGradient>
<clipPath id="clip0_342_6431">
<rect width="93.1659" height="93.1659" fill="white" transform="translate(0.0854492 0.880859)"/>
</clipPath>
</defs>
</svg>
