<svg width="94" height="95" viewBox="0 0 94 95" fill="none" xmlns="http://www.w3.org/2000/svg">
<g clip-path="url(#clip0_342_6437)">
<path d="M47.1825 94.0458C72.9096 94.0458 93.7655 73.1899 93.7655 47.4628C93.7655 21.7358 72.9096 0.879883 47.1825 0.879883C21.4555 0.879883 0.599609 21.7358 0.599609 47.4628C0.599609 73.1899 21.4555 94.0458 47.1825 94.0458Z" fill="#199248"/>
<path d="M47.1828 12.5264C27.8887 12.5264 12.2456 28.1695 12.2456 47.4636C12.2456 66.7576 27.8887 82.4008 47.1828 82.4008C66.4769 82.4008 82.12 66.7576 82.12 47.4636C82.12 38.1976 78.4391 29.3112 71.8871 22.7592C65.3351 16.2072 56.4487 12.5264 47.1828 12.5264ZM55.1689 77.265C51.1497 78.336 46.9555 78.5832 42.8384 77.9917C38.7212 77.4002 34.7662 75.9822 31.2111 73.823C27.6561 71.6638 24.5743 68.808 22.1512 65.4273C19.7281 62.0466 18.0137 58.2108 17.1111 54.1505C16.2084 50.0902 16.1362 45.8893 16.8987 41.8004C17.6611 37.7115 19.2426 33.819 21.548 30.3569C23.8534 26.8949 26.8351 23.9348 30.3139 21.6546C33.7926 19.3745 37.6965 17.8213 41.7908 17.0886C49.6179 15.7056 57.6767 17.3968 64.2876 21.8095C70.8984 26.2222 75.5512 33.0161 77.2761 40.775C79.001 48.5339 77.665 56.6591 73.5464 63.4572C69.4279 70.2552 62.8446 75.2015 55.1689 77.265Z" fill="white"/>
<path d="M55.7137 22.0969C55.7137 23.6021 55.7137 25.1044 55.7719 26.6096C53.7583 25.8283 51.6621 25.2793 49.524 24.9734C49.4367 23.6079 49.8268 22.1085 49.4279 20.813C47.9048 20.7044 46.3765 20.6859 44.8512 20.7576C44.7755 22.1609 44.8046 23.5701 44.8512 24.9792C42.7122 25.2992 40.6163 25.8598 38.6032 26.6504C38.6469 25.1306 38.6614 23.6137 38.6411 22.0911C33.3264 23.8806 28.7075 27.293 25.4354 31.8473C22.1634 36.4016 20.4033 41.868 20.4033 47.4759C20.4033 53.0837 22.1634 58.5501 25.4354 63.1044C28.7075 67.6587 33.3264 71.0711 38.6411 72.8606C38.6411 71.37 38.6265 69.8852 38.5974 68.4003C40.5952 69.1822 42.6804 69.7189 44.8075 69.9987C44.8075 71.3642 44.8075 72.7296 44.726 74.0805C46.3564 74.3134 48.0101 74.3134 49.6405 74.0805C49.5662 72.7357 49.5274 71.3892 49.524 70.0424C51.6524 69.7432 53.7416 69.2121 55.7545 68.4586C55.7081 69.9333 55.7081 71.4092 55.7545 72.8839C61.0669 71.0904 65.6826 67.6749 68.951 63.1189C72.2193 58.5629 73.9754 53.0962 73.9719 47.4891C73.9684 41.882 72.2053 36.4175 68.9312 31.8656C65.6572 27.3137 61.0372 23.9041 55.7225 22.1173L55.7166 22.0969H55.7137ZM59.7024 62.6677C56.1854 65.8557 51.1893 66.6098 46.6009 66.5428C42.5744 66.5428 38.3121 65.451 35.4036 62.5367C33.8605 61.046 32.9871 59.0546 32.2039 57.0778C35.0163 56.3499 37.919 56.1053 40.7519 55.4998C40.928 56.3563 41.3271 57.1511 41.9088 57.804C42.4906 58.4568 43.2344 58.9445 44.0651 59.2177C46.6359 60.0212 49.821 60.1348 51.9638 58.3006C53.4836 57.0399 53.5272 54.2828 51.6435 53.3395C47.2269 51.0569 41.7243 51.8314 37.5493 48.9432C31.7992 45.3185 31.3741 35.7049 37.0019 31.792C41.305 28.7728 47.058 28.3972 52.0482 29.6084C56.5609 30.7497 59.7781 34.5753 61.327 38.8114C58.5494 39.2918 55.7749 39.7838 52.9973 40.2526C52.2666 35.8418 46.0914 34.7937 43.0228 37.3645C41.2759 38.8173 41.7243 41.9121 43.9078 42.6866C48.6826 44.6663 54.4181 44.0957 58.6484 47.4089C63.56 50.7396 64.0724 58.6936 59.6995 62.6648L59.7024 62.6677Z" fill="white"/>
</g>
<defs>
<clipPath id="clip0_342_6437">
<rect width="93.1659" height="93.1659" fill="white" transform="translate(0.599609 0.880859)"/>
</clipPath>
</defs>
</svg>
