<svg width="26" height="26" viewBox="0 0 26 26" fill="none" xmlns="http://www.w3.org/2000/svg">
<g clip-path="url(#clip0_1_14121)">
<path d="M18.3641 9.69801C18.2731 9.78901 18.1509 9.84101 18.0235 9.84101H5.94649C5.52009 9.84101 5.30429 9.32101 5.60069 9.01161L7.58189 6.96021C7.67289 6.86661 7.79769 6.81201 7.92769 6.81201H20.0489C20.4779 6.81201 20.6937 7.33721 20.3895 7.64661L18.3641 9.69801ZM18.3641 18.8656C18.2731 18.954 18.1509 19.006 18.0235 19.006H5.94649C5.52009 19.006 5.30429 18.499 5.60069 18.1974L7.58189 16.1954C7.67289 16.1044 7.79769 16.0524 7.92769 16.0524H20.0489C20.4779 16.0524 20.6937 16.5646 20.3895 16.8662L18.3641 18.8656ZM18.0235 11.4322C18.1509 11.4322 18.2731 11.4816 18.3641 11.5726L20.3895 13.5746C20.6937 13.8736 20.4779 14.3884 20.0489 14.3884H7.92769C7.79769 14.3884 7.67289 14.3364 7.58189 14.2454L5.60069 12.2434C5.30169 11.9418 5.51749 11.4348 5.94649 11.4348L18.0235 11.4322Z" fill="#00FFAD"/>
<path d="M13 0C20.1786 0 26 5.8214 26 13C26 20.1786 20.1786 26 13 26C5.8214 26 0 20.1786 0 13C0 5.8214 5.8214 0 13 0Z" fill="black"/>
<path fill-rule="evenodd" clip-rule="evenodd" d="M6.01116 11.7595H18.0414C18.1922 11.7595 18.3352 11.8193 18.4392 11.9259L20.3424 13.8421C20.6934 14.1957 20.4438 14.7989 19.9446 14.7989H7.91436C7.76356 14.7989 7.62056 14.7391 7.51656 14.6325L5.61336 12.7163C5.25976 12.3627 5.51196 11.7595 6.01116 11.7595ZM5.61336 9.21932L7.51656 7.30312C7.62316 7.19652 7.76616 7.13672 7.91436 7.13672H19.942C20.4412 7.13672 20.6934 7.73992 20.3398 8.09352L18.4392 10.0097C18.3326 10.1163 18.1896 10.1761 18.0414 10.1761H6.01116C5.51196 10.1761 5.25976 9.57292 5.61336 9.21932ZM20.3398 17.3391L18.4366 19.2553C18.33 19.3619 18.187 19.4217 18.0388 19.4217H6.01116C5.51196 19.4217 5.25976 18.8185 5.61336 18.4649L7.51656 16.5487C7.62316 16.4421 7.76616 16.3823 7.91436 16.3823H19.942C20.4412 16.3823 20.6934 16.9855 20.3398 17.3391Z" fill="url(#paint0_linear_1_14121)"/>
</g>
<rect x="0.5" y="0.5" width="25" height="25" rx="12.5" stroke="#181818"/>
<defs>
<linearGradient id="paint0_linear_1_14121" x1="6.30548" y1="19.9503" x2="19.6476" y2="6.60813" gradientUnits="userSpaceOnUse">
<stop stop-color="#CB4EE8"/>
<stop offset="1" stop-color="#10F4B1"/>
</linearGradient>
<clipPath id="clip0_1_14121">
<rect width="26" height="26" rx="13" fill="white"/>
</clipPath>
</defs>
</svg>
