<svg width="94" height="95" viewBox="0 0 94 95" fill="none" xmlns="http://www.w3.org/2000/svg">
<g clip-path="url(#clip0_342_6443)">
<path d="M46.6962 94.0458C72.4233 94.0458 93.2792 73.1899 93.2792 47.4628C93.2792 21.7358 72.4233 0.879883 46.6962 0.879883C20.9692 0.879883 0.113281 21.7358 0.113281 47.4628C0.113281 73.1899 20.9692 94.0458 46.6962 94.0458Z" fill="#FF3B81"/>
<path d="M24.7415 65.3424V65.7529H20.4414V57.9881L20.3074 58.419L16.1994 57.1787L18.5198 49.6963L18.2345 50.1156L14.6709 47.7486L19.1254 41.2444L18.7003 41.5822L15.9927 38.2923L22.4008 33.1798L21.5856 33.4913L20.0425 29.5376L27.6967 26.6436L26.7999 26.7018L26.503 22.4803L34.5152 21.9271L33.7903 21.764L34.7569 17.6385L42.414 19.3796L41.9307 19.1059L44.0764 15.4375L50.7523 19.234L50.4903 18.9603L53.6346 16.0722L58.8344 21.5632L58.7238 21.3419L62.5873 19.4844L65.9238 26.2215L65.8947 26.0322L70.1366 25.3684L71.3885 33.1507L71.4759 32.5975L75.7237 33.2584L74.4543 41.1542L74.7658 40.5195L78.6293 42.377L75.054 49.6003L75.5781 49.0471L78.7195 51.9381L73.1616 57.8076L73.8341 57.4262L75.9828 61.0946L68.9982 65.0658L69.6999 64.9057L70.6694 69.0312L62.9483 70.7868L63.5451 70.8275L63.2453 75.052L55.5183 74.5192L55.9114 74.6677L54.3683 78.6214L46.9733 75.8265L47.442 76.1991L44.7373 79.489L38.632 74.6182L38.9348 75.0578L35.3712 77.4277L31.004 71.0517L31.1351 71.471L27.0241 72.7112L24.7415 65.3424ZM24.7415 60.3114L27.4259 59.502L29.5105 66.2275L31.8338 64.6844L35.7992 70.4782L37.5722 68.3237L43.069 72.7083L44.0531 70.1841L50.6795 72.6879L50.8717 69.9541L57.9639 70.4432L57.3234 67.721L64.2759 66.1401L62.8347 63.6829L69.039 60.1542L66.9137 58.2035L71.8136 53.027L69.1991 51.7693L72.3522 45.4049L69.4932 44.9565L70.617 37.9691L67.8803 38.3942L66.7594 31.4067L64.2963 32.5888L61.1665 26.2709L59.1576 28.1139L54.3188 22.9985L52.933 25.3626L46.8044 21.8776L46.1697 24.5794L39.2754 23.0101L39.4763 25.8313L32.3986 26.3175L33.4438 29.0048L26.7766 31.5261L28.573 33.7067L22.9772 38.17L25.3384 39.7392L21.309 45.6291L24.0253 46.4501L21.9204 53.2366H24.7445L24.7415 60.3114ZM45.8494 52.3778C45.8494 51.3064 45.471 50.4882 44.7169 49.9205C43.9599 49.3411 42.6061 48.7356 40.6438 48.1067C38.6815 47.4662 37.1297 46.8344 35.9855 46.2143C32.8703 44.5256 31.3097 42.2547 31.3097 39.3928C31.3097 37.905 31.7232 36.5803 32.5529 35.4216C33.3972 34.2483 34.5968 33.3341 36.1544 32.679C37.7265 32.0239 39.488 31.6979 41.4357 31.6979C43.398 31.6979 45.1449 32.056 46.6763 32.7751C48.2106 33.4797 49.3985 34.4812 50.2428 35.7797C51.1022 37.0938 51.5484 38.6351 51.5238 40.2051H45.8669C45.8669 38.9444 45.471 37.9662 44.679 37.2733C43.8871 36.5687 42.775 36.2164 41.3425 36.2164C39.9596 36.2164 38.8824 36.5105 38.1167 37.1044C37.7513 37.3657 37.4555 37.7124 37.255 38.1144C37.0546 38.5163 36.9556 38.9612 36.9667 39.4102C36.9667 40.3041 37.4121 41.0552 38.3059 41.6608C39.2085 42.2634 40.5361 42.8312 42.2829 43.3611C45.503 44.3306 47.8467 45.5359 49.317 46.9712C50.7901 48.4095 51.5238 50.2 51.5238 52.3399C51.5238 54.7244 50.6242 56.5935 48.8278 57.9561C47.0286 59.3041 44.6092 59.9795 41.5667 59.9795C39.5835 60.0058 37.6171 59.6129 35.7963 58.8266C34.064 58.0434 32.7363 56.9778 31.8192 55.6298C30.9138 54.2818 30.4596 52.7184 30.4596 50.9424H36.1369C36.1369 53.9791 37.9478 55.4988 41.5667 55.4988C42.9118 55.4988 43.9628 55.2281 44.7169 54.6836C45.0822 54.4235 45.377 54.0765 45.5748 53.6739C45.7725 53.2714 45.8669 52.8259 45.8494 52.3778ZM63.1142 35.4973L57.6611 55.4464L53.1688 55.132L56.5664 34.5656L63.1142 35.4973ZM58.357 57.5252L56.9391 64.5738L50.9648 62.8298L52.3361 56.0695L58.357 57.5252Z" fill="white"/>
</g>
<defs>
<clipPath id="clip0_342_6443">
<rect width="93.1659" height="93.1659" fill="white" transform="translate(0.113281 0.880859)"/>
</clipPath>
</defs>
</svg>
