<svg width="94" height="95" viewBox="0 0 94 95" fill="none" xmlns="http://www.w3.org/2000/svg">
<g clip-path="url(#clip0_342_6447)">
<path d="M47.2094 94.0467C72.9364 94.0467 93.7923 73.1908 93.7923 47.4638C93.7923 21.7367 72.9364 0.880859 47.2094 0.880859C21.4824 0.880859 0.626465 21.7367 0.626465 47.4638C0.626465 73.1908 21.4824 94.0467 47.2094 94.0467Z" fill="#00B098"/>
<path d="M18.0952 36.9561V35.9196H42.6007V36.9561H18.0952ZM18.0952 33.9427V32.9062H42.6007V33.9427H18.0952ZM28.4308 64.9204V39.029H29.4149V64.9204H28.4308ZM31.284 64.9204V39.029H32.2652V64.9204H31.284ZM75.631 62.8008L64.5733 51.1173L65.2663 50.3865L76.3239 62.0672L75.631 62.8008ZM48.7206 32.9062L59.7782 44.5898L59.0853 45.3206L48.0277 33.6399L48.7206 32.9062ZM73.6133 64.932L62.5557 53.2484L63.2486 52.5148L74.3063 64.1983L73.6133 64.932ZM46.7059 35.0374L57.7635 46.7181L57.0677 47.4518L46.01 35.7711L46.7059 35.0374ZM62.4888 48.9191L63.1846 48.1855L75.631 35.0374L76.3239 35.7711L63.8775 48.9191L63.1846 49.6528L61.8628 51.0503L61.167 51.784L48.7235 64.932L48.0306 64.1983L60.4769 51.0503L61.1699 50.3166L62.4888 48.9191ZM61.167 46.0543L73.6162 32.9062L74.3092 33.6399L61.8628 46.788L61.1699 47.5216L59.8481 48.9191L59.1522 49.6528L46.7088 62.8008L46.0129 62.0672L58.4593 48.9191L59.1522 48.1855L60.4769 46.788L61.167 46.0543Z" fill="white"/>
</g>
<defs>
<clipPath id="clip0_342_6447">
<rect width="93.1659" height="93.1659" fill="white" transform="translate(0.627441 0.880859)"/>
</clipPath>
</defs>
</svg>
