<svg width="94" height="95" viewBox="0 0 94 95" fill="none" xmlns="http://www.w3.org/2000/svg">
<g clip-path="url(#clip0_342_6451)">
<path d="M46.7245 94.0458C72.4516 94.0458 93.3075 73.1899 93.3075 47.4628C93.3075 21.7358 72.4516 0.879883 46.7245 0.879883C20.9975 0.879883 0.141602 21.7358 0.141602 47.4628C0.141602 73.1899 20.9975 94.0458 46.7245 94.0458Z" fill="#1C1C1C"/>
<path d="M45.8951 39.9908C46.786 40.3547 47.6769 40.1713 48.3902 39.9908C48.9259 41.8075 49.8168 43.4408 50.7048 44.1657C50.172 48.7076 48.5678 50.3409 46.786 50.3409C44.2938 50.3409 43.0448 45.0741 43.0448 44.1687C43.5805 43.8047 45.1847 42.7129 45.898 39.9908H45.8951ZM43.2224 55.9716C44.2938 55.0632 45.0042 53.6104 45.8951 51.2493C46.6084 51.6132 47.6769 51.4298 48.3902 51.2493C48.9259 53.7909 49.4587 55.4272 50.7048 56.1521C50.3496 59.0577 48.5678 61.055 46.9636 61.055C44.649 61.055 43.5805 57.4244 43.2224 55.9716ZM28.9709 61.5994C29.6842 60.691 29.6842 59.2412 29.3291 56.5161C29.8618 56.6966 30.3975 56.6966 30.7557 56.5161C31.8212 59.0577 32.7121 60.691 34.1387 61.5994C34.3163 62.8717 34.1387 64.3245 33.603 64.505C31.6436 65.4134 29.8618 63.0522 28.9739 61.5994H28.9709ZM21.4886 56.6966C21.8467 56.6966 22.0243 56.6966 22.3795 56.88C23.6285 60.1466 25.7655 61.9633 25.7655 61.9633C26.4788 63.4161 26.834 64.869 26.2982 64.869C24.697 65.0495 23.448 63.9606 22.2019 61.5994C22.3795 61.055 22.2019 60.691 21.4886 56.6966ZM16.6789 56.6966C18.4607 64.3245 21.8467 63.9606 21.6691 63.5967C20.9558 62.3273 20.2425 61.7828 19.5292 61.2384C17.9279 59.6022 16.6789 56.1521 16.6789 56.6966ZM38.4127 61.5994C39.6617 60.691 39.8393 58.6938 40.0169 56.155C40.7302 56.3326 41.6182 56.3326 42.1539 56.155C42.512 57.7854 43.0448 60.1466 44.649 61.2384C44.4714 63.2356 43.9357 64.3245 42.6896 64.505C41.7987 64.869 39.3036 64.869 38.4127 61.5994ZM23.0928 55.9716C23.8061 55.0632 23.9837 53.6104 24.1613 51.6132C24.697 51.7937 25.4103 51.7937 25.7625 51.6132C26.2982 53.9715 27.1891 55.4272 28.2606 56.155C28.6157 59.9661 28.2606 61.2384 27.5473 61.2384C25.946 61.2384 23.8061 57.7854 23.0928 55.9687V55.9716ZM17.5698 55.9716C17.5698 55.6077 17.7474 53.2465 17.9279 51.6132H18.6383C19.5292 55.0632 20.7782 56.155 20.7782 56.155C21.6691 60.33 21.6691 61.4189 20.9529 61.055C19.3516 60.5105 18.1055 57.4244 17.5698 55.9716ZM31.8212 55.9716C32.7121 55.2438 33.2478 53.9744 33.603 51.6132C34.4939 51.9742 35.3848 51.7937 35.9205 51.6132C36.4533 53.9715 37.3471 55.4272 38.5932 56.155C38.5932 58.1494 38.4127 61.4189 35.9205 60.8716C33.7806 60.33 32.0017 56.6966 31.8212 55.9716ZM30.22 55.4272C28.08 55.4272 26.834 51.9742 26.834 50.8853C27.9024 49.7965 28.4352 47.7992 28.9709 44.3492C29.3291 44.5297 29.8618 44.5297 30.3975 44.3492C30.5751 48.1631 31.6436 49.7965 32.5345 50.7048C32.1793 53.791 31.2884 55.4272 30.22 55.4272ZM19.174 50.8853C19.5292 50.1575 19.5292 49.977 20.6006 44.3492H21.4886C21.4886 48.1631 22.5571 49.977 23.0928 50.7048C22.9152 52.7021 23.2704 55.4272 21.6662 55.4272C20.9558 55.4272 20.0649 54.5188 19.174 50.8853ZM15.6104 44.5297C16.1461 44.7131 15.788 49.4325 16.5013 51.0688C16.5013 51.0688 16.5013 55.6077 16.1461 55.2438C13.4734 51.9742 15.2552 44.3492 15.6104 44.5297ZM36.989 50.8853C38.2351 49.977 38.9484 47.9797 40.0169 44.3492C40.7302 44.5297 41.6182 44.5297 42.1539 44.3492C42.512 47.0714 43.2224 49.0715 44.649 50.5214C44.2938 53.427 42.8672 55.4272 41.0854 55.4272C38.2351 55.4272 37.1666 51.4298 36.989 50.8853ZM22.3795 43.8047C23.8061 43.2603 24.697 40.1713 24.8746 39.8073C25.0706 39.9831 25.3246 40.0803 25.5879 40.0803C25.8511 40.0803 26.1051 39.9831 26.3012 39.8073C26.3012 42.1685 27.0115 43.2603 27.5473 43.6213C27.0115 46.7074 26.2982 50.3409 24.694 50.3409C23.2704 50.3409 22.5571 47.0714 22.3795 43.8047ZM17.925 50.5214C16.6789 50.5214 16.3237 45.802 16.6789 43.8047C16.6789 43.8047 17.7474 42.1685 18.4607 39.8073C18.6383 39.8073 18.9964 39.9908 19.174 39.8073C18.9964 42.1685 19.3516 43.2603 19.7068 43.8047C19.7068 43.8047 18.8188 50.5214 17.9279 50.5214H17.925ZM31.466 43.8047C32.1793 43.4408 33.603 41.4436 34.3163 39.6268C35.0296 39.9908 35.7429 39.9908 36.6309 39.8073C36.989 41.8075 37.5218 43.0769 38.7708 43.8047C38.2351 47.0714 37.1666 50.3409 34.852 50.3409C32.7121 50.3409 31.6436 45.9825 31.466 43.8047ZM33.0673 38.9019C32.0017 41.8075 30.9303 43.4408 29.5066 43.4408C27.7249 43.4408 27.5473 39.6268 27.5473 39.2629C28.9739 38.174 30.0394 35.9963 30.9303 34.1795H32.1793C31.8212 36.9017 32.5345 38.174 33.0702 38.9019H33.0673ZM24.3389 34.36C23.448 36.9017 23.8061 38.174 24.1642 39.0824C22.7376 42.7129 22.0243 43.6242 20.9558 43.6242C19.8873 43.4408 19.8873 41.2601 20.2425 39.4463C21.311 38.7185 23.6285 34.5435 23.6285 34.36H24.3389ZM19.174 34.5435C19.7068 34.36 17.7474 37.0851 17.9279 38.3574C18.1026 40.1713 15.9656 43.2603 15.788 43.0769C15.0776 42.8964 16.5013 36.3573 19.174 34.5435ZM44.4714 38.9019C43.9357 40.8991 43.2224 43.4408 40.1945 43.4408C38.5932 43.2603 37.7023 41.0825 37.3442 39.2629C39.126 37.9935 40.0169 35.8128 40.5526 34.1795C41.0854 34.36 41.9792 34.36 42.512 34.1795C42.8672 36.9017 43.7581 38.174 44.4714 38.9019ZM20.2425 33.9961C20.5977 33.8156 22.9152 30.7295 24.1613 30.7295C24.8746 30.91 22.9152 32.7267 23.0928 33.6351C22.5571 34.5435 20.0649 39.0795 19.174 39.0795C18.4607 39.0795 18.4607 36.7212 20.2425 33.9961ZM64.0683 56.5161C63.8878 59.2382 63.8878 60.691 64.4235 61.5994C63.7102 63.0551 61.7508 65.2329 59.7943 64.505C59.0781 64.3245 59.0781 62.8717 59.2557 61.5994C60.8599 60.691 61.9284 58.8772 62.6417 56.5161C62.9969 56.6966 63.5326 56.6966 64.0683 56.5161ZM71.1926 56.5161C71.3701 56.6966 71.7283 56.6966 72.0834 56.3326C71.3701 60.33 71.1926 60.6911 71.3701 61.2384C70.1241 63.5967 68.878 64.505 67.2738 64.505C66.5605 64.505 66.9186 63.2356 67.8095 61.5994C67.8095 61.5994 69.9465 59.7856 71.1926 56.5161ZM74.0458 61.2384C73.3295 61.9633 72.6192 62.3273 72.0834 63.5967C71.9058 63.9606 75.2919 64.3245 77.0707 56.6966C76.7155 56.1521 75.6441 59.6022 74.0428 61.2384H74.0458ZM53.5551 56.5161C53.5551 58.6938 54.0908 60.691 55.1593 61.9633C54.2684 65.0495 51.7762 65.0495 50.8853 64.869C49.6363 64.505 49.2811 63.4161 48.9259 61.5994C50.3496 60.33 51.0629 58.1494 51.4181 56.5161C52.1314 56.6966 52.8447 56.6966 53.5551 56.5161ZM69.5884 51.4298C69.5884 53.6104 69.7689 55.0632 70.6598 55.7882C69.9465 57.6049 67.6319 61.0579 66.2053 61.0579C65.492 61.0579 65.1368 59.7856 65.492 55.9716C66.5605 55.2438 67.4514 53.427 67.9871 51.4298C68.2316 51.567 68.5073 51.639 68.7877 51.639C69.0681 51.639 69.3438 51.567 69.5884 51.4298ZM76.0022 51.7937C76.0022 53.2494 76.0022 55.6077 76.3603 56.1521C75.647 57.6078 74.401 60.694 72.9743 61.2384C72.0835 61.4189 72.261 60.33 73.1519 56.3326C73.1519 56.3326 74.401 55.0632 75.2919 51.7937H76.0022ZM60.1466 51.4298C60.5047 53.9744 60.8599 55.2438 61.9284 55.7882C61.7537 56.6966 59.7914 60.33 57.832 60.691C55.3369 61.2384 55.1593 57.7854 55.1593 55.9716C56.4054 55.2438 57.2963 53.6104 57.832 51.4298C58.3677 51.6132 59.2586 51.7937 60.1466 51.4298ZM66.9186 50.8853C66.7381 51.9742 65.3144 55.4272 63.5326 55.4272C62.4641 55.4272 61.5732 53.6104 61.218 50.7048C62.1089 49.977 63.1774 48.1631 63.355 44.3492C63.8131 44.531 64.3234 44.531 64.7816 44.3492C65.492 47.6187 66.0277 49.7965 66.9186 50.8853ZM73.1519 44.3492C74.0428 49.977 74.2204 50.1604 74.5785 50.8853C73.6876 54.3354 72.7967 55.4272 72.0834 55.4272C70.4822 55.4272 70.8374 52.5216 70.6568 50.7048C71.3701 49.977 72.261 48.1631 72.261 44.3492C72.6192 44.5297 72.7967 44.3492 73.1519 44.3492ZM76.8931 50.8853C77.784 49.4325 77.4288 44.7131 77.784 44.3492C78.3197 44.1658 79.921 52.1576 77.2512 55.0632C76.8931 55.4272 76.8931 50.8853 76.8931 50.8853ZM54.0908 44.3492C54.6265 47.9797 55.5174 49.977 57.1187 50.8853C56.9411 51.4298 55.5174 55.4272 53.0223 55.4272C51.0629 55.6077 49.9944 53.2465 49.4587 50.5214C50.7048 49.0715 51.5957 47.0714 51.9538 44.3492C52.309 44.5297 53.1999 44.5297 54.0908 44.3492ZM68.878 39.8073C68.878 40.1713 69.9465 43.2603 71.1926 44.1657C71.1926 47.2519 70.3017 50.7048 68.878 50.7048C67.2738 50.7048 66.5605 47.2548 66.0248 43.9852C66.5605 43.4408 67.2738 42.1685 67.2738 39.9908C67.5351 40.0948 67.8181 40.1325 68.0975 40.1004C68.3769 40.0684 68.644 39.9677 68.875 39.8073H68.878ZM76.8931 43.8047C77.0707 45.802 76.7155 50.5214 75.8246 50.3409C74.9337 50.3409 74.0428 43.6213 74.0428 43.6213C74.4009 43.0769 74.7561 41.8075 74.5785 39.8073C74.6764 39.8955 74.8035 39.9443 74.9352 39.9443C75.0669 39.9443 75.194 39.8955 75.2919 39.8073C76.0022 42.1685 76.8931 43.8047 76.8931 43.8047ZM59.4362 39.8073C60.1466 41.4436 61.3956 43.4408 62.4641 43.9852C62.2865 46.1659 61.0375 50.5214 59.0781 50.5214C56.4054 50.7048 55.695 47.4353 55.1593 43.9852C56.2278 43.2574 56.9411 41.8075 57.1187 39.9908C57.832 40.1713 58.72 40.1713 59.4362 39.8073ZM63.8907 43.2603C62.6417 43.4408 61.5732 41.8046 60.3271 38.9019C61.0375 38.174 61.5732 36.7212 61.218 34.1795C61.7508 34.36 62.1089 34.36 62.4641 34.1795C63.5326 36.1768 64.6011 38.174 65.8472 39.0824C65.8472 39.6268 65.6725 43.2603 63.8878 43.2603H63.8907ZM69.5884 38.9019C69.7689 38.174 70.1241 36.9017 69.0556 34.1795H69.7689C69.7689 34.36 72.261 38.7214 73.1519 39.2629C73.5101 41.2601 73.5101 43.2603 72.4386 43.4408C71.5507 43.4408 70.8374 42.5324 69.5884 38.899V38.9019ZM75.6441 38.3545C75.8246 37.0851 74.0428 34.36 74.2204 34.5405C77.0736 36.3573 78.1421 42.8964 77.6064 43.0769C77.4288 43.2603 75.4694 39.9908 75.647 38.3545H75.6441ZM53.0223 43.2603C50.3496 43.4408 49.6363 40.8991 49.1035 38.9019C49.9944 38.3545 50.8853 36.7212 51.0629 34.1795C51.5957 34.36 52.4895 34.36 53.0223 34.1795C53.5551 35.8128 54.4489 37.9935 55.8726 39.0824C55.695 41.2601 54.8041 43.0769 53.0194 43.2603H53.0223ZM69.5884 30.7295C70.4793 30.7295 73.1519 33.8156 73.3295 33.9961C75.2919 36.9017 75.2918 39.0824 74.5785 39.0824C73.5101 39.0824 71.1926 34.5405 70.6598 33.6351C70.8344 32.7267 68.878 30.7295 69.5884 30.7295ZM30.0394 31.2739C29.6842 32.3628 29.5066 33.4517 30.0394 33.9961C28.9709 36.1768 27.1891 39.2658 25.5849 39.0824C23.8061 38.7185 25.2298 34.5406 25.4103 34.1795C26.4788 33.6351 28.9709 30.185 29.8648 30.185C30.3975 30.3656 30.0394 31.2739 30.0394 31.2739ZM38.4127 31.0934C38.4127 32.1823 38.5932 33.4517 39.4812 33.9961C38.7708 36.1768 37.3442 39.0824 35.0267 38.9019C33.4254 38.7185 33.0702 35.9963 33.4254 33.9961C35.0267 33.4517 36.4533 30.0016 37.5218 30.0016C38.4127 30.0016 38.4127 30.91 38.4127 31.0934ZM63.7131 33.9961C64.0683 33.4517 64.0683 32.3657 63.7131 31.2739C63.7131 31.0934 63.355 30.185 63.8878 30.185C64.7787 30.185 67.2738 33.6351 68.3423 34.1795C68.5199 34.5435 69.9435 38.7214 68.1647 39.0824C66.3829 39.2629 64.7787 35.9963 63.7102 33.9961H63.7131ZM54.2684 33.9961C54.9817 33.4517 55.1593 32.1823 55.3369 31.0934C55.3369 30.91 55.3369 30.0016 56.2278 30.0016C57.1187 29.8211 58.9005 33.4517 60.3271 33.9961C60.8599 36.3573 60.5018 38.7185 58.7229 38.9019C56.2278 39.2629 54.9817 35.9963 54.2684 33.9961ZM46.786 30.0016C48.5678 30.0016 48.5678 33.4517 49.9944 34.1795C49.9944 35.0879 49.4587 39.0824 46.6084 39.0824C44.1133 39.0824 43.5805 35.8128 43.4029 34.1795C45.5399 33.2712 44.8295 30.0016 46.786 30.0016Z" fill="white"/>
</g>
<defs>
<clipPath id="clip0_342_6451">
<rect width="93.1659" height="93.1659" fill="white" transform="translate(0.141602 0.880859)"/>
</clipPath>
</defs>
</svg>
