<svg width="94" height="95" viewBox="0 0 94 95" fill="none" xmlns="http://www.w3.org/2000/svg">
<g clip-path="url(#clip0_342_6455)">
<path d="M47.2392 94.0467C72.9662 94.0467 93.8221 73.1908 93.8221 47.4638C93.8221 21.7367 72.9662 0.880859 47.2392 0.880859C21.5121 0.880859 0.65625 21.7367 0.65625 47.4638C0.65625 73.1908 21.5121 94.0467 47.2392 94.0467Z" fill="#F2941B"/>
<path d="M48.8868 15.4375H48.9189C54.9513 21.4059 60.9169 27.4326 66.9144 33.4331H81.8792L48.1939 81.1602C47.6349 75.5557 47.204 69.9512 46.7091 64.3496C51.5886 57.3301 56.5992 50.3747 61.4788 43.3873L50.3367 32.2801C50.3268 30.9665 50.2168 29.6554 50.0077 28.3584C49.6438 24.0728 49.4138 19.7231 48.8868 15.4375ZM12.3338 63.3597C23.6389 47.4749 34.845 31.5232 46.1181 15.6035L47.5359 32.4781C42.6243 39.4976 37.6807 46.421 32.7691 53.4084C36.4288 57.0652 40.0856 60.7889 43.8122 64.4486C44.3071 70.0502 44.7351 75.7216 45.297 81.3582H45.2272L27.3306 63.4267C22.3229 63.4936 17.3123 63.3946 12.3018 63.4936V63.3597H12.3338Z" fill="white"/>
</g>
<defs>
<clipPath id="clip0_342_6455">
<rect width="93.1659" height="93.1659" fill="white" transform="translate(0.655273 0.880859)"/>
</clipPath>
</defs>
</svg>
