<svg width="94" height="95" viewBox="0 0 94 95" fill="none" xmlns="http://www.w3.org/2000/svg">
<g clip-path="url(#clip0_342_6459)">
<path d="M46.7519 94.0467C72.4789 94.0467 93.3348 73.1908 93.3348 47.4638C93.3348 21.7367 72.4789 0.880859 46.7519 0.880859C21.0248 0.880859 0.168945 21.7367 0.168945 47.4638C0.168945 73.1908 21.0248 94.0467 46.7519 94.0467Z" fill="#01AEF0"/>
<path fill-rule="evenodd" clip-rule="evenodd" d="M61.5099 55.8765C61.472 61.9148 57.9841 67.0564 52.4204 69.1672C51.1161 69.6622 49.7593 70.0261 48.4084 70.3638C47.602 70.5676 47.1623 70.9665 47.0983 71.8487C47.0168 72.9608 46.9032 74.0701 46.7489 75.1677C46.5626 76.4662 46.1171 76.7632 44.9234 76.4778C42.868 75.9887 42.6467 75.6568 42.9204 73.4994C42.9437 73.316 42.9699 73.1326 42.9902 72.9463C43.194 71.179 42.9437 70.9257 41.2521 71.0102C40.4922 71.048 40.1749 71.4236 40.1021 72.1689C40.0031 73.2403 39.8983 74.3146 39.7236 75.3715C39.5489 76.4545 39.0947 76.7224 38.0525 76.4953C35.8281 76.0149 35.6651 75.7674 35.9562 73.415C36.3231 70.4948 36.3143 70.5269 33.6183 69.7146C32.4247 69.3536 31.2659 68.8528 30.0984 68.3899C29.388 68.1104 29.1551 67.5805 29.3473 66.7915C29.5918 65.7871 29.7607 64.7593 29.9703 63.7432C30.3313 62.0109 31.1698 61.4869 32.7711 62.1157C35.6069 63.2308 38.5183 63.9179 41.5491 63.9907C44.2829 64.0577 46.9876 63.8771 49.4827 62.535C51.1306 61.647 52.3418 60.3456 52.9503 58.4794C53.8528 55.7077 53.0434 53.4659 50.4464 52.3508C48.3065 51.4337 46.0094 50.9242 43.852 50.0449C41.9363 49.2647 39.9449 48.4844 38.2912 47.2587C34.5733 44.5103 33.924 40.4459 34.7392 36.105C35.6651 31.2109 38.6609 28.0374 43.1067 26.3517C44.2917 25.9062 44.8274 25.2832 44.8477 23.9527C44.8652 22.5115 45.0952 21.0703 45.2699 19.635C45.4038 18.5316 45.8347 18.223 46.8654 18.3918C49.0548 18.7499 49.3168 19.0964 49.1013 21.3702C49.0169 22.2582 48.9441 23.1462 48.8393 24.0284C48.752 24.7708 48.9878 25.1114 49.7652 25.1347C51.5382 25.1871 51.6139 25.1551 51.8235 23.3209C51.9575 22.1418 52.0564 20.9597 52.2166 19.7835C52.3913 18.4792 52.8134 18.1822 54.0158 18.4268C56.0393 18.8431 56.2635 19.1517 56.0655 21.2596C55.9781 22.1825 55.9345 23.1142 55.7744 24.0254C55.5909 25.0736 55.9112 25.5598 56.9535 25.8014C58.9362 26.2614 60.8985 26.8437 62.8462 27.4493C64.3107 27.9035 64.3689 28.0694 64.0865 29.5921C63.9205 30.5034 63.7546 31.4176 63.5391 32.3172C63.1374 34.0117 62.293 34.5153 60.6801 33.9738C57.9201 33.0422 55.1484 32.2008 52.2224 32.0756C49.6603 31.9678 47.1332 32.0057 44.9089 33.6157C41.7762 35.8808 41.7587 40.4867 45.0894 42.4257C47.2089 43.6602 49.6574 44.289 51.9545 45.1974C53.3549 45.7506 54.7932 46.228 56.1383 46.8977C59.7426 48.6969 61.5506 51.7044 61.5099 55.8794" fill="white"/>
</g>
<defs>
<clipPath id="clip0_342_6459">
<rect width="93.1659" height="93.1659" fill="white" transform="translate(0.169922 0.880859)"/>
</clipPath>
</defs>
</svg>
