<svg width="94" height="95" viewBox="0 0 94 95" fill="none" xmlns="http://www.w3.org/2000/svg">
<g clip-path="url(#clip0_342_6463)">
<path d="M47.2665 94.0458C72.9936 94.0458 93.8495 73.1899 93.8495 47.4628C93.8495 21.7358 72.9936 0.879883 47.2665 0.879883C21.5395 0.879883 0.683594 21.7358 0.683594 47.4628C0.683594 73.1899 21.5395 94.0458 47.2665 94.0458Z" fill="#4BA2F2"/>
<path d="M29.4196 24.8395C30.0484 24.9472 28.4821 29.1193 29.3555 33.8853C30.1125 37.9701 39.5659 53.7879 39.1758 59.2148C38.873 62.6212 31.1111 70.6131 30.293 70.0803C29.3992 69.8328 32.6513 64.403 31.4459 59.8786C30.0426 54.6031 21.7217 40.966 21.7305 34.9451C21.7305 30.5401 28.8577 24.5542 29.4167 24.8395H29.4196ZM47.2055 18.6091C48.0033 18.7459 46.0118 24.0709 47.124 30.1354C48.0848 35.3527 60.1468 55.5231 59.6461 62.4378C59.2559 66.7875 49.3629 76.9687 48.3148 76.2962C47.1793 75.9847 51.3252 69.0584 49.788 63.2879C48.0033 56.5683 37.3911 39.1754 37.3998 31.498C37.3998 25.876 46.4893 18.2509 47.2055 18.612V18.6091ZM65.5621 24.8395C66.191 24.9472 64.6275 29.1193 65.4981 33.8853C66.255 37.9701 75.7085 53.7879 75.3212 59.2148C75.0214 62.6212 67.2566 70.6131 66.4355 70.0803C65.5446 69.8328 68.7938 64.403 67.5885 59.8786C66.1881 54.6031 57.8643 40.966 57.873 34.9451C57.873 30.5401 65.006 24.5542 65.5621 24.8395Z" fill="white"/>
</g>
<defs>
<clipPath id="clip0_342_6463">
<rect width="93.1659" height="93.1659" fill="white" transform="translate(0.683594 0.880859)"/>
</clipPath>
</defs>
</svg>
