<svg width="94" height="95" viewBox="0 0 94 95" fill="none" xmlns="http://www.w3.org/2000/svg">
<g clip-path="url(#clip0_342_6467)">
<path d="M46.7812 94.0467C72.5082 94.0467 93.3641 73.1908 93.3641 47.4638C93.3641 21.7367 72.5082 0.880859 46.7812 0.880859C21.0541 0.880859 0.198242 21.7367 0.198242 47.4638C0.198242 73.1908 21.0541 94.0467 46.7812 94.0467Z" fill="#2683FF"/>
<path d="M72.9173 56.1131C74.139 56.846 75.027 58.0262 75.3928 59.403C75.7586 60.7799 75.5735 62.2452 74.8767 63.4878C73.3802 66.1139 69.9797 67.0456 67.3041 65.5782C67.042 65.4355 66.8149 65.2667 66.582 65.0978L52.2403 73.2033C52.2752 73.4653 52.2956 73.7302 52.2985 73.9952C52.2985 74.3067 52.2985 74.5891 52.2403 74.8977C51.7512 77.8674 48.9009 79.8996 45.8759 79.4192C42.8538 78.9388 40.7809 76.1409 41.27 73.1771L26.838 65.0134C26.6146 65.1736 26.3844 65.3242 26.148 65.4647C25.9151 65.5782 25.6851 65.718 25.426 65.8024C24.0655 66.3476 22.5452 66.3363 21.1929 65.771C19.8406 65.2057 18.7646 64.1316 18.1969 62.7803C17.0469 59.9853 18.4298 56.8206 21.2801 55.691V39.3637C21.0184 39.2793 20.7673 39.165 20.5319 39.023C20.3159 38.889 20.1043 38.7482 19.8972 38.6009C19.1126 38.0308 18.4955 37.2604 18.1103 36.3703C17.7252 35.4802 17.5862 34.503 17.7078 33.5408C17.8367 32.5763 18.2202 31.6636 18.8189 30.8965C19.4176 30.1295 20.2099 29.5358 21.1142 29.1766C22.0248 28.8094 23.0153 28.6856 23.9882 28.8173C24.9612 28.949 25.8831 29.3317 26.6634 29.9277L41.238 21.6505C41.2089 21.3972 41.1798 21.173 41.1798 20.9168C41.1798 17.9239 43.7418 15.4375 46.7959 15.4375C49.8471 15.4375 52.3509 17.8656 52.3538 20.8877C52.3538 21.1439 52.3247 21.3681 52.2956 21.6243L66.9838 29.9568C67.6221 29.4891 68.3518 29.161 69.1253 28.9939C69.8989 28.8268 70.6989 28.8245 71.4734 28.9871C72.2479 29.1497 72.9795 29.4735 73.6205 29.9376C74.2616 30.4016 74.7977 30.9954 75.194 31.6804C76.6876 34.3065 75.7094 37.6401 73.0308 39.1104C72.7717 39.221 72.5126 39.3637 72.2535 39.4481V55.8045C72.4835 55.8919 72.7048 55.9938 72.9144 56.1131H72.9173ZM73.9276 62.9492C74.212 62.4797 74.3998 61.958 74.4798 61.4149C74.5599 60.8718 74.5305 60.3181 74.3936 59.7865C74.2566 59.2549 74.0147 58.756 73.6822 58.3192C73.3497 57.8823 72.9332 57.5164 72.4573 57.2428C71.6731 56.7907 70.7657 56.5993 69.8657 56.6961C68.9657 56.7929 68.1197 57.1729 67.4496 57.7814L60.8523 54.0256C61.6419 52.4306 61.8201 50.6017 61.3535 48.8842C60.8868 47.1667 59.8075 45.6794 58.3194 44.7032C58.1341 44.0799 57.8924 43.4747 57.5973 42.8952L67.5632 37.3577C68.5996 38.3185 70.0583 38.7115 71.4499 38.4058C71.992 38.2888 72.5054 38.0653 72.9604 37.7482C73.4154 37.4311 73.8028 37.0268 74.1002 36.5587C74.3976 36.0907 74.5991 35.5682 74.6929 35.0216C74.7867 34.475 74.771 33.9153 74.6467 33.3748C74.1285 31.1156 71.8226 29.7326 69.5226 30.2392C68.9805 30.3559 68.4671 30.5791 68.012 30.8959C67.5569 31.2126 67.1693 31.6166 66.8717 32.0844C66.574 32.5521 66.3722 33.0744 66.278 33.6208C66.1838 34.1672 66.1991 34.7268 66.3229 35.2673L56.2435 40.8892C54.287 38.6009 48.0653 37.0753 48.0653 37.0753V24.6172C48.6878 24.4383 49.2559 24.1072 49.7185 23.6538C50.181 23.2004 50.5234 22.639 50.7147 22.0203C50.8648 21.5271 50.9151 21.009 50.8627 20.4962C50.8103 19.9834 50.6563 19.4862 50.4097 19.0336C50.163 18.581 49.8287 18.182 49.4262 17.86C49.0237 17.538 48.561 17.2994 48.0653 17.1582C45.9633 16.538 43.7447 17.6677 43.11 19.7319C42.9604 20.2248 42.9105 20.7426 42.9631 21.2551C43.0157 21.7676 43.1698 22.2644 43.4164 22.7167C43.663 23.169 43.9972 23.5677 44.3994 23.8895C44.8017 24.2113 45.264 24.4498 45.7595 24.591V37.3024C45.7595 37.3024 42.3647 38.4029 41.04 39.4743C39.6329 39.5066 38.2525 39.8654 37.0077 40.5224L27.531 35.1828C27.6906 34.5157 27.6794 33.8191 27.4982 33.1575C27.317 32.4959 26.9718 31.8907 26.4945 31.398C25.7227 30.5843 24.6616 30.1073 23.5407 30.0702C22.4198 30.0332 21.3295 30.439 20.5057 31.2C20.0977 31.5701 19.7681 32.0182 19.5364 32.5179C19.3046 33.0176 19.1754 33.5587 19.1564 34.1091C19.1374 34.6596 19.229 35.2083 19.4257 35.7228C19.6225 36.2373 19.9204 36.7071 20.3019 37.1044C21.0741 37.9183 22.1358 38.3954 23.2571 38.4324C24.3785 38.4695 25.4693 38.0635 26.2936 37.3024L34.8474 42.1033C33.3471 43.5625 32.4225 45.5132 32.2429 47.5984C32.0632 49.6835 32.6405 51.7636 33.8692 53.4579L26.3518 57.7232C25.8308 57.2484 25.2019 56.9077 24.5196 56.7307C23.8373 56.5536 23.1221 56.5455 22.436 56.7071C21.8941 56.8279 21.3817 57.055 20.9284 57.3755C20.475 57.6959 20.0898 58.1031 19.7952 58.5736C19.5005 59.0441 19.3022 59.5684 19.2117 60.1161C19.1213 60.6638 19.1405 61.224 19.2683 61.7642C19.8186 64.0177 22.1244 65.4064 24.4216 64.8678C24.9631 64.747 25.4752 64.5199 25.9283 64.1997C26.3814 63.8795 26.7665 63.4725 27.0611 63.0024C27.3558 62.5322 27.5542 62.0083 27.6448 61.4609C27.7355 60.9135 27.7166 60.3536 27.5892 59.8136L35.6248 55.2659C37.6919 56.905 40.3908 57.5572 42.9965 57.0448C43.8001 57.4116 44.6269 57.7232 45.4712 57.9765V69.8435C44.9002 70.0204 44.3699 70.3085 43.9107 70.6913C43.4515 71.074 43.0725 71.5438 42.7956 72.0736C42.5339 72.5887 42.3776 73.1509 42.3361 73.7272C42.2946 74.3035 42.3687 74.8823 42.5539 75.4296C42.7391 75.9769 43.0318 76.4816 43.4148 76.9143C43.7978 77.3469 44.2633 77.6986 44.7841 77.9489C44.9588 78.0362 45.1306 78.1178 45.3315 78.176C45.3606 78.176 45.3897 78.2051 45.4188 78.2051C47.7771 78.9097 50.2867 77.6374 51.0059 75.3228C51.178 74.7698 51.2382 74.1882 51.1831 73.6117C51.128 73.0352 50.9587 72.4755 50.6849 71.9652C50.4112 71.4549 50.0386 71.0042 49.5888 70.6394C49.139 70.2746 48.6211 70.003 48.0653 69.8405V58.2065C48.0653 58.2065 50.2256 58.0085 51.2329 57.697C54.0425 58.8033 57.2567 58.1482 59.385 56.0316L66.122 59.9038C65.9151 60.775 65.9972 61.6898 66.3559 62.5101C66.7146 63.3305 67.3305 64.0119 68.1105 64.4515C69.0849 65.0064 70.237 65.1602 71.3228 64.8804C72.4086 64.6005 73.3429 63.9089 73.9276 62.9521V62.9492ZM23.4433 58.9955C24.0838 58.9984 24.6719 59.3303 24.998 59.8689C25.145 60.1389 25.2239 60.4407 25.228 60.7481C25.2226 61.2166 25.0318 61.6638 24.6972 61.9918C24.3627 62.3198 23.9118 62.5018 23.4433 62.4979C22.9743 62.5026 22.5227 62.3209 22.1875 61.9929C21.8523 61.6648 21.6611 61.2171 21.6557 60.7481C21.6557 59.7786 22.4563 58.9955 23.4433 58.9955ZM48.6709 20.8906C48.6632 21.3589 48.4712 21.8052 48.1366 22.1328C47.8019 22.4604 47.3516 22.6427 46.8833 22.6404C46.4148 22.6443 45.9639 22.4623 45.6293 22.1343C45.2948 21.8063 45.1039 21.3591 45.0986 20.8906C45.0986 19.9211 45.8992 19.1379 46.8833 19.1379C47.8732 19.1379 48.6709 19.924 48.6709 20.8906ZM70.4426 36.0883C69.975 36.0876 69.5262 35.9038 69.1926 35.5761C68.859 35.2485 68.667 34.8031 68.6579 34.3356C68.6579 33.369 69.4585 32.5829 70.4426 32.5829C71.4325 32.5829 72.2302 33.369 72.2302 34.3356C72.2248 34.8046 72.0336 35.2523 71.6984 35.5803C71.3632 35.9084 70.9116 36.09 70.4426 36.0854V36.0883ZM24.276 32.7227C24.4784 32.8319 24.6567 32.9807 24.8003 33.1603C24.9439 33.3399 25.0498 33.5467 25.1118 33.7681C25.1737 33.9896 25.1904 34.2213 25.1609 34.4493C25.1313 34.6774 25.0561 34.8971 24.9398 35.0955C24.7042 35.5015 24.3174 35.7977 23.8641 35.9193C23.4107 36.041 22.9276 35.9782 22.5204 35.7447C22.3174 35.6362 22.1385 35.4876 21.9944 35.3081C21.8504 35.1285 21.7441 34.9217 21.6821 34.7C21.6201 34.4783 21.6036 34.2464 21.6336 34.0181C21.6635 33.7899 21.7394 33.5701 21.8566 33.3719C22.0922 32.9659 22.479 32.6698 22.9323 32.5481C23.3857 32.4264 23.8688 32.4892 24.276 32.7227ZM71.1617 59.3332C71.3637 59.4424 71.5417 59.5911 71.685 59.7705C71.8283 59.9499 71.9341 60.1563 71.9961 60.3774C72.058 60.5985 72.0748 60.8298 72.0455 61.0576C72.0162 61.2853 71.9414 61.5049 71.8255 61.7031C71.6603 61.9682 71.431 62.1874 71.1588 62.3405C70.8866 62.4937 70.5802 62.5759 70.2679 62.5794C69.9537 62.5847 69.6436 62.5074 69.3687 62.3551C69.0938 62.2028 68.8637 61.981 68.7015 61.7118C68.542 61.4447 68.4578 61.1393 68.4578 60.8282C68.4578 60.5171 68.542 60.2117 68.7015 59.9446C68.8637 59.6754 69.0938 59.4536 69.3687 59.3013C69.6436 59.149 69.9537 59.0717 70.2679 59.077C70.5821 59.087 70.889 59.174 71.1617 59.3303V59.3332ZM45.0986 73.934C45.1014 73.9119 45.1117 73.8914 45.1277 73.8758C45.2062 73.4182 45.4615 73.0098 45.8383 72.7385C46.2152 72.4673 46.6835 72.3551 47.1424 72.4259C47.6014 72.4874 48.0171 72.7287 48.2983 73.0967C48.5794 73.4646 48.703 73.9292 48.6418 74.3882C48.5555 74.8125 48.3245 75.1937 47.9884 75.4666C47.6523 75.7395 47.2318 75.8873 46.7988 75.8847C46.557 75.8743 46.3198 75.8148 46.1017 75.7099C45.8836 75.605 45.6891 75.4568 45.53 75.2743C45.371 75.0918 45.2507 74.8789 45.1765 74.6485C45.1024 74.4181 45.0758 74.175 45.0986 73.934ZM55.3526 46.9014C56.209 47.1646 56.9575 47.6973 57.4867 48.4202C58.016 49.143 58.2978 50.0174 58.2903 50.9133C58.2903 51.056 58.2611 51.1986 58.2611 51.3384C58.232 51.4519 58.232 51.5655 58.2029 51.6761V51.7635C58.1447 52.0167 58.0865 52.27 57.97 52.5233C57.6506 53.3019 57.0984 53.9629 56.3891 54.4158C56.2144 54.5031 56.0688 54.5875 55.9 54.672L55.8126 54.7011C55.4751 54.8578 55.1159 54.9628 54.747 55.0126L54.6015 55.0388C54.4006 55.0388 54.2288 55.0679 54.0279 55.0679C53.0875 55.0679 52.1763 54.7593 51.4367 54.1916L50.6565 54.5293C50.4177 54.6458 50.1674 54.7302 49.9082 54.7855H49.8791C48.097 55.2625 46.2019 55.0709 44.5512 54.2469H44.5221C44.3503 54.1625 44.1785 54.078 44.033 53.9936L43.9747 53.9645C43.803 53.8539 43.6603 53.7403 43.4856 53.6268C42.7875 53.9328 42.0322 54.0866 41.27 54.078C41.0371 54.078 40.8362 54.078 40.6353 54.0489L40.5189 54.0198L40.0006 53.9383L39.9424 53.9092C39.7577 53.8748 39.5758 53.8271 39.398 53.7665C38.9336 53.6125 38.489 53.4044 38.0733 53.1464C37.2059 52.6097 36.5224 51.8217 36.1139 50.8871C36.1139 50.8289 36.0848 50.7998 36.0556 50.7445C36.0218 50.6483 35.9829 50.5541 35.9392 50.462C35.9049 50.3985 35.8757 50.3323 35.8518 50.2641C35.8227 50.1796 35.7674 50.0952 35.7674 50.0108C35.7617 49.9238 35.7421 49.8382 35.7092 49.7575C35.6801 49.6701 35.6801 49.641 35.651 49.5304C35.6218 49.4168 35.6218 49.3062 35.5956 49.1927C35.5956 49.1053 35.5665 49.05 35.5665 48.9947C35.5424 48.8162 35.5326 48.6361 35.5374 48.4561C35.534 48.2393 35.5438 48.0224 35.5665 47.8068C35.5665 47.7224 35.5956 47.6671 35.5956 47.6088C35.6248 47.44 35.6539 47.3002 35.683 47.1576C35.7121 47.0993 35.7121 47.0178 35.7412 46.9596C35.7756 46.8053 35.8234 46.6543 35.8839 46.5083C35.913 46.4501 35.913 46.4239 35.9421 46.3686C36.0056 46.1931 36.0825 46.0228 36.1721 45.8591L36.2012 45.8008C36.674 44.9341 37.3618 44.2035 38.1985 43.6794C39.0352 43.1552 39.9927 42.8551 40.9789 42.8079C41.0662 42.7788 41.1536 42.7788 41.27 42.7788C41.6165 42.7788 41.9629 42.8079 42.3065 42.8661C42.4521 42.6914 42.5947 42.5517 42.7665 42.3828L42.9121 42.2431C43.0838 42.1004 43.2265 41.9607 43.4012 41.8471L43.4885 41.7889C43.6021 41.7045 43.803 41.5647 43.8903 41.5065C43.9777 41.4512 44.1203 41.3376 44.2077 41.3085C44.3089 41.2735 44.4057 41.2266 44.4959 41.1687C44.6677 41.0814 44.9559 40.9417 45.1277 40.8863L45.2732 40.7728C46.4266 40.3247 47.6755 40.1793 48.9009 40.3506H48.93C49.1629 40.3739 49.3929 40.4089 49.62 40.4613H49.6491C49.882 40.4904 50.0829 40.5777 50.3129 40.633L50.342 40.6622C50.572 40.7437 50.7729 40.8281 50.9738 40.9155L51.0321 40.9446C51.23 41.0261 51.4222 41.1193 51.6085 41.2241L51.6376 41.2532C51.8094 41.3405 52.0103 41.4803 52.185 41.5909L52.2141 41.62C52.415 41.7336 52.5868 41.8733 52.7585 42.016L52.7877 42.0451C53.7507 42.8545 54.4938 43.894 54.9479 45.0672V45.0963C55.0062 45.2651 55.0644 45.4631 55.1226 45.632C55.1226 45.6902 55.1517 45.7455 55.1517 45.8008C55.1983 45.9464 55.2391 46.1007 55.2653 46.2521L55.3526 46.9014Z" fill="white"/>
</g>
<defs>
<clipPath id="clip0_342_6467">
<rect width="93.1659" height="93.1659" fill="white" transform="translate(0.197266 0.880859)"/>
</clipPath>
</defs>
</svg>
