<svg width="94" height="95" viewBox="0 0 94 95" fill="none" xmlns="http://www.w3.org/2000/svg">
<g clip-path="url(#clip0_342_6475)">
<path d="M46.8085 94.0458C72.5356 94.0458 93.3915 73.1899 93.3915 47.4628C93.3915 21.7358 72.5356 0.879883 46.8085 0.879883C21.0815 0.879883 0.225586 21.7358 0.225586 47.4628C0.225586 73.1899 21.0815 94.0458 46.8085 94.0458Z" fill="#2DC4E7"/>
<path d="M15.2339 27.1878C18.352 27.1878 21.575 26.9781 24.696 27.2576C26.0819 28.8153 26.3934 30.9988 27.4677 32.801C41.4717 32.8709 55.5427 32.801 69.5467 32.801C70.586 32.8709 71.8671 32.9058 72.3882 33.9452C73.0113 35.0894 72.5629 36.4403 71.9719 37.4797C69.1303 42.2981 66.4256 47.1864 63.6539 52.0369C62.6145 53.7721 61.9187 55.7111 60.3611 57.0649C59.0801 58.1392 57.3099 58.2062 55.6824 58.2062H36.269C35.2296 58.2062 34.1203 58.1043 33.4973 57.2716C31.4884 55.0182 30.4112 52.1417 29.0952 49.5068C26.8162 44.9442 24.586 40.3575 22.4047 35.7474C21.9535 34.708 21.4003 33.7734 20.8791 32.801C19.0449 32.801 17.2049 32.801 15.4056 32.7311C15.0563 30.8969 15.0563 29.0249 15.231 27.1878H15.2339ZM37.1046 61.9503C38.5149 61.6152 39.9813 61.5913 41.4018 61.8804C42.9944 62.2298 44.3831 63.4409 44.7645 65.0364C45.178 66.8706 45.178 68.8504 44.4501 70.6147C43.7572 72.2102 42.0249 72.973 40.3974 73.1127C38.5253 73.2496 36.3767 73.1127 34.9879 71.724C33.5002 70.0615 33.5002 67.6363 33.8117 65.5546C34.0184 63.8223 35.4043 62.3317 37.1016 61.9503H37.1046ZM54.4334 61.9503C56.1657 61.5718 58.0378 61.6038 59.7031 62.2269C61.2957 62.8878 62.1283 64.6201 62.2652 66.2476C62.4748 68.1546 62.2652 70.3381 60.8793 71.7938C59.5983 73.0079 57.7262 73.1797 56.0289 73.1447C54.3635 73.0778 52.5643 72.4518 51.6967 70.8942C50.8699 69.2049 50.6489 67.2827 51.0707 65.4498C51.4201 63.7525 52.736 62.3346 54.4334 61.9503Z" fill="white"/>
</g>
<defs>
<clipPath id="clip0_342_6475">
<rect width="93.1659" height="93.1659" fill="white" transform="translate(0.225586 0.880859)"/>
</clipPath>
</defs>
</svg>
