<svg width="94" height="95" viewBox="0 0 94 95" fill="none" xmlns="http://www.w3.org/2000/svg">
<g clip-path="url(#clip0_342_6479)">
<path d="M47.3229 94.0467C73.05 94.0467 93.9059 73.1908 93.9059 47.4638C93.9059 21.7367 73.05 0.880859 47.3229 0.880859C21.5959 0.880859 0.73999 21.7367 0.73999 47.4638C0.73999 73.1908 21.5959 94.0467 47.3229 94.0467Z" fill="#1387C9"/>
<path d="M47.4776 54.3728L75.4099 38.1154L47.4776 21.5668L19.8248 38.1154L47.4776 54.3728ZM18.3458 45.8714C18.3452 46.2581 18.4459 46.6382 18.638 46.9738C18.8301 47.3095 19.1068 47.5889 19.4405 47.7843L47.4688 64.1116L75.9572 47.2602C76.2843 47.071 76.6555 46.9713 77.0334 46.9711C77.4113 46.9709 77.7826 47.0703 78.1099 47.2592C78.4372 47.448 78.7089 47.7198 78.8979 48.0471C79.0868 48.3744 79.1861 48.7456 79.186 49.1235V56.7689C79.1859 57.1425 79.089 57.5097 78.9048 57.8347C78.7206 58.1597 78.4554 58.4315 78.135 58.6235L48.5635 76.2755C48.2355 76.4716 47.8609 76.5758 47.4788 76.5774C47.0967 76.5789 46.7212 76.4777 46.3916 76.2843L16.0545 58.4488C15.7049 58.2419 15.451 57.9053 15.348 57.5123C15.245 57.1193 15.3011 56.7016 15.5042 56.3497C15.604 56.1757 15.7373 56.0232 15.8964 55.901C16.0555 55.7789 16.2372 55.6895 16.4311 55.6381C16.6249 55.5866 16.8271 55.5741 17.0258 55.6013C17.2245 55.6285 17.4159 55.6949 17.5888 55.7965L47.4688 73.3612L76.1377 56.2478V50.7161L48.5577 67.0288C48.2311 67.2227 47.8586 67.3257 47.4788 67.3272C47.0989 67.3287 46.7256 67.2287 46.3974 67.0376L17.9149 50.4424C17.117 49.9759 16.4553 49.3084 15.9961 48.5063C15.5368 47.7042 15.2959 46.7957 15.2975 45.8714V38.6715C15.2966 38.3484 15.3808 38.0308 15.5418 37.7507C15.7028 37.4706 15.9348 37.2379 16.2145 37.0761C16.4941 36.9143 16.8115 36.829 17.1345 36.829C17.4576 36.829 17.775 36.9142 18.0546 37.076L19.8248 38.1154L17.6004 39.4459C17.3877 39.5745 17.1466 39.6488 16.8985 39.6623C16.6503 39.6759 16.4026 39.6282 16.1771 39.5235C15.9517 39.4188 15.7554 39.2604 15.6056 39.0621C15.4557 38.8637 15.3569 38.6316 15.3179 38.3861C15.2663 38.0804 15.3081 37.7662 15.438 37.4847C15.5679 37.2031 15.7797 36.9674 16.0457 36.8082L46.38 18.6525C46.7096 18.4546 47.0865 18.3497 47.4709 18.3486C47.8554 18.3476 48.2329 18.4506 48.5635 18.6466L78.2922 36.2608C78.6156 36.4536 78.8831 36.7274 79.0684 37.0551C79.2537 37.3829 79.3504 37.7532 79.3489 38.1297C79.3475 38.5062 79.2479 38.8758 79.06 39.2021C78.8722 39.5284 78.6025 39.8001 78.2776 39.9903L48.5461 57.2959C48.2191 57.4869 47.8471 57.5873 47.4684 57.5868C47.0898 57.5862 46.7181 57.4848 46.3916 57.293L16.5203 39.7283C16.6783 39.8212 16.8553 39.8769 17.038 39.8913C17.2206 39.9057 17.4042 39.8783 17.5747 39.8113C17.7453 39.7442 17.8983 39.6393 18.0223 39.5044C18.1463 39.3694 18.238 39.2081 18.2904 39.0325C18.3277 38.9157 18.3473 38.794 18.3487 38.6715V45.8744L18.3458 45.8714Z" fill="white"/>
</g>
<defs>
<clipPath id="clip0_342_6479">
<rect width="93.1659" height="93.1659" fill="white" transform="translate(0.739502 0.880859)"/>
</clipPath>
</defs>
</svg>
