<svg width="94" height="95" viewBox="0 0 94 95" fill="none" xmlns="http://www.w3.org/2000/svg">
<g clip-path="url(#clip0_342_6483)">
<path d="M46.8354 94.0467C72.5624 94.0467 93.4183 73.1908 93.4183 47.4638C93.4183 21.7367 72.5624 0.880859 46.8354 0.880859C21.1083 0.880859 0.252441 21.7367 0.252441 47.4638C0.252441 73.1908 21.1083 94.0467 46.8354 94.0467Z" fill="#7324F0"/>
<path d="M80.8264 40.0746V38.7295C78.6207 38.7338 76.4981 39.5715 74.8838 41.0745C73.2695 42.5776 72.2827 44.6351 72.1212 46.8349C71.9654 44.6382 70.9843 42.5816 69.3751 41.0782C67.7658 39.5748 65.6474 38.7357 63.4451 38.7295V40.0746C65.4049 40.0746 67.2843 40.8531 68.6701 42.2388C70.0558 43.6246 70.8343 45.5041 70.8343 47.4638C70.837 48.4349 70.6477 49.397 70.2773 50.2947C69.907 51.1924 69.3628 52.0081 68.6761 52.6948C67.9894 53.3814 67.1738 53.9256 66.276 54.296C65.3783 54.6664 64.4162 54.8557 63.4451 54.853V56.1981C65.6508 56.1937 67.7734 55.3561 69.3877 53.8531C71.002 52.35 71.9888 50.2925 72.1503 48.0927C72.3072 50.2942 73.2925 52.3545 74.9078 53.8585C76.5231 55.3625 78.6484 56.1985 80.8555 56.1981V54.853C78.8963 54.8522 77.0175 54.0734 75.6324 52.6877C74.2473 51.3021 73.4692 49.423 73.4692 47.4638C73.4661 46.4953 73.6541 45.5356 74.0224 44.6398C74.3906 43.744 74.9319 42.9297 75.6153 42.2433C76.2987 41.557 77.1107 41.0121 78.0049 40.64C78.899 40.2679 79.8578 40.0757 80.8264 40.0746ZM34.1503 56.1981V55.1966L34.1212 47.4638H32.8314V56.1981H34.1503ZM51.6189 38.7295C46.8063 38.7295 42.8846 42.6541 42.8846 47.4638C42.8846 52.2735 46.8063 56.1981 51.6189 56.1981C53.9354 56.1981 56.157 55.2779 57.795 53.6399C59.433 52.0019 60.3532 49.7803 60.3532 47.4638C60.3532 45.1473 59.433 42.9257 57.795 41.2877C56.157 39.6497 53.9354 38.7295 51.6189 38.7295ZM51.6189 54.853C50.6364 54.8725 49.6598 54.6958 48.7464 54.3333C47.833 53.9708 47.0011 53.4298 46.2994 52.7418C45.5976 52.0539 45.0401 51.2329 44.6596 50.3268C44.279 49.4208 44.083 48.448 44.083 47.4652C44.083 46.4825 44.279 45.5097 44.6596 44.6037C45.0401 43.6976 45.5976 42.8766 46.2994 42.1887C47.0011 41.5007 47.833 40.9597 48.7464 40.5972C49.6598 40.2347 50.6364 40.058 51.6189 40.0775C53.5776 40.0783 55.4559 40.8567 56.8409 42.2417C58.226 43.6268 59.0044 45.5051 59.0052 47.4638C59.0079 48.4347 58.8187 49.3965 58.4485 50.294C58.0783 51.1916 57.5343 52.0071 56.848 52.6937C56.1616 53.3804 55.3463 53.9246 54.4489 54.2952C53.5515 54.6657 52.5898 54.8553 51.6189 54.853ZM28.0217 38.7295C23.2091 38.7295 19.2874 42.6541 19.2874 47.4638C19.2828 49.4221 18.5028 51.2989 17.1181 52.6837C15.7333 54.0684 13.8565 54.8484 11.8982 54.853V56.1981C16.7079 56.1981 20.6325 52.2735 20.6325 47.4638C20.6371 45.5055 21.4171 43.6287 22.8018 42.2439C24.1866 40.8592 26.0634 40.0792 28.0217 40.0746H39.2453V38.7295H28.0217Z" fill="white"/>
</g>
<defs>
<clipPath id="clip0_342_6483">
<rect width="93.1659" height="93.1659" fill="white" transform="translate(0.253418 0.880859)"/>
</clipPath>
</defs>
</svg>
