<svg width="94" height="95" viewBox="0 0 94 95" fill="none" xmlns="http://www.w3.org/2000/svg">
<g clip-path="url(#clip0_342_6487)">
<path d="M47.3505 94.0467C73.0776 94.0467 93.9334 73.1908 93.9334 47.4638C93.9334 21.7367 73.0776 0.880859 47.3505 0.880859C21.6235 0.880859 0.767578 21.7367 0.767578 47.4638C0.767578 73.1908 21.6235 94.0467 47.3505 94.0467Z" fill="#E53431"/>
<path d="M36.0455 16.3529C36.1705 16.2564 36.3244 16.2051 36.4823 16.2073C36.6398 16.2073 36.793 16.2584 36.919 16.3529L40.5787 19.0954C40.6551 19.153 40.7195 19.225 40.7681 19.3074C40.8168 19.3899 40.8487 19.4811 40.8621 19.5758C40.8754 19.6706 40.87 19.767 40.8461 19.8597C40.8222 19.9524 40.7803 20.0394 40.7228 20.1159C40.6652 20.1924 40.5932 20.2568 40.5108 20.3054C40.4283 20.354 40.3371 20.3859 40.2424 20.3993C40.1476 20.4127 40.0512 20.4073 39.9585 20.3834C39.8658 20.3595 39.7788 20.3176 39.7023 20.26L36.4823 17.8523L26.0098 25.7044L72.0105 60.2165C72.1015 60.2849 72.1754 60.3735 72.2262 60.4753C72.2771 60.5771 72.3036 60.6894 72.3036 60.8032C72.3036 60.917 72.2771 61.0293 72.2262 61.1311C72.1754 61.2329 72.1015 61.3215 72.0105 61.3898L68.6303 63.9228C68.4751 64.0386 68.2803 64.088 68.0886 64.0602C67.897 64.0323 67.7242 63.9295 67.6084 63.7743C67.4926 63.6191 67.4431 63.4242 67.471 63.2326C67.4988 63.0409 67.6017 62.8682 67.7569 62.7524L70.3568 60.8017L24.3532 26.2954C24.2618 26.2284 24.1874 26.1407 24.1361 26.0395C24.0849 25.9384 24.0581 25.8265 24.0581 25.7131C24.0581 25.5997 24.0849 25.4879 24.1361 25.3867C24.1874 25.2856 24.2618 25.1979 24.3532 25.1308L36.0455 16.3558V16.3529ZM47.7408 16.3529C47.8655 16.2562 48.0187 16.2032 48.1765 16.2022C48.3344 16.2011 48.4882 16.252 48.6142 16.347L72.0076 33.8943C72.1306 33.9852 72.2212 34.1131 72.2663 34.2592C72.3113 34.4054 72.3084 34.5622 72.258 34.7065C72.2106 34.8522 72.1183 34.9791 71.9943 35.0691C71.8704 35.159 71.7211 35.2074 71.568 35.2073H59.8727C59.7154 35.2063 59.5625 35.1553 59.436 35.0617L44.084 23.5499C44.0072 23.4924 43.9424 23.4203 43.8934 23.3377C43.8444 23.2551 43.8122 23.1637 43.7986 23.0687C43.7849 22.9737 43.7901 22.8769 43.8139 22.7839C43.8376 22.6908 43.8794 22.6034 43.937 22.5266C43.9945 22.4497 44.0666 22.385 44.1492 22.336C44.2318 22.287 44.3232 22.2548 44.4182 22.2411C44.5133 22.2275 44.61 22.2327 44.7031 22.2564C44.7961 22.2802 44.8835 22.322 44.9604 22.3795L60.1202 33.7458H69.3756L48.1804 17.8493L33.5068 28.8546C33.4299 28.9121 33.3425 28.9539 33.2495 28.9777C33.1565 29.0015 33.0597 29.0067 32.9646 28.993C32.7727 28.9654 32.5996 28.8627 32.4834 28.7075C32.3672 28.5523 32.3174 28.3573 32.345 28.1654C32.3726 27.9735 32.4752 27.8004 32.6304 27.6842L47.7408 16.3529ZM27.582 31.4778C27.738 31.3835 27.9234 31.3507 28.1022 31.3857C28.281 31.4206 28.4405 31.5209 28.5494 31.6669C28.6584 31.8129 28.7091 31.9943 28.6918 32.1757C28.6744 32.3571 28.5902 32.5255 28.4554 32.6482L26.0069 34.4824L72.0105 68.9945C72.102 69.0622 72.1764 69.1504 72.2276 69.252C72.2788 69.3536 72.3055 69.4659 72.3055 69.5797C72.3055 69.6935 72.2788 69.8057 72.2276 69.9074C72.1764 70.009 72.102 70.0972 72.0105 70.1649L60.3153 78.937C60.1887 79.0302 60.0357 79.0805 59.8785 79.0805C59.7214 79.0805 59.5684 79.0302 59.4418 78.937L56.0558 76.3983C55.9006 76.2813 55.7983 76.1074 55.7712 75.915C55.7442 75.7225 55.7947 75.5272 55.9117 75.372C56.0287 75.2168 56.2025 75.1144 56.395 75.0874C56.5875 75.0604 56.7828 75.1109 56.938 75.2279L59.8785 77.4318L70.3597 69.571L24.3445 35.0676C24.2546 34.9988 24.1817 34.9102 24.1315 34.8088C24.0813 34.7073 24.0552 34.5956 24.0552 34.4824C24.0552 34.3692 24.0813 34.2575 24.1315 34.156C24.1817 34.0545 24.2546 33.9659 24.3445 33.8972L27.5762 31.4807L27.582 31.4778ZM24.79 60.0651V60.0709H36.4794C36.6372 60.0688 36.7911 60.1201 36.9161 60.2165L52.1021 71.6031C52.179 71.6605 52.2438 71.7324 52.2928 71.8148C52.3419 71.8972 52.3742 71.9884 52.388 72.0833C52.4018 72.1782 52.3967 72.2749 52.3732 72.3679C52.3496 72.4608 52.3079 72.5482 52.2506 72.625C52.1932 72.7019 52.1213 72.7667 52.0389 72.8158C51.9565 72.8648 51.8653 72.8971 51.7704 72.9109C51.6755 72.9247 51.5788 72.9197 51.4859 72.8961C51.3929 72.8725 51.3055 72.8309 51.2287 72.7735L36.2464 61.5325H26.9852L48.1833 77.4289L62.8278 66.447C62.9047 66.3893 62.9921 66.3472 63.0852 66.3233C63.1783 66.2994 63.2752 66.294 63.3704 66.3075C63.4656 66.321 63.5571 66.3532 63.6399 66.4021C63.7226 66.451 63.7949 66.5157 63.8526 66.5926C63.9104 66.6694 63.9524 66.7569 63.9763 66.85C64.0003 66.9431 64.0056 67.04 63.9921 67.1351C63.9786 67.2303 63.9465 67.3219 63.8976 67.4046C63.8487 67.4874 63.7839 67.5597 63.7071 67.6174L48.6229 78.9254C48.497 79.0199 48.3437 79.071 48.1862 79.071C48.0276 79.0725 47.873 79.0213 47.7466 78.9254L24.3474 61.384C24.2323 61.3826 24.1191 61.354 24.017 61.3006C23.915 61.2471 23.8271 61.1703 23.7604 61.0764C23.6938 60.9825 23.6502 60.8742 23.6334 60.7602C23.6165 60.6463 23.6268 60.53 23.6634 60.4208C23.7001 60.3116 23.762 60.2127 23.8442 60.132C23.9263 60.0513 24.0264 59.9911 24.1362 59.9564C24.246 59.9218 24.3625 59.9135 24.4761 59.9324C24.5897 59.9513 24.6973 59.9968 24.79 60.0651Z" fill="white"/>
</g>
<defs>
<clipPath id="clip0_342_6487">
<rect width="93.1659" height="93.1659" fill="white" transform="translate(0.767578 0.880859)"/>
</clipPath>
</defs>
</svg>
