<svg width="94" height="95" viewBox="0 0 94 95" fill="none" xmlns="http://www.w3.org/2000/svg">
<g clip-path="url(#clip0_342_6491)">
<path d="M46.8649 94.0467C72.592 94.0467 93.4479 73.1908 93.4479 47.4638C93.4479 21.7367 72.592 0.880859 46.8649 0.880859C21.1379 0.880859 0.281982 21.7367 0.281982 47.4638C0.281982 73.1908 21.1379 94.0467 46.8649 94.0467Z" fill="#2D9CDB"/>
<path d="M52.8655 27.3275C62.776 37.7097 65.2915 39.5439 67.6992 40.2048C59.3289 39.1566 54.6065 38.5627 46.7194 34.4227L41.7409 40.2164L73.0679 47.1718C63.268 55.5043 59.0232 59.9443 52.8655 67.5926H41.013C35.8045 59.9705 32.3311 57.4958 25.6407 54.4126C34.5438 55.2336 39.4933 55.7809 46.7194 60.0607L52.1376 53.9758L20.6621 47.1718C27.9815 41.1393 32.2409 37.1157 41.0101 27.3275H52.8655ZM41.7409 25.8805C44.4485 22.5469 45.5549 20.9253 47.0106 18.3486C48.4372 21.0039 49.5406 22.643 52.1347 25.8805H41.7409ZM52.1347 69.0454C49.4242 72.379 48.3149 74.0007 46.865 76.5773C45.4384 73.9221 44.3321 72.2829 41.7409 69.0454H52.1347Z" fill="white"/>
</g>
<defs>
<clipPath id="clip0_342_6491">
<rect width="93.1659" height="93.1659" fill="white" transform="translate(0.281494 0.880859)"/>
</clipPath>
</defs>
</svg>
