<svg width="94" height="94" viewBox="0 0 94 94" fill="none" xmlns="http://www.w3.org/2000/svg">
<g clip-path="url(#clip0_342_6495)">
<circle cx="47.0419" cy="46.9775" r="46.5829" fill="white"/>
<path d="M27.6089 20.1777L78.8077 55.1361L66.1457 73.854L14.9468 38.6203L27.6089 20.1777Z" fill="url(#paint0_linear_342_6495)"/>
<path d="M78.8096 55.1362C74.4054 61.4672 59.5412 58.9899 45.5028 49.0804C31.1891 39.4462 23.4818 26.5088 27.6107 20.1778C32.0149 13.8468 46.8791 16.3241 60.9175 26.2336C75.2312 35.5925 82.9385 48.8051 78.8096 55.1362Z" fill="url(#paint1_linear_342_6495)"/>
<path d="M66.148 73.5775C61.7438 79.9085 46.8796 77.4311 32.8412 67.5217C18.8028 57.6122 10.8202 44.9501 15.2244 38.3438C19.6286 32.0128 34.4928 34.4901 48.5312 44.3996C62.5696 54.3091 70.277 67.2464 66.148 73.5775Z" fill="url(#paint2_linear_342_6495)"/>
<path d="M78.811 55.1366L66.1489 73.8545C61.7447 80.1855 46.8805 77.4329 32.8421 67.7987C30.0895 65.8719 27.6121 63.945 25.1348 61.7429C27.0616 61.4677 29.539 60.3666 32.0163 57.614C36.4205 52.9345 38.6226 51.8335 40.5495 52.1087C42.4763 52.1087 44.6784 54.0356 48.2568 58.715C51.8353 63.3945 56.79 64.7708 59.8179 62.2934C60.0931 62.0182 60.3684 62.0182 60.6437 61.7429C63.121 59.8161 63.9468 58.9903 68.6263 50.1819C69.7273 47.9798 73.581 44.4014 78.811 46.0529C80.1873 49.6314 80.1873 52.6592 78.811 55.1366Z" fill="#0E0F23"/>
<path fill-rule="evenodd" clip-rule="evenodd" d="M76.8826 54.0351C73.0289 59.5404 59.5411 56.7877 46.6037 47.7041C33.3911 38.6204 25.6837 27.0594 29.5374 21.5541C33.3911 16.0488 46.879 18.8015 59.8163 27.8851C72.7537 36.9688 80.461 48.5299 76.8826 54.0351ZM64.7711 45.7772C62.8442 48.5299 56.2379 47.1535 49.6316 42.7493C43.3006 38.3451 39.4469 32.5646 41.3737 29.812C43.3006 27.0594 49.9069 28.4357 56.5132 32.8399C62.8442 37.2441 66.6979 43.0246 64.7711 45.7772Z" fill="white"/>
<path d="M26.5102 26.5094C26.5102 26.2341 26.235 25.9589 25.9597 26.2341C25.6844 26.5094 25.4092 26.5094 25.4092 26.7847C25.6844 27.6104 25.9597 28.161 25.9597 28.7115C25.9597 28.9868 26.235 29.262 26.5102 28.9868C26.7855 28.9868 27.0608 28.7115 26.7855 28.4362C26.7855 27.8857 26.7855 27.3352 26.5102 26.5094Z" fill="white"/>
<path d="M27.8858 30.9127C27.8858 30.6375 27.6106 30.3622 27.3353 30.6375C27.0601 30.9127 27.0601 30.9127 27.0601 31.188C30.0879 38.0696 36.419 45.5016 44.6769 51.0069C44.9521 51.2822 45.2274 51.0069 45.5027 51.0069C45.7779 50.7316 45.5027 50.4564 45.5027 50.1811C36.9695 44.6759 30.9137 37.519 27.8858 30.9127Z" fill="white"/>
<path d="M61.1955 57.8887C60.9203 57.8887 60.645 57.8887 60.645 58.1639C60.645 58.4392 60.645 58.7145 60.9203 58.7145C61.7461 58.9897 62.8471 59.265 63.6729 59.5403C63.9482 59.5403 64.2234 59.5403 64.2234 59.265C64.2234 58.9897 64.2234 58.7145 63.9482 58.7145C63.1224 58.4392 62.0213 58.1639 61.1955 57.8887Z" fill="white"/>
<path d="M66.1472 58.9902C65.8719 58.9902 65.5967 59.2655 65.5967 59.5408C65.5967 59.816 65.8719 60.0913 66.1472 60.0913C68.3493 60.3665 70.8267 60.6418 72.7535 60.3665C73.0288 60.3665 73.304 60.0913 73.304 59.816C73.304 59.5408 73.0288 59.2655 72.7535 59.2655C70.5514 59.5408 68.3493 59.2655 66.1472 58.9902Z" fill="white"/>
</g>
<defs>
<linearGradient id="paint0_linear_342_6495" x1="37.64" y1="15.2073" x2="47.7933" y2="50.0727" gradientUnits="userSpaceOnUse">
<stop stop-color="#03B8FF"/>
<stop offset="1" stop-color="#FA52A0"/>
</linearGradient>
<linearGradient id="paint1_linear_342_6495" x1="46.0032" y1="12.7721" x2="56.1568" y2="47.6377" gradientUnits="userSpaceOnUse">
<stop stop-color="#03B8FF"/>
<stop offset="1" stop-color="#FA52A0"/>
</linearGradient>
<linearGradient id="paint2_linear_342_6495" x1="29.3069" y1="17.6333" x2="39.4605" y2="52.4989" gradientUnits="userSpaceOnUse">
<stop stop-color="#03B8FF"/>
<stop offset="1" stop-color="#FA52A0"/>
</linearGradient>
<clipPath id="clip0_342_6495">
<rect width="93.1659" height="93.1659" fill="white" transform="translate(0.459473 0.394531)"/>
</clipPath>
</defs>
</svg>
