<svg width="95" height="94" viewBox="0 0 95 94" fill="none" xmlns="http://www.w3.org/2000/svg">
<g clip-path="url(#clip0_342_6508)">
<path d="M47.5566 93.5604C73.2836 93.5604 94.1395 72.7045 94.1395 46.9775C94.1395 21.2504 73.2836 0.394531 47.5566 0.394531C21.8295 0.394531 0.973633 21.2504 0.973633 46.9775C0.973633 72.7045 21.8295 93.5604 47.5566 93.5604Z" fill="#0082C6"/>
<path d="M53.5136 44.3651C53.4527 44.3528 53.3895 44.3574 53.331 44.3785C53.2725 44.3995 53.2209 44.4362 53.1817 44.4845C53.1549 44.5181 53.1353 44.557 53.1242 44.5985C53.113 44.6401 53.1104 44.6835 53.1167 44.7261C53.123 44.7686 53.138 44.8095 53.1606 44.846C53.1833 44.8826 53.2133 44.9141 53.2487 44.9386C65.9978 54.1912 47.8509 75.3748 12.6196 52.8315C42.4909 80.9414 84.0866 49.891 53.5136 44.3651ZM36.4992 31.9973C10.0459 40.4608 40.351 60.4216 42.9801 50.3393C42.9917 50.2973 42.9947 50.2532 42.9887 50.2099C42.9828 50.1667 42.968 50.1251 42.9454 50.0877C42.9228 50.0504 42.8927 50.018 42.8571 49.9927C42.8215 49.9674 42.7811 49.9496 42.7384 49.9405C42.6772 49.9246 42.6128 49.9256 42.5521 49.9434C38.6595 51.2099 17.2197 45.2152 36.4963 31.9973H36.4992ZM82.494 37.0836C59.5898 20.7504 16.6141 34.2187 38.7847 45.7509C38.8639 45.791 38.9555 45.7992 39.0405 45.7737C39.1256 45.7483 39.1976 45.6911 39.2418 45.6141C39.2652 45.5704 39.2782 45.522 39.2797 45.4725C39.2812 45.4229 39.2712 45.3738 39.2505 45.3288C30.2338 26.2763 76.0336 32.0701 82.494 37.0836ZM63.4882 60.8147C75.5968 55.3121 65.7504 36.4722 49.7346 40.1086C49.6486 40.1279 49.5584 40.1129 49.4833 40.0666C49.4082 40.0204 49.3542 39.9466 49.3328 39.8611C49.319 39.8022 49.3227 39.7405 49.3434 39.6836C49.364 39.6268 49.4008 39.5771 49.4493 39.5408C61.9102 30.1777 85.3007 52.0367 63.4882 60.8147Z" fill="white"/>
</g>
<defs>
<clipPath id="clip0_342_6508">
<rect width="93.1659" height="93.1659" fill="white" transform="translate(0.973633 0.394531)"/>
</clipPath>
</defs>
</svg>
