<svg width="94" height="94" viewBox="0 0 94 94" fill="none" xmlns="http://www.w3.org/2000/svg">
<g clip-path="url(#clip0_342_6512)">
<path d="M47.0717 93.5604C72.7988 93.5604 93.6546 72.7045 93.6546 46.9775C93.6546 21.2504 72.7988 0.394531 47.0717 0.394531C21.3447 0.394531 0.48877 21.2504 0.48877 46.9775C0.48877 72.7045 21.3447 93.5604 47.0717 93.5604Z" fill="#002342"/>
<path d="M12.1343 38.2432H15.9133V41.798H12.1343V38.2432ZM15.9133 52.1423H26.9098V55.7118H12.1343V45.3529H23.2268V48.9048H15.9162V52.1423H15.9133ZM67.2332 45.3529H82.0087V55.7118H70.9161V52.1423H78.2296V48.9077H67.2332V45.3529ZM78.2908 41.9698H67.2273V38.4149H78.2908V41.9669V41.9698ZM30.5112 45.3529H45.2868V52.2937H41.6067V55.7118H30.5112V45.3529ZM41.5077 52.1423V48.9077H34.2903V52.1394H41.5106L41.5077 52.1423ZM30.5112 38.2432H45.2868V41.798H30.5112V38.2432ZM48.9523 45.3529H63.7278V52.2937H60.0477V55.7118H48.9552V45.3529H48.9523ZM59.9342 52.1423V48.9077H52.7138V52.1394H59.9342V52.1423ZM48.9523 38.2432H63.7278V41.798H48.9523V38.2432Z" fill="white"/>
</g>
<defs>
<clipPath id="clip0_342_6512">
<rect width="93.1659" height="93.1659" fill="white" transform="translate(0.487793 0.394531)"/>
</clipPath>
</defs>
</svg>
