<svg width="94" height="94" viewBox="0 0 94 94" fill="none" xmlns="http://www.w3.org/2000/svg">
<g clip-path="url(#clip0_342_6516)">
<path d="M46.5834 93.5604C72.3105 93.5604 93.1664 72.7045 93.1664 46.9775C93.1664 21.2504 72.3105 0.394531 46.5834 0.394531C20.8564 0.394531 0.000488281 21.2504 0.000488281 46.9775C0.000488281 72.7045 20.8564 93.5604 46.5834 93.5604Z" fill="#7B346E"/>
<path d="M23.5658 40.2173L29.7089 46.3604H17.4692L23.5658 40.2173ZM29.7089 47.6414L23.5658 53.738L17.4692 47.6414H29.7089ZM38.0123 39.3351L31.8692 45.4316V33.1949L38.0123 39.3351ZM30.5882 45.4316L24.4945 39.3351L30.5911 33.192L30.5882 45.4316ZM38.8974 38.4064L32.8008 32.3098H45.0376L38.8974 38.4064ZM38.8974 24.8886L45.0376 31.0288H32.8008L38.8974 24.8886ZM53.3439 24.0035L47.2008 30.1V17.8633L53.3439 24.0035ZM45.9198 30.1L39.8232 24.0064L45.9198 17.8633V30.1ZM38.0123 54.6638L31.8692 60.7603V48.5236L38.0123 54.6638ZM24.4945 54.6638L30.5911 48.5236V60.7603L24.4945 54.6638ZM54.2261 38.4064L48.1295 32.3098H60.3663L54.2261 38.4064ZM48.1295 31.0288L54.2261 24.8857L60.3692 31.0288H48.1295ZM45.0405 62.9701L38.8974 69.0667L32.8038 62.9701H45.0405ZM38.8974 55.546L45.0405 61.6891H32.8038L38.8974 55.546ZM68.6755 39.3351L62.5353 45.4316V33.1949L68.6755 39.3351ZM55.1577 39.3351L61.2543 33.192V45.4316L55.1577 39.3351ZM39.8261 69.9925L45.9227 63.8552V76.0919L39.8261 69.9925ZM47.2037 63.8552L53.3468 69.9954L47.2008 76.0919L47.2037 63.8552ZM54.229 69.0667L48.1325 62.9701H60.3692L54.229 69.0667ZM54.229 55.5489L60.3721 61.692H48.1266L54.229 55.5489ZM62.5353 48.5236L68.6784 54.6667L62.5353 60.7603V48.5236ZM55.1577 54.6667L61.2543 48.5236V60.7603L55.1577 54.6667ZM69.5606 53.7351L63.4641 47.6414H75.6979L69.5606 53.7351ZM69.5606 40.2173L75.6979 46.3604H63.4612L69.5606 40.2173Z" fill="white"/>
</g>
<defs>
<clipPath id="clip0_342_6516">
<rect width="93.1659" height="93.1659" fill="white" transform="translate(0.00146484 0.394531)"/>
</clipPath>
</defs>
</svg>
