<svg width="94" height="94" viewBox="0 0 94 94" fill="none" xmlns="http://www.w3.org/2000/svg">
<g clip-path="url(#clip0_342_6520)">
<path d="M47.0986 93.5604C72.8256 93.5604 93.6815 72.7045 93.6815 46.9775C93.6815 21.2504 72.8256 0.394531 47.0986 0.394531C21.3715 0.394531 0.515625 21.2504 0.515625 46.9775C0.515625 72.7045 21.3715 93.5604 47.0986 93.5604Z" fill="#5244D4"/>
<path d="M46.2249 80.1676C27.4112 80.1676 12.1611 64.9175 12.1611 46.1038C12.1611 27.2901 27.4112 12.04 46.2249 12.04C65.0386 12.04 80.2887 27.2901 80.2887 46.1038C80.2887 64.9175 65.0386 80.1676 46.2249 80.1676ZM54.6389 57.7495L46.2249 46.1038L37.8109 57.7495L30.969 46.1038L38.5969 33.0606H53.8529L61.4808 46.1038L54.6389 57.7495ZM57.1428 27.4706H35.307L24.4183 46.1038L35.3361 64.737H57.1428L68.0315 46.1038L57.1428 27.4706Z" fill="white"/>
</g>
<defs>
<clipPath id="clip0_342_6520">
<rect width="93.1659" height="93.1659" fill="white" transform="translate(0.515625 0.394531)"/>
</clipPath>
</defs>
</svg>
