<svg width="94" height="94" viewBox="0 0 94 94" fill="none" xmlns="http://www.w3.org/2000/svg">
<g clip-path="url(#clip0_342_6524)">
<path d="M46.6137 93.5604C72.3407 93.5604 93.1966 72.7045 93.1966 46.9775C93.1966 21.2504 72.3407 0.394531 46.6137 0.394531C20.8867 0.394531 0.0307617 21.2504 0.0307617 46.9775C0.0307617 72.7045 20.8867 93.5604 46.6137 93.5604Z" fill="#14C8FF"/>
<path d="M73.0492 33.8125C74.8921 35.3061 76.0538 38.3951 75.6462 40.6631L71.6866 62.5688C71.2732 64.8513 69.0896 67.3639 66.842 68.1529L45.2421 75.7372C42.9944 76.5262 39.6521 75.9555 37.8121 74.462L20.1746 60.1464C18.3317 58.6529 17.1671 55.5784 17.5834 53.2958L21.543 31.3902C21.9535 29.1076 24.1371 26.598 26.3876 25.8061L47.9905 18.2189C50.241 17.427 53.5804 18.0034 55.4233 19.4941L73.0492 33.8125ZM54.6751 43.6473L55.5544 39.1929L47.3092 39.2074L48.4737 33.338H45.8098C43.8882 36.2828 41.0893 38.5489 37.8092 39.8159L37.0609 43.6561H40.6653C40.6653 43.6561 39.4454 49.1703 39.0349 51.2054C38.0159 56.3878 40.5779 60.062 44.5142 60.062H51.1756L52.3401 55.1417H46.7676C44.2929 55.1417 44.4239 53.7879 44.9043 51.3859L46.4387 43.6357L54.6751 43.6473Z" fill="white"/>
</g>
<defs>
<clipPath id="clip0_342_6524">
<rect width="93.1659" height="93.1659" fill="white" transform="translate(0.0297852 0.394531)"/>
</clipPath>
</defs>
</svg>
