<svg width="94" height="94" viewBox="0 0 94 94" fill="none" xmlns="http://www.w3.org/2000/svg">
<g clip-path="url(#clip0_342_6528)">
<path d="M47.1254 93.5604C72.8525 93.5604 93.7084 72.7045 93.7084 46.9775C93.7084 21.2504 72.8525 0.394531 47.1254 0.394531C21.3984 0.394531 0.54248 21.2504 0.54248 46.9775C0.54248 72.7045 21.3984 93.5604 47.1254 93.5604Z" fill="#0899CD"/>
<path d="M79.0638 49.5012C78.5194 57.2718 75.4187 63.9739 69.7618 69.6133C68.3352 71.0428 66.8416 72.3093 65.2782 73.4128C65.2098 73.3092 65.1349 73.21 65.054 73.1158L78.7086 49.4604C78.8251 49.4808 78.9415 49.4953 79.0638 49.5012ZM63.8166 74.3881C58.8963 77.4655 53.3296 79.0027 47.1254 79.0027C41.1948 79.0027 35.8465 77.5965 31.0805 74.787C31.7967 75.2091 32.5245 75.5963 33.267 75.9515C33.3404 75.8313 33.4028 75.7046 33.4533 75.573H60.7975C60.8468 75.7046 60.9082 75.8313 60.9809 75.9515C61.9504 75.4857 62.8937 74.9616 63.8166 74.3881ZM28.9726 73.4273C27.3615 72.2881 25.8517 71.012 24.4599 69.6133C18.8204 63.9739 15.7314 57.2689 15.187 49.5012C15.3052 49.4965 15.423 49.4829 15.5392 49.4604L29.1968 73.1158C29.1133 73.2131 29.0383 73.3173 28.9726 73.4273ZM15.0996 46.482C15.2161 37.8438 18.3313 30.4516 24.457 24.3085C30.7194 18.0722 38.2746 14.9512 47.1254 14.9512C55.9761 14.9512 63.5226 18.0722 69.7618 24.3114C75.9922 30.5419 79.122 38.0592 79.1511 46.8576C79.15 46.0736 79.1208 45.2899 79.0638 44.508C78.9454 44.5136 78.8277 44.5282 78.7115 44.5517L65.0685 20.8526C65.1527 20.7542 65.2286 20.649 65.2956 20.5382C63.9349 19.5746 62.4966 18.7254 60.9954 17.9994C60.9168 18.1308 60.8505 18.2692 60.7975 18.4129H33.4533C33.4004 18.2692 33.3341 18.1307 33.2553 17.9994C31.7676 18.7157 30.3351 19.5571 28.958 20.5266C29.025 20.643 29.1036 20.7595 29.1968 20.8643L15.5392 44.5517C15.4222 44.5279 15.3034 44.5133 15.184 44.508C15.1404 45.1602 15.1113 45.8182 15.1025 46.4849L15.0996 46.482ZM77.2471 45.3989C77.0514 45.6197 76.8975 45.8743 76.7929 46.1501H65.5053C65.3742 45.8086 65.1705 45.4997 64.9084 45.2446C64.6525 44.9822 64.3425 44.7785 64 44.6478V22.4394L77.2471 45.4019V45.3989ZM76.7929 47.8533C76.8977 48.129 77.0516 48.3835 77.2471 48.6044L64 71.5407V49.3556C64.3423 49.2258 64.6523 49.0232 64.9084 48.7617C65.1707 48.5056 65.3744 48.1957 65.5053 47.8533H76.7929ZM17.4579 46.153C17.3531 45.8772 17.1992 45.6227 17.0037 45.4019L30.2507 22.4394V44.6507C29.9082 44.7814 29.5983 44.9851 29.3423 45.2475C29.0803 45.5027 28.8767 45.8116 28.7455 46.153H17.4579ZM33.4271 20.1714C33.4388 20.153 33.4485 20.1335 33.4562 20.1131H60.8004C60.9064 20.3883 61.0601 20.6426 61.2546 20.8643L52.8988 35.305C52.325 35.1919 51.7296 35.2924 51.2247 35.5874L33.4271 20.1714ZM33.4562 46.153C33.3251 45.8116 33.1215 45.5026 32.8594 45.2475C32.6034 44.9851 32.2934 44.7815 31.951 44.6507V22.4394L45.2126 45.3727C45.0208 45.6042 44.8728 45.8686 44.7759 46.153H33.4562ZM54.8028 38.6502C54.9075 38.364 54.9598 38.0612 54.9571 37.7564C54.9639 37.1697 54.7569 36.6005 54.3748 36.1551L62.3056 22.4423V44.6478C62.1777 44.6944 62.054 44.7519 61.9358 44.8196L54.8028 38.6473V38.6502ZM50.1358 36.8655C50.0204 37.1483 49.962 37.451 49.964 37.7564C49.964 38.3678 50.162 38.9035 50.5609 39.3606L47.5679 44.5226C47.2777 44.4648 46.9789 44.4648 46.6887 44.5226L34.3617 23.2196L50.1329 36.8655H50.1358ZM49.4953 46.153C49.3923 45.8691 49.2395 45.6059 49.044 45.3757L52.0224 40.2108C52.5962 40.3238 53.1915 40.2234 53.6965 39.9284L60.8295 46.0977C60.8214 46.1179 60.8117 46.1373 60.8004 46.1559H49.4953V46.153ZM61.3972 48.7646C61.6532 49.027 61.9631 49.2306 62.3056 49.3614V71.5407L49.044 48.5666C49.2256 48.356 49.3694 48.1157 49.4691 47.8562H60.8004C60.9313 48.1986 61.1349 48.5085 61.3972 48.7646ZM46.7178 49.4458C47.0003 49.4836 47.2869 49.4787 47.5679 49.4313L59.892 70.775L44.1353 57.1466C44.2412 56.8606 44.2945 56.5578 44.2926 56.2528C44.2996 55.666 44.0926 55.0967 43.7103 54.6515L46.7178 49.4458ZM60.8295 73.8116C60.8213 73.8318 60.8116 73.8512 60.8004 73.8699H33.4562C33.3558 73.5943 33.2069 73.3389 33.0166 73.1158L41.3549 58.7042C41.9287 58.8175 42.5241 58.7171 43.029 58.4218L60.8295 73.8116ZM42.2342 53.7984C41.6604 53.6848 41.0649 53.7853 40.5601 54.0808L33.4271 47.9144C33.4386 47.8959 33.4483 47.8765 33.4562 47.8562H44.7875C44.8865 48.1182 45.0321 48.3657 45.2271 48.5928L42.2342 53.7984ZM39.4683 55.359C39.3535 55.6428 39.2961 55.9466 39.2994 56.2528C39.2994 56.8642 39.4974 57.397 39.8963 57.8541L31.951 71.5553V49.3585C32.0789 49.313 32.2026 49.2565 32.3207 49.1896L39.4683 55.3619V55.359ZM29.3423 48.7646C29.5984 49.0269 29.9083 49.2305 30.2507 49.3614V71.5407L17.0037 48.6073C17.1992 48.3864 17.3531 48.1319 17.4579 47.8562H28.7455C28.8764 48.1986 29.08 48.5085 29.3423 48.7646Z" fill="white"/>
</g>
<defs>
<clipPath id="clip0_342_6528">
<rect width="93.1659" height="93.1659" fill="white" transform="translate(0.543457 0.394531)"/>
</clipPath>
</defs>
</svg>
