<svg width="94" height="94" viewBox="0 0 94 94" fill="none" xmlns="http://www.w3.org/2000/svg">
<g clip-path="url(#clip0_342_6532)">
<path d="M46.6406 93.5604C72.3676 93.5604 93.2235 72.7045 93.2235 46.9775C93.2235 21.2504 72.3676 0.394531 46.6406 0.394531C20.9135 0.394531 0.0576172 21.2504 0.0576172 46.9775C0.0576172 72.7045 20.9135 93.5604 46.6406 93.5604Z" fill="#F4C257"/>
<path d="M24.4991 63.104L21.116 61.1388V31.5033L26.5662 28.3356L29.9493 30.2979L24.4991 33.4685V43.7691L38.2818 51.7814V55.5925L24.4991 47.5831V63.1011V63.104ZM72.1156 57.2083V61.1388L46.6172 75.958L41.167 72.7874V68.857L46.6172 72.0246L55.4825 66.8743V50.8556L58.7608 48.9486V64.9702L72.1156 57.2083ZM78.6168 46.3196V45.6499L65.4571 53.3012V49.4872L78.6168 41.8389V27.7242L46.6114 9.12891L30.6131 18.428L30.0366 18.7628L43.1963 26.4112L39.918 28.3153L26.7583 20.6669L14.6147 27.7242V64.9149L30.6131 74.214L31.1924 74.5488V59.2521L34.4707 61.1562V76.4558L46.6172 83.5102L78.6168 64.9149V46.3196ZM62.0362 39.2622L48.7892 46.9659V62.9846L46.6172 64.2453L44.9781 63.2932V47.8917L31.1924 39.8795V37.3582L32.8316 36.4032L46.0844 44.104L59.8701 36.0975L62.0391 37.3582V39.2652L62.0362 39.2622ZM43.2341 18.6493L46.6143 16.687L72.1126 31.5062V37.8386L68.7354 39.8009V33.4656L59.8642 28.3153L46.0815 36.3246L42.8003 34.4205L56.586 26.4083L43.2341 18.6493Z" fill="white"/>
</g>
<defs>
<clipPath id="clip0_342_6532">
<rect width="93.1659" height="93.1659" fill="white" transform="translate(0.0576172 0.394531)"/>
</clipPath>
</defs>
</svg>
