<svg width="94" height="94" viewBox="0 0 94 94" fill="none" xmlns="http://www.w3.org/2000/svg">
<g clip-path="url(#clip0_342_6536)">
<path d="M47.1557 93.5604C72.8827 93.5604 93.7386 72.7045 93.7386 46.9775C93.7386 21.2504 72.8827 0.394531 47.1557 0.394531C21.4286 0.394531 0.572754 21.2504 0.572754 46.9775C0.572754 72.7045 21.4286 93.5604 47.1557 93.5604Z" fill="#434247"/>
<path d="M47.1561 12.04C37.9585 12.04 29.1376 15.6938 22.634 22.1974C16.1303 28.7011 12.4766 37.522 12.4766 46.7196C12.4766 55.9172 16.1303 64.738 22.634 71.2417C29.1376 77.7454 37.9585 81.3991 47.1561 81.3991C66.3104 81.3991 81.8342 65.8724 81.8342 46.7181C81.8342 27.5667 66.3133 12.04 47.1561 12.04ZM47.1561 79.9958C28.7617 79.9958 13.8493 65.0834 13.8493 46.689C13.8493 28.3004 28.7646 13.388 47.1561 13.388C65.5476 13.388 80.4629 28.3004 80.4629 46.6948C80.4629 65.0864 65.5505 79.9987 47.1561 79.9987" fill="white"/>
<path d="M50.9646 50.1267H59.7571V63.1001C59.7571 64.3869 58.4382 65.074 57.1805 65.7349C55.949 66.3929 53.943 66.2502 50.5628 66.2502H46.4402C40.1108 66.3929 38.3348 65.9067 36.8179 65.2458C35.3011 64.5587 34.5266 63.5863 34.5266 62.3256V50.1267H29.9731V63.8716C29.9731 64.6169 30.3458 65.4758 30.9194 66.2502C31.5773 67.1382 31.4929 67.3944 32.9224 68.1106C34.2122 68.7686 35.502 69.2839 37.8195 69.5722C39.6245 69.7993 39.3101 69.7439 42.5185 69.7993H50.1348C55.8616 69.6857 57.0349 70.0875 60.4413 68.3698C63.2217 66.9926 64.1679 65.3914 64.3659 64.3578V45.6606H50.9937V50.1267H50.9646ZM39.1092 23.6647C36.7888 23.8103 34.8702 24.5265 33.3824 25.0971C31.8656 25.6707 31.5482 26.3578 30.9194 27.1031C30.3371 27.7785 30.011 28.6432 30.0023 29.5371V44.7726H34.5849V30.9928C34.5849 29.8195 35.3011 28.8762 36.7044 28.1891C38.1368 27.4728 40.2272 27.1293 42.175 27.1293H51.1072C54.5136 27.1293 56.3478 27.0711 57.4076 27.6999C58.4965 28.387 59.7862 28.9897 59.7862 30.2795V33.9158H64.3659V29.0217C64.2815 28.3899 63.5944 26.5878 60.3569 25.068C57.4367 23.6938 56.4934 23.6094 51.9108 23.6094" fill="white"/>
</g>
<defs>
<clipPath id="clip0_342_6536">
<rect width="93.1659" height="93.1659" fill="white" transform="translate(0.571777 0.394531)"/>
</clipPath>
</defs>
</svg>
