<svg width="94" height="94" viewBox="0 0 94 94" fill="none" xmlns="http://www.w3.org/2000/svg">
<g clip-path="url(#clip0_342_6542)">
<path d="M46.6674 93.5604C72.3945 93.5604 93.2503 72.7045 93.2503 46.9775C93.2503 21.2504 72.3945 0.394531 46.6674 0.394531C20.9404 0.394531 0.0844727 21.2504 0.0844727 46.9775C0.0844727 72.7045 20.9404 93.5604 46.6674 93.5604Z" fill="#2AB8E6"/>
<path d="M31.9937 17.8633H61.341L64.1359 20.7543V73.2009L61.341 76.0919H31.9937L29.1987 73.2009V20.7543L31.9937 17.8633ZM34.7887 70.3069H58.546V23.6483H34.7887V70.3069ZM55.5589 55.2548H49.4827V61.8434H43.9975V55.2577H37.9214V49.5833H55.5589V55.2548ZM55.5589 39.0032V44.6747H37.9214V39.0032H43.9975V32.4146H49.4827V39.0032H55.5589Z" fill="white"/>
</g>
<defs>
<clipPath id="clip0_342_6542">
<rect width="93.1659" height="93.1659" fill="white" transform="translate(0.0854492 0.394531)"/>
</clipPath>
</defs>
</svg>
