<svg width="94" height="94" viewBox="0 0 94 94" fill="none" xmlns="http://www.w3.org/2000/svg">
<g clip-path="url(#clip0_342_6546)">
<path d="M47.1825 93.5604C72.9096 93.5604 93.7655 72.7045 93.7655 46.9775C93.7655 21.2504 72.9096 0.394531 47.1825 0.394531C21.4555 0.394531 0.599609 21.2504 0.599609 46.9775C0.599609 72.7045 21.4555 93.5604 47.1825 93.5604Z" fill="#49BF87"/>
<path d="M22.0947 26.2385L19.2331 29.4663L30.5652 32.4797L34.8816 43.2818L37.7529 40.043L33.713 28.9287L22.0947 26.2385Z" fill="white"/>
<path d="M39.1777 24.34L36.3161 27.5679L47.6482 30.5812L51.9646 41.3834L54.8359 38.1446L50.796 27.0303L39.1777 24.34Z" fill="white"/>
<path d="M55.3115 22.4416L52.4499 25.6694L63.782 28.6828L68.0984 39.4849L70.9697 36.2461L66.9298 25.1319L55.3115 22.4416Z" fill="white"/>
<path d="M55.3115 38.5754L52.4499 41.8032L63.782 44.8166L68.0984 55.6187L70.9697 52.3799L66.9298 41.2657L55.3115 38.5754Z" fill="white"/>
<path d="M55.3115 58.506L52.4499 61.7339L63.782 64.7473L68.0984 75.5494L70.9697 72.3106L66.9298 61.1963L55.3115 58.506Z" fill="white"/>
</g>
<defs>
<clipPath id="clip0_342_6546">
<rect width="93.1659" height="93.1659" fill="white" transform="translate(0.599609 0.394531)"/>
</clipPath>
</defs>
</svg>
