<svg width="94" height="94" viewBox="0 0 94 94" fill="none" xmlns="http://www.w3.org/2000/svg">
<g clip-path="url(#clip0_342_6555)">
<path d="M46.6972 93.5604C72.4242 93.5604 93.2801 72.7045 93.2801 46.9775C93.2801 21.2504 72.4242 0.394531 46.6972 0.394531C20.9701 0.394531 0.114258 21.2504 0.114258 46.9775C0.114258 72.7045 20.9701 93.5604 46.6972 93.5604Z" fill="#EF494D"/>
<path fill-rule="evenodd" clip-rule="evenodd" d="M17.5825 33.5437C17.5825 32.9236 18.0862 32.4199 18.7092 32.4199H33.3363C40.085 32.4199 44.3066 35.902 44.3066 40.8194C44.3066 42.872 43.3691 44.7382 41.4941 46.4181C44.1173 47.9117 45.4304 50.1505 45.4304 53.1348C45.4304 60.1368 38.6788 61.5343 34.1777 61.5343H18.7063C18.4083 61.5343 18.1224 61.4159 17.9117 61.2051C17.7009 60.9943 17.5825 60.7085 17.5825 60.4104V57.0623C17.5825 56.4392 18.0862 55.9356 18.7063 55.9356H34.1777C37.3657 55.9356 38.9612 54.9078 38.9612 52.8553C38.9612 50.8027 37.3657 49.6818 34.1777 49.4955H18.7063C18.4088 49.4955 18.1234 49.3775 17.9127 49.1673C17.702 48.9572 17.5833 48.6721 17.5825 48.3746V45.0264C17.5825 44.4034 18.0862 43.8997 18.7063 43.8997H34.1777C36.4282 43.527 37.555 42.5954 37.555 41.1018C37.555 39.0493 36.4282 38.0215 34.1777 38.0215H18.7063C18.5585 38.0215 18.4121 37.9924 18.2756 37.9357C18.1391 37.879 18.015 37.796 17.9107 37.6913C17.8063 37.5867 17.7235 37.4624 17.6672 37.3258C17.6109 37.1891 17.5821 37.0426 17.5825 36.8948V33.5466V33.5437ZM47.9633 33.5437C47.9633 32.9236 48.467 32.4199 49.0871 32.4199H63.9966C64.6167 32.4199 65.1233 32.9236 65.1233 33.5437V60.4104C65.1233 60.5583 65.0942 60.7046 65.0375 60.8412C64.9808 60.9777 64.8978 61.1017 64.7931 61.2061C64.6885 61.3105 64.5642 61.3932 64.4276 61.4495C64.2909 61.5059 64.1444 61.5346 63.9966 61.5343H59.775C59.477 61.5343 59.1911 61.4159 58.9804 61.2051C58.7696 60.9943 58.6512 60.7085 58.6512 60.4104V39.1453C58.6516 38.9975 58.6228 38.8511 58.5665 38.7144C58.5102 38.5777 58.4275 38.4535 58.3231 38.3488C58.2187 38.2441 58.0947 38.1611 57.9581 38.1044C57.8216 38.0478 57.6752 38.0186 57.5274 38.0186H49.0842C48.7862 38.0186 48.5003 37.9002 48.2896 37.6895C48.0788 37.4787 47.9604 37.1928 47.9604 36.8948L47.9633 33.5437ZM69.0567 32.4199H74.6845C75.3046 32.4199 75.8083 32.9236 75.8083 33.5437V36.8919C75.8087 37.0397 75.7799 37.1862 75.7236 37.3228C75.6673 37.4595 75.5846 37.5838 75.4802 37.6884C75.3758 37.7931 75.2517 37.8761 75.1152 37.9328C74.9787 37.9894 74.8323 38.0186 74.6845 38.0186H69.0567C68.7586 38.0186 68.4728 37.9002 68.262 37.6895C68.0513 37.4787 67.9329 37.1928 67.9329 36.8948V33.5466C67.9329 32.9236 68.4365 32.4199 69.0567 32.4199Z" fill="white"/>
</g>
<defs>
<clipPath id="clip0_342_6555">
<rect width="93.1659" height="93.1659" fill="white" transform="translate(0.113281 0.394531)"/>
</clipPath>
</defs>
</svg>
