<svg width="94" height="94" viewBox="0 0 94 94" fill="none" xmlns="http://www.w3.org/2000/svg">
<g clip-path="url(#clip0_342_6559)">
<path d="M47.2094 93.5604C72.9364 93.5604 93.7923 72.7045 93.7923 46.9775C93.7923 21.2504 72.9364 0.394531 47.2094 0.394531C21.4824 0.394531 0.626465 21.2504 0.626465 46.9775C0.626465 72.7045 21.4824 93.5604 47.2094 93.5604Z" fill="#24DD7B"/>
<path d="M38.7433 23.4329L51.5623 17.8633L51.4575 32.5748H67.5898V42.7648H51.3498V60.4168C51.3498 65.7738 60.4335 66.4056 63.8515 64.6209L66.9493 73.8676C59.3621 78.2784 38.6356 77.2274 38.6356 60.5216V23.4299H38.7433V23.4329ZM26.7773 45.4957C23.5893 45.4957 21.0068 42.3921 21.0068 38.5636C21.0068 34.7321 23.5893 31.6285 26.7773 31.6285C29.9624 31.6285 32.5448 34.7321 32.5448 38.5636C32.5448 42.3921 29.9624 45.4957 26.7773 45.4957Z" fill="white"/>
</g>
<defs>
<clipPath id="clip0_342_6559">
<rect width="93.1659" height="93.1659" fill="white" transform="translate(0.627441 0.394531)"/>
</clipPath>
</defs>
</svg>
