<svg width="94" height="94" viewBox="0 0 94 94" fill="none" xmlns="http://www.w3.org/2000/svg">
<g clip-path="url(#clip0_342_6563)">
<path d="M46.7245 93.5604C72.4516 93.5604 93.3075 72.7045 93.3075 46.9775C93.3075 21.2504 72.4516 0.394531 46.7245 0.394531C20.9975 0.394531 0.141602 21.2504 0.141602 46.9775C0.141602 72.7045 20.9975 93.5604 46.7245 93.5604Z" fill="#895AF8"/>
<path fill-rule="evenodd" clip-rule="evenodd" d="M51.8777 41.8823C52.3431 41.8543 52.8098 41.8543 53.2752 41.8823C57.5841 42.1734 59.5639 48.0254 62.3006 47.7051C59.7357 49.8019 56.7606 51.3391 53.5663 52.2179C52.2384 52.4116 50.8843 52.1408 49.733 51.4511C48.5818 50.7614 47.7042 49.6953 47.2485 48.433V60.0787L64.1931 50.4128V35.3315L51.8777 41.8823ZM43.4637 41.8532C42.8213 41.3208 42.2977 40.6597 41.9266 39.9125C41.5555 39.1653 41.3452 38.3486 41.3092 37.5151V37.2822C41.3092 33.9049 46.7536 28.5479 46.9283 28.5479C47.1029 28.7226 52.5473 33.9341 52.5473 37.2822V37.5442C52.4954 39.0395 51.8698 40.4574 50.8005 41.5038L64.1931 34.3125L46.7245 25.7529L29.2559 34.2252L43.4637 41.8532ZM46.3169 48.5495C45.8665 49.8172 44.991 50.8898 43.8393 51.5851C42.6876 52.2804 41.3306 52.5554 39.999 52.3634C36.8048 51.4846 33.8297 49.9475 31.2647 47.8507C34.0015 48.0545 35.9522 42.1734 40.2902 42.0278C40.7556 41.9999 41.2223 41.9999 41.6877 42.0278L29.2559 35.3315V50.4419L46.346 60.3116L46.3169 48.5495Z" fill="white"/>
<path d="M46.7243 12.04C27.4302 12.04 11.7871 27.6832 11.7871 46.9772C11.7871 66.2713 27.4302 81.9144 46.7243 81.9144C66.0184 81.9144 81.6615 66.2713 81.6615 46.9772C81.6615 37.7113 77.9806 28.8249 71.4286 22.2729C64.8766 15.7209 55.9902 12.04 46.7243 12.04ZM27.2177 32.9732L46.7243 23.5111L66.26 32.9732V51.5773L46.7243 62.8446L27.2177 51.5773V32.9732ZM66.3183 59.1761L46.8699 70.4143L27.1886 59.0597V57.9825L46.8699 69.3371L66.3183 58.0989V59.1761ZM66.3183 56.9926L46.8699 68.2307L27.1886 56.8761V55.7115L46.8699 67.0952L66.3183 55.8571V56.9926ZM66.3183 54.809L46.8699 66.0471L27.1886 54.6925V53.6153L46.8699 64.999L66.3183 53.7609V54.809Z" fill="white"/>
</g>
<defs>
<clipPath id="clip0_342_6563">
<rect width="93.1659" height="93.1659" fill="white" transform="translate(0.141602 0.394531)"/>
</clipPath>
</defs>
</svg>
