<svg width="94" height="94" viewBox="0 0 94 94" fill="none" xmlns="http://www.w3.org/2000/svg">
<g clip-path="url(#clip0_342_6569)">
<path d="M47.2392 93.5604C72.9662 93.5604 93.8221 72.7045 93.8221 46.9775C93.8221 21.2504 72.9662 0.394531 47.2392 0.394531C21.5121 0.394531 0.65625 21.2504 0.65625 46.9775C0.65625 72.7045 21.5121 93.5604 47.2392 93.5604Z" fill="#FFC04E"/>
<path d="M46.0688 34.9154H46.0775L45.9901 35.2938L45.2332 38.8662H45.1458L40.1585 60.0789H33.8145L38.9008 38.8662H30.3645L25.5723 60.0789H18.5965L24.9376 33.876H46.2871L46.0688 34.9154ZM58.125 33.876H68.6935C77.7859 34.2923 76.9387 40.3219 76.9387 40.3219H79.2649L78.4206 42.817H76.304C75.6722 45.1054 71.4419 46.3544 71.4419 46.3544C76.304 46.9774 76.0944 50.7215 76.0944 50.7215H78.4206L77.7859 53.2166H75.8818C75.3956 56.6812 72.3241 58.364 69.7998 59.1647C68.2733 59.6412 66.6825 59.8799 65.0833 59.8722H51.781L58.125 33.876ZM21.9766 38.8662H15.2134L16.4828 33.876H23.246L21.9766 38.8662ZM50.9396 57.1674L45.4428 44.2727L47.769 34.2923L53.2629 46.5611L50.9396 57.1674ZM67.1097 44.2727C67.8667 44.2727 68.5945 43.9816 69.1273 43.4517C69.6601 42.9218 69.9629 42.2114 69.9629 41.4661C69.9629 40.7208 69.663 40.0075 69.1273 39.4805C68.5916 38.9535 67.8667 38.6595 67.1097 38.6595H62.99L61.7235 44.2727H67.1097ZM65.686 55.0887C67.5813 55.0887 69.1186 53.6446 69.1186 51.8657C69.1186 50.0839 67.5901 48.6399 65.686 48.6399H60.7307L59.2051 55.0887H65.686Z" fill="white"/>
</g>
<defs>
<clipPath id="clip0_342_6569">
<rect width="93.1659" height="93.1659" fill="white" transform="translate(0.655273 0.394531)"/>
</clipPath>
</defs>
</svg>
