<svg width="94" height="94" viewBox="0 0 94 94" fill="none" xmlns="http://www.w3.org/2000/svg">
<g clip-path="url(#clip0_342_6573)">
<path d="M46.7519 93.5604C72.4789 93.5604 93.3348 72.7045 93.3348 46.9775C93.3348 21.2504 72.4789 0.394531 46.7519 0.394531C21.0248 0.394531 0.168945 21.2504 0.168945 46.9775C0.168945 72.7045 21.0248 93.5604 46.7519 93.5604Z" fill="#FF439B"/>
<path fill-rule="evenodd" clip-rule="evenodd" d="M53.2329 40.5835L69.633 68.8127H24.1739L29.6212 59.7785L54.1121 59.7844L47.905 49.6526L53.2329 40.5835ZM36.4921 47.1517L53.1659 19.4348L75.8664 57.6532H64.966L52.9709 36.8073L47.1451 47.1546L36.4921 47.1517ZM50.7145 57.6881L17.6377 57.5309L40.3673 19.3184L45.7825 28.4777L33.2546 48.619H45.3866L50.7145 57.6881Z" fill="white"/>
</g>
<defs>
<clipPath id="clip0_342_6573">
<rect width="93.1659" height="93.1659" fill="white" transform="translate(0.169922 0.394531)"/>
</clipPath>
</defs>
</svg>
