<svg width="94" height="94" viewBox="0 0 94 94" fill="none" xmlns="http://www.w3.org/2000/svg">
<g clip-path="url(#clip0_342_6577)">
<path d="M47.2665 93.5604C72.9936 93.5604 93.8495 72.7045 93.8495 46.9775C93.8495 21.2504 72.9936 0.394531 47.2665 0.394531C21.5395 0.394531 0.683594 21.2504 0.683594 46.9775C0.683594 72.7045 21.5395 93.5604 47.2665 93.5604Z" fill="#FF4081"/>
<path d="M41.1236 62.9982L41.5836 73.1795C41.5836 73.1795 47.0425 72.2537 52.7285 73.1795L53.1827 62.9982H41.1236ZM34.5321 55.1286C34.5321 55.1286 50.4547 53.7398 59.78 55.1286L60.6884 44.0215C51.8315 43.3347 42.9348 43.3347 34.0779 44.0215L34.5321 55.1286ZM76.381 26.4335C76.381 26.4335 45.9012 19.9527 18.1523 26.8964L20.1991 39.6223L22.7029 34.7631C22.7029 34.7631 48.8592 30.8298 72.2846 34.7631L74.5614 39.6252L76.381 26.4335Z" fill="white"/>
</g>
<defs>
<clipPath id="clip0_342_6577">
<rect width="93.1659" height="93.1659" fill="white" transform="translate(0.683594 0.394531)"/>
</clipPath>
</defs>
</svg>
