<svg width="94" height="94" viewBox="0 0 94 94" fill="none" xmlns="http://www.w3.org/2000/svg">
<g clip-path="url(#clip0_342_6581)">
<path d="M46.7812 93.5604C72.5082 93.5604 93.3641 72.7045 93.3641 46.9775C93.3641 21.2504 72.5082 0.394531 46.7812 0.394531C21.0541 0.394531 0.198242 21.2504 0.198242 46.9775C0.198242 72.7045 21.0541 93.5604 46.7812 93.5604Z" fill="#1A1F36"/>
<path d="M54.1324 42.506C54.5441 42.5069 54.9402 42.3487 55.2379 42.0644C55.5356 41.7801 55.7119 41.3918 55.73 40.9805C55.748 40.5692 55.6064 40.1669 55.3347 39.8576C55.063 39.5483 54.6823 39.356 54.2722 39.3209H43.0923V36.5259C42.9828 36.1393 42.7501 35.799 42.4295 35.5566C42.109 35.3143 41.7181 35.1831 41.3163 35.1831C40.9145 35.1831 40.5236 35.3143 40.2031 35.5566C39.8825 35.799 39.6498 36.1393 39.5403 36.5259V39.3209H36.5503C36.1279 39.3209 35.7228 39.4887 35.4242 39.7874C35.1255 40.086 34.9577 40.4911 34.9577 40.9135C34.9577 41.3358 35.1255 41.7409 35.4242 42.0396C35.7228 42.3382 36.1279 42.506 36.5503 42.506H39.5432V52.2302C39.557 54.677 40.5367 57.0192 42.269 58.7472C44.0014 60.4751 46.3461 61.4489 48.7929 61.4565C50.8329 61.4255 52.8027 60.7063 54.3828 59.4156L55.0524 58.8566C55.2679 58.7056 55.4491 58.5108 55.5843 58.285C55.7194 58.0592 55.8054 57.8074 55.8367 57.5461C55.8679 57.2849 55.8438 57.0199 55.7658 56.7686C55.6877 56.5173 55.5576 56.2852 55.3838 56.0876C55.2101 55.89 54.9966 55.7312 54.7574 55.6216C54.5181 55.5121 54.2585 55.4542 53.9953 55.4517C53.7322 55.4493 53.4715 55.5023 53.2302 55.6074C52.989 55.7125 52.7726 55.8673 52.5952 56.0617L52.0915 56.4809C51.2912 57.1434 50.3159 57.5593 49.2838 57.6782C48.2517 57.7971 47.2073 57.6137 46.2774 57.1505C45.3263 56.6973 44.5227 55.9846 43.9592 55.0944C43.3957 54.2043 43.0952 53.1731 43.0923 52.1196V42.506H54.1324ZM72.2998 53.3511C72.3368 53.171 72.3378 52.9854 72.3029 52.8049C72.2681 52.6244 72.1979 52.4525 72.0965 52.2991C71.995 52.1458 71.8644 52.014 71.7119 51.9112C71.5594 51.8084 71.3882 51.7368 71.208 51.7003H70.5092C70.1985 51.6991 69.8966 51.8036 69.6532 51.9968C69.4098 52.1899 69.2394 52.4601 69.17 52.763C68.4917 55.73 67.1997 58.5222 65.3771 60.9597C63.5544 63.3972 61.2416 65.4261 58.5875 66.9157C55.9334 68.4054 52.9967 69.3228 49.9666 69.6088C46.9365 69.8949 43.88 69.5434 40.994 68.5768C38.108 67.6102 35.4563 66.0501 33.2097 63.9967C30.9631 61.9434 29.1713 59.4424 27.9497 56.6547C26.7281 53.8671 26.1038 50.8545 26.1168 47.8109C26.1299 44.7674 26.7801 41.7603 28.0256 38.9832C29.0275 36.5646 30.496 34.3672 32.3474 32.5163C34.1987 30.6655 36.3966 29.1975 38.8154 28.1963C43.5343 26.0895 48.845 25.7137 53.8136 27.1349C58.7823 28.5561 63.0909 31.6834 65.982 35.9669C66.1866 36.2655 66.4992 36.4731 66.8538 36.5459C67.2084 36.6186 67.5774 36.5509 67.8831 36.3571L68.1335 36.1882C68.4693 35.976 68.7078 35.6398 68.7972 35.2528C68.8866 34.8658 68.8197 34.4591 68.611 34.1211C65.4572 29.4789 60.8416 26.0247 55.4984 24.308C50.1552 22.5913 44.3915 22.7108 39.124 24.6473C35.7824 25.7957 32.7415 27.6802 30.2259 30.1615C27.7103 32.6429 25.7843 35.6576 24.5901 38.9832C23.3491 42.1935 22.7847 45.6256 22.9323 49.0642C23.0799 52.5029 23.9364 55.874 25.448 58.9661C26.9597 62.0582 29.0938 64.8047 31.7167 67.0333C34.3396 69.2619 37.3946 70.9246 40.6903 71.9171C43.9859 72.9095 47.451 73.2104 50.8684 72.8009C54.2858 72.3913 57.5817 71.2801 60.5495 69.537C63.5173 67.7939 66.0929 65.4564 68.1149 62.6711C70.1369 59.8858 71.5616 56.7128 72.2998 53.3511ZM49.3257 14.8066H46.5307C41.4804 15.0188 36.5446 16.3774 32.0972 18.7795C27.6497 21.1816 23.8071 24.5642 20.8604 28.6712C17.9137 32.7782 15.9401 37.5018 15.0892 42.4844C14.2383 47.467 14.5323 52.5779 15.949 57.43C16.0714 57.8342 16.3493 58.1733 16.7217 58.3726C17.0941 58.5718 17.5304 58.6151 17.9346 58.4927H18.1588C18.4967 58.3295 18.7661 58.0522 18.9195 57.7096C19.0729 57.3671 19.1005 56.9815 18.9973 56.6206C17.1455 50.2784 17.4297 43.5034 19.8062 37.3385C22.1826 31.1737 26.5195 25.9609 32.1492 22.5026C37.7789 19.0444 44.3892 17.5324 50.9625 18.1996C57.5357 18.8667 63.7075 21.6759 68.5275 26.1947C73.3476 30.7136 76.5487 36.6914 77.6381 43.208C78.7275 49.7246 77.6447 56.4186 74.5565 62.2595C71.4683 68.1003 66.5458 72.7642 60.547 75.533C54.5481 78.3018 47.8054 79.0221 41.3571 77.583C41.0781 77.5238 40.7881 77.5448 40.5206 77.6438C40.2532 77.7427 40.0193 77.9155 39.846 78.142C39.6731 78.3576 39.5581 78.6138 39.512 78.8864C39.4659 79.1589 39.4903 79.4387 39.5828 79.6992C39.6752 79.9597 39.8327 80.1922 40.0403 80.3747C40.248 80.5572 40.4988 80.6836 40.769 80.7419C45.2127 81.556 49.7757 81.4572 54.1801 80.4513C58.5844 79.4454 62.7379 77.5536 66.3877 74.891C70.0374 72.2284 73.107 68.8508 75.4095 64.9638C77.7121 61.0769 79.1993 56.7619 79.7807 52.2818C80.3621 47.8016 80.0256 43.2499 78.7915 38.904C77.5574 34.5581 75.4516 30.5089 72.6023 27.0029C69.7531 23.4969 66.2201 20.6075 62.2184 18.5108C58.2167 16.414 53.8301 15.1537 49.3257 14.8066Z" fill="white"/>
</g>
<defs>
<clipPath id="clip0_342_6581">
<rect width="93.1659" height="93.1659" fill="white" transform="translate(0.197266 0.394531)"/>
</clipPath>
</defs>
</svg>
