<svg width="94" height="94" viewBox="0 0 94 94" fill="none" xmlns="http://www.w3.org/2000/svg">
<g clip-path="url(#clip0_342_6585)">
<path d="M47.2944 93.5604C73.0214 93.5604 93.8773 72.7045 93.8773 46.9775C93.8773 21.2504 73.0214 0.394531 47.2944 0.394531C21.5673 0.394531 0.711426 21.2504 0.711426 46.9775C0.711426 72.7045 21.5673 93.5604 47.2944 93.5604Z" fill="#3058A6"/>
<path d="M47.2801 79.668C29.2351 79.668 14.6051 65.0381 14.6051 46.993C14.6051 28.948 29.2351 14.318 47.2801 14.318C65.3252 14.318 79.9551 28.948 79.9551 46.993C79.9551 65.0381 65.3252 79.668 47.2801 79.668ZM47.2801 12.2363C28.1142 12.2363 12.5234 27.8271 12.5234 46.993C12.5234 66.159 28.1142 81.7497 47.2801 81.7497C66.4461 81.7497 82.0368 66.159 82.0368 46.993C82.0368 27.8271 66.4461 12.2363 47.2801 12.2363Z" fill="white"/>
<path fill-rule="evenodd" clip-rule="evenodd" d="M59.5195 59.4254L57.7057 67.2833L57.269 69.1845H55.3183L45.2884 69.1787H45.2477C41.227 69.1117 38.071 68.0432 36.001 66.1566C37.7886 69.3097 41.5851 71.1352 46.8839 71.2225H46.9247L56.9516 71.2283H58.9023L59.3419 69.3272L61.1558 61.4692L59.7408 58.4675L59.5195 59.4254ZM56.3664 25.7372L54.934 22.7588L54.7302 23.6904L53.3706 29.8831H55.4552L56.3664 25.7372ZM63.6072 32.9022L61.8021 40.5447L61.3537 42.4313H50.4854L47.7253 55.032C47.6671 55.393 47.6321 55.7599 47.6321 55.9637C47.6321 56.1413 47.6525 56.2548 47.67 56.3101C47.8774 56.3879 48.0978 56.4254 48.3192 56.4208H49.5071L52.1216 44.4781H62.99L63.4354 42.5886L65.2405 34.946L63.8372 31.9298L63.6043 32.9022H63.6072ZM36.6415 42.4313H29.0688L31.6775 44.4781H36.196L36.6415 42.4313Z" fill="white"/>
<path fill-rule="evenodd" clip-rule="evenodd" d="M48.5582 58.8748H48.2816C46.1738 58.8194 45.178 57.7218 45.178 55.9633C45.178 55.5441 45.2479 54.988 45.3178 54.5716L48.5145 39.9795H59.415L61.22 32.337H50.3196L52.3344 23.166H43.4428L41.4252 32.337H31.7767L30.0415 39.9795H39.69L35.9342 57.1424C35.7304 57.9751 35.6577 58.9475 35.6577 59.4337C35.6577 64.3308 39.5211 66.6308 45.2887 66.7269L55.3157 66.7298L57.1295 58.8748H48.5582Z" fill="white"/>
</g>
<defs>
<clipPath id="clip0_342_6585">
<rect width="93.1659" height="93.1659" fill="white" transform="translate(0.711426 0.394531)"/>
</clipPath>
</defs>
</svg>
