<svg width="94" height="94" viewBox="0 0 94 94" fill="none" xmlns="http://www.w3.org/2000/svg">
<g clip-path="url(#clip0_342_6592)">
<path d="M46.8085 93.5604C72.5356 93.5604 93.3915 72.7045 93.3915 46.9775C93.3915 21.2504 72.5356 0.394531 46.8085 0.394531C21.0815 0.394531 0.225586 21.2504 0.225586 46.9775C0.225586 72.7045 21.0815 93.5604 46.8085 93.5604Z" fill="#30C0F2"/>
<path d="M29.6979 20.7744H63.9771C63.9771 20.7744 64.8855 25.2988 69.7418 25.6016C69.7418 25.6016 85.8187 63.0135 46.6861 79.0031C46.6861 79.0031 10.5873 67.5379 23.3277 25.9044C23.3277 25.9044 28.7896 25.6016 29.6979 20.7744ZM62.1604 23.7528H31.5321L31.4914 24.405C31.2352 25.8287 30.5219 26.8215 29.4766 27.4911C28.8289 27.8995 28.103 28.1682 27.3455 28.2801L26.8098 28.3325L26.6584 28.8507C23.8372 38.4876 23.7411 46.8143 25.9625 53.9182C27.7851 59.741 31.0838 64.5158 35.4305 68.3298C37.7246 70.3415 40.263 72.0562 42.9857 73.4335C43.8882 73.8906 44.7326 74.2662 45.4866 74.569C45.9437 74.7524 46.2785 74.8718 46.462 74.9329L46.7473 75.0202L47.0239 74.9038C57.8136 70.2921 64.3411 63.3221 67.2641 54.6402C69.6806 47.4781 69.4652 39.853 67.663 32.6327C67.3165 31.2475 66.8987 29.8812 66.4111 28.5392C66.3718 28.4329 66.331 28.3271 66.2888 28.2219L66.1025 27.7619L65.6046 27.7298C64.1897 27.6367 63.29 27.0602 62.734 26.1344C62.4379 25.6366 62.2541 25.0801 62.1953 24.504L62.1604 23.7528ZM32.9151 25.3395C51.4521 25.3425 60.7192 25.3454 60.7192 25.3483C60.8473 25.8927 61.0541 26.4342 61.3598 26.9496C62.1051 28.1869 63.3017 29.0225 64.9787 29.2612C65.4186 30.4938 65.7976 31.7472 66.1141 33.017C67.8493 39.9695 68.0531 47.3005 65.7502 54.1365C62.9989 62.3089 56.882 68.8888 46.6774 73.3229C45.6655 72.9414 44.6751 72.505 43.7106 72.0156C41.1079 70.7006 38.6811 69.0631 36.4874 67.1419C32.3502 63.5084 29.2175 58.9782 27.4881 53.4494C25.3977 46.7677 25.453 38.9126 28.053 29.7678C28.8621 29.583 29.6345 29.2642 30.3384 28.8245C31.6076 28.0311 32.5285 26.7856 32.9151 25.3395ZM54.3432 41.5912H53.461C53.5484 39.821 53.1553 35.9663 48.366 34.8949C46.9745 34.5622 45.5173 34.6288 44.1619 35.087C42.2928 35.7508 40.0626 37.4191 39.9782 41.5912H39.3289C38.6674 41.5912 38.0327 41.8529 37.5636 42.3194C37.0944 42.7858 36.829 43.4189 36.8251 44.0804V54.4888C36.829 55.1503 37.0944 55.7835 37.5636 56.2499C38.0327 56.7163 38.6674 56.9781 39.3289 56.9781H54.3461C55.0077 56.9781 55.6423 56.7163 56.1115 56.2499C56.5806 55.7835 56.8461 55.1503 56.8499 54.4888V44.0804C56.8461 43.4189 56.5806 42.7858 56.1115 42.3194C55.6423 41.8529 55.0077 41.5912 54.3461 41.5912H54.3432ZM48.5058 53.3592H45.1693L46.0514 48.9716C45.6366 48.7928 45.2962 48.476 45.0881 48.0751C44.88 47.6741 44.8168 47.2135 44.9093 46.7712C45.0018 46.329 45.2442 45.9323 45.5956 45.6484C45.947 45.3644 46.3857 45.2106 46.8375 45.213C47.1043 45.098 47.3932 45.0437 47.6835 45.0541C47.9738 45.0646 48.2582 45.1394 48.516 45.2732C48.7738 45.407 48.9986 45.5965 49.1742 45.8279C49.3498 46.0593 49.4717 46.3268 49.5312 46.6112C49.5906 46.8955 49.5861 47.1895 49.518 47.4718C49.4499 47.7542 49.3198 48.0179 49.1372 48.2438C48.9547 48.4698 48.7241 48.6523 48.4624 48.7781C48.2006 48.904 47.9141 48.9701 47.6236 48.9716L48.5058 53.3592ZM42.1356 41.5912C42.2171 40.2286 42.7935 37.0027 46.3833 36.764C46.3833 36.764 51.1173 36.5049 51.0329 41.5912H42.1356Z" fill="white"/>
</g>
<defs>
<clipPath id="clip0_342_6592">
<rect width="93.1659" height="93.1659" fill="white" transform="translate(0.225586 0.394531)"/>
</clipPath>
</defs>
</svg>
