<svg width="94" height="94" viewBox="0 0 94 94" fill="none" xmlns="http://www.w3.org/2000/svg">
<g clip-path="url(#clip0_342_6596)">
<path d="M47.3229 93.5604C73.05 93.5604 93.9059 72.7045 93.9059 46.9775C93.9059 21.2504 73.05 0.394531 47.3229 0.394531C21.5959 0.394531 0.73999 21.2504 0.73999 46.9775C0.73999 72.7045 21.5959 93.5604 47.3229 93.5604Z" fill="#00843D"/>
<path d="M47.3403 16.699C48.4874 16.699 49.6141 16.9989 50.6069 17.5724L71.4528 29.6083C72.4465 30.1824 73.2715 31.0079 73.8449 32.0019C74.4184 32.996 74.72 34.1235 74.7194 35.271V59.8261C74.7194 62.161 73.4762 64.3184 71.4528 65.4859L50.604 77.5247C49.6104 78.0984 48.4833 78.4004 47.3359 78.4004C46.1886 78.4004 45.0615 78.0984 44.0678 77.5247L23.2162 65.4859C22.2226 64.9122 21.3974 64.0873 20.8235 63.0938C20.2496 62.1003 19.9472 60.9734 19.9466 59.8261V35.271C19.9466 32.9361 21.1927 30.7787 23.2162 29.6083L44.062 17.5724C45.0577 16.9989 46.1874 16.6961 47.3316 16.6961H47.3374L47.3403 16.699ZM47.3345 12.1543C45.3904 12.1554 43.4808 12.6674 41.7969 13.6391L20.9452 25.672C19.2628 26.6468 17.8656 28.0461 16.8933 29.7301C15.921 31.414 15.4078 33.3237 15.4048 35.2681V59.8232C15.4078 61.7676 15.921 63.6773 16.8933 65.3612C17.8656 67.0452 19.2628 68.4445 20.9452 69.4192L41.7911 81.4551C45.2208 83.4349 49.4453 83.4349 52.872 81.4551L73.7208 69.4192C75.4033 68.4445 76.8005 67.0452 77.7727 65.3612C78.745 63.6773 79.2583 61.7676 79.2612 59.8232V35.2681C79.2583 33.3237 78.745 31.414 77.7727 29.7301C76.8005 28.0461 75.4033 26.6468 73.7208 25.672L52.8749 13.6333C51.1894 12.6606 49.2776 12.1486 47.3316 12.1484L47.3345 12.1543Z" fill="white"/>
<path d="M44.7806 51.4041C44.5411 51.4044 44.3057 51.3416 44.0981 51.222C43.8906 51.1024 43.7183 50.9302 43.5985 50.7228L41.0918 46.376C40.9722 46.1689 40.9093 45.9339 40.9093 45.6947C40.9093 45.4556 40.9722 45.2206 41.0918 45.0135L43.5985 40.6667C43.7183 40.4592 43.8906 40.2871 44.0981 40.1674C44.3057 40.0478 44.5411 39.985 44.7806 39.9854H49.8989C50.1378 39.9861 50.3723 40.0494 50.5792 40.1689C50.7861 40.2885 50.958 40.4601 51.078 40.6667L53.5877 45.0135C53.7073 45.2206 53.7702 45.4556 53.7702 45.6947C53.7702 45.9339 53.7073 46.1689 53.5877 46.376L51.078 50.7228C50.9585 50.9298 50.7866 51.1017 50.5797 51.2213C50.3727 51.3409 50.1379 51.4039 49.8989 51.4041H44.7806ZM37.9416 44.5593C38.181 44.559 38.4162 44.496 38.6236 44.3765C38.831 44.2569 39.0035 44.085 39.1237 43.878L41.6304 39.5312C41.75 39.3241 41.813 39.0891 41.813 38.8499C41.813 38.6108 41.75 38.3758 41.6304 38.1687L38.5035 32.7505L32.3983 36.0812C32.1794 36.2011 31.9977 36.3788 31.8729 36.595C31.7481 36.8111 31.6851 37.0574 31.6908 37.3069C31.7403 39.7467 32.0256 42.1748 32.538 44.5593H37.9416ZM56.7349 44.5593C56.4959 44.5591 56.2611 44.4961 56.0541 44.3765C55.8472 44.2569 55.6753 44.085 55.5558 43.878L53.0461 39.5312C52.9265 39.3241 52.8636 39.0891 52.8636 38.8499C52.8636 38.6108 52.9265 38.3758 53.0461 38.1687L56.173 32.7505L62.2754 36.0812C62.4943 36.2005 62.6764 36.3776 62.8016 36.5932C62.9269 36.8088 62.9906 37.0547 62.9858 37.304C62.9361 39.7438 62.6534 42.1733 62.1415 44.5593H56.7349ZM47.9919 28.2814C47.7918 28.1724 47.5676 28.1152 47.3397 28.1152C47.1119 28.1152 46.8876 28.1724 46.6876 28.2814L40.4979 31.6587L43.6015 37.0332C43.721 37.2402 43.8928 37.4121 44.0998 37.5317C44.3068 37.6513 44.5416 37.7143 44.7806 37.7145H49.8989C50.138 37.7146 50.3729 37.6517 50.5799 37.5321C50.7869 37.4125 50.9587 37.2404 51.078 37.0332L54.1816 31.6616L47.9919 28.2844V28.2814ZM33.1028 46.8302C34.2705 50.9843 36.1362 54.9095 38.62 58.4381L41.6333 53.2208C41.7529 53.0136 41.8159 52.7787 41.8159 52.5395C41.8159 52.3003 41.7529 52.0654 41.6333 51.8582L39.1237 47.5115C39.0042 47.3045 38.8323 47.1325 38.6253 47.013C38.4183 46.8934 38.1836 46.8303 37.9445 46.8302H33.1028ZM61.5708 46.8302C60.404 50.9841 58.5393 54.9093 56.0566 58.4381L53.0432 53.2208C52.9236 53.0136 52.8607 52.7787 52.8607 52.5395C52.8607 52.3003 52.9236 52.0654 53.0432 51.8582L55.5558 47.5115C55.6753 47.3045 55.8472 47.1325 56.0541 47.013C56.2611 46.8934 56.4959 46.8303 56.7349 46.8302H61.5737H61.5708ZM44.7806 53.675C44.5411 53.6746 44.3057 53.7374 44.0981 53.857C43.8906 53.9766 43.7183 54.1488 43.5985 54.3562L40.1048 60.412C41.9864 62.7499 44.1351 64.8595 46.5071 66.6978C46.7462 66.8817 47.0395 66.9814 47.3412 66.9814C47.6429 66.9814 47.9361 66.8817 48.1753 66.6978C50.5465 64.8584 52.6942 62.7478 54.5746 60.4091L51.0809 54.3562C50.9614 54.1492 50.7895 53.9773 50.5826 53.8577C50.3756 53.7382 50.1408 53.6751 49.9018 53.675H44.7777H44.7806Z" fill="white"/>
</g>
<defs>
<clipPath id="clip0_342_6596">
<rect width="93.1659" height="93.1659" fill="white" transform="translate(0.739502 0.394531)"/>
</clipPath>
</defs>
</svg>
