<svg width="94" height="94" viewBox="0 0 94 94" fill="none" xmlns="http://www.w3.org/2000/svg">
<g clip-path="url(#clip0_342_6602)">
<path d="M46.8354 93.5604C72.5624 93.5604 93.4183 72.7045 93.4183 46.9775C93.4183 21.2504 72.5624 0.394531 46.8354 0.394531C21.1083 0.394531 0.252441 21.2504 0.252441 46.9775C0.252441 72.7045 21.1083 93.5604 46.8354 93.5604Z" fill="#EF0027"/>
<path d="M64.1062 29.2552L22.0884 21.5225L44.2007 77.1658L75.0124 39.6258L64.1062 29.2552ZM63.4307 32.6616L69.8592 38.7727L52.2799 41.9549L63.4307 32.6616ZM48.4601 41.3173L29.9318 25.9508L60.2165 31.5232L48.4601 41.3173ZM47.1413 44.0366L44.1192 69.0167L27.8297 28.015L47.1413 44.0337V44.0366ZM49.9362 45.3613L69.405 41.8384L47.0743 69.04L49.9362 45.3613Z" fill="white"/>
</g>
<defs>
<clipPath id="clip0_342_6602">
<rect width="93.1659" height="93.1659" fill="white" transform="translate(0.253418 0.394531)"/>
</clipPath>
</defs>
</svg>
