<svg width="94" height="94" viewBox="0 0 94 94" fill="none" xmlns="http://www.w3.org/2000/svg">
<g clip-path="url(#clip0_342_6606)">
<path d="M47.3505 93.5604C73.0776 93.5604 93.9334 72.7045 93.9334 46.9775C93.9334 21.2504 73.0776 0.394531 47.3505 0.394531C21.6235 0.394531 0.767578 21.2504 0.767578 46.9775C0.767578 72.7045 21.6235 93.5604 47.3505 93.5604Z" fill="#2B2E7F"/>
<path d="M50.4279 55.7931V38.7321H52.6697C60.0793 38.7321 61.9048 31.8232 61.9048 31.8232H42.4477C33.2126 31.8232 31.6462 38.735 31.6462 38.735H43.126V64.4051C43.126 64.4051 50.4279 62.2128 50.4279 55.7931Z" fill="white"/>
<path d="M71.7916 69.0873C78.3365 62.2862 80.8461 52.8415 78.4908 43.8073C77.2478 39.0802 74.7535 34.7755 71.2704 31.3464C70.956 31.0378 70.6416 30.7233 70.2747 30.4147L69.9603 30.1032C69.7468 29.8973 69.5191 29.7067 69.279 29.5326L68.8598 29.221L68.2338 28.7552L67.8641 28.4932C67.6141 28.3295 67.3704 28.1567 67.1333 27.9749L66.6587 27.6663C66.463 27.524 66.2533 27.4021 66.0328 27.3024L65.5611 26.9909C65.3515 26.8861 65.1419 26.7289 64.9322 26.627L64.4606 26.3649C64.251 26.263 64.0413 26.1582 63.7793 26.0563L63.6192 26.0039C64.1956 26.4697 64.7692 26.9909 65.2933 27.5091C67.6819 29.8775 69.5778 32.6954 70.8717 35.8003C72.1655 38.9052 72.8317 42.2356 72.8317 45.5993C72.8317 48.963 72.1655 52.2934 70.8717 55.3983C69.5778 58.5032 67.6819 61.3212 65.2933 63.6895C52.5237 76.3542 31.7972 76.3542 19.0218 63.6895C18.5502 63.2237 18.1309 62.7578 17.6622 62.292L17.2954 61.8757C17.0211 61.5567 16.7588 61.2274 16.5093 60.8887C18.1514 64.1091 20.2892 67.0515 22.8446 69.6085C36.1906 82.8438 57.8575 82.8438 71.2035 69.6085C71.436 69.4797 71.6369 69.3006 71.7916 69.0844V69.0873Z" fill="white"/>
<path d="M31.0463 65.5704C30.4638 65.0954 29.9042 64.5931 29.3693 64.0652C26.9782 61.6947 25.0803 58.874 23.7851 55.7661C22.4899 52.6582 21.8231 49.3245 21.8231 45.9575C21.8231 42.5905 22.4899 39.2569 23.7851 36.1489C25.0803 33.041 26.9782 30.2204 29.3693 27.8499C42.1534 15.1735 62.8974 15.1735 75.6815 27.8499C76.5724 28.7349 77.408 29.6695 78.1941 30.6565C76.5501 27.4495 74.4112 24.5216 71.8559 21.9804C58.4982 8.73048 36.808 8.73048 23.4504 21.9804C23.2932 22.1347 23.1359 22.3443 22.9263 22.4987C14.0726 31.7483 12.8673 45.5689 19.9421 56.0646C22.7196 60.1115 26.5918 63.4887 31.0463 65.5704Z" fill="white"/>
</g>
<defs>
<clipPath id="clip0_342_6606">
<rect width="93.1659" height="93.1659" fill="white" transform="translate(0.767578 0.394531)"/>
</clipPath>
</defs>
</svg>
