<svg width="94" height="94" viewBox="0 0 94 94" fill="none" xmlns="http://www.w3.org/2000/svg">
<g clip-path="url(#clip0_342_6613)">
<path d="M46.8649 93.5604C72.592 93.5604 93.4479 72.7045 93.4479 46.9775C93.4479 21.2504 72.592 0.394531 46.8649 0.394531C21.1379 0.394531 0.281982 21.2504 0.281982 46.9775C0.281982 72.7045 21.1379 93.5604 46.8649 93.5604Z" fill="#374851"/>
<path fill-rule="evenodd" clip-rule="evenodd" d="M51.8143 45.2308V67.3518C52.4082 67.2063 52.9905 67.0403 53.5611 66.8482V75.3204C49.7423 76.219 45.7815 76.3388 41.9154 75.6727V45.2308H31.7254V37.0787H62.0043V45.2308H51.8143ZM55.8903 74.6653V65.9019C60.1824 63.8544 63.6508 60.4084 65.726 56.1296C67.8012 51.8507 68.3598 46.9935 67.3101 42.3553C66.2605 37.7171 63.665 33.5736 59.9497 30.6052C56.2345 27.6367 51.6203 26.0198 46.8648 26.0198C42.1093 26.0198 37.4952 27.6367 33.7799 30.6052C30.0647 33.5736 27.4691 37.7171 26.4195 42.3553C25.3699 46.9935 25.9285 51.8507 28.0037 56.1296C30.0789 60.4084 33.5472 63.8544 37.8394 65.9019V74.6653C26.1791 70.8659 17.7505 59.9044 17.7505 46.9776C17.7505 30.8978 30.785 17.8633 46.8648 17.8633C62.9447 17.8633 75.9792 30.8978 75.9792 46.9776C75.9792 59.9044 67.5506 70.8659 55.8903 74.6653Z" fill="white"/>
</g>
<defs>
<clipPath id="clip0_342_6613">
<rect width="93.1659" height="93.1659" fill="white" transform="translate(0.281494 0.394531)"/>
</clipPath>
</defs>
</svg>
