<svg width="94" height="95" viewBox="0 0 94 95" fill="none" xmlns="http://www.w3.org/2000/svg">
<g clip-path="url(#clip0_342_6617)">
<path d="M47.0414 94.0741C72.7685 94.0741 93.6244 73.2182 93.6244 47.4911C93.6244 21.7641 72.7685 0.908203 47.0414 0.908203C21.3144 0.908203 0.458496 21.7641 0.458496 47.4911C0.458496 73.2182 21.3144 94.0741 47.0414 94.0741Z" fill="#00EA90"/>
<path d="M53.4906 22.7666L76.1328 34.6103L54.3174 47.9825L53.4906 22.7666ZM40.5929 72.0892L17.9507 60.2455L39.7661 46.8704L40.5929 72.0892Z" fill="white" fill-opacity="0.698"/>
<path d="M76.1328 61.1142L44.6514 79.5174V53.6959L76.1328 34.6114V61.1142ZM17.9507 33.7467L49.432 15.4658V41.1854L17.9507 60.2466V33.7438V33.7467Z" fill="white"/>
</g>
<defs>
<clipPath id="clip0_342_6617">
<rect width="93.1659" height="93.1659" fill="white" transform="translate(0.459473 0.908203)"/>
</clipPath>
</defs>
</svg>
