<svg width="95" height="95" viewBox="0 0 95 95" fill="none" xmlns="http://www.w3.org/2000/svg">
<g clip-path="url(#clip0_342_6622)">
<path d="M47.5566 94.0741C73.2836 94.0741 94.1395 73.2182 94.1395 47.4911C94.1395 21.7641 73.2836 0.908203 47.5566 0.908203C21.8295 0.908203 0.973633 21.7641 0.973633 47.4911C0.973633 73.2182 21.8295 94.0741 47.5566 94.0741Z" fill="#FF4A4A"/>
<path d="M57.2466 56.1701H54.3002C54.1674 56.1705 54.0359 56.1447 53.9131 56.094C53.7904 56.0434 53.6789 55.969 53.585 55.8751C53.4911 55.7812 53.4167 55.6697 53.3661 55.5469C53.3154 55.4242 53.2895 55.2927 53.2899 55.1599V47.4096L48.1309 50.6297C47.9181 50.7636 47.6719 50.8347 47.4205 50.8347C47.1691 50.8347 46.9228 50.7636 46.7101 50.6297L41.5801 47.4096V55.1599C41.5801 55.7072 41.1434 56.1701 40.5699 56.1701H37.6497C37.5169 56.1705 37.3854 56.1447 37.2626 56.094C37.1399 56.0434 37.0284 55.969 36.9345 55.8751C36.8406 55.7812 36.7662 55.6697 36.7156 55.5469C36.6649 55.4242 36.6391 55.2927 36.6394 55.1599V40.2038C36.6394 39.8486 36.7805 39.508 37.0317 39.2568C37.2829 39.0057 37.6235 38.8646 37.9787 38.8646C38.2495 38.8646 38.494 38.949 38.7124 39.112L46.8469 44.7078C47.009 44.8281 47.2055 44.8931 47.4074 44.8931C47.6092 44.8931 47.8057 44.8281 47.9678 44.7078L56.0995 39.112C56.3007 38.9774 56.5344 38.8992 56.7761 38.8858C57.0179 38.8724 57.2588 38.9242 57.4736 39.0358C57.6885 39.1474 57.8694 39.3147 57.9975 39.5202C58.1255 39.7257 58.196 39.9618 58.2015 40.2038V55.1599C58.2082 55.2897 58.1885 55.4195 58.1436 55.5414C58.0987 55.6634 58.0295 55.7749 57.9402 55.8694C57.851 55.9638 57.7435 56.0392 57.6242 56.0909C57.505 56.1426 57.3765 56.1695 57.2466 56.1701ZM32.2432 56.1439H13.9594C13.6042 56.1439 13.2635 56.0028 13.0124 55.7517C12.7612 55.5005 12.6201 55.1599 12.6201 54.8047V39.7671C12.6255 39.4963 12.7372 39.2385 12.9312 39.0494C13.1251 38.8604 13.3857 38.7553 13.6566 38.7569H16.6088C17.1532 38.7569 17.619 39.1936 17.619 39.7671V51.2032H28.7V39.7671C28.7 39.2198 29.1367 38.7569 29.7102 38.7569H32.5751C33.1224 38.7569 33.5854 39.1936 33.5854 39.7671V54.8076C33.5846 55.1623 33.4431 55.5022 33.1921 55.7527C32.941 56.0032 32.6008 56.1439 32.2461 56.1439H32.2432ZM62.6502 38.7569H80.9398C81.2945 38.7576 81.6344 38.8991 81.8849 39.1501C82.1355 39.4012 82.2762 39.7414 82.2762 40.0961V55.1337C82.2762 55.681 81.8394 56.1439 81.2921 56.1439H78.3457C78.213 56.1443 78.0814 56.1185 77.9587 56.0678C77.8359 56.0172 77.7244 55.9428 77.6305 55.8489C77.5366 55.755 77.4622 55.6435 77.4116 55.5207C77.3609 55.398 77.3351 55.2664 77.3355 55.1337V44.3526C77.3332 44.1796 77.2635 44.0143 77.1411 43.8919C77.0187 43.7696 76.8534 43.6998 76.6804 43.6976H66.9358C66.7628 43.6998 66.5975 43.7696 66.4751 43.8919C66.3528 44.0143 66.283 44.1796 66.2807 44.3526V55.1337C66.2807 55.681 65.844 56.1439 65.2705 56.1439H62.3241C62.1913 56.1443 62.0598 56.1185 61.937 56.0678C61.8143 56.0172 61.7028 55.9428 61.6089 55.8489C61.515 55.755 61.4406 55.6435 61.39 55.5207C61.3393 55.398 61.3135 55.2664 61.3138 55.1337V40.0932C61.3146 39.7385 61.4561 39.3986 61.7071 39.1481C61.9582 38.8976 62.2984 38.7569 62.6531 38.7569H62.6502Z" fill="white"/>
<path d="M70.3213 46.8623H73.2415C73.7859 46.8623 74.2517 47.299 74.2517 47.8726V50.8481C74.2517 51.3954 73.815 51.8583 73.2415 51.8583H70.3213C70.1885 51.8587 70.057 51.8328 69.9342 51.7822C69.8115 51.7316 69.7 51.6572 69.6061 51.5633C69.5122 51.4694 69.4378 51.3579 69.3872 51.2351C69.3365 51.1124 69.3107 50.9808 69.311 50.8481V47.8464C69.311 47.299 69.7769 46.8623 70.3213 46.8623Z" fill="white"/>
</g>
<defs>
<clipPath id="clip0_342_6622">
<rect width="93.1659" height="93.1659" fill="white" transform="translate(0.973633 0.908203)"/>
</clipPath>
</defs>
</svg>
