<svg width="94" height="95" viewBox="0 0 94 95" fill="none" xmlns="http://www.w3.org/2000/svg">
<g clip-path="url(#clip0_342_6636)">
<circle cx="46.5839" cy="47.4911" r="46.5829" fill="white"/>
<path d="M40.7257 30.3477C40.0498 30.2511 40.0176 30.2189 40.3394 30.1867C40.951 30.0902 42.3671 30.2189 43.3648 30.4442C45.6822 30.9914 47.7742 32.4075 49.995 34.8858L50.5743 35.5617L51.4111 35.4329C54.9837 34.8536 58.6528 35.3042 61.7104 36.7203C62.5472 37.1065 63.8668 37.879 64.0277 38.0721C64.0921 38.1365 64.1886 38.5549 64.253 38.9733C64.4783 40.486 64.3818 41.6125 63.899 42.4815C63.6415 42.9642 63.6415 43.093 63.8024 43.5114C63.9312 43.8332 64.3174 44.0585 64.6714 44.0585C65.4439 44.0585 66.2485 42.8355 66.6347 41.1297L66.7956 40.4538L67.0853 40.7756C68.7267 42.6102 70.0142 45.1528 70.2073 46.9552L70.2716 47.438L69.982 47.0196C69.4992 46.2793 69.0486 45.7965 68.4371 45.3781C67.3428 44.6379 66.1841 44.4126 63.1265 44.2516C60.3586 44.0907 58.7815 43.8654 57.2366 43.3505C54.5975 42.4815 53.2457 41.355 50.1237 37.2031C48.7398 35.3685 47.8708 34.3708 47.0018 33.534C45.1028 31.6994 43.2039 30.7339 40.7257 30.3477Z" fill="#FF007A"/>
<path d="M64.7038 34.4352C64.7682 33.2122 64.9291 32.4075 65.2831 31.6673C65.4119 31.3776 65.5406 31.1201 65.5728 31.1201C65.605 31.1201 65.5406 31.3454 65.4441 31.6029C65.1866 32.311 65.1544 33.3087 65.3153 34.4352C65.5406 35.8835 65.6372 36.0766 67.1821 37.6537C67.8901 38.394 68.7269 39.3273 69.0488 39.7136L69.5959 40.4216L69.0488 39.9067C68.3729 39.263 66.828 38.0399 66.474 37.879C66.2487 37.7503 66.2165 37.7503 66.0556 37.9112C65.9268 38.0399 65.8947 38.233 65.8947 39.1664C65.8625 40.6147 65.6694 41.5159 65.1866 42.4493C64.9291 42.9321 64.8969 42.8355 65.1222 42.2884C65.2831 41.87 65.3153 41.6769 65.3153 40.2929C65.3153 37.4928 64.9935 36.8169 63.0302 35.6904C62.5474 35.4007 61.7106 34.9823 61.2278 34.757C60.7128 34.5317 60.3266 34.3386 60.3588 34.3386C60.4232 34.2743 62.3221 34.8214 63.0624 35.1433C64.1888 35.5939 64.3819 35.626 64.5107 35.5939C64.6072 35.4973 64.6716 35.2398 64.7038 34.4352Z" fill="#FF007A"/>
<path d="M42.0447 39.2305C40.6929 37.3637 39.8239 34.4671 40.017 32.3107L40.0814 31.6348L40.4032 31.6991C40.9826 31.7957 41.9803 32.1819 42.4631 32.4716C43.7505 33.244 44.3298 34.3061 44.877 36.9453C45.0379 37.7178 45.2632 38.6189 45.3598 38.9086C45.5207 39.3914 46.1322 40.5179 46.6472 41.2259C47.0012 41.7409 46.7759 41.9984 45.9713 41.934C44.7482 41.8053 43.1068 40.6788 42.0447 39.2305Z" fill="#FF007A"/>
<path d="M63.0621 53.2309C56.6895 50.6561 54.4365 48.4353 54.4365 44.6696C54.4365 44.1225 54.4687 43.6719 54.4687 43.6719C54.5009 43.6719 54.7262 43.865 55.0159 44.0903C56.3033 45.1202 57.7516 45.5708 61.7747 46.1501C64.1243 46.5042 65.476 46.7617 66.6991 47.1801C70.5935 48.4675 73.0074 51.1066 73.5867 54.6792C73.7476 55.7091 73.6511 57.6724 73.3936 58.7023C73.1683 59.507 72.5246 60.9875 72.3637 61.0197C72.3315 61.0197 72.2671 60.8587 72.2671 60.6013C72.2027 59.2495 71.5268 57.9621 70.4004 56.9643C69.0486 55.8057 67.3106 54.9367 63.0621 53.2309Z" fill="#FF007A"/>
<path d="M58.5557 54.2935C58.4913 53.8108 58.3304 53.1992 58.2338 52.9418L58.0729 52.459L58.3626 52.813C58.781 53.2958 59.1028 53.8751 59.3925 54.6798C59.6178 55.2913 59.6178 55.4844 59.6178 56.4821C59.6178 57.4477 59.5856 57.673 59.3925 58.2201C59.0706 59.0891 58.6844 59.7006 58.0407 60.3765C56.882 61.5674 55.3693 62.2111 53.2129 62.5008C52.8267 62.5329 51.7324 62.6295 50.7669 62.6939C48.353 62.8226 46.7437 63.0801 45.2954 63.595C45.1023 63.6594 44.9092 63.7238 44.877 63.6916C44.8126 63.6272 45.8104 63.0479 46.615 62.6617C47.7415 62.1145 48.9001 61.8249 51.4428 61.3743C52.698 61.1812 53.9854 60.9237 54.3072 60.7949C57.4936 59.7972 59.0706 57.3189 58.5557 54.2935Z" fill="#FF007A"/>
<path d="M61.4853 59.4753C60.6485 57.6407 60.4554 55.9027 60.906 54.2613C60.9704 54.1004 61.0347 53.9395 61.0991 53.9395C61.1635 53.9395 61.3566 54.036 61.5497 54.1647C61.9359 54.4222 62.7406 54.8728 64.8004 55.9993C67.4074 57.4155 68.8879 58.5097 69.9178 59.765C70.819 60.8593 71.3662 62.1145 71.6237 63.6594C71.7846 64.5284 71.688 66.6204 71.4627 67.4894C70.7547 70.2251 69.1454 72.4137 66.7959 73.669C66.4418 73.8621 66.1522 73.9908 66.12 73.9908C66.0878 73.9908 66.2165 73.669 66.4097 73.2827C67.1821 71.6413 67.2787 70.0642 66.6993 68.294C66.3453 67.1997 65.605 65.8801 64.1245 63.6594C62.3543 61.0846 61.9359 60.4087 61.4853 59.4753Z" fill="#FF007A"/>
<path d="M37.5069 69.3242C39.8886 67.3287 42.8175 65.9125 45.521 65.4619C46.6797 65.2688 48.6108 65.3332 49.6729 65.6229C51.3787 66.0735 52.9236 67.039 53.7283 68.2299C54.5007 69.3885 54.8547 70.3863 55.2088 72.6071C55.3375 73.4761 55.4984 74.3772 55.5306 74.5703C55.7881 75.729 56.3031 76.6302 56.9468 77.113C57.9445 77.8532 59.6825 77.8854 61.3883 77.2417C61.678 77.1452 61.9355 77.0486 61.9355 77.0808C61.9998 77.1452 61.1308 77.7245 60.5515 78.0142C59.7469 78.4326 59.1032 78.5613 58.2342 78.5613C56.6893 78.5613 55.3697 77.7567 54.3076 76.1474C54.0823 75.8256 53.6317 74.8922 53.2455 74.0232C52.119 71.4162 51.5397 70.6438 50.2201 69.7748C49.0614 69.0345 47.5809 68.8736 46.4544 69.4207C44.9739 70.1288 44.5877 72.0277 45.6176 73.1864C46.036 73.6692 46.8085 74.0554 47.4522 74.1519C48.643 74.3129 49.6729 73.3795 49.6729 72.1886C49.6729 71.4162 49.3833 70.9656 48.6108 70.6116C47.5809 70.161 46.4544 70.6759 46.4866 71.6737C46.4866 72.0921 46.6797 72.3496 47.0981 72.5427C47.3556 72.6714 47.3556 72.6714 47.1625 72.6392C46.2291 72.4461 46.0038 71.2875 46.7441 70.5472C47.6453 69.646 49.5442 70.0322 50.1879 71.2875C50.4454 71.8024 50.4776 72.8324 50.2523 73.4761C49.7051 74.8922 48.1602 75.6325 46.5832 75.2141C45.521 74.9244 45.0705 74.6347 43.783 73.3151C41.5301 70.9978 40.6611 70.5472 37.4426 70.0644L36.8311 69.9679L37.5069 69.3242Z" fill="#FF007A"/>
<path fill-rule="evenodd" clip-rule="evenodd" d="M20.5777 17.5373C28.0768 26.6457 39.6313 40.8072 40.2106 41.5796C40.6934 42.2233 40.5003 42.8348 39.6956 43.2854C39.2451 43.5429 38.3117 43.8004 37.8611 43.8004C37.3461 43.8004 36.7346 43.5429 36.3162 43.1245C36.0265 42.8348 34.7713 41.0003 31.939 36.5909C29.7826 33.2115 27.9481 30.4113 27.9159 30.3792C27.7871 30.3148 27.7871 30.3148 31.7137 37.3312C34.192 41.7405 34.9966 43.3176 34.9966 43.5107C34.9966 43.9291 34.8679 44.1544 34.3529 44.7337C33.4839 45.6993 33.0977 46.7936 32.808 49.0787C32.4862 51.6214 31.6172 53.4237 29.1389 56.4813C27.6906 58.2837 27.4653 58.6055 27.1112 59.3458C26.6607 60.247 26.5319 60.7619 26.4675 61.9206C26.4032 63.1437 26.5319 63.9161 26.886 65.0748C27.2078 66.1047 27.5618 66.7806 28.4308 68.1002C29.1711 69.2588 29.6217 70.1278 29.6217 70.4497C29.6217 70.7072 29.6861 70.7072 30.8447 70.4497C33.6126 69.806 35.8978 68.7117 37.153 67.3599C37.9255 66.5231 38.1186 66.0725 38.1186 64.9138C38.1186 64.1736 38.0864 64.0126 37.8933 63.5621C37.5714 62.854 36.9599 62.2747 35.6403 61.3735C33.9023 60.1826 33.1621 59.2171 32.9689 57.9297C32.808 56.8354 33.0011 56.0951 33.9667 54.0674C34.9644 51.9754 35.2219 51.1064 35.3828 48.9822C35.4794 47.6304 35.6403 47.0833 36.0265 46.6649C36.4449 46.2143 36.799 46.0533 37.7967 45.9246C39.4382 45.6993 40.5003 45.2809 41.3371 44.4763C42.0773 43.8004 42.3992 43.1245 42.4314 42.1267L42.4636 41.3865L42.0452 40.9359C40.5325 39.1979 19.5799 16.1533 19.4834 16.1533C19.4512 16.1533 19.9661 16.7648 20.5777 17.5373ZM30.4585 63.3046C30.8125 62.6931 30.6194 61.9206 30.0401 61.5344C29.4929 61.1804 28.6561 61.3413 28.6561 61.8241C28.6561 61.9528 28.7205 62.0815 28.9136 62.1459C29.2033 62.3068 29.2355 62.4678 29.0102 62.8218C28.7849 63.1758 28.7849 63.4977 29.0745 63.723C29.5251 64.077 30.1367 63.8839 30.4585 63.3046Z" fill="#FF007A"/>
<path fill-rule="evenodd" clip-rule="evenodd" d="M43.4936 46.3755C42.7211 46.6008 41.9809 47.4377 41.7556 48.2745C41.6268 48.7894 41.6912 49.7228 41.9165 50.0125C42.2705 50.4631 42.5924 50.5918 43.4936 50.5918C45.2637 50.5918 46.7764 49.8194 46.9374 48.886C47.0983 48.1135 46.4224 47.0514 45.489 46.5687C45.0063 46.3112 44.0085 46.2146 43.4936 46.3755ZM45.5534 47.9848C45.8109 47.5986 45.7143 47.1802 45.2316 46.8905C44.3626 46.3434 43.043 46.794 43.043 47.6308C43.043 48.0492 43.7189 48.4998 44.3626 48.4998C44.781 48.4998 45.3603 48.2423 45.5534 47.9848Z" fill="#FF007A"/>
</g>
<defs>
<clipPath id="clip0_342_6636">
<rect width="93.1659" height="93.1659" fill="white" transform="translate(0.00146484 0.908203)"/>
</clipPath>
</defs>
</svg>
