<svg width="94" height="95" viewBox="0 0 94 95" fill="none" xmlns="http://www.w3.org/2000/svg">
<g clip-path="url(#clip0_342_6628)">
<path d="M47.0717 94.0741C72.7988 94.0741 93.6546 73.2182 93.6546 47.4911C93.6546 21.7641 72.7988 0.908203 47.0717 0.908203C21.3447 0.908203 0.48877 21.7641 0.48877 47.4911C0.48877 73.2182 21.3447 94.0741 47.0717 94.0741Z" fill="#FF007A"/>
<path d="M36.1853 17.6981C35.3556 17.57 35.3207 17.5526 35.7108 17.4943C36.459 17.3779 38.2292 17.538 39.4491 17.8263C42.2935 18.5046 44.8818 20.2369 47.6477 23.3143L48.3813 24.1295L49.4295 23.9636C53.8548 23.2503 58.3588 23.818 62.1233 25.5561C63.1598 26.0336 64.7931 26.9856 64.9969 27.2331C65.0639 27.3088 65.1832 27.8125 65.2618 28.3482C65.5413 30.2028 65.4016 31.6235 64.8368 32.6862C64.5282 33.2627 64.5107 33.4432 64.7174 33.9381C64.8155 34.1426 64.969 34.3153 65.1605 34.4368C65.352 34.5583 65.5737 34.6236 65.8005 34.6252C66.7379 34.6252 67.7453 33.1113 68.2111 31.0063L68.3974 30.1707L68.7643 30.5871C70.779 32.8696 72.3599 35.982 72.6307 38.1946L72.7035 38.774L72.3628 38.25C71.7805 37.3474 71.1982 36.7302 70.4471 36.2323C69.0962 35.3385 67.6667 35.0357 63.8818 34.8348C60.4638 34.6543 58.5277 34.3632 56.612 33.7372C53.3483 32.6746 51.7033 31.2567 47.8253 26.1704C46.1046 23.9111 45.039 22.6621 43.9822 21.6577C41.5744 19.3693 39.2103 18.1698 36.1853 17.6981Z" fill="white"/>
<path d="M65.7683 22.743C65.8557 21.229 66.0595 20.2304 66.4729 19.3191C66.636 18.9581 66.7903 18.6611 66.8136 18.6611C66.7876 18.8655 66.7337 19.0653 66.6534 19.2551C66.3535 20.1401 66.3041 21.3513 66.5108 22.7575C66.7728 24.5451 66.9242 24.8013 68.8108 26.7316C69.6988 27.6371 70.7294 28.7784 71.1021 29.2704L71.7805 30.1613L71.1021 29.5237C70.2723 28.7463 68.3624 27.2237 67.9403 27.0082C67.6579 26.8626 67.6142 26.8656 67.4395 27.0373C67.2794 27.2004 67.2444 27.4391 67.2241 28.5775C67.1891 30.3476 66.9475 31.4889 66.3623 32.6244C66.0478 33.2358 65.9984 33.1077 66.2837 32.4118C66.4962 31.8936 66.5166 31.6665 66.5166 29.9517C66.5166 26.5045 66.1061 25.6777 63.7041 24.2569C62.9814 23.8375 62.2391 23.4528 61.4798 23.104C61.1047 22.9535 60.7408 22.7764 60.3909 22.5741C60.4579 22.5071 62.7987 23.1884 63.7391 23.5523C65.1424 24.091 65.3724 24.1608 65.5442 24.0939C65.6577 24.0502 65.713 23.7183 65.7683 22.743ZM37.7982 28.6386C36.1125 26.3182 35.0702 22.7575 35.2944 20.0965L35.3642 19.2725L35.7486 19.3424C36.4706 19.4734 37.7138 19.9363 38.2961 20.2915C39.8915 21.261 40.5844 22.5392 41.2861 25.8174C41.4928 26.7782 41.7636 27.8642 41.8888 28.2339C42.0867 28.8249 42.8437 30.2079 43.4609 31.1075C43.9035 31.7538 43.6065 32.0595 42.6283 31.9722C41.1318 31.8354 39.1054 30.4379 37.7982 28.6386ZM63.7245 45.918C55.8433 42.7445 53.0687 39.9903 53.0687 35.3436C53.0687 34.6595 53.092 34.1005 53.1182 34.1005C53.1473 34.1005 53.453 34.3246 53.7965 34.6012C55.3949 35.8823 57.1854 36.4296 62.1378 37.1516C65.0521 37.5796 66.6942 37.9232 68.2081 38.4239C73.0178 40.0194 75.9933 43.2569 76.7037 47.6648C76.9075 48.9459 76.7881 51.3478 76.4533 52.6143C76.1913 53.6158 75.3848 55.418 75.1723 55.4879C75.114 55.5053 75.0558 55.2811 75.0384 54.9696C74.9568 53.3159 74.1213 51.703 72.715 50.4947C71.1166 49.1235 68.9709 48.0288 63.7216 45.918H63.7245ZM58.1928 47.2339C58.0997 46.6716 57.9723 46.1154 57.8114 45.5686L57.6076 44.9688L57.9832 45.3881C58.4985 45.9704 58.909 46.7099 59.2526 47.6998C59.5175 48.4538 59.5466 48.678 59.5437 49.9037C59.5437 51.1091 59.5117 51.3594 59.2671 52.0407C58.9271 53.0397 58.3577 53.9451 57.6047 54.6843C56.1635 56.1517 54.3148 56.961 51.6421 57.2988C51.1762 57.357 49.8253 57.456 48.6346 57.5171C45.6358 57.6743 43.6647 57.9946 41.8917 58.6176C41.7318 58.6893 41.56 58.7308 41.3851 58.7399C41.3152 58.6671 42.5205 57.948 43.5192 57.4676C44.9254 56.7893 46.3229 56.4195 49.4585 55.8984C51.0074 55.6393 52.6087 55.3277 53.0134 55.2025C56.8506 54.0263 58.8217 50.9926 58.1899 47.2339H58.1928Z" fill="white"/>
<path d="M61.8031 53.6514C60.755 51.4009 60.5162 49.226 61.0898 47.1997C61.1509 46.9842 61.2499 46.8066 61.3081 46.8066C61.5052 46.878 61.6906 46.978 61.8584 47.1036C62.3417 47.4297 63.3083 47.977 65.8849 49.3803C69.1021 51.1359 70.9363 52.4956 72.1853 54.0445C73.2771 55.4041 73.9525 56.953 74.2786 58.8396C74.462 59.9081 74.3543 62.4789 74.0806 63.5561C73.2159 66.9508 71.2041 69.6177 68.3393 71.1724C68.0689 71.3288 67.7888 71.4679 67.5008 71.5888C67.46 71.5888 67.6114 71.2015 67.8414 70.7241C68.8022 68.7094 68.9157 66.747 68.185 64.5635C67.7395 63.2271 66.8282 61.5938 64.9911 58.8396C62.8541 55.637 62.3301 54.7811 61.8031 53.6514ZM32.2025 65.795C35.1285 63.3261 38.7649 61.5734 42.081 61.0348C43.5076 60.8019 45.8892 60.8951 47.211 61.2328C49.3305 61.7743 51.2288 62.9913 52.2157 64.4383C53.1765 65.8532 53.5928 67.0877 54.0208 69.8303C54.1955 70.9133 54.3789 71.9993 54.4343 72.2467C54.7545 73.6675 55.3863 74.8059 56.1666 75.3765C57.4039 76.282 59.538 76.3373 61.6342 75.5221C61.8533 75.4216 62.0841 75.3492 62.3213 75.3067C62.397 75.3824 61.3431 76.0898 60.5978 76.4625C59.7182 76.9332 58.7332 77.1716 57.7358 77.1554C55.8143 77.1554 54.2188 76.1801 52.8883 74.1858C52.6263 73.7927 52.0381 72.6194 51.5781 71.5742C50.1748 68.3716 49.4819 67.3934 47.8515 66.3249C46.4278 65.3932 44.5965 65.2273 43.2194 65.9027C41.4085 66.7907 40.9048 69.1053 42.2004 70.5698C42.7157 71.152 43.6765 71.6557 44.4626 71.7518C44.8055 71.7972 45.1542 71.7685 45.485 71.6676C45.8159 71.5667 46.1213 71.3959 46.3804 71.1668C46.6396 70.9377 46.8466 70.6557 46.9874 70.3397C47.1281 70.0237 47.1994 69.6812 47.1964 69.3353C47.1964 68.3687 46.8238 67.8214 45.8921 67.3992C44.6198 66.8257 43.2514 67.4953 43.2573 68.6919C43.2602 69.2014 43.4814 69.5216 43.9939 69.7546C44.3228 69.9001 44.3287 69.9147 44.0608 69.8594C42.8933 69.6148 42.6197 68.2086 43.5601 67.274C44.6868 66.1502 47.0188 66.6451 47.8195 68.1766C48.1572 68.82 48.1951 70.1039 47.901 70.8784C47.2459 72.6107 45.3302 73.519 43.3883 73.0241C42.0665 72.6864 41.5279 72.3224 39.9353 70.6804C37.1665 67.8272 36.0922 67.274 32.0977 66.651L31.332 66.5316L32.2055 65.795H32.2025Z" fill="white"/>
<path fill-rule="evenodd" clip-rule="evenodd" d="M18.5273 10.6611L18.8068 11.0017C29.6024 24.2196 35.1807 31.079 35.5359 31.5681C36.1182 32.3775 35.8999 33.1024 34.8983 33.673C34.3423 33.9904 33.1951 34.3106 32.6245 34.3106C31.9753 34.3106 31.2445 33.9991 30.7117 33.4954C30.3361 33.1373 28.8193 30.8722 25.3168 25.4366C23.6767 22.8675 22.0151 20.3122 20.3324 17.7708C20.1898 17.6369 20.1927 17.6398 25.0431 26.3188C28.0885 31.769 29.1191 33.6934 29.1191 33.9525C29.1191 34.4766 28.9736 34.7503 28.3272 35.4723C27.25 36.6747 26.7696 38.0256 26.4202 40.8206C26.0301 43.9562 24.9354 46.1689 21.8959 49.9567C20.1199 52.1752 19.8288 52.5828 19.3775 53.4766C18.8127 54.6004 18.6584 55.2322 18.5943 56.653C18.5273 58.1553 18.6584 59.1277 19.1184 60.563C19.5201 61.8208 19.9394 62.6534 21.0108 64.313C21.9366 65.7483 22.4694 66.8139 22.4694 67.2302C22.4694 67.5621 22.5335 67.5621 23.9688 67.239C27.4014 66.4645 30.1876 65.0991 31.7569 63.4279C32.7264 62.3943 32.9535 61.8237 32.9622 60.4058C32.9651 59.48 32.9331 59.2849 32.6827 58.7521C32.2751 57.8845 31.5327 57.1625 29.8965 56.0445C27.7508 54.5771 26.8366 53.3951 26.5833 51.7734C26.3737 50.4429 26.6153 49.5025 27.8032 47.0161C29.0289 44.4424 29.3346 43.3477 29.5413 40.7536C29.6723 39.0767 29.8557 38.4158 30.339 37.8859C30.8398 37.3327 31.294 37.1435 32.5372 36.9746C34.5635 36.698 35.8533 36.174 36.913 35.1986C37.8331 34.3485 38.2174 33.5304 38.2756 32.3018L38.3222 31.3701L37.8069 30.7703C37.0674 29.9086 30.9504 23.1599 19.4532 10.5184L19.1446 10.1836L18.5273 10.664V10.6611ZM23.5175 58.3562C23.7207 57.9965 23.7813 57.5737 23.6875 57.1715C23.5937 56.7692 23.3522 56.4169 23.011 56.1842C22.3471 55.7417 21.3136 55.9513 21.3136 56.5278C21.3136 56.7025 21.4097 56.8306 21.628 56.9441C21.9978 57.1334 22.024 57.3488 21.7357 57.7826C21.4417 58.2252 21.465 58.6153 21.8027 58.8802C22.3442 59.3053 23.1129 59.0695 23.5205 58.3562H23.5175ZM39.6003 37.4637C38.6483 37.7549 37.7253 38.7651 37.4371 39.822C37.2624 40.4654 37.3614 41.598 37.6234 41.9473C38.0456 42.5121 38.4561 42.6606 39.5624 42.6519C41.7286 42.6373 43.6093 41.7086 43.8306 40.5469C44.0111 39.5949 43.1814 38.276 42.043 37.6937C41.4549 37.3968 40.2059 37.2774 39.6003 37.4637ZM42.1332 39.4435C42.4681 38.9689 42.3196 38.4536 41.7548 38.1101C40.6717 37.4492 39.0355 37.9936 39.0355 39.0184C39.0355 39.525 39.8885 40.0811 40.6688 40.0811C41.1929 40.0811 41.9032 39.7696 42.1332 39.4435Z" fill="white"/>
</g>
<defs>
<clipPath id="clip0_342_6628">
<rect width="93.1659" height="93.1659" fill="white" transform="translate(0.487793 0.908203)"/>
</clipPath>
</defs>
</svg>
