<svg width="94" height="95" viewBox="0 0 94 95" fill="none" xmlns="http://www.w3.org/2000/svg">
<g clip-path="url(#clip0_342_6648)">
<path d="M47.0986 94.0741C72.8256 94.0741 93.6815 73.2182 93.6815 47.4911C93.6815 21.7641 72.8256 0.908203 47.0986 0.908203C21.3715 0.908203 0.515625 21.7641 0.515625 47.4911C0.515625 73.2182 21.3715 94.0741 47.0986 94.0741Z" fill="#F58634"/>
<path d="M39.2022 67.0917H39.2138C42.6755 66.6724 45.5869 65.6243 47.9481 63.9473C51.075 61.7055 52.6384 58.8581 52.6384 55.4052C52.6384 52.4937 51.4942 50.0569 49.2088 48.0625C46.9175 46.074 43.8139 44.8658 39.898 44.4465C38.5675 44.2748 36.6809 44.1496 34.2586 44.0098C28.9772 43.6896 25.5505 42.9675 23.9608 41.835C23.3957 41.4296 22.92 40.9123 22.5633 40.3152C22.2612 39.7724 22.1047 39.1605 22.1091 38.5392C22.1091 36.9059 23.0525 35.5259 24.9536 34.4399C26.8519 33.3569 29.2509 32.8037 32.1681 32.8037C34.9311 32.8037 37.6708 33.2754 40.2619 34.2012C51.4011 38.1724 62.0395 52.0541 69.123 61.9937C63.3496 65.502 55.4858 67.6652 46.8214 67.6652C44.271 67.6652 41.7235 67.476 39.2022 67.0917ZM26.7441 61.4377C16.5745 57.7256 12.1229 48.5517 17.1452 39.6427C17.2849 40.8946 17.7478 42.097 18.4931 43.1364C19.4248 44.4436 20.7932 45.5063 22.5895 46.3419C28.8637 49.067 40.4017 47.3259 45.1531 50.7876C46.7515 51.9522 47.5522 53.44 47.5522 55.2538C47.5522 57.5334 46.4371 59.3997 44.2069 60.8495C41.9797 62.2994 39.0799 63.0244 35.5105 63.0244C32.5194 63.0076 29.5541 62.4707 26.7471 61.4377H26.7441Z" fill="white"/>
<path opacity="0.5" d="M75.9568 55.8619V38.8183C77.8696 41.4066 78.9381 44.2977 78.9381 47.3401C78.9381 50.3855 77.8696 53.2707 75.9568 55.8619ZM71.1558 34.1426L71.1704 55.8648C64.3489 46.1814 54.156 33.997 41.6281 29.9268C39.4608 29.2191 37.2219 28.7533 34.9521 28.5381C38.8359 27.581 42.8221 27.1019 46.8221 27.1115C56.5462 27.1115 65.266 29.8366 71.1558 34.1426Z" fill="white"/>
</g>
<defs>
<clipPath id="clip0_342_6648">
<rect width="93.1659" height="93.1659" fill="white" transform="translate(0.515625 0.908203)"/>
</clipPath>
</defs>
</svg>
