<svg width="94" height="95" viewBox="0 0 94 95" fill="none" xmlns="http://www.w3.org/2000/svg">
<g clip-path="url(#clip0_342_6654)">
<path d="M46.6137 94.0741C72.3407 94.0741 93.1966 73.2182 93.1966 47.4911C93.1966 21.7641 72.3407 0.908203 46.6137 0.908203C20.8867 0.908203 0.0307617 21.7641 0.0307617 47.4911C0.0307617 73.2182 20.8867 94.0741 46.6137 94.0741Z" fill="#6CDE07"/>
<path fill-rule="evenodd" clip-rule="evenodd" d="M65.5381 56.6739C65.5381 64.1563 59.4648 69.1232 50.4976 69.8715V76.6056H44.3545V69.8045C38.2891 69.1206 32.5262 66.7909 27.6895 63.0675L32.208 56.8778C36.2345 60.0075 40.0456 62.0485 44.6369 62.7297V49.3954C34.3275 46.81 29.5266 43.0688 29.5266 35.3826C29.5266 28.0371 35.527 23.0032 44.3545 22.3219V18.377H50.4976V22.4588C55.2989 22.9921 59.8765 24.7749 63.7738 27.6295L59.8171 34.023C56.7106 31.7783 53.5342 30.3488 50.2152 29.6704V42.5943C60.9497 45.1796 65.5381 49.3284 65.5381 56.6739ZM44.634 41.1647V29.1929C40.1882 29.5336 37.8591 31.9151 37.8591 34.9081C37.8591 37.7613 39.1984 39.6013 44.6369 41.1677L44.634 41.1647ZM57.2056 57.1485C57.2056 54.0915 55.7207 52.2544 50.2152 50.688V63.0034C54.6639 62.6599 57.2056 60.4151 57.2056 57.1514V57.1485Z" fill="white"/>
</g>
<defs>
<clipPath id="clip0_342_6654">
<rect width="93.1659" height="93.1659" fill="white" transform="translate(0.0297852 0.908203)"/>
</clipPath>
</defs>
</svg>
