<svg width="94" height="95" viewBox="0 0 94 95" fill="none" xmlns="http://www.w3.org/2000/svg">
<g clip-path="url(#clip0_342_6658)">
<path d="M47.126 94.0741C56.3393 94.0741 65.3456 91.342 73.0061 86.2234C80.6667 81.1049 86.6373 73.8296 90.1631 65.3177C93.6888 56.8058 94.6113 47.4395 92.8139 38.4033C91.0165 29.3671 86.5799 21.0668 80.0652 14.552C73.5504 8.03731 65.2501 3.60071 56.2139 1.8033C47.1777 0.0058893 37.8114 0.928387 29.2995 4.45414C20.7876 7.97989 13.5123 13.9505 8.39375 21.6111C3.27515 29.2716 0.54311 38.2779 0.54311 47.4912C0.528028 53.6128 1.72264 59.677 4.05831 65.3355C6.39398 70.994 9.82467 76.1353 14.1533 80.4639C18.4819 84.7925 23.6232 88.2232 29.2817 90.5589C34.9402 92.8946 41.0045 94.0892 47.126 94.0741Z" fill="#2775CA"/>
<path d="M59.9362 54.8681C59.9362 48.0924 55.8623 45.7421 47.7103 44.7723C41.8832 43.9974 40.7228 42.4432 40.7228 39.7287C40.7228 37.0141 42.6624 35.2609 46.5415 35.2609C50.0394 35.2609 51.979 36.4255 52.9487 39.3391C53.0529 39.6198 53.2407 39.8617 53.4869 40.0321C53.7331 40.2025 54.0257 40.2932 54.3251 40.2919H57.4292C57.609 40.2965 57.7878 40.2646 57.9548 40.1979C58.1219 40.1312 58.2736 40.0313 58.4008 39.9041C58.5279 39.7769 58.6279 39.6252 58.6946 39.4582C58.7612 39.2912 58.7932 39.1123 58.7885 38.9325V38.7419C58.4135 36.6382 57.3542 34.7173 55.7751 33.2776C54.196 31.8379 52.1857 30.9601 50.0564 30.7805V26.1222C50.0564 25.3472 49.472 24.7671 48.5022 24.5723H45.5886C44.8137 24.5723 44.2335 25.1524 44.0387 26.1222V30.6026C38.1989 31.3988 34.5104 35.2609 34.5104 40.114C34.5104 46.5213 38.3937 49.0452 46.5457 50.015C51.979 50.9848 53.7449 52.1324 53.7449 55.2535C53.7449 58.3745 51.0304 60.4962 47.3419 60.4962C42.294 60.4962 40.5662 58.3788 39.9648 55.4483C39.9093 55.1209 39.7408 54.8234 39.4885 54.6075C39.2363 54.3916 38.9163 54.271 38.5843 54.2668H35.2684C35.0888 54.2627 34.9102 54.2951 34.7434 54.362C34.5767 54.4289 34.4252 54.5289 34.2982 54.6559C34.1711 54.7829 34.0711 54.9344 34.0043 55.1012C33.9374 55.2679 33.905 55.4465 33.909 55.6261V55.8209C34.6882 60.674 37.7924 64.1678 44.1996 65.1375V69.7958C44.1996 70.5708 44.7798 71.1552 45.7496 71.35H48.6631C49.4381 71.35 50.0225 70.7656 50.2131 69.7958V65.1375C56.0359 64.1678 59.9193 60.0896 59.9193 54.8512L59.9362 54.8681Z" fill="white"/>
<path d="M37.2255 75.2462C31.6407 73.1978 26.8195 69.484 23.4135 64.607C20.0076 59.7299 18.1812 53.9247 18.1812 47.9761C18.1812 42.0275 20.0076 36.2223 23.4135 31.3453C26.8195 26.4682 31.6407 22.7545 37.2255 20.7061C37.5981 20.5449 37.9111 20.2713 38.1206 19.9236C38.3302 19.5758 38.4259 19.1713 38.3943 18.7665V16.0478C38.4204 15.6912 38.3164 15.3371 38.1015 15.0514C37.8866 14.7656 37.5753 14.5674 37.2255 14.4936C36.9523 14.4651 36.6778 14.5341 36.4505 14.6884C29.3843 16.9343 23.2162 21.3706 18.8388 27.355C14.4615 33.3395 12.1021 40.5616 12.1021 47.9761C12.1021 55.3906 14.4615 62.6128 18.8388 68.5972C23.2162 74.5817 29.3843 79.0179 36.4505 81.2639C36.6119 81.3576 36.7932 81.4118 36.9795 81.422C37.1659 81.4322 37.352 81.3981 37.5226 81.3225C37.6933 81.2469 37.8436 81.1319 37.9612 80.987C38.0789 80.8421 38.1605 80.6714 38.1995 80.4889C38.3943 80.2941 38.3943 80.0993 38.3943 79.7097V76.9952C38.3943 76.4108 37.8099 75.6358 37.2255 75.2462ZM57.8024 14.6884C57.6408 14.5946 57.4591 14.5406 57.2725 14.5306C57.0859 14.5207 56.8996 14.5552 56.7289 14.6312C56.5582 14.7073 56.4079 14.8228 56.2905 14.9681C56.1731 15.1135 56.0919 15.2847 56.0534 15.4676C55.8629 15.6582 55.8629 15.853 55.8629 16.2426V18.9571C55.8956 19.3485 56.0175 19.7273 56.2194 20.0642C56.4213 20.4012 56.6977 20.6874 57.0274 20.9009C62.6122 22.9493 67.4334 26.663 70.8394 31.5401C74.2453 36.4171 76.0717 42.2223 76.0717 48.1709C76.0717 54.1195 74.2453 59.9247 70.8394 64.8018C67.4334 69.6788 62.6122 73.3926 57.0274 75.441C56.6552 75.6023 56.3428 75.8761 56.1339 76.2239C55.9251 76.5717 55.8303 76.9762 55.8629 77.3806V80.0993C55.8366 80.4553 55.94 80.8088 56.1541 81.0945C56.3681 81.3802 56.6784 81.5788 57.0274 81.6535C57.3007 81.682 57.5752 81.613 57.8024 81.4587C64.8659 79.1817 71.0251 74.723 75.3942 68.7241C79.7633 62.7251 82.1172 55.4949 82.1172 48.0735C82.1172 40.6521 79.7633 33.422 75.3942 27.423C71.0251 21.424 64.8659 16.9654 57.8024 14.6884Z" fill="white"/>
</g>
<defs>
<clipPath id="clip0_342_6658">
<rect width="93.1659" height="93.1659" fill="white" transform="translate(0.543457 0.908203)"/>
</clipPath>
</defs>
</svg>
