<svg width="94" height="95" viewBox="0 0 94 95" fill="none" xmlns="http://www.w3.org/2000/svg">
<g clip-path="url(#clip0_342_6662)">
<path d="M46.6406 94.0741C72.3676 94.0741 93.2235 73.2182 93.2235 47.4911C93.2235 21.7641 72.3676 0.908203 46.6406 0.908203C20.9135 0.908203 0.0576172 21.7641 0.0576172 47.4911C0.0576172 73.2182 20.9135 94.0741 46.6406 94.0741Z" fill="#2775C9"/>
<path d="M45.9125 80.9724C27.0173 80.9724 11.7031 65.6583 11.7031 46.7631C11.7031 27.8679 27.0173 12.5537 45.9125 12.5537C64.8077 12.5537 80.1218 27.8679 80.1218 46.7631C80.1218 55.8359 76.5176 64.5372 70.1021 70.9527C63.6866 77.3682 54.9854 80.9724 45.9125 80.9724ZM43.8745 34.0692C42.0027 34.162 40.2333 34.9512 38.9135 36.2817C37.5938 37.6122 36.8191 39.388 36.7415 41.2604C36.7415 44.7833 38.8959 47.0833 43.4669 48.0441L46.6694 48.8011C49.7847 49.5289 51.0657 50.577 51.0657 52.353C51.0657 54.129 48.8239 55.8758 45.9125 55.8758C44.8783 55.9707 43.8384 55.7725 42.9116 55.3039C41.9848 54.8354 41.2087 54.1154 40.6719 53.2264C40.5129 52.8891 40.2618 52.6036 39.9476 52.4027C39.6334 52.2018 39.2688 52.0938 38.8959 52.091H37.1782C37.0461 52.1154 36.9201 52.1658 36.8076 52.2391C36.695 52.3125 36.598 52.4073 36.5223 52.5183C36.4465 52.6292 36.3934 52.754 36.3661 52.8856C36.3388 53.0171 36.3377 53.1527 36.363 53.2847C36.7814 54.9924 37.7542 56.5132 39.1292 57.609C40.5042 58.7047 42.2038 59.3137 43.9618 59.3404V61.786C43.9618 62.3304 44.1781 62.8525 44.563 63.2374C44.9479 63.6224 45.47 63.8386 46.0144 63.8386C46.5587 63.8386 47.0808 63.6224 47.4657 63.2374C47.8507 62.8525 48.0669 62.3304 48.0669 61.786V59.3113C50.0548 59.2888 51.9554 58.4911 53.3638 57.0881C54.7723 55.6851 55.5773 53.7876 55.6075 51.7998C55.6075 48.1023 53.4822 45.977 48.4454 44.8997L45.534 44.2592C42.6225 43.5314 41.2542 42.5706 41.2542 40.9402C41.2542 39.3098 43.001 37.5047 45.9125 37.5047C46.8294 37.4089 47.7544 37.5806 48.5759 37.9991C49.3973 38.4176 50.0801 39.0649 50.5416 39.863C50.7288 40.2615 51.025 40.5988 51.396 40.8359C51.767 41.0729 52.1976 41.1999 52.6379 41.2022H54.0063C54.3174 41.1261 54.5862 40.931 54.755 40.6588C54.9237 40.3866 54.979 40.059 54.9088 39.7465C54.5144 38.1698 53.632 36.7579 52.3877 35.7122C51.1434 34.6666 49.6007 34.0406 47.9796 33.9236V31.9147C47.9796 31.3704 47.7633 30.8483 47.3784 30.4634C46.9935 30.0784 46.4714 29.8622 45.927 29.8622C45.3827 29.8622 44.8606 30.0784 44.4756 30.4634C44.0907 30.8483 43.8745 31.3704 43.8745 31.9147V34.0692ZM20.2627 46.7631C20.2661 52.1261 21.9542 57.3526 25.0887 61.7043C28.2232 66.056 32.6456 69.313 37.7313 71.0153H38.1389C38.4864 71.0153 38.8197 70.8773 39.0654 70.6316C39.3111 70.3859 39.4491 70.0526 39.4491 69.7051V69.0938C39.45 68.5518 39.2901 68.0218 38.9895 67.5708C38.6888 67.1199 38.2611 66.7684 37.7605 66.5608C33.7998 64.9621 30.4072 62.2163 28.0182 58.6757C25.6292 55.1352 24.3527 50.9614 24.3527 46.6903C24.3527 42.4191 25.6292 38.2454 28.0182 34.7048C30.4072 31.1643 33.7998 28.4184 37.7605 26.8197C38.2588 26.6173 38.6855 26.2711 38.9863 25.8251C39.287 25.3792 39.4481 24.8538 39.4491 24.3159V23.6463C39.451 23.4497 39.4054 23.2555 39.3163 23.0802C39.2272 22.905 39.0971 22.7538 38.9371 22.6395C38.7771 22.5252 38.5919 22.4512 38.3972 22.4237C38.2025 22.3963 38.0041 22.4161 37.8187 22.4817C32.7119 24.1706 28.2671 27.4256 25.1156 31.7844C21.9641 36.1433 20.2661 41.3843 20.2627 46.7631ZM71.5622 46.7631C71.5528 41.405 69.8618 36.185 66.7278 31.8391C63.5937 27.4932 59.1746 24.2406 54.0936 22.5399H53.6569C53.294 22.5399 52.9459 22.6841 52.6893 22.9407C52.4327 23.1973 52.2885 23.5454 52.2885 23.9083V24.345C52.3003 24.9065 52.4742 25.4527 52.7893 25.9176C53.1044 26.3825 53.5473 26.7464 54.0645 26.9653C58.0162 28.5687 61.3995 31.3147 63.7816 34.8519C66.1637 38.3892 67.4362 42.5567 67.4362 46.8213C67.4362 51.0858 66.1637 55.2534 63.7816 58.7906C61.3995 62.3279 58.0162 65.0739 54.0645 66.6773C53.5571 66.8985 53.1233 67.2597 52.8139 67.7186C52.5046 68.1775 52.3324 68.7152 52.3176 69.2684V69.7634C52.3201 69.9792 52.3736 70.1914 52.4738 70.3826C52.574 70.5738 52.7179 70.7386 52.894 70.8635C53.07 70.9885 53.2731 71.07 53.4866 71.1014C53.7002 71.1328 53.9181 71.1133 54.1227 71.0444C59.2077 69.3356 63.6272 66.0721 66.7566 61.7149C69.8859 57.3578 71.567 52.1275 71.5622 46.7631Z" fill="white"/>
</g>
<defs>
<clipPath id="clip0_342_6662">
<rect width="93.1659" height="93.1659" fill="white" transform="translate(0.0576172 0.908203)"/>
</clipPath>
</defs>
</svg>
