<svg width="94" height="95" viewBox="0 0 94 95" fill="none" xmlns="http://www.w3.org/2000/svg">
<g clip-path="url(#clip0_342_6666)">
<path d="M47.1557 94.0741C72.8827 94.0741 93.7386 73.2182 93.7386 47.4911C93.7386 21.7641 72.8827 0.908203 47.1557 0.908203C21.4286 0.908203 0.572754 21.7641 0.572754 47.4911C0.572754 73.2182 21.4286 94.0741 47.1557 94.0741Z" fill="#26A17B"/>
<path fill-rule="evenodd" clip-rule="evenodd" d="M52.7512 51.5188V51.513C52.431 51.5362 50.7802 51.6352 47.0972 51.6352C44.1567 51.6352 42.0866 51.5479 41.3588 51.513V51.5217C30.0391 51.0238 21.5902 49.0528 21.5902 46.6945C21.5902 44.3392 30.0391 42.3681 41.3588 41.8616V49.5594C42.0983 49.6118 44.2178 49.737 47.1467 49.737C50.6608 49.737 52.4222 49.5914 52.7512 49.5623V41.8674C64.0476 42.3711 72.4762 44.3421 72.4762 46.6945C72.4762 49.0528 64.0476 51.018 52.7512 51.5188ZM52.7512 41.0667V34.1783H68.5137V23.6738H25.5963V34.1783H41.3588V41.0638C28.5485 41.6519 18.9146 44.1907 18.9146 47.2302C18.9146 50.2698 28.5485 52.8056 41.3588 53.3967V75.4711H52.7512V53.3908C65.5412 52.8027 75.1518 50.2669 75.1518 47.2302C75.1518 44.1936 65.5412 41.6578 52.7512 41.0667Z" fill="white"/>
</g>
<defs>
<clipPath id="clip0_342_6666">
<rect width="93.1659" height="93.1659" fill="white" transform="translate(0.571777 0.908203)"/>
</clipPath>
</defs>
</svg>
