<svg width="94" height="94" viewBox="0 0 94 94" fill="none" xmlns="http://www.w3.org/2000/svg">
<g clip-path="url(#clip0_342_4624)">
<g opacity="0.98">
<path opacity="0.98" d="M47.0986 93.3363C37.8853 93.3363 28.879 90.6043 21.2185 85.4857C13.558 80.3671 7.58731 73.0918 4.06156 64.5799C0.535809 56.068 -0.386689 46.7017 1.41072 37.6655C3.20814 28.6293 7.64473 20.329 14.1595 13.8143C20.6742 7.29952 28.9745 2.86292 38.0107 1.06551C47.0469 -0.731904 56.4132 0.190594 64.9251 3.71635C73.437 7.2421 80.7123 13.2127 85.8309 20.8733C90.9495 28.5338 93.6815 37.5401 93.6815 46.7534C93.6815 59.1079 88.7737 70.9565 80.0377 79.6925C71.3017 88.4285 59.4531 93.3363 47.0986 93.3363Z" fill="#112451"/>
</g>
<path d="M48.9911 53.3034C48.9911 53.3034 42.8771 56.506 43.1683 61.5427C43.4594 66.5795 50.2139 74.2366 54.29 72.7226C58.366 71.2087 69.7206 64.6289 70.8851 58.1655C72.0497 51.7021 60.7533 48.4995 60.7533 48.4995L48.9911 53.3034Z" fill="#2844AD"/>
<path d="M64.7706 25.8497C61.0366 22.8106 56.5234 20.8824 51.746 20.2852C46.9687 19.6881 42.1197 20.446 37.7525 22.4724L31.1436 31.9055C31.4599 32.9663 32.0355 33.9316 32.8182 34.7144C33.601 35.4972 34.5663 36.0727 35.6272 36.3891C39.412 37.641 55.8034 31.3232 55.8034 31.3232L64.7706 25.8497Z" fill="#2844AD"/>
<path d="M21.7104 35.1072C21.7104 35.1072 27.2422 24.9463 34.6372 22.588C42.0323 20.2298 40.9841 27.6248 34.6372 30.6236C28.2903 33.6224 24.3016 35.3401 21.7104 35.1072Z" fill="#5493F7"/>
<path d="M20.6626 38.252C20.6626 38.252 12.1613 62.0966 35.4527 72.9562C35.4527 72.9562 37.2578 63.4359 33.9679 57.4092C31.5269 52.5875 28.5794 48.0394 25.1754 43.8419C23.5516 42.0783 22.0442 40.2111 20.6626 38.252Z" fill="#5493F7"/>
<path d="M71.6712 61.3105C71.6712 61.3105 65.5863 72.9563 56.7937 72.9563C56.569 72.8857 56.3616 72.7688 56.1847 72.6132C56.0078 72.4577 55.8655 72.2668 55.7668 72.0529C55.668 71.8391 55.6152 71.6069 55.6115 71.3714C55.6079 71.1359 55.6536 70.9022 55.7456 70.6854C56.2988 68.9967 61.8014 62.9992 71.6712 61.3105Z" fill="#5493F7"/>
<path d="M64.9742 26.0252C68.3753 28.6217 71.0357 32.0651 72.6895 36.0114C75.3845 42.4769 75.7751 49.6723 73.7959 56.3915C72.311 60.3219 70.011 59.3029 65.0616 58.2548C60.1121 57.2067 41.2752 51.9079 36.4131 45.4445C31.551 38.9811 35.3067 33.7987 41.5954 30.4506C47.8841 27.1024 60.8109 23.4632 64.9742 26.0252Z" fill="#5493F7"/>
<path d="M38.801 66.2316L38.3643 55.8087L52.4556 54.9644C52.4556 55.4302 52.4556 55.896 52.4556 56.3618C52.4556 56.8277 52.4556 57.3517 52.4556 57.8467C52.4556 58.3416 52.4556 58.8657 52.4556 59.3606C52.4556 59.8556 52.4556 60.3505 52.4556 60.8454C52.4556 61.3404 52.4556 61.8645 52.4556 62.3594C52.4556 62.8543 52.4556 63.3784 52.4556 63.8733C52.4556 64.3683 52.4556 64.805 52.4556 65.2417C52.4556 65.2417 52.4556 65.6784 52.4556 65.2417L38.7719 66.0569C38.7719 66.0569 38.8883 66.2898 38.801 66.2316Z" fill="#3C3B6E"/>
<path d="M74.5238 71.6164C74.5238 72.0822 74.5238 72.5772 74.5238 73.043C74.5238 73.043 74.5238 73.5088 74.5238 73.043L39.2954 75.1684C39.2954 75.1684 39.2954 74.2367 39.2954 73.7709H39.5283L74.4655 71.6746C74.4655 71.6746 74.4364 71.5582 74.5238 71.6164Z" fill="#B12234"/>
<path d="M74.5247 71.6176H74.3791L39.209 73.7429V72.229H39.4419L74.3791 70.1328C74.4545 70.1061 74.5367 70.1061 74.612 70.1328L74.5247 71.6176Z" fill="#FEFEFE"/>
<path d="M74.3502 67.1333V68.6472H74.1755L39.2383 70.7726C39.1629 70.7992 39.0807 70.7992 39.0054 70.7726V69.2586H39.2674L74.2046 67.1333C74.2046 67.1333 74.2919 67.1333 74.3502 67.1333Z" fill="#FEFEFE"/>
<path d="M74.3485 67.1342L39.1201 69.2596V67.7748L74.0573 65.6494C74.0573 65.6494 74.232 65.6494 74.3193 65.6494L74.3485 67.1342Z" fill="#B12234"/>
<path d="M74.3204 65.5895H74.1748L38.9756 67.7149V66.2009L52.9214 65.3857H53.2707L74.0875 64.1338C74.0875 64.1338 74.233 64.1338 74.3204 64.1338V65.5895Z" fill="#FEFEFE"/>
<path d="M38.9756 70.743L74.1748 68.6177V70.1025L38.9756 72.2279V70.743Z" fill="#B12234"/>
<path d="M52.688 56.3609V54.8469L73.8541 53.5659C73.8541 53.5659 73.8541 54.5267 73.8541 54.9925H73.5921L52.9209 56.3609C52.9209 56.3609 52.7462 56.4191 52.688 56.3609Z" fill="#B12234"/>
<path d="M52.688 56.3621L55.25 56.1874L73.7959 55.0811V56.5659L52.9209 57.876C52.8889 57.9047 52.8474 57.9205 52.8044 57.9205C52.7615 57.9205 52.72 57.9047 52.688 57.876V56.3621Z" fill="#FEFEFE"/>
<path d="M52.9214 63.8726V62.3587H53.1543L73.9419 61.0776C73.9419 61.0776 74.1166 61.0776 74.1749 61.0776V62.5916L53.329 63.8435C53.329 63.8435 52.9214 63.9308 52.9214 63.8726Z" fill="#FEFEFE"/>
<path d="M74.1457 61.0781L52.9214 62.3591V60.8452H53.1543L73.9419 59.5933C73.9419 59.5933 74.1166 59.5933 74.1749 59.5933L74.1457 61.0781Z" fill="#B12234"/>
<path d="M74.0875 59.5646L69.8368 59.8266L52.9214 60.8456V59.3608L73.7964 58.1089H74.0002L74.0875 59.5646Z" fill="#FEFEFE"/>
<path d="M52.9214 63.8738L74.0293 62.5928V64.0776L52.9796 65.3295L52.9214 63.8738Z" fill="#B12234"/>
<path d="M74.0584 58.0503H73.9128L52.9214 59.3604V57.8465L59.443 57.468L74.0002 56.5654L74.0584 58.0503Z" fill="#B12234"/>
<path d="M49.0205 62.9409V62.5915C49.0205 62.5915 49.0205 62.5915 49.0205 62.4459C48.9299 62.4073 48.85 62.3474 48.7876 62.2712H49.1079V61.9219C49.1079 61.9219 49.1079 62.0966 49.1079 62.1839C49.1079 62.2712 49.1079 62.3295 49.3117 62.1839H49.5446L49.3117 62.3877C49.3039 62.4943 49.3039 62.6014 49.3117 62.708L49.0205 62.5333V62.9409Z" fill="#FDFDFD"/>
<path d="M41.741 62.7076H42.0031C42.0031 62.7076 42.0031 62.7076 42.1486 62.7076C42.1263 62.6119 42.1263 62.5123 42.1486 62.4165C42.1486 62.4165 42.1486 62.6203 42.1486 62.7368C42.1486 62.7368 42.1486 62.8532 42.1486 62.7368H42.498C42.498 62.7368 42.498 62.8823 42.2651 62.9114C42.0322 62.9406 42.2651 62.9114 42.2651 63.1444C42.2737 63.2315 42.2737 63.3193 42.2651 63.4064L42.0031 63.2317C41.9291 63.3153 41.8402 63.3844 41.741 63.4355C41.7541 63.3292 41.7541 63.2216 41.741 63.1153C41.741 63.1153 41.741 63.1152 41.741 62.9697L41.479 62.795L41.741 62.7076Z" fill="#FDFDFD"/>
<path d="M46.021 59.9429L45.7589 59.7683L45.4969 60.0012C45.4899 59.8848 45.4899 59.7682 45.4969 59.6518L45.2349 59.448H45.5551C45.5468 59.3317 45.5468 59.2149 45.5551 59.0986V59.3607C45.5551 59.3607 45.5551 59.3607 45.7298 59.3607H45.9918L45.7589 59.5645C45.7485 59.5873 45.743 59.6121 45.743 59.6372C45.743 59.6624 45.7485 59.6872 45.7589 59.71C45.8587 59.7724 45.9473 59.8512 46.021 59.9429Z" fill="#FDFDFD"/>
<path d="M49.6313 55.9234L49.4275 56.069C49.4094 56.0825 49.3947 56.1001 49.3846 56.1203C49.3745 56.1405 49.3693 56.1628 49.3693 56.1854C49.3693 56.208 49.3745 56.2303 49.3846 56.2505C49.3947 56.2707 49.4094 56.2883 49.4275 56.3019V56.5639L49.1364 56.3892L48.8743 56.6221V56.2728L48.6123 56.069H48.9034C48.9034 56.069 48.9034 56.069 49.049 56.069C49.0355 55.9724 49.0355 55.8744 49.049 55.7778C49.049 55.7778 49.049 55.7778 49.049 55.9525C49.049 56.1272 49.049 56.1563 49.311 56.1272H49.5148L49.6313 55.9234Z" fill="#FDFDFD"/>
<path d="M40.4307 59.621H40.7509V59.3008C40.763 59.4072 40.763 59.5146 40.7509 59.621H41.0712C41.0067 59.695 40.9273 59.7545 40.8383 59.7957V59.9995V60.2907L40.5762 60.116C40.5762 60.116 40.5762 60.116 40.4307 60.116L40.1686 60.3198C40.1518 60.2235 40.1518 60.125 40.1686 60.0286C40.1686 60.0286 40.1686 59.8831 40.1686 59.8248H39.9648L40.4307 59.621Z" fill="#FDFDFD"/>
<path d="M48.5542 59.1564L48.2922 59.3602C48.3134 59.4659 48.3134 59.5747 48.2922 59.6804L48.0302 59.5057C48.0302 59.5057 48.0302 59.5057 47.8846 59.5057C47.8109 59.5975 47.7224 59.6763 47.6226 59.7387C47.6226 59.5931 47.6226 59.4766 47.6226 59.3893C47.6226 59.302 47.6226 59.3893 47.6226 59.3893C47.5322 59.3375 47.453 59.2682 47.3896 59.1855H47.6808C47.6695 59.079 47.6695 58.9717 47.6808 58.8652V59.0981C47.6808 59.2728 47.6808 59.2728 47.8846 59.2437H48.1175L48.5542 59.1564Z" fill="#FDFDFD"/>
<path d="M51.6687 61.689C51.6764 61.7956 51.6764 61.9026 51.6687 62.0092H51.9889L51.756 62.1839C51.756 62.1839 51.756 62.1839 51.756 62.3586C51.7852 62.4534 51.7852 62.5549 51.756 62.6497L51.494 62.4751C51.4261 62.5648 51.3357 62.6351 51.2319 62.6788V62.3877C51.2319 62.3877 51.2319 62.3877 51.2319 62.213C51.1414 62.1744 51.0615 62.1145 50.999 62.0383H51.3193L51.6687 61.689Z" fill="#FDFDFE"/>
<path d="M44.1878 62.5634H44.479C44.4659 62.4571 44.4659 62.3495 44.479 62.2432V62.5343H44.6536H44.9157L44.6828 62.7381C44.6828 62.7381 44.6828 62.7381 44.6828 62.8837C44.69 62.9903 44.69 63.0973 44.6828 63.2039L44.4207 63.0293L44.1587 63.2622V62.9128C44.1692 62.89 44.1746 62.8651 44.1746 62.84C44.1746 62.8149 44.1692 62.7901 44.1587 62.7672H43.9258L44.1878 62.5634Z" fill="#FDFDFE"/>
<path d="M39.6456 56.0991C39.6408 56.1961 39.6408 56.2933 39.6456 56.3903H39.9368L39.733 56.565C39.733 56.565 39.733 56.565 39.733 56.7688C39.7378 56.8657 39.7378 56.9629 39.733 57.0599L39.4418 56.8561L39.1798 57.0308V56.7396L38.8887 56.565H39.2089C39.2089 56.565 39.2089 56.565 39.3545 56.565C39.4235 56.3938 39.522 56.2361 39.6456 56.0991Z" fill="#FDFDFD"/>
<path d="M44.7119 56.8564L44.4498 56.6817L44.1878 56.9146C44.1808 56.7983 44.1808 56.6816 44.1878 56.5653L43.9258 56.3615H44.1878V56.0703C44.1998 56.1767 44.1998 56.2842 44.1878 56.3906H44.5081L44.246 56.5944C44.246 56.5944 44.246 56.5944 44.246 56.7399C44.4093 56.7329 44.5711 56.7733 44.7119 56.8564Z" fill="#FDFDFD"/>
<path d="M46.7203 55.6616C46.728 55.7682 46.728 55.8753 46.7203 55.9819H47.0405L46.7785 56.2148C46.7785 56.2148 46.7785 56.4186 46.7785 56.5351L46.5456 56.3604C46.5456 56.3604 46.4 56.3604 46.3418 56.3604L46.138 56.5351C46.1217 56.4387 46.1217 56.3403 46.138 56.2439V56.0692L45.876 55.8945H46.2253L46.7203 55.6616Z" fill="#FDFDFD"/>
<path d="M51.2902 55.9247C51.2673 55.8192 51.2673 55.71 51.2902 55.6045C51.2738 55.7106 51.2738 55.8186 51.2902 55.9247Z" fill="#FDFDFD"/>
<path d="M46.6615 63.0276V62.7365L46.3704 62.5327H46.6906V62.2124C46.6906 62.2124 46.6906 62.4453 46.6906 62.5327C46.6906 62.5327 46.6906 62.62 46.6906 62.5327H47.04L46.778 62.7656C46.7702 62.8722 46.7702 62.9792 46.778 63.0858L46.4868 62.9111L46.2539 63.1149L46.6615 63.0276Z" fill="#FDFDFD"/>
<path d="M43.2848 59.0391C43.2848 59.3011 43.2848 59.3011 43.6633 59.3011L43.4304 59.5049C43.4468 59.611 43.4468 59.719 43.4304 59.8252L43.1683 59.6505C43.1683 59.6505 43.1683 59.6505 43.0228 59.6505L42.7899 59.8543C42.7735 59.7481 42.7735 59.6401 42.7899 59.534L42.5278 59.3302H42.819L43.2848 59.0391Z" fill="#FDFDFD"/>
<path d="M39.4122 64.9495H39.7615V64.6001C39.7567 64.6971 39.7567 64.7943 39.7615 64.8912H40.0818L39.8198 65.1242C39.812 65.2308 39.812 65.3378 39.8198 65.4444L39.5286 65.2697L39.2666 65.4735V65.1533L39.4122 64.9495Z" fill="#FDFDFE"/>
<path d="M46.7487 65.1538C46.7487 65.1538 46.7487 64.95 46.7487 64.8627C46.7487 64.7753 46.7487 64.8627 46.7487 64.8627L46.4575 64.6589H46.8069L47.098 64.2222C47.1101 64.3286 47.1101 64.436 47.098 64.5424C47.1929 64.5132 47.2943 64.5132 47.3892 64.5424L47.1271 64.7462C47.1392 64.8526 47.1392 64.9601 47.1271 65.0665L47.098 64.95C47.098 64.95 47.098 64.95 46.9525 64.95L46.7195 65.1247L46.7487 65.1538Z" fill="#FDFDFE"/>
<path d="M51.7565 63.7842C51.7565 63.7842 51.7565 64.0171 51.7565 64.1335C51.7565 64.1335 51.7565 64.25 51.7565 64.1335H52.1058L51.8438 64.3665C51.8438 64.3665 51.8438 64.3665 51.8438 64.512V64.8323L51.5527 64.6285L51.2907 64.8614V64.512L51.2324 64.2209H51.5527C51.6031 64.0678 51.6715 63.9212 51.7565 63.7842Z" fill="#FDFDFE"/>
<path d="M42.6442 58.3987C42.5444 58.4611 42.4559 58.5398 42.3822 58.6316C42.3942 58.738 42.3942 58.8455 42.3822 58.9519L42.0911 58.7772L41.7999 59.0101C41.8099 58.8938 41.8099 58.777 41.7999 58.6607L41.5088 58.4569C41.6151 58.4425 41.7228 58.4425 41.829 58.4569C41.829 58.4569 41.829 58.4569 41.9746 58.3113C41.961 58.2245 41.961 58.1361 41.9746 58.0493C41.9981 58.1449 41.9981 58.2448 41.9746 58.3405L42.6442 58.3987Z" fill="#FEFEFE"/>
<path d="M49.5435 58.6893L49.2524 58.4855L48.9904 58.7184V58.369L48.6992 58.1652H48.9321C49.1068 58.1652 49.1068 58.1652 49.165 57.9614V57.7285V58.0779H49.4853L49.2233 58.3108L49.5435 58.6893Z" fill="#FEFEFE"/>
<path d="M41.2756 62.329V62.1543C41.2756 62.1543 41.2756 62.1543 41.1009 62.1543L40.868 62.3581C40.868 62.2125 40.868 62.1252 40.868 62.0087C40.868 61.8923 40.868 62.0087 40.868 62.0087L40.606 61.8049H40.9262C40.9 61.69 40.9 61.5705 40.9262 61.4556C40.9262 61.4556 40.9262 61.6885 40.9262 61.7758H41.2756L40.9844 62.0087C41.0882 62.1092 41.1854 62.2162 41.2756 62.329Z" fill="#FEFEFE"/>
<path d="M47.5643 61.3103H47.9136V60.9609C47.9214 61.0675 47.9214 61.1746 47.9136 61.2812H48.2339L47.9719 61.5141C47.9635 61.6304 47.9635 61.7472 47.9719 61.8635L47.7098 61.6597C47.7098 61.6597 47.7098 61.6597 47.5643 61.6597L47.3022 61.8635V61.5432C47.3022 61.5432 47.3022 61.5432 47.3022 61.3977L47.5643 61.3103Z" fill="#FEFEFE"/>
<path d="M43.896 58.3981H44.1871C44.1871 58.3981 44.3327 58.3981 44.3618 58.2526V57.9614C44.3618 57.9614 44.3618 58.1943 44.3618 58.3108C44.3618 58.3108 44.3618 58.4273 44.3618 58.3108H44.7112L44.4492 58.5437C44.4612 58.6501 44.4612 58.7576 44.4492 58.864L44.1871 58.6893C44.1135 58.7811 44.0249 58.8598 43.9251 58.9222C43.9251 58.7766 43.9251 58.6893 43.9251 58.5728C43.9251 58.4564 43.9251 58.5728 43.9251 58.5728L43.896 58.3981Z" fill="#FEFEFE"/>
<path d="M41.7713 64.8039H42.0624C42.0624 64.8039 42.208 64.8039 42.2371 64.6583C42.2261 64.5616 42.2261 64.4639 42.2371 64.3672C42.2449 64.4738 42.2449 64.5808 42.2371 64.6874H42.5574L42.2954 64.9204C42.2876 65.027 42.2876 65.134 42.2954 65.2406L42.0042 65.0659L41.7422 65.2989V64.9786C41.7422 64.9786 41.7422 64.9786 41.7422 64.8039H41.7713Z" fill="#FDFDFE"/>
<path d="M49.7486 65.0091L49.4866 64.8053L49.1954 65.0382C49.1954 65.0382 49.1954 64.8053 49.1954 64.718C49.1954 64.6306 49.1954 64.718 49.1954 64.5724L48.9043 64.3686H49.2537C49.2278 64.2634 49.2278 64.1535 49.2537 64.0483V64.2521C49.2537 64.4268 49.2537 64.4268 49.5157 64.4268H50.0106L49.7486 64.6597C49.7486 64.6597 49.7486 64.6597 49.7486 64.8053C49.7515 64.8732 49.7515 64.9412 49.7486 65.0091Z" fill="#FDFDFE"/>
<path d="M42.848 61.5734H43.1392C43.1392 61.5734 43.1392 61.5734 43.1392 61.4279V61.1367C43.1392 61.1367 43.1392 61.3696 43.1392 61.4861C43.1392 61.4861 43.1392 61.6025 43.1392 61.4861H43.4885L43.2265 61.719C43.2188 61.8256 43.2188 61.9326 43.2265 62.0393L42.9354 61.8646C42.8536 61.9394 42.766 62.0076 42.6733 62.0684V61.7481L42.848 61.5734Z" fill="#FEFEFE"/>
<path d="M45.2049 61.3103H45.5543C45.5543 61.3103 45.5543 61.1065 45.5543 60.9609V61.2812H45.8745L45.6125 61.5141V61.8053L45.3505 61.6597H45.1758L44.9429 61.8635C44.9429 61.7179 44.9429 61.6306 44.9429 61.5141C44.9429 61.3977 44.9429 61.5141 44.9429 61.5141L45.2049 61.3103Z" fill="#FEFEFE"/>
<path d="M50.825 61.7761L50.5629 61.5723C50.5629 61.5723 50.5629 61.5723 50.4174 61.5723L50.1553 61.7761C50.1481 61.6695 50.1481 61.5625 50.1553 61.4559L50.0098 61.3103H50.3591C50.3591 61.3103 50.3591 61.1065 50.3591 60.9609V61.223C50.3591 61.223 50.3591 61.3977 50.5338 61.3685H50.7959L50.5629 61.5723C50.5629 61.5723 50.5629 61.5723 50.5629 61.747L50.825 61.7761Z" fill="#FEFEFE"/>
<path d="M47.3612 58.1375L47.0991 58.3995V58.7489L46.8371 58.545H46.6624L46.4295 58.7489C46.4126 58.6428 46.4126 58.5347 46.4295 58.4286C46.4295 58.4286 46.4295 58.4286 46.4295 58.283L46.1675 58.1083H46.4586V57.7881C46.4586 57.7881 46.4586 58.021 46.4586 58.1083L47.3612 58.1375Z" fill="#FEFEFE"/>
<path d="M39.441 59.2718C39.4273 59.1655 39.4273 59.0579 39.441 58.9516L39.1499 58.7478H39.4119C39.5575 58.7478 39.5575 58.7478 39.6157 58.5439C39.6081 58.4665 39.6081 58.3885 39.6157 58.311V58.6313H39.9651L39.674 58.8642C39.6904 58.9703 39.6904 59.0783 39.674 59.1845L39.4119 59.0098C39.4119 59.0098 39.4119 59.0098 39.2664 59.0098C39.3417 59.0844 39.4011 59.1736 39.441 59.2718Z" fill="#FEFEFE"/>
<path d="M46.3415 63.4934C46.3415 63.4934 46.0794 63.6389 46.0503 63.7554C46.0415 63.8814 46.0415 64.0079 46.0503 64.1339L45.7883 63.9301C45.7883 63.9301 45.7883 63.9301 45.6427 63.9301L45.3807 64.1339C45.3807 64.1339 45.3807 63.901 45.3807 63.7845C45.3807 63.668 45.3807 63.7845 45.3807 63.7845L45.1187 63.6098H45.4389V63.2896C45.4505 63.3863 45.4505 63.484 45.4389 63.5807C45.4389 63.5807 45.4389 63.5807 45.5845 63.5807L46.3415 63.4934Z" fill="#FEFEFE"/>
<path d="M41.6255 60.6111H41.9457V60.2617C41.9541 60.378 41.9541 60.4948 41.9457 60.6111H42.2951L42.0331 60.844C42.0248 60.9603 42.0248 61.0771 42.0331 61.1934L41.7711 60.9896C41.7711 60.9896 41.7711 60.9896 41.6255 60.9896L41.8584 61.3098V60.9605L41.6255 60.6111Z" fill="#FEFEFE"/>
<path d="M43.7504 57.3221L43.5175 57.5259C43.5175 57.5259 43.5175 57.5259 43.5175 57.6715V57.9917L43.2264 57.7879L42.9935 57.9917V57.6424L42.7314 57.4677H43.0517C43.0517 57.4677 43.0517 57.2639 43.0517 57.1183C43.0517 56.9727 43.0517 57.3512 43.0517 57.4677C43.0517 57.4677 43.0517 57.5841 43.0517 57.4677H43.372L43.7504 57.3221Z" fill="#FEFEFE"/>
<path d="M50.8251 56.9137L50.6213 57.0884C50.6213 57.0884 50.6213 57.0884 50.6213 57.2631C50.6376 57.3594 50.6376 57.4578 50.6213 57.5542L50.3593 57.3795C50.3593 57.3795 50.3593 57.3795 50.2137 57.3795L49.9517 57.6124C49.9447 57.4961 49.9447 57.3794 49.9517 57.2631V57.1175L49.7188 56.9428H50.0099V56.6226C50.0219 56.729 50.0219 56.8364 50.0099 56.9428H50.301L50.8251 56.9137Z" fill="#FEFEFE"/>
<path d="M39.4988 61.3102C39.4988 61.1646 39.4988 61.0773 39.4988 60.9608C39.4988 60.8444 39.4988 60.9608 39.4988 60.9608L39.2368 60.7861H39.5571C39.5571 60.7861 39.5571 60.5823 39.5571 60.4368C39.5571 60.2912 39.5571 60.6697 39.5571 60.757C39.5571 60.757 39.5571 60.8444 39.5571 60.757H39.8482C39.8482 60.757 39.8482 60.757 39.7026 60.9317C39.5571 61.1064 39.7026 60.9317 39.7026 61.2229V61.4558L39.4115 61.252L39.4988 61.3102Z" fill="#FEFEFE"/>
<path d="M46.575 60.9608V60.6405C46.575 60.6405 46.575 60.6405 46.575 60.4949C46.4755 60.4574 46.3859 60.3977 46.313 60.3203H46.6041C46.6114 60.2136 46.6114 60.1066 46.6041 60V60.3494H46.9535L46.6624 60.5823C46.6624 60.5823 46.6624 60.7861 46.6624 60.9317L47.0991 60.7279L46.575 60.9608Z" fill="#FEFEFE"/>
<path d="M50.0106 63.2618H50.2727V62.9707C50.2727 62.9707 50.2727 63.1745 50.2727 63.291C50.2727 63.291 50.2727 63.4074 50.2727 63.291H50.5638C50.5195 63.3721 50.447 63.4343 50.36 63.4656C50.36 63.4656 50.36 63.4656 50.36 63.6694C50.3649 63.7664 50.3649 63.8636 50.36 63.9606L50.1271 63.815C50.1271 63.815 49.9815 63.815 49.8942 63.815L49.6904 63.9897C49.6735 63.8934 49.6735 63.7949 49.6904 63.6986V63.5239L50.0106 63.291V63.2618Z" fill="#FEFEFE"/>
<path d="M48.6997 63.3497L48.4668 63.5535C48.4668 63.5535 48.4668 63.5535 48.4668 63.699C48.4591 63.8057 48.4591 63.9127 48.4668 64.0193L48.2048 63.8446C48.2048 63.8446 48.2048 63.8446 48.0301 63.8446L47.7972 64.0484V63.699C47.7013 63.6547 47.6129 63.5958 47.5352 63.5244H47.8554C47.8458 63.4178 47.8458 63.3106 47.8554 63.2041C47.8682 63.3007 47.8682 63.3986 47.8554 63.4952H48.0301L48.6997 63.3497Z" fill="#FEFEFE"/>
<path d="M44.0127 63.6114L43.7507 63.8443C43.7507 63.8443 43.7507 63.8443 43.7507 63.9899C43.7719 64.0956 43.7719 64.2044 43.7507 64.3101L43.576 64.2228C43.576 64.2228 43.576 64.2228 43.4013 64.2228L43.1393 64.4266V64.1063C43.1393 64.1063 43.1393 64.1063 43.1393 63.9608L42.8481 63.7861H43.1684C43.1757 63.6795 43.1757 63.5724 43.1684 63.4658C43.1804 63.5722 43.1804 63.6797 43.1684 63.7861C43.1684 63.7861 43.1684 63.7861 43.314 63.7861L44.0127 63.6114Z" fill="#FEFEFE"/>
<path d="M41.0715 63.3774C41.0799 63.4938 41.0799 63.6105 41.0715 63.7268H41.3918L41.1298 63.9597C41.1382 64.076 41.1382 64.1928 41.1298 64.3091L41.2753 64.2218C41.2017 64.3136 41.1131 64.3923 41.0133 64.4547C41.0133 64.3091 41.0133 64.2218 41.0133 64.1053C41.0133 63.9888 41.0133 64.1053 41.0133 64.1053L40.7222 63.9306H41.0715C41.0715 63.9306 41.0424 63.523 41.0715 63.3774Z" fill="#FEFEFE"/>
<path d="M45.4096 57.2353C45.4 57.1288 45.4 57.0216 45.4096 56.915C45.4216 57.0215 45.4216 57.1289 45.4096 57.2353Z" fill="#FEFEFE"/>
<path d="M47.9428 56.6226C47.9511 56.7389 47.9511 56.8556 47.9428 56.9719H48.263L48.0301 57.1757C48.0301 57.1757 48.0301 57.3795 48.0301 57.496L47.7681 57.3213L47.506 57.5251C47.4892 57.4288 47.4892 57.3303 47.506 57.234C47.506 57.234 47.506 57.0884 47.506 57.0302L47.3022 56.8846H47.5934C47.5934 56.8846 47.9137 56.7681 47.9428 56.6226Z" fill="#FEFEFE"/>
<path d="M44.013 60.4661H44.3333V60.1167C44.3333 60.1167 44.3333 60.2623 44.3333 60.3496C44.3361 60.3759 44.3449 60.4012 44.3589 60.4236C44.373 60.446 44.3919 60.465 44.4144 60.479C44.4368 60.493 44.4621 60.5017 44.4884 60.5046C44.5147 60.5074 44.5413 60.5042 44.5662 60.4952C44.5662 60.4952 44.5662 60.4952 44.77 60.4952L44.5371 60.699C44.546 60.8056 44.546 60.9127 44.5371 61.0192L44.2459 60.8154L43.9839 61.0484V60.699L44.013 60.4661Z" fill="#FEFEFE"/>
<path d="M52.1354 60.0011L51.9025 60.1758C51.9025 60.1758 51.9025 60.1758 51.9025 60.3214V60.6416L51.6405 60.4669L51.4075 60.6707C51.3907 60.5646 51.3907 60.4566 51.4075 60.3505C51.418 60.3276 51.4234 60.3028 51.4234 60.2777C51.4234 60.2526 51.418 60.2277 51.4075 60.2049C51.308 60.1674 51.2184 60.1076 51.1455 60.0302H51.4658C51.4429 59.9247 51.4429 59.8155 51.4658 59.71V60.0011C51.4658 60.0011 51.4658 60.0011 51.6113 60.0011H51.9025H52.1354Z" fill="#FEFEFE"/>
</g>
<defs>
<clipPath id="clip0_342_4624">
<rect width="93.1659" height="93.1659" fill="white" transform="translate(0.515625 0.17041)"/>
</clipPath>
</defs>
</svg>
