<svg width="94" height="95" viewBox="0 0 94 95" fill="none" xmlns="http://www.w3.org/2000/svg">
<g clip-path="url(#clip0_342_6670)">
<path d="M46.6674 94.0741C72.3945 94.0741 93.2503 73.2182 93.2503 47.4911C93.2503 21.7641 72.3945 0.908203 46.6674 0.908203C20.9404 0.908203 0.0844727 21.7641 0.0844727 47.4911C0.0844727 73.2182 20.9404 94.0741 46.6674 94.0741Z" fill="#30367A"/>
<path d="M41.8725 65.8275V27.1928H30.6548V18.377H62.6806V27.1928H51.4628V65.8275H41.8725ZM39.2901 76.6056C33.4993 76.6056 30.7596 73.8223 30.7596 67.9354V29.7199H39.1853V67.5452C39.1853 68.4769 39.491 68.7855 40.4052 68.7855H53.0379C53.9521 68.7855 54.2607 68.474 54.2607 67.5452V29.7199H62.6806V67.9354C62.6806 73.8223 59.938 76.6056 54.1501 76.6056H39.2901Z" fill="white"/>
</g>
<defs>
<clipPath id="clip0_342_6670">
<rect width="93.1659" height="93.1659" fill="white" transform="translate(0.0854492 0.908203)"/>
</clipPath>
</defs>
</svg>
