<svg width="94" height="95" viewBox="0 0 94 95" fill="none" xmlns="http://www.w3.org/2000/svg">
<g clip-path="url(#clip0_342_6674)">
<path d="M47.1825 94.0741C72.9096 94.0741 93.7655 73.2182 93.7655 47.4911C93.7655 21.7641 72.9096 0.908203 47.1825 0.908203C21.4555 0.908203 0.599609 21.7641 0.599609 47.4911C0.599609 73.2182 21.4555 94.0741 47.1825 94.0741Z" fill="#FF9933"/>
<path d="M18.0684 24.2002C21.2826 24.206 24.4997 24.206 27.711 24.2002L33.7988 56.75C33.8949 57.2304 34.0114 57.705 34.1366 58.1766C34.614 56.2842 34.9139 54.351 35.3128 52.4411L40.8561 24.2002L50.1844 24.2031C46.7635 39.4357 43.3425 54.6713 39.9158 69.9039H28.337C24.9102 54.68 21.4893 39.4561 18.0684 24.2293V24.2002ZM53.9198 38.5594C55.949 36.009 59.1924 34.8531 62.3192 34.6493C65.4054 34.4339 68.7302 34.7134 71.3447 36.5534C73.6593 38.1722 74.9287 40.9089 75.5313 43.6311C76.2621 47.0433 76.2999 50.5487 76.297 54.0249H59.2069C59.2215 56.5957 59.0613 59.248 59.9202 61.7111C60.3366 62.9223 61.1139 64.1276 62.3484 64.5672C63.6643 64.9952 65.2481 64.7157 66.2089 63.6559C67.4899 62.206 67.7578 60.1739 68.0373 58.3135H75.7934C75.6187 61.3996 75.048 64.6604 73.0275 67.0856C71.0011 69.6069 67.7345 70.6376 64.6426 70.7628C61.2828 70.8909 57.6347 70.4338 54.9562 68.1716C52.4669 66.0957 51.381 62.8058 50.9501 59.6527C50.5192 56.0222 50.4959 52.3479 50.6968 48.6999C50.9676 45.1421 51.611 41.3747 53.9168 38.5565L53.9198 38.5594ZM60.5404 42.1841C59.2186 44.0882 59.1836 46.5396 59.2069 48.7843H68.0344C67.8975 46.6503 67.9121 44.3968 66.9513 42.4432C65.7576 40.0326 61.9844 40.0238 60.5462 42.187H60.5404V42.1841Z" fill="white"/>
</g>
<defs>
<clipPath id="clip0_342_6674">
<rect width="93.1659" height="93.1659" fill="white" transform="translate(0.599609 0.908203)"/>
</clipPath>
</defs>
</svg>
