<svg width="94" height="95" viewBox="0 0 94 95" fill="none" xmlns="http://www.w3.org/2000/svg">
<g clip-path="url(#clip0_342_6678)">
<path d="M46.6967 94.0741C72.4238 94.0741 93.2796 73.2182 93.2796 47.4911C93.2796 21.7641 72.4238 0.908203 46.6967 0.908203C20.9697 0.908203 0.11377 21.7641 0.11377 47.4911C0.11377 73.2182 20.9697 94.0741 46.6967 94.0741Z" fill="#15BDFF"/>
<path d="M43.0224 72.9195L20.6102 27.2449C20.5285 27.0767 20.4907 26.8904 20.5005 26.7036C20.5103 26.5168 20.5673 26.3356 20.6662 26.1768C20.7651 26.018 20.9026 25.8869 21.0659 25.7957C21.2292 25.7045 21.413 25.6562 21.6001 25.6553H29.3678C29.7841 25.6553 30.1742 25.8882 30.3577 26.255L46.7257 59.3901C48.1814 62.3597 52.4059 62.3597 53.8646 59.3901L70.1802 26.2812C70.2743 26.1 70.4164 25.9482 70.591 25.8424C70.7656 25.7367 70.966 25.681 71.1701 25.6815H72.1367C72.7103 25.6815 73.0742 26.2812 72.8151 26.7762L50.1641 72.9224C48.7055 75.8921 44.4839 75.8921 43.0224 72.9224V72.9195Z" fill="white"/>
</g>
<defs>
<clipPath id="clip0_342_6678">
<rect width="93.1659" height="93.1659" fill="white" transform="translate(0.113281 0.908203)"/>
</clipPath>
</defs>
</svg>
