<svg width="94" height="95" viewBox="0 0 94 95" fill="none" xmlns="http://www.w3.org/2000/svg">
<g clip-path="url(#clip0_342_6682)">
<path d="M47.2094 94.0741C72.9364 94.0741 93.7923 73.2182 93.7923 47.4911C93.7923 21.7641 72.9364 0.908203 47.2094 0.908203C21.4824 0.908203 0.626465 21.7641 0.626465 47.4911C0.626465 73.2182 21.4824 94.0741 47.2094 94.0741Z" fill="#565656"/>
<path d="M33.0395 42.5299H23.9325V37.5252H31.1238L25.6066 23.1136L30.1601 21.2881L40.4957 48.2683L53.8912 48.3557L64.2588 21.2881L68.8152 23.1136L63.2951 37.5252H70.4864V42.5328H61.3794L59.1347 48.3848L70.5009 48.4576L70.4718 53.4623L57.2248 53.3779L47.2094 79.5168L37.1475 53.2527L23.918 53.1654L23.9471 48.1635L35.226 48.2363L33.0395 42.5299ZM42.4143 53.2847L47.2094 65.7981L51.9784 53.3459L42.4143 53.2847Z" fill="white"/>
</g>
<defs>
<clipPath id="clip0_342_6682">
<rect width="93.1659" height="93.1659" fill="white" transform="translate(0.627441 0.908203)"/>
</clipPath>
</defs>
</svg>
