<svg width="94" height="95" viewBox="0 0 94 95" fill="none" xmlns="http://www.w3.org/2000/svg">
<g clip-path="url(#clip0_342_6690)">
<path d="M47.2392 94.0741C72.9662 94.0741 93.8221 73.2182 93.8221 47.4911C93.8221 21.7641 72.9662 0.908203 47.2392 0.908203C21.5121 0.908203 0.65625 21.7641 0.65625 47.4911C0.65625 73.2182 21.5121 94.0741 47.2392 94.0741Z" fill="#338BE5"/>
<path d="M66.5415 50.1641C68.6668 50.7347 70.7631 51.3956 72.6497 52.5573C73.4882 53.0726 74.2713 53.6782 74.9788 54.3594C76.0269 55.524 75.9571 56.7526 75.0021 57.9842C74.1636 59.0556 73.0223 59.7398 71.8083 60.3104C68.7338 61.7923 65.473 62.6366 62.1423 63.1374C59.4376 63.545 56.6892 63.7779 53.9612 64.1186C53.833 64.1459 53.7114 64.1983 53.6035 64.2727C53.4956 64.3472 53.4034 64.4422 53.3323 64.5524C51.4224 67.3997 49.5358 70.25 47.6259 73.1003C47.4725 73.2883 47.3324 73.4868 47.2066 73.6943C45.1895 70.6675 43.1931 67.627 41.2178 64.5727C41.1346 64.4297 41.0158 64.3105 40.873 64.2269C40.7301 64.1432 40.5681 64.0979 40.4026 64.0953C34.9495 63.708 29.5692 63.0006 24.4189 61.1547C22.7884 60.5841 21.2279 59.8766 19.877 58.8052C19.8042 58.7353 19.7111 58.6887 19.6441 58.6218C17.6643 56.9593 17.6148 55.1805 19.5276 53.4685C21.0416 52.1002 22.9049 51.3257 24.8381 50.7318C26.7713 50.1379 28.7278 49.707 30.6872 49.2062C30.7803 49.1829 30.8735 49.1829 31.0365 49.1363C26.8179 42.6846 22.6487 36.2998 18.3835 29.8248C18.6397 29.8015 18.826 29.7782 18.989 29.7782C21.6239 29.7549 24.2558 29.7782 26.8877 29.7549C27.0738 29.7437 27.2591 29.7874 27.4206 29.8806C27.5821 29.9738 27.7126 30.1123 27.7961 30.279C34.1722 40.0032 40.5424 49.7303 46.9039 59.4661C46.9973 59.6288 47.1065 59.7819 47.2299 59.9232C48.6973 57.7105 50.1181 55.591 51.5156 53.4685C56.6397 45.7241 61.7667 37.9884 66.8938 30.2586C67.0801 29.9849 67.2198 29.7782 67.6391 29.7782C70.4108 29.8015 73.1854 29.8015 75.9571 29.8015C76.0881 29.8015 76.2191 29.8073 76.353 29.8248C72.0269 36.3518 67.6928 42.8734 63.3505 49.3896C64.4482 49.6604 65.4963 49.8904 66.5444 50.1641H66.5415ZM26.5617 55.6376C27.1032 56.2402 27.7408 56.7585 28.4483 57.1631C31.3597 58.7149 34.5768 59.2827 37.9104 59.7834C37.8639 59.6262 37.8639 59.5563 37.8406 59.5127C35.951 56.6595 34.0877 53.7888 32.2011 50.9385C32.1254 50.8642 32.0332 50.8088 31.932 50.7769C31.8308 50.745 31.7235 50.7376 31.6188 50.7551C30.5125 51.119 29.4294 51.5528 28.3784 52.0565C27.698 52.4313 27.0906 52.9254 26.585 53.5151C26.3024 53.7939 26.1413 54.1731 26.137 54.5701C26.1326 54.9671 26.2853 55.3497 26.5617 55.6346V55.6376ZM63.2574 58.0977C64.527 57.7549 65.6889 57.0958 66.6346 56.182C67.5692 55.2503 67.5692 54.1993 66.6346 53.2414C66.4035 52.9914 66.1378 52.7757 65.8456 52.6009C64.8441 52.1002 63.796 51.6227 62.7683 51.1219C62.4189 50.9385 62.2093 51.0753 61.9996 51.3956C60.9049 53.0842 59.787 54.7437 58.669 56.412C57.9702 57.4601 57.2715 58.5315 56.5494 59.6262C56.735 59.6496 56.9228 59.6496 57.1084 59.6262C59.1581 59.1255 61.231 58.6684 63.2574 58.0977ZM63.2807 27.1113L47.3231 52.534L31.153 27.1113H63.2807Z" fill="white"/>
</g>
<defs>
<clipPath id="clip0_342_6690">
<rect width="93.1659" height="93.1659" fill="white" transform="translate(0.655273 0.908203)"/>
</clipPath>
</defs>
</svg>
