<svg width="94" height="95" viewBox="0 0 94 95" fill="none" xmlns="http://www.w3.org/2000/svg">
<g clip-path="url(#clip0_342_6694)">
<path d="M46.7519 94.0741C72.4789 94.0741 93.3348 73.2182 93.3348 47.4911C93.3348 21.7641 72.4789 0.908203 46.7519 0.908203C21.0248 0.908203 0.168945 21.7641 0.168945 47.4911C0.168945 73.2182 21.0248 94.0741 46.7519 94.0741Z" fill="#408AF1"/>
<path d="M67.2752 30.8302C67.5855 30.3029 67.9983 29.843 68.4892 29.4777C68.9801 29.1125 69.5391 28.8492 70.1334 28.7035C70.7277 28.5578 71.3451 28.5325 71.9493 28.6293C72.5535 28.726 73.1322 28.9428 73.6512 29.2668C75.8348 30.6352 76.5219 33.5466 75.1826 35.7797C70.2216 44.0423 64.6229 52.6893 59.9558 59.2924C53.1431 68.9292 51.667 72.2395 46.7525 72.2395C41.838 72.2395 40.7316 69.3194 33.7238 59.2662C29.5605 53.2978 24.3403 45.3059 18.3806 35.8699C17.713 34.8138 17.484 33.5389 17.7423 32.3165C18.0006 31.0941 18.7258 30.0208 19.7635 29.325C20.2746 28.9885 20.848 28.7578 21.4497 28.6466C22.0515 28.5354 22.6695 28.5459 23.2671 28.6775C23.8647 28.8091 24.4299 29.0592 24.9293 29.413C25.4286 29.7667 25.852 30.2169 26.1745 30.7371C32.0643 40.0595 45.3696 59.4904 46.7903 61.2227C48.2752 59.4642 62.4306 38.9007 67.2752 30.8273V30.8302Z" fill="white"/>
</g>
<defs>
<clipPath id="clip0_342_6694">
<rect width="93.1659" height="93.1659" fill="white" transform="translate(0.169922 0.908203)"/>
</clipPath>
</defs>
</svg>
