<svg width="94" height="95" viewBox="0 0 94 95" fill="none" xmlns="http://www.w3.org/2000/svg">
<g clip-path="url(#clip0_342_6698)">
<path d="M47.2665 94.0741C72.9936 94.0741 93.8495 73.2182 93.8495 47.4911C93.8495 21.7641 72.9936 0.908203 47.2665 0.908203C21.5395 0.908203 0.683594 21.7641 0.683594 47.4911C0.683594 73.2182 21.5395 94.0741 47.2665 94.0741Z" fill="#418BCA"/>
<path d="M59.6836 24.2002H73.4693L47.2664 76.606L21.0635 24.2002H34.7589L47.3566 50.7321L59.6836 24.2002ZM47.2664 38.638C44.9722 38.638 43.1118 36.7281 43.1118 34.3727C43.1118 32.0174 44.9722 30.1046 47.2664 30.1046C49.5606 30.1046 51.421 32.0174 51.421 34.3727C51.421 36.7281 49.5577 38.638 47.2664 38.638ZM66.0888 50.4002C68.383 50.4002 70.2434 52.313 70.2405 54.6683C70.2405 57.0266 68.383 58.9336 66.0888 58.9336C63.7946 58.9336 61.9342 57.0237 61.9342 54.6683C61.9342 52.313 63.7946 50.4031 66.0888 50.4031V50.4002Z" fill="white"/>
</g>
<defs>
<clipPath id="clip0_342_6698">
<rect width="93.1659" height="93.1659" fill="white" transform="translate(0.683594 0.908203)"/>
</clipPath>
</defs>
</svg>
