<svg width="94" height="95" viewBox="0 0 94 95" fill="none" xmlns="http://www.w3.org/2000/svg">
<g clip-path="url(#clip0_342_6702)">
<path d="M46.7812 94.0741C72.5082 94.0741 93.3641 73.2182 93.3641 47.4911C93.3641 21.7641 72.5082 0.908203 46.7812 0.908203C21.0541 0.908203 0.198242 21.7641 0.198242 47.4911C0.198242 73.2182 21.0541 94.0741 46.7812 94.0741Z" fill="#FFB500"/>
<path d="M81.4209 43.2027C80.5789 36.4172 77.7648 30.0277 73.3271 24.8258C70.222 21.1747 66.3908 18.2101 62.0773 16.1206C56.2878 13.2934 49.8276 12.1273 43.415 12.752C37.4682 13.3271 31.7688 15.4196 26.8626 18.8291C21.9564 22.2385 18.0079 26.8507 15.3954 32.2237C12.2781 38.6398 11.1972 45.8557 12.2976 52.9036C13.3506 59.6374 16.3573 65.9138 20.9446 70.9545C27.4808 78.2389 37.2224 82.4983 47.0077 82.3848C51.9335 82.3534 56.7969 81.2796 61.278 79.234C65.7591 77.1885 69.7564 74.2174 73.0071 70.5163C76.2577 66.8152 78.688 62.4679 80.1381 57.7603C81.5883 53.0527 82.0255 48.0914 81.4209 43.2027ZM70.7825 35.6621C70.623 35.8846 70.4846 36.1214 70.3691 36.3696L55.0025 68.7389C54.2659 70.2849 53.5264 71.8483 52.6879 73.339C48.8827 73.3099 45.0775 73.3244 41.2693 73.3244C35.2048 60.8402 29.1694 48.3443 23.0903 35.8747C22.9651 35.633 22.837 35.3768 22.7089 35.1351C22.8079 35.0653 23.035 34.9372 23.134 34.8789C25.5068 31.9268 27.9087 28.9862 30.2932 26.0311C30.5902 25.6497 30.9337 25.2799 31.2714 24.9393C31.4287 25.1926 31.583 25.4488 31.7111 25.7341C33.0329 28.7737 34.3808 31.8278 35.7288 34.8644C37.0972 34.8644 38.4569 34.8935 39.834 34.8062C40.3318 35.2778 40.6026 35.9038 40.8006 36.5414C41.0568 35.8892 41.1558 35.1934 41.1849 34.483C41.6245 30.407 41.6973 26.2873 42.1369 22.2113C42.2068 21.332 43.5286 21.332 43.6421 22.1822C44.0672 26.0457 44.1662 29.9528 44.4806 33.8279C44.5388 34.9925 44.5796 36.1571 44.8358 37.2925C45.4181 36.5268 45.2318 35.1788 46.2973 34.8644C47.1795 34.5674 48.1723 35.0653 49.0108 34.5383C50.1608 33.8425 50.5859 32.4799 51.3108 31.4143C51.7243 30.7185 52.6734 30.2206 53.442 30.6195C54.2077 30.9165 54.5338 31.7404 54.9327 32.3955C55.3868 33.1466 55.8003 33.9851 56.5369 34.483C57.1919 34.7654 57.9285 34.8091 58.6389 34.7945C60.0742 31.557 61.5503 28.3311 63.0148 25.1082C65.571 28.3195 67.9846 31.6298 70.5408 34.8382C70.9252 35.007 70.995 35.2924 70.7825 35.6621Z" fill="white"/>
<path d="M52.816 31.5995C51.666 32.8514 51.2555 34.8661 49.5349 35.5066C48.6556 35.9317 47.59 35.5765 46.7108 35.9055C45.9422 37.4107 46.0411 39.1837 45.4589 40.7472C45.0629 41.4867 43.8692 41.1169 43.8692 40.3076C43.3743 36.0598 43.3306 31.7712 42.8764 27.5264C42.3931 31.3462 42.265 35.2067 41.6682 38.9974C41.6682 39.9815 40.1193 40.1358 39.9795 39.1575C39.6797 38.0512 39.6098 36.8866 39.0537 35.8472C38.093 35.833 37.1321 35.833 36.1714 35.8472C39.7932 44.0575 43.3859 52.2648 47.0077 60.4751C50.6732 52.2648 54.4639 44.1128 58.1003 35.8909L58.1149 35.8618C57.1628 35.7453 56.1263 35.6493 55.3315 35.0524C54.2252 34.1295 53.7972 32.6505 52.816 31.5995Z" fill="white"/>
</g>
<defs>
<clipPath id="clip0_342_6702">
<rect width="93.1659" height="93.1659" fill="white" transform="translate(0.197266 0.908203)"/>
</clipPath>
</defs>
</svg>
