<svg width="94" height="95" viewBox="0 0 94 95" fill="none" xmlns="http://www.w3.org/2000/svg">
<g clip-path="url(#clip0_342_6708)">
<path d="M47.2948 94.0741C73.0219 94.0741 93.8778 73.2182 93.8778 47.4911C93.8778 21.7641 73.0219 0.908203 47.2948 0.908203C21.5678 0.908203 0.711914 21.7641 0.711914 47.4911C0.711914 73.2182 21.5678 94.0741 47.2948 94.0741Z" fill="#048657"/>
<path d="M8.37451 49.1507L14.0518 42.6844H34.2513L46.6628 58.5168L79.1398 13.5264C81.1335 15.3256 82.9471 17.3148 84.5551 19.4657C86.2309 21.695 87.6894 24.0797 88.9106 26.5871L49.0385 81.7383C48.2844 82.5303 47.4925 82.9262 46.6628 82.9262C45.8301 82.9262 44.9945 82.5303 44.1531 81.7383L18.9372 49.1478H8.37451V49.1507Z" fill="white"/>
</g>
<defs>
<clipPath id="clip0_342_6708">
<rect width="93.1659" height="93.1659" fill="white" transform="translate(0.711426 0.908203)"/>
</clipPath>
</defs>
</svg>
