<svg width="94" height="95" viewBox="0 0 94 95" fill="none" xmlns="http://www.w3.org/2000/svg">
<g clip-path="url(#clip0_342_6712)">
<path d="M46.8085 94.0741C72.5356 94.0741 93.3915 73.2182 93.3915 47.4911C93.3915 21.7641 72.5356 0.908203 46.8085 0.908203C21.0815 0.908203 0.225586 21.7641 0.225586 47.4911C0.225586 73.2182 21.0815 94.0741 46.8085 94.0741Z" fill="#2A5284"/>
<path d="M59.2455 15.6338H68.0468L51.504 37.7141H66.3494L30.8881 79.3476L42.3592 49.9305H29.4033L42.4669 15.6338H59.2455Z" fill="white" fill-opacity="0.704"/>
<path d="M59.2455 15.6338H59.7754L44.9067 41.0011H58.5031L30.8881 79.3447L42.3592 49.9305H29.4033L42.4669 15.6338H59.2455Z" fill="white"/>
</g>
<defs>
<clipPath id="clip0_342_6712">
<rect width="93.1659" height="93.1659" fill="white" transform="translate(0.225586 0.908203)"/>
</clipPath>
</defs>
</svg>
