<svg width="94" height="95" viewBox="0 0 94 95" fill="none" xmlns="http://www.w3.org/2000/svg">
<g clip-path="url(#clip0_342_6718)">
<path d="M47.3229 94.0741C73.05 94.0741 93.9059 73.2182 93.9059 47.4911C93.9059 21.7641 73.05 0.908203 47.3229 0.908203C21.5959 0.908203 0.73999 21.7641 0.73999 47.4911C0.73999 73.2182 21.5959 94.0741 47.3229 94.0741Z" fill="#399B32"/>
<path d="M64.4712 22.6502C64.1567 23.9137 64.2121 25.5325 64.5614 25.6781C64.9108 25.8266 65.7901 24.991 66.3054 24.0418C66.8003 23.1684 67.2399 22.9093 67.8484 23.1335C68.6549 23.4479 68.5268 23.7274 66.8731 25.1569C65.4989 26.3477 65.2223 26.7757 65.5921 27.1454C65.8104 27.3696 65.9735 27.3318 66.7625 26.9038C67.7524 26.3856 68.3055 26.4205 68.3055 27.0173C68.3055 27.2939 67.9387 27.5181 66.5994 28.0363C65.6445 28.409 64.707 28.8923 64.4886 29.1339C64.049 29.6172 63.2775 31.1428 62.3604 33.3905C61.5714 35.3411 60.8173 36.7735 60.3224 37.3296C59.9177 37.7751 58.561 38.0575 55.699 38.2788C54.3598 38.3894 54.1938 38.3719 54.121 38.0546C53.9148 37.1894 53.7496 36.315 53.6261 35.4343C53.6261 35.379 54.3044 35.3964 55.1488 35.4547C56.654 35.5653 58.1563 35.9729 58.855 36.4562C59.3878 36.8289 59.4431 36.7735 59.6819 35.7313C59.973 34.5434 60.599 32.9829 61.551 31.0497C62.2672 29.6172 62.2876 29.5066 62.2119 28.1499C62.1216 26.6447 61.8625 25.9954 60.9658 25.0084C60.6339 24.6591 60.433 24.266 60.4883 24.1175C60.535 24.0034 60.572 23.8856 60.599 23.7653C60.599 23.7274 60.762 23.6896 60.9483 23.6896C61.1667 23.6896 61.551 24.0244 61.9004 24.5251C62.8728 25.9023 63.1669 25.6402 63.1669 23.3548C63.1669 22.3154 63.2396 21.8699 63.4784 21.6079C63.8452 21.2003 64.1393 21.1828 64.4508 21.5526C64.6342 21.7768 64.6342 22.0184 64.4712 22.6502ZM49.882 30.4354C50.0101 31.8125 50.2663 32.2929 51.0931 32.5898C51.4221 32.7208 51.8792 32.9101 52.1005 32.9829C52.6333 33.2041 52.7818 34.0019 53.3495 39.2075C53.9551 44.8557 54.0832 45.6563 54.6538 47.4032C55.5156 50.0584 55.4399 53.1445 54.4325 56.2481C53.9172 57.8465 53.3495 58.5715 52.1762 59.2032C49.8267 60.4464 47.4014 59.538 45.5148 56.711C44.1115 54.673 43.5933 52.1401 44.0824 49.7061C44.359 48.4047 44.5046 46.4366 44.3736 45.9504C44.3211 45.7116 43.733 44.9692 43.0721 44.2618C41.0167 42.1248 38.8506 38.2962 39.2756 37.6091C39.4037 37.4228 39.494 36.8463 39.494 36.3456C39.494 35.3237 39.2028 34.9131 37.916 34.1911C37.0717 33.7078 37.0164 33.2245 37.7151 31.8853C38.0994 31.105 38.3207 30.939 40.248 29.9521C42.2104 28.9505 43.0925 28.671 46.0098 28.1499C47.2209 27.9257 48.1002 27.9461 48.7611 28.2256C49.5326 28.5604 49.751 28.9855 49.882 30.4383V30.4354ZM32.5211 37.3675C32.5211 38.3137 32.8326 39.2454 33.0539 39.0037C33.1471 38.9105 33.345 38.3894 33.5314 37.8508C33.8225 36.9191 34.3582 36.3659 34.7251 36.6047C35.0366 36.8085 34.9259 37.8857 34.5213 38.5553C33.971 39.4666 33.971 41.196 34.5416 42.3489C35.1094 43.464 36.2827 44.6897 36.798 44.6897C37.1095 44.6694 37.4764 44.2239 38.4866 42.4974L39.7677 40.3226L39.9715 41.624C40.1753 43.0914 40.0821 43.5368 39.2552 44.9692C38.3381 46.5851 37.3104 47.8486 36.9261 47.8486C36.4865 47.8486 35.4937 46.8646 34.6494 45.601C34.3204 45.077 33.4033 44.0754 32.6317 43.3505L31.2197 42.0316L30.3579 42.1801C29.8304 42.2786 29.296 42.3351 28.7595 42.3489C28.0986 42.3664 28.0259 42.3286 27.9734 41.8656C27.9152 41.458 28.0084 41.327 28.3927 41.2339C28.8111 41.1602 29.2386 41.1533 29.6592 41.2135C30.1716 41.2892 30.5588 41.2513 30.7597 41.1028C31.0712 40.8787 31.0537 40.8408 30.7422 40.4711C30.5588 40.2469 30.0085 39.9499 29.4932 39.784C28.2122 39.3764 27.3824 38.8174 27.3824 38.3894C27.3824 37.8333 28.0812 37.7023 28.6489 38.1652C30.5413 39.7287 31.0712 39.9499 31.5691 39.4462C31.9184 39.0969 31.8253 38.4272 31.2372 37.2568C30.7247 36.2146 30.5384 35.248 30.815 34.9714C30.9984 34.7676 31.4759 34.8229 31.8049 35.082C32.1921 35.3964 32.5211 36.4213 32.5211 37.3675ZM66.0841 54.1082C65.627 54.5944 64.3052 56.1375 63.1494 57.5292C59.7343 61.6547 59.3878 62.1001 59.5334 62.2515C59.679 62.3971 62.5787 61.116 63.2396 60.6153C64.0665 59.9631 65.5688 58.3676 65.8454 57.8261C65.9735 57.6049 66.1569 56.9178 66.2879 56.3209C66.5063 55.2058 67.1118 54.3528 67.6621 54.3528C68.0289 54.3528 68.1949 54.7808 68.0493 55.3368C67.7991 55.9652 67.4921 56.5694 67.1322 57.1419C66.6722 57.9018 66.3607 58.5889 66.3956 58.6646C66.5791 58.9412 67.2603 58.8102 68.0493 58.3473C68.5064 58.0852 69.1673 57.4011 69.6623 56.6936C70.6347 55.3194 71.2956 54.7254 71.8837 54.7254C72.3786 54.7254 72.9667 55.3572 72.8386 55.727C72.7804 55.8755 71.9361 56.6004 70.9841 57.3283C69.3333 58.5714 68.8179 59.2207 69.112 59.704C69.2779 59.9835 70.8006 59.6108 72.4165 58.8888C75.1678 57.6427 75.9218 57.567 76.3615 58.4026C76.7283 59.0926 75.8287 59.5177 72.3058 60.2979C71.3334 60.5221 70.2678 60.8744 69.9388 61.0782L69.3333 61.4509L69.7554 61.8031C70.1223 62.103 70.5066 62.1583 72.3233 62.1583C73.9566 62.1583 74.5651 62.2311 74.8388 62.4349C75.1882 62.7144 75.1678 62.7348 74.6554 63.1977C74.3235 63.4772 74.0149 63.6257 73.8285 63.55C73.0221 63.2152 70.2882 62.7144 69.2954 62.7144C67.5165 62.7144 67.3681 63.3666 68.9839 63.9955C69.7176 64.2953 69.9942 64.6301 69.8457 65.0203C69.6826 65.4657 69.2401 65.39 67.6446 64.6476C64.4129 63.1424 63.8277 63.0667 59.9585 63.5704C58.1213 63.812 57.5885 63.8324 57.3877 63.6432C56.983 63.3084 57.0558 62.9939 57.6264 62.4932C58.0835 62.103 61.6267 55.5057 61.4608 55.3572C61.3676 55.2641 57.7923 56.5451 55.2012 57.6223C54.8722 57.7533 54.8722 57.7359 55.2012 57.2147C56.4152 55.2262 59.9177 52.9931 63.9937 51.6015C66.1045 50.8765 66.2326 50.8591 67.1118 50.8765C67.7 50.9144 67.8659 50.9901 67.9008 51.2841C67.9591 51.75 67.2225 52.9029 66.0841 54.1082ZM24.0081 60.6735C24.6864 61.6401 26.247 63.2763 26.4828 63.2763C26.7244 63.2763 26.5206 61.6576 26.081 59.966C25.6763 58.423 25.6414 57.6806 25.9529 57.3661C26.1916 57.1245 27.001 57.0691 27.33 57.2904C27.4581 57.3661 27.6037 58.4259 27.7143 60.0243C27.9181 62.9415 28.0637 63.4801 28.777 63.943C29.237 64.2604 29.2719 64.2604 29.4932 63.9634C29.6038 63.7946 29.7319 63.1075 29.7523 62.4204C29.8047 60.5803 30.2473 59.7622 31.0334 60.0243C31.6418 60.2077 31.6972 60.9705 31.2372 62.4204C30.7044 64.109 30.6141 65.3376 30.8529 66.9913C31.2022 69.2419 32.0465 71.2478 32.4658 70.8199C32.559 70.7471 32.6114 68.2374 32.6317 65.2648C32.6492 60.6182 32.6871 59.6894 32.9636 58.816C33.4761 57.2147 33.5867 57.1419 35.6043 57.1419C38.9263 57.1419 45.0927 58.0357 45.9166 58.6268C46.7988 59.2615 46.6154 59.4856 44.8714 60.0417C41.072 61.2121 39.2203 61.4363 36.9261 60.9908C36.175 60.8395 35.4937 60.7492 35.4209 60.787C35.3481 60.822 35.4209 61.25 35.5665 61.7333C36.0265 63.2385 35.8984 64.1672 34.8153 67.4746C34.2476 69.1662 33.7148 71.1372 33.642 71.8418C33.5692 72.5492 33.3654 73.2538 33.2548 73.4023C32.7773 73.9788 32.2474 73.7196 31.3827 72.5114C30.3026 71.0266 28.5936 69.3903 27.6037 68.8692C27.1815 68.645 25.787 68.2374 24.5205 67.9375C22.2467 67.4193 21.513 67.0641 21.7866 66.6216C21.8798 66.4527 22.2816 66.4352 23.1638 66.508C24.7767 66.6769 24.9077 66.4527 23.8247 65.4308C22.6437 64.3824 21.2903 63.5462 19.8243 62.959C18.4472 62.4029 18.2085 62.2166 18.2085 61.7711C18.2085 61.4159 18.7209 61.0433 19.2188 61.0433C19.3818 61.0433 20.1184 61.5469 20.8317 62.1787C22.3369 63.4597 23.3821 64.0741 23.9528 63.9838C25.0009 63.8324 23.749 61.3985 21.7866 59.7622C21.0704 59.1683 20.3746 58.4433 20.2261 58.1638C19.9874 57.698 19.9874 57.6456 20.3193 57.404C20.6238 57.2269 20.9758 57.1485 21.3266 57.1798C21.8973 57.238 22.0254 57.3487 22.7037 58.5365C23.1084 59.2615 23.6936 60.2251 24.0081 60.6735ZM50.3216 28.7642C51.2591 28.6186 51.4571 29.3785 51.4571 29.361C51.9549 30.6421 51.6609 32.2434 51.6609 32.2434C51 32.1123 50.505 31.2942 50.505 31.2942C50.1207 30.383 50.3216 28.7671 50.3216 28.7671V28.7642ZM37.0921 34.063C37.0921 34.063 38.5041 34.8433 39.0369 35.6788C39.0369 35.6788 39.4037 36.5523 39.1271 37.1841C39.1271 37.1841 37.6598 36.497 36.9261 35.344C36.9261 35.3644 36.4486 34.7501 37.0921 34.063Z" fill="white"/>
</g>
<defs>
<clipPath id="clip0_342_6718">
<rect width="93.1659" height="93.1659" fill="white" transform="translate(0.739502 0.908203)"/>
</clipPath>
</defs>
</svg>
