<svg width="94" height="95" viewBox="0 0 94 95" fill="none" xmlns="http://www.w3.org/2000/svg">
<g clip-path="url(#clip0_342_6722)">
<path d="M46.8354 94.0741C72.5624 94.0741 93.4183 73.2182 93.4183 47.4911C93.4183 21.7641 72.5624 0.908203 46.8354 0.908203C21.1083 0.908203 0.252441 21.7641 0.252441 47.4911C0.252441 73.2182 21.1083 94.0741 46.8354 94.0741Z" fill="#136AAD"/>
<path fill-rule="evenodd" clip-rule="evenodd" d="M20.6326 33.1958L28.3974 36.4857V54.9821L46.8355 43.9565L65.4512 54.9821V36.4857L73.0384 33.1958V68.0573L46.8355 52.583L20.6326 68.0573V33.1958ZM21.5147 31.7721L46.8355 16.9209L72.3338 31.7721L65.4512 34.6195L46.8355 23.8588L28.3974 34.6195L21.5147 31.7721ZM26.9853 66.1882L32.7208 62.8983L46.9228 71.1231L60.9501 62.8983L66.8603 66.1882L46.9228 78.061L26.9853 66.1882Z" fill="white"/>
</g>
<defs>
<clipPath id="clip0_342_6722">
<rect width="93.1659" height="93.1659" fill="white" transform="translate(0.253418 0.908203)"/>
</clipPath>
</defs>
</svg>
