<svg width="94" height="95" viewBox="0 0 94 95" fill="none" xmlns="http://www.w3.org/2000/svg">
<g clip-path="url(#clip0_342_6730)">
<path d="M46.8649 94.0741C72.592 94.0741 93.4479 73.2182 93.4479 47.4911C93.4479 21.7641 72.592 0.908203 46.8649 0.908203C21.1379 0.908203 0.281982 21.7641 0.281982 47.4911C0.281982 73.2182 21.1379 94.0741 46.8649 94.0741Z" fill="#F89022"/>
<path fill-rule="evenodd" clip-rule="evenodd" d="M81.8021 56.1154H74.9195L70.037 51.9346L65.172 56.098H59.355L56.5746 52.7207H46.9901L49.4154 49.7248H54.129L50.5392 45.3344L38.0054 60.5932H32.1913L35.819 56.162H29.7603L26.4849 46.9794L23.2357 56.0922H17.0897L11.9277 41.7883H16.6443L20.1147 51.5299L23.5735 41.8319H29.3963L32.8464 51.5096L36.2935 41.829H41.0246L35.819 56.162L36.9777 54.7471L47.6103 41.8057H53.4622L62.3101 52.6013L66.5666 48.9417L53.0954 37.3018H60.0101L81.8021 56.1154ZM74.9748 47.4627L71.7286 44.6793L74.969 41.9193L81.5197 41.9251L74.9748 47.4627Z" fill="white"/>
</g>
<defs>
<clipPath id="clip0_342_6730">
<rect width="93.1659" height="93.1659" fill="white" transform="translate(0.281494 0.908203)"/>
</clipPath>
</defs>
</svg>
