<svg width="94" height="94" viewBox="0 0 94 94" fill="none" xmlns="http://www.w3.org/2000/svg">
<g clip-path="url(#clip0_342_6734)">
<path d="M47.0414 93.5877C72.7685 93.5877 93.6244 72.7319 93.6244 47.0048C93.6244 21.2778 72.7685 0.421875 47.0414 0.421875C21.3144 0.421875 0.458496 21.2778 0.458496 47.0048C0.458496 72.7319 21.3144 93.5877 47.0414 93.5877Z" fill="#201A2D"/>
<path d="M66.8923 28.3301L65.1454 30.0769C69.3137 34.6353 71.6252 40.5885 71.6252 46.7653C71.6252 52.9421 69.3137 58.8953 65.1454 63.4536L66.8923 65.2005C71.5278 60.1723 74.1015 53.5838 74.1015 46.7449C74.1015 39.906 71.5278 33.3175 66.8923 28.2893V28.3301ZM30.1558 28.4815C34.7141 24.3132 40.6673 22.0016 46.8441 22.0016C53.0209 22.0016 58.9741 24.3132 63.5325 28.4815L65.2793 26.7346C60.2512 22.099 53.6627 19.5254 46.8237 19.5254C39.9848 19.5254 33.3963 22.099 28.3682 26.7346L30.1558 28.4815ZM28.5196 63.4711C24.3562 58.9138 22.0477 52.9642 22.0477 46.7915C22.0477 40.6187 24.3562 34.6692 28.5196 30.1119L26.7727 28.365C22.1371 33.3932 19.5635 39.9817 19.5635 46.8206C19.5635 53.6595 22.1371 60.248 26.7727 65.2762L28.5196 63.4711ZM63.5092 65.084C58.9508 69.2523 52.9976 71.5638 46.8208 71.5638C40.644 71.5638 34.6908 69.2523 30.1325 65.084L28.3856 66.8309C33.4138 71.4664 40.0023 74.0401 46.8412 74.0401C53.6801 74.0401 60.2686 71.4664 65.2968 66.8309L63.5092 65.084ZM57.8552 40.9599C57.5058 37.3148 54.3614 36.092 50.3844 35.7193V30.7H47.3099V35.6261H44.8527V30.7H41.8015V35.7542H35.5652V39.0441C35.5652 39.0441 37.8361 39.0034 37.8012 39.0441C38.2107 38.9991 38.6216 39.1148 38.9475 39.3668C39.2734 39.6188 39.4887 39.9874 39.5481 40.3951V54.2302C39.5393 54.3739 39.5018 54.5145 39.4378 54.6435C39.3738 54.7725 39.2846 54.8874 39.1754 54.9813C39.0683 55.0771 38.9429 55.1501 38.8068 55.1962C38.6707 55.2422 38.5267 55.2602 38.3835 55.2492C38.4243 55.2841 36.1475 55.2492 36.1475 55.2492L35.5652 58.9234H41.7433V64.0592H44.8178V58.9991H47.275V64.0359H50.3553V58.9584C55.5493 58.6439 59.1711 57.3629 59.6253 52.5008C59.9922 48.5878 58.1521 46.841 55.2116 46.1364C56.9992 45.2571 58.1055 43.6267 57.8552 40.9599ZM53.5462 51.8952C53.5462 55.715 47.0013 55.2783 44.9167 55.2783V48.5005C47.0013 48.5063 53.5462 47.9066 53.5462 51.8952ZM52.1196 42.3457C52.1196 45.8394 46.6578 45.4144 44.9226 45.4144V39.2538C46.6578 39.2538 52.1196 38.7064 52.1196 42.3457Z" fill="white"/>
<path d="M46.8206 78.6001C29.253 78.5972 15.0161 64.3545 15.0161 46.7869C15.0161 29.2222 29.2588 14.9795 46.8235 14.9795C64.3911 14.9795 78.6338 29.2164 78.6368 46.784C78.6375 50.9624 77.8151 55.0999 76.2165 58.9604C74.6178 62.8209 72.2743 66.3286 69.3197 69.2831C66.3652 72.2377 62.8575 74.5812 58.997 76.1798C55.1366 77.7785 50.999 78.6009 46.8206 78.6001ZM46.8206 17.46C30.636 17.4717 17.5258 30.5993 17.5316 46.784C17.5374 62.9687 30.6622 76.0847 46.8439 76.0847C63.0286 76.0847 76.1504 62.9687 76.1562 46.784C76.1577 42.9317 75.3999 39.1169 73.9261 35.5577C72.4522 31.9985 70.2912 28.7647 67.5667 26.0413C64.8422 23.3178 61.6076 21.1582 58.0478 19.6857C54.488 18.2133 50.6729 17.457 46.8206 17.46Z" fill="white"/>
</g>
<defs>
<clipPath id="clip0_342_6734">
<rect width="93.1659" height="93.1659" fill="white" transform="translate(0.459473 0.421875)"/>
</clipPath>
</defs>
</svg>
