<svg width="95" height="94" viewBox="0 0 95 94" fill="none" xmlns="http://www.w3.org/2000/svg">
<g clip-path="url(#clip0_342_6740)">
<path d="M47.5566 93.5887C73.2836 93.5887 94.1395 72.7328 94.1395 47.0058C94.1395 21.2787 73.2836 0.422852 47.5566 0.422852C21.8295 0.422852 0.973633 21.2787 0.973633 47.0058C0.973633 72.7328 21.8295 93.5887 47.5566 93.5887Z" fill="#B80000"/>
<path d="M76.3592 33.575C76.8134 34.3465 76.7522 35.1559 76.301 35.9478C75.6255 37.025 75.0025 38.1226 74.3591 39.2086C72.5947 42.2248 70.8304 45.2411 69.0602 48.2573C65.5272 54.2588 61.9908 60.2583 58.451 66.2558C58.2527 66.6244 57.9513 66.9272 57.5837 67.1273C57.2161 67.3274 56.7981 67.4161 56.381 67.3825C55.4871 67.3418 54.8524 66.8992 54.4303 66.1277C53.9965 65.3562 53.5452 64.5934 53.091 63.8248C51.6062 61.286 50.1155 58.753 48.6278 56.223C48.2959 55.6495 47.9553 55.0876 47.5739 54.4529C47.2012 55.0846 46.8489 55.6465 46.517 56.223L42.0538 63.8219C41.5979 64.5849 41.1514 65.3536 40.7145 66.1277C40.2924 66.8992 39.6606 67.3418 38.7639 67.3825C38.347 67.4139 37.9299 67.3242 37.5627 67.1244C37.1955 66.9245 36.8938 66.6229 36.6938 66.2558C35.0139 63.4288 33.3544 60.6018 31.6862 57.7632C29.8126 54.5983 27.9454 51.4297 26.0846 48.2573C24.3232 45.2411 22.5559 42.2248 20.7858 39.2086C20.1452 38.1226 19.5106 37.025 18.8467 35.9478C18.3634 35.1559 18.2936 34.3465 18.7448 33.575C19.1874 32.8151 19.9007 32.4482 20.8178 32.4482C26.5475 32.4686 32.2801 32.5065 38.0098 32.457C39.4568 32.4482 40.3215 33.0014 40.9969 34.2067C42.4439 36.7892 43.9841 39.3076 45.4718 41.8609C46.0949 42.9381 46.7092 44.0241 47.3409 45.1013C47.3904 45.1799 47.472 45.2411 47.5448 45.308C47.6225 45.2526 47.6896 45.1836 47.7427 45.1042C48.3687 44.027 48.9801 42.9381 49.6148 41.8609C51.1113 39.3076 52.6427 36.7775 54.0896 34.2067C54.7622 33.0014 55.6269 32.4482 57.0739 32.4599C62.8065 32.5065 68.5362 32.4686 74.2688 32.4482C75.2034 32.4482 75.9167 32.8151 76.3592 33.575ZM44.7905 50.3303C44.8466 50.2117 44.8764 50.0824 44.8779 49.9513C44.8794 49.8201 44.8526 49.6902 44.7993 49.5704C44.5081 48.9765 44.1238 48.4145 43.7832 47.8294C41.7335 44.3298 39.681 40.8419 37.6401 37.3336C37.4304 36.9755 37.1888 36.8474 36.7666 36.8474C32.9468 36.8678 29.1241 36.8678 25.3043 36.8765C25.1238 36.8765 24.9433 36.9056 24.6813 36.926C29.3454 44.883 33.9687 52.7817 38.6474 60.759C39.0492 60.0894 39.3898 59.5537 39.713 59.0005C41.4191 56.1182 43.1106 53.2271 44.7905 50.3303ZM56.4654 60.759C61.1382 52.7817 65.7645 44.883 70.4403 36.926C70.1695 36.9056 69.9977 36.8765 69.8172 36.8765C65.9945 36.8678 62.1747 36.8678 58.3549 36.8474C57.9327 36.8474 57.6911 36.9755 57.4815 37.3307C55.4363 40.8318 53.3886 44.3313 51.3383 47.8294C50.9948 48.4029 50.6221 48.9648 50.3193 49.5704C50.2649 49.6896 50.2367 49.8192 50.2367 49.9503C50.2367 50.0814 50.2649 50.211 50.3193 50.3303C52.008 53.2242 53.6995 56.1153 55.3998 59.0005C55.7201 59.5537 56.0636 60.0981 56.4654 60.759Z" fill="white"/>
</g>
<defs>
<clipPath id="clip0_342_6740">
<rect width="93.1659" height="93.1659" fill="white" transform="translate(0.973633 0.421875)"/>
</clipPath>
</defs>
</svg>
