<svg width="94" height="94" viewBox="0 0 94 94" fill="none" xmlns="http://www.w3.org/2000/svg">
<g clip-path="url(#clip0_342_6744)">
<path d="M47.0717 93.5887C72.7988 93.5887 93.6546 72.7328 93.6546 47.0058C93.6546 21.2787 72.7988 0.422852 47.0717 0.422852C21.3447 0.422852 0.48877 21.2787 0.48877 47.0058C0.48877 72.7328 21.3447 93.5887 47.0717 93.5887Z" fill="#5783CB"/>
<path d="M44.8583 12.0684H48.4685C56.3515 12.4478 63.8518 15.5798 69.6637 20.9191C70.6536 21.5596 70.6536 23.1318 69.489 23.5394C68.4991 23.7723 67.7422 22.8989 66.9852 22.3748C60.5499 17.4741 52.4658 15.2578 44.431 16.1916C36.3962 17.1254 29.0358 21.1365 23.896 27.3825C19.6992 32.5442 17.3006 38.934 17.0644 45.5823C16.8281 52.2306 18.767 58.7745 22.5868 64.2211C26.4067 69.6676 31.8989 73.7195 38.2302 75.7618C44.5614 77.8041 51.3861 77.7254 57.6686 75.5376C62.8074 73.7591 67.3972 70.6782 70.9896 66.5959C74.582 62.5136 77.0543 57.5694 78.1651 52.2461C78.6775 50.1237 79.0094 47.9605 79.155 45.7828C79.1924 45.4637 79.3532 45.172 79.6031 44.9701C79.853 44.7682 80.172 44.6722 80.4917 44.7027C80.8115 44.7331 81.1067 44.8876 81.3139 45.1331C81.5212 45.3785 81.6241 45.6953 81.6006 46.0157L81.4841 49.6259C81.0312 58.0455 77.461 65.9953 71.4688 71.9274C65.3925 77.9511 57.3051 81.5178 48.7596 81.9428H45.3241C36.6436 81.504 28.4369 77.8507 22.3018 71.6941C16.1666 65.5374 12.5421 57.318 12.1338 48.636V45.3752C12.5571 36.7772 16.1243 28.6344 22.1574 22.4939C28.1905 16.3534 36.2692 12.6433 44.8583 12.0684Z" fill="white"/>
<path d="M73.274 30.1779C75.6032 27.6159 80.4362 29.0133 80.9602 32.4488C81.7172 35.535 78.7475 38.1552 75.7196 37.9223C71.7019 41.9983 68.4993 46.8313 65.7625 51.8972C64.6562 53.4112 66.0537 55.3909 65.1802 56.9631C64.1321 60.0492 59.5903 60.6897 57.6105 58.1277C56.1548 56.4973 56.5624 54.2264 57.3194 52.4213C56.2112 50.1213 54.7362 48.017 52.9522 46.1908L51.2054 46.249C47.3813 50.4631 44.2202 55.2342 41.8306 60.3986C42.2382 61.9708 42.5293 63.8341 41.423 65.2316C39.9672 67.619 36.1241 67.8519 34.3191 65.6392C32.9798 64.1252 33.1545 61.9708 33.8532 60.1657C31.843 54.699 28.9731 49.5882 25.3518 45.0262C23.0809 44.9098 20.6935 43.5705 20.4024 41.1831C19.6454 37.9223 23.3721 34.778 26.4582 36.2337C29.1949 37.2236 29.9519 40.7173 28.6126 43.1047C30.8124 48.6876 33.8994 53.8786 37.7545 58.4771C41.945 54.3235 45.3568 49.4523 47.8281 44.0946C47.3623 42.5224 47.0711 40.7173 48.1193 39.2616C49.6914 36.6995 53.8839 36.6413 55.5143 39.2034C56.7371 40.7755 56.3295 42.8718 55.6307 44.5604C56.7117 46.8651 58.1459 48.9869 59.8814 50.8491L61.6283 50.7326C65.879 46.249 69.7803 41.2996 72.4006 35.6514C72.1095 33.7881 71.7601 31.5754 73.3323 30.1779H73.274Z" fill="white"/>
</g>
<defs>
<clipPath id="clip0_342_6744">
<rect width="93.1659" height="93.1659" fill="white" transform="translate(0.487793 0.421875)"/>
</clipPath>
</defs>
</svg>
