<svg width="94" height="94" viewBox="0 0 94 94" fill="none" xmlns="http://www.w3.org/2000/svg">
<g clip-path="url(#clip0_342_6750)">
<path d="M46.5834 93.5887C72.3105 93.5887 93.1664 72.7328 93.1664 47.0058C93.1664 21.2787 72.3105 0.422852 46.5834 0.422852C20.8564 0.422852 0.000488281 21.2787 0.000488281 47.0058C0.000488281 72.7328 20.8564 93.5887 46.5834 93.5887Z" fill="#0DC9F7"/>
<path d="M55.0383 46.2443L46.173 53.1269L42.5424 40.535L21.5103 34.9014L49.1136 36.3192L55.0383 46.2443Z" fill="white" fill-opacity="0.305"/>
<path d="M24.0776 70.2767L71.5806 33.4092L75.6974 42.5685L70.2966 41.075L70.1074 50.5779L24.0776 70.2767Z" fill="white" fill-opacity="0.7"/>
<path d="M66.3692 52.1874L52.5486 28.4272L17.4688 26.625L44.2044 33.79L51.4539 58.5081L66.3692 52.1874Z" fill="white"/>
</g>
<defs>
<clipPath id="clip0_342_6750">
<rect width="93.1659" height="93.1659" fill="white" transform="translate(0.00146484 0.421875)"/>
</clipPath>
</defs>
</svg>
