<svg width="94" height="94" viewBox="0 0 94 94" fill="none" xmlns="http://www.w3.org/2000/svg">
<g clip-path="url(#clip0_342_6757)">
<path d="M47.0986 93.5887C72.8256 93.5887 93.6815 72.7328 93.6815 47.0058C93.6815 21.2787 72.8256 0.422852 47.0986 0.422852C21.3715 0.422852 0.515625 21.2787 0.515625 47.0058C0.515625 72.7328 21.3715 93.5887 47.0986 93.5887Z" fill="#FFE600"/>
<path fill-rule="evenodd" clip-rule="evenodd" d="M12.1406 16.2159C14.4441 13.6023 17.0319 11.2538 19.8559 9.21387L32.8176 55.5581L38.5619 30.9914H49.4506L55.192 55.5581L61.996 30.9914H72.911L73.0129 31.4281L84.8741 74.2669C82.7243 77.2415 80.2325 79.9532 77.4499 82.3462L67.4433 46.2153L61.7369 66.8224L61.635 67.2591H49.4477L44.0063 47.0771L38.5619 67.2591H26.3746L26.2727 66.8224L12.1406 16.2159Z" fill="white"/>
</g>
<defs>
<clipPath id="clip0_342_6757">
<rect width="93.1659" height="93.1659" fill="white" transform="translate(0.515625 0.421875)"/>
</clipPath>
</defs>
</svg>
