<svg width="94" height="94" viewBox="0 0 94 94" fill="none" xmlns="http://www.w3.org/2000/svg">
<g clip-path="url(#clip0_342_6761)">
<path d="M46.6137 93.5877C72.3407 93.5877 93.1966 72.7319 93.1966 47.0048C93.1966 21.2778 72.3407 0.421875 46.6137 0.421875C20.8867 0.421875 0.0307617 21.2778 0.0307617 47.0048C0.0307617 72.7319 20.8867 93.5877 46.6137 93.5877Z" fill="#8200FF"/>
<path fill-rule="evenodd" clip-rule="evenodd" d="M53.6416 38.7548L51.6618 39.241C49.8742 39.6777 48.6222 41.2499 48.6222 43.055V56.2671L42.0803 57.8684C41.5677 57.9979 41.0247 57.9202 40.5691 57.652C40.1135 57.3839 39.7819 56.9469 39.6463 56.4359C39.607 56.2798 39.5875 56.1194 39.5881 55.9585V33.9626C39.5881 33.06 40.214 32.274 41.1078 32.0527L51.1465 29.5954C51.659 29.4659 52.202 29.5436 52.6576 29.8118C53.1133 30.0799 53.4448 30.5169 53.5804 31.0279C53.6212 31.1822 53.6386 31.3423 53.6386 31.5024V38.7548H53.6416ZM31.5554 38.6325L29.0749 39.241C27.2873 39.6777 26.0324 41.2499 26.0324 43.055V56.3894L19.9941 57.8684C19.4816 57.9979 18.9386 57.9202 18.483 57.652C18.0273 57.3839 17.6958 56.9469 17.5602 56.4359C17.5199 56.28 17.4994 56.1196 17.499 55.9585V33.9626C17.499 33.06 18.125 32.274 19.0188 32.0527L29.0603 29.5954C29.5729 29.4659 30.1159 29.5436 30.5715 29.8118C31.0271 30.0799 31.3587 30.5169 31.4943 31.0279C31.535 31.1822 31.5525 31.3423 31.5525 31.5024V38.6354L31.5554 38.6325ZM63.194 32.1138L73.2326 29.6566C73.7448 29.5269 74.2874 29.6042 74.743 29.8718C75.1985 30.1394 75.5303 30.5756 75.6666 31.0861C75.7071 31.242 75.7276 31.4025 75.7277 31.5636V53.5624C75.7277 54.4649 75.1017 55.251 74.2079 55.4693L64.1664 57.9266C63.6542 58.0562 63.1116 57.9789 62.656 57.7114C62.2005 57.4438 61.8686 57.0075 61.7324 56.4971C61.6932 56.341 61.6736 56.1806 61.6742 56.0196V34.0208C61.6742 33.1183 62.3002 32.3322 63.194 32.1138Z" fill="white"/>
<path opacity="0.504" fill-rule="evenodd" clip-rule="evenodd" d="M37.5794 39.1865V55.9593C37.5794 56.2796 37.6172 56.5998 37.6958 56.9142C37.9468 57.8557 38.5314 58.6738 39.3407 59.2164C40.1499 59.7589 41.1288 59.9889 42.095 59.8635V62.5974C42.095 63.4999 41.469 64.286 40.5752 64.5043L30.5366 66.9616C30.024 67.0921 29.4807 67.0152 29.0244 66.7476C28.5682 66.4799 28.2359 66.0432 28.0997 65.5321C28.0605 65.376 28.0409 65.2156 28.0415 65.0546V43.0558C28.0415 42.1533 28.6675 41.3672 29.5613 41.1488L37.5794 39.1865ZM59.6655 39.3088V56.0204C59.6655 56.3407 59.7063 56.6609 59.782 56.9754C60.3235 59.0803 62.5042 60.3614 64.6557 59.8344L64.6848 59.8286V62.5944C64.6813 63.0368 64.5297 63.4653 64.2543 63.8115C63.9788 64.1576 63.5953 64.4016 63.1651 64.5043L53.1235 66.9616C52.6114 67.0913 52.0687 67.0139 51.6132 66.7464C51.1576 66.4788 50.8258 66.0425 50.6896 65.5321C50.6503 65.376 50.6307 65.2156 50.6313 65.0546V43.0558C50.6313 42.1533 51.2573 41.3672 52.1511 41.1488L59.6626 39.3088H59.6655Z" fill="white"/>
</g>
<defs>
<clipPath id="clip0_342_6761">
<rect width="93.1659" height="93.1659" fill="white" transform="translate(0.0297852 0.421875)"/>
</clipPath>
</defs>
</svg>
