<svg width="94" height="94" viewBox="0 0 94 94" fill="none" xmlns="http://www.w3.org/2000/svg">
<g clip-path="url(#clip0_342_6766)">
<path d="M47.1254 93.5887C72.8525 93.5887 93.7084 72.7328 93.7084 47.0058C93.7084 21.2787 72.8525 0.422852 47.1254 0.422852C21.3984 0.422852 0.54248 21.2787 0.54248 47.0058C0.54248 72.7328 21.3984 93.5887 47.1254 93.5887Z" fill="#3B5998"/>
<path fill-rule="evenodd" clip-rule="evenodd" d="M41.6401 17.9199H47.1136V35.045L41.6401 29.3298V17.9199Z" fill="white"/>
<path fill-rule="evenodd" clip-rule="evenodd" d="M18.043 23.6943H32.4516C37.3341 28.8039 42.237 33.9047 47.1194 39.0259C49.9464 36.0883 52.7647 33.1303 55.5801 30.1839C57.6617 28.0265 59.7347 25.8575 61.8105 23.6914H76.1843C69.4763 30.475 62.7771 37.2645 56.0663 44.0423C55.3617 44.7498 54.6542 45.4631 53.9642 46.1793C54.1331 46.3598 54.3136 46.5374 54.465 46.7296L74.1783 66.6613L76.1901 68.6876H65.0393C64.7511 68.6876 64.4628 68.7051 64.1804 68.6672C63.3856 68.6439 62.5879 68.6789 61.7931 68.6498C60.3519 67.162 58.9282 65.6539 57.487 64.1603C54.6542 61.214 51.833 58.2501 49.0002 55.2979C48.3713 54.6458 47.757 53.9761 47.1136 53.3414C45.7452 54.7972 44.3419 56.2325 42.9648 57.6882L35.1709 65.8228C34.2625 66.769 33.3658 67.721 32.4516 68.6498C31.6655 68.673 30.8736 68.6498 30.0817 68.6614C29.6305 68.7167 29.1734 68.6789 28.7221 68.6905H18.04L39.2003 47.2915C39.5643 46.9246 39.9253 46.5549 40.2776 46.1793L18.04 23.6943H18.043Z" fill="white"/>
<path fill-rule="evenodd" clip-rule="evenodd" d="M47.1255 57.2861C48.948 59.2164 50.7939 61.1263 52.6222 63.0508C52.6339 66.856 52.6222 70.6554 52.6222 74.4636H47.1196C47.1196 68.7368 47.1196 63.0129 47.1313 57.2861H47.1255Z" fill="white"/>
</g>
<defs>
<clipPath id="clip0_342_6766">
<rect width="93.1659" height="93.1659" fill="white" transform="translate(0.543457 0.421875)"/>
</clipPath>
</defs>
</svg>
