<svg width="94" height="94" viewBox="0 0 94 94" fill="none" xmlns="http://www.w3.org/2000/svg">
<g clip-path="url(#clip0_342_6773)">
<path d="M46.6406 93.5887C72.3676 93.5887 93.2235 72.7328 93.2235 47.0058C93.2235 21.2787 72.3676 0.422852 46.6406 0.422852C20.9135 0.422852 0.0576172 21.2787 0.0576172 47.0058C0.0576172 72.7328 20.9135 93.5887 46.6406 93.5887Z" fill="#FAA00D"/>
<path d="M75.7317 42.5538L48.1634 74.6086L46.926 76.1197L17.5467 42.8769L17.6399 42.8391L17.5264 42.8216L28.945 23.7313L28.9508 23.7372L28.945 23.7139H64.6217L64.6159 23.7342L75.755 42.5508L75.7317 42.5538ZM37.4872 43.8901L31.1693 54.5867L46.7513 72.3814L62.3654 54.4411L56.1873 43.8581L37.4872 43.8901ZM29.3992 52.5662L34.5233 43.893L21.8236 43.9134L29.3992 52.5662ZM57.7071 41.3688L72.1303 41.3455L63.0757 26.1828L48.8621 26.2119L57.7071 41.3688ZM71.5975 43.8319L59.157 43.8523L64.1442 52.3973L71.5975 43.8319ZM54.7374 41.3746L46.9027 27.9471L38.9545 41.3979L54.7374 41.3746ZM30.2843 26.2526L21.2588 41.4299L35.9907 41.4037L44.9579 26.2235L30.2843 26.2526Z" fill="white"/>
</g>
<defs>
<clipPath id="clip0_342_6773">
<rect width="93.1659" height="93.1659" fill="white" transform="translate(0.0576172 0.421875)"/>
</clipPath>
</defs>
</svg>
