<svg width="94" height="94" viewBox="0 0 94 94" fill="none" xmlns="http://www.w3.org/2000/svg">
<g clip-path="url(#clip0_342_6777)">
<path d="M47.1557 93.5877C72.8827 93.5877 93.7386 72.7319 93.7386 47.0048C93.7386 21.2778 72.8827 0.421875 47.1557 0.421875C21.4286 0.421875 0.572754 21.2778 0.572754 47.0048C0.572754 72.7319 21.4286 93.5877 47.1557 93.5877Z" fill="#F7931A"/>
<path d="M76.2032 57.9344L74.6165 64.2901L70.3804 63.2362L71.9642 56.8776L65.6085 55.2938L66.6654 51.0576L73.021 52.6415L74.6078 46.2858L78.8439 47.3426L77.2601 53.6983L83.6157 55.2821L82.5589 59.5212L76.2032 57.9344ZM60.5776 40.4833C59.9865 44.4137 57.8437 46.3236 55.0109 47.0049C58.886 49.0517 60.8483 52.2077 58.9355 57.7103C56.5598 64.5434 50.9989 65.149 43.6155 63.766L41.7813 71.1087L37.4549 70.0314L39.2629 62.782C38.1106 62.4968 36.9615 62.1988 35.8158 61.8882L33.9991 69.1668L29.6785 68.0895L31.5127 60.7294C30.4995 60.4703 29.4747 60.1966 28.4266 59.9346L22.793 58.5284L24.9707 53.4567C24.9707 53.4567 28.1587 54.3039 28.1151 54.2427C29.3437 54.5426 29.891 53.7245 30.1094 53.1801L33.0034 41.5693L33.4634 41.6828C33.3164 41.6242 33.1656 41.5755 33.0121 41.5372L35.0792 33.2484C35.1374 32.308 34.8259 31.126 33.0703 30.6863C33.1402 30.6427 29.9289 29.9061 29.9289 29.9061L31.108 25.1779L37.0765 26.6686L37.0706 26.6889C37.9674 26.9131 38.8932 27.1257 39.8365 27.3382L41.6503 20.0654L45.9767 21.1427L44.1978 28.2757C45.3595 28.5377 46.527 28.8056 47.6624 29.0909L49.4297 22.0074L53.759 23.0846L51.9452 30.3603C57.407 32.2527 61.3928 35.1146 60.5776 40.4833ZM50.6001 54.7057C52.0296 48.9701 42.6169 47.5435 39.6822 46.8099L37.257 56.5544C40.1917 57.2823 49.2375 60.2024 50.6059 54.7027L50.6001 54.7057ZM52.0179 40.4513C53.3164 35.2311 45.4439 34.1131 43.0012 33.5046L40.7973 42.3466C43.24 42.958 50.7689 45.4531 52.0179 40.4513Z" fill="white"/>
</g>
<defs>
<clipPath id="clip0_342_6777">
<rect width="93.1659" height="93.1659" fill="white" transform="translate(0.571777 0.421875)"/>
</clipPath>
</defs>
</svg>
