<svg width="94" height="94" viewBox="0 0 94 94" fill="none" xmlns="http://www.w3.org/2000/svg">
<g clip-path="url(#clip0_342_6781)">
<path d="M46.6674 93.5887C72.3945 93.5887 93.2503 72.7328 93.2503 47.0058C93.2503 21.2787 72.3945 0.422852 46.6674 0.422852C20.9404 0.422852 0.0844727 21.2787 0.0844727 47.0058C0.0844727 72.7328 20.9404 93.5887 46.6674 93.5887Z" fill="#21AF67"/>
<path d="M46.6677 81.9428C27.3736 81.9428 11.7305 66.2996 11.7305 47.0056C11.7305 27.7115 27.3736 12.0684 46.6677 12.0684C65.9617 12.0684 81.6049 27.7115 81.6049 47.0056C81.6049 66.2996 65.9617 81.9428 46.6677 81.9428ZM60.0981 34.3437C59.5857 33.645 58.7501 33.0773 57.603 32.6347C56.4588 32.1951 54.8837 31.9738 52.8865 31.9738H48.6649L52.0917 22.5553L54.3771 16.2754C52.0806 15.7024 49.727 15.3889 47.3606 15.3408C47.1277 15.3408 46.8948 15.3233 46.6618 15.3233C46.3046 15.3257 45.9473 15.3354 45.5904 15.3525C28.6197 15.9173 14.9855 29.8922 14.9855 47.0056C14.9855 56.1271 18.9217 64.8032 25.7869 70.8036L28.2703 63.9763C23.9921 59.3607 21.6159 53.299 21.6177 47.0056C21.6177 34.4049 30.9692 23.9557 43.0953 22.2147C43.6951 22.1274 44.3152 22.0691 44.9295 22.0167L35.7818 47.154L54.0336 45.3577C54.0242 45.353 54.0145 45.3491 54.0045 45.346C54.5722 45.1626 55.1166 44.921 55.6349 44.6182C56.9672 43.8537 58.1389 42.8383 59.0849 41.6281C59.6032 40.9585 60.0166 40.2074 60.3019 39.4067C60.6222 38.5508 60.8056 37.6482 60.8434 36.7369C60.8795 35.877 60.6161 35.0311 60.0981 34.3437ZM52.3129 40.4723C51.9141 41.5554 51.2939 42.3182 50.4351 42.7578C49.6307 43.1862 48.7348 43.4139 47.8235 43.4216H44.5336L46.7405 37.3542H50.0304C50.4234 37.3542 50.8165 37.4037 51.195 37.5056C51.5417 37.5876 51.8622 37.7558 52.1266 37.9947C52.3844 38.2513 52.5406 38.5926 52.5662 38.9554C52.5996 39.4738 52.5129 39.9929 52.3129 40.4723ZM55.9843 16.7208L53.7104 22.9717C56.984 23.9286 60.0276 25.544 62.6548 27.7189C65.2819 29.8937 67.4372 32.5822 68.9886 35.6195C70.5399 38.6568 71.4546 41.9789 71.6766 45.3822C71.8986 48.7855 71.4233 52.1983 70.2796 55.4114C69.136 58.6245 67.3482 61.5702 65.0259 64.0679C62.7035 66.5656 59.8955 68.5627 56.774 69.9368C53.6525 71.3109 50.2833 72.0331 46.8728 72.0589C43.4624 72.0848 40.0826 71.4139 36.9406 70.0874C36.4293 69.8682 35.9253 69.6323 35.4295 69.3799L38.0265 62.2615H42.2423C46.0621 62.2615 49.1948 61.6151 51.6462 60.3166C54.0947 59.021 55.8387 56.951 56.8781 54.1036C57.2595 53.0497 57.4021 52.1239 57.2886 51.3261C57.2051 50.5999 56.9647 49.9006 56.584 49.2765C56.242 48.7287 55.785 48.2618 55.2448 47.9081C54.822 47.634 54.3735 47.4019 53.9055 47.2152L35.4878 49.0319L29.563 65.2806L27.1465 71.9303C29.4412 73.7316 31.9726 75.2089 34.6697 76.3208C38.4749 77.8871 42.5509 78.6907 46.6677 78.6878C64.1363 78.6878 78.3499 64.4771 78.3499 47.0056C78.3499 32.7774 68.9227 20.7095 55.9843 16.7208ZM42.4752 50.1295H46.3183C46.7783 50.1324 47.2354 50.1761 47.6867 50.2605C48.1234 50.3304 48.5455 50.4905 48.9211 50.7264C49.2705 50.9651 49.5209 51.3203 49.6257 51.7279C49.748 52.1675 49.6839 52.744 49.4248 53.4573C49.1956 54.141 48.8223 54.7675 48.3301 55.2944C47.9167 55.7224 47.4276 56.0689 46.886 56.3192C46.3869 56.5453 45.8571 56.6964 45.3139 56.7676C44.8343 56.8341 44.351 56.8691 43.8669 56.8724H40.015L42.4752 50.1295Z" fill="white"/>
</g>
<defs>
<clipPath id="clip0_342_6781">
<rect width="93.1659" height="93.1659" fill="white" transform="translate(0.0854492 0.421875)"/>
</clipPath>
</defs>
</svg>
