<svg width="94" height="94" viewBox="0 0 94 94" fill="none" xmlns="http://www.w3.org/2000/svg">
<g clip-path="url(#clip0_342_6785)">
<path d="M47.1825 93.5877C72.9096 93.5877 93.7655 72.7319 93.7655 47.0048C93.7655 21.2778 72.9096 0.421875 47.1825 0.421875C21.4555 0.421875 0.599609 21.2778 0.599609 47.0048C0.599609 72.7319 21.4555 93.5877 47.1825 93.5877Z" fill="#56F4F1"/>
<path d="M18.0684 26.6716C18.0684 26.6279 18.6798 26.625 26.5639 26.6308L35.0624 26.6396L39.8954 34.7712L44.8099 43.0426L44.8914 43.1794L45.66 41.8693C46.0793 41.1472 46.4228 40.5446 46.417 40.5271C46.4112 40.5096 44.5624 37.3886 42.3119 33.5979C40.0613 29.8072 38.2184 26.6891 38.2184 26.6687C38.2184 26.6308 39.4965 26.625 47.1652 26.625C52.1321 26.625 56.1091 26.6366 56.1091 26.6541C56.1091 26.7123 37.1412 58.9623 37.0975 58.971C37.0655 58.9768 34.2909 54.2894 27.5596 42.8504C22.3394 33.9793 18.0684 26.7007 18.0684 26.6716ZM59.236 26.6454C59.236 26.6337 63.0791 26.625 67.7694 26.625H76.297L76.2854 26.6891C76.2766 26.7269 72.026 33.9705 66.8407 42.7864C60.5549 53.4626 57.3902 58.8167 57.3494 58.8225C57.3116 58.8284 56.4207 57.3464 53.4335 52.3184C51.3024 48.7373 49.5526 45.7968 49.541 45.791C49.5177 45.7764 47.9892 48.3705 48.0008 48.4054C48.0037 48.42 49.7593 51.3751 51.8963 54.9736C53.2096 57.1584 54.5004 59.3567 55.7685 61.568C55.7423 61.6699 47.2205 76.1106 47.1856 76.1194C47.1303 76.131 38.658 61.7369 38.6755 61.6641C38.69 61.6321 58.9216 27.1636 59.2331 26.6454H59.236Z" fill="white"/>
</g>
<defs>
<clipPath id="clip0_342_6785">
<rect width="93.1659" height="93.1659" fill="white" transform="translate(0.599609 0.421875)"/>
</clipPath>
</defs>
</svg>
