<svg width="94" height="94" viewBox="0 0 94 94" fill="none" xmlns="http://www.w3.org/2000/svg">
<g clip-path="url(#clip0_342_6789)">
<path d="M46.6962 93.5877C72.4233 93.5877 93.2792 72.7319 93.2792 47.0048C93.2792 21.2778 72.4233 0.421875 46.6962 0.421875C20.9692 0.421875 0.113281 21.2778 0.113281 47.0048C0.113281 72.7319 20.9692 93.5877 46.6962 93.5877Z" fill="#FFCE47"/>
<path d="M64.4823 63.7118H28.9099C28.7907 63.7127 28.6726 63.6897 28.5626 63.6441C28.4527 63.6003 28.3531 63.5339 28.2704 63.4493C28.187 63.3655 28.1209 63.2662 28.0756 63.1571C28.03 63.047 28.0069 62.9289 28.0078 62.8098V31.5738C28.009 29.0744 29.0026 26.6778 30.7703 24.9109C32.5381 23.144 34.9351 22.1514 37.4345 22.1514H55.9661C58.4647 22.1525 60.8607 23.1456 62.6275 24.9124C64.3943 26.6792 65.3874 29.0752 65.3885 31.5738V62.8098C65.3898 62.929 65.3667 63.0471 65.3208 63.1571C65.2284 63.3793 65.0518 63.5559 64.8295 63.6483C64.7192 63.6926 64.6011 63.7142 64.4823 63.7118ZM29.8076 61.912H63.5803V31.5738C63.5803 29.5522 62.7772 27.6133 61.3476 26.1838C59.9181 24.7543 57.9793 23.9512 55.9576 23.9512H37.4303C35.4086 23.9512 33.4698 24.7543 32.0403 26.1838C30.6107 27.6133 29.8076 29.5522 29.8076 31.5738V61.912Z" fill="#32407B"/>
<path d="M37.1726 58.1222C36.3041 58.1242 35.4617 57.8248 34.7893 57.275C34.1169 56.7253 33.656 55.9593 33.4853 55.1077C33.3146 54.2561 33.4446 53.3716 33.8532 52.6052C34.2618 51.8387 34.9236 51.2378 35.7258 50.9048C36.528 50.5719 37.4208 50.5275 38.2521 50.7794C39.0833 51.0312 39.8014 51.5636 40.2839 52.2858C40.7665 53.008 40.9835 53.8752 40.898 54.7395C40.8125 55.6039 40.4298 56.4118 39.8151 57.0254C39.1145 57.7269 38.164 58.1214 37.1726 58.1222ZM37.1726 52.4391C36.7884 52.4389 36.4127 52.5524 36.0927 52.7652C35.7743 52.9801 35.5256 53.2833 35.377 53.6376C35.2298 53.9927 35.1915 54.3837 35.2669 54.7607C35.3423 55.1377 35.528 55.4838 35.8005 55.755C36.0265 55.9794 36.3042 56.1446 36.6092 56.2362C36.9142 56.3278 37.237 56.3429 37.5492 56.2802C37.8614 56.2175 38.1534 56.0788 38.3993 55.8765C38.6452 55.6742 38.8375 55.4145 38.9593 55.1202C39.081 54.826 39.1285 54.5063 39.0974 54.1894C39.0663 53.8725 38.9577 53.5681 38.7811 53.3031C38.6045 53.0381 38.3654 52.8207 38.0849 52.67C37.8044 52.5193 37.491 52.44 37.1726 52.4391Z" fill="#32407B"/>
<path d="M56.2164 58.1219C55.3503 58.1221 54.511 57.8219 53.8414 57.2726C53.1718 56.7233 52.7133 55.9587 52.5442 55.1093C52.3751 54.2599 52.5058 53.3781 52.9139 52.6142C53.3221 51.8503 53.9825 51.2515 54.7826 50.92C55.5827 50.5884 56.4731 50.5445 57.3019 50.7958C58.1308 51.0471 58.8468 51.578 59.3281 52.2981C59.8094 53.0181 60.0261 53.8828 59.9413 54.7448C59.8566 55.6067 59.4755 56.4126 58.8632 57.0251C58.5158 57.3729 58.1032 57.6488 57.649 57.837C57.1949 58.0252 56.7081 58.1221 56.2164 58.1219ZM56.2164 52.4388C55.8336 52.4394 55.4595 52.5529 55.1408 52.7649C54.8223 52.9787 54.5742 53.282 54.4278 53.6365C54.2813 53.991 54.243 54.381 54.3177 54.7572C54.3924 55.1335 54.5768 55.4792 54.8476 55.7509C55.1184 56.0226 55.4635 56.2081 55.8395 56.284C56.2158 56.3586 56.6057 56.3199 56.96 56.173C57.3142 56.026 57.617 55.7772 57.8299 55.4582C58.0257 55.1661 58.1384 54.8262 58.1559 54.475C58.1735 54.1238 58.0952 53.7744 57.9294 53.4642C57.7637 53.1541 57.5167 52.8948 57.215 52.7142C56.9133 52.5336 56.5681 52.4384 56.2164 52.4388Z" fill="#32407B"/>
<path d="M52.1043 28.7956H41.2843C41.1664 28.7957 41.0496 28.7725 40.9406 28.7275C40.8316 28.6824 40.7325 28.6163 40.6491 28.533C40.5656 28.4496 40.4994 28.3506 40.4542 28.2416C40.409 28.1326 40.3857 28.0158 40.3857 27.8978C40.3857 27.7798 40.409 27.663 40.4542 27.554C40.4994 27.445 40.5656 27.3459 40.6491 27.2626C40.7325 27.1792 40.8316 27.1131 40.9406 27.0681C41.0496 27.023 41.1664 26.9999 41.2843 27H52.1043C52.3435 27 52.5729 27.095 52.7421 27.2642C52.9112 27.4334 53.0063 27.6628 53.0063 27.902C53.0063 28.1412 52.9112 28.3707 52.7421 28.5398C52.5729 28.709 52.3435 28.804 52.1043 28.804V28.7956Z" fill="#32407B"/>
<path d="M63.9706 72.3638C63.8232 72.3657 63.6776 72.3308 63.5471 72.2622C63.4156 72.1997 63.3009 72.1068 63.2126 71.9912L57.4956 63.8307C57.4286 63.7335 57.3811 63.6242 57.3558 63.5088C57.3326 63.3928 57.3326 63.2733 57.3558 63.1573C57.3744 63.0395 57.4177 62.927 57.4829 62.827C57.5463 62.7276 57.6282 62.6414 57.7243 62.5729C57.8215 62.5059 57.9308 62.4585 58.0461 62.4332C58.1619 62.4077 58.2818 62.4077 58.3976 62.4332C58.5133 62.4524 58.624 62.4942 58.7237 62.556C58.8242 62.6198 58.9106 62.7033 58.9778 62.8016L64.7159 70.9536C64.8097 71.0888 64.8653 71.2468 64.8769 71.411C64.8927 71.5777 64.8614 71.7454 64.7865 71.8952C64.7117 72.0449 64.5962 72.1706 64.4534 72.258C64.313 72.3435 64.1519 72.3889 63.9875 72.3892L63.9706 72.3638Z" fill="#32407B"/>
<path d="M29.4223 72.3632C29.2566 72.3628 29.0942 72.3175 28.9523 72.2319C28.8114 72.1461 28.6971 72.023 28.6219 71.8762C28.5468 71.7299 28.5117 71.5662 28.5203 71.4019C28.5321 71.2358 28.5893 71.0762 28.6855 70.9403L34.4152 62.7925C34.4821 62.6917 34.5685 62.6053 34.6693 62.5385C34.7685 62.4703 34.8811 62.4241 34.9996 62.4029C35.118 62.3801 35.2399 62.3814 35.3578 62.4069C35.4757 62.4323 35.5872 62.4814 35.6856 62.5512C35.784 62.6199 35.8675 62.7078 35.9312 62.8095C35.9952 62.9131 36.0384 63.0281 36.0583 63.1483C36.0814 63.2657 36.0814 63.3866 36.0583 63.504C36.032 63.6213 35.9799 63.7312 35.9058 63.8258L30.1804 71.9906C30.0964 72.1087 29.9862 72.2058 29.8585 72.2743C29.7229 72.3401 29.5729 72.3707 29.4223 72.3632Z" fill="#32407B"/>
<path d="M30.8417 70.3437C30.6773 70.3435 30.5162 70.298 30.3759 70.2125C30.2328 70.1282 30.1167 70.0048 30.0413 69.8567C29.9666 69.7103 29.933 69.5464 29.9439 69.3824C29.9562 69.2185 30.0118 69.0607 30.1048 68.9251L34.4159 62.7931C34.4828 62.6923 34.5692 62.6059 34.67 62.539C34.771 62.4742 34.8829 62.4283 35.0003 62.4035C35.2395 62.3638 35.4848 62.4168 35.6863 62.5517C35.7839 62.6231 35.8672 62.7121 35.9319 62.8143C35.9952 62.9167 36.0383 63.0302 36.059 63.1488C36.0946 63.3895 36.0337 63.6345 35.8896 63.8306L31.5786 69.9626C31.4969 70.0817 31.3861 70.1779 31.2567 70.2421C31.1287 70.3094 30.9863 70.3443 30.8417 70.3437Z" fill="#32407B"/>
<path d="M64.4826 35.6901H28.9102C28.7888 35.6939 28.668 35.6737 28.5544 35.6308C28.3341 35.54 28.1578 35.3668 28.0632 35.148C28.0162 35.0353 27.9918 34.9144 27.9912 34.7923C27.9918 34.6715 28.0162 34.5521 28.0632 34.4408C28.1114 34.3299 28.1804 34.2293 28.2665 34.1444C28.3539 34.0606 28.4577 33.9957 28.5714 33.9538C28.6778 33.9053 28.7932 33.8793 28.9102 33.8776H64.4826C64.6044 33.8729 64.7257 33.8946 64.8383 33.9411C64.9509 33.9826 65.0534 34.0476 65.139 34.1317C65.2263 34.2164 65.2967 34.317 65.3465 34.4281C65.3921 34.5396 65.4151 34.6591 65.4142 34.7796C65.4115 34.9069 65.3827 35.0323 65.3296 35.148C65.2807 35.2584 65.2101 35.3578 65.122 35.4402C65.0369 35.5259 64.9343 35.5923 64.8214 35.635C64.7129 35.6744 64.598 35.6931 64.4826 35.6901Z" fill="#32407B"/>
<path d="M64.4824 47.1032H28.91C28.7885 47.1112 28.6667 47.0909 28.5543 47.0439C28.4406 47.002 28.3368 46.9372 28.2494 46.8534C28.1634 46.7684 28.0944 46.6678 28.0461 46.5569C27.9991 46.4457 27.9747 46.3262 27.9741 46.2054C27.9747 46.0833 27.9991 45.9625 28.0461 45.8497C28.0928 45.738 28.162 45.637 28.2494 45.5532C28.3369 45.4695 28.4407 45.4046 28.5543 45.3627C28.6684 45.3226 28.7893 45.3054 28.91 45.3119H64.4824C64.6038 45.3081 64.7246 45.3282 64.8382 45.3712C64.9502 45.4138 65.0525 45.4786 65.1388 45.5617C65.2261 45.6465 65.2966 45.7471 65.3463 45.8582C65.392 45.9712 65.415 46.092 65.4141 46.2139C65.415 46.3344 65.392 46.4539 65.3463 46.5654C65.2966 46.6765 65.2261 46.777 65.1388 46.8618C65.0532 46.9459 64.9508 47.0109 64.8382 47.0524C64.7251 47.0965 64.6033 47.1139 64.4824 47.1032Z" fill="#32407B"/>
<path d="M37.1724 47.1029C37.0001 47.1031 36.8313 47.0543 36.6858 46.962C36.5403 46.8698 36.4241 46.7379 36.3508 46.582C36.2817 46.4236 36.2582 46.2491 36.283 46.0781C36.3082 45.9072 36.3817 45.747 36.4948 45.6165L40.6068 40.9328C40.7263 40.8064 40.8798 40.7172 41.0488 40.676C41.2178 40.6348 41.3951 40.6434 41.5593 40.7007C41.7236 40.758 41.8678 40.8615 41.9745 40.9989C42.0812 41.1362 42.146 41.3015 42.161 41.4748C42.1821 41.7072 42.1105 41.9386 41.9619 42.1185L37.8499 46.8065C37.7666 46.9043 37.6626 46.9823 37.5454 47.0351C37.4282 47.0878 37.3008 47.1138 37.1724 47.1114V47.1029Z" fill="#32407B"/>
<path d="M42.5803 47.1025C42.4071 47.1055 42.2371 47.0552 42.0933 46.9585C41.9468 46.8657 41.8307 46.732 41.7592 46.574C41.6877 46.416 41.664 46.2406 41.691 46.0692C41.7161 45.8983 41.7896 45.7382 41.9027 45.6076L50.1267 36.236C50.2052 36.1479 50.3002 36.076 50.4062 36.0243C50.512 35.9721 50.6273 35.9419 50.745 35.9353C50.8638 35.9261 50.9833 35.9405 51.0965 35.9777C51.2082 36.0176 51.3116 36.0779 51.4014 36.1555C51.5793 36.3139 51.6874 36.5361 51.7021 36.7738C51.7116 36.8912 51.6972 37.0094 51.6597 37.1211C51.6225 37.2341 51.5619 37.338 51.4819 37.426L43.2579 46.7976C43.1745 46.8945 43.0702 46.9712 42.953 47.0221C42.8361 47.0758 42.7089 47.1032 42.5803 47.1025Z" fill="#32407B"/>
<path d="M59.7015 66.5867H33.6913C33.5699 66.5905 33.4491 66.5704 33.3355 66.5274C33.2217 66.484 33.1179 66.4177 33.0306 66.3326C32.9441 66.2481 32.875 66.1474 32.8274 66.0362C32.78 65.9251 32.7555 65.8055 32.7554 65.6847C32.7559 65.5639 32.7804 65.4445 32.8274 65.3332C32.8771 65.2232 32.9459 65.1228 33.0306 65.0368C33.119 64.9531 33.2225 64.887 33.3355 64.842C33.4491 64.799 33.5699 64.7789 33.6913 64.7827H59.7015C59.9349 64.7933 60.1557 64.8916 60.3198 65.0579C60.4412 65.1834 60.5236 65.3414 60.5569 65.5128C60.5903 65.6842 60.5732 65.8615 60.5078 66.0234C60.4423 66.1852 60.3313 66.3246 60.1882 66.4246C60.045 66.5246 59.876 66.5809 59.7015 66.5867Z" fill="#32407B"/>
<path d="M62.5475 70.3431H30.8415C30.6022 70.3431 30.3728 70.2481 30.2036 70.0789C30.0345 69.9097 29.9395 69.6803 29.9395 69.4411C29.9395 69.2018 30.0345 68.9724 30.2036 68.8033C30.3728 68.6341 30.6022 68.5391 30.8415 68.5391H62.5475C62.786 68.5413 63.0142 68.637 63.1829 68.8057C63.3516 68.9744 63.4473 69.2025 63.4495 69.4411C63.4494 69.56 63.4258 69.6777 63.38 69.7874C63.3342 69.8972 63.2671 69.9968 63.1827 70.0805C63.0996 70.1643 63.0006 70.2306 62.8915 70.2757C62.7825 70.3207 62.6655 70.3437 62.5475 70.3431Z" fill="#32407B"/>
</g>
<defs>
<clipPath id="clip0_342_6789">
<rect width="93.1659" height="93.1659" fill="white" transform="translate(0.113281 0.421875)"/>
</clipPath>
</defs>
</svg>
