<svg width="94" height="94" viewBox="0 0 94 94" fill="none" xmlns="http://www.w3.org/2000/svg">
<g clip-path="url(#clip0_342_6804)">
<path d="M47.2094 93.5887C72.9364 93.5887 93.7923 72.7328 93.7923 47.0058C93.7923 21.2787 72.9364 0.422852 47.2094 0.422852C21.4824 0.422852 0.626465 21.2787 0.626465 47.0058C0.626465 72.7328 21.4824 93.5887 47.2094 93.5887Z" fill="#ED1650"/>
<path fill-rule="evenodd" clip-rule="evenodd" d="M68.9864 29.5371H57.2126C56.9738 29.5375 56.7374 29.5856 56.5174 29.6786C56.2974 29.7716 56.0983 29.9076 55.9315 30.0786L34.4597 51.9988C34.293 52.1698 34.0938 52.3058 33.8738 52.3988C33.6539 52.4918 33.4175 52.5399 33.1787 52.5403H29.2424C29.0036 52.5399 28.7673 52.4918 28.5473 52.3988C28.3273 52.3058 28.1281 52.1698 27.9614 51.9988L25.1781 49.1631C24.8371 48.8157 24.6458 48.3485 24.6453 47.8617V43.8526C24.6453 43.3649 24.8366 42.8966 25.1781 42.5483L27.9614 39.7126C28.1282 39.5417 28.3274 39.4058 28.5474 39.3128C28.7673 39.2198 29.0036 39.1716 29.2424 39.171H33.1787C33.6591 39.171 34.1191 39.3661 34.4597 39.7126L36.1687 41.4536C36.3353 41.6248 36.5345 41.7608 36.7545 41.8537C36.9745 41.9466 37.2109 41.9944 37.4498 41.9944C37.6886 41.9944 37.925 41.9466 38.145 41.8537C38.365 41.7608 38.5642 41.6248 38.7308 41.4536L42.8621 37.2495C43.2022 36.9005 43.3924 36.4325 43.3924 35.9452C43.3924 35.4579 43.2022 34.9899 42.8621 34.6409L38.3785 30.0786C38.2117 29.9078 38.0125 29.7718 37.7925 29.6789C37.5726 29.5859 37.3363 29.5377 37.0975 29.5371H25.3236C25.0848 29.5377 24.8486 29.5859 24.6286 29.6789C24.4086 29.7718 24.2094 29.9078 24.0426 30.0786L15.7159 38.5567C15.3755 38.9055 15.1853 39.3737 15.186 39.8611V51.8503C15.186 52.3395 15.3782 52.8111 15.7159 53.1547L24.0426 61.6357C24.2097 61.806 24.409 61.9414 24.6289 62.0339C24.8489 62.1263 25.0851 62.1741 25.3236 62.1743H37.1004C37.3392 62.1737 37.5755 62.1255 37.7954 62.0325C38.0154 61.9395 38.2146 61.8036 38.3814 61.6328L59.8532 39.7155C60.0198 39.5441 60.2189 39.4076 60.4389 39.3141C60.6589 39.2207 60.8953 39.172 61.1343 39.171H65.0705C65.5509 39.171 66.0109 39.3661 66.3516 39.7126L69.1349 42.5483C69.4764 42.8966 69.6676 43.3649 69.6677 43.8526V47.8617C69.6669 48.3484 69.4757 48.8155 69.1349 49.1631L66.3516 51.9988C66.1849 52.1698 65.9857 52.3058 65.7657 52.3988C65.5457 52.4918 65.3094 52.5399 65.0705 52.5403H61.1343C60.8955 52.5399 60.6591 52.4918 60.4391 52.3988C60.2191 52.3058 60.02 52.1698 59.8532 51.9988L58.1297 50.2432C57.9643 50.0733 57.7668 49.9381 57.5486 49.8452C57.3305 49.7524 57.096 49.7039 56.859 49.7026C56.6219 49.7012 56.3869 49.747 56.1677 49.8373C55.9485 49.9277 55.7495 50.0607 55.5822 50.2287L50.4872 55.3004C50.3142 55.4737 50.1771 55.6793 50.0837 55.9056C49.9903 56.1319 49.9424 56.3744 49.9427 56.6193V68.3814C49.9427 69.4005 50.755 70.2273 51.7536 70.2273H57.693C57.9331 70.2254 58.1705 70.1762 58.3916 70.0826C58.6127 69.9889 58.8131 69.8526 58.9816 69.6815C59.15 69.5104 59.2831 69.3077 59.3732 69.0852C59.4633 68.8626 59.5087 68.6245 59.5068 68.3844V64.0172C59.5068 62.9982 60.3191 62.1743 61.3177 62.1743H68.9893C69.2279 62.1741 69.4641 62.1263 69.684 62.0339C69.904 61.9414 70.1033 61.806 70.2704 61.6357L78.5971 53.1547C78.9385 52.8064 79.1298 52.3381 79.1298 51.8503V39.8611C79.1306 39.3737 78.9404 38.9055 78.6 38.5567L70.2733 30.0786C70.1065 29.9078 69.9072 29.7718 69.6873 29.6789C69.4673 29.5859 69.231 29.5377 68.9922 29.5371" fill="white"/>
</g>
<defs>
<clipPath id="clip0_342_6804">
<rect width="93.1659" height="93.1659" fill="white" transform="translate(0.627441 0.421875)"/>
</clipPath>
</defs>
</svg>
