<svg width="94" height="94" viewBox="0 0 94 94" fill="none" xmlns="http://www.w3.org/2000/svg">
<g clip-path="url(#clip0_342_6808)">
<path d="M46.7245 93.5877C72.4516 93.5877 93.3075 72.7319 93.3075 47.0048C93.3075 21.2778 72.4516 0.421875 46.7245 0.421875C20.9975 0.421875 0.141602 21.2778 0.141602 47.0048C0.141602 72.7319 20.9975 93.5877 46.7245 93.5877Z" fill="#4F7AA2"/>
<path d="M38.8898 35.3594H46.8613C50.7103 35.3594 57.5841 37.6973 57.5841 47.0051C57.5841 56.313 50.7132 58.6508 46.8613 58.6508H38.8927L38.8898 35.3594ZM43.2861 53.9343H46.5877C49.3361 53.9343 52.6347 52.2515 52.6347 47.0051C52.6347 41.7587 49.3361 40.0759 46.5877 40.0759H43.289L43.2861 53.9343ZM60.612 35.3594H62.2599L77.1024 55.8151V35.3594H78.7503V58.6508H77.0995L62.257 38.6435V58.6508H60.6062L60.612 35.3594ZM14.6987 35.3594H20.1955V41.1822H14.6987V35.3594ZM22.9468 35.3594H28.4407V41.1822H22.9468V35.3594ZM31.192 35.3594H36.6917V41.1822H31.192V35.3594ZM31.192 44.0937H36.6917V49.9165H31.192V44.0937ZM31.192 52.828H36.6917V58.6508H31.192V52.828ZM22.9468 44.0937H28.4407V49.9165H22.9468V44.0937Z" fill="white"/>
</g>
<defs>
<clipPath id="clip0_342_6808">
<rect width="93.1659" height="93.1659" fill="white" transform="translate(0.141602 0.421875)"/>
</clipPath>
</defs>
</svg>
