<svg width="94" height="94" viewBox="0 0 94 94" fill="none" xmlns="http://www.w3.org/2000/svg">
<g clip-path="url(#clip0_342_6812)">
<path d="M47.2392 93.5887C72.9662 93.5887 93.8221 72.7328 93.8221 47.0058C93.8221 21.2787 72.9662 0.422852 47.2392 0.422852C21.5121 0.422852 0.65625 21.2787 0.65625 47.0058C0.65625 72.7328 21.5121 93.5887 47.2392 93.5887Z" fill="#67B2E8"/>
<path fill-rule="evenodd" clip-rule="evenodd" d="M18.5467 35.225C18.2742 32.9857 18.1333 30.7322 18.1245 28.4763C21.9458 26.2997 26.001 24.5622 30.2128 23.2969C36.1222 21.5187 42.2744 20.6806 48.4442 20.8134C50.0979 20.8455 52.4911 21.0289 54.3078 21.224C52.0025 22.4602 50.0041 24.198 48.4597 26.3093C46.9153 28.4205 45.8643 30.8515 45.3843 33.4229C45.2096 34.3371 45.1135 35.2862 45.0815 36.2994C45.0349 37.8599 44.8835 39.0885 44.5574 40.2385C43.8243 42.8305 42.3151 45.1358 40.2328 46.8445C38.1505 48.5532 35.5949 49.5834 32.9097 49.7964C30.2245 50.0095 27.5385 49.3953 25.2128 48.0363C22.8871 46.6774 21.0332 44.6389 19.9005 42.195C19.7724 41.9151 19.6748 41.6223 19.6093 41.3216C19.1482 39.3095 18.7935 37.2745 18.5467 35.225ZM66.9143 60.1469C66.2214 61.2241 65.4877 62.2723 64.7249 63.3058C64.7486 60.3654 64.0167 57.4682 62.5996 54.8918C61.1417 52.1777 58.9846 49.9029 56.3516 48.3032L56.0896 48.1431C55.9439 48.0575 55.7993 47.9702 55.6558 47.881C52.3455 45.7761 50.3279 42.8297 49.6175 39.0274C49.0009 35.7151 49.6788 32.2926 51.5114 29.4654C53.344 26.6383 56.1915 24.6221 59.4669 23.8326C61.8542 23.2561 64.2125 23.3377 66.562 24.0742C68.3642 24.642 70.1868 25.3844 72.4082 26.4238C73.6892 27.0264 74.9819 27.6961 76.3561 28.4734C76.3373 32.5337 75.8963 36.581 75.0401 40.5501C73.546 47.5217 70.7934 54.1626 66.9172 60.1469H66.9143ZM58.0723 70.8406C54.7851 73.9733 51.1514 76.7209 47.2418 79.0305C46.2315 78.4482 45.2438 77.8276 44.2808 77.1701C34.9424 70.8896 27.5832 62.0824 23.0623 51.7765C25.216 53.0432 27.6208 53.8233 30.108 54.062C33.7644 54.4322 37.4448 53.645 40.6299 51.8115C42.161 50.9391 43.8486 50.3762 45.5968 50.1549C48.6965 49.7633 51.8344 50.4873 54.4492 52.1974C57.064 53.9075 58.985 56.4921 59.8686 59.4889C60.844 62.7526 60.5587 65.9581 59.0447 69.117C58.9166 69.3849 58.806 69.6003 58.5439 70.1157L58.4158 70.369C58.3295 70.5449 58.2133 70.7045 58.0723 70.8406Z" fill="white"/>
</g>
<defs>
<clipPath id="clip0_342_6812">
<rect width="93.1659" height="93.1659" fill="white" transform="translate(0.655273 0.421875)"/>
</clipPath>
</defs>
</svg>
