<svg width="94" height="94" viewBox="0 0 94 94" fill="none" xmlns="http://www.w3.org/2000/svg">
<g clip-path="url(#clip0_342_6816)">
<path d="M46.7519 93.5887C72.4789 93.5887 93.3348 72.7328 93.3348 47.0058C93.3348 21.2787 72.4789 0.422852 46.7519 0.422852C21.0248 0.422852 0.168945 21.2787 0.168945 47.0058C0.168945 72.7328 21.0248 93.5887 46.7519 93.5887Z" fill="#1EB5FA"/>
<path d="M77.0454 21.2423L66.4769 25.9297C66.1686 26.0984 65.9113 26.3468 65.7321 26.649C65.5528 26.9512 65.4581 27.2961 65.4579 27.6475V65.4379C65.4567 65.7931 65.5541 66.1417 65.7391 66.4449C65.9241 66.7481 66.1896 66.9941 66.506 67.1556L77.0745 71.7266C77.2251 71.8088 77.3946 71.8503 77.5661 71.8468C77.7377 71.8433 77.9053 71.795 78.0525 71.7067C78.1996 71.6185 78.3211 71.4932 78.4049 71.3435C78.4887 71.1938 78.5319 71.0247 78.5302 70.8531V22.1157C78.5247 21.9439 78.4758 21.7762 78.388 21.6283C78.3003 21.4805 78.1766 21.3572 78.0284 21.27C77.8802 21.1828 77.7123 21.1346 77.5404 21.1297C77.3685 21.1249 77.1982 21.1636 77.0454 21.2423ZM26.4301 25.8715L16.1818 21.2132C16.0312 21.1309 15.8618 21.0895 15.6902 21.093C15.5186 21.0965 15.351 21.1447 15.2038 21.233C15.0567 21.3213 14.9352 21.4465 14.8514 21.5963C14.7676 21.746 14.7244 21.915 14.7261 22.0866V70.824C14.7262 71.0007 14.7735 71.1741 14.863 71.3264C14.9525 71.4787 15.0811 71.6043 15.2354 71.6904C15.3896 71.7764 15.5641 71.8198 15.7407 71.8159C15.9173 71.812 16.0897 71.7611 16.2401 71.6683L26.5465 66.2239C26.8312 66.0505 27.0664 65.8068 27.2296 65.5161C27.3928 65.2255 27.4784 64.8978 27.4782 64.5644V27.5892C27.4671 27.2367 27.3646 26.8931 27.1809 26.592C26.9972 26.2909 26.7385 26.0426 26.4301 25.8715ZM58.5723 38.7691L47.538 32.4513C47.2416 32.2795 46.9052 32.1891 46.5627 32.1891C46.2201 32.1891 45.8837 32.2795 45.5873 32.4513L34.3492 38.7109C34.0485 38.8858 33.799 39.1365 33.6253 39.4378C33.4516 39.7392 33.3599 40.0808 33.3593 40.4287V53.239C33.3593 53.9464 33.7378 54.6015 34.3492 54.9567L45.5873 61.4201C46.19 61.7695 46.9353 61.7695 47.538 61.4201L58.5723 55.0149C58.873 54.84 59.1225 54.5894 59.2962 54.288C59.4699 53.9866 59.5616 53.645 59.5622 53.2972V40.4869C59.5652 40.1383 59.475 39.7953 59.3009 39.4933C59.1269 39.1913 58.8754 38.9413 58.5723 38.7691Z" fill="white"/>
</g>
<defs>
<clipPath id="clip0_342_6816">
<rect width="93.1659" height="93.1659" fill="white" transform="translate(0.169922 0.421875)"/>
</clipPath>
</defs>
</svg>
