<svg width="94" height="94" viewBox="0 0 94 94" fill="none" xmlns="http://www.w3.org/2000/svg">
<g clip-path="url(#clip0_342_6824)">
<path d="M46.7812 93.5887C72.5082 93.5887 93.3641 72.7328 93.3641 47.0058C93.3641 21.2787 72.5082 0.422852 46.7812 0.422852C21.0541 0.422852 0.198242 21.2787 0.198242 47.0058C0.198242 72.7328 21.0541 93.5887 46.7812 93.5887Z" fill="black"/>
<path d="M67.5388 27.475L60.5514 31.0386L26.7846 48.2365C26.3035 44.5407 26.8587 40.7839 28.3881 37.3852C29.9176 33.9865 32.3612 31.0795 35.4464 28.9886C38.5316 26.8977 42.137 25.705 45.8605 25.5437C49.584 25.3823 53.2791 26.2586 56.5336 28.0748L60.5339 26.0368L61.1308 25.7311C57.3358 22.9771 52.8319 21.3666 48.1512 21.0898C43.4704 20.8129 38.8081 21.8812 34.7149 24.1686C30.6217 26.456 27.2685 29.8669 25.0512 33.9985C22.834 38.1301 21.8454 42.8099 22.202 47.4853C22.2688 48.3647 22.0738 49.2442 21.6417 50.013C21.2097 50.7818 20.5598 51.4056 19.7739 51.8059L17.6631 52.8831V57.9024L23.8761 54.7348L25.8879 53.707L27.8706 52.6968L63.4658 34.5585L67.4661 32.5234L75.7345 28.3106V23.2942L67.5388 27.475ZM75.7374 33.3328L29.8969 56.6709L25.8966 58.7089L17.666 62.9101V67.9265L25.8413 63.7631L32.8317 60.1995L66.6334 42.9755C67.1218 46.677 66.5705 50.4413 65.041 53.8472C63.5116 57.2531 61.0644 60.1661 57.9735 62.2602C54.8825 64.3543 51.2697 65.5468 47.5394 65.7043C43.8092 65.8617 40.1088 64.9779 36.8523 63.1517L36.6049 63.2827L32.2668 65.4954C36.0624 68.2509 40.5675 69.8624 45.2496 70.1395C49.9318 70.4165 54.5954 69.3476 58.6895 67.059C62.7836 64.7704 66.1371 61.3577 68.3537 57.2242C70.5703 53.0907 71.5575 48.4091 71.1985 43.7325C71.1325 42.8539 71.3275 41.9754 71.7589 41.2073C72.1904 40.4391 72.8391 39.8156 73.6237 39.4148L75.7374 38.3376V33.3357V33.3328Z" fill="white"/>
</g>
<defs>
<clipPath id="clip0_342_6824">
<rect width="93.1659" height="93.1659" fill="white" transform="translate(0.197266 0.421875)"/>
</clipPath>
</defs>
</svg>
