<svg width="94" height="94" viewBox="0 0 94 94" fill="none" xmlns="http://www.w3.org/2000/svg">
<g clip-path="url(#clip0_342_6820)">
<path d="M47.2665 93.6854C56.4798 93.6854 65.4861 90.9534 73.1466 85.8348C80.8071 80.7162 86.7778 73.4409 90.3036 64.929C93.8293 56.4171 94.7518 47.0508 92.9544 38.0146C91.157 28.9784 86.7204 20.6781 80.2056 14.1634C73.6909 7.64864 65.3906 3.21204 56.3544 1.41463C47.3182 -0.382783 37.9519 0.539715 29.44 4.06547C20.9281 7.59122 13.6528 13.5619 8.53423 21.2224C3.41564 28.8829 0.683594 37.8893 0.683594 47.1025C0.683594 59.4571 5.59142 71.3056 14.3274 80.0416C23.0634 88.7776 34.912 93.6854 47.2665 93.6854Z" fill="white"/>
<path d="M69.7111 26.5134L62.1858 30.3248L25.8554 48.8309C25.3437 44.8575 25.9448 40.82 27.5918 37.168C29.2388 33.516 31.8671 30.3928 35.1841 28.1461C38.501 25.8994 42.3764 24.6174 46.3789 24.4428C50.3813 24.2682 54.3536 25.2078 57.8536 27.1571L62.1519 24.9847L62.7956 24.6586C58.8526 21.7961 54.195 20.0792 49.3374 19.6975C44.4799 19.3157 39.6113 20.2841 35.2695 22.4955C30.9277 24.7069 27.2816 28.0754 24.7339 32.2289C22.1863 36.3823 20.8362 41.1591 20.8329 46.0317C20.8329 46.705 20.8583 47.3741 20.9091 48.0432C20.9808 48.9907 20.7711 49.9383 20.3063 50.767C19.8414 51.5958 19.1422 52.2688 18.2962 52.7015L16.0264 53.8576V59.257L22.7131 55.8692L24.8771 54.7639L26.9945 53.6755L65.3069 34.1361L69.6137 31.9467L78.5068 27.4112V22.0203L69.7111 26.5134Z" fill="black"/>
<path d="M78.5068 32.8145L29.1839 57.9269L24.8814 60.1332L16.0264 64.6391V70.0342L24.8221 65.5495L32.3431 61.7382L68.7117 43.194C68.8337 44.1362 68.8946 45.0854 68.8938 46.0355C68.888 49.8076 67.8968 53.5128 66.0182 56.7838C64.1396 60.0549 61.439 62.7783 58.1838 64.6842C54.9286 66.5902 51.2319 67.6125 47.46 67.6499C43.6881 67.6873 39.9719 66.7384 36.6795 64.8974L36.417 65.0371L31.7587 67.4171C35.7026 70.2802 40.3614 71.9973 45.2201 72.3785C50.0788 72.7597 54.9483 71.7903 59.2905 69.5773C63.6327 67.3643 67.2786 63.994 69.8254 59.8387C72.3721 55.6834 73.7204 50.9049 73.7215 46.0313C73.7215 45.3537 73.696 44.6719 73.6452 44.0028C73.5714 43.0555 73.7798 42.1076 74.244 41.2786C74.7083 40.4496 75.4076 39.7766 76.2539 39.3445L78.528 38.1884L78.5068 32.8145Z" fill="black"/>
</g>
<defs>
<clipPath id="clip0_342_6820">
<rect width="93.1659" height="93.1659" fill="white" transform="translate(0.683594 0.421875)"/>
</clipPath>
</defs>
</svg>
