<svg width="94" height="94" viewBox="0 0 94 94" fill="none" xmlns="http://www.w3.org/2000/svg">
<g clip-path="url(#clip0_342_6828)">
<path d="M47.2944 93.5887C73.0214 93.5887 93.8773 72.7328 93.8773 47.0058C93.8773 21.2787 73.0214 0.422852 47.2944 0.422852C21.5673 0.422852 0.711426 21.2787 0.711426 47.0058C0.711426 72.7328 21.5673 93.5887 47.2944 93.5887Z" fill="#DD0632"/>
<path d="M66.7488 20.8027H51.7258L47.2597 28.5239L42.8081 20.8027H27.7793L12.3574 47.5151L27.2902 73.3687L37.4132 55.8447L47.2946 72.9057L57.1469 55.8447L67.2933 73.488L82.2318 47.6345L66.7488 20.8027ZM27.2698 63.1466L18.2385 47.5239L25.421 35.0862L34.4465 50.7206L27.2669 63.1612V63.1466H27.2698ZM28.3878 29.9505L30.7693 25.8133H39.7686L44.2958 33.6538L37.4132 45.5878L28.3878 29.9505ZM47.2539 62.6517L40.3771 50.709L47.2597 38.7808L50.3342 44.0942L54.1481 50.7119L47.2597 62.64L47.2539 62.6546V62.6517ZM50.2148 33.6538L54.7508 25.8133H63.75L66.1607 29.9475L57.077 45.5878L50.2148 33.6509V33.6538ZM73.4131 52.6858L67.3195 63.2573L60.0758 50.6799L69.1013 35.0775L71.5352 39.27L76.3478 47.6054L73.4131 52.6858Z" fill="white"/>
</g>
<defs>
<clipPath id="clip0_342_6828">
<rect width="93.1659" height="93.1659" fill="white" transform="translate(0.711426 0.421875)"/>
</clipPath>
</defs>
</svg>
