<svg width="94" height="94" viewBox="0 0 94 94" fill="none" xmlns="http://www.w3.org/2000/svg">
<g clip-path="url(#clip0_342_6832)">
<path d="M46.8085 93.5877C72.5356 93.5877 93.3915 72.7319 93.3915 47.0048C93.3915 21.2778 72.5356 0.421875 46.8085 0.421875C21.0815 0.421875 0.225586 21.2778 0.225586 47.0048C0.225586 72.7319 21.0815 93.5877 46.8085 93.5877Z" fill="#004A80"/>
<path fill-rule="evenodd" clip-rule="evenodd" d="M67.1883 57.3121L62.8706 73.2085H26.4282V70.5504L46.1969 48.077L26.8271 23.6909V20.8027H62.728L63.9799 33.1821H61.6799C60.163 30.361 58.8762 28.2502 57.8135 26.8498C56.7537 25.4494 55.8075 24.5789 54.9748 24.2324C54.3867 23.9471 53.5773 23.7433 52.5467 23.621C51.316 23.4855 50.0785 23.4224 48.8404 23.4318H38.6417L53.9238 42.4725V43.3896L35.0344 64.8323H56.5936C57.6533 64.8323 58.6258 64.5791 59.505 64.0754C60.3843 63.5688 61.1471 62.9341 61.7905 62.1713C62.4665 61.3827 63.0661 60.5317 63.581 59.6296C64.1324 58.6724 64.6169 57.6782 65.0309 56.6541L67.1883 57.3121Z" fill="white"/>
</g>
<defs>
<clipPath id="clip0_342_6832">
<rect width="93.1659" height="93.1659" fill="white" transform="translate(0.225586 0.421875)"/>
</clipPath>
</defs>
</svg>
