<svg width="94" height="94" viewBox="0 0 94 94" fill="none" xmlns="http://www.w3.org/2000/svg">
<g clip-path="url(#clip0_342_6836)">
<path d="M47.3229 93.5887C73.05 93.5887 93.9059 72.7328 93.9059 47.0058C93.9059 21.2787 73.05 0.422852 47.3229 0.422852C21.5959 0.422852 0.73999 21.2787 0.73999 47.0058C0.73999 72.7328 21.5959 93.5887 47.3229 93.5887Z" fill="#FF6600"/>
<path d="M82.2597 47.0042C82.2597 66.3012 66.6194 81.9414 47.3225 81.9414C28.0255 81.9414 12.3853 66.3012 12.3853 47.0042C12.3853 39.1986 14.9502 31.9928 19.2621 26.1787L24.9685 31.8851C21.9387 36.3446 20.3215 41.6128 20.3276 47.0042C20.3276 61.8816 32.4188 73.9699 47.2963 73.9699C62.1708 73.9699 74.262 61.8787 74.262 47.0042C74.2597 41.6132 72.6433 36.3464 69.6211 31.8822L75.3275 26.1758C79.8424 32.1797 82.2761 39.4922 82.2597 47.0042Z" fill="white"/>
<path d="M66.6454 47.0053C66.64 52.1285 64.6024 57.0403 60.9798 60.6629C57.3572 64.2856 52.4454 66.3231 47.3222 66.3285C42.1985 66.3239 37.286 64.2867 33.6627 60.664C30.0394 57.0412 28.0015 52.129 27.9961 47.0053C27.9961 43.6485 28.8695 40.3469 30.5349 37.4267L47.3222 54.2082L64.1095 37.4209C65.7741 40.3409 66.6491 43.6442 66.6483 47.0053" fill="white"/>
<path d="M70.1688 20.5844L47.3228 43.4013L29.9095 26.0172L24.4768 20.5844C30.8097 15.0731 38.9275 12.0471 47.3228 12.0685C56.0571 12.0685 64.0286 15.2623 70.1688 20.5844Z" fill="white"/>
</g>
<defs>
<clipPath id="clip0_342_6836">
<rect width="93.1659" height="93.1659" fill="white" transform="translate(0.739502 0.421875)"/>
</clipPath>
</defs>
</svg>
