<svg width="94" height="94" viewBox="0 0 94 94" fill="none" xmlns="http://www.w3.org/2000/svg">
<g clip-path="url(#clip0_342_6843)">
<path d="M46.8354 93.5887C72.5624 93.5887 93.4183 72.7328 93.4183 47.0058C93.4183 21.2787 72.5624 0.422852 46.8354 0.422852C21.1083 0.422852 0.252441 21.2787 0.252441 47.0058C0.252441 72.7328 21.1083 93.5887 46.8354 93.5887Z" fill="#FF6600"/>
<path d="M46.7477 15.6641C64.1727 15.6641 78.264 29.7554 78.264 47.1774C78.2522 50.5729 77.7039 53.9451 76.6394 57.1695H67.2472V30.6929L46.7507 51.1894L26.2542 30.6929V57.1695H16.859C15.7955 53.945 15.2482 50.5727 15.2373 47.1774C15.2373 29.7554 29.3286 15.6641 46.7507 15.6641H46.7477ZM42.0545 55.7982L46.8351 60.5001L51.5312 55.8011L60.414 46.8339V63.4873H73.6523C70.8443 68.1055 66.894 71.9224 62.182 74.57C57.4701 77.2177 52.1555 78.6068 46.7507 78.6034C35.3902 78.6034 25.3982 72.5418 19.849 63.4873H33.0844V46.8339L42.0516 55.8011L42.0545 55.7982Z" fill="white"/>
</g>
<defs>
<clipPath id="clip0_342_6843">
<rect width="93.1659" height="93.1659" fill="white" transform="translate(0.253418 0.421875)"/>
</clipPath>
</defs>
</svg>
