<svg width="94" height="94" viewBox="0 0 94 94" fill="none" xmlns="http://www.w3.org/2000/svg">
<g clip-path="url(#clip0_342_6847)">
<path d="M47.3505 93.5887C73.0776 93.5887 93.9334 72.7328 93.9334 47.0058C93.9334 21.2787 73.0776 0.422852 47.3505 0.422852C21.6235 0.422852 0.767578 21.2787 0.767578 47.0058C0.767578 72.7328 21.6235 93.5887 47.3505 93.5887Z" fill="#EC1076"/>
<path fill-rule="evenodd" clip-rule="evenodd" d="M62.0535 61.5626C60.3008 61.5626 58.3764 60.6804 58.3764 58.0339C58.3764 56.7296 59.3954 52.7206 61.4276 46.0039C61.8439 44.9674 62.0506 44.0357 62.0506 43.2118C62.0506 41.6251 60.8278 40.0384 58.5511 40.0384C57.2293 40.0384 54.3499 40.5624 53.4764 43.3865C52.8942 45.2702 51.552 50.2691 49.4499 58.3862C48.6347 60.5028 47.1761 61.5626 45.077 61.5626C41.9268 61.5626 41.3998 59.2684 41.3998 57.8563C41.3998 57.2973 42.2383 53.9172 43.9182 47.7245C44.5733 45.6574 44.8994 44.1522 44.8994 43.2118C44.8994 41.7998 43.8512 40.0384 41.3998 40.0384C38.9513 40.0384 36.6746 41.7998 35.6264 45.6807C34.9277 48.2719 33.9349 52.1528 32.651 57.3264C31.9522 60.1505 30.3742 61.5626 27.9257 61.5626C25.7072 61.5626 24.5426 60.3281 24.4262 57.8563L28.4498 41.0952H19.5262C18.9732 41.1145 18.422 41.0229 17.9049 40.826C17.3878 40.629 16.9154 40.3306 16.5154 39.9484C16.1153 39.5661 15.7958 39.1076 15.5756 38.6C15.3554 38.0924 15.239 37.5459 15.2331 36.9926C15.2273 36.4393 15.3322 35.8905 15.5417 35.3783C15.7512 34.8662 16.0609 34.4011 16.4528 34.0105C16.8447 33.6199 17.3108 33.3116 17.8236 33.1038C18.3364 32.896 18.8856 32.7929 19.4389 32.8005H34.4007C36.4999 32.8005 37.7838 33.8021 38.2496 35.7993C40.3517 33.1557 43.1496 32.4482 45.6039 32.4482C48.0583 32.4482 51.2026 33.8603 52.603 37.0367C54.5246 34.9171 57.8523 32.4482 62.5776 32.4482C66.9506 32.4482 70.6277 35.447 70.6277 40.74C70.6277 42.7402 69.6349 46.9181 67.6522 53.2708L75.3297 53.2184C77.5744 53.2184 79.3766 55.0875 79.3766 57.3905C79.3766 59.6934 77.5744 61.5626 75.35 61.5626H62.0535Z" fill="white"/>
</g>
<defs>
<clipPath id="clip0_342_6847">
<rect width="93.1659" height="93.1659" fill="white" transform="translate(0.767578 0.421875)"/>
</clipPath>
</defs>
</svg>
