<svg width="94" height="94" viewBox="0 0 94 94" fill="none" xmlns="http://www.w3.org/2000/svg">
<g clip-path="url(#clip0_342_6851)">
<path d="M46.8649 93.5877C72.592 93.5877 93.4479 72.7319 93.4479 47.0048C93.4479 21.2778 72.592 0.421875 46.8649 0.421875C21.1379 0.421875 0.281982 21.2778 0.281982 47.0048C0.281982 72.7319 21.1379 93.5877 46.8649 93.5877Z" fill="#008200"/>
<path d="M43.342 67.3851H38.1073L34.9571 55.0115L42.6579 50.9879L45.1646 58.15L47.0308 48.7024L57.2645 43.3541L56.6997 46.1957L62.6099 46.251C64.8925 46.216 66.6597 45.4445 67.9175 43.9422C69.1752 42.437 69.772 40.4194 69.708 37.8777C69.6978 37.5505 69.6637 37.2246 69.6061 36.9024L77.5543 32.7477C78.6548 34.7712 79.0741 37.1557 78.8179 39.8953C78.3928 43.8898 76.6634 47.0866 73.6384 49.4827C70.6134 51.8817 66.7558 53.0812 62.0713 53.0812L55.3575 53.0521L52.5131 67.3851H43.342ZM44.5678 35.3884H49.6628L41.8106 46.5246L22.4205 56.6593L29.6059 46.4984L22.7 26.625H32.8318L36.4128 40.5679L39.4757 35.3855H44.5707H39.4757L44.9433 26.625H51.3922L66.3162 26.6541C69.708 26.7473 72.4884 27.6469 74.6603 29.353L66.5083 33.6154C66.3081 33.5782 66.1059 33.5529 65.9027 33.5397L59.2239 33.4814L58.3505 37.8777L48.111 43.2289L49.6599 35.3855L44.5678 35.3884ZM17.1275 64.3339L32.6367 56.2255L25.8007 67.3851H14.8391L17.0722 64.2262L17.1275 64.3339Z" fill="white"/>
</g>
<defs>
<clipPath id="clip0_342_6851">
<rect width="93.1659" height="93.1659" fill="white" transform="translate(0.281494 0.421875)"/>
</clipPath>
</defs>
</svg>
