<svg width="94" height="95" viewBox="0 0 94 95" fill="none" xmlns="http://www.w3.org/2000/svg">
<g clip-path="url(#clip0_342_6855)">
<path d="M47.0414 94.1024C72.7685 94.1024 93.6244 73.2465 93.6244 47.5195C93.6244 21.7924 72.7685 0.936523 47.0414 0.936523C21.3144 0.936523 0.458496 21.7924 0.458496 47.5195C0.458496 73.2465 21.3144 94.1024 47.0414 94.1024Z" fill="#4FA784"/>
<path fill-rule="evenodd" clip-rule="evenodd" d="M74.9185 38.3368L51.3068 31.5706L43.2305 45.3272L33.8498 34.4471L38.1005 33.8998L42.4822 39.0472L47.3443 30.4323L25.9453 24.2979C25.6578 24.2127 25.3529 24.2047 25.0614 24.2749C24.7699 24.345 24.502 24.4907 24.2847 24.6974C24.0674 24.904 23.9085 25.1643 23.8238 25.4519C23.7391 25.7396 23.7318 26.0445 23.8025 26.3359L33.2821 64.4058L43.4634 47.2633L52.844 58.1433L48.5933 58.6906L44.2146 53.5432L34.5777 69.6056L36.0043 75.3411C36.0785 75.632 36.2277 75.8984 36.4369 76.1136C36.6462 76.3289 36.9082 76.4856 37.1968 76.5681C37.4855 76.6505 37.7907 76.6559 38.0821 76.5837C38.3735 76.5114 38.6408 76.3641 38.8575 76.1563L75.6289 41.19C75.846 40.9843 76.0046 40.7247 76.0885 40.4376C76.1723 40.1505 76.1785 39.8463 76.1062 39.5561C76.0339 39.2659 75.8859 39.0001 75.6772 38.7859C75.4686 38.5716 75.2067 38.4167 74.9185 38.3368Z" fill="white"/>
</g>
<defs>
<clipPath id="clip0_342_6855">
<rect width="93.1659" height="93.1659" fill="white" transform="translate(0.459473 0.936523)"/>
</clipPath>
</defs>
</svg>
