<svg width="95" height="95" viewBox="0 0 95 95" fill="none" xmlns="http://www.w3.org/2000/svg">
<g clip-path="url(#clip0_342_6859)">
<path d="M47.5566 94.1024C73.2836 94.1024 94.1395 73.2465 94.1395 47.5195C94.1395 21.7924 73.2836 0.936523 47.5566 0.936523C21.8295 0.936523 0.973633 21.7924 0.973633 47.5195C0.973633 73.2465 21.8295 94.1024 47.5566 94.1024Z" fill="#FFD81B"/>
<path d="M70.8481 46.2438C70.8481 59.1211 60.8735 63.4999 52.4769 63.4999V66.8567H58.9549V71.4044H52.4798V76.6333H42.3481V71.4044H36.1554V66.8567H42.3364V63.4562C39.6492 63.4562 24.2651 62.8186 24.2651 45.3092V24.2275H34.3241V46.1157C34.3241 55.2547 42.3772 55.1703 42.3772 55.1703V24.2275H52.4798V55.1703C52.4798 55.1703 60.7891 55.6361 60.7891 45.9905V24.2275H70.8481V46.2438Z" fill="white"/>
</g>
<defs>
<clipPath id="clip0_342_6859">
<rect width="93.1659" height="93.1659" fill="white" transform="translate(0.973633 0.936523)"/>
</clipPath>
</defs>
</svg>
