<svg width="94" height="95" viewBox="0 0 94 95" fill="none" xmlns="http://www.w3.org/2000/svg">
<g clip-path="url(#clip0_342_6863)">
<path d="M47.0717 94.1024C72.7988 94.1024 93.6546 73.2465 93.6546 47.5195C93.6546 21.7924 72.7988 0.936523 47.0717 0.936523C21.3447 0.936523 0.48877 21.7924 0.48877 47.5195C0.48877 73.2465 21.3447 94.1024 47.0717 94.1024Z" fill="#23292F"/>
<path d="M67.6552 24.2275H76.0692L58.557 41.5709C55.4952 44.5876 51.3695 46.2785 47.0714 46.2785C42.7732 46.2785 38.6475 44.5876 35.5858 41.5709L18.0589 24.2275H26.4875L39.7928 37.396C41.7303 39.3084 44.3432 40.3806 47.0655 40.3806C49.7879 40.3806 52.4008 39.3084 54.3383 37.396L67.6552 24.2275ZM26.3856 72.4496H17.957L35.5858 55.0014C38.6475 51.9848 42.7732 50.2938 47.0714 50.2938C51.3695 50.2938 55.4952 51.9848 58.557 55.0014L76.1857 72.4467H67.7571L54.3499 59.1647C52.4124 57.2523 49.7996 56.18 47.0772 56.18C44.3548 56.18 41.742 57.2523 39.8044 59.1647L26.3827 72.4496H26.3856Z" fill="white"/>
</g>
<defs>
<clipPath id="clip0_342_6863">
<rect width="93.1659" height="93.1659" fill="white" transform="translate(0.487793 0.936523)"/>
</clipPath>
</defs>
</svg>
