<svg width="94" height="95" viewBox="0 0 94 95" fill="none" xmlns="http://www.w3.org/2000/svg">
<g clip-path="url(#clip0_342_6867)">
<path d="M46.5834 94.1024C72.3105 94.1024 93.1664 73.2465 93.1664 47.5195C93.1664 21.7924 72.3105 0.936523 46.5834 0.936523C20.8564 0.936523 0.000488281 21.7924 0.000488281 47.5195C0.000488281 73.2465 20.8564 94.1024 46.5834 94.1024Z" fill="#D21E2B"/>
<path d="M46.991 17.983V9.6709L77.9279 27.5238L70.7745 31.6813L46.991 17.983ZM71.2491 59.9572V32.5664L78.4723 28.4089V64.1147L71.252 59.9572H71.2491ZM46.991 74.5406L70.7745 60.8452L77.9279 64.9998L46.991 82.8527V74.5406ZM15.0351 64.9998L22.2554 60.8452L45.9691 74.5406V82.8527L15.0351 64.9998ZM14.5576 28.4089L21.711 32.5664V59.9572L14.5576 64.1147V28.4089ZM15.0351 27.5238L45.9691 9.6709V17.983L22.2584 31.6813L15.0351 27.5238ZM46.5484 18.7662L22.7009 32.4674V59.995L46.5484 73.7603L70.329 59.995V32.4674L46.5484 18.7691V18.7662ZM65.6969 43.3678L64.675 45.138L57.8623 41.324L49.1396 46.2269L57.8594 51.1326L64.6721 47.3186L65.6969 49.0888L59.9731 52.2914L65.6969 55.4939L64.675 57.267L58.9512 54.0644V60.4696H56.8375V52.9057L48.1177 47.9999V57.8115L54.8635 61.5585L53.8416 63.2966L48.1177 60.094V66.4992H46.0011V60.094L40.2772 63.2966L39.1883 61.5264L46.0011 57.7765V47.9999L37.2784 52.9057V60.4696H35.0978V54.0644L29.4438 57.267L28.352 55.4939L34.0759 52.2914L28.352 49.0888L29.4438 47.3186L36.1896 51.1326L44.9792 46.2269L36.1867 41.3211L29.4438 45.1351L28.352 43.3649L34.0759 40.1623L28.352 36.9598L29.4438 35.1896L35.0978 38.3922V31.9521H37.2814V39.516L46.0011 44.4218V34.6452L39.2553 30.8952L40.2772 29.1251L46.0011 32.3277V25.9225H48.1148V32.3277L53.8387 29.1251L54.8577 30.8952L48.1148 34.6452V44.4567L56.8345 39.5509V31.9521H58.9482V38.3573L64.6721 35.1547L65.6911 36.9277L59.9702 40.1303L65.694 43.3649L65.6969 43.3678Z" fill="white"/>
</g>
<defs>
<clipPath id="clip0_342_6867">
<rect width="93.1659" height="93.1659" fill="white" transform="translate(0.00146484 0.936523)"/>
</clipPath>
</defs>
</svg>
