<svg width="94" height="95" viewBox="0 0 94 95" fill="none" xmlns="http://www.w3.org/2000/svg">
<g clip-path="url(#clip0_342_6876)">
<path d="M46.6137 94.1024C72.3407 94.1024 93.1966 73.2465 93.1966 47.5195C93.1966 21.7924 72.3407 0.936523 46.6137 0.936523C20.8867 0.936523 0.0307617 21.7924 0.0307617 47.5195C0.0307617 73.2465 20.8867 94.1024 46.6137 94.1024Z" fill="#A6E000"/>
<path fill-rule="evenodd" clip-rule="evenodd" d="M52.9896 76.6339C48.7389 76.6339 45.6412 75.6324 43.6963 73.6352C41.7544 71.6321 40.782 69.4747 40.782 67.163C40.782 66.3187 40.9508 65.6054 41.2915 65.029C41.6236 64.4568 42.1032 63.9843 42.6802 63.6606C43.2683 63.3287 43.9904 63.1598 44.8493 63.1598C45.7081 63.1598 46.4331 63.3287 47.0212 63.6606C47.6093 63.9954 48.0693 64.4496 48.4099 65.029C48.7506 65.6054 48.9194 66.3187 48.9194 67.163C48.9194 68.185 48.672 69.0176 48.1741 69.664C47.7378 70.2652 47.119 70.7094 46.4098 70.9304C46.9979 71.7311 47.9237 72.2988 49.1902 72.6307C50.4567 72.9888 51.7231 73.1664 52.9867 73.1664C54.6851 73.1862 56.3507 72.6986 57.7702 71.766C59.1939 70.8315 60.2449 69.4514 60.9204 67.6318C61.5987 65.8063 61.9394 63.7392 61.9394 61.4275C61.9394 58.915 61.5667 56.7692 60.8214 54.9903C60.0964 53.1882 59.0221 51.8547 57.5984 50.9871C56.2129 50.1315 54.6151 49.6816 52.9867 49.6886C51.9037 49.6886 50.5469 50.1312 48.9194 51.0221L45.9352 52.4894V51.0221L59.3627 33.4137H40.782V51.6888C40.782 53.2027 41.1197 54.4459 41.801 55.4241C42.4764 56.4024 43.5187 56.8915 44.9162 56.8915C46.0022 56.8915 47.0416 56.5363 48.0373 55.823C49.036 55.1071 49.907 54.2282 50.6139 53.2231C50.6839 53.0482 50.802 52.8968 50.9545 52.7864C51.0774 52.6822 51.233 52.6245 51.3942 52.6234C51.6445 52.6234 51.9357 52.7456 52.2763 52.9873C52.5852 53.3238 52.7548 53.765 52.7509 54.2217C52.7121 54.5362 52.6557 54.8482 52.582 55.1563C51.8134 56.8449 50.7478 58.1347 49.394 59.0256C48.0681 59.9051 46.5102 60.3694 44.9191 60.359C40.8955 60.359 38.1151 59.5817 36.5779 58.0241C35.0406 56.4694 34.272 54.3557 34.272 51.6888V33.4137H24.7778V30.0102H34.2691V22.2775L32.103 20.1405V18.4053H38.4092L40.782 19.6048V30.0102L65.3283 29.9433L67.7739 32.3452L52.7159 47.1528C53.6281 46.7942 54.587 46.5687 55.5633 46.4831C57.1937 46.4831 59.0221 46.9956 61.0572 48.0204C63.1156 49.019 64.6965 50.399 65.8028 52.1546C66.9121 53.8898 67.6254 55.5581 67.9398 57.1594C68.2563 58.5607 68.427 59.9911 68.4493 61.4275C68.4706 64.1801 67.8432 66.8991 66.618 69.3641C65.4407 71.7664 63.4791 73.6952 61.0572 74.8318C58.5405 76.0394 55.781 76.6558 52.9896 76.6339Z" fill="white"/>
</g>
<defs>
<clipPath id="clip0_342_6876">
<rect width="93.1659" height="93.1659" fill="white" transform="translate(0.0297852 0.936523)"/>
</clipPath>
</defs>
</svg>
