<svg width="94" height="95" viewBox="0 0 94 95" fill="none" xmlns="http://www.w3.org/2000/svg">
<g clip-path="url(#clip0_342_6871)">
<path d="M47.0986 94.1024C72.8256 94.1024 93.6815 73.2465 93.6815 47.5195C93.6815 21.7924 72.8256 0.936523 47.0986 0.936523C21.3715 0.936523 0.515625 21.7924 0.515625 47.5195C0.515625 73.2465 21.3715 94.1024 47.0986 94.1024Z" fill="white"/>
<path d="M47.0983 90.8451C71.0268 90.8451 90.4247 71.4472 90.4247 47.5187C90.4247 23.5903 71.0268 4.19238 47.0983 4.19238C23.1698 4.19238 3.77197 23.5903 3.77197 47.5187C3.77197 71.4472 23.1698 90.8451 47.0983 90.8451Z" fill="white"/>
<path d="M53.1592 75.7955C49.122 75.7955 46.1774 74.8229 44.3254 72.8777C42.6057 71.2342 41.6081 68.9756 41.5516 66.5975C41.5244 65.8758 41.6849 65.1593 42.0174 64.5182C42.3351 63.9675 42.7923 63.5104 43.3429 63.1927C43.9842 62.8731 44.6909 62.7068 45.4074 62.7068C46.1239 62.7068 46.8306 62.8731 47.4719 63.1927C48.0209 63.5096 48.4755 63.9671 48.7889 64.5182C49.1367 65.155 49.3105 65.8722 49.2928 66.5975C49.3279 67.4618 49.0796 68.3139 48.5856 69.024C48.1681 69.6062 47.5741 70.0383 46.8917 70.2564C47.5556 71.0993 48.4934 71.6835 49.5427 71.9079C50.7183 72.2482 51.9354 72.4235 53.1592 72.4288C54.7772 72.4411 56.3615 71.9675 57.7074 71.0695C59.1032 70.0829 60.143 68.6718 60.6718 67.0464C61.3458 65.1129 61.6755 63.0761 61.6458 61.0287C61.697 58.8948 61.3361 56.7711 60.5829 54.7739C60.0159 53.1763 58.9384 51.81 57.5169 50.8863C56.1969 50.048 54.6636 49.607 53.0999 49.6159C51.7432 49.7321 50.4351 50.1769 49.2886 50.9117L46.4513 52.3346V50.9075L59.2023 33.8031H41.5516V51.5554C41.5016 52.8353 41.8396 54.1004 42.5214 55.1847C42.8515 55.6567 43.2977 56.0356 43.817 56.2849C44.3362 56.5341 44.911 56.6453 45.4858 56.6076C46.5492 56.5854 47.5777 56.2233 48.4205 55.5743C49.3753 54.8703 50.2055 54.0115 50.8767 53.0334C50.9364 52.8629 51.0473 52.715 51.1943 52.6099C51.3125 52.5092 51.4625 52.4537 51.6178 52.4532C51.9307 52.4756 52.2279 52.5989 52.4647 52.8047C52.7614 53.1342 52.9218 53.5641 52.9136 54.0074C52.8806 54.3041 52.8283 54.5984 52.7569 54.8882C52.1296 56.4088 51.0768 57.716 49.7248 58.653C48.4746 59.4984 46.9992 59.9484 45.49 59.9446C41.6645 59.9446 39.015 59.1908 37.5412 57.6832C36.7823 56.8498 36.1973 55.8733 35.8206 54.8108C35.444 53.7484 35.2831 52.6215 35.3476 51.4962V33.8158H26.3486V30.5211H35.3645V23.0001L33.298 20.9293V19.2354H39.2945L41.5516 20.4169V30.5211L64.8854 30.4491L67.2103 32.7825L52.8967 47.1809C53.7608 46.8334 54.671 46.6137 55.5985 46.5287C57.4357 46.6101 59.2283 47.1206 60.8327 48.0194C62.6874 48.9035 64.2508 50.2993 65.3386 52.0424C66.3113 53.52 67.0006 55.1657 67.3713 56.8955C67.6737 58.2588 67.8354 59.6494 67.854 61.0457C67.8661 63.7137 67.2617 66.3485 66.0881 68.7445C64.9758 71.0639 63.1055 72.9343 60.7861 74.0465C58.4123 75.2087 55.8022 75.8072 53.1592 75.7955Z" fill="#2C7DF7"/>
</g>
<defs>
<clipPath id="clip0_342_6871">
<rect width="93.1659" height="93.1659" fill="white" transform="translate(0.515625 0.936523)"/>
</clipPath>
</defs>
</svg>
