<svg width="94" height="95" viewBox="0 0 94 95" fill="none" xmlns="http://www.w3.org/2000/svg">
<g clip-path="url(#clip0_342_6880)">
<path d="M47.1254 94.1024C72.8525 94.1024 93.7084 73.2465 93.7084 47.5195C93.7084 21.7924 72.8525 0.936523 47.1254 0.936523C21.3984 0.936523 0.54248 21.7924 0.54248 47.5195C0.54248 73.2465 21.3984 94.1024 47.1254 94.1024Z" fill="#25AAE3"/>
<path d="M79.1511 47.5189C79.1511 65.2059 64.8123 79.5447 47.1254 79.5447C29.4384 79.5447 15.0996 65.2059 15.0996 47.5189C15.0996 29.8291 29.4384 15.4932 47.1254 15.4932C64.8123 15.4932 79.1511 29.832 79.1511 47.5189ZM68.175 48.5263C68.1954 48.1624 68.175 48.5263 68.175 48.1565C68.175 37.655 60.4161 28.3268 50.3512 26.7575V20.6435L43.8296 22.6757V26.7604C33.7706 28.3268 26.0641 37.0087 26.0641 47.5044C26.0641 58.2476 34.1287 67.0983 44.5342 68.3648V74.3856L51.0558 72.3535V68.1435C54.6539 67.4478 58.008 65.8248 60.7864 63.4351C63.5647 61.0453 65.671 57.9716 66.8969 54.518H60.1395C58.8769 56.8798 56.9966 58.8545 54.6995 60.2313C52.4023 61.608 49.7744 62.3352 47.0963 62.3352C43.3502 62.3325 39.7439 60.9123 37.002 58.3599C34.26 55.8075 32.5855 52.3121 32.3149 48.5758L68.178 48.5263H68.175ZM33.2961 42.0746C34.3861 39.3029 36.2856 36.9236 38.7471 35.2468C41.2085 33.57 44.1179 32.6733 47.0963 32.6735C50.0733 32.6761 52.9806 33.5744 55.4403 35.2515C57.8999 36.9286 59.798 39.3071 60.8877 42.0775H33.299L33.2961 42.0746Z" fill="white"/>
</g>
<defs>
<clipPath id="clip0_342_6880">
<rect width="93.1659" height="93.1659" fill="white" transform="translate(0.543457 0.936523)"/>
</clipPath>
</defs>
</svg>
