<svg width="94" height="95" viewBox="0 0 94 95" fill="none" xmlns="http://www.w3.org/2000/svg">
<g clip-path="url(#clip0_342_6888)">
<path d="M47.1557 94.1024C72.8827 94.1024 93.7386 73.2465 93.7386 47.5195C93.7386 21.7924 72.8827 0.936523 47.1557 0.936523C21.4286 0.936523 0.572754 21.7924 0.572754 47.5195C0.572754 73.2465 21.4286 94.1024 47.1557 94.1024Z" fill="#00CBFF"/>
<path d="M28.5517 31.026L23.8643 21.3164H70.4472L65.8122 31.026H70.4472L47.0131 79.5451L23.8643 31.026H28.5517ZM28.5517 31.026L47.2955 69.8354L65.8122 31.026H28.5546H28.5517Z" fill="white"/>
<path opacity="0.504" d="M47.1557 72.2665L23.8643 21.3164H70.4443L47.1557 72.2665Z" fill="white"/>
</g>
<defs>
<clipPath id="clip0_342_6888">
<rect width="93.1659" height="93.1659" fill="white" transform="translate(0.571777 0.936523)"/>
</clipPath>
</defs>
</svg>
