<svg width="94" height="95" viewBox="0 0 94 95" fill="none" xmlns="http://www.w3.org/2000/svg">
<g clip-path="url(#clip0_342_6893)">
<path d="M46.6674 94.1024C72.3945 94.1024 93.2503 73.2465 93.2503 47.5195C93.2503 21.7924 72.3945 0.936523 46.6674 0.936523C20.9404 0.936523 0.0844727 21.7924 0.0844727 47.5195C0.0844727 73.2465 20.9404 94.1024 46.6674 94.1024Z" fill="#23B852"/>
<path d="M54.6016 56.6846H64.4713V65.3141H34.8184L71.6276 28.4786C72.2113 27.8879 72.6103 27.1399 72.7758 26.3261C72.9412 25.5122 72.866 24.6678 72.5593 23.896C72.2338 23.129 71.6891 22.475 70.9936 22.0162C70.298 21.5573 69.4825 21.3139 68.6492 21.3165H24.6866C24.1306 21.3126 23.5794 21.4194 23.0651 21.6305C22.5508 21.8417 22.0836 22.153 21.6907 22.5464C21.2979 22.9398 20.9872 23.4074 20.7768 23.922C20.5663 24.4366 20.4603 24.988 20.465 25.5439V56.6846L38.7342 38.4008H28.8645V29.7247H58.4679L21.7082 66.5602C21.1244 67.1509 20.7255 67.8989 20.56 68.7128C20.3946 69.5266 20.4698 70.371 20.7765 71.1428C21.4432 72.7004 22.9543 73.7223 24.6866 73.7223H68.6492C69.2041 73.7223 69.7535 73.6129 70.2661 73.4004C70.7787 73.1879 71.2443 72.8764 71.6364 72.4838C72.0285 72.0911 72.3393 71.6251 72.5511 71.1122C72.7629 70.5994 72.8716 70.0498 72.8708 69.4949V38.4008L54.6016 56.6846Z" fill="white"/>
</g>
<defs>
<clipPath id="clip0_342_6893">
<rect width="93.1659" height="93.1659" fill="white" transform="translate(0.0854492 0.936523)"/>
</clipPath>
</defs>
</svg>
