<svg width="94" height="95" viewBox="0 0 94 95" fill="none" xmlns="http://www.w3.org/2000/svg">
<g clip-path="url(#clip0_342_6897)">
<path d="M47.1825 94.1024C72.9096 94.1024 93.7655 73.2465 93.7655 47.5195C93.7655 21.7924 72.9096 0.936523 47.1825 0.936523C21.4555 0.936523 0.599609 21.7924 0.599609 47.5195C0.599609 73.2465 21.4555 94.1024 47.1825 94.1024Z" fill="#006AE3"/>
<path d="M44.8828 66.0355V29.334H48.8773V66.0355H44.8828Z" fill="white"/>
<path d="M65.2253 41.5621L52.8808 44.8346L50.1295 32.0243L53.7979 31.1974L55.2478 37.2649C55.2478 37.2649 58.5814 31.7972 54.1356 26.1315C51.5153 23.2201 50.2721 23.0978 47.3345 22.6378C44.7491 22.2681 38.7399 23.1415 36.9494 30.1551C36.1924 34.6737 37.0455 38.016 42.8684 42.3919L42.5423 47.2627C42.5423 47.2627 36.0411 42.683 34.3641 39.4717C33.0685 36.9301 30.8412 31.9107 34.859 24.9233C37.0193 21.4296 41.2816 18.0785 48.7902 18.4308C52.5634 18.588 61.7839 23.2056 60.3544 33.9837C60.107 36.0042 59.0588 38.6944 59.0588 38.6944L64.1247 37.5677L65.2253 41.5621ZM58.1767 70.2805C55.9174 73.7131 51.5677 76.9477 44.0766 76.4033C40.3005 76.1471 31.2139 71.285 32.9258 60.5476C33.2257 58.5387 34.3466 55.8806 34.3466 55.8806L29.2545 56.8705L28.2588 52.8556L40.6906 49.9092L43.1071 62.7894L39.4096 63.5231L38.1227 57.4091C38.1227 57.4091 34.6465 62.7807 38.935 68.5686C41.4738 71.5499 42.7111 71.7013 45.6488 72.237C48.2167 72.6795 54.2492 71.9575 56.226 64.9963C57.0995 60.5039 56.3308 57.1354 50.6332 52.5994L51.0903 47.7373C51.0903 47.7373 57.4692 52.4829 59.0588 55.7408C60.2758 58.3262 62.3662 63.4066 58.1767 70.2805Z" fill="white"/>
</g>
<defs>
<clipPath id="clip0_342_6897">
<rect width="93.1659" height="93.1659" fill="white" transform="translate(0.599609 0.936523)"/>
</clipPath>
</defs>
</svg>
