<svg width="94" height="95" viewBox="0 0 94 95" fill="none" xmlns="http://www.w3.org/2000/svg">
<g clip-path="url(#clip0_342_6903)">
<path d="M46.6972 94.1024C72.4242 94.1024 93.2801 73.2465 93.2801 47.5195C93.2801 21.7924 72.4242 0.936523 46.6972 0.936523C20.9701 0.936523 0.114258 21.7924 0.114258 47.5195C0.114258 73.2465 20.9701 94.1024 46.6972 94.1024Z" fill="#21A5DE"/>
<path d="M62.6806 49.1938C63.6705 50.2536 64.2703 51.6656 64.2703 53.2145C64.2703 56.5015 61.5685 59.1655 58.2378 59.1655C54.91 59.1655 52.2111 56.5015 52.2111 53.2145C52.2111 51.6656 52.8109 50.2536 53.7949 49.1938C53.4774 49.4373 53.0987 49.588 52.7007 49.629C52.3027 49.6701 51.9011 49.6 51.5406 49.4266C51.1801 49.2531 50.8747 48.983 50.6585 48.6464C50.4423 48.3098 50.3236 47.9198 50.3158 47.5198C50.315 47.0438 50.4762 46.5818 50.7729 46.2096C49.6985 47.182 48.269 47.776 46.6969 47.776C45.1247 47.776 43.6952 47.182 42.6208 46.2096C42.9175 46.5818 43.0787 47.0438 43.0779 47.5198C43.0779 48.6931 42.1172 49.6451 40.9235 49.6451C40.4441 49.6456 39.9781 49.4869 39.5988 49.1938C40.5828 50.2536 41.1855 51.6656 41.1855 53.2145C41.1855 56.5015 38.4837 59.1655 35.1559 59.1655C31.8253 59.1655 29.1234 56.5015 29.1234 53.2145C29.1234 51.6656 29.7261 50.2536 30.7102 49.1938C30.3927 49.4373 30.0139 49.588 29.6159 49.629C29.218 49.6701 28.8164 49.6 28.4559 49.4266C28.0953 49.2531 27.79 48.983 27.5737 48.6464C27.3575 48.3098 27.2389 47.9198 27.231 47.5198C27.2302 47.0438 27.3914 46.5818 27.6881 46.2096C26.6138 47.182 25.1843 47.776 23.6121 47.776C20.2814 47.776 17.5825 45.112 17.5825 41.825C17.5825 38.538 20.2814 35.874 23.6121 35.874C26.9428 35.874 29.6417 38.538 29.6417 41.825C29.6423 43.318 29.0751 44.7555 28.0549 45.8457C28.3724 45.6014 28.7515 45.45 29.1499 45.4085C29.5483 45.367 29.9505 45.4369 30.3115 45.6104C30.6725 45.784 30.9783 46.0544 31.1947 46.3915C31.411 46.7287 31.5296 47.1192 31.537 47.5198C31.5378 47.9957 31.3766 48.4577 31.0799 48.8299C32.1513 47.8575 33.5838 47.2635 35.1559 47.2635C36.7281 47.2635 38.1547 47.8575 39.2319 48.8299C38.9342 48.4581 38.772 47.996 38.7719 47.5198C38.4793 47.2945 38.2491 46.9981 38.1034 46.6588C37.9577 46.3194 37.9014 45.9484 37.9396 45.5811C37.9779 45.2138 38.1096 44.8624 38.3222 44.5604C38.5347 44.2584 38.8211 44.0158 39.1539 43.8558C39.4867 43.6958 39.855 43.6237 40.2236 43.6463C40.5922 43.6689 40.9489 43.7855 41.2597 43.985C41.5705 44.1844 41.825 44.4602 41.9991 44.7859C42.1731 45.1116 42.2609 45.4764 42.254 45.8457C41.2344 44.7551 40.6672 43.3179 40.6673 41.825C40.6673 38.538 43.3662 35.874 46.6969 35.874C50.0275 35.874 52.7264 38.538 52.7264 41.825C52.7271 43.318 52.1598 44.7555 51.1397 45.8457C51.4572 45.6014 51.8362 45.45 52.2347 45.4085C52.6331 45.367 53.0352 45.4369 53.3963 45.6104C53.7573 45.784 54.063 46.0544 54.2794 46.3915C54.4958 46.7287 54.6143 47.1192 54.6218 47.5198C54.6226 47.9957 54.4614 48.4577 54.1647 48.8299C55.2361 47.8575 56.6685 47.2635 58.2407 47.2635C59.8129 47.2635 61.2395 47.8575 62.3167 48.8299C62.019 48.4581 61.8567 47.996 61.8567 47.5198C61.564 47.2945 61.3339 46.9981 61.1882 46.6588C61.0425 46.3194 60.9861 45.9484 61.0244 45.5811C61.0627 45.2138 61.1944 44.8624 61.4069 44.5604C61.6195 44.2584 61.9058 44.0158 62.2386 43.8558C62.5715 43.6958 62.9397 43.6237 63.3083 43.6463C63.677 43.6689 64.0336 43.7855 64.3444 43.985C64.6552 44.1844 64.9098 44.4602 65.0838 44.7859C65.2579 45.1116 65.3456 45.4764 65.3388 45.8457C64.3192 44.7551 63.752 43.3179 63.752 41.825C63.752 38.538 66.4509 35.874 69.7816 35.874C73.1123 35.874 75.8112 38.538 75.8112 41.825C75.8112 45.112 73.1123 47.776 69.7816 47.776C68.2094 47.776 66.7799 47.182 65.7056 46.2096C66.0023 46.5818 66.1635 47.0438 66.1627 47.5198C66.1627 48.6931 65.2019 49.6451 64.0082 49.6451C63.5289 49.6456 63.0629 49.4869 62.6835 49.1938H62.6806Z" fill="white"/>
</g>
<defs>
<clipPath id="clip0_342_6903">
<rect width="93.1659" height="93.1659" fill="white" transform="translate(0.113281 0.936523)"/>
</clipPath>
</defs>
</svg>
