<svg width="94" height="95" viewBox="0 0 94 95" fill="none" xmlns="http://www.w3.org/2000/svg">
<g clip-path="url(#clip0_342_6907)">
<path d="M47.2094 94.1024C72.9364 94.1024 93.7923 73.2465 93.7923 47.5195C93.7923 21.7924 72.9364 0.936523 47.2094 0.936523C21.4824 0.936523 0.626465 21.7924 0.626465 47.5195C0.626465 73.2465 21.4824 94.1024 47.2094 94.1024Z" fill="#C87035"/>
<path d="M47.1861 79.5447C29.4991 79.5331 15.1836 65.1913 15.1836 47.4782C15.1836 29.8029 29.5428 15.4815 47.253 15.4932C64.9109 15.5048 79.2584 29.8582 79.2351 47.5248C79.2002 64.9992 65.1554 79.5214 47.1861 79.5447ZM34.1341 62.1634C34.2244 61.9917 34.2942 61.8548 34.3612 61.7442C37.2261 56.69 40.0967 51.6415 42.9674 46.5989C45.4829 42.1794 47.9925 37.754 50.4935 33.3286C50.5282 33.2436 50.5895 33.1722 50.6682 33.125C50.7469 33.0777 50.8388 33.0572 50.9302 33.0666C53.8532 33.0811 56.788 33.0811 59.7081 33.0811H60.1245C56.0659 40.2433 52.0365 47.3559 47.9751 54.5093C48.1206 54.5209 48.2022 54.5209 48.2808 54.5209C55.6147 54.5209 62.9427 54.5238 70.2679 54.5326C70.5154 54.5326 70.594 54.4423 70.6493 54.2269C71.7593 50.3111 71.8644 46.1786 70.955 42.2114C69.8603 37.4075 67.4584 33.3519 63.9152 29.9601C62.3253 28.4443 60.5201 27.1719 58.5581 26.184C53.6844 23.6976 48.5515 22.9086 43.1712 23.8548C37.8142 24.8068 33.3014 27.3369 29.601 31.3372C29.1148 31.8613 28.6752 32.4232 28.2123 32.9676C28.2239 32.9996 28.2472 33.0258 28.2588 33.0549H49.1629C49.0465 33.2733 48.9679 33.4305 48.8776 33.579C47.6053 35.8383 46.3155 38.0859 45.0549 40.3481C45.0051 40.4593 44.9214 40.5519 44.8158 40.6126C44.7101 40.6733 44.5879 40.6989 44.4668 40.6858C37.8811 40.6742 31.2955 40.6712 24.7156 40.6742H24.3197C20.9832 51.1641 25.6968 64.3208 37.5201 69.5847C48.9679 74.6972 60.9717 69.9923 66.5995 62.1402C55.7835 62.1605 44.9617 62.1693 34.137 62.1605L34.1341 62.1634ZM70.9434 67.6893C75.0048 63.1766 78.615 55.7525 78.3879 46.8348C78.2074 39.4892 75.6919 33.0346 70.9899 27.3281C69.5226 28.8072 68.0902 30.2425 66.6694 31.6778C74.1226 40.6421 74.4429 53.8979 66.748 63.4154L70.9434 67.6893Z" fill="white"/>
</g>
<defs>
<clipPath id="clip0_342_6907">
<rect width="93.1659" height="93.1659" fill="white" transform="translate(0.627441 0.936523)"/>
</clipPath>
</defs>
</svg>
