<svg width="94" height="95" viewBox="0 0 94 95" fill="none" xmlns="http://www.w3.org/2000/svg">
<g clip-path="url(#clip0_342_6911)">
<path d="M46.7245 94.1024C72.4516 94.1024 93.3075 73.2465 93.3075 47.5195C93.3075 21.7924 72.4516 0.936523 46.7245 0.936523C20.9975 0.936523 0.141602 21.7924 0.141602 47.5195C0.141602 73.2465 20.9975 94.1024 46.7245 94.1024Z" fill="#ECB244"/>
<path d="M44.0925 58.717H62.4258V68.4703H51.1439C51.3303 71.2594 51.4264 73.8477 51.6127 76.6339H42.1185V68.5693H30.8338C30.8338 65.3871 30.4582 62.202 31.023 59.2148C31.3054 57.6223 32.997 56.2277 34.0305 54.836C37.6065 50.3673 41.2109 45.9215 44.8436 41.4988C46.2557 39.8043 47.6648 38.2118 49.2632 36.3222H31.6781V26.5689H42.1185V18.4053H51.2371V26.368H62.615C62.615 29.6521 62.9906 32.8372 62.4258 35.8244C62.1433 37.4169 60.4518 38.8115 59.3251 40.2032C55.7491 44.6719 52.1447 49.1177 48.512 53.5405C47.0936 55.312 45.6197 57.0384 44.0925 58.717Z" fill="white"/>
</g>
<defs>
<clipPath id="clip0_342_6911">
<rect width="93.1659" height="93.1659" fill="white" transform="translate(0.141602 0.936523)"/>
</clipPath>
</defs>
</svg>
