<svg width="94" height="95" viewBox="0 0 94 95" fill="none" xmlns="http://www.w3.org/2000/svg">
<g clip-path="url(#clip0_342_6915)">
<path d="M47.2392 94.1024C72.9662 94.1024 93.8221 73.2465 93.8221 47.5195C93.8221 21.7924 72.9662 0.936523 47.2392 0.936523C21.5121 0.936523 0.65625 21.7924 0.65625 47.5195C0.65625 73.2465 21.5121 94.1024 47.2392 94.1024Z" fill="#183C87"/>
<path fill-rule="evenodd" clip-rule="evenodd" d="M15.2134 46.3981L28.3003 39.0089L41.3843 46.3981V60.5098L28.3003 67.899L15.2134 60.5098V46.3981ZM53.0911 46.3981L66.178 39.0089L79.2649 46.3981V60.5098L66.178 67.899L53.094 60.5098V46.3981H53.0911ZM51.7169 58.6552L47.1256 61.1795L42.7614 58.7833V45.2772L30.8245 38.5343V33.6315L47.1256 24.2275L63.4238 33.6315V38.6682L51.7169 45.2772V58.6582V58.6552Z" fill="white"/>
</g>
<defs>
<clipPath id="clip0_342_6915">
<rect width="93.1659" height="93.1659" fill="white" transform="translate(0.655273 0.936523)"/>
</clipPath>
</defs>
</svg>
