<svg width="94" height="95" viewBox="0 0 94 95" fill="none" xmlns="http://www.w3.org/2000/svg">
<g clip-path="url(#clip0_342_6919)">
<path d="M46.7519 94.1024C72.4789 94.1024 93.3348 73.2465 93.3348 47.5195C93.3348 21.7924 72.4789 0.936523 46.7519 0.936523C21.0248 0.936523 0.168945 21.7924 0.168945 47.5195C0.168945 73.2465 21.0248 94.1024 46.7519 94.1024Z" fill="#00EAAB"/>
<path d="M72.3723 28.7939L67.19 36.8586C68.8434 40.0989 69.6979 43.6875 69.6822 47.3252C69.6822 60.1355 59.3175 70.4507 46.5567 70.4507C42.9356 70.4671 39.3638 69.6124 36.1425 67.9585L28.0254 73.1904C33.2572 76.9054 39.6129 79.1559 46.5072 79.1559C64.0602 79.1559 78.3379 64.9277 78.3379 47.3252C78.3379 40.3814 76.1368 34.0258 72.3723 28.7939Z" fill="white"/>
<path d="M46.557 63.213C50.2854 63.2129 53.896 61.9075 56.7624 59.5234C59.6289 57.1393 61.5703 53.8269 62.2497 50.161C57.2729 49.0777 52.1239 49.0534 47.1371 50.0896C42.1503 51.1259 37.4373 53.1996 33.3042 56.1761C34.7624 58.3504 36.7352 60.1308 39.0473 61.359C41.3593 62.5871 43.939 63.225 46.557 63.2159V63.213Z" fill="white"/>
<path d="M54.3798 46.4418C57.1661 46.4418 59.8533 46.7358 62.4969 47.3239C62.4953 43.0837 60.8102 39.0176 57.8119 36.0193C54.8136 33.021 50.7475 31.3359 46.5073 31.3344C44.2287 31.3362 41.977 31.8261 39.9036 32.771C37.8302 33.716 35.9832 35.0941 34.4871 36.8126C32.9909 38.5312 31.8801 40.5502 31.2296 42.734C30.5791 44.9177 30.4038 47.2155 30.7157 49.4726C26.7066 52.5558 24.7996 54.9519 24.7007 55.048C23.8361 52.5813 23.3903 49.9873 23.3818 47.3734C23.3818 34.5631 33.7465 24.245 46.5073 24.245C50.2718 24.245 53.7917 25.1243 56.9215 26.7401L64.9891 21.5083C59.6452 17.5859 53.1856 15.478 46.5568 15.4932C42.3756 15.4894 38.2348 16.3101 34.3712 17.9084C30.5076 19.5067 26.9971 21.8512 24.0405 24.8077C21.084 27.7642 18.7395 31.2747 17.1413 35.1383C15.543 39.0019 14.7223 43.1428 14.7261 47.3239C14.7261 54.4133 17.0261 60.9174 20.9362 66.1959C22.4501 63.4591 24.261 60.964 26.3631 58.7135C26.3631 58.7135 29.4929 55.441 31.889 53.7786C38.4133 49.0002 46.2928 46.4298 54.3798 46.4418Z" fill="white"/>
</g>
<defs>
<clipPath id="clip0_342_6919">
<rect width="93.1659" height="93.1659" fill="white" transform="translate(0.169922 0.936523)"/>
</clipPath>
</defs>
</svg>
