<svg width="94" height="95" viewBox="0 0 94 95" fill="none" xmlns="http://www.w3.org/2000/svg">
<g clip-path="url(#clip0_342_6926)">
<path d="M47.2665 94.1024C72.9936 94.1024 93.8495 73.2465 93.8495 47.5195C93.8495 21.7924 72.9936 0.936523 47.2665 0.936523C21.5395 0.936523 0.683594 21.7924 0.683594 47.5195C0.683594 73.2465 21.5395 94.1024 47.2665 94.1024Z" fill="#07BC9C"/>
<path fill-rule="evenodd" clip-rule="evenodd" d="M70.257 20.4286C68.6004 20.0152 64.7398 20.0705 63.5548 21.698C64.7398 22.3589 65.5666 23.3779 66.7807 23.407C67.9948 23.4362 69.401 22.2745 70.9441 22.9383C70.2832 22.9383 67.3048 23.4915 67.1126 24.3998C67.529 25.084 68.0297 25.7129 68.6004 26.2748C69.3748 26.9095 69.4563 27.1308 70.6151 26.4961C72.0334 25.6006 73.1036 24.248 73.6488 22.6617C73.6488 21.8349 73.8963 22.3851 73.2907 21.698C72.4006 21.0295 71.3579 20.5933 70.257 20.4286ZM54.7012 21.8902C56.9412 20.6952 59.544 20.3707 62.0089 20.9789C61.7704 18.3226 60.5283 15.8571 58.5355 14.0846C60.9229 15.5695 62.6028 17.9568 63.1938 20.7023C64.5476 20.484 65.9539 19.9599 67.2495 19.7648C67.0159 17.1245 65.8532 14.6527 63.9683 12.789C63.057 11.9331 60.492 9.6709 59.0276 9.6709C57.5631 9.6709 55.6619 12.9812 55.1117 14.3321C54.1679 16.7422 54.023 19.3916 54.6983 21.8902H54.7012Z" fill="white"/>
<path fill-rule="evenodd" clip-rule="evenodd" d="M54.3401 26.2196C53.8452 25.0346 56.0229 24.5659 56.6867 24.6474C57.8717 24.9968 58.9576 25.6198 59.8602 26.4671C61.5954 27.7656 65.0134 31.5999 67.526 30.6886C70.0356 29.7774 67.0572 25.3374 65.6772 24.1787C64.5496 23.1157 63.1894 22.3305 61.705 21.8857C60.2205 21.441 58.6527 21.3488 57.1263 21.6166C55.7347 22.0329 54.5934 23.0432 54.0111 24.3708C53.8452 24.9793 53.2396 26.2196 54.343 26.2196H54.3401Z" fill="white"/>
<path d="M65.8696 42.7668C64.3265 41.8294 63.7733 39.0693 62.8097 37.5554C61.485 35.43 59.5547 33.6948 58.3959 31.4879C57.2372 29.2811 57.1003 27.5983 55.1147 26.5502C54.3536 26.1491 53.5062 25.9395 52.6458 25.9395C51.7855 25.9395 50.9381 26.1491 50.1769 26.5502C47.711 27.6681 45.1169 28.4833 42.4529 28.9783C41.272 29.258 40.1115 29.6179 38.9796 30.0555C38.0348 30.5863 37.0473 31.0372 36.0274 31.4035C33.4886 31.7616 28.8012 28.6464 29.2437 33.4706C29.2437 34.3557 30.1521 34.8244 29.8755 35.9541C29.6019 37.0866 28.3878 38.0794 27.8084 38.9616C26.6187 40.9577 25.691 43.0987 25.0484 45.3318C23.481 50.3898 23.7848 55.8428 25.9043 60.6954C26.9233 63.0828 28.283 65.313 29.9308 67.316C30.7373 68.2564 31.4448 69.2725 32.0562 70.3498C32.522 71.625 33.1043 72.8536 33.7943 74.0182C34.3907 74.7676 35.183 75.337 36.0835 75.6634C36.9839 75.9897 37.9571 76.0602 38.8951 75.8669C39.8591 75.5357 40.7845 75.1014 41.6552 74.5713C43.1424 73.9799 44.699 73.5808 46.2873 73.3835C52.0824 72.475 57.3685 69.5436 61.2084 65.1092C63.0276 62.9139 64.4387 60.4102 65.3746 57.717C65.9185 56.215 66.3154 54.6637 66.5596 53.085C66.6993 52.0922 66.3965 49.5796 67.1128 48.9216C67.5786 48.4762 68.6849 48.3684 69.0168 47.9521C69.2682 47.4042 69.4614 46.8314 69.5933 46.2431C70.1174 44.6156 67.0574 43.32 65.8725 42.7668H65.8696ZM67.9658 46.7118C67.5524 47.6493 65.9278 48.2025 65.2087 49.1953C64.1777 51.0554 62.8024 52.7025 61.156 54.0486C59.4974 54.913 57.589 55.171 55.7605 54.7782C53.9319 54.3854 52.2979 53.3664 51.1406 51.8971C49.9196 50.3715 49.2579 48.4737 49.2657 46.5197C49.2657 45.0028 50.9223 41.1947 49.2657 40.3678C47.612 39.541 46.8404 42.2166 46.2058 43.1279C45.0956 44.9708 43.4079 46.3954 41.4048 47.1806C39.8463 47.7081 38.1738 47.802 36.566 47.4523C34.9583 47.1025 33.4759 46.3223 32.2775 45.195C31.4761 44.0547 30.943 42.748 30.7182 41.3726C30.4933 39.9971 30.5825 38.5887 30.979 37.2526C31.0159 35.8914 30.8958 34.5306 30.6209 33.197C30.6209 31.2114 32.359 31.9276 33.7652 32.2042C37.2514 32.825 40.563 34.1894 43.4748 36.2045C46.2095 38.4761 49.4886 39.9963 52.9894 40.6153C55.3331 40.8366 57.6564 41.2325 59.9419 41.8032C61.0715 42.1351 62.1196 42.6853 63.2231 43.0725C64.3877 43.451 65.5173 43.9372 66.5887 44.5341C67.334 44.8631 68.4083 45.524 67.9949 46.6012L67.9658 46.7118Z" fill="white"/>
</g>
<defs>
<clipPath id="clip0_342_6926">
<rect width="93.1659" height="93.1659" fill="white" transform="translate(0.683594 0.936523)"/>
</clipPath>
</defs>
</svg>
