<svg width="94" height="95" viewBox="0 0 94 95" fill="none" xmlns="http://www.w3.org/2000/svg">
<g clip-path="url(#clip0_342_6933)">
<path d="M46.7812 94.1024C72.5082 94.1024 93.3641 73.2465 93.3641 47.5195C93.3641 21.7924 72.5082 0.936523 46.7812 0.936523C21.0541 0.936523 0.198242 21.7924 0.198242 47.5195C0.198242 73.2465 21.0541 94.1024 46.7812 94.1024Z" fill="#49C1BF"/>
<path d="M26.4009 22.1348L58.7586 37.8071L67.0416 34.0746L34.8178 18.4053L26.4009 22.1348Z" fill="white" fill-opacity="0.304"/>
<path d="M58.7583 37.7696L67.0413 34.04V42.3813L58.7583 46.1108V37.7696ZM58.7583 76.4451V50.4256L67.0413 46.6553V72.7155L58.7583 76.4451Z" fill="white" fill-opacity="0.646"/>
<path d="M26.4009 22.1436V30.578L48.7985 41.458L26.4009 52.5506V60.8656L58.7586 76.5088V68.1413L36.7831 57.4534L58.7586 46.1541V37.8129L26.4009 22.1436Z" fill="white"/>
</g>
<defs>
<clipPath id="clip0_342_6933">
<rect width="93.1659" height="93.1659" fill="white" transform="translate(0.197266 0.936523)"/>
</clipPath>
</defs>
</svg>
