<svg width="94" height="95" viewBox="0 0 94 95" fill="none" xmlns="http://www.w3.org/2000/svg">
<g clip-path="url(#clip0_342_6940)">
<path d="M47.2944 94.1024C73.0214 94.1024 93.8773 73.2465 93.8773 47.5195C93.8773 21.7924 73.0214 0.936523 47.2944 0.936523C21.5673 0.936523 0.711426 21.7924 0.711426 47.5195C0.711426 73.2465 21.5673 94.1024 47.2944 94.1024Z" fill="#00004D"/>
<path d="M45.853 19.2026C45.5852 20.338 44.7816 23.9191 44.4148 26.3181C44.2692 27.3022 43.6578 28.6152 45.3639 29.3227C44.9738 29.3984 44.8544 29.4479 44.7321 29.4217C43.5152 29.2703 42.272 29.0956 41.055 28.9442C40.7872 28.918 40.4465 28.8685 40.202 28.9937C38.5716 29.8526 37.8437 31.8964 38.6676 33.6375C39.1335 34.6215 39.279 35.5299 39.084 36.5664C39.0591 36.8349 39.1095 37.1051 39.2295 37.3466C40.1787 39.67 40.3504 41.9904 39.5935 44.4127C39.4712 44.7912 39.5469 45.2483 39.5702 45.65C39.6197 46.4332 39.6662 47.2164 39.739 47.9967C38.5453 47.0388 37.2352 46.1799 36.2337 45.0183C35.7357 44.4334 35.3589 43.7554 35.125 43.0237C34.8911 42.292 34.8048 41.5212 34.8711 40.7559C34.8944 40.4531 34.6528 40.0979 34.4577 39.8214C33.8958 38.9887 33.2407 38.2317 32.7778 37.3466C32.1198 36.086 31.3163 35.5561 30.0003 35.9608C29.3452 36.1617 28.7338 36.5897 28.1748 37.0206C27.6886 37.3699 27.2723 37.827 26.8356 38.2317C26.7861 38.1793 26.7133 38.1298 26.6667 38.0803C26.7395 37.9027 26.7628 37.7018 26.8618 37.5242C27.543 36.2636 27.5168 36.2869 26.5706 35.2271C24.7422 33.1833 23.1584 30.9881 22.4771 28.2106C22.1365 26.8247 21.7202 25.4593 21.3592 24.0967C19.5308 26.3676 19.2891 34.5488 21.0913 37.7775C20.5294 34.9243 19.9704 32.2254 20.6022 29.4479C20.7245 30.0797 20.7972 30.6853 20.8235 31.3171C20.9195 33.5618 21.4552 35.6842 22.4044 37.6756C22.5994 38.1036 23.1613 38.3569 23.5748 38.6597C23.7203 38.7616 23.9154 38.8111 24.0843 38.8868C24.061 38.9887 24.061 39.0906 24.0348 39.1634C23.1351 39.1139 22.2588 39.012 21.3562 38.9887C20.774 38.9625 20.0927 38.8111 19.6298 39.0644C19.0184 39.3905 18.5322 40.0252 18.1915 40.654C18.0954 40.8287 18.5816 41.5362 18.9485 41.8157C19.9209 42.5465 20.5789 43.3529 20.4333 44.7155C20.4071 45.0445 20.774 45.6268 21.0913 45.7519C21.9647 46.0809 22.2093 46.736 22.3549 47.5687C22.4539 48.0986 22.5266 48.7798 22.8673 49.0826C23.962 50.0929 24.3026 51.3041 24.3288 52.7685C24.3521 53.7002 24.8383 54.6609 24.7189 55.5693C24.62 56.3525 24.7655 56.9319 25.0829 57.386H25.0596L25.1324 57.4617C25.3274 57.7645 25.5953 58.0149 25.9097 58.2449L26.5444 58.8505C26.5444 58.8505 27.6391 60.0354 27.6624 61.1971C27.6886 62.3588 27.5896 62.5072 27.9303 63.5437C28.2738 64.554 28.7338 65.3605 28.8823 66.2193C29.0279 67.0782 28.7105 67.3286 29.2229 67.8847C29.7324 68.4378 30.2943 68.8163 30.8766 69.451C31.4385 70.1061 32.2421 70.3332 32.7778 70.8893C33.3135 71.4424 34.1636 72.4789 34.8216 73.134C35.1623 73.4892 35.6252 73.7658 35.9658 73.9667C36.0648 74.0686 36.1114 74.118 36.0881 74.1704C35.6252 75.1778 36.5743 75.1545 36.9411 75.4806C37.5729 76.0367 38.4755 76.389 38.9355 77.0702C39.7652 78.3076 40.8366 78.9394 42.1759 79.3179C42.2982 79.3441 42.4438 79.3674 42.4903 79.4431C42.6621 79.6469 42.7815 79.8972 42.93 80.1243C42.8805 80.2 42.8077 80.2757 42.7582 80.3514C44.0975 80.8318 45.4367 81.3355 46.776 81.7897C47.0438 81.8916 47.3874 81.8916 47.629 81.8188C48.7499 81.4403 49.8708 81.0327 50.9888 80.6309C51.2072 80.5552 51.5478 80.3281 51.5245 80.2262C51.3557 79.4198 52.0107 79.545 52.3776 79.3441C53.251 78.8637 54.2758 78.5114 54.9338 77.8301C55.7374 76.9712 56.4681 76.0862 57.5395 75.5068C57.9762 75.2535 58.8526 75.1545 58.413 74.1966C58.3897 74.1442 58.6342 73.9434 58.7565 73.8182C58.9254 73.6639 59.1204 73.5387 59.365 73.3378C59.5339 73.2621 59.7289 73.134 60.0463 72.9069C61.0366 72.0935 61.9569 71.1985 62.7976 70.2313C63.3799 69.5005 64.3319 68.5921 64.3319 68.5921C64.3319 68.5921 63.7205 67.1539 64.1136 65.8903L66.1807 64.3531C66.6203 63.4185 66.7426 63.0633 67.2288 62.1055C67.6917 61.1447 67.8111 59.3047 68.472 58.571C69.0543 57.9421 69.7617 57.4355 69.7355 57.0337C69.8886 56.605 69.9385 56.1461 69.8811 55.6945C69.8112 55.0394 70.0267 54.3552 70.1024 53.7002C70.1519 53.147 70.1024 52.5909 70.2479 52.061C70.4925 51.2021 70.6614 50.1948 71.1971 49.5863C71.7794 48.9312 72.1724 48.3519 72.2452 47.4668C72.318 46.7098 72.6091 46.1042 73.3661 45.749C73.73 45.5744 74.094 44.9688 74.094 44.5641C74.0707 43.4286 74.4346 42.6222 75.3604 42.0166C75.6283 41.8419 75.8263 41.5362 76.0912 41.3353C76.5279 41.0063 76.458 40.6278 76.2135 40.1998C75.5817 39.0644 74.6297 38.6597 73.3661 38.8897C72.4141 39.0644 70.9787 39.1634 70.4663 39.1634C69.9568 39.1634 70.3207 38.7849 70.3207 38.7849C72.1229 38.7354 72.3413 37.2476 72.7547 36.0365C73.0982 35.0262 73.2904 33.9665 73.4622 32.9067C73.6339 31.8964 73.6339 31.416 73.8261 29.8497C74.0212 28.2863 74.4841 32.8805 73.7533 36.6421C75.2149 34.4206 74.7519 26.3676 73.1215 23.9977C73.072 24.0472 73.0225 24.0734 73.0225 24.1229C72.9498 24.4257 72.9032 24.7285 72.8304 25.0313C72.1229 28.8918 70.6614 32.3506 67.9596 35.1776C66.9609 36.2112 67.0104 36.2374 67.6917 37.5737C67.7645 37.7018 67.7645 37.8765 67.7878 38.0541C67.2055 37.7775 66.7688 37.3728 66.3292 36.9944C65.9455 36.6236 65.4908 36.3343 64.9925 36.1437C64.4942 35.953 63.9625 35.8651 63.4294 35.8851C62.2648 35.8851 61.9445 36.7411 61.6039 37.5737C60.9721 39.0877 59.4873 40.0222 59.4378 42.0428C59.365 44.995 56.736 46.4827 55.0299 48.4508C55.0066 48.48 54.9338 48.4276 54.8348 48.4276C54.8115 48.3257 54.7387 48.2005 54.762 48.0986C54.762 46.2818 55.2512 44.4389 54.4476 42.6979C54.3981 42.596 54.4214 42.4446 54.4476 42.3456C54.762 39.7952 55.0561 37.2709 55.3967 34.7467C55.4433 34.4206 55.6151 34.1179 55.7607 33.8151C56.6137 31.9983 55.979 29.9283 54.2525 29.0199C54.0393 28.9232 53.8034 28.8879 53.5713 28.918C52.6192 29.0432 51.6963 29.2208 50.7705 29.346C50.3046 29.4217 49.8213 29.4217 49.3584 29.4479C49.3322 29.3722 49.3089 29.2965 49.2856 29.2441C50.063 28.9937 50.4531 28.5163 50.2842 27.6574L48.5287 18.9231C48.4821 18.696 48.4326 17.5605 48.7004 18.1428C48.9683 18.7484 49.8213 21.3454 50.3075 22.9874C50.7705 24.5771 51.1344 26.2191 51.5478 27.8321C50.8665 23.3164 49.8213 18.9231 47.2389 14.9111C46.5515 15.7724 46.0016 16.7349 45.6085 17.7643C44.982 19.6014 44.3976 21.4526 43.8558 23.3164C43.4424 24.7547 42.371 27.5817 42.8339 27.6545C43.2939 27.7331 45.559 19.2521 45.7046 18.6465C45.8501 18.0409 46.1209 18.0642 45.8501 19.1997L45.853 19.2026Z" fill="white"/>
</g>
<defs>
<clipPath id="clip0_342_6940">
<rect width="93.1659" height="93.1659" fill="white" transform="translate(0.711426 0.936523)"/>
</clipPath>
</defs>
</svg>
