<svg width="94" height="95" viewBox="0 0 94 95" fill="none" xmlns="http://www.w3.org/2000/svg">
<g clip-path="url(#clip0_342_6944)">
<path d="M46.8085 94.1024C72.5356 94.1024 93.3915 73.2465 93.3915 47.5195C93.3915 21.7924 72.5356 0.936523 46.8085 0.936523C21.0815 0.936523 0.225586 21.7924 0.225586 47.5195C0.225586 73.2465 21.0815 94.1024 46.8085 94.1024Z" fill="#302C2C"/>
<path fill-rule="evenodd" clip-rule="evenodd" d="M45.341 79.5447C44.5549 79.4632 43.7688 79.3904 42.9827 79.2972C38.7562 78.7932 34.6747 77.4426 30.9818 75.326C30.9265 75.2969 30.877 75.2532 30.7692 75.1805C37.1919 70.3766 43.5854 65.6018 50.0138 60.798L51.9499 62.6817C53.0272 63.7356 54.1102 64.7779 55.1671 65.8464C55.4291 66.1084 55.6183 66.1055 55.924 65.9483C59.1256 64.3502 61.8611 61.9536 63.8664 58.99L64.1779 58.53C64.2682 58.6348 64.3526 58.7192 64.4225 58.8124C66.6556 61.7879 68.8857 64.7634 71.1275 67.7301C71.3226 67.9863 71.2993 68.1377 71.0926 68.3706C65.9015 74.2692 59.4498 77.9027 51.6733 79.1458C50.6951 79.3031 49.7023 79.3613 48.7153 79.469C48.5843 79.4836 48.4533 79.5185 48.3252 79.5447H45.341ZM48.1651 15.4932C48.7066 15.5485 49.251 15.6067 49.7955 15.6562C54.3839 16.0929 58.6753 17.4526 62.6727 19.7322C62.731 19.7671 62.7805 19.8079 62.8765 19.8778L43.3175 33.908C43.0584 33.6634 42.808 33.4305 42.5606 33.1889C41.1864 31.8496 39.8063 30.5132 38.4409 29.1623C38.2225 28.9469 38.0566 28.9236 37.7829 29.0604C34.5246 30.6684 31.7442 33.1015 29.7182 36.1178L29.4271 36.5545L22.2417 26.9817C22.9666 26.2131 23.6362 25.4474 24.3612 24.7399C29.0864 20.1311 34.6968 17.1993 41.198 16.0201C42.4499 15.793 43.728 15.7173 44.9945 15.5689C45.1372 15.5543 45.2798 15.5194 45.4196 15.4932H48.1622H48.1651ZM19.0274 31.605L33.57 50.6691L30.6353 53.6795C29.9046 54.4278 29.1796 55.1847 28.4343 55.9213C28.2247 56.131 28.2159 56.2911 28.344 56.5473C29.9497 59.8062 32.3821 62.587 35.3984 64.612C35.5003 64.676 35.6022 64.743 35.6983 64.8158C35.7158 64.8274 35.7245 64.8565 35.7769 64.9555L26.2827 72.0769C20.6054 67.1886 16.9225 61.1648 15.4435 53.86C13.8596 46.0399 15.1436 38.6507 19.0304 31.605H19.0274ZM60.297 44.328L62.9697 41.5534C63.715 40.779 64.4487 39.9958 65.2115 39.2417C65.4502 39.0059 65.4473 38.8283 65.3076 38.5488C63.6916 35.2507 61.2304 32.4399 58.1746 30.4026C58.0668 30.3298 57.962 30.2512 57.7786 30.1202L67.3252 22.9581C72.7317 27.5873 76.3215 33.2937 77.9694 40.1792C80.0278 48.7738 78.1936 57.2751 74.63 63.2611L60.297 44.328Z" fill="white"/>
</g>
<defs>
<clipPath id="clip0_342_6944">
<rect width="93.1659" height="93.1659" fill="white" transform="translate(0.225586 0.936523)"/>
</clipPath>
</defs>
</svg>
