<svg width="24" height="24" viewBox="0 0 24 24" fill="none" xmlns="http://www.w3.org/2000/svg">
<rect width="24" height="24" rx="12" fill="#C5C300"/>
<path d="M12 0C5.37259 0 0 5.37259 0 12C0 18.6274 5.37259 24 12 24C18.6274 24 24 18.6274 24 12C24 5.37259 18.6274 0 12 0ZM16.6501 11.6887H14.4354C13.9645 11.9931 13.4016 12.2531 12.7616 12.48C12.406 12.6168 12.0961 12.7544 11.8281 12.8974H16.6501V13.9136H10.6659C10.4954 14.2146 10.4172 14.5548 10.4172 14.9536C10.4172 16.209 11.3771 17.0766 13.0201 17.0766C14.1277 17.0766 15.18 16.7074 15.8999 16.2643L16.306 17.6119C15.6415 18.0549 14.3308 18.4241 13.1309 18.4241C10.1957 18.4241 8.77422 16.7443 8.77422 14.8244C8.77422 14.4956 8.80907 14.1933 8.87814 13.9136H7.34995V12.8974H9.34461C9.68276 12.4266 10.1706 12.0346 10.806 11.6887H7.34995V10.6725H13.0696C14.0001 10.178 14.423 9.63875 14.423 8.76946C14.423 7.92029 13.777 6.90499 12.0786 6.90499C10.9525 6.90499 10.1218 7.27419 9.7157 7.49572L9.27265 6.18504C9.82644 5.87123 10.7495 5.57586 12.0232 5.57586C14.4415 5.57586 16.0476 7.01575 16.0476 8.95407C16.0476 9.62181 15.8654 10.1878 15.5279 10.6725H16.65V11.6887H16.6501Z" fill="#58AFE8"/>
</svg>
