<svg width="60" height="45" viewBox="0 0 60 45" fill="none" xmlns="http://www.w3.org/2000/svg">
<g clip-path="url(#clip0_342_25298)">
<path fill-rule="evenodd" clip-rule="evenodd" d="M0 0H85.5V3.46875H0V0ZM0 6.92813H85.5V10.3969H0V6.92813ZM0 13.8469H85.5V17.3156H0V13.8469ZM0 20.7656H85.5V24.2344H0V20.7656ZM0 27.7031H85.5V31.1531H0V27.7031ZM0 34.6125H85.5V38.0813H0V34.6125ZM0 41.5312H85.5V45H0V41.5312Z" fill="#BD3D44"/>
<path fill-rule="evenodd" clip-rule="evenodd" d="M0 3.46875H85.5V6.92813H0V3.46875ZM0 10.3875H85.5V13.8469H0V10.3875ZM0 17.3063H85.5V20.775H0V17.3063ZM0 24.2344H85.5V27.7031H0V24.2344ZM0 31.1531H85.5V34.6219H0V31.1531ZM0 38.0719H85.5V41.5406H0V38.0719Z" fill="white"/>
<path fill-rule="evenodd" clip-rule="evenodd" d="M0 0H34.2V24.2344H0V0Z" fill="#192F5D"/>
<path fill-rule="evenodd" clip-rule="evenodd" d="M2.8502 1.03125L3.16895 1.99687H4.1627L3.35645 2.5875L3.66582 3.55313L2.8502 2.95313L2.04395 3.54375L2.34395 2.5875L1.52832 1.99687H2.5502L2.8502 1.03125ZM8.55019 1.03125L8.85957 1.99687H9.87207L9.05645 2.5875L9.35645 3.55313L8.55019 2.95313L7.73457 3.54375L8.04395 2.5875L7.2377 1.99687H8.23145L8.55019 1.03125ZM14.2502 1.03125L14.5596 1.99687H15.5627L14.7564 2.5875L15.0658 3.55313L14.2502 2.95313L13.4346 3.54375L13.7439 2.5875L12.9283 1.99687H13.9408L14.2502 1.03125ZM19.9502 1.03125L20.2596 1.99687H21.2721L20.4564 2.5875L20.7658 3.55313L19.9502 2.95313L19.1346 3.54375L19.4533 2.5875L18.6283 1.99687H19.6314L19.9502 1.03125ZM25.6502 1.03125L25.9596 1.99687H26.9627L26.1564 2.5875L26.4658 3.55313L25.6502 2.95313L24.8346 3.54375L25.1439 2.5875L24.3377 1.99687H25.3408L25.6502 1.03125ZM31.3502 1.03125L31.6596 1.99687H32.6721L31.8471 2.5875L32.1658 3.55313L31.3502 2.95313L30.5346 3.54375L30.8533 2.5875L30.0283 1.99687H31.0408L31.3502 1.03125ZM5.7002 3.46875L6.00957 4.425H7.03145L6.21582 5.00625L6.51582 5.97188L5.71895 5.38125L4.90332 5.97188L5.19395 5.00625L4.40645 4.425H5.40957L5.7002 3.46875ZM11.4002 3.46875L11.7189 4.425H12.7221L11.8971 5.00625L12.2158 5.97188L11.4002 5.38125L10.5846 5.97188L10.8939 5.00625L10.0783 4.425H11.0908L11.4002 3.46875ZM17.1002 3.46875L17.4096 4.425H18.4221L17.6064 5.00625L17.9158 5.97188L17.1002 5.38125L16.2846 5.97188L16.5939 5.00625L15.7877 4.425H16.7814L17.1002 3.46875ZM22.8002 3.46875L23.1189 4.425H24.1221L23.2971 5.00625L23.6158 5.97188L22.8002 5.38125L21.9939 5.97188L22.2939 5.00625L21.4783 4.425H22.5002L22.8002 3.46875ZM28.5002 3.46875L28.8096 4.425H29.8221L29.0064 5.00625L29.3158 5.97188L28.5002 5.38125L27.6846 5.97188L27.9939 5.00625L27.1877 4.425H28.1908L28.5002 3.46875ZM2.8502 5.86875L3.16895 6.84375H4.1627L3.35645 7.43438L3.66582 8.39063L2.8502 7.8L2.04395 8.39063L2.34395 7.43438L1.52832 6.84375H2.5502L2.8502 5.86875ZM8.55019 5.86875L8.85957 6.84375H9.87207L9.05645 7.43438L9.35645 8.39063L8.55019 7.8L7.73457 8.39063L8.04395 7.425L7.2377 6.83438H8.23145L8.55019 5.86875ZM14.2502 5.86875L14.5596 6.83438H15.5627L14.7564 7.425L15.0658 8.38125L14.2502 7.79063L13.4346 8.38125L13.7439 7.41563L12.9283 6.825H13.9408L14.2502 5.86875ZM19.9502 5.86875L20.2596 6.83438H21.2721L20.4564 7.425L20.7658 8.38125L19.9502 7.79063L19.1346 8.38125L19.4533 7.41563L18.6283 6.825H19.6314L19.9502 5.86875ZM25.6502 5.86875L25.9596 6.83438H26.9627L26.1564 7.425L26.4658 8.38125L25.6502 7.79063L24.8346 8.38125L25.1439 7.41563L24.3377 6.825H25.3408L25.6502 5.86875ZM31.3502 5.86875L31.6596 6.83438H32.6721L31.8471 7.425L32.1658 8.38125L31.3502 7.79063L30.5346 8.38125L30.8533 7.41563L30.0283 6.825H31.0408L31.3502 5.86875ZM5.7002 8.30625L6.00957 9.2625H7.03145L6.21582 9.85313L6.5252 10.8188L5.70957 10.2188L4.89395 10.8094L5.20332 9.85313L4.39707 9.2625H5.4002L5.7002 8.30625ZM11.4002 8.30625L11.7189 9.2625H12.7221L11.8971 9.85313L12.2158 10.8188L11.4002 10.2188L10.5846 10.8094L10.8939 9.85313L10.0783 9.2625H11.0908L11.4002 8.30625ZM17.1002 8.30625L17.4096 9.2625H18.4221L17.6064 9.85313L17.9158 10.8188L17.1002 10.2188L16.2846 10.8094L16.5939 9.85313L15.7877 9.2625H16.7814L17.1002 8.30625ZM22.8002 8.30625L23.1189 9.2625H24.1221L23.3064 9.85313L23.6158 10.8188L22.8002 10.2188L21.9939 10.8094L22.2939 9.85313L21.4783 9.2625H22.5002L22.8002 8.30625ZM28.5002 8.30625L28.8096 9.2625H29.8221L29.0064 9.85313L29.3158 10.8188L28.5002 10.2188L27.6846 10.8094L27.9939 9.85313L27.1877 9.2625H28.1908L28.5002 8.30625ZM2.8502 10.7344L3.16895 11.6906H4.1627L3.35645 12.2813L3.66582 13.2469L2.8502 12.6469L2.04395 13.2375L2.34395 12.2813L1.52832 11.6906H2.5502L2.8502 10.7344ZM8.55019 10.7344L8.85957 11.6906H9.87207L9.05645 12.2813L9.35645 13.2375L8.55019 12.6469L7.73457 13.2375L8.04395 12.2813L7.2377 11.6906H8.23145L8.55019 10.7344ZM14.2502 10.7344L14.5596 11.6906H15.5627L14.7564 12.2813L15.0658 13.2469L14.2502 12.6469L13.4346 13.2375L13.7439 12.2813L12.9283 11.6906H13.9408L14.2502 10.7344ZM19.9502 10.7344L20.2596 11.6906H21.2721L20.4564 12.2813L20.7658 13.2469L19.9502 12.6469L19.1346 13.2375L19.4533 12.2813L18.6283 11.6906H19.6314L19.9502 10.7344ZM25.6502 10.7344L25.9596 11.6906H26.9627L26.1564 12.2813L26.4658 13.2469L25.6502 12.6469L24.8346 13.2375L25.1439 12.2813L24.3377 11.6906H25.3408L25.6502 10.7344ZM31.3502 10.7344L31.6596 11.6906H32.6721L31.8471 12.2813L32.1658 13.2469L31.3502 12.6469L30.5346 13.2375L30.8439 12.2813L30.0189 11.6906H31.0314L31.3502 10.7344ZM5.7002 13.1531L6.00957 14.1188H7.03145L6.21582 14.7L6.5252 15.6656L5.70957 15.0656L4.89395 15.6656L5.20332 14.7L4.39707 14.1094H5.4002L5.7002 13.1531ZM11.4002 13.1531L11.7189 14.1188H12.7221L11.8971 14.7L12.2158 15.6656L11.4002 15.0656L10.5846 15.6656L10.8939 14.7L10.0783 14.1094H11.0908L11.4002 13.1531ZM17.1002 13.1531L17.4096 14.1188H18.4221L17.6064 14.7L17.9158 15.6656L17.1002 15.0656L16.2846 15.6656L16.5939 14.7L15.7877 14.1094H16.7814L17.1002 13.1531ZM22.8002 13.1531L23.1189 14.1188H24.1221L23.3064 14.7L23.6158 15.6656L22.8002 15.0656L21.9939 15.6656L22.2939 14.7L21.4783 14.1094H22.5002L22.8002 13.1531ZM28.5002 13.1531L28.8096 14.1188H29.8221L29.0064 14.7L29.3158 15.6656L28.5002 15.0656L27.6846 15.6656L27.9939 14.7L27.1877 14.1094H28.1908L28.5002 13.1531ZM2.8502 15.5719L3.16895 16.5375H4.1627L3.35645 17.1281L3.66582 18.075L2.8502 17.4938L2.04395 18.075L2.34395 17.1188L1.52832 16.5281H2.5502L2.8502 15.5719ZM8.55019 15.5719L8.85957 16.5375H9.87207L9.05645 17.1281L9.36582 18.075L8.55019 17.4938L7.73457 18.075L8.05332 17.1188L7.2377 16.5281H8.23145L8.55019 15.5719ZM14.2502 15.5719L14.5596 16.5375H15.5627L14.7564 17.1281L15.0658 18.075L14.2502 17.4938L13.4346 18.075L13.7439 17.1188L12.9283 16.5281H13.9408L14.2502 15.5719ZM19.9502 15.5719L20.2596 16.5375H21.2721L20.4564 17.1281L20.7658 18.075L19.9502 17.4938L19.1346 18.075L19.4533 17.1188L18.6283 16.5281H19.6314L19.9502 15.5719ZM25.6502 15.5719L25.9596 16.5375H26.9627L26.1564 17.1281L26.4658 18.075L25.6502 17.4938L24.8346 18.075L25.1439 17.1188L24.3377 16.5281H25.3408L25.6502 15.5719ZM31.3502 15.5719L31.6596 16.5375H32.6721L31.8471 17.1281L32.1658 18.075L31.3502 17.4938L30.5346 18.075L30.8533 17.1188L30.0283 16.5281H31.0408L31.3502 15.5719ZM5.7002 18L6.00957 18.9563H7.03145L6.21582 19.5469L6.5252 20.5125L5.70957 19.9125L4.89395 20.5031L5.20332 19.5469L4.39707 18.9563H5.4002L5.7002 18ZM11.4002 18L11.7189 18.9563H12.7221L11.8971 19.5469L12.2158 20.5125L11.4002 19.9125L10.5846 20.5031L10.8939 19.5469L10.0783 18.9563H11.0908L11.4002 18ZM17.1002 18L17.4096 18.9563H18.4221L17.6064 19.5469L17.9158 20.5125L17.1002 19.9125L16.2846 20.5031L16.5939 19.5469L15.7877 18.9563H16.7814L17.1002 18ZM22.8002 18L23.1189 18.9563H24.1221L23.3064 19.5469L23.6158 20.5125L22.8002 19.9125L21.9939 20.5031L22.2939 19.5469L21.4783 18.9563H22.5002L22.8002 18ZM28.5002 18L28.8096 18.9563H29.8221L29.0064 19.5469L29.3158 20.5125L28.5002 19.9125L27.6846 20.5031L27.9939 19.5469L27.1877 18.9563H28.1908L28.5002 18ZM2.8502 20.4281L3.16895 21.3844H4.1627L3.35645 21.975L3.66582 22.9313L2.8502 22.3406L2.04395 22.9313L2.34395 21.9656L1.52832 21.375H2.5502L2.8502 20.4281ZM8.55019 20.4281L8.85957 21.3844H9.87207L9.05645 21.975L9.36582 22.9313L8.55019 22.3406L7.73457 22.9313L8.05332 21.9656L7.2377 21.375H8.23145L8.55019 20.4281ZM14.2502 20.4281L14.5596 21.3844H15.5627L14.7752 21.975L15.0846 22.9313L14.2689 22.3406L13.4533 22.9313L13.7627 21.9656L12.9471 21.375H13.9596L14.2502 20.4281ZM19.9502 20.4281L20.2596 21.3844H21.2721L20.4564 21.975L20.7658 22.9313L19.9502 22.3406L19.1346 22.9313L19.4533 21.9656L18.6283 21.375H19.6314L19.9502 20.4281ZM25.6502 20.4281L25.9596 21.3844H26.9627L26.1564 21.975L26.4658 22.9313L25.6502 22.3406L24.8346 22.9313L25.1439 21.9656L24.3377 21.375H25.3408L25.6502 20.4281ZM31.3502 20.4281L31.6596 21.3844H32.6721L31.8471 21.975L32.1658 22.9313L31.3502 22.3406L30.5346 22.9313L30.8533 21.9656L30.0283 21.375H31.0408L31.3502 20.4281Z" fill="white"/>
</g>
<defs>
<clipPath id="clip0_342_25298">
<rect width="60" height="45" fill="white"/>
</clipPath>
</defs>
</svg>
