<svg width="83" height="48" viewBox="0 0 83 48" fill="none" xmlns="http://www.w3.org/2000/svg">
<rect width="83" height="48" rx="6" fill="white" fill-opacity="0.05"/>
<rect x="0.5" y="0.5" width="82" height="47" rx="5.5" stroke="white" stroke-opacity="0.07"/>
<path d="M63.2941 27.1953H63.3322L66.5139 19.2099H68.7502L61.8752 35.2207H59.7541L62.3098 29.6201L57.799 19.2099H60.0353L63.2941 27.1953ZM52.5344 18.8467C54.0549 18.8467 55.2562 19.2615 56.1379 20.0781C57.0195 20.8948 57.4542 22.0358 57.4543 23.4746V30.333H55.4865V28.79H55.3967C54.5405 30.0605 53.4156 30.6963 51.9973 30.6963C50.7963 30.6962 49.7739 30.3333 48.9689 29.6074C48.1767 28.9333 47.7296 27.9347 47.7551 26.8847C47.7551 25.7309 48.1899 24.8228 49.0461 24.1357C49.9022 23.4488 51.0526 23.1123 52.4836 23.1123C53.7101 23.1123 54.707 23.3454 55.4992 23.7861V23.3066C55.4992 22.5936 55.1921 21.9188 54.6555 21.4521C54.1061 20.9597 53.4032 20.6875 52.675 20.6875C51.5249 20.6875 50.6178 21.1807 49.9533 22.166L48.1389 21.0117C49.11 19.5728 50.5794 18.8467 52.5344 18.8467ZM42.7844 14.0761C44.1005 14.0502 45.3789 14.5558 46.3117 15.4892C48.1771 17.2523 48.2918 20.2213 46.5412 22.1269L46.3117 22.3603C45.3533 23.2808 44.1772 23.747 42.7844 23.747H39.3859V30.333H37.3283V14.0761H42.7844ZM52.8039 24.7968C51.9732 24.7968 51.2695 25.0043 50.7072 25.4062C50.1577 25.8081 49.8771 26.3145 49.8771 26.9238C49.8773 27.468 50.1325 27.9731 50.5539 28.2842C51.014 28.6471 51.5765 28.842 52.1516 28.8291C53.0206 28.8291 53.8516 28.4787 54.465 27.8564C55.1421 27.2084 55.4874 26.4438 55.4875 25.5625C54.8486 25.044 53.9539 24.784 52.8039 24.7968ZM39.3859 21.7509H42.8361C43.6029 21.7769 44.3444 21.4655 44.8683 20.9082C45.9419 19.7803 45.9168 17.9649 44.8049 16.876C44.2809 16.3574 43.5773 16.0722 42.8361 16.0722H39.3859V21.7509Z" fill="#AFAFAF"/>
<path d="M32.2831 22.3212C32.2831 21.686 32.232 21.0507 32.1298 20.4285H23.4534V24.0195H28.4241C28.2196 25.1733 27.5552 26.2104 26.584 26.8586V29.1921H29.5486C31.2864 27.5716 32.2831 25.1733 32.2831 22.3212Z" fill="#4285F4"/>
<path d="M23.4537 31.4478C25.9327 31.4478 28.0283 30.6182 29.549 29.1921L26.5844 26.8586C25.7538 27.429 24.6932 27.7531 23.4537 27.7531C21.0514 27.7531 19.0197 26.1067 18.2914 23.9028H15.2374V26.3141C16.7963 29.4644 19.9781 31.4478 23.4537 31.4478Z" fill="#34A853"/>
<path d="M18.2916 23.9029C17.9082 22.7491 17.9082 21.4916 18.2916 20.3248V17.9265H15.2372C13.9208 20.5582 13.9208 23.6695 15.2372 26.3012L18.2916 23.9029Z" fill="#FBBC04"/>
<path d="M23.4537 16.4746C24.7699 16.4487 26.0349 16.9543 26.9805 17.8747L29.6128 15.2041C27.9389 13.6225 25.741 12.7539 23.4537 12.7799C19.9781 12.7799 16.7963 14.7763 15.2374 17.9265L18.2914 20.3378C19.0197 18.121 21.0514 16.4746 23.4537 16.4746Z" fill="#EA4335"/>
</svg>
