<svg width="83" height="48" viewBox="0 0 83 48" fill="none" xmlns="http://www.w3.org/2000/svg">
<rect width="83" height="48" rx="6" fill="white" fill-opacity="0.05"/>
<rect x="0.5" y="0.5" width="82" height="47" rx="5.5" stroke="white" stroke-opacity="0.07"/>
<path d="M50.3525 10.1938C57.8897 10.1939 63.9998 16.3749 64 23.9995C64 31.6243 57.8898 37.8061 50.3525 37.8062C46.9742 37.8062 43.8832 36.5633 41.5 34.5063C39.1168 36.5633 36.0258 37.8062 32.6475 37.8062C25.1102 37.8061 19 31.6243 19 23.9995C19.0002 16.3749 25.1103 10.1939 32.6475 10.1938C36.0254 10.1938 39.1169 11.4352 41.5 13.4917C43.8831 11.4352 46.9746 10.1938 50.3525 10.1938Z" fill="#ED0006"/>
<path d="M50.3525 10.1938C57.8897 10.1939 63.9998 16.3749 64 23.9995C64 31.6243 57.8898 37.8061 50.3525 37.8062C46.9742 37.8062 43.8832 36.5633 41.5 34.5063C44.434 31.9741 46.2949 28.2068 46.2949 23.9995C46.2948 19.792 44.4344 16.0239 41.5 13.4917C43.8831 11.4352 46.9746 10.1938 50.3525 10.1938Z" fill="#F9A000"/>
<path d="M41.4999 13.4919C44.4343 16.0242 46.2948 19.7921 46.2949 23.9998C46.2949 28.2071 44.434 31.9743 41.4999 34.5066C38.5659 31.9743 36.705 28.2071 36.705 23.9998C36.705 19.7922 38.5656 16.0242 41.4999 13.4919Z" fill="#FF5E00"/>
</svg>
