<svg width="83" height="48" viewBox="0 0 83 48" fill="none" xmlns="http://www.w3.org/2000/svg">
<rect width="83" height="48" rx="6" fill="white" fill-opacity="0.05"/>
<rect x="0.5" y="0.5" width="82" height="47" rx="5.5" stroke="white" stroke-opacity="0.07"/>
<path fill-rule="evenodd" clip-rule="evenodd" d="M26.87 30.5051H23.8755C23.6705 30.5051 23.4963 30.6541 23.4643 30.8563L22.2531 38.5352C22.2291 38.6868 22.3464 38.8234 22.5001 38.8234H23.9297C24.1347 38.8234 24.3089 38.6744 24.3409 38.4718L24.6676 36.4007C24.6991 36.1979 24.8738 36.0491 25.0783 36.0491H26.0263C27.9989 36.0491 29.1373 35.0945 29.4347 33.203C29.5687 32.3754 29.4404 31.7252 29.0528 31.2697C28.6272 30.7698 27.8722 30.5051 26.87 30.5051ZM27.2155 33.3098C27.0518 34.3843 26.2308 34.3843 25.4369 34.3843H24.985L25.302 32.3774C25.3209 32.2563 25.4259 32.1669 25.5485 32.1669H25.7557C26.2964 32.1669 26.8066 32.1669 27.0702 32.4751C27.2273 32.6591 27.2755 32.9323 27.2155 33.3098ZM35.8215 33.2753H34.3875C34.2653 33.2753 34.1597 33.3647 34.1409 33.486L34.0774 33.8871L33.9771 33.7418C33.6667 33.2911 32.9745 33.1406 32.2835 33.1406C30.6988 33.1406 29.3454 34.3408 29.0817 36.0244C28.9448 36.8641 29.1395 37.6672 29.6159 38.2272C30.053 38.7421 30.6783 38.9567 31.4222 38.9567C32.6989 38.9567 33.4071 38.1356 33.4071 38.1356L33.3431 38.5342C33.319 38.6866 33.4363 38.8232 33.5891 38.8232H34.8809C35.0864 38.8232 35.2596 38.6742 35.292 38.4716L36.0671 33.5635C36.0916 33.4125 35.9747 33.2753 35.8215 33.2753ZM33.8225 36.0664C33.6841 36.8856 33.0339 37.4356 32.2047 37.4356C31.7883 37.4356 31.4554 37.302 31.2418 37.0489C31.0299 36.7977 30.9492 36.4398 31.0167 36.0414C31.146 35.2291 31.8072 34.6613 32.6238 34.6613C33.0308 34.6613 33.362 34.7965 33.58 35.0518C33.7984 35.3097 33.8851 35.6696 33.8225 36.0664ZM42.0178 33.2751H43.4589C43.6607 33.2751 43.7785 33.5015 43.6638 33.667L38.8709 40.5853C38.7933 40.6973 38.6654 40.764 38.5289 40.764H37.0896C36.8869 40.764 36.7686 40.5358 36.8859 40.3699L38.3783 38.2633L36.7911 33.6052C36.7362 33.4433 36.8557 33.2751 37.028 33.2751H38.444C38.628 33.2751 38.7903 33.3959 38.8434 33.572L39.6857 36.3853L41.6733 33.4577C41.7511 33.3434 41.8804 33.2751 42.0178 33.2751Z" fill="#253B80"/>
<path fill-rule="evenodd" clip-rule="evenodd" d="M57.6421 38.5352L58.871 30.7158C58.8899 30.5944 58.995 30.505 59.1172 30.5046H60.5008C60.6536 30.5046 60.7709 30.6416 60.7468 30.7932L59.5348 38.4717C59.5032 38.6744 59.329 38.8233 59.1237 38.8233H57.8881C57.7353 38.8233 57.6179 38.6867 57.6421 38.5352ZM48.23 30.505H45.2349C45.0304 30.505 44.8562 30.654 44.8241 30.8562L43.613 38.5352C43.5889 38.6867 43.7062 38.8233 43.8592 38.8233H45.396C45.5388 38.8233 45.661 38.7191 45.6833 38.5773L46.027 36.4006C46.0586 36.1978 46.2333 36.0491 46.4377 36.0491H47.3852C49.3582 36.0491 50.4964 35.0945 50.7941 33.2029C50.9284 32.3753 50.7994 31.7251 50.4119 31.2696C49.9866 30.7697 49.2322 30.505 48.23 30.505ZM48.5755 33.3097C48.4122 34.3842 47.5911 34.3842 46.7968 34.3842H46.3453L46.6628 32.3774C46.6817 32.2562 46.7858 32.1668 46.9088 32.1668H47.1159C47.6563 32.1668 48.167 32.1668 48.4304 32.475C48.5876 32.659 48.6355 32.9322 48.5755 33.3097ZM57.1807 33.2752H55.7476C55.6244 33.2752 55.5199 33.3646 55.5014 33.486L55.438 33.887L55.3373 33.7417C55.0269 33.291 54.3351 33.1405 53.6441 33.1405C52.0593 33.1405 50.7064 34.3407 50.4427 36.0243C50.3062 36.8641 50.5001 37.6671 50.9765 38.2272C51.4144 38.742 52.0389 38.9566 52.7827 38.9566C54.0595 38.9566 54.7675 38.1356 54.7675 38.1356L54.7037 38.5341C54.6796 38.6865 54.7969 38.8231 54.9507 38.8231H56.2419C56.4463 38.8231 56.6206 38.6742 56.6526 38.4715L57.4281 33.5634C57.4518 33.4124 57.3345 33.2752 57.1807 33.2752ZM55.1819 36.0663C55.0443 36.8855 54.3933 37.4355 53.5639 37.4355C53.1483 37.4355 52.8147 37.3019 52.601 37.0489C52.389 36.7976 52.3094 36.4397 52.376 36.0414C52.5059 35.229 53.1663 34.6612 53.9829 34.6612C54.3902 34.6612 54.7211 34.7964 54.9393 35.0517C55.1586 35.3097 55.2453 35.6695 55.1819 36.0663Z" fill="#179BD7"/>
<path d="M37.9523 27.758L38.3205 25.4196L37.5004 25.4006H33.5845L36.3059 8.14519C36.3142 8.0931 36.3418 8.04453 36.3819 8.01004C36.422 7.97555 36.4735 7.95654 36.527 7.95654H43.1297C45.3218 7.95654 46.8345 8.41269 47.6243 9.313C47.9945 9.73537 48.2304 10.1767 48.3445 10.6624C48.464 11.1721 48.4662 11.781 48.3493 12.5236L48.3408 12.5778V13.0537L48.7112 13.2635C49.0231 13.4289 49.2707 13.6182 49.4608 13.835C49.7777 14.1962 49.9825 14.6551 50.0691 15.1992C50.1584 15.7589 50.1288 16.4248 49.9825 17.1787C49.8136 18.0459 49.5404 18.8013 49.1716 19.4193C48.8322 19.9888 48.4 20.461 47.8869 20.8272C47.397 21.1749 46.8148 21.4389 46.1566 21.6079C45.5188 21.7739 44.7917 21.8578 43.9942 21.8578H43.4803C43.1129 21.8578 42.7559 21.9901 42.4758 22.2274C42.195 22.4695 42.009 22.8002 41.952 23.1621L41.9133 23.3726L41.2629 27.494L41.2333 27.6453C41.2256 27.6934 41.2122 27.7173 41.1926 27.7335C41.1749 27.7481 41.1496 27.758 41.1249 27.758H37.9523Z" fill="#253B80"/>
<path d="M49.0618 12.6328C49.0421 12.7588 49.0196 12.8876 48.9943 13.02C48.1234 17.4906 45.1445 19.035 41.3397 19.035H39.4025C38.9373 19.035 38.5452 19.3729 38.4726 19.8319L37.4807 26.1222L37.1999 27.9052C37.1527 28.2065 37.3851 28.4782 37.6891 28.4782H41.1251C41.532 28.4782 41.8775 28.1826 41.9415 27.7814L41.9753 27.6067L42.6223 23.5014L42.6639 23.2763C42.7271 22.8736 43.0734 22.578 43.4803 22.578H43.9942C47.323 22.578 49.9291 21.2264 50.6908 17.3153C51.0089 15.6815 50.8441 14.3173 50.0022 13.3579C49.7475 13.0685 49.4314 12.8285 49.0618 12.6328Z" fill="#179BD7"/>
<path d="M48.1506 12.2701C48.0176 12.2313 47.8802 12.1961 47.7394 12.1645C47.598 12.1335 47.4529 12.106 47.3038 12.0821C46.7814 11.9976 46.2091 11.9575 45.596 11.9575H40.4207C40.2933 11.9575 40.1723 11.9864 40.0639 12.0385C39.8252 12.1532 39.6479 12.3792 39.6049 12.6558L38.5038 19.6289L38.4722 19.8324C38.5448 19.3734 38.9369 19.0355 39.4021 19.0355H41.3393C45.1441 19.0355 48.1232 17.4904 48.9939 13.0204C49.0198 12.8881 49.0417 12.7593 49.0614 12.6333C48.8411 12.5164 48.6024 12.4165 48.3455 12.3313C48.2823 12.3102 48.2168 12.2898 48.1506 12.2701Z" fill="#222D65"/>
<path d="M39.605 12.6556C39.648 12.379 39.8255 12.153 40.064 12.039C40.1732 11.9869 40.2935 11.958 40.4208 11.958H45.5962C46.2094 11.958 46.7816 11.9981 47.3038 12.0826C47.4531 12.1066 47.5982 12.134 47.7397 12.165C47.8805 12.1967 48.0177 12.2319 48.1508 12.2706C48.2169 12.2903 48.2823 12.3107 48.3464 12.3311C48.6033 12.4163 48.842 12.5169 49.0623 12.6331C49.3214 10.981 49.0602 9.8561 48.167 8.83751C47.1822 7.71616 45.4047 7.23608 43.1304 7.23608H36.5274C36.0628 7.23608 35.6666 7.57395 35.5947 8.03362L32.8446 25.4664C32.7903 25.8113 33.0563 26.1225 33.404 26.1225H37.4806L38.5041 19.6287L39.605 12.6556Z" fill="#253B80"/>
</svg>
