<svg width="83" height="48" viewBox="0 0 83 48" fill="none" xmlns="http://www.w3.org/2000/svg">
<rect width="83" height="48" rx="6" fill="white" fill-opacity="0.05"/>
<rect x="0.5" y="0.5" width="82" height="47" rx="5.5" stroke="white" stroke-opacity="0.07"/>
<path d="M21.1973 31.0396C21.4587 31.0396 21.6748 31.1553 21.8447 31.3853V31.0923H22.3652V32.9937C22.3652 33.2436 22.3449 33.4307 22.3037 33.5542C22.2626 33.6781 22.2043 33.7757 22.1299 33.8462C22.0555 33.9166 21.9561 33.9714 21.832 34.0112C21.7078 34.0511 21.551 34.0718 21.3613 34.0718C21.0028 34.0718 20.7479 34.0098 20.5977 33.8862C20.4475 33.7625 20.3721 33.6047 20.3721 33.4146C20.3721 33.396 20.3728 33.3737 20.374 33.3472L21.0107 33.4165C21.0215 33.4952 21.0465 33.5489 21.085 33.5786C21.1383 33.6209 21.2225 33.6421 21.3369 33.6421C21.4832 33.6421 21.5927 33.6204 21.666 33.5767C21.7151 33.5474 21.7529 33.5002 21.7783 33.4351C21.7955 33.3883 21.8037 33.3029 21.8037 33.1782L21.8057 32.8687C21.6401 33.0944 21.4296 33.2075 21.1748 33.2075C20.8907 33.2074 20.6658 33.087 20.5 32.8462C20.37 32.6559 20.3047 32.4186 20.3047 32.1353C20.3047 31.78 20.39 31.5085 20.5605 31.3208C20.7311 31.1333 20.9438 31.0396 21.1973 31.0396ZM45.0205 32.5942L45.5156 31.0913H46.0947L45.2139 33.5005C45.1647 33.6242 45.1176 33.7185 45.0732 33.7837C45.0289 33.8487 44.9776 33.9015 44.9199 33.9419C44.862 33.9825 44.7914 34.0152 44.707 34.0376C44.6226 34.0604 44.5271 34.0718 44.4209 34.0718C44.3133 34.0718 44.207 34.0602 44.1035 34.0376L44.0518 33.5991C44.1396 33.6167 44.2196 33.6245 44.29 33.6245C44.4207 33.6244 44.5174 33.5863 44.5801 33.5093C44.6429 33.4317 44.6903 33.3328 44.7236 33.2134L43.9189 31.0913H44.5146L45.0205 32.5942ZM14.751 30.2339C15.1167 30.2339 15.3921 30.3143 15.5771 30.4751C15.7621 30.6363 15.8599 30.8517 15.8691 31.1206L15.2783 31.144C15.2531 30.9938 15.1991 30.8859 15.1162 30.8198C15.0334 30.754 14.9089 30.7212 14.7432 30.7212C14.5722 30.7212 14.4386 30.7562 14.3418 30.8267C14.2796 30.8717 14.2482 30.9319 14.248 31.0073C14.248 31.0765 14.2777 31.1357 14.3359 31.1851C14.41 31.2474 14.5907 31.313 14.877 31.3804C15.1628 31.4479 15.3746 31.5177 15.5117 31.5903C15.6486 31.6629 15.7564 31.7625 15.834 31.8882C15.9111 32.0141 15.9501 32.1693 15.9502 32.354C15.9502 32.5221 15.9035 32.6801 15.8105 32.8267C15.7176 32.9731 15.5857 33.0816 15.416 33.1528C15.2462 33.224 15.0347 33.2603 14.7812 33.2603C14.4126 33.2602 14.1294 33.174 13.9316 33.0024C13.7341 32.8307 13.6157 32.5804 13.5771 32.2515L14.1504 32.1929C14.1848 32.3862 14.2541 32.5287 14.3594 32.6196C14.4649 32.7103 14.608 32.7554 14.7871 32.7554C14.9765 32.7553 15.1196 32.7147 15.2158 32.6343C15.3115 32.5537 15.3593 32.4597 15.3594 32.3521C15.3594 32.2829 15.339 32.2241 15.2988 32.1753C15.2585 32.1267 15.1884 32.0845 15.0879 32.0483C15.019 32.0248 14.8618 31.9822 14.6172 31.9214C14.3025 31.8435 14.0821 31.7473 13.9551 31.6333C13.7766 31.473 13.6875 31.2772 13.6875 31.0464C13.6876 30.8983 13.7293 30.7593 13.8135 30.6304C13.8975 30.5013 14.0187 30.4029 14.1768 30.3354C14.3352 30.2679 14.527 30.2339 14.751 30.2339ZM25.1006 31.0396C25.416 31.0396 25.6654 31.144 25.8477 31.353C26.0299 31.5624 26.1164 31.8831 26.1084 32.3149H24.7021C24.706 32.4814 24.7519 32.6109 24.8389 32.7036C24.9258 32.7959 25.0343 32.8422 25.1641 32.8423C25.2524 32.8423 25.3275 32.8187 25.3877 32.771C25.4477 32.7235 25.4937 32.647 25.5244 32.5415L26.0801 32.6343C26.0082 32.838 25.8942 32.9935 25.7393 33.1001C25.5843 33.2069 25.3899 33.2603 25.1572 33.2603C24.7886 33.2602 24.5157 33.1392 24.3389 32.8979C24.1991 32.7047 24.1299 32.4604 24.1299 32.1655C24.1299 31.8139 24.2216 31.5378 24.4053 31.3384C24.5886 31.1393 24.8204 31.0396 25.1006 31.0396ZM31.3232 32.0649C31.3232 32.362 31.3329 32.5444 31.3535 32.6118C31.3741 32.6793 31.4124 32.7326 31.4668 32.772C31.5212 32.811 31.5902 32.8306 31.6738 32.8306C31.7692 32.8305 31.8552 32.805 31.9307 32.7524C32.0063 32.7 32.058 32.634 32.0859 32.5562C32.1136 32.4781 32.1279 32.2873 32.1279 31.9849V31.0913H32.6885V33.2075H32.168V32.8911C32.0908 33.0039 31.9889 33.0931 31.8633 33.1597C31.7376 33.226 31.6054 33.2602 31.4658 33.2603C31.3234 33.2603 31.1962 33.228 31.083 33.1655C30.9702 33.1031 30.8885 33.0156 30.8379 32.9028C30.7873 32.7897 30.7617 32.6327 30.7617 32.4331V31.0913H31.3232V32.0649ZM36.0479 31.0396C36.3676 31.0396 36.6296 31.1444 36.834 31.353C37.0381 31.5617 37.1406 31.8254 37.1406 32.144C37.1406 32.4652 37.0372 32.7317 36.8311 32.9429C36.6248 33.1541 36.3649 33.2602 36.0518 33.2603C35.8581 33.2603 35.6728 33.2162 35.4971 33.1284C35.3212 33.0403 35.1881 32.9108 35.0967 32.7407C35.005 32.5706 34.959 32.3639 34.959 32.1196C34.959 31.933 35.005 31.7524 35.0967 31.5776C35.1882 31.4032 35.3174 31.2692 35.4854 31.1772C35.6531 31.0853 35.8409 31.0396 36.0479 31.0396ZM42.625 31.0396C42.8744 31.0396 43.0606 31.0695 43.1826 31.1284C43.3046 31.1879 43.3908 31.263 43.4404 31.354C43.4902 31.445 43.5156 31.6126 43.5156 31.856L43.5098 32.5112C43.5098 32.6974 43.5184 32.8351 43.5361 32.9233C43.5541 33.0118 43.5877 33.1065 43.6367 33.2075H43.0811C43.0663 33.171 43.0486 33.1163 43.0273 33.0444C43.0182 33.0119 43.0115 32.9906 43.0078 32.98C42.9123 33.0733 42.8099 33.1432 42.7012 33.1899C42.5925 33.2364 42.4768 33.2603 42.3535 33.2603C42.1363 33.2602 41.965 33.2007 41.8398 33.0825C41.7147 32.964 41.6514 32.8134 41.6514 32.6323C41.6514 32.5129 41.6805 32.4058 41.7373 32.312C41.7945 32.2183 41.8749 32.146 41.9775 32.0962C42.0804 32.0466 42.2286 32.0026 42.4219 31.9653C42.6832 31.9162 42.8649 31.8703 42.9658 31.8276V31.772C42.9658 31.6631 42.9389 31.5852 42.8857 31.5386C42.8322 31.4922 42.7312 31.4683 42.583 31.4683C42.4833 31.4683 42.4056 31.4886 42.3496 31.5278C42.2935 31.5673 42.2473 31.6361 42.2129 31.7349L41.71 31.6421C41.767 31.4376 41.865 31.2864 42.0039 31.188C42.1433 31.0895 42.3506 31.0396 42.625 31.0396ZM51.127 31.0396C51.4422 31.0396 51.6909 31.1441 51.873 31.353C52.0553 31.5624 52.1427 31.8831 52.1348 32.3149H50.7285C50.7326 32.4815 50.7782 32.6109 50.8652 32.7036C50.9521 32.7959 51.0603 32.8423 51.1904 32.8423C51.2787 32.8423 51.3529 32.8187 51.4131 32.771C51.4735 32.7236 51.5191 32.647 51.5498 32.5415L52.1055 32.6343C52.0335 32.8379 51.9204 32.9935 51.7656 33.1001C51.6105 33.2069 51.4164 33.2602 51.1836 33.2603C50.8152 33.2603 50.5423 33.1391 50.3652 32.8979C50.2254 32.7047 50.1553 32.4605 50.1553 32.1655C50.1553 31.8139 50.2474 31.5378 50.4307 31.3384C50.6143 31.1391 50.8463 31.0396 51.127 31.0396ZM55.9062 31.0913H56.2891V31.5386H55.9062V32.394C55.9062 32.5665 55.9098 32.6676 55.917 32.6968C55.924 32.7254 55.9406 32.7494 55.9658 32.7681C55.9913 32.7866 56.0222 32.7963 56.0586 32.7964C56.1097 32.7964 56.1836 32.7785 56.2803 32.7427L56.3291 33.1763C56.1997 33.2321 56.0531 33.2603 55.8896 33.2603C55.7891 33.2603 55.6987 33.2424 55.6182 33.2085C55.5379 33.1748 55.4791 33.1306 55.4414 33.0767C55.4039 33.023 55.3777 32.9505 55.3633 32.8589C55.3512 32.7936 55.3457 32.6615 55.3457 32.4634V31.5386H55.0908V31.0913H55.3457V30.6685L55.9062 30.3384V31.0913ZM57.5674 31.0396C57.858 31.0396 58.0743 31.0866 58.2158 31.1802C58.3571 31.274 58.4543 31.4128 58.5078 31.5962L57.9814 31.6948C57.9587 31.6126 57.9153 31.5491 57.8516 31.5054C57.7877 31.4615 57.6969 31.44 57.5791 31.4399C57.4302 31.4399 57.323 31.4607 57.2588 31.5024C57.216 31.5317 57.1944 31.5692 57.1943 31.6157C57.1943 31.6558 57.2129 31.6901 57.25 31.7183C57.3006 31.7555 57.4763 31.8092 57.7754 31.8774C58.074 31.9456 58.2827 32.0287 58.4014 32.1274C58.5184 32.2276 58.5781 32.3674 58.5781 32.5464C58.5781 32.7413 58.4966 32.9091 58.335 33.0493C58.1729 33.1897 57.9333 33.2603 57.6162 33.2603C57.3289 33.2602 57.1013 33.2016 56.9336 33.0854C56.7659 32.9688 56.6562 32.8107 56.6045 32.6108L57.166 32.5239C57.1899 32.6319 57.2379 32.7139 57.3105 32.77C57.3835 32.8262 57.4852 32.854 57.6162 32.854C57.7607 32.854 57.8696 32.8273 57.9424 32.7739C57.9914 32.7363 58.0165 32.6865 58.0166 32.6235C58.0166 32.5809 58.0031 32.5449 57.9766 32.5171C57.9484 32.4902 57.8854 32.4657 57.7881 32.4429C57.3346 32.3425 57.0469 32.251 56.9258 32.1685C56.7576 32.054 56.6738 31.8944 56.6738 31.6909C56.6739 31.5071 56.7464 31.353 56.8916 31.228C57.0371 31.1029 57.2622 31.0396 57.5674 31.0396ZM66.0186 31.0396C66.3337 31.0396 66.5832 31.144 66.7656 31.353C66.9476 31.5624 67.0343 31.8832 67.0264 32.3149H65.6201C65.6242 32.4815 65.67 32.6109 65.7568 32.7036C65.844 32.796 65.9523 32.8422 66.082 32.8423C66.1706 32.8423 66.2453 32.8187 66.3057 32.771C66.3657 32.7235 66.4115 32.647 66.4424 32.5415L66.998 32.6343C66.9262 32.838 66.8122 32.9935 66.6572 33.1001C66.5022 33.2069 66.3079 33.2603 66.0752 33.2603C65.7066 33.2602 65.4337 33.1392 65.2568 32.8979C65.117 32.7047 65.0469 32.4605 65.0469 32.1655C65.0469 31.8139 65.1386 31.5378 65.3223 31.3384C65.5055 31.139 65.7381 31.0396 66.0186 31.0396ZM68.4258 31.0396C68.6751 31.0396 68.8614 31.0695 68.9834 31.1284C69.1054 31.1879 69.1916 31.263 69.2412 31.354C69.291 31.445 69.3164 31.6126 69.3164 31.856L69.3105 32.5112C69.3106 32.6974 69.3191 32.8351 69.3369 32.9233C69.3549 33.0118 69.3886 33.1065 69.4375 33.2075H68.8818C68.867 33.171 68.8496 33.1163 68.8281 33.0444C68.8191 33.0119 68.8123 32.9906 68.8086 32.98C68.7132 33.0731 68.6115 33.1432 68.5029 33.1899C68.3942 33.2365 68.2776 33.2603 68.1543 33.2603C67.9371 33.2602 67.7657 33.2007 67.6406 33.0825C67.5156 32.964 67.4531 32.8134 67.4531 32.6323C67.4532 32.5129 67.4811 32.4058 67.5381 32.312C67.5951 32.2183 67.6756 32.1461 67.7783 32.0962C67.8812 32.0466 68.0294 32.0026 68.2227 31.9653C68.484 31.9162 68.6657 31.8703 68.7666 31.8276V31.772C68.7666 31.6631 68.7397 31.5852 68.6865 31.5386C68.6332 31.4922 68.5319 31.4683 68.3838 31.4683C68.2841 31.4683 68.2064 31.4886 68.1504 31.5278C68.0946 31.5673 68.0491 31.6363 68.0146 31.7349L67.5107 31.6421C67.5677 31.4376 67.6658 31.2864 67.8047 31.188C67.9441 31.0895 68.1514 31.0396 68.4258 31.0396ZM17.123 33.2075H16.5615V31.0913H17.123V33.2075ZM19.0322 31.0396C19.1556 31.0396 19.2691 31.0624 19.3711 31.1069C19.4728 31.1514 19.5502 31.2079 19.6025 31.2769C19.6549 31.346 19.6914 31.4253 19.7119 31.5132C19.7324 31.6009 19.7432 31.7267 19.7432 31.8901V33.2075H19.1816V32.1255C19.1816 31.8966 19.1692 31.7483 19.1455 31.6812C19.1216 31.6141 19.0828 31.5612 19.0293 31.5239C18.976 31.4871 18.9117 31.4683 18.8369 31.4683C18.7405 31.4683 18.6538 31.4952 18.5771 31.5483C18.5005 31.6016 18.4483 31.6723 18.4199 31.7603C18.3914 31.848 18.377 32.0105 18.377 32.2476V33.2075H17.8154V31.0923H18.3359V31.4028C18.5201 31.1608 18.7527 31.0396 19.0322 31.0396ZM23.5986 33.2075H23.0371V30.2856H23.5986V33.2075ZM30.1035 30.7788H28.5352V31.4282H29.9941V31.9204H28.5352V32.7153H30.1621V33.2075H27.9453V30.2856H30.1035V30.7788ZM34.3643 31.0396C34.4916 31.0396 34.6144 31.0754 34.7324 31.146L34.5615 31.6353C34.4672 31.5744 34.3789 31.5444 34.2979 31.5444C34.2193 31.5445 34.1532 31.566 34.0986 31.6089C34.044 31.6523 34.001 31.7304 33.9697 31.8433C33.9384 31.9562 33.9219 32.1931 33.9219 32.5532V33.2075H33.3613V31.0923H33.8818V31.3931C33.9709 31.251 34.051 31.1566 34.1221 31.1099C34.1932 31.0633 34.2739 31.0396 34.3643 31.0396ZM39.9131 30.2856C40.2708 30.2856 40.5045 30.3005 40.6133 30.3296C40.7803 30.3734 40.9204 30.4689 41.0332 30.6157C41.146 30.7624 41.2021 30.9525 41.2021 31.1851C41.2021 31.3644 41.1695 31.5156 41.1045 31.6382C41.0398 31.76 40.9572 31.8556 40.8574 31.9253C40.7576 31.9951 40.6559 32.0413 40.5527 32.064C40.4122 32.092 40.2085 32.106 39.9424 32.106H39.5586V33.2075H38.9688V30.2856H39.9131ZM48.9521 31.0396C49.1076 31.0396 49.2392 31.0709 49.3467 31.1343C49.4543 31.1972 49.5347 31.291 49.5879 31.4136C49.6261 31.5039 49.6455 31.6501 49.6455 31.8521V33.2075H49.084V31.9956C49.084 31.7853 49.0647 31.6496 49.0264 31.5884C48.9745 31.5084 48.8952 31.4683 48.7881 31.4683C48.7098 31.4683 48.6362 31.4926 48.5674 31.5405C48.4985 31.5886 48.4483 31.6589 48.418 31.7515C48.3875 31.8438 48.3721 31.9898 48.3721 32.189V33.2075H47.8105V32.0454C47.8105 31.839 47.8012 31.7061 47.7812 31.646C47.7614 31.5862 47.7303 31.5415 47.6885 31.5122C47.6467 31.4832 47.59 31.4683 47.5186 31.4683C47.4325 31.4683 47.355 31.492 47.2861 31.5386C47.2173 31.5851 47.1677 31.6521 47.1377 31.7397C47.1079 31.8277 47.0938 31.9736 47.0938 32.1772V33.2075H46.5322V31.0923H47.0469V31.3804C47.2318 31.1531 47.4525 31.0396 47.708 31.0396C47.8434 31.0396 47.9608 31.0678 48.0605 31.1235C48.1603 31.1795 48.243 31.2636 48.3066 31.3765C48.3995 31.2637 48.5002 31.1795 48.6074 31.1235C48.7152 31.0677 48.83 31.0396 48.9521 31.0396ZM53.9219 31.0396C54.0452 31.0396 54.1589 31.0624 54.2607 31.1069C54.3624 31.1514 54.4398 31.2079 54.4922 31.2769C54.5446 31.346 54.581 31.4253 54.6016 31.5132C54.6223 31.6009 54.6328 31.7267 54.6328 31.8901V33.2075H54.0713V32.1255C54.0713 31.8966 54.0587 31.7483 54.0352 31.6812C54.0113 31.6142 53.9733 31.5612 53.9199 31.5239C53.8665 31.4869 53.8017 31.4683 53.7266 31.4683C53.6303 31.4683 53.5433 31.4951 53.4668 31.5483C53.3901 31.6016 53.3381 31.6723 53.3096 31.7603C53.2812 31.848 53.2666 32.0105 53.2666 32.2476V33.2075H52.7051V31.0923H53.2266V31.4028C53.4109 31.1609 53.6425 31.0397 53.9219 31.0396ZM63.0762 33.2075H62.4404L62.1885 32.5464H61.0127L60.7725 33.2075H60.1484L61.2783 30.2856H61.8984L63.0762 33.2075ZM64.4814 31.0396C64.6088 31.0396 64.7313 31.0754 64.8496 31.146L64.6797 31.6353C64.5851 31.5742 64.4962 31.5444 64.415 31.5444C64.3364 31.5445 64.2703 31.566 64.2158 31.6089C64.1612 31.6523 64.118 31.7303 64.0869 31.8433C64.0554 31.9562 64.04 32.1931 64.04 32.5532V33.2075H63.4785V31.0923H63.999V31.3931C64.088 31.2511 64.168 31.1567 64.2393 31.1099C64.3102 31.0633 64.3909 31.0396 64.4814 31.0396ZM42.9658 32.1929C42.8942 32.217 42.7808 32.2464 42.626 32.2798C42.4712 32.313 42.3697 32.3455 42.3223 32.3774C42.2494 32.4296 42.2129 32.4958 42.2129 32.5757C42.213 32.6544 42.2427 32.7223 42.3008 32.7798C42.359 32.8368 42.4326 32.8656 42.5225 32.8657C42.6229 32.8657 42.7191 32.8326 42.8105 32.7661C42.8779 32.7153 42.9222 32.653 42.9434 32.5796C42.9578 32.5315 42.9658 32.44 42.9658 32.3052V32.1929ZM68.7666 32.1929C68.6951 32.217 68.5816 32.2464 68.4268 32.2798C68.272 32.313 68.1706 32.3455 68.123 32.3774C68.0503 32.4295 68.0146 32.4958 68.0146 32.5757C68.0147 32.6544 68.0433 32.7223 68.1016 32.7798C68.1597 32.837 68.2341 32.8657 68.3242 32.8657C68.4245 32.8657 68.5201 32.8324 68.6113 32.7661C68.6787 32.7153 68.724 32.653 68.7451 32.5796C68.7595 32.5315 68.7666 32.44 68.7666 32.3052V32.1929ZM36.0508 31.4976C35.9044 31.4976 35.7814 31.5536 35.6816 31.6655C35.5818 31.7774 35.5322 31.9394 35.5322 32.1499C35.5323 32.3607 35.5819 32.5223 35.6816 32.6343C35.7814 32.7461 35.9044 32.8022 36.0508 32.8022C36.197 32.8022 36.3199 32.7462 36.4189 32.6343C36.518 32.5223 36.5674 32.3592 36.5674 32.146C36.5674 31.938 36.518 31.7774 36.4189 31.6655C36.3199 31.5536 36.197 31.4976 36.0508 31.4976ZM21.3359 31.4683C21.203 31.4683 21.0929 31.5211 21.0068 31.6255C20.9206 31.7303 20.8779 31.8897 20.8779 32.104C20.8779 32.3292 20.9205 32.4947 21.0068 32.5991C21.0929 32.7038 21.1997 32.7554 21.3262 32.7554C21.4613 32.7553 21.5755 32.7021 21.6689 32.5952C21.7623 32.488 21.8096 32.3282 21.8096 32.1177C21.8095 31.8983 21.7651 31.735 21.6758 31.6284C21.5862 31.522 21.4728 31.4683 21.3359 31.4683ZM61.1924 32.0542H61.9941L61.5859 30.9702L61.1924 32.0542ZM25.1348 31.4683C25.012 31.4683 24.9101 31.5137 24.8301 31.604C24.7499 31.6943 24.7106 31.8179 24.7119 31.9731H25.5527C25.5488 31.8084 25.5069 31.6831 25.4268 31.5972C25.3468 31.5116 25.2495 31.4683 25.1348 31.4683ZM51.1602 31.4683C51.0378 31.4683 50.9362 31.5139 50.8564 31.604C50.7763 31.6943 50.737 31.8179 50.7383 31.9731H51.5791C51.575 31.8085 51.5334 31.6831 51.4531 31.5972C51.3733 31.5115 51.275 31.4683 51.1602 31.4683ZM66.0527 31.4683C65.9298 31.4683 65.828 31.5137 65.748 31.604C65.6679 31.6943 65.6284 31.8179 65.6299 31.9731H66.4707C66.4666 31.8084 66.4247 31.6831 66.3447 31.5972C66.2646 31.5116 66.1673 31.4683 66.0527 31.4683ZM39.5586 31.6138H39.8799C40.1114 31.6138 40.2666 31.5987 40.3447 31.5679C40.4226 31.5371 40.4841 31.4889 40.5283 31.4233C40.5726 31.3579 40.5947 31.2808 40.5947 31.1938C40.5946 31.087 40.5631 30.9987 40.501 30.9292C40.4388 30.8597 40.3598 30.8167 40.2646 30.7993C40.1944 30.786 40.0534 30.7788 39.8418 30.7788H39.5586V31.6138ZM17.123 30.8022H16.5615V30.2856H17.123V30.8022ZM20.0859 14.0093C21.6898 14.0093 22.8331 14.1016 23.5146 14.2847C25.1778 14.7323 26.0098 15.986 26.0098 18.0464C26.0098 18.2154 25.9973 18.4684 25.9727 18.8062H22.1504C22.1504 18.1782 22.0772 17.7562 21.9307 17.5415C21.7033 17.2239 21.0752 17.065 20.0479 17.0649C19.0501 17.0649 18.3882 17.1563 18.0654 17.3394C17.743 17.5231 17.582 17.9228 17.582 18.5376C17.5821 19.0941 17.7251 19.4606 18.0117 19.6362C18.217 19.7607 18.4881 19.8341 18.8262 19.856L19.5967 19.9106C21.2485 20.0205 22.2809 20.0981 22.6924 20.1421C23.9984 20.274 24.9457 20.6212 25.5332 21.1851C25.9956 21.6251 26.2714 22.2005 26.3594 22.9106C26.4109 23.3354 26.4365 23.8161 26.4365 24.3501C26.4365 25.5811 26.3188 26.4829 26.084 27.0542C25.6584 28.1023 24.7022 28.7644 23.2148 29.0425C22.5917 29.16 21.6384 29.2192 20.3564 29.2192C18.2161 29.2192 16.7241 29.091 15.8818 28.8345C14.8484 28.5202 14.1667 27.8838 13.8369 26.9253C13.6532 26.3916 13.5625 25.5025 13.5625 24.2583H17.3848V24.5767C17.3848 25.2403 17.575 25.6678 17.9551 25.8579C18.2186 25.989 18.5371 26.0577 18.9111 26.0659H20.3164C21.0334 26.0659 21.4911 26.0284 21.6885 25.9546C22.0395 25.8162 22.2697 25.5938 22.3799 25.2856C22.4384 25.0959 22.4678 24.8498 22.4678 24.5493C22.4677 23.8764 22.2221 23.4667 21.7324 23.3198C21.5485 23.2618 20.6959 23.1811 19.1758 23.0786C17.9545 22.9913 17.106 22.9071 16.6309 22.8257C15.3799 22.5912 14.546 22.1092 14.1299 21.3774C13.7641 20.7555 13.5811 19.814 13.5811 18.5552C13.5811 17.5965 13.6803 16.8277 13.8779 16.2495C14.0757 15.6712 14.3942 15.2324 14.834 14.9321C15.4782 14.4712 16.3023 14.2005 17.3057 14.1196C18.1406 14.0467 19.0672 14.0093 20.0859 14.0093ZM50.4336 13.9282C51.4833 13.9282 52.2846 14.0145 52.835 14.186C54.0936 14.5812 54.9385 15.3903 55.3711 16.6128C55.5943 17.2544 55.7061 18.2206 55.7061 19.5103C55.706 21.0609 55.5818 22.1754 55.3369 22.854C54.846 24.1959 53.8354 24.9691 52.3096 25.1694C52.1301 25.1995 51.3662 25.227 50.0186 25.2485L49.3369 25.271H46.8877V29.2183H42.7793V13.9282H50.4336ZM69.4199 29.2183H65.2588L64.4756 26.5757H58.9824L58.2441 29.2183H53.9941L58.5801 13.9282H64.7773L69.4199 29.2183ZM59.8662 23.5972H63.6592L61.7344 16.9692L59.8662 23.5972ZM46.8877 21.7241H49.4492C50.2611 21.6948 50.7549 21.6316 50.9326 21.5337C51.1753 21.3999 51.3388 21.1325 51.4199 20.731C51.4718 20.4637 51.4971 20.0664 51.4971 19.5386C51.4971 18.8919 51.4463 18.4122 51.3428 18.0991C51.195 17.6606 50.8407 17.3934 50.2803 17.2964C50.1695 17.2817 49.9038 17.2739 49.4834 17.2739H46.8877V21.7241Z" fill="#AFAFAF"/>
<path fill-rule="evenodd" clip-rule="evenodd" d="M37.1091 16.0793C38.8036 16.0793 40.3158 16.8612 41.3099 18.0859L42.1955 16.1839C40.8105 14.8726 38.9255 14.0642 36.8464 14.0642C33.6093 14.0642 30.8402 16.0225 29.7037 18.7947H27.9769L26.9572 20.9843H29.1787C29.162 21.1875 29.1513 21.3908 29.1513 21.5982C29.1513 21.8492 29.1643 22.0972 29.1891 22.3422H28.0726L27.0531 24.5326H29.7567C30.9256 27.2346 33.66 29.1316 36.8464 29.1316C38.4521 29.1316 39.9421 28.6496 41.1758 27.8264V25.142C40.1823 26.275 38.7292 26.9911 37.1091 26.9911C35.2154 26.9911 33.5497 26.0129 32.5797 24.5326H38.241L39.2605 22.3422H31.7467C31.708 22.0786 31.6873 21.8093 31.6873 21.5349C31.6873 21.3494 31.6969 21.1658 31.7147 20.9843H39.8923L40.9118 18.7947H32.4219C33.3608 17.1715 35.108 16.0793 37.1091 16.0793Z" fill="#FFBE00"/>
</svg>
