<svg width="83" height="48" viewBox="0 0 83 48" fill="none" xmlns="http://www.w3.org/2000/svg">
<rect width="83" height="48" rx="6" fill="white" fill-opacity="0.05"/>
<rect x="0.5" y="0.5" width="82" height="47" rx="5.5" stroke="white" stroke-opacity="0.07"/>
<path d="M51.0059 17.8809C53.4849 17.881 55.8227 20.1138 55.8369 24.2119C55.8369 28.6918 53.5271 30.7266 50.9912 30.7266C49.7451 30.7265 48.9943 30.2043 48.4844 29.8369L48.4697 33.8359L44.9277 34.585V18.1064H48.0449L48.2285 18.9834C48.7243 18.5312 49.6175 17.8809 51.0059 17.8809ZM20.7881 17.8809C21.9639 17.8809 23.1259 18.0649 24.3018 18.5312V21.8516C23.2251 21.2722 21.8647 20.9473 20.7881 20.9473C20.0374 20.9473 19.584 21.1598 19.584 21.7109C19.5848 23.2933 24.9819 22.5448 24.9961 26.7559C24.996 29.2854 22.97 30.7412 20.0234 30.7412C18.8052 30.7412 17.4736 30.5007 16.1562 29.9355V26.5723C17.3462 27.2222 18.8478 27.7021 20.0234 27.7021C20.8166 27.7021 21.3826 27.4906 21.3828 26.8408C21.3828 25.1591 16 25.7803 16 21.8799C16.0001 19.3787 17.9125 17.8809 20.7881 17.8809ZM29.1465 18.1211H31.8379V21.1309H29.1465V26.1484C29.1468 28.2389 31.3837 27.5902 31.8379 27.4062V30.2744C31.3704 30.5287 30.5207 30.7412 29.3594 30.7412C27.2628 30.7412 25.6896 29.2007 25.6895 27.1094L25.7041 15.7891L29.1611 15.0547L29.1465 18.1211ZM61.8857 17.8809C65.2432 17.8809 67 20.7357 67 24.3535C67 24.6928 66.9717 25.4277 66.9717 25.6113H60.0439C60.1999 27.2785 61.4181 27.7587 62.792 27.7588C64.1945 27.7588 65.3003 27.4619 66.2637 26.9814V29.8086C65.3003 30.3456 64.0247 30.7266 62.3389 30.7266C58.8824 30.7265 56.4737 28.5787 56.4736 24.3252C56.4736 20.7357 58.5141 17.8809 61.8857 17.8809ZM36.2441 19.167C37.0797 17.6412 38.7366 17.9515 39.1904 18.1211V21.3711C38.7507 21.2157 37.3345 21.0187 36.499 22.1064V30.4863H32.958V18.1211H36.0176L36.2441 19.167ZM43.6104 30.4863H40.0547V18.1211H43.6104V30.4863ZM50.1553 21.0186C49.3479 21.0186 48.838 21.3012 48.4697 21.7109L48.4834 26.9531C48.8234 27.3205 49.3196 27.6181 50.1553 27.6182C51.4586 27.6182 52.3369 26.2042 52.3369 24.3105C52.3368 22.4594 51.4444 21.0186 50.1553 21.0186ZM61.8711 20.75C60.9787 20.7502 60.002 21.4141 60.002 23.0107H63.6562C63.6562 21.4138 62.7353 20.75 61.8711 20.75ZM43.6104 16.2842L40.0547 17.0469V14.1641L43.6104 13.415V16.2842Z" fill="#AFAFAF"/>
</svg>
