<svg width="83" height="48" viewBox="0 0 83 48" fill="none" xmlns="http://www.w3.org/2000/svg">
<rect width="83" height="48" rx="6" fill="white" fill-opacity="0.05"/>
<rect x="0.5" y="0.5" width="82" height="47" rx="5.5" stroke="white" stroke-opacity="0.07"/>
<path fill-rule="evenodd" clip-rule="evenodd" d="M27.7506 32.6399H22.9907L19.4213 19.0226C19.2519 18.3962 18.8922 17.8425 18.3631 17.5815C17.0425 16.9256 15.5874 16.4036 14 16.1403V15.616H21.6678C22.7261 15.616 23.5198 16.4036 23.6521 17.3182L25.5041 27.1408L30.2617 15.616H34.8893L27.7506 32.6399ZM37.535 32.6399H33.0396L36.7413 15.616H41.2366L37.535 32.6399ZM47.0525 20.3321C47.1848 19.4152 47.9785 18.891 48.9045 18.891C50.3596 18.7593 51.9447 19.0226 53.2675 19.6762L54.0612 16.0109C52.7384 15.4867 51.2832 15.2234 49.9627 15.2234C45.5997 15.2234 42.4249 17.5814 42.4249 20.8541C42.4249 23.3438 44.6737 24.6511 46.2611 25.4386C47.9785 26.2239 48.6399 26.7481 48.5076 27.5334C48.5076 28.7113 47.1848 29.2356 45.8642 29.2356C44.2768 29.2356 42.6894 28.8429 41.2366 28.187L40.4429 31.8546C42.0303 32.5082 43.7477 32.7715 45.3351 32.7715C50.2273 32.9009 53.2675 30.5451 53.2675 27.0091C53.2675 22.5563 47.0525 22.2953 47.0525 20.3321ZM69 32.6399L65.4306 15.616H61.5967C60.803 15.616 60.0093 16.1403 59.7448 16.9256L53.1352 32.6399H57.7628L58.6865 30.1525H64.3724L64.9015 32.6399H69ZM62.2581 20.2005L63.5787 26.6165H59.877L62.2581 20.2005Z" fill="#AFAFAF"/>
</svg>
